<?xml version="1.0" encoding="UTF-8"?>
<svg id="Layer_2" xmlns="http://www.w3.org/2000/svg" viewBox="0 0 153.68 154.41">
  <defs>
    <style>
      .cls-1 {
        fill: #808285;
      }
    </style>
    <filter id="innerBevel">
      <feGaussianBlur in="SourceGraphic" stdDeviation="3" result="coloredBlur"/>
      <feSpecularLighting in="coloredBlur" surfaceScale="6" specularConstant=".7" specularExponent="20" lighting-color="#fff" result="spec">
        <fePointLight x="-5000" y="-10000" z="20000"/>
      </feSpecularLighting>
      <feComposite in="spec" in2="SourceAlpha" operator="in" result="spec"/>
      <feComposite in="spec" in2="SourceGraphic" operator="arithmetic" k1="0" k2="1" k3="1" k4="0"/>
    </filter>
  </defs>
  <g id="Layer_2-2" data-name="Layer_2">
    <path class="cls-1" d="M145.93,75.93l6.82-4.43c1.39-.9,1.18-3-.36-3.61l-7.54-2.97c-1.37-.54-1.73-2.3-.69-3.34l5.75-5.75c1.17-1.17.53-3.18-1.11-3.45l-7.99-1.33c-1.45-.24-2.17-1.89-1.37-3.12l4.43-6.82c.9-1.39-.14-3.22-1.8-3.15l-8.09.36c-1.47.06-2.52-1.4-1.99-2.77l2.92-7.59c.6-1.55-.81-3.12-2.41-2.7l-7.84,2.03c-1.42.37-2.75-.84-2.52-2.29l1.28-8.03c.26-1.64-1.44-2.88-2.92-2.14l-7.25,3.62c-1.31.66-2.87-.25-2.95-1.72l-.42-8.12c-.09-1.66-2.01-2.52-3.31-1.49l-6.34,5.05c-1.15.91-2.86.35-3.24-1.07l-2.1-7.86c-.43-1.6-2.49-2.05-3.54-.77l-5.15,6.25c-.93,1.13-2.72.94-3.39-.37l-3.69-7.25c-.75-1.48-2.86-1.49-3.62-.02l-3.74,7.19c-.68,1.3-2.47,1.48-3.39.34l-5.11-6.32c-1.04-1.29-3.11-.86-3.55.74l-2.16,7.81c-.39,1.42-2.11,1.96-3.25,1.04l-6.32-5.12c-1.29-1.04-3.22-.2-3.32,1.46l-.49,8.09c-.09,1.47-1.65,2.36-2.96,1.69l-7.24-3.7c-1.48-.75-3.19.48-2.94,2.12l1.2,8.01c.22,1.45-1.13,2.65-2.54,2.27l-7.86-2.11c-1.6-.43-3.02,1.13-2.44,2.68l2.84,7.59c.52,1.38-.55,2.83-2.02,2.75l-8.12-.43c-1.66-.09-2.72,1.73-1.83,3.13l4.36,6.83c.79,1.24.05,2.88-1.4,3.11l-8.03,1.27c-1.64.26-2.3,2.26-1.14,3.44l5.68,5.78c1.03,1.05.65,2.81-.72,3.33l-7.59,2.91c-1.55.59-1.78,2.69-.39,3.6l6.76,4.47c1.23.81,1.22,2.61-.01,3.41l-6.82,4.43c-1.39.9-1.18,3,.36,3.61l7.54,2.97c1.37.54,1.73,2.3.69,3.34l-5.75,5.75c-1.17,1.17-.53,3.18,1.11,3.45l7.99,1.33c1.45.24,2.17,1.89,1.37,3.12l-4.43,6.82c-.9,1.39.14,3.22,1.8,3.15l8.09-.36c1.47-.06,2.52,1.4,1.99,2.77l-2.92,7.59c-.6,1.55.81,3.12,2.41,2.7l7.84-2.03c1.42-.37,2.75.84,2.52,2.29l-1.28,8.03c-.26,1.64,1.44,2.88,2.92,2.14l7.25-3.62c1.31-.66,2.87.25,2.95,1.72l.42,8.12c.09,1.66,2.01,2.52,3.31,1.49l6.34-5.05c1.15-.91,2.86-.35,3.24,1.07l2.1,7.86c.43,1.6,2.49,2.05,3.54.77l5.15-6.26c.93-1.13,2.72-.94,3.39.37l3.69,7.25c.75,1.48,2.86,1.49,3.62.02l3.74-7.19c.68-1.3,2.47-1.48,3.39-.34l5.11,6.32c1.04,1.29,3.11.86,3.55-.74l2.16-7.81c.39-1.42,2.11-1.96,3.25-1.04l6.32,5.12c1.29,1.04,3.22.2,3.32-1.46l.49-8.09c.09-1.47,1.65-2.36,2.96-1.69l7.24,3.7c1.48.75,3.19-.48,2.94-2.12l-1.2-8.01c-.22-1.45,1.13-2.65,2.54-2.27l7.85,2.11c1.6.43,3.02-1.13,2.44-2.68l-2.84-7.59c-.52-1.38.55-2.83,2.02-2.75l8.12.43c1.66.09,2.72-1.73,1.83-3.13l-4.36-6.83c-.79-1.24-.05-2.88,1.4-3.11l8.03-1.27c1.64-.26,2.3-2.26,1.14-3.44l-5.68-5.78c-1.03-1.05-.65-2.81.72-3.33l7.6-2.91c1.55-.59,1.78-2.69.39-3.6l-6.76-4.47c-1.23-.81-1.22-2.61.01-3.41Z" filter="url(#innerBevel)"/>
  </g>
</svg>