<?xml version="1.0" encoding="UTF-8"?>
<svg id="Layer_2" xmlns="http://www.w3.org/2000/svg" viewBox="0 0 195.01 136.77">
  <defs>
    <style>
      .cls-1 {
        fill: #fff;
      }
    </style>
  </defs>
  <g id="Layer_1-2" data-name="Layer_1">
    <g>
      <path class="cls-1" d="M129.9,90.74c-.22,5.29-.5,10.47-.32,15.72.55.18,1.01.34,1.48.5,2.85.97,5.14,3.95,3.8,7.97-.58,1.76-2.02,2.85-3.67,3.41-1.96.65-3.97.64-5.79-.69-2-1.46-2.87-3.47-2.57-5.81.3-2.37,1.76-4.04,4.07-4.86,1.36-.49,1.36-.51,1.4-1.93.12-4,.25-8,.37-11.99.08-2.55,0-2.67-2.59-2.61-.89.02-1.8.22-2.64.52-1.27.45-2.53.74-3.86.48-.49-.1-1.1-.2-1.4-.53-.9-1.02-2.05-1.16-3.26-1.27-.45-.04-.9-.19-1.31-.37-1.29-.56-2.59-1.02-3.99-1.32-1.5-.32-2.49-1.43-2.61-3-.14-1.77-.04-3.54.61-5.23.53-1.38,1.53-2.03,3.05-2.04,1.32,0,2.62-.06,3.78.76.33-.31.64-.5.83-.79,1.04-1.61,2.23-3.17,3.03-4.89.93-2,1.55-4.15,2.22-6.26.35-1.1.44-2.29.79-3.39.69-2.14-.16-3.99-1.02-5.81-.38-.8-1.15-1.26-2.07-1.38-.75-.09-1.5-.21-2.26-.27-2.19-.17-3.38-1.44-3.39-3.67,0-.91-.02-1.82.03-2.73.11-2.13,1.28-3.17,3.38-3.19,1.41-.02,2.83-.13,4.23-.29.46-.05.91-.37,1.3-.66,1.68-1.21,3.31-2.48,5.01-3.66.92-.64,1.99-.92,3.16-.91,3.09.02,6.17-.05,9.26-.06.94,0,1.72-.27,2.54-.78,1.93-1.21,4.07-1.1,6.14-.41.97.32,1.68,1.15,1.99,2.18.58,1.87,1.14,3.75,1.64,5.65,1.25,4.76,1.89,9.62,2.19,14.52.21,3.38.42,6.77,0,10.15-.02.14.05.29.09.5.4,0,.8.03,1.17-.03,1.58-.26,3.01.32,4.44.79.83.27,1.17,1.09,1.45,1.86.7,1.93.9,3.96.91,5.97.01,2.98-.05,5.98-.86,8.89-.27.97-.6,1.93-.96,2.87-.39,1.01-1.09,1.68-2.25,1.75-.4.02-.79.17-1.19.24-.87.16-1.71.12-2.49-.36-.39-.24-.82-.41-1.18-.68-1.85-1.41-3.98-1.88-6.25-2.01-4.85-.27-9.7-.59-14.55-.87-.54-.03-1.09.02-1.84.03ZM120.18,78.89c-.89.22-1.17.76-1.23,1.48-.21,2.61-.08,5.26-.76,7.83-.17.65.26,1.01.96,1.04,1.11.05,2.12-.21,2.96-.94.69-.59,1.34-1.23,2-1.86.41-.39.79-.67,1.46-.56.81.13,1.1-.25.74-.9-.32-.56-.18-.93.08-1.39,2.39-4.23,4.81-8.44,7.15-12.69,1.81-3.28,3.59-6.57,5.27-9.92,2.42-4.85,4.73-9.75,7.11-14.62.14-.29.42-.52.62-.76.63.21,1.14.38,1.88.62-.38.84-.72,1.61-1.08,2.36-2.1,4.39-4.1,8.82-6.33,13.14-2.47,4.81-5.07,9.57-7.75,14.27-2.44,4.29-4.42,8.86-7.73,12.93,1.78.14,3.42.3,5.06.4,5.66.34,11.32.7,16.98.98,2.26.11,4.22.85,6.04,2.15,1.23.88,1.77.71,2.23-.73.5-1.53.84-3.12,1.22-4.69.13-.56.11-1.17,1-1.63.02.74.13,1.29.02,1.79-.35,1.57-.79,3.13-1.19,4.69-.09.35-.16.7-.28,1.23,1.4-.39,1.78-1.37,2.06-2.31,1.36-4.53,1.62-9.14.88-13.81-.1-.6-.24-1.19-.42-1.77-.25-.79-.8-1.07-1.68-.83.21,1.14.46,2.17.57,3.22.11,1.02.84,2.09-.04,3.09-.71-.17-.62-.68-.7-1.11-.23-1.35-.43-2.7-.72-4.03-.1-.47-.37-.94-.65-1.34-.32-.46-.85-.51-1.15-.06-.72,1.09-2.1,1.78-1.99,3.38.03.49-.14,1.01-.95,1.05-.07-.35-.19-.67-.19-.99,0-1.36.04-2.73.08-4.09.07-2.68.19-5.36.2-8.05.02-4.11-.32-8.2-1-12.24-.44-2.59-1.07-5.14-1.59-7.6-.59-.17-1.07-.2-1.38-.44-.37-.29-.76-.73-.84-1.16-.17-.83.76-.56,1.29-1-.21-.45-.32-1.04-.66-1.38-1.34-1.35-3.9-1.56-5.45-.45-.87.63-1.78.93-2.83.9-.61-.02-1.22,0-1.82-.05-3.04-.3-6.06-.15-9.08.22-.56.07-1.24.34-1.59.75-.65.78-1.45,1.23-2.35,1.57-1.83.69-2.92,2.39-2.98,4.32-.05,1.71-.17,3.44-.51,5.12-.2.98-.1,1.74.57,2.34.7.63.89,1.44,1.12,2.25.19.68.42,1.37.44,2.06.03,1.15.05,2.33-.18,3.45-.39,1.86-.95,3.69-1.51,5.52-.45,1.46-.46,3.1-1.68,4.26-.29.28-.57.58-.8.91-.72,1.04-1.66,2.01-2.04,3.16-.37,1.15-.94,1.87-1.98,2.27-.61.24-.82.62-.87,1.25-.14,1.95-.33,3.9-.53,6.08.47.19,1.09.53,1.75.71,1.1.3,1.37.17,1.57-.96.29-1.69.56-3.4.63-5.11.05-1.31.38-2.47.97-3.61.58-1.11,1.76-1.29,2.6-.36.33.37.64.8.83,1.26.33.8.93.94,1.7.96,1.31.02,2.18-.63,2.9-1.64.13-.19.5-.2.76-.3.04.31.22.72.09.92-.73,1.09-1.75,1.76-3.08,2.01-1.47.28-2.58-.09-3.36-1.41-.25-.42-.59-.79-.86-1.15ZM123.97,112.78c.14,2.8,2.37,4.99,4.99,4.89,2.89-.11,5.19-2.46,5.08-5.17-.12-2.8-2.43-4.96-5.18-4.85-2.83.11-4.97,2.33-4.89,5.13ZM116.52,54c.79.16,1.56.35,2.34.46.6.09.96-.26,1.05-.83.33-2.03.31-4.07.13-6.14-1.29-.36-2.33.12-3.36.49-.05,1.98-.1,3.87-.16,6.02ZM111.05,79.59c-.24,2.28-.45,4.32-.66,6.35-.05.5.23.73.69.81.75.13,1.3-.16,1.46-.94.41-1.97.41-3.97.22-6.08-.63-.05-1.15-.1-1.7-.14ZM115.21,48.18c-.94,2.25-.93,3.84-.05,5.01.51-1.72.55-3.37.05-5.01ZM109.48,80.44c-1.21,2.01-1.28,3.56-.26,4.76.62-1.51.64-3.04.26-4.76Z"/>
      <path class="cls-1" d="M61.97,68.79c.43.8,1.21,1.48,1.02,2.53-.73.25-.8-.3-1.06-.64-.58-.76-1.11-1.59-1.82-2.19-.55-.46-1.34-.79-2.06-.86-1.71-.16-3.44-.14-5.15-.18-.23,0-.47.1-.85.19.98,1.39,2.37,2.48,2.26,4.6-.43-.31-.75-.44-.89-.67-.29-.47-.46-1.02-.73-1.5-1.34-2.34-4.16-3.19-6.57-2.03-.76.36-1.17.86-1.17,1.76,0,2.13,0,4.26-.14,6.37-.09,1.3.97,2.75,2.46,3.02,2.77.5,4.84-.66,5.84-2.75.23-.48.47-.96.77-1.55.63,1.26.45,1.7-1.73,4.56.61-.01,1.1-.02,1.58-.03,1.37-.05,2.73-.19,4.1-.14,1.84.06,3.08-.77,3.94-2.31.22-.4.37-.84.62-1.22.14-.21.43-.33.73-.56.49,1.26-.41,2-.76,3.01.83,1.12.29,2.54.53,3.85-.72-.05-1.11-.4-1.1-1.16,0-.63-.02-1.25-.04-2.14-1.58,1.33-3.16,1.76-4.87,1.82-1.01.04-2.03.06-3.04.11-.59.03-1.18.12-1.69.17-.1.25-.16.34-.16.43-.04,3.44-.11,6.88-.08,10.33,0,.97-.26,1.68-1.07,2.17-1.01.61-1.41.43-1.79-.99-2.26,1.11-4.98.76-7.37,2.61.74.26,1.14.49,1.56.54,1.31.14,2.62.25,3.93.29,1.11.04,2.23-.04,3.34-.05.43,0,.9-.02,1.12.73-3.25.52-6.4.18-9.53-.06-.6,2.23-.36,2.76,1.69,2.84,3.03.13,6.07.16,9.09.01,3.58-.18,7.08-1.22,10.7-1.06,1.01.04,2.03-.05,3.04-.12.31-.02.6-.17,1.03-.29-.27-.33-.44-.51-.59-.71-1.25-1.68-2.37-3.37-1.98-5.67.19-1.14.23-2.33.11-3.48-.18-1.76.5-3.15,1.49-4.48.22-.3.45-.61.87-1.18-1.93.15-3.54.24-5.14.41-1.11.11-1.97.7-2.65,1.59-1.72,2.24-2.06,4.78-1.7,7.47.15,1.13-.34,2.02-1.41,2.3-.45.12-.9.23-1.51.39-.3-3.88-.02-7.66.03-11.43,0-.2.17-.4.26-.6.12.01.25.03.37.04.42,3.48.04,7.02.32,10.69.88-.5,1.12-1.17.94-1.85-.39-1.49-.17-2.91.25-4.33.8-2.7,2.23-4.77,5.25-5.23.1-.02.19-.07.29-.1,2.11-.13,4.21-.4,6.31-.36,2.95.05,5.12,1.5,6.25,4.27,1.32,3.22,1.43,6.51.1,9.76-.67,1.65-1.83,2.87-3.55,3.55-.62.24-1.23.73-1.63,1.26-1.02,1.36-2.18,2.67-2.22,4.56,0,.44-.46.88-.79,1.47,1.26,1.53,2.58,3.12,3.88,4.72,2.33,2.87,4.65,5.74,6.98,8.61.96,1.18,1.94,2.33,2.88,3.53.42.54.89.5,1.48.41.94-.15,1.91-.34,2.84-.25,2.72.28,4.9,2.55,5.25,5.31.34,2.65-1.14,5.12-3.69,6.17-3.98,1.64-8.94-1.97-8.53-6.24.12-1.29.73-2.41,1.55-3.41.22-.26.44-.52.69-.82-2.16-2.69-4.28-5.34-6.41-7.97-2.17-2.67-4.36-5.34-6.54-8-.32-.39-.67-.76-1-1.15-.4-.47-.84-.59-1.48-.42-4.13,1.12-8.3,1.17-12.49.39-.4-.07-.79-.18-1.19-.26-2.11-.41-3.37-1.6-3.67-3.79-.09-.69-.43-1.34-.7-2.15-.6-.07-1.24-.16-1.89-.22-.6-.06-1.22-.06-1.82-.12-2.35-.24-2.75-.44-3.22-2.65-.25-1.19-.11-2.53.14-3.74.21-1.03,1.3-1.37,2.23-1.61,1.81-.47,3.64-.85,5.47-1.26.64-.14,1.28-.26,2.14-.43.18-3.31.08-6.6-.14-9.89-1.27-.22-2.43-.33-3.55-.63-2.14-.57-3.29-1.92-3.36-4.11-.07-2.48.02-4.96.13-7.44.02-.44.35-.94.67-1.28,1.02-1.09,2.41-1.44,3.81-1.73.73-.15,1.48-.24,2.36-.39.04-5.48.08-10.82.11-16.36-.56.01-.99,0-1.42.03-1.73.13-3.29-.32-4.74-1.29-.64-.43-1.04-.95-1.03-1.73.04-2.94.05-5.88.19-8.81.03-.58.48-1.21.89-1.68.35-.4.89-.67,1.4-.88,1.32-.55,2.82-.62,3.92-1.75.35-.36,1.14-.39,1.73-.4,4.46-.11,8.92-.1,13.37-.29,1.87-.08,2.77.95,3.49,2.35.12.24-.03.62-.06.93-.32-.08-.69-.09-.93-.27-.27-.2-.42-.56-.63-.85-.84-1.19-.91-1.21-2.75-.84.5.83.97,1.61,1.42,2.35-.51.48-.85.29-1.12-.06-.46-.6-.84-1.26-1.33-1.84-.23-.27-.59-.53-.92-.59-.59-.1-1.21-.07-1.82-.06-2.68.06-5.37.15-8.05.19-.76.01-1.41.1-1.65,1.11,1.62.08,3.22.16,4.81.24.81.04,1.61.1,2.42.12,4.12.11,6.5,4.64,5.89,8.23-.7,4.08-3.68,5.92-6.87,5.69-.86-.06-1.72-.01-2.58.02-.64.03-1.29.11-1.89.16-.47,3.07-.51,14.83-.04,16.73.65.02,1.35.05,2.04.08,1.11.05,2.22.1,3.32.18,1.86.13,3.39.95,4.62,2.34,0,0-.02,0-.02,0ZM53.86,43.32c-.15-.47-.28-.82-.37-1.18-.17-.74-.27-1.5-.49-2.22-.89-2.95-4.04-4.49-6.91-3.4-.73.28-1.16.72-1.17,1.57,0,1.26-.11,2.53-.14,3.79-.03,1.21-.06,2.42-.02,3.64.02.75.04,1.59.86,1.98,1.82.85,3.74,1.02,5.54-.49.68-.57,1.12-1.41,1.69-2.11.22-.28.48-.52.72-.78.1.08.2.15.3.23,0,1.73-1.54,2.6-2.57,4.05.97-.02,1.71-.01,2.44-.06,1.16-.07,2.32-.25,3.48-.23,2.09.04,3.74-.87,4.56-2.79.9-2.11.9-4.25-.2-6.3-.73-1.36-1.86-2.31-3.44-2.46-1.61-.16-3.22-.17-4.84-.23-.38-.01-.76.04-1.19.07.63,1.15,1.3,2.16,1.75,3.26.8,1.97.76,2.59-.01,3.66ZM69.3,99.56c-2.71.06-5.12.09-7.52.16-.91.03-1.82.08-2.72.21-1.8.26-3.58.6-5.38.87-1.33.2-2.68.33-3.99.48-.14,2.67.29,3.33,2.67,3.88,1.18.27,2.4.39,3.61.47,3.2.22,6.38.12,9.47-.87.89-.28,1.65-.6,1.87-1.72.13-.66.64-1.25,1-1.86.27-.46.56-.91,1.01-1.63ZM67.27,86.88c.31.13.58.25.86.35,1.16.42,1.58,1.36,1.68,2.47.02.22-.25.46-.39.69-.18-.14-.44-.25-.53-.43-.17-.36-.15-.83-.38-1.14-.24-.33-.65-.67-1.03-.72-.55-.08-.77.42-.77.91,0,1.16-.02,2.32.08,3.47.03.3.46.75.75.79.3.04.73-.28.95-.56.23-.3.22-.78.43-1.11.16-.24.5-.37.76-.55.1.31.32.64.26.92-.18.86-.6,1.62-1.38,2.09-.33.2-.69.35-1.09.55.23.43.4.79.62,1.12,1.52,2.29,3.68,2.38,5.25.15.57-.81.75-1.89,1.31-2.7,1.17-1.72.7-3.48.36-5.26-.03-.14-.08-.35-.18-.4-1.06-.47-1.33-1.61-2.05-2.37-.55-.58-1.1-1.15-2.15-1.14.18.3.26.47.38.61,2.65,3.51,2.72,7.26,1.04,11.16-.17.41-.45.8-.78,1.1-.34.31-.74.3-.96-.21,2.79-4.9,2.24-10.26-1.31-12.39-.77.71-1.54,1.41-1.7,2.61ZM84.68,134.39c2.81-.07,4.93-2.2,4.9-4.92-.04-2.89-2.27-5.03-5.2-4.99-2.74.03-4.9,2.26-4.83,4.97.07,2.72,2.45,5.01,5.13,4.94ZM61.68,106.56s-.03-.08-.04-.12l-5.54.12s0,.08,0,.13l5.58-.12Z"/>
      <path class="cls-1" d="M4.31,59.05c-.23-.37-.4-.66-.58-.95.26-.4.69-.78.71-1.18.02-.44-.34-.89-.58-1.46.7-.43,1.13-1.02.46-1.89-.11-.14-.08-.52.04-.69.63-.87.26-1.62-.28-2.43.96-.74,1.1-1.6.25-2.49.2-.5.53-.96.51-1.39-.02-.45-.39-.88-.61-1.32.26-.36.63-.68.73-1.07.14-.53.09-1.11-.54-1.43-.93-.47-1-1.23-1.07-2.24-.15-1.99.35-3.29,2.6-3.64.06-2.25.11-4.4.16-6.48-.28-.19-.39-.3-.52-.35-1.98-.71-2.08-.83-2.15-2.91-.01-.4,0-.81.02-1.22.07-1.34.39-2.49,1.95-2.82.68-.15.91-.66,1-1.34.25-1.81.58-2.18,2.41-2.22,1.66-.03,3.33.13,4.98.3.75.08,1.42.02,2.03-.4.6-.4.63-1.05-.02-1.3-.77-.31-1.64-.46-2.47-.49-1.61-.07-3.24.03-4.85,0-.51-.01-1.16.02-1.34-.88.29-.11.59-.31.89-.32,1.77-.05,3.54-.09,5.31-.07,1.15,0,2.2-.17,3.11-1.31-.45-.35-.81-.8-1.27-.95-.76-.25-1.57-.4-2.37-.42-1.62-.03-3.24.05-4.86.08-1.02.02-1.05-.01-1.03-1.35,1.44.02,2.88.05,4.32.06.86,0,1.73.04,2.58-.07.64-.08,1.3-.29,1.86-.6.81-.44.81-1.31-.05-1.61-1.08-.38-2.25-.6-3.39-.66-1.46-.08-2.93.04-4.4.11-.85.04-1.22-.33-1.12-1.3.38-.04.76-.12,1.14-.11,1.66.04,3.33.22,4.99.13.92-.05,1.87-.4,2.73-.8.8-.37.79-1.13-.04-1.45-1.07-.41-2.22-.67-3.36-.82-1.05-.13-2.12-.03-3.19-.03-.2,0-.41.03-.61,0-.5-.07-1.17-.1-1.09-.76.09-.72.77-.47,1.24-.42,2.12.21,4.24.37,6.32-.24.6-.18,1.45-.26,1.47-1.09.01-.9-.86-1.05-1.52-1.21-.77-.19-1.59-.32-2.38-.33-1.56-.02-3.13.06-4.7.1-.44.01-.84-.05-.87-.6-.02-.55.39-.64.82-.66,2.48-.11,4.96-.15,7.39.53.19.05.39.12.58.19.87.34,1.76.73,1.87,1.78.12,1.1-.71,1.58-1.56,1.99-.09.04-.15.13-.32.27.62.66,1.77.91,1.77,2.06,0,1.12-1,1.42-1.77,2.04.31.23.58.42.84.61,1.42,1,1.46,1.94.13,3.02-.19.15-.4.29-.56.41.53.71,1.34,1.33,1.41,2.03.07.63-.67,1.34-1.14,2.17.04.04.25.21.46.39.97.86,1.02,2.01-.09,2.63-1.15.65-1.14,1.51-.99,2.57.09.6.31,1,.91,1.26.38.16.9.57.91.89.05,1.4-.03,2.81-.13,4.21-.04.58-.55.81-1.07.94-.49.12-.97.23-1.61.38-.09,2.2-.17,4.35-.26,6.49.42.25.72.43,1.02.6.79.44,1.12,1.11,1.05,2.02-.07.9-.07,1.8-.11,2.84,4.47,1.48,8.87,2.94,13.34,4.43,1.22-1.79,2.68-3.04,4.83-3.2,1.57-.12,3.03.23,4.33,1.13,2.1,1.45,2.97,4.77,1.88,7.08-1.33,2.84-4.3,4.24-7.31,3.41-2.28-.62-4.76-3.4-4.07-7.47-2.38-.81-4.79-1.67-7.23-2.43-2.43-.76-4.79-1.77-7.54-2.18.16,1.25.29,2.32-.2,3.3,1.15,1.01-.6,2.06.04,3.07.64,1.01-.58,1.89-.08,3.05.38.88-.06,2.11-.14,3.18-.08,1.07-.16,2.14-.25,3.26.29.14.55.27.82.39,1.27.55,1.59,1.53,1.46,2.84-.12,1.21-.8,1.87-1.87,2.08-1.53.29-3.09.49-4.64.63-1.11.1-2.27.24-3.33,0-1.34-.3-2.74-.76-3.84-1.54-1.41-1.01-.74-3.63.92-4.17.23-.08.48-.09.81-.15ZM35.09,44.62c-2.23-.32-4.78,2.51-4.66,4.44.16,2.68,1.62,5.28,4.84,5.37,2.44.07,4.9-2.5,4.83-4.92-.08-3.13-2.4-5.12-5.01-4.89ZM7.85,30.62c.03,1.25.07,2.3.06,3.36,0,1.09-.07,2.18-.11,3.22,1.77.6,4.11.67,5.69.22-.05-2.27-.1-4.56-.14-6.91-1.82.04-3.52.07-5.5.12ZM5.08,28.57c3.89.82,7.63.93,11.45.12l-.05-2.39c-3.83.73-7.52.31-11.28-.09-.04.82-.07,1.46-.12,2.36ZM15.13,40.11c-3.36.69-6.6.65-9.81-.05-.34,1.54-.22,1.9.92,2.16,2.49.58,5.01.55,7.51.12,1.21-.2,1.41-.61,1.38-2.24ZM8.11,21.86l.04,1.93c2.13.46,4.2.58,6.32,0,.03-.39.08-.73.08-1.08,0-.19-.07-.39-.13-.68-2.06-.05-4.1-.11-6.31-.17ZM6.8,45.63c1.83-.04,3.5.02,5.15-.14,1.25-.12,1.44-.59,1.04-1.93l-6.23.13.04,1.94ZM12.65,62.72c-1.13.09-2.08.22-3.03.23-1.01.01-2.02-.09-3.03-.12-.9-.03-1.78-.55-2.74-.14.33.35.69.61,1.09.69.94.19,1.89.41,2.84.41,1.86-.01,3.73-.12,5.59-.3.57-.06,1.34-.12,1.55-.95-.38-.18-.71-.33-1.13-.53.48-.46.85-.83,1.32-1.28-.38-.25-.64-.43-1.09-.73.17,1.35-1.69,1.24-1.35,2.72ZM6.37,53.11c2.09.67,3.97.26,5.84-.06.83-.14.96-.75.7-1.45l-6.39.13c-.05.51-.09.89-.15,1.37ZM13.04,48.98l-6.44.13.03,1.26c2,.41,3.8.41,5.36.04.97-.24,1.04-.33,1.05-1.43ZM6.29,59.48c-.15,1.1-.09,1.31.74,1.35,1.5.08,3.02.11,4.52.01,1.21-.07,1.33-.42.84-1.75-.98.1-1.98.24-2.98.31-1,.06-2,.05-3.13.07ZM15.4,38.57c-.5-.15-.8-.35-1.02-.29-2.36.67-4.71.48-7.07.06-.73-.13-1.37.02-2,.49,2.33,1.17,8.09,1.1,10.09-.27ZM12.72,56.68c-2.02.04-3.97.07-5.92.15-.21,0-.53.3-.59.52-.14.47.14.74.62.83,1.77.33,3.52.16,5.25-.26.51-.12.94-.42.64-1.24ZM6.62,47.66c1.99.36,3.93.27,5.86-.04.6-.1.96-.51.6-1.19-1.2.09-2.35.2-3.49.26-.7.04-1.41,0-2.11-.02-.52,0-.9.12-.85.99ZM12.92,54.42c-2.12.04-4.06.07-6.01.14-.18,0-.36.27-.54.42.17.21.33.58.52.61,1.91.26,3.82.18,5.68-.37.18-.05.23-.52.34-.8ZM5.84,25.25c3.54.67,6.93.84,10.47,0-.42-.65-.84-.58-1.29-.47-2.6.64-5.2.61-7.78-.07-.52-.14-.97-.14-1.39.54Z"/>
      <path class="cls-1" d="M173.58,121.76c-.77-.68-1.32-1.12-1.81-1.62-1.32-1.38-1.84-3.13-2.13-4.94-.13-.81-.5-1.24-1.2-1.58-3.44-1.61-6.86-3.26-10.28-4.9-.59-.28-1.19-.58-1.71-.97-1.23-.92-1.99-2.11-1.96-3.74.06-2.84.74-5.36,3-7.33,1.63-1.42,3.39-1.72,5.36-1.05,1.29.44,2.57.94,3.83,1.45,2.43.99,4.88,1.97,7.27,3.06,1,.45,1.77.35,2.68-.2.94-.57,1.98-1.02,3.02-1.37,1.27-.43,2.59-.42,3.87.08,2.07.81,4.17,1.56,6.21,2.44,3.64,1.57,5.21,4.62,5.28,8.35.09,5.33-1.84,9.88-6.08,13.3-.15.12-.4.25-.42.41-.23,1.39-1.27,1.39-2.31,1.4-.1,0-.21,0-.3.03-3.16,1.01-5.98.03-8.71-1.46-.31-.17-.64-.32-.95-.48-.79-.43-1.48-.38-2.22.22-1.52,1.25-3.13,2.41-4.68,3.62-.93.72-.97.78-.54,1.91.61,1.58.58,3.1.09,4.74-.66,2.19-3.91,3.99-6.07,3.6-.88-.16-1.76-.46-2.58-.83-4.02-1.82-4.44-7.65-.52-10.23,2.2-1.45,4.52-1.51,6.71-.07.91.59,1.5.54,2.27-.09,1.53-1.23,3.11-2.39,4.88-3.74ZM184.21,111.44c-.22.75-.44,1.51-.65,2.24,1.35.48,1.36.48,1.3,1.63-.03.54-.12,1.09-.2,1.69l4.34-.09c.3-2.48.97-4.8,1.02-7.47-1.52.13-2.84.25-4.16.36-.16.84-.23,1.5-.44,2.11-.11.33-.46.8-.72.81-.63.02-.58-.55-.55-1.01,0-.1.03-.2.04-.3.11-.47.21-.95.32-1.42-.11-.01-.22-.02-.33-.03l.03,1.48ZM174.18,101.89c-.25-.2-.38-.36-.55-.43-3.79-1.55-7.58-3.12-11.4-4.58-.57-.22-1.42-.06-2.02.21-2.67,1.2-4.14,3.98-3.94,7.08.09,1.44.67,2.45,2.04,3.07,3.32,1.5,6.59,3.1,9.89,4.64.3.14.64.2,1.13.35.37-4.08,2.31-7.33,4.85-10.34ZM180.98,123.58c.23-1.16.46-2.14.61-3.14.15-.95.46-1.95.28-2.84-.23-1.14-.06-2.2.08-3.29.16-1.25.36-2.5.58-3.74.15-.79.34-1.57.58-2.34.41-1.27.47-1.28,1.82-1.27,1.32,0,2.63,0,3.95-.02,1.69-.02,2.88,1.21,2.66,2.87-.28,2.1-.62,4.2-1,6.28-.12.63-.29,1.39-.71,1.81-.84.83-.69,1.78-.8,2.83.27-.09.44-.1.54-.19.3-.27.59-.55.84-.87,1.69-2.09,2.74-4.49,3.16-7.13.3-1.9.39-3.83-.17-5.72-1.17-3.94-4.51-5.75-8.06-4.57-1.54.51-2.78,1.44-3.92,2.52-3.72,3.52-5.14,7.92-4.61,12.94.27,2.6,1.52,4.66,4.17,5.88ZM168.07,130.59c.34-2.12-2.22-4.94-4.8-4.84-2.64.1-5.21,2.43-5.16,4.81.06,2.89,2.23,4.98,5.2,4.97,2.81,0,4.79-2.06,4.77-4.94ZM183.75,122.93c1.01.05,1.7.14,2.4.1.3-.02.78-.22.86-.46.49-1.36.74-2.76.7-4.22l-3.19.07c-.26,1.5-.49,2.86-.77,4.5ZM175.27,116.96c.3-.76-.02-1.03-.47-1.24-.91-.43-1.83-.84-2.73-1.31-.26-.14-.45-.42-.83-.79,1.77-.58,2.79,1.35,4.44.8-.16-.36-.21-.8-.43-.91-1.17-.62-2.28-1.42-3.86-1.55-.07.94-.17,1.73-.17,2.52,0,.26.16.65.36.77,1.15.69,2.25,1.5,3.68,1.72ZM177.13,108.4c-1.18-.48-2.26-.96-3.38-1.36-.93-.33-.99-.25-1.24,1.05,1.25.75,2.6,1.32,4.06,1.88.21-.59.35-.99.56-1.58ZM175.64,112.47c.51-.68.84-1.28.08-1.67-1.19-.62-2.45-1.09-3.72-1.64-.4.81-.47,1.36.24,1.71,1.12.55,2.26,1.07,3.39,1.6ZM179.77,104.35c-1.13-.51-2.23-.96-3.3-1.48-.86-.42-1.16.02-1.44.9,1.17.52,2.28,1.05,3.43,1.51.62.25,1.06-.01,1.31-.94ZM178.24,106.34c-1.19-.5-2.34-1-3.52-1.45-.65-.25-1.06-.01-1.13.86,1.17.5,2.32,1,3.48,1.48.58.24.98.06,1.16-.89ZM181.82,102.89c-1.65-.78-2.9-1.53-4.4-1.61-.17,0-.35.27-.62.5,1.34.79,2.58,1.42,3.98,1.67.21.04.47-.24,1.04-.56ZM175.77,119.45c.07-.08.14-.17.21-.25-.87-1.64-2.65-1.74-4.21-2.31.16.55.37,1.13.77,1.33,1.03.5,2.15.84,3.23,1.24ZM183.73,101.6c-2.2-1.44-3.52-1.79-4.59-1.25,1.7,1.19,3.4,1.69,4.59,1.25ZM173.53,119.64c1.21,1.37,1.93,1.71,3.1,1.44-1.03-.48-2.07-.96-3.1-1.44ZM183.63,115.09q-.69,1.02-.19,1.71c.08-.69.13-1.2.19-1.71ZM183.49,99.87c-.04.11-.08.22-.12.33l2.21.81c.04-.11.08-.23.12-.34-.74-.26-1.47-.53-2.21-.79ZM186.22,108.38s0,.07,0,.1l2.44-.05s0-.07-.01-.1l-2.44.05Z"/>
      <path class="cls-1" d="M99.89,55.88c1.83,1.52,3.6,3,5.45,4.53.59-.33,1.11-.63,1.63-.92,3.71-1.99,7.22.33,8.25,2.71,1.78,4.14-.74,8.13-5.06,8.48-1.19.1-2.31-.1-3.38-.66-1.14-.6-1.17-.58-2.03.36-2.47,2.69-4.92,5.38-7.38,8.07-.88.97-1.76,1.94-2.66,2.92.8,1.42,1.43,2.77,1.33,4.37-.18,2.94-1.89,5.36-4.46,6.08-.48.13-1.06.3-1.48.14-1.84-.69-3.67-1.41-5.43-2.28-.56-.28-1.04-.97-1.29-1.59-1.35-3.33.64-6.77,2.75-8.14,1.15-.75,2.43-.96,3.78-.53,1.2.38,2.41.73,3.85,1.16,3.55-3.92,7.21-7.96,10.9-12.04-.22-.52-.38-.99-.6-1.43-.81-1.61-.81-3.24.03-4.81.43-.8.29-1.27-.39-1.8-1.28-.99-2.54-2.02-3.77-3.07-.62-.53-1.18-.65-1.92-.22-1.51.89-3.06.91-4.63.07-.75-.4-1.64-.57-2.34-1.03-2.86-1.89-2.58-5.86-1.23-8.05.67-1.09,1.55-1.99,2.72-2.58.99-.51,2-.69,3.08-.29.9.34,1.83.6,2.72.95,2.07.82,3.12,2.62,2.9,5.29-.06.7-.18,1.41-.39,2.08-.2.67-.55,1.3-.96,2.22ZM104.8,64.91c.03,2.72,2.2,4.75,5.06,4.71,2.48-.03,4.59-2.29,4.66-4.85.08-3.06-2.43-4.89-4.7-4.86-2.77.04-5.04,2.28-5.01,5ZM94.67,84.31c-.33-.33-.66-.64-.96-.97-.82-.89-1.79-.99-2.9-.63-1.54.5-1.66,1.91-1.98,3.13-.18.69-.2,1.47.25,2.29,1.41-.64,1.72-1.83,1.94-3.07.08-.44.02-.93.18-1.33.1-.25.49-.39.75-.58.16.24.42.46.45.71.13,1.22.02,2.41-.6,3.52-.24.42-.44.86-.66,1.3,1.92.94,2.1.51,2.86-1,.18-.35.24-.76.31-1.16.13-.69.22-1.38.35-2.19ZM89.29,80.9q-.86-.58-1.47-.31c-2.4,1.07-3.92,5.07-2.79,7.41.26.54.57,1.08,1.41,1.04-.08-.54-.18-1.02-.2-1.51-.01-.34-.03-.9.16-1,.99-.53.95-1.61,1.42-2.41.12-.2.25-.58.16-.67-.75-.75-.06-1.17.34-1.64.29-.33.64-.61.98-.92ZM94.22,54.48c2.45-1.23,3.39-4.4,1.86-5.97-2.02,1.38-2.78,3.75-1.86,5.97ZM94.84,46.41c-2.23.19-3.06,1.55-3.73,3.02-.94,2.07-.66,4.07.54,5.95,0-.55-.14-1.08-.25-1.61-.16-.87-.12-1.61.61-2.34.52-.52,1.02-1.48.89-2.12-.17-.85.17-1.23.62-1.69.33-.35.71-.65,1.32-1.2ZM98.54,49.03l-.21.03c-.06.95,0,1.93-.21,2.84-.22.94-.71,1.81-1.11,2.76.27.1.47.25.63.22.56-.1,2.19-1.93,2.26-2.49.02-.2.1-.43.03-.58-.45-.94-.93-1.85-1.41-2.78ZM95.87,47.18c-.01.06-.02.13-.03.19l1.91-.04c0-.06,0-.13,0-.19l-1.87.04ZM92.24,81.51s-.01-.09-.02-.14c-.62.05-1.25.1-1.87.15,0,.06.02.13.02.19.62-.07,1.24-.14,1.87-.21Z"/>
      <path class="cls-1" d="M182.93,41.75c2.08-.84,4.08-1.24,6.1-.19,1.25.65,2.23,1.53,2.8,2.86,1.16,2.71.38,5.65-1.96,7.31-2.41,1.7-5.8,1.53-7.82-.5-1.2-1.2-1.82-2.67-1.96-4.34-.15-1.76.83-3.07,1.96-4.42-1.59-2.44-3.45-4.61-5.3-7.02-.47.48-.83.82-1.15,1.18-2.12,2.3-4.78,3.21-7.86,3.38-3.22.17-6.03-1.05-8.56-2.68-2.43-1.57-3.83-4-4.23-7.06-.57-4.44.78-8.21,3.6-11.48,2.21-2.56,5.01-4.07,8.54-3.88,1.76.09,6.99,1.94,8.34,3.01,2.38,1.9,3.66,4.4,3.94,7.43.27,2.89-.18,5.65-1.61,8.2-.23.41-.43.81-.09,1.26,1.74,2.29,3.47,4.58,5.25,6.93ZM159.65,30.11c.03.31.04.72.1,1.12.92,6.55,7.06,9.7,12.77,6.5,2.15-1.21,3.52-3.14,4.57-5.33,1.57-3.28,1.69-6.63.4-10.01-1.71-4.51-6.77-6.03-10.39-4.47-5.09,2.19-7.48,7.52-7.44,12.19ZM186.57,51.75c2.58-.03,4.56-2.14,4.57-4.88.02-2.71-2.12-4.79-4.76-4.91-2.17-.1-5.24,2.76-5.11,4.87.18,2.78,2.37,4.96,5.29,4.92ZM159.05,25.65c-.24-.78-.85-.9-1.41-1.01-.22-.05-.48.13-.88.25.73.72,1.36,1.05,2.3.77ZM156.55,26.28c.08,1.18.83,1.25,1.37,1.5.15.07.42-.09.64-.15-.1-.24-.13-.61-.31-.71-.45-.25-.97-.38-1.69-.64ZM157.6,23.3c.63.35,1.17.94,2.04.69-.5-1.04-.96-1.23-2.04-.69ZM160.89,18.63c.6,1.06.9,1.14,1.94.64q-.73-.68-1.94-.64ZM156.5,28.62c.4.7.95,1.17,1.89,1.23-.17-1.26-1.17-1.05-1.89-1.23ZM158.53,21.46c.6.68,1.1,1.11,2.06.76-.52-.79-1.09-1.03-2.06-.76ZM156.9,30.58q.7,1.04,1.76.9c-.69-.35-1.22-.62-1.76-.9ZM159.83,19.82c-.07.12-.14.23-.22.35.46.4.95.75,1.74.35-.51-.24-1.01-.47-1.52-.71ZM157.58,32.66q.55.71,1.33.64c-.32-.19-.56-.35-.81-.48-.16-.08-.35-.11-.52-.17Z"/>
      <path class="cls-1" d="M29.28,116.01c-1.51-1.18-3.05-2.4-4.6-3.6-3-2.33-6.01-4.64-9-6.98-1.04-.81-2.01-1.18-3.46-.92-3,.53-6.05.43-9.03-.39-.2-.05-.39-.11-.58-.17-2.17-.73-3-2.11-2.44-4.3.12-.48.62-.87,1-1.26.41-.42.84-.85,1.32-1.18.7-.48,1.4-1.05,2.19-1.26,2.79-.76,5.6-.74,8.37.2,1.04.35,1.94.87,2.35,1.98.07.18.21.35.33.51,1.29,1.72,1.2,3.29-.26,4.83-.06.07-.08.18-.19.42,4.84,3.74,9.72,7.5,14.64,11.3,1.88-1.19,3.78-2.11,6.03-1.4,1.45.46,2.65,1.26,3.46,2.57,1.57,2.55,1.19,5.37-.64,7.28-1.98,2.06-5.35,2.52-7.54,1.09-2.76-1.8-3.5-4.96-1.94-8.72ZM12.41,103.08c-2.87.24-5.73.33-8.59-.19,1.79.64,3.63.81,5.49.69,1.03-.07,2.05-.34,3.08-.52l1.38-.21c-.02-.09-.04-.18-.06-.27l-1.3.49ZM34.52,124.51c2.65-.08,4.74-2.28,4.69-4.94-.06-2.83-2.31-5.1-4.99-5.03-2.61.07-4.99,2.39-4.82,4.89.2,2.99,2.28,5.23,5.12,5.08ZM6.2,98.02c1.86.78,3.73.52,5.6.02-1.86-.58-3.73-.85-5.6-.02ZM2.47,100.72c-.02.15-.04.3-.06.46,2.93,1.46,6.12,1.17,9.31.89-1.55-.08-3.12,0-4.64-.22-1.56-.22-3.07-.74-4.6-1.12ZM7.89,100.89c1.6-.06,3.24.34,4.89-.4-1.7.14-3.3.27-4.89.4Z"/>
      <path class="cls-1" d="M61.97,68.79s.02,0,.02,0c0-1.16-.11-2.32,0-3.47.09-1-.01-1.71-.96-2.3-1.71-1.06-2.41-2.87-2.85-4.69-.51-2.11-.81-4.28-.07-6.43.17-.5.29-.96,1.12-.96-.06.44-.09.82-.15,1.19-.47,2.8-.4,5.54.91,8.15.82,1.63,2.26,2.96,4.53,2.37,1.24-.32,2.59-.23,4.13-.35-.33-.35-.52-.54-.7-.74-.82-.9-1.54-1.77-1.52-3.16.02-1.29-.35-2.59-.56-3.89-.03-.2-.04-.44-.17-.57-.76-.8-.53-1.69-.25-2.56.42-1.28.91-2.54,1.41-3.93-.94-.03-1.95-.06-3.12-.09.49-1.47,1.65-.67,2.52-1.14-.24-.64-.58-1.3-.73-2-.14-.65-.84-1.36.13-2.19.85,1.09.77,2.54,1.67,3.65.4-.1.86-.21,1.44-.35-.89-2.6-1.48-5.15-.9-7.96-.74-.07-1.41-.13-2.09-.19l.03.02c-.34-.52-.25-.91.41-.92.8-.01,1.61.02,2.4.16.76.14.58.82.56,1.37-.06,1.15-.17,2.31-.15,3.46.01.65.23,1.29.36,1.93.28,1.36.94,2.18,2.5,2.35,1.75.18,2.89,1.46,3.64,2.94,1.84,3.63,2.1,7.38.26,11.09-1.07,2.16-2.83,3.51-5.34,3.71-.39.03-.78.13-1.32.23-.07,1.09-.19,2.13-.21,3.18-.04,2.18-.05,4.35-.02,6.53.02,1.66.13,3.33.16,4.99.01.55-.05,1.11-.16,1.65-.04.18-.34.43-.52.43-.17,0-.43-.25-.5-.44-.11-.27-.11-.6-.11-.9.01-4.75.04-9.51.05-14.26,0-.34-.08-.68-.13-1.16-.58-.01-1.11-.03-1.63-.04-.17.54-.31.95-.43,1.32-.9.24-.72-.57-1.12-1-.39.03-.86.08-1.4.13-.08,1.32-.17,2.52-.22,3.73-.02.64-.19,1.09-.93,1.11ZM68.01,50.3c.58.23,1.02.36,1.41.57.88.48,1.56,1.9,1.35,2.85-.05.23-.35.4-.54.59-.16-.17-.4-.31-.46-.52-.14-.43-.16-.89-.28-1.33-.15-.53-.49-.93-1.07-.9-.66.03-1.01.52-1.02,1.12,0,1.06.04,2.12.18,3.17.04.31.45.74.75.8.3.06.74-.21,1-.46.33-.31.55-.75,1-1.4.18.63.35.92.31,1.16-.24,1.21-1.33,1.66-2.2,2.25.61,1.46,1.09,1.94,2.28,2.39.25-.44.52-.87.75-1.31,1.65-3.11,1.91-6.25.17-9.41-.44-.79-.99-1.77-1.97-1.67-.98.09-1.25,1.17-1.67,2.11ZM72.03,60.85c.56-.22,1.03-.27,1.31-.53,1.01-.93,1.87-2,2.26-3.34.66-2.27.44-4.53-.39-6.68-.59-1.54-2.02-2.24-3.57-2.65-.04-.01-.12.13-.18.2,3.01,4.56,3.12,6.49.57,13ZM70.1,46.74c-.02-.06-.05-.11-.07-.17-.22.09-.43.17-.65.26.03.07.06.13.08.2.21-.1.42-.19.63-.29Z"/>
      <path class="cls-1" d="M106.3,124.74c-4.55-4.91-9.23-9.5-13.97-14.01-3.47,2.16-6.51.9-9.38-.85-1.56-.94-1.96-2.75-1.91-4.42.05-2.02.51-4,2.1-5.53,1.19-1.15,1.37-1.22,2.86-.42.26.14.54.26.85.41.24-.31.43-.6.66-.85.42-.46.94-.63,1.5-.32,1.32.73,2.75,1.36,3.91,2.3,1.46,1.19,1.9,2.95,1.68,4.81-.14,1.21-.45,2.39-1.16,3.42-.11.16-.14.37-.25.66.88.89,1.76,1.78,2.64,2.67,3.24,3.28,6.47,6.55,9.71,9.83.25.25.55.45.78.72.65.77,1.34.81,2.29.45,4.4-1.66,8.88,1.84,8.39,6.5-.26,2.46-1.84,4.39-4.39,5.06-2.38.62-4.53.12-6.19-1.82-2.05-2.39-2.29-4.66-.8-7.42.19-.35.4-.69.7-1.18ZM115.72,129.16c.03-2.61-2.27-4.99-4.94-4.88-2.86.11-4.79,1.91-4.94,4.72-.15,2.81,2.49,5.47,5.29,5.29,2.8-.18,4.4-1.63,4.59-5.13ZM84.49,100.74c-1.92,1.67-2.56,4.66-1.52,6.79.38.77.92,1.26,1.97,1.31-1.11-2.74-.07-5.02,1.25-7.3-.66-.31-1.2-.56-1.7-.8ZM87.82,101.27c.32,1.14.3,1.13-.33,2.19-.28.47-.57.97-.68,1.5-.25,1.19-.58,2.44.42,3.51,1.99-1.21,2.82-3.07,2.53-5.08-.18-1.23-1.35-1.36-1.94-2.12ZM89.67,108.74c1.13.46,1.18.51,1.67-.07,1.01-1.21,1.51-2.62,1.19-4.19-.15-.77-.42-1.6-1.42-1.89.12,3.48.06,3.74-1.44,6.16ZM90.97,101.17c.01-.14.04-.27.02-.28-.29-.15-.59-.28-1.2-.57.32.36.38.49.49.55.21.12.44.2.69.31Z"/>
      <path class="cls-1" d="M95.91,27.67q1.48-.81,5.29.76c2.43-4.08,4.87-8.19,7.39-12.42-.3-.33-.59-.66-.89-.97-1.76-1.78-2.33-4.28-1.46-6.42.88-2.17,3.4-3.88,5.72-3.9,2.51-.02,4.9,1.46,5.74,3.76,1.63,4.45-1.63,8.6-6.59,8.27-.44-.03-.88-.14-1.41-.23-.63,1.03-1.23,2.02-1.82,3.01-1.72,2.86-3.42,5.74-5.17,8.59-.49.81-.52,1.52-.14,2.42,1.09,2.54.71,4.97-.95,7.15-1.59,2.09-3.58,2.59-6.04,1.7-.33-.12-.68-.21-1.02-.28-2.47-.53-3.8-2.19-3.92-4.7-.1-1.94.58-3.57,1.69-5.07.7-.96.87-1.01,2.04-.59.46.17.91.39,1.37.59.02.72-.4,1.36.18,1.96.14.15-.14.73-.27,1.1-.39,1.13-.57,2.27-.07,3.4.34.78.67.87,1.43.45,2.01-1.12,2.53-4.87.87-6.42-.21-.2-.52-.3-.79-.43-.69-.34-1.09-.87-1.16-1.73ZM107.08,10.8c.11,3.04,2.16,4.97,5.22,4.91,2.34-.05,4.59-2.56,4.54-5.06-.06-2.73-2.16-5.02-4.55-4.96-2.82.07-5.3,2.51-5.21,5.11ZM100.29,30.83c.67,2.69-.15,4.87-2.45,6.81,3.22-.86,4.35-4.39,2.45-6.81ZM93.33,37.02c-.75-2.34.02-4.49.83-6.67-2.09.44-2.56,4.55-.83,6.67Z"/>
      <path class="cls-1" d="M27.82,74.63c-2.47-.09-4.89-.2-7.31-.25-1.62-.03-3.24-.01-4.86.04-1.26.04-1.63.86-.9,1.91.14.2.36.35.53.54.48.51.64,1.1.58,1.81-.16,2.03-.31,2.33-2.33,2.71-3.02.57-6.04.6-8.99-.38-1.72-.57-2.08-1.26-2.13-3.06-.02-.84.29-1.42,1.03-1.65,1.04-.31,1.28-1.03,1.27-1.97-.02-.81-.03-1.61-.05-2.5-.07-.06-.17-.18-.31-.24-1.69-.75-1.57-2.02-1.11-3.77.1-.38.66-.75,1.09-.92.65-.26,1.36-.42,2.06-.48,2.48-.23,4.95-.29,7.39.35,2.1.56,2.98,2.32,2.08,4.3-.11.24-.4.46-.65.56-.71.26-.73.74-.47,1.49.67.09,1.41.24,2.15.26,3.24.09,6.48.11,9.71.24,1.04.04,1.57-.34,1.93-1.27,1.11-2.95,3.75-3.85,5.57-3.67,2.99.28,4.55,1.38,5.57,4.21.7,1.95.32,4.88-2.23,6.56-2.31,1.53-5.28,1.44-7.19-.28-.92-.82-1.61-1.81-1.94-3.02-.13-.48-.3-.95-.48-1.52ZM34.09,79.45c2.03.21,4.83-1.62,4.78-4.8-.04-2.77-2.08-4.94-4.88-4.91-2.76.03-4.81,1.96-4.85,4.73-.05,2.81,2.1,4.97,4.96,4.98ZM15,68.22c-2.92-1.26-5.68-1.05-8.44-.81-.81.07-1.66.13-2.34.8.91.96,2.4.4,3.12,1.45-.64,1.01-1.99-.6-2.46.89.45.22.83.5,1.26.59,2.4.5,4.83.49,7.24.09.43-.07.88-.29,1.24-.55.21-.15.26-.51.43-.89q-4.54.64-5.47-.11c1.68-.78,3.73.07,5.42-1.48ZM13.27,72.46c-2.31-.04-4.41-.07-6.59-.11-.32,1.48-.41,2.86-.17,4.27,2.32.79,4.53.69,6.84.02l-.09-4.18ZM4.42,79.53c.4.28.55.45.72.49,2.94.7,5.9.77,8.86.16.43-.09.73-.34.5-.93-1.07.16-2.15.39-3.23.46-1.1.07-2.22,0-3.33-.03-1.07-.02-2.1-.66-3.52-.15ZM4.65,77.8c1.31.83,4.89,1.27,7.63.89.79-.11,1.64-.17,2.31-.97-.31-.04-.46-.11-.59-.08-2.73.83-5.44.9-8.14-.1-.43-.16-.88-.2-1.21.25Z"/>
      <path class="cls-1" d="M26.78,91.61c-1.74.04-3.35.07-4.96.1-1.42.03-2.83.07-4.25.08-.85,0-1.51.24-2.16.87-1.32,1.27-2.96,1.62-4.73,1.28-.55-1.75-.54-1.78,1.03-3.09-2.23-.97-4.44-.72-6.71-.08.4.1.79.22,1.2.3.54.11,1.11.14,1.63.32,1.01.35,1.25.76,1.11,1.69-.11.77-.51,1.15-1.53,1.06-1.81-.16-3.63-.39-5.25-1.32-1.96-1.12-2.06-3.83-.17-5.1.58-.38,1.26-.69,1.94-.81,3.02-.54,6.03-.54,8.98.48,2.09.72,2.7,1.3,3.51,3.3.31.04.66.13,1,.13,2.83-.04,5.67-.11,8.5-.14.79,0,1.23-.27,1.57-1.08,1.06-2.51,4.07-4.02,6.65-3.33,2.82.75,4.58,2.76,4.69,5.78.09,2.52-1.53,4.75-3.75,5.71-1.89.82-4.53.31-6.16-1.3-1.07-1.06-1.63-2.42-1.96-3.87-.05-.24-.09-.49-.17-.97ZM28.07,92.05c.06,2.9,2.36,5.18,5.11,5.06,2.44-.1,4.6-2.43,4.6-4.94,0-3.46-2.7-5.08-4.9-5.05-2.81.03-4.87,2.18-4.81,4.93ZM4.41,89.15c2.5.03,4.99.06,7.49.09-2.51-.86-5.02-.93-7.49-.09ZM14.88,90.34c-.06-.03-.12-.07-.19-.1-.11.21-.23.41-.34.62.06.03.12.07.18.1.12-.2.23-.41.35-.61Z"/>
      <path class="cls-1" d="M46.78,73.81c.31.23.49.38.69.5.31.2.79.62.93.53.38-.25.76-.67.89-1.09.21-.67-.06-1.28-.79-1.76-.29.18-.6.43-.95.55-.23.08-.54-.05-.81-.08.06-.28.02-.65.19-.81.66-.63,1.49-.83,2.38-.65,1.12.22,2.2,1.68,2.12,2.81-.09,1.34-1.21,2.58-2.45,2.69-.83.07-1.47-.34-2.01-.89-.43-.43-.71-.97-.2-1.8Z"/>
      <path class="cls-1" d="M55.62,65.51c-.81-.23-.58-.88-.58-1.38.02-2.88.09-5.75.11-8.63,0-1.36-.08-2.72-.06-4.08,0-.55-.25-1.24.63-1.68.13.3.35.58.37.87.05.7,0,1.41,0,2.12,0,3.73,0,7.45,0,11.18,0,.57.2,1.22-.45,1.61Z"/>
      <path class="cls-1" d="M65.35,81.33c-.31-.29-.67-.48-.67-.66.02-2.14.09-4.27.15-6.74.47.4.76.53.84.74.27.72.05,5.64-.32,6.67Z"/>
      <path class="cls-1" d="M65.29,66.8c.54.9.52,4.81-.14,5.97-.17-.39-.37-.65-.4-.94-.19-1.79.11-4.37.54-5.04Z"/>
      <path class="cls-1" d="M65.77,37.17c.46,1.39.08,2.75-.01,4.08-.75.17-.97-.22-.91-.63.17-1.18-.53-2.61.95-3.43,0,0-.03-.02-.03-.02Z"/>
      <path class="cls-1" d="M116.52,54c.06-2.14.11-4.04.16-6.02,1.03-.38,2.07-.85,3.36-.49.18,2.07.2,4.11-.13,6.14-.09.57-.45.92-1.05.83-.78-.12-1.55-.3-2.34-.46Z"/>
      <path class="cls-1" d="M111.05,79.59c.55.05,1.08.09,1.7.14.19,2.11.19,4.11-.22,6.08-.16.78-.72,1.07-1.46.94-.46-.08-.74-.32-.69-.81.21-2.04.42-4.07.66-6.35Z"/>
      <path class="cls-1" d="M115.21,48.18c.5,1.64.46,3.29-.05,5.01-.88-1.17-.89-2.77.05-5.01Z"/>
      <path class="cls-1" d="M109.48,80.44c.38,1.73.37,3.25-.26,4.76-1.02-1.21-.95-2.76.26-4.76Z"/>
      <path class="cls-1" d="M62.85,82.03c-.09.04-.19.09-.29.1-3.02.47-4.46,2.53-5.25,5.23-.42,1.42-.64,2.84-.25,4.33.18.69-.06,1.36-.94,1.85-.28-3.67.11-7.2-.32-10.69-.12-.01-.25-.03-.37-.04-.09.2-.26.4-.26.6-.06,3.77-.33,7.55-.03,11.43.61-.16,1.06-.27,1.51-.39,1.07-.28,1.57-1.16,1.41-2.3-.37-2.69-.02-5.23,1.7-7.47.69-.89,1.54-1.48,2.65-1.59,1.6-.16,3.21-.26,5.14-.41-.43.58-.65.88-.87,1.18-.99,1.33-1.67,2.72-1.49,4.48.12,1.15.08,2.35-.11,3.48-.39,2.29.74,3.99,1.98,5.67.15.2.32.38.59.71-.42.13-.72.27-1.03.29-1.01.07-2.03.16-3.04.12-3.62-.16-7.12.88-10.7,1.06-3.02.15-6.07.11-9.09-.01-2.05-.08-2.29-.62-1.69-2.84,3.13.24,6.28.58,9.53.06-.22-.75-.69-.73-1.12-.73-1.11,0-2.23.09-3.34.05-1.31-.04-2.62-.15-3.93-.29-.42-.04-.82-.28-1.56-.54,2.39-1.85,5.11-1.5,7.37-2.61.38,1.42.78,1.6,1.79.99.81-.49,1.08-1.2,1.07-2.17-.03-3.44.04-6.88.08-10.33,0-.09.07-.18.16-.43.51-.05,1.1-.14,1.69-.17,1.01-.06,2.02-.08,3.04-.11,1.7-.06,3.28-.49,4.87-1.82.02.88.05,1.51.04,2.14-.01.76.37,1.11,1.1,1.16,0,0-.02-.02-.02-.02ZM61.02,94.85c-1.32-.23-2.52.35-3.73.66-1.19.3-2.55.04-3.75.91,1.6.54,6.43-.41,7.48-1.57Z"/>
      <path class="cls-1" d="M53.86,43.32c.77-1.08.81-1.69.01-3.66-.45-1.1-1.12-2.1-1.75-3.26.42-.03.81-.09,1.19-.07,1.61.06,3.23.07,4.84.23,1.58.16,2.71,1.1,3.44,2.46,1.1,2.05,1.1,4.19.2,6.3-.82,1.92-2.47,2.82-4.56,2.79-1.16-.02-2.32.16-3.48.23-.74.04-1.47.04-2.44.06,1.03-1.45,2.58-2.33,2.57-4.05-.1-.08-.2-.15-.3-.23-.24.26-.5.51-.72.78-.57.7-1.01,1.55-1.69,2.11-1.81,1.51-3.73,1.34-5.54.49-.82-.38-.84-1.23-.86-1.98-.04-1.21,0-2.42.02-3.64.03-1.26.14-2.53.14-3.79,0-.85.44-1.29,1.17-1.57,2.87-1.09,6.02.44,6.91,3.4.22.72.31,1.48.49,2.22.08.36.22.71.37,1.18ZM47.06,40.49c.44,0,.75.01,1.05-.03,1.14-.15,1.7.37,1.59,1.5-.08.85-.57,1.35-1.53,1.64-.37-.69-.73-1.36-1.1-2.03-.84.74-.76,1.6.16,2.51,1.02,1,2.53.94,3.49-.14,1.04-1.18.88-3.09-.34-4.06-1.08-.87-2.44-.69-3.31.62Z"/>
      <path class="cls-1" d="M67.27,86.88c.16-1.19.93-1.9,1.7-2.61,3.55,2.13,4.1,7.49,1.31,12.39.22.51.63.52.96.21.32-.3.6-.69.78-1.1,1.68-3.9,1.61-7.65-1.04-11.16-.11-.15-.2-.32-.38-.61,1.05,0,1.6.57,2.15,1.14.72.76.99,1.9,2.05,2.37.1.05.16.26.18.4.34,1.78.81,3.54-.36,5.26-.56.82-.74,1.9-1.31,2.7-1.57,2.23-3.73,2.14-5.25-.15-.22-.33-.39-.7-.62-1.12.41-.2.77-.35,1.09-.55.79-.47,1.2-1.23,1.38-2.09.06-.28-.17-.61-.26-.92-.26.18-.6.31-.76.55-.21.33-.2.81-.43,1.11-.22.28-.66.6-.95.56-.29-.04-.72-.49-.75-.79-.1-1.15-.09-2.31-.08-3.47,0-.49.23-.99.77-.91.38.06.79.4,1.03.72.23.3.21.78.38,1.14.09.19.35.29.53.43.14-.23.41-.47.39-.69-.1-1.12-.52-2.06-1.68-2.47-.28-.1-.55-.22-.86-.35Z"/>
      <path class="cls-1" d="M35.09,44.62c2.61-.23,4.93,1.76,5.01,4.89.07,2.42-2.39,4.99-4.83,4.92-3.22-.09-4.68-2.69-4.84-5.37-.12-1.93,2.44-4.76,4.66-4.44ZM36.25,49.95c-.46-.05-.71-.04-.93-.11-.86-.29-1.7-.62-2.55-.93-.38-.14-.82-.31-1.05.19-.26.59.23.83.63,1,.93.39,1.87.73,2.82,1.07,2.44.87,2.81.58,2.64-2.03-.01-.15.04-.36-.04-.44-.3-.3-.6-.69-.97-.78-.31-.08-.8.13-1.05.38-.38.37-.04.72.25,1.02.09.1.11.26.25.63Z"/>
      <path class="cls-1" d="M7.85,30.62c1.98-.04,3.68-.08,5.5-.12.05,2.35.1,4.63.14,6.91-1.58.45-3.92.38-5.69-.22.04-1.03.1-2.13.11-3.22,0-1.05-.04-2.1-.06-3.36Z"/>
      <path class="cls-1" d="M5.08,28.57c.05-.89.08-1.54.12-2.36,3.76.39,7.44.82,11.28.09l.05,2.39c-3.81.81-7.56.7-11.45-.12Z"/>
      <path class="cls-1" d="M15.13,40.11c.03,1.63-.17,2.03-1.38,2.24-2.5.42-5.03.46-7.51-.12-1.14-.27-1.26-.62-.92-2.16,3.21.7,6.46.74,9.81.05Z"/>
      <path class="cls-1" d="M8.11,21.86c2.21.06,4.24.11,6.31.17.06.29.13.48.13.68,0,.35-.05.7-.08,1.08-2.12.59-4.2.46-6.32,0l-.04-1.93ZM10.69,23.78c.19-.19.41-.3.41-.43,0-.14-.17-.29-.27-.44-.17.12-.34.23-.51.35.1.14.2.29.37.52Z"/>
      <path class="cls-1" d="M6.8,45.63l-.04-1.94,6.23-.13c.4,1.34.21,1.81-1.04,1.93-1.65.16-3.31.1-5.15.14Z"/>
      <path class="cls-1" d="M12.65,62.72c-.34-1.48,1.53-1.37,1.35-2.72.45.3.71.48,1.09.73-.46.45-.84.82-1.32,1.28.42.19.75.35,1.13.53-.2.83-.98.9-1.55.95-1.86.18-3.72.28-5.59.3-.95,0-1.9-.22-2.84-.41-.4-.08-.76-.34-1.09-.69.97-.41,1.84.11,2.74.14,1.01.03,2.02.14,3.03.12.95-.01,1.9-.14,3.03-.23Z"/>
      <path class="cls-1" d="M6.37,53.11c.05-.48.09-.86.15-1.37l6.39-.13c.26.7.13,1.3-.7,1.45-1.87.32-3.75.73-5.84.06Z"/>
      <path class="cls-1" d="M13.04,48.98c0,1.1-.08,1.2-1.05,1.43-1.56.38-3.36.37-5.36-.04l-.03-1.26,6.44-.13Z"/>
      <path class="cls-1" d="M6.29,59.48c1.12-.02,2.13-.01,3.13-.07,1-.06,1.99-.2,2.98-.31.49,1.32.36,1.67-.84,1.75-1.5.09-3.02.07-4.52-.01-.83-.04-.89-.25-.74-1.35Z"/>
      <path class="cls-1" d="M15.4,38.57c-2.01,1.37-7.76,1.44-10.09.27.63-.47,1.27-.62,2-.49,2.36.42,4.71.61,7.07-.06.22-.06.52.14,1.02.29Z"/>
      <path class="cls-1" d="M12.72,56.68c.3.82-.13,1.12-.64,1.24-1.73.42-3.48.59-5.25.26-.48-.09-.76-.37-.62-.83.06-.22.38-.51.59-.52,1.95-.08,3.9-.1,5.92-.15Z"/>
      <path class="cls-1" d="M6.62,47.66c-.05-.87.34-1,.85-.99.7.01,1.41.05,2.11.02,1.14-.06,2.29-.17,3.49-.26.36.68,0,1.09-.6,1.19-1.93.31-3.87.41-5.86.04Z"/>
      <path class="cls-1" d="M12.92,54.42c-.11.28-.17.75-.34.8-1.86.55-3.76.63-5.68.37-.2-.03-.35-.4-.52-.61.18-.15.35-.41.54-.42,1.94-.07,3.89-.1,6.01-.14Z"/>
      <path class="cls-1" d="M5.84,25.25c.43-.68.87-.67,1.39-.54,2.59.68,5.18.71,7.78.07.44-.11.87-.18,1.29.47-3.54.84-6.93.67-10.47,0Z"/>
      <path class="cls-1" d="M174.18,101.89c-2.54,3.01-4.47,6.26-4.85,10.34-.49-.15-.83-.21-1.13-.35-3.3-1.55-6.57-3.14-9.89-4.64-1.38-.62-1.95-1.63-2.04-3.07-.2-3.1,1.27-5.88,3.94-7.08.59-.27,1.45-.42,2.02-.21,3.83,1.46,7.61,3.03,11.4,4.58.17.07.3.24.55.43Z"/>
      <path class="cls-1" d="M104.8,64.91c-.03-2.71,2.24-4.95,5.01-5,2.27-.04,4.78,1.8,4.7,4.86-.06,2.56-2.17,4.81-4.66,4.85-2.86.04-5.03-1.98-5.06-4.71ZM107.31,65.22c.12-.27.31-.57.37-.9.05-.3.03-.87-.08-.9-.32-.1-.79-.11-1.06.07-.73.47-.76,1.25-.67,2.03.09.76.6,1.14,1.26,1.35.74.23,1.54.39,2.19-.11.55-.43.96-1.03,1.41-1.53,0,.1,0,.3,0,.5,0,.53.22.9.78.91.57.01.81-.39.83-.88.11-2.03.11-3.01-2.48-2.76-.15.01-.3,0-.45.04-.95.17-1.09.46-.84,1.46.08.3.12.77-.04.94-.35.36-.82.34-1.21-.22Z"/>
      <path class="cls-1" d="M94.67,84.31c-.13.82-.23,1.51-.35,2.19-.07.39-.13.81-.31,1.16-.77,1.51-.95,1.94-2.86,1,.22-.43.42-.87.66-1.3.61-1.1.73-2.3.6-3.52-.03-.25-.29-.47-.45-.71-.26.19-.65.33-.75.58-.16.4-.1.89-.18,1.33-.22,1.24-.52,2.44-1.94,3.07-.46-.81-.44-1.6-.25-2.29.32-1.22.44-2.63,1.98-3.13,1.11-.36,2.08-.26,2.9.63.3.33.63.64.96.97Z"/>
      <path class="cls-1" d="M89.29,80.9c-.34.31-.69.59-.98.92-.4.47-1.08.9-.34,1.64.09.09-.05.47-.16.67-.47.8-.43,1.88-1.42,2.41-.18.1-.17.66-.16,1,.02.49.13.97.2,1.51-.84.03-1.15-.5-1.41-1.04-1.13-2.34.39-6.34,2.79-7.41q.61-.27,1.47.31Z"/>
      <path class="cls-1" d="M94.22,54.48c-.93-2.22-.16-4.59,1.86-5.97,1.54,1.56.6,4.74-1.86,5.97Z"/>
      <path class="cls-1" d="M94.84,46.41c-.61.55-.99.85-1.32,1.2-.44.46-.79.84-.62,1.69.13.64-.37,1.6-.89,2.12-.73.73-.77,1.47-.61,2.34.1.54.24,1.06.25,1.61-1.2-1.88-1.48-3.88-.54-5.95.67-1.47,1.5-2.83,3.73-3.02Z"/>
      <path class="cls-1" d="M98.54,49.03c.47.92.96,1.84,1.41,2.78.07.15,0,.39-.03.58-.07.56-1.7,2.39-2.26,2.49-.17.03-.36-.12-.63-.22.39-.95.89-1.82,1.11-2.76.21-.91.15-1.89.21-2.84l.21-.03Z"/>
      <path class="cls-1" d="M95.87,47.18l1.87-.04c0,.06,0,.13,0,.19l-1.91.04c.01-.06.02-.13.03-.19Z"/>
      <path class="cls-1" d="M92.24,81.51c-.62.07-1.24.14-1.87.21,0-.06-.02-.13-.02-.19.62-.05,1.25-.1,1.87-.15,0,.05.01.09.02.14Z"/>
      <path class="cls-1" d="M186.57,51.75c-2.92.04-5.12-2.14-5.29-4.92-.13-2.1,2.94-4.97,5.11-4.87,2.64.12,4.77,2.2,4.76,4.91-.02,2.74-1.99,4.84-4.57,4.88ZM185.26,46.34c-.35,0-.71,0-1.06.02-.41.02-.93.07-.83.61.05.26.53.54.86.61.59.12,1.2.13,1.81.12.86,0,1.72,0,2.56-.12.29-.04.72-.45.76-.73.1-.74-1.15-1.58-1.69-1.12-.75.64-1.58.55-2.41.61Z"/>
      <path class="cls-1" d="M159.05,25.65c-.93.28-1.56-.05-2.3-.77.4-.12.66-.29.88-.25.56.12,1.17.23,1.41,1.01Z"/>
      <path class="cls-1" d="M156.55,26.28c.72.26,1.24.39,1.69.64.18.1.21.46.31.71-.22.06-.48.23-.64.15-.54-.25-1.28-.32-1.37-1.5Z"/>
      <path class="cls-1" d="M157.6,23.3c1.09-.54,1.55-.35,2.04.69-.88.25-1.42-.34-2.04-.69Z"/>
      <path class="cls-1" d="M160.89,18.63q1.21-.04,1.94.64c-1.03.51-1.34.42-1.94-.64Z"/>
      <path class="cls-1" d="M156.5,28.62c.72.19,1.71-.02,1.89,1.23-.94-.06-1.49-.53-1.89-1.23Z"/>
      <path class="cls-1" d="M158.53,21.46c.97-.28,1.54-.04,2.06.76-.96.36-1.46-.08-2.06-.76Z"/>
      <path class="cls-1" d="M156.9,30.58c.54.27,1.08.55,1.76.9q-1.07.14-1.76-.9Z"/>
      <path class="cls-1" d="M159.83,19.82c.51.24,1.01.47,1.52.71-.79.4-1.27.05-1.74-.35.07-.12.14-.23.22-.35Z"/>
      <path class="cls-1" d="M157.58,32.66c.17.05.36.09.52.17.25.13.49.29.81.48q-.78.07-1.33-.64Z"/>
      <path class="cls-1" d="M6.2,98.02c1.88-.83,3.74-.56,5.6.02-1.87.5-3.74.76-5.6-.02Z"/>
      <path class="cls-1" d="M68.01,50.3c.42-.94.69-2.01,1.67-2.11.98-.09,1.53.88,1.97,1.67,1.73,3.16,1.48,6.31-.17,9.41-.23.44-.5.87-.75,1.31-1.19-.45-1.67-.94-2.28-2.39.87-.58,1.97-1.04,2.2-2.25.05-.24-.13-.53-.31-1.16-.45.65-.67,1.08-1,1.4-.26.25-.7.52-1,.46-.3-.06-.71-.49-.75-.8-.14-1.05-.19-2.11-.18-3.17,0-.6.36-1.08,1.02-1.12.58-.03.92.38,1.07.9.12.43.14.9.28,1.33.06.2.3.35.46.52.19-.2.49-.37.54-.59.21-.95-.47-2.37-1.35-2.85-.39-.22-.84-.34-1.41-.57Z"/>
      <path class="cls-1" d="M72.03,60.85c2.54-6.52,2.44-8.44-.57-13,.06-.07.14-.21.18-.2,1.54.41,2.97,1.11,3.57,2.65.83,2.15,1.05,4.42.39,6.68-.39,1.34-1.25,2.42-2.26,3.34-.28.26-.75.31-1.31.53Z"/>
      <path class="cls-1" d="M70.1,46.74c-.21.1-.42.19-.63.29-.03-.07-.06-.13-.08-.2.22-.09.43-.17.65-.26.02.06.05.11.07.17Z"/>
      <path class="cls-1" d="M107.08,10.8c-.09-2.6,2.38-5.04,5.21-5.11,2.38-.06,4.49,2.23,4.55,4.96.06,2.49-2.2,5.01-4.54,5.06-3.05.06-5.11-1.87-5.22-4.91ZM112.82,10.73c.37.14.73.29,1.1.43.4.15.86.26.99-.27.06-.24-.17-.71-.4-.84-1.09-.62-2.2-1.2-3.34-1.72-.53-.25-1.16,0-1.14.58.04,1.05-.44,1.87-.94,2.67,1.88,1.4,2.99,1.14,3.73-.85Z"/>
      <path class="cls-1" d="M100.29,30.83c1.9,2.42.77,5.95-2.45,6.81,2.3-1.95,3.11-4.13,2.45-6.81Z"/>
      <path class="cls-1" d="M93.33,37.02c-1.72-2.12-1.25-6.23.83-6.67-.82,2.19-1.59,4.33-.83,6.67Z"/>
      <path class="cls-1" d="M34.09,79.45c-2.86-.01-5.01-2.17-4.96-4.98.05-2.77,2.1-4.7,4.85-4.73,2.8-.03,4.84,2.14,4.88,4.91.05,3.18-2.74,5.01-4.78,4.8ZM34.82,76.34c1.55.17,2.38-.51,2.31-1.79-.06-1.15-.92-1.68-2.4-1.57-.48.04-.98-.09-1.46-.18-1.08-.21-1.85.06-2.39.86-.41.62-.42,1.55-.02,2.13.57.82,1.49,1.14,2.53.88.47-.12.95-.22,1.42-.34Z"/>
      <path class="cls-1" d="M15,68.22c-1.7,1.55-3.74.7-5.42,1.48q.93.75,5.47.11c-.17.37-.22.74-.43.89-.36.26-.8.48-1.24.55-2.42.39-4.84.4-7.24-.09-.43-.09-.81-.38-1.26-.59.46-1.49,1.82.12,2.46-.89-.71-1.05-2.21-.49-3.12-1.45.68-.67,1.54-.72,2.34-.8,2.76-.25,5.53-.45,8.44.81Z"/>
      <path class="cls-1" d="M13.27,72.46l.09,4.18c-2.31.67-4.52.77-6.84-.02-.25-1.42-.15-2.79.17-4.27,2.18.04,4.28.07,6.59.11Z"/>
      <path class="cls-1" d="M4.42,79.53c1.42-.51,2.45.13,3.52.15,1.11.02,2.22.1,3.33.03,1.09-.07,2.16-.3,3.23-.46.23.59-.06.84-.5.93-2.96.61-5.92.55-8.86-.16-.17-.04-.32-.21-.72-.49Z"/>
      <path class="cls-1" d="M4.65,77.8c.33-.45.79-.41,1.21-.25,2.71,1,5.42.93,8.14.1.12-.04.28.03.59.08-.67.8-1.52.87-2.31.97-2.74.37-6.33-.07-7.63-.89Z"/>
      <path class="cls-1" d="M28.07,92.05c-.06-2.75,2.01-4.9,4.81-4.93,2.2-.02,4.9,1.59,4.9,5.05,0,2.51-2.15,4.84-4.6,4.94-2.76.11-5.05-2.16-5.11-5.06ZM31.75,92.63c-1.1-.37-.68-.8-.4-1.31.13-.23.09-.76-.07-.88-.2-.15-.68-.14-.93,0-1.15.68-1.14,2.4.02,3.17,1.33.88,2.79.83,4.22.36,1.02-.33,1.53-1.3,1.38-2.26-.12-.81-.76-1.41-1.65-1.54-.94-.14-1.94.42-2.31,1.34-.13.31-.16.66-.26,1.12Z"/>
      <path class="cls-1" d="M4.41,89.15c2.46-.85,4.97-.78,7.49.09-2.5-.03-4.99-.06-7.49-.09Z"/>
      <path class="cls-1" d="M14.88,90.34c-.12.2-.23.41-.35.61-.06-.03-.12-.07-.18-.1.11-.21.23-.41.34-.62.06.03.12.07.19.1Z"/>
      <path class="cls-1" d="M128.64,42.74c.91.19,1.08.77,1.11,1.29.16,3.34.34,6.68-.61,9.95-.08.29-.15.62-.34.83-.17.19-.53.38-.74.32-.18-.05-.36-.46-.35-.7,0-.34.21-.67.29-1.01.14-.59.34-1.17.37-1.77.09-2.52.13-5.04.19-7.56,0-.39.05-.79.08-1.34Z"/>
      <path class="cls-1" d="M129.4,70.49c-.71-.54-.55-1.12-.5-1.64.23-2.15.43-4.31.73-6.45.18-1.26-.19-2.12-1.29-2.78-.48-.29-.84-.84-1.15-1.33-.11-.17.09-.53.15-.8.3.08.67.08.89.26.5.39.87.97,1.4,1.29.89.55,1.25,1.34,1.16,2.3-.3,2.85-.67,5.69-1.02,8.53-.02.17-.18.32-.36.63Z"/>
      <path class="cls-1" d="M127.91,75.92c-.24-1.73.07-3.05.65-4.4,1.08.89.81,3.08-.65,4.4Z"/>
      <path class="cls-1" d="M151.73,79.62c.27.32.52.49.53.66.03.43-.17.81-.67.75-.16-.02-.42-.35-.39-.49.06-.28.29-.53.53-.92Z"/>
      <path class="cls-1" d="M128.42,56.31c-.32.2-.48.37-.67.4-.09.01-.32-.26-.3-.35.04-.15.23-.32.38-.35.13-.02.29.14.6.31Z"/>
      <path class="cls-1" d="M127.82,77.97c-.15-.27-.32-.44-.29-.57.03-.13.26-.31.4-.3.12,0,.31.25.31.38,0,.13-.21.26-.41.49Z"/>
      <path class="cls-1" d="M61.02,94.85c-1.05,1.15-5.88,2.11-7.48,1.57,1.2-.86,2.56-.6,3.75-.91,1.21-.31,2.41-.89,3.73-.66Z"/>
      <path class="cls-1" d="M47.06,40.49c.87-1.3,2.22-1.48,3.31-.62,1.22.98,1.39,2.89.34,4.06-.96,1.09-2.47,1.15-3.49.14-.92-.91-1-1.77-.16-2.51.37.68.73,1.34,1.1,2.03.96-.3,1.45-.79,1.53-1.64.11-1.13-.45-1.65-1.59-1.5-.3.04-.61.02-1.05.03Z"/>
      <path class="cls-1" d="M36.25,49.95c-.14-.36-.16-.53-.25-.63-.28-.31-.62-.66-.25-1.02.25-.24.74-.45,1.05-.38.37.09.67.48.97.78.08.08.03.29.04.44.18,2.6-.2,2.89-2.64,2.03-.95-.34-1.89-.68-2.82-1.07-.4-.17-.9-.42-.63-1,.23-.5.67-.32,1.05-.19.85.3,1.7.63,2.55.93.22.08.47.06.93.11Z"/>
      <path class="cls-1" d="M10.69,23.78c-.17-.23-.27-.38-.37-.52l.51-.35c.1.15.28.3.27.44,0,.12-.22.24-.41.43Z"/>
      <path class="cls-1" d="M107.31,65.22c.39.56.86.58,1.21.22.17-.17.12-.64.04-.94-.25-1-.11-1.29.84-1.46.15-.03.3-.02.45-.04,2.59-.25,2.58.73,2.48,2.76-.03.5-.26.9-.83.88-.56-.01-.78-.39-.78-.91,0-.2,0-.4,0-.5-.45.49-.86,1.1-1.41,1.53-.65.5-1.45.34-2.19.11-.66-.21-1.17-.59-1.26-1.35-.09-.79-.05-1.57.67-2.03.27-.17.74-.17,1.06-.07.12.04.14.6.08.9-.06.32-.25.62-.37.9Z"/>
      <path class="cls-1" d="M185.26,46.34c.83-.06,1.66.03,2.41-.61.54-.46,1.79.38,1.69,1.12-.04.28-.46.69-.76.73-.84.13-1.71.12-2.56.12-.6,0-1.22,0-1.81-.12-.33-.07-.81-.35-.86-.61-.1-.53.42-.58.83-.61.35-.02.71-.02,1.06-.02Z"/>
      <path class="cls-1" d="M112.82,10.73c-.74,1.99-1.85,2.25-3.73.85.5-.8.97-1.63.94-2.67-.02-.58.6-.82,1.14-.58,1.14.52,2.26,1.1,3.34,1.72.23.13.45.59.4.84-.12.53-.59.42-.99.27-.37-.14-.73-.29-1.1-.43Z"/>
      <path class="cls-1" d="M34.82,76.34c-.47.11-.95.22-1.42.34-1.04.26-1.96-.06-2.53-.88-.41-.58-.4-1.51.02-2.13.54-.8,1.31-1.07,2.39-.86.48.09.98.21,1.46.18,1.48-.11,2.34.42,2.4,1.57.07,1.27-.76,1.96-2.31,1.79ZM32.74,75.7c.26-.44.57-.73.53-.95-.05-.25-.43-.6-.65-.59-.22,0-.6.41-.6.64,0,.25.36.49.72.91ZM35.22,75.17c.19-.17.38-.28.37-.34-.04-.15-.16-.29-.28-.4-.02-.02-.29.14-.29.2,0,.16.11.31.2.54Z"/>
      <path class="cls-1" d="M31.75,92.63c.1-.46.14-.81.26-1.12.37-.91,1.37-1.48,2.31-1.34.88.13,1.52.73,1.65,1.54.15.96-.36,1.92-1.38,2.26-1.43.47-2.89.52-4.22-.36-1.16-.76-1.17-2.49-.02-3.17.24-.14.72-.15.93,0,.16.12.2.65.07.88-.29.51-.7.94.4,1.31ZM33.71,92.71c.52-.02.74-.28.59-.77-.03-.09-.26-.2-.36-.17-.52.18-.46.54-.24.93Z"/>
      <path class="cls-1" d="M32.74,75.7c-.36-.42-.72-.66-.72-.91,0-.23.37-.63.6-.64.22,0,.6.34.65.59.04.22-.27.51-.53.95Z"/>
      <path class="cls-1" d="M35.22,75.17c-.09-.23-.2-.38-.2-.54,0-.07.26-.22.29-.2.12.11.24.25.28.4.02.05-.18.17-.37.34Z"/>
      <path class="cls-1" d="M33.71,92.71c-.22-.39-.28-.75.24-.93.09-.03.33.08.36.17.14.49-.07.75-.59.77Z"/>
    </g>
  </g>
</svg>