<?xml version="1.0" encoding="UTF-8"?>
<svg id="Layer_2" data-name="Layer 2" xmlns="http://www.w3.org/2000/svg" viewBox="0 0 158.06 204.82">
  <defs>
    <style>
      .cls-1 {
        fill: #fff;
        stroke-width: 0px;
      }
    </style>
  </defs>
  <g id="Layer_1-2" data-name="Layer 1">
    <path class="cls-1" d="m12.48,20.61c-2.55,3.89-4.92,7.91-7.74,11.58-.96,1.25-3.05,1.61-4.63,2.38.08-1.75-.46-3.87.33-5.19C5.88,20.4,11.54,11.55,17.31,2.78c.84-1.27,2.69-1.87,4.08-2.78.84,1.46,2.19,2.84,2.42,4.39,1.53,10.19,2.94,20.41,4.08,30.65.17,1.55-1.28,3.28-1.98,4.93-1.16-1.53-3.03-2.92-3.36-4.62-1-5.14-1.42-10.4-2.06-15.62-.5-.02-.99-.03-1.49-.05-1.8,12.44-3.97,24.84-5.34,37.33-3.32,30.17-3.13,60.33,5.17,89.7,3.63,12.83,8.98,25.47,15.53,37.09,9.11,16.16,24.18,19.66,40.88,11.46,16.2-7.96,29-20.21,39.88-34.13,12.91-16.52,24.6-33.99,36.81-51.05.69-.97,1.08-2.29,1.97-2.93.95-.68,2.34-.75,3.55-1.08.22,1.24.53,2.48.6,3.73.03.52-.43,1.09-.74,1.6-18.19,29.18-37.46,57.51-64.78,79.15-4.92,3.9-10.5,7.16-16.17,9.91-18.27,8.89-35.45,4.09-46.56-12.98-14.7-22.58-20.08-48.1-22.43-74.4-2.56-28.63-.04-57.02,4.97-85.24.4-2.26.74-4.53,1.11-6.79-.33-.14-.65-.28-.98-.43Z"/>
  </g>
</svg>