<?xml version="1.0" encoding="UTF-8"?>
<svg id="Layer_2" data-name="Layer 2" xmlns="http://www.w3.org/2000/svg" viewBox="0 0 23.38 86.63">
  <defs>
    <style>
      .cls-1 {
        fill: #fff;
        stroke-width: 0px;
      }
    </style>
  </defs>
  <g id="Layer_1-2" data-name="Layer 1">
    <g>
      <path class="cls-1" d="m11.75,34.15c-.09,3.09.09,8.32,0,11.68v.06c.01,1.18.02,2.36.04,3.54-1.75,0-3.51-.06-5.27-.14-3.74-.15-6.26-2.79-6.34-6.63-.04-2.1-.07-4.19-.1-6.29-.02-1.66-.04-3.32-.06-4.98v-.06c.09-3.36-.09-8.58,0-11.68.06-1.92.87-3.55,2.14-4.6.94-.67,2.2-1.08,3.8-1.26.15-.02.29-.03.44-.04,2.76.25,5.16,2.43,5.32,5.45.22,3.91.11,9.92.09,14.13-.04.26-.07.53-.07.81Z"/>
      <path class="cls-1" d="m14.66,68.97v-.06c-.02-1.66-.03-3.32-.06-4.98-.03-2.09-.06-4.19-.1-6.29-.07-3.84-2.59-6.48-6.34-6.63-1.8-.07-3.61-.13-5.42-.14.24.72.37,1.46.37,2.19v1.56c0,.68-.1,1.33-.27,1.95.02-.01.04-.02.06-.03-.03,2.63,0,5.27.02,7.9,0,.52,0,1.05,0,1.57h-.06c0,4.22-.15,10.87.09,15.07.17,3.02,2.56,5.21,5.32,5.45.15-.01.29-.02.44-.04,1.6-.18,2.86-.59,3.8-1.26,1.28-1.06,2.09-2.68,2.14-4.6.09-3.09-.09-8.32,0-11.68Z"/>
      <path class="cls-1" d="m17.13,4.13c.31,0,.35-.03-.68-.13-.02,0-.04,0-.06,0-2.58,0-4.73-1.33-6.01-3.3-.17-.08-.34-.17-.51-.27l-.56-.43c-.08,3.35-.07,6.71.02,10.06.09,3.45,2.49,5.79,6.21,5.99.35.02.61.04.79.05.18-.02.47-.04.93-.07,3.74-.22,6.16-2.74,6.12-6.04-.04-3.3-2.53-5.71-6.25-5.87Z"/>
      <path class="cls-1" d="m17.6,86.49c2.57-.21,3.65-1.97,3.34-4.56-.31-2.63-1.64-4.13-4.37-4.21-3.98-.12-6.78,2.83-8.34,8.83,3.14,0,6.27.19,9.37-.06Z"/>
    </g>
  </g>
</svg>