<?xml version="1.0" encoding="UTF-8"?>
<svg id="Layer_2" data-name="Layer 2" xmlns="http://www.w3.org/2000/svg" viewBox="0 0 110.73 169.59">
  <defs>
    <style>
      .cls-1 {
        fill: #fff;
        stroke-width: 0px;
      }
    </style>
  </defs>
  <g id="Layer_1-2" data-name="Layer 1">
    <path class="cls-1" d="m110.68,106.2c-.72,3.77-29.72,1.56-34.81,2.34-5.17.41-5.94,3.21-3.78,7.49.98,2.16,1.62,4.45,2.46,6.64.72,1.9,1.62,3.73,2.47,5.58,2.27,4.88,3.86,10.05,6.07,14.96.54,1.22,1.09,2.42,1.65,3.63,1.13,2.61,2.94,5.42,2.16,8.36-1.18,4.13-5.9,5.23-9.48,6.51-3.09,1.05-5.99,2.67-8.9,4.08-3.3,1.43-6.76,2.99-10.33,3.74-2.36.39-4.42-.87-5.85-2.69-3.91-4.78-3.99-11.44-7.03-16.69-1.87-3.39-3.69-6.81-4.9-10.51-1.19-3.69-3.08-7.11-4.94-10.48-.96-1.69-1.27-4.23-3.1-5.2-1.54-.72-3.28.31-4.59,1.19-7.86,6.13-14.79,13.41-22.46,19.77-2.51,2.01-4.92,1.32-5.32-2.07C-.03,99.21,1.12,55.54,1.38,11.9,1.58,8.6.7-.71,5.42.04c1.59.44,2.86,1.88,4.04,3.04,33.49,33.72,68.72,65.81,100.45,101.04.45.57.97,1.48.77,2.07h0ZM14.73,23.32c-1.58-.12-2.51,1.43-2.83,2.84-1.41,25.63-1.07,51.44-1.88,77.12-.1,5.36-.32,10.71-.19,16.07-.01,2.3,1.05,5.77,3.93,5.23,1.58-.37,2.75-1.76,3.95-2.84,2.86-2.7,5.72-5.4,8.58-8.1,1.87-1.59,3.77-4.22,6.23-4.67,1.79-.28,3.76.42,5,1.75.86.92,1.27,2.22,1.59,3.44.34,1.31.72,2.61,1.21,3.86,4.85,10.78,9.79,21.52,13.48,32.76.73,2.01,1.7,4.16,3.69,5.08,5.52,2.38,14.31-.94,16.95-6.4.32-.84.36-1.73.22-2.64-3.78-14.98-12.08-29-17.49-44.19-.57-2.23.95-3.29,2.95-3.61,5.32-.72,10.67-.08,16.01-.36,3.45.07,7.03.75,10.36-.44.99-.36,2.17-1.05,2.16-2.21-.05-1.19-1.2-2.2-2.02-3.03C63.12,70.02,40.77,46.57,16.99,24.47c-.72-.6-1.4-1.07-2.25-1.15h0Z"/>
  </g>
</svg>