<?xml version="1.0" encoding="UTF-8"?>
<svg id="Layer_2" data-name="Layer 2" xmlns="http://www.w3.org/2000/svg" viewBox="0 0 109.38 94.81">
  <defs>
    <style>
      .cls-1 {
        fill: #fff;
        stroke-width: 0px;
      }
    </style>
  </defs>
  <g id="Layer_1-2" data-name="Layer 1">
    <g>
      <path class="cls-1" d="m44.38,22.64c3.46-1.94,7.03-3.01,10.55-4.21.96-.33,1.96-.56,2.95-.8.25-.06.54-.04.8,0,.1.01.22.16.26.27.04.11.02.27-.03.38-.06.11-.17.23-.28.28-1.29.6-2.58,1.21-3.88,1.79-.74.33-1.53.58-2.26.92-2.34,1.07-4.65,2.2-7.26,2.81.08.33.09.6.2.83,1.92,4.13,4.19,8.07,6.4,12.04,1.06,1.91,1.82,1.94,3.05.15.38-.56.72-1.15,1.09-1.72,2.02-3.05,4.05-6.11,6.08-9.15.45-.67.97-1.31,1.45-1.96.24-.33.48-.66.69-1,1.03-1.68,2.08-3.34,3.04-5.05.49-.88.86-1.84,1.18-2.79.16-.5.15-1.08.1-1.61-.09-.99-.67-1.62-1.65-1.82-.66-.14-1.34-.21-2.01-.28-.54-.06-1.09-.06-1.62-.14-.75-.11-1.28-.56-1.36-1.31-.1-.94-.14-1.89-.08-2.83.05-.75.56-1.24,1.31-1.35.6-.08,1.22-.13,1.83-.1,1.76.07,3.52.25,5.29.27,6.52.05,13.04.37,19.55.04.34-.02.69-.04,1.01.03.32.07.65.22.9.43.96.79,1.05,3.72.09,4.51-.38.32-.98.47-1.49.51-1.15.08-2.31-.02-3.46.07-1.14.09-2.3.23-3.4.55-1.79.51-3.32,1.47-4.55,2.93-1.79,2.13-3.67,4.18-5.5,6.28-.4.46-.78.94-1.12,1.45-2.9,4.19-6.02,8.2-9,12.33-1.71,2.37-3.38,4.76-5.07,7.13-.39.55-.79,1.11-1.24,1.62-.26.3-.59.61-.95.74-2.03.77-4.05,1.61-6.13,2.2-2.15.61-4.37.98-6.56,1.45-.4.09-.79.19-1.19.26-1.49.28-2.66-.12-3.44-1.52-.89-1.6-1.84-3.17-2.76-4.75-1.4-2.41-2.78-4.82-4.19-7.22-.34-.58-.75-1.14-1.17-1.66-.43-.52-.93-.61-1.43-.2-2.73,2.24-5.98,3.78-8.48,6.33-1.57,1.6-3.03,3.28-4.09,5.29-1.1,2.07-.57,4.25,1.69,5.55,1.68.97,3.53,1.39,5.45,1.52.88.06,1.77,0,2.65.01.75,0,1.51-.07,2.24.05,3.07.49,6.09.06,9.12-.31,4.67-.56,9.18-1.78,13.66-3.16,5.78-1.78,11.47-3.81,17.07-6.09,1.7-.69,3.34-1.51,4.98-2.33,2.49-1.24,5.02-2.42,7.42-3.82,3.81-2.22,7.69-4.33,11.21-7.02,1.08-.82,2.26-1.51,3.37-2.29,1.16-.82,2.31-1.67,3.44-2.54,2.68-2.08,5.34-4.18,8.01-6.27.41-.32.81-.71,1.47-.63,0,.25.08.5-.01.61-.38.48-.77.95-1.22,1.36-2.62,2.36-5.23,4.75-7.91,7.05-1.85,1.59-3.86,2.99-5.73,4.57-3.96,3.33-8.37,6.01-12.67,8.85-1.75,1.16-3.51,2.31-5.31,3.39-2.03,1.22-4.13,2.34-6.18,3.54-2.94,1.71-5.98,3.2-9.06,4.64-.16.08-.28.25-.53.48.32.23.61.38.83.6.38.37.81.73,1.08,1.17,1.98,3.32,3.92,6.66,5.88,10,.65,1.11,1.3,2.22,1.97,3.32,2.91,4.82,5.83,9.64,8.75,14.46.77,1.28,1.59,2.53,2.38,3.79.63,1,1.52,1.74,2.5,2.36,1.1.7,2.29,1.17,3.63,1.17,1.15,0,2.31.02,3.46.1,1.68.11,2.18.59,2.31,2.22.05.6.04,1.23-.05,1.83-.15.96-.64,1.46-1.62,1.55-.94.09-1.9.06-2.85.02-1.7-.08-3.39-.25-5.08-.3-4.89-.13-9.77-.21-14.66-.3-.88-.01-1.76.07-2.64.09-3.12.08-6.24.16-9.37.24-.2,0-.41,0-.61-.03-1.65-.16-2.24-.8-2.29-2.51-.01-.34,0-.68.03-1.02.14-1.34.69-1.95,1.99-2.21.47-.09.95-.09,1.42-.16.54-.08,1.08-.15,1.6-.31.86-.26,1.25-.84,1.08-1.7-.15-.72-.39-1.45-.7-2.11-1.23-2.57-2.45-5.14-3.87-7.62-2.15-3.77-4.11-7.65-6.16-11.48-.7-1.32-1.46-2.61-2.13-3.94-.92-1.83-.9-1.84-.97-3.8-.52.1-1.03.2-1.56.31-.02.27-.12.51-.04.65.55.98.27,1.78-.35,2.63-1.64,2.24-3.24,4.51-4.82,6.8-1.69,2.46-3.45,4.88-4.98,7.44-1.71,2.85-3.74,5.51-4.95,8.65-.12.32-.32.61-.42.93-.41,1.27.05,2.34,1.3,2.8.63.23,1.32.29,1.99.38.6.08,1.23.04,1.83.14,1.2.2,1.86.85,1.93,2.02.05.81,0,1.63-.13,2.43-.14.9-.75,1.44-1.67,1.53-.67.06-1.36.07-2.03.04-3.39-.15-6.78-.33-10.17-.49-.41-.02-.81-.03-1.22-.02-4.75.07-9.5.15-14.26.2-1.56.02-2.12-.48-2.27-1.99-.07-.74-.06-1.5.03-2.23.15-1.14.72-1.7,1.87-1.8,1.15-.11,2.31-.14,3.46-.16,1.04-.02,2.01-.27,2.95-.69,2.18-.98,4.16-2.23,5.93-3.87,2.85-2.64,5.42-5.51,7.75-8.61,2-2.66,4.1-5.24,6.13-7.88.78-1.02,1.48-2.11,2.22-3.17.43-.61.82-1.25,1.31-1.82.48-.56,1.05-1.04,1.59-1.55-.14-.37-.45-.23-.67-.18-3.05.65-6.1,1.33-9.15,1.99-1.26.27-2.52.55-3.79.76-3.9.65-7.83.9-11.77.62-1.75-.12-3.52-.39-5.23-.79-2.16-.51-3.99-1.66-5.45-3.38-.65-.77-.98-1.64-.91-2.62.14-1.98.54-3.88,1.65-5.6,1.96-3.05,4.15-5.88,7.08-8.07.49-.36.87-.86,1.34-1.25.99-.82,1.97-1.67,3.02-2.4,3.74-2.59,7.62-4.96,11.51-7.31.86-.52,1.83-.87,2.76-1.28.92-.41,1.09-.85.59-1.75-.79-1.42-1.55-2.87-2.42-4.25-1.64-2.58-3.26-5.16-4.71-7.86-.51-.95-1.19-1.82-1.84-2.68-1.35-1.79-3.2-2.67-5.41-2.86-1.35-.11-2.71-.21-4.05-.39-1.49-.2-1.95-.73-2.13-2.25-.05-.47-.08-.95-.06-1.42.05-1.58.63-2.16,2.24-2.29.34-.03.68-.02,1.02,0,7.12.29,14.24.65,21.38.55,1.56-.02,3.12.14,4.68.19,1.08.03,2.17,0,3.25,0,1.7-.02,3.39-.07,5.09-.07.47,0,.95.08,1.41.19.58.14.95.54.98,1.15.04.95.06,1.9.04,2.85-.01.69-.4,1.18-1.06,1.33-.65.15-1.33.18-2,.26-.74.09-1.5.09-2.21.29-1.42.39-2.04,1.54-1.73,2.99.03.13.06.27.12.39,1.09,2.56,2.21,5.09,3.84,7.52Z"/>
      <path class="cls-1" d="m109.35,6.03c.4,3.81-4.29,7.14-8.17,5.72-.38-.14-.76-.32-1.07-.56-3.73-2.88-3.45-7.98.51-10.41,2.58-1.58,6.38-.71,8.09,2.32.47.84.44,1.95.64,2.94Zm-3.73.55c.09.35.25,1.08.49,1.78.22.63.86.72,1.28.22,1.35-1.62,1.17-4.28-.41-5.73-.16-.15-.49-.19-.73-.16-.13.02-.29.29-.31.47-.12,1.01-.19,2.02-.32,3.42Zm-.66,2.97c-.05-.68-.29-1.37-.87-1.9-.49-.45-1.31-.57-1.89-.27-.55.28-.76.8-.7,1.36.07.59.2,1.21.48,1.72.36.66,1.35.81,2.19.47.53-.21.81-.67.78-1.37Zm-4.27-4c-.06-.53-.12-1.27-.23-1.99-.05-.33-.61-.49-.82-.24-.3.35-.63.72-.78,1.14-.48,1.31-.36,2.64,0,3.96.03.12.13.23.21.34.27.41.96.4,1.18-.05.14-.3.26-.62.3-.95.08-.67.1-1.34.15-2.22Zm3.89-1.36c-.03-.74-.73-1.31-1.54-1.25-.57.04-.98.51-.95,1.09.03.74.57,1.27,1.29,1.26.67,0,1.22-.52,1.2-1.1Z"/>
      <path class="cls-1" d="m105.62,6.59c.13-1.4.2-2.41.32-3.42.02-.17.18-.45.31-.47.23-.03.56,0,.73.16,1.58,1.45,1.76,4.11.41,5.73-.41.5-1.05.41-1.28-.22-.25-.7-.4-1.42-.49-1.78Z"/>
      <path class="cls-1" d="m104.96,9.56c.03.7-.26,1.16-.78,1.37-.85.34-1.83.19-2.19-.47-.28-.51-.41-1.13-.48-1.72-.07-.56.15-1.07.7-1.36.58-.3,1.4-.18,1.89.27.58.53.82,1.22.87,1.9Z"/>
      <path class="cls-1" d="m100.69,5.56c-.06.88-.07,1.55-.15,2.22-.04.32-.16.65-.3.95-.22.45-.91.46-1.18.05-.07-.11-.17-.22-.21-.34-.36-1.32-.48-2.66,0-3.96.15-.42.49-.79.78-1.14.21-.25.77-.09.82.24.12.72.17,1.46.23,1.99Z"/>
      <path class="cls-1" d="m104.58,4.2c.02.59-.53,1.09-1.2,1.1-.72,0-1.26-.52-1.29-1.26-.02-.58.39-1.05.95-1.09.81-.06,1.51.51,1.54,1.25Z"/>
    </g>
  </g>
</svg>