<?xml version="1.0" encoding="UTF-8"?>
<svg id="Layer_2" data-name="Layer 2" xmlns="http://www.w3.org/2000/svg" viewBox="0 0 32.24 40.24">
  <defs>
    <style>
      .cls-1 {
        fill: #fff;
        stroke-width: 0px;
      }
    </style>
  </defs>
  <g id="Layer_1-2" data-name="Layer 1">
    <g>
      <path class="cls-1" d="m21.49,31.34c-2.01,2.99-3.52,5.29-5.09,7.54-1.09,1.57-2.54,1.54-4.29,1.09C4.37,37.96-.2,32.15,0,24.23c.03-1.11.25-2.39.84-3.28,2.44-3.63,5.06-7.14,7.62-10.68.15-.21.46-.31,1.13-.73,0,2.24.02,4.11,0,5.99-.03,2.92-.18,5.84-.12,8.75.09,4.02,2.68,6.53,6.71,6.71,1.55.07,3.1.2,5.3.34Z"/>
      <path class="cls-1" d="m10.75,8.9c2.01-2.99,3.52-5.29,5.09-7.54,1.09-1.57,2.54-1.54,4.29-1.09,7.74,2.01,12.31,7.82,12.1,15.74-.03,1.11-.25,2.39-.84,3.28-2.44,3.63-5.06,7.14-7.62,10.68-.15.21-.46.31-1.13.73,0-2.24-.02-4.11,0-5.99.03-2.92.18-5.84.12-8.75-.09-4.02-2.68-6.53-6.71-6.71-1.55-.07-3.1-.2-5.3-.34Z"/>
    </g>
  </g>
</svg>