<?xml version="1.0" encoding="UTF-8"?>
<svg id="Layer_2" data-name="Layer 2" xmlns="http://www.w3.org/2000/svg" viewBox="0 0 19.58 23.62">
  <defs>
    <style>
      .cls-1 {
        fill: #fff;
        stroke-width: 0px;
      }
    </style>
  </defs>
  <g id="Layer_1-2" data-name="Layer 1">
    <path class="cls-1" d="m7.33,15.87c-.67.77-1.21,1.47-1.83,2.08-.92.9-1.89,1.75-2.85,2.6-.25.22-.57.37-.88.5-1.23.54-1.89.05-1.74-1.3.04-.36.13-.71.23-1.06.98-3.17,2.79-5.87,4.8-8.45.78-1,1.65-1.92,2.52-2.84.36-.38.49-.76.49-1.27-.01-1.93.39-3.77,1.31-5.48.32-.59.7-.77,1.43-.6,1.51.37,3.07.55,4.6.84.34.07.72.19.98.4,1.26,1.02,2.27,2.27,2.98,3.74.1.2.19.42.21.64.02.2,0,.5-.12.61-.12.1-.43.06-.61-.02-.32-.14-.61-.37-.97-.6-.02.23-.04.4-.04.57-.08,5.1-1.45,9.86-3.85,14.34-.33.61-.79,1.17-1.28,1.66-.83.82-1.55.62-1.95-.46-.05-.15-.11-.29-.21-.57-.18.26-.3.46-.45.64-.44.51-.84,1.08-1.35,1.5-.64.52-1.35.33-1.53-.47-.23-1-.35-2.05-.33-3.08.02-1.1.25-2.2.39-3.3.02-.15.03-.3.06-.61ZM16.14,3.45c-.24-.24-.5-.71-.85-.81-1.26-.33-2.56-.54-3.85-.76-.15-.03-.46.11-.48.21-.18.99-.32,1.99-.5,3.19.75-.21,1.38-.35,1.98-.57.57-.21.97-.1,1.29.49.13.25.22.52.34.79.68-.83,1.33-1.63,2.08-2.54Z"/>
  </g>
</svg>