<?xml version="1.0" encoding="UTF-8"?>
<svg id="Layer_2" data-name="Layer 2" xmlns="http://www.w3.org/2000/svg" viewBox="0 0 313.4 309.12">
  <defs>
    <style>
      .cls-1 {
        fill: #fff;
        stroke-width: 0px;
      }
    </style>
  </defs>
  <g id="Layer_1-2" data-name="Layer 1">
    <path class="cls-1" d="m312.96,129.11c0,.15,0,.29,0,.43.13-.32.28-.64.43-.95-.03-.08-.07-.15-.11-.23-7.78-4.17-14.99-8.02-22.58-12.08,3.21-2.47,5.91-4.56,9-6.94-4.6-1.96-8.73-3.72-12.85-5.48.05-.21.1-.42.15-.63,7.29-2.53,14.58-5.05,21.87-7.58.02-.28.03-.55.04-.83-8.36-3.53-16.73-7.06-25.29-10.68,2.45-3.98,4.79-7.78,7.35-11.95-4.81-.23-9.18-.43-14.11-.66,4.09-6.85,7.87-13.19,11.66-19.53-.14-.2-.27-.4-.4-.59-8.87,1.63-17.73,3.25-26.93,4.94.64-5.83,1.21-10.99,1.85-16.71-5.1,2.69-9.78,5.17-15.2,8.03,3.31-9.53,6.35-18.3,9.58-27.61-7.74,4.07-14.83,7.8-22.37,11.77v-11.23c-4.35,3.33-8.35,6.4-12.35,9.47-.19-.15-.38-.3-.56-.45,2.23-8.96,4.46-17.92,6.69-26.87-.31-.14-.62-.27-.93-.4-5.9,5.65-11.8,11.31-17.69,16.97-.18-.09-.36-.18-.54-.27.39-4.38.77-8.76,1.16-13.14-.22-.08-.44-.16-.66-.24-5.79,5.43-11.58,10.87-17.75,16.66-.95-4.82-1.76-8.93-2.7-13.74-4.85,6.34-9.21,12.03-13.57,17.72-.17-.09-.34-.18-.51-.27.71-8.64,1.42-17.29,2.13-25.94-.21-.04-.42-.08-.63-.12-4.49,5.63-8.99,11.27-13.49,16.91-.22-.06-.44-.13-.66-.19-.5-3.98-.99-7.96-1.49-11.93-.22-.09-.43-.19-.65-.29-4.46,5.3-8.91,10.61-13.44,16.01-1.42-2.47-2.74-4.78-4.4-7.7-1.73,6.62-3.27,12.58-4.97,19.11-3.62-7.26-6.94-13.94-10.26-20.61-.25.04-.49.08-.74.13-2.55,7.89-5.11,15.79-7.87,24.35-2.84-4.84-5.19-8.88-7.83-13.38-3.08,9.77-5.95,18.88-8.93,28.33-4.56-4.97-8.69-9.47-12.83-13.98-.26.15-.52.3-.78.44,2.58,8.97,5.16,17.94,7.74,26.91-.25.17-.49.35-.73.52-7.61-5.27-15.21-10.54-22.82-15.8-.31.28-.61.55-.92.83,2.96,5.15,5.91,10.31,9.2,16.05h-29.16c3.4,3.91,6.37,7.32,9.35,10.74-.12.24-.24.47-.37.71h-24.03c-.11.24-.22.49-.33.73,5.25,5.31,10.5,10.62,16.3,16.48-6.78-.4-12.77-.75-19.29-1.14,2.2,2.46,4.01,4.48,5.95,6.66-6.35,2.7-12.39,5.27-18.96,8.06,4.04,2.08,7.3,3.76,10.56,5.43-.08.23-.16.47-.24.7-6.25,2.46-12.5,4.93-18.74,7.4.03.2.06.4.09.6,7.98,1.99,15.96,3.98,23.94,5.97-.02.26-.04.51-.06.76-6.37,2.24-12.75,4.48-19.76,6.94,4.09,2.39,7.62,4.45,11.87,6.93-7.27,4.09-13.83,7.78-21.01,11.83,4.74,1.18,8.7,2.16,12.66,3.14.03.32.06.64.09.96-6.7,3.59-13.4,7.19-20.1,10.79.07.31.14.63.21.95,8.65.75,17.3,1.51,25.96,2.26.09.26.18.51.27.77-3.83,2.7-7.66,5.4-11.91,8.4,3.48,1.18,6.52,2.21,9.33,3.16-5.33,5.97-10.46,11.71-15.34,17.18h25.75c.21.29.42.59.63.88-3.67,3.37-7.34,6.74-11.27,10.35,5.35,1.24,10.29,2.39,15.62,3.62-3.8,7.17-7.38,13.91-10.96,20.66.17.25.33.49.5.73,6.61-1.23,13.21-2.45,20.27-3.77-1.28,4.89-2.5,9.5-3.79,14.42,3.77-.81,6.96-1.33,10.05-2.19,2.28-.64,2.85.36,2.88,2.26.03,1.77,0,3.55,0,5.33,5.08-.71,7.4-2.85,8.13-7.74.26-1.74.05-3.56.35-5.28.64-3.64.38-6.83-2.97-9.21-.85-.61-1.54-1.82-1.75-2.85-1-5.16-1.8-10.35-2.69-15.53-.19-1.1-.18-2.42-.8-3.25-2.21-2.97-1.5-5.63.27-8.43.5-.78.65-1.84.77-2.79.41-3.21.39-6.52,1.2-9.6.78-2.96,2.3-5.74,3.7-8.51,2.22-4.39,4.14-9.06,7.08-12.95,2.36-3.13,5.82-5.6,9.19-7.75,2.49-1.59,5.61-2.18,8.44-3.24,8.48-3.18,14.86-3.14,21.83.32-3.14.47-5.97.88-8.79,1.3.18.22.37.44.55.65-.54.78-.94,2.08-1.64,2.26-2.06.55-2.03,1.74-1.6,2.71-2.57,1.3-4.94,2.5-7.32,3.69.09.27.19.55.28.82,4.31.44,8.69-1.97,12.86-.17-1.8.92-3.57,1.8-5.33,2.7.16.62-.03.99-.28,1.05-6.29,1.24-11.35,4.66-15.96,8.92-3.67,3.4-7.77,6.47-8.27,12.05-.04.38-.2.84-.47,1.09-2.73,2.48-5.25,5.29-8.31,7.26-2.33,1.49-1.11,2.17-.09,3.24.32.34.8.54,1.21.81,1.45-1.05,2.24-3,4.54-2.98.59,0,1.27-1.33,1.74-2.14.55-.94.79-2.09,1.42-2.96,1.91-2.63,4-5.14,5.93-7.76,1.72-2.34,2.96-5.16,5.05-7.08,2.59-2.37,4.58-5.85,8.77-6.07.72-.04,1.43-.53,2.1-.9,3.24-1.81,6.68-2.41,10.29-1.66,2.07.42,3.87,3.06,6.24.67.02-.02.25.17.41.29-.2.46-.41.92-.7,1.6,3.1-1.3,6.63-.66,7.85,1.34-.84.4-1.67.79-2.67,1.26,2.11,3.12,1.97,6.06-.67,8.6,1.16,1.78,2.18,3.36,3.35,5.17,1.83-2.52,3.61-.25,3.49.56-.46,2.87,2.16,3.22,3.16,4.81.04.06,0,.16-.02.4-3.58,1.07-7.42.91-10.88,3.4-3.14,2.26-5.91,5.31-5.45,9.29.26,2.22.62,4.51-.83,6.37,1.69,1.98,3.36,3.94,4.65,5.45-1.82,1.09-3.16,1.88-4.49,2.69-.61.37-1.26,1.14-1.82,1.08-2.09-.23-4.15-.73-6.23-1.12-1.26-.24-2.52-.47-3.78-.7-.1.37-.19.73-.29,1.09,1.9.94,3.81,1.89,5.7,2.82-2.28.33-4.69.32-6.83,1.08-2.55.92-4.99,1.01-7.57.59-.57-.09-1.17.02-1.75.03.26,1.57.45,3.16.82,4.71.07.29.81.47,1.27.61.2.06.65-.06.7-.2.6-1.77,1.55-.65,2.44-.36,3.64,1.21,7.29,2.4,10.94,3.61,2.14.72,4.27,1.46,6.81,2.33-.95.83-1.53,1.33-2.06,1.79.26.69.47,1.24.69,1.83-2.18.49-3.99-3.66-6.19.05,1.01.81,1.91,2.09,3.01,2.29,3.26.6,4.29,2.86,4.29,5.58,0,.84.77,2.31-1.38,3.34-3.3,1.58-6.27.41-9.38.61-1.19.07-2.33.88-3.49,1.35.42.83.84,1.66,1.25,2.48.13.26.25.53.5,1.07h-2.23c-.56,3.01-1.07,5.8-1.61,8.72,2.1-.45,4.22-.91,6.3-1.36.55,1.56.89,2.51,1.32,3.72-2.19-.22-3.59,3.31-5.92,1.17-1.34.21-2.65.41-3.95.62,0,.13,0,.26-.01.39,2.71.42,5.43.85,8.35,1.31-.37.51-.5.73-.66.91-.12.13-.29.3-.42.28-3.12-.35-4.86.75-5.3,4.13-.11.83-2.22,1.39-3.12,1.91-.69,2.27-1.37,4.48-2.05,6.7-.23-.06-.46-.12-.7-.18v-3.68c-1.37,1.06-2.2,1.71-3.05,2.37,3.04,3.58,3.27,5.23,1.05,7.29-.5.46-1.31.58-1.98.86-.27-.66-.52-1.32-.81-1.98-.06-.14-.23-.22-.44-.43-.3.4-.59.78-.91,1.22-.36-.66-.7-1.29-1.04-1.94-1.34.55-2.49,1.04-3.85,1.6-.18-1.63-.33-3.01-.49-4.39.68.16.83.42.99.69.36.6.69,1.23,1.15,1.75.05.06,1.08-.41,1.13-.71.09-.63.06-1.52-.32-1.93-1.79-1.94-2.65-3.96-1.25-6.47.13-.23.36-.6.28-.7-.62-.81-1.31-1.56-1.98-2.34-.31.7-.67,1.37-.91,2.09-.2.61-.25,1.28-.37,1.92-.22.07-.44.14-.66.2-.76-1.48-1.51-2.95-2.23-4.35h-2.26c.19-1.51.8-2.87.37-3.68-.71-1.34-2.05-1.94-3.67-.72-1.4,1.05-3.13.9-4.16-.46-.55-.72-.24-2.1-.31-3.12-1.13-.25-2.19-.48-3.9-.86,1.07-.56,1.52-.8,2.06-1.09-1.98-.91-2.78-2.44-2.57-4.44.2-1.86.63-3.7.82-5.56.13-1.32.03-2.66.03-3.97-4.83,3.45-4.5,8.44-4.73,13.11-.3,5.98-.18,11.97-.27,17.96-.02,1.1-.67,2.54-.19,3.24,1.28,1.86,3.94,2.32,4.89,4.81.31.82,2.16.94,3.1,1.63,5.15,3.8,10.93,6.23,17.16,7.23,6.07.99,12.24,1.37,18.38,1.85.82.06,2.19-.58,2.46-1.25.8-1.9,1.28-3.96,1.67-6,.75-3.82,1.27-7.69,2.04-11.51.76-3.79,1.72-7.53,2.66-11.6,2.3-.47,1.59,2.44,2.77,3.14-.64,1.01-1.46,1.78-1.63,2.67-.74,4.04-1.2,8.12-1.93,12.16-.81,4.48-1.21,9.14-2.47,13.45.1.02.2.04.3.06.43.1.86.23,1.29.37.91-1.33,2.26-2.39,3.87-2.94,5.97-2.05,10.97-5.45,15.18-10.76-1.37-1.03-2.45-2.23-3.8-2.79-4.24-1.76-6.79-5.21-9.63-8.89,2.77-3.94,5.52-7.85,8.51-12.12,2.53,5.81,4.81,11.04,7.27,16.66,2.45-4.4,4.69-8.44,7.2-12.96,1.37,2.12,2.31,3.81,3.47,5.35,2.95,3.87,5.96,7.7,9.02,11.48.54.67,1.43,1.06,2.16,1.59.36-.73.89-1.42,1.05-2.2.96-4.64,1.83-9.3,2.82-14.44,3.49,3.1,6.6,5.85,9.7,8.61.21-.14.42-.27.63-.41v-15.05c4.16,3.4,7.93,6.48,12.28,10.04v-14.44c5.82,4.27,11.07,8.13,16.72,12.28.53-8.31,1.02-16.06,1.54-24.27,3.85,2.36,7.26,4.45,11,6.73.4-5.3.75-9.95,1.14-15.02,6.45,2.57,12.52,4.98,19.11,7.6-2.21-6.63-4.24-12.74-6.28-18.85.2-.09.4-.18.6-.27,5.19,3.93,10.38,7.87,16.02,12.14-.39-7.31-.74-13.86-1.11-20.77,5.08,1.29,9.57,2.44,14.39,3.66-.85-4.21-1.61-8-2.45-12.21,6.99,2.56,13.59,4.97,20.51,7.5-1.12-7.22-2.16-13.86-3.25-20.95,4.85,1.63,9.08,3.06,13.79,4.63-1.8-5.24-3.42-9.97-5.18-15.13,5.36,1.86,10.05,3.48,15.36,5.33-1.88-4.6-3.48-8.51-5.25-12.85,6.12.84,11.8,1.62,18.34,2.52-4.76-7.31-9.06-13.94-13.59-20.91,5.02-.95,9.66-1.84,14.62-2.78-4.52-4.19-8.73-8.1-13.25-12.29,5.99-1.93,11.51-3.7,17.64-5.68-5.89-3.48-11.06-6.54-16.7-9.87,8.47-2.52,16.34-4.87,24.48-7.29ZM56.49,270.54v-8.02c.23.01.47.02.7.03v8.02c-.23,0-.47-.02-.7-.02Zm.09,4.89c.31-.02.61-.04.92-.05.32,5.89.64,11.78.96,17.66-.3.02-.61.04-.92.05-.31-5.89-.63-11.78-.95-17.66Zm39.54-41.39c1.85-3,13.69-1.87,17.24,1.64-6.2,2.74-11.65.41-17.24-1.64Zm30.44-13.45c1.73,2.19,2.71,4.18,2.07,6.83-.37,1.5-.96,2.95-1.56,4.37-1.33,3.18-2.72,6.33-4.12,9.47-.12.27-.5.43-.69.59-3.83-1.98-1.19-6.02-3.03-8.75,2.75-1.7,1.08-3.83.4-5.8-.48-1.37-1.52-2.54-2-3.91-.72-2.07.62-3.7,2.85-3.77.59-.02,1.3.05,1.72-.25,2.27-1.61,2.59-1.04,4.36,1.21Zm3.35-15.86c-2.1-.47-4.19-.94-6.49-1.46,2.5-2.07,4.78-1.71,6.49,1.46Z"/>
  </g>
</svg>