<?xml version="1.0" encoding="UTF-8"?>
<svg id="Layer_2" data-name="Layer 2" xmlns="http://www.w3.org/2000/svg" viewBox="0 0 370.3 298.87">
  <defs>
    <style>
      .cls-1 {
        fill: #fff;
        stroke-width: 0px;
      }
    </style>
  </defs>
  <g id="Layer_1-2" data-name="Layer 1">
    <g>
      <path class="cls-1" d="m319.96,275.99c5.9,6.38,11.8,12.76,17.79,19.25-3.83,4.31-7.48,4.68-11.84,1.64-6.67-4.67-13.51-9.08-20.28-13.6.29-.87.58-1.74.87-2.62,2.51.15,5.26,1,7.46.25,2.22-.76,3.9-3.11,5.99-4.92Z"/>
      <g>
        <path class="cls-1" d="m10.77,289.82c.66-.25,1.31-.49,1.97-.74-.33-2.59-.36-5.29-1.15-7.73-.28-.88-2.4-1.17-3.68-1.72-.31,1.17-1.18,2.56-.82,3.46.94,2.36,2.42,4.5,3.68,6.74Z"/>
        <path class="cls-1" d="m0,266.15c.14,2.83.28,5.66.42,8.49.88-.06,1.76-.13,2.63-.19-.16-2.81-.33-5.62-.49-8.44-.85.05-1.71.09-2.56.14"/>
        <path class="cls-1" d="m10.77,289.82c-1.26-2.23-2.74-4.38-3.68-6.74-.36-.9.51-2.29.82-3.46,1.28.56,3.39.84,3.68,1.72.79,2.45.82,5.14,1.15,7.73-.66.25-1.31.49-1.97.74Z"/>
        <path class="cls-1" d="m195.71,222.56c1.05-.35,2.62-1.32,3.06-.94,1.41,1.18,2.88,2.74,3.32,4.42.17.64-2.4,2-3.72,3.03-.98-2.05-1.97-4.1-2.95-6.15,0,0,.28-.36.28-.36Z"/>
        <path class="cls-1" d="m0,266.15c.85-.05,1.71-.09,2.56-.14.16,2.81.33,5.62.49,8.44-.88.06-1.76.13-2.63.19-.14-2.83-.28-5.66-.42-8.49"/>
        <path class="cls-1" d="m236.79,236.52c1.11-.65,2.17-1.62,3.38-1.89,1.36-.31,3.3-.53,4.19.2.93.76,1.69,3.16,1.17,4.02-4.21,6.91,2.75,8.83,5.48,12.46,2.11,2.8,4.92,5.08,8.29,8.46-.45.14.76-.23,1.96-.61,4.02-1.27,6.24.36,5.13,4.51-1.6,6.02,2.06,8.87,5.94,11.81,1.37,1.04,3.59,1.5,4.22,2.81.64,1.33-.2,3.38-.39,5.11-1.47-.34-3.61-.2-4.27-1.12-1.98-2.75-3.94-4.58-7.66-3.92-1.02.18-2.8-.69-3.34-1.61-1.83-3.09-4.15-4.11-7.78-4.71-2.17-.36-3.72-4.51-5.45-6.83-2.51-.22-5.7-.21-8.63-1.09-.45-.13.31-4.34.62-7.86-5.71-5.26-11.15-13.01-21.07-14.38-1.38-.19-3.99.62-4.23,1.48-1.39,4.91-4.65,4.89-8.13,3.22-3.57-1.71-7.06-3.8-10.09-6.33-2.51-2.1-.82-5.11,2.68-6.3,2.35-.8,4.42-2.45,6.6-3.75,2.09-1.25,4.09-2.67,6.27-3.76,1.17-.58,2.76-.35,3.92-.94,6.93-3.5,6.91-3.55,10.82,3.19q4.7-.76,10.36,7.82Z"/>
        <path class="cls-1" d="m86.14,259.63c-2-1.71-4.35-3.28-6.83-4.08-5.71-1.84-7.66-.08-7.98,5.98-.05.95-2.57,2.77-2.96,2.54-6.87-4.09-10.22,1.65-14.28,5.07-.22.18-.41.49-.57.86,2.51,1.01,4.89,2.23,7.14,3.66,1.38-.09,2.76-.14,4.15-.11.38-.96.73-1.86,1.05-2.71,3.44.23,6.98,1.51,8.43.29,1.5-1.26.99-4.93,1.52-8.72,1.64,1.28,3.24,2.52,5.89,4.58,1.08-.64,3.47-1.71,5.32-3.37.53-.48-.01-3.24-.89-3.99Z"/>
        <path class="cls-1" d="m113.55,247.56c.47,6.81-4.1,9.36-8.54,9.38-4.42-4.02-7.7-6.65-10.5-9.72-1.04-1.14-1.83-4.16-1.19-4.81,1.17-1.19,3.48-1.65,5.32-1.66,1.03,0,2.07,1.49,4.01,3.02.64-2.44.86-4.39,1.68-6.04.78-1.57,1.99-3.67,3.36-3.96,1.14-.25,2.84,1.69,4.17,2.8,1.42,1.19,2.49,2.92,4.07,3.77,2.07,1.12,4.64,1.35,6.62,2.57.47.29-.22,4.17-1,4.42-2.06.66-4.47.22-8,.22Z"/>
        <path class="cls-1" d="m135.03,222.93c1.51-1.4,2.94-2.89,4.54-4.17,1.31-1.04,2.86-2.54,4.23-2.46,1,.06,2.59,2.31,2.66,3.65.21,4-.06,8.05-.4,12.06-.27,3.15-2.2,4.6-5.2,3.27-3.6-1.59-5.77-1.33-6.58,3.09-.21,1.13-2.08,2.85-2.98,2.74-1.4-.18-3.71-1.67-3.75-2.67-.19-4.81-.12-9.71.72-14.43.23-1.28,3.48-2.03,5.35-3.02l1.42,1.93Z"/>
        <path class="cls-1" d="m278.53,256.76c4.48,1.02,8.97,2.43,12.12-2.84.4-.67,2.89-.99,3.6-.43,3.4,2.66,6.72,5.5,9.64,8.67.85.92.29,3.13.37,4.75-1.54.04-3.14.33-4.62.03-1.4-.29-2.66-1.21-4.47-2.08-.77,2.7-1.37,4.81-2.13,7.47-1.46-.69-2.86-.95-3.64-1.78-2.8-3-4.61-7.05-9.64-7.47-.52-.04-.7-4.24-1.04-6.51l-.19.19Z"/>
        <path class="cls-1" d="m278.72,256.57c-6.96,3.71-8.24,2.94-8.24-4.92,0-.96.02-1.92.1-2.88.75-8.62.73-8.58,8.45-5.05,1.17.53,2.75.13,3.94.62,1.86.77,3.54,1.95,5.3,2.95-1.5,2.03-2.81,4.25-4.57,6.01-1.44,1.44-3.44,2.33-5.18,3.45,0,0,.2-.2.2-.2Z"/>
        <path class="cls-1" d="m269.64,238.99c-3.44,1.76-5.14,3.26-6.86,3.28-1.18.02-3.6-2.59-3.4-3.01.95-1.96,2.37-4.08,4.19-5.04.7-.36,2.94,2.23,6.07,4.76Z"/>
        <path class="cls-1" d="m47.8,286.06c-3.39-2.83-4.39-6.04-1.29-9.33.53-.56,3.84.28,4.62,1.37,2.91,4.09-.51,5.95-3.33,7.96Z"/>
        <path class="cls-1" d="m96.36,250.22c1.54,3.38,2.96,5.19,2.99,7.03.02,1.17-2.02,2.38-3.13,3.57-1.49-1.53-3.69-2.87-4.2-4.68-.3-1.09,2.03-2.92,4.34-5.92Z"/>
        <path class="cls-1" d="m279.78,232.99c-2.79,1.29-4.54,2.73-5.29,2.32-1.57-.85-2.91-2.54-3.68-4.19-.2-.44,2.48-3.09,3.04-2.85,1.78.77,3.18,2.41,5.93,4.73Z"/>
        <path class="cls-1" d="m33.72,291.84c-.73-6.19.69-8.62,4.51-8.44,1.05.05,2,2.25,3,3.47-2.17,1.44-4.34,2.87-7.51,4.97Z"/>
        <path class="cls-1" d="m120.27,225.47c1.73,3.02,3.59,4.83,3.28,6.12-.35,1.42-2.6,3.02-4.19,3.23-.93.12-3.15-2.38-3.08-3.61.08-1.52,1.93-2.95,3.99-5.74Z"/>
        <path class="cls-1" d="m231.62,251.06c1.65,2.59,3.49,4.22,3.27,5.49-.23,1.33-2.44,2.31-3.78,3.44-1.01-1.28-2.81-2.56-2.82-3.85-.02-1.35,1.69-2.72,3.34-5.08Z"/>
        <path class="cls-1" d="m289.94,238.12c-2.22,1.81-3.98,3.77-4.41,3.51-1.55-.94-2.92-2.48-3.75-4.1-.24-.46,1.88-2.98,2.43-2.83,1.71.48,3.18,1.8,5.73,3.42Z"/>
        <path class="cls-1" d="m214.66,219.7c-1.94,1.61-3.58,3.63-4.19,3.35-1.63-.73-2.81-2.45-4.17-3.78,1.23-1.15,2.46-3.21,3.69-3.21,1.31,0,2.63,1.94,4.67,3.64Z"/>
        <path class="cls-1" d="m242,219.47c1.64,2.95,2.97,4.53,3.29,6.29.15.83-1.67,2.01-2.59,3.04-1.31-1.36-3.14-2.52-3.74-4.14-.33-.88,1.41-2.54,3.04-5.19Z"/>
        <path class="cls-1" d="m159.58,226.1c-2.54,1.43-4.04,2.93-5.51,2.89-1.15-.03-2.26-1.95-3.39-3.03,1.46-1.19,2.78-2.9,4.44-3.37.85-.24,2.33,1.75,4.46,3.5Z"/>
        <path class="cls-1" d="m257.98,219.93c-2.38,1.48-3.9,3.18-5.19,3.02-1.28-.16-3.31-2.26-3.23-3.37.09-1.27,2.14-3.32,3.37-3.34,1.34-.02,2.72,1.88,5.05,3.7Z"/>
        <path class="cls-1" d="m252.88,226.42c1.67,2.44,3.52,3.96,3.35,5.2-.18,1.33-2.27,2.39-3.52,3.57-1.17-1.29-3.08-2.47-3.28-3.89-.16-1.16,1.74-2.6,3.45-4.88Z"/>
        <path class="cls-1" d="m268.31,225.76c-2.05,1.53-3.47,3.32-4.4,3.1-1.42-.34-3.49-2.08-3.48-3.22,0-1.28,1.93-3.45,3.17-3.55,1.21-.1,2.59,1.91,4.72,3.67Z"/>
        <path class="cls-1" d="m220.61,255.37c-1.65-2.66-3.2-4.08-3.22-5.52-.02-1.09,1.91-2.22,2.97-3.33,1.22,1.17,3.21,2.21,3.42,3.54.19,1.21-1.54,2.74-3.17,5.31Z"/>
        <path class="cls-1" d="m252.24,238.85c1.82,2.44,3.57,3.78,3.67,5.24.08,1.09-1.97,2.32-3.08,3.49-1.15-1.23-2.91-2.32-3.25-3.75-.26-1.07,1.3-2.58,2.66-4.98Z"/>
        <path class="cls-1" d="m88.84,248.3c-1.13,1.86-2.08,3.88-3.52,5.46-.28.31-2.39-1.03-3.66-1.6,1.55-1.87,3.11-3.75,4.66-5.62.84.59,1.68,1.18,2.52,1.77Z"/>
        <path class="cls-1" d="m263.63,244.79c1.64,2.84,2.96,4.35,3.28,6.05.15.76-1.69,1.91-2.62,2.88-1.34-1.34-3.08-2.5-3.84-4.12-.31-.67,1.47-2.32,3.18-4.81Z"/>
        <path class="cls-1" d="m295.4,240.92c.52,2.2,1.05,4.39,1.57,6.59-1.51-.14-4.15.08-4.33-.49-.57-1.78-.21-3.85-.21-5.81.99-.09,1.98-.19,2.96-.28Z"/>
        <g>
          <path class="cls-1" d="m150.54,244.09c-5.6,7.72-8.37,16.51-10.8,25.45.43-.15.86-.29,1.3-.43,4.34-1.45,8.88-2.25,13.46-2.25.7-.02,1.39-.02,2.08-.03,4.6-8.63,11.88-15.25,19.02-21.89,4.02-3.74,6.96-9.3,13.61-9.84.96-.08,1.69-3.05,2.51-4.69,1.25-2.5,2.48-5,3.71-7.5l.28-.36c5.18-4.04,8.12-10.77,15.62-12.13,2.98-.54,3.57-3.43,1.56-5.97-1.06-1.33-2.58-2.3-4.38-3.84,1.69-1.15,3.48-1.72,3.79-2.73.53-1.76.14-3.8.13-5.72-1.81.24-3.74.16-5.42.77-4.71,1.72-9.32,3.72-13.19,5.29-1.95-2.72-3.38-5-5.17-6.95-.3-.32-3.22.99-3.18,1.28.39,2.61,1.18,5.16,2.13,8.82-3.37,2.38-7.56,5.31-11.72,8.29-.77.55-1.79,1.2-2,1.99-1.14,4.3-2.5,7.07-7.99,4.57-2.74-1.25-4.91,2.55-3.59,5.85,2.22,5.51-.43,11.21-6.19,12.35-4.51.89-6.71,2.7-5.2,7.51.2.63.04,1.63-.35,2.16Z"/>
          <path class="cls-1" d="m2.42,170.65c2-3.71,4.17-7.35,5.97-11.15,13.67-28.78,27.39-57.53,40.82-86.42,6.02-12.95,11.35-26.22,17.12-39.28,1.78-4.02.95-5.92-3.61-5.65-11.2.67-22.39,1.45-33.59,1.98-6.95.33-13.93.51-20.88.25-1.23-.05-3.31-2.54-3.38-3.98-.33-6.56-.34-13.16.15-19.71.12-1.56,2.43-3.29,4.12-4.27,1.18-.68,3.03-.2,4.57-.23C41.96,1.47,70.19.77,98.42.02c5.88-.16,7.01.82,4.93,6.29-5.23,13.74-10.59,27.44-16.4,40.94-13.24,30.73-26.78,61.33-40.17,91.99-.44,1.01-.51,2.19-.89,3.93,2.81.22,5.26.65,7.68.57,11.21-.41,22.42-.9,33.62-1.48,7.96-.41,8.79.33,9.07,8.52.13,3.98.48,7.95.73,12.04,3.75,1.54,7.58,3.37,11.58,4.67,3.38,1.1,6.41,1.79,10.18-1,3.9-2.88,7.59-.29,8.4,4.09,3.86.61,7.61,2.36,10.42,1.38,5.14-1.8,8.95-1.02,14.06.64,3.42,1.11,7.02-.27,8.62,4.51.26.76,2.83,1.05,4.32,1.03,4.4-.06,6.28,2.45,5.27,6.65-.57,2.39-.76,5.1-.23,7.47,1.12,5.04.04,7.18-4.84,5.97-6.16-1.52-4.73,5.34-8.24,6.31-3.07.85-7.45-2.72-9.11,3.13-.85,3-3.25,4.36-6.29,1.94-5.35-4.26-10.96-1.41-16.46-.53-.89.14-1.67,1.38-2.5,1.37-5.54-.03-11.08-.49-16.61-.36-3.99.09-7.96,1.04-11.96,1.29-10.04.62-20.08,1.11-30.13,1.53-1.25.05-2.52-.65-4.36-1.16.76-1.26,1.13-2.72,1.86-2.94,6.12-1.82,12.23-3.84,18.49-4.95,7.44-1.32,15.04-1.71,22.53-2.73,1.34-.18,2.44-1.79,3.82-2.18,2.2-.63,5.04-1.82,6.71-.98,6.1,3.06,11.74,2.7,17.54-.4,1.15-.61,2.45-1.17,3.72-1.28,3.91-.36,4.57-2.8,3.34-5.15-2.47-2.37-4.81-4.9-7.49-7-.93-.73-2.76-.2-4.09-.55-2.88-.77-5.71-1.7-8.53-2.68-.42-.15-.53-1.31-.91-1.38-13.71-2.61-24.97-13.26-40.53-10.7-11.92,1.96-24.31.99-36.49,1.44-7.54.28-15.17.15-22.54,1.45-3.13.55-6.64.37-9.96,3-4.23,3.35-2.94-2.43-4.12-4.19-.02.03-.06.14-.06.14Z"/>
          <path class="cls-1" d="m370.3,171.53c-1.62,1.15-3.11,2.61-4.89,3.38-5.69,2.46-11.45,4.77-17.28,6.91-1.85.68-3.97.6-6.82.99-.19.35-.58,2.17-1.46,2.45-1.88.6-5.72.82-5.8.49-1.05-4.41-4.12-4.23-7.21-3.32-2.49.73-4.71,2.31-7.16,3.21-1.57.58-4.28,1.43-4.88.75-3.73-4.22-8.39-2.26-12.56-2.1-4.25.17-8.45,1.49-13.43,2.46-1.18,6.57-1.12,6.47-7.45,2.94-.68-.38-3.75,1.55-3.67,2.07.73,4.34.1,7.33-5.12,7.62-.55.03-1.57,1.56-1.4,2.09.27.87,1.23,1.93,2.09,2.13,4.39,1.03,4.92,3.08,3.27,7.22-.74,1.87,1.21,4.74,1.71,7.2.35,1.72.32,3.51.46,5.27-1.83.04-4.15.84-5.41.01-10.15-6.62-23.05-8.3-31.62-17.64-1.22-1.33-2.71-3.03-2.81-4.64-.25-4.1-.11-8.29.6-12.32.21-1.19,3.29-3.1,4.26-2.71,4.12,1.66,6.15,1.25,6.65-3.67.1-1.03,3.47-2.92,4.33-2.47,4.69,2.43,6.3,1.25,6.29-3.86,0-.62,4.25-2.09,4.51-1.73,5.06,7.08,10.5,1.66,15.53.42,4.8-1.18,9.29-3.56,14.02-5.09,1.3-.42,2.96.38,4.47.5,2.64.21,5.37.83,7.9.39,6.23-1.09,12.31-3.05,18.56-3.93,3.68-.52,7.87,1.42,11.29.43,9.56-2.77,18.74-.27,28.01.9,1.79.23,3.34,2.4,5,3.67"/>
          <path class="cls-1" d="m253.94,115.75c1.24,1.45,2.34,2.34,2.91,3.5,1.58,3.16.8,5.87-3.02,5.22-4.42-.76-4.82,1.77-5.47,4.71-1.12,5.14-2.43,10.25-3.3,15.44-.19,1.15.83,3.3,1.82,3.71,2.92,1.22,6.1,2.45,9.19,2.49,5.39.08,10.79-.73,16.51-1.19.82-.76,2.35-2.18,4.57-4.24.8,4.71,1.47,7.77,1.8,10.87.4,3.78-1,6.34-5.27,5.17-3.21-.88-4.71.16-5.53,3.15-.84,3.07-3.48,4.65-5.59,2.41-4.23-4.48-8.57-2.47-12.8-1.16-8.36,2.59-18.66-.27-24.09-6.87-1.25-1.51-3.45-2.2-4.96-3.55-1.04-.94-2.24-2.36-2.27-3.59-.03-1.23,1.06-3.29,2.09-3.62,6.72-2.11,7.5-8.07,8.61-13.44.63-3.04,1.3-4.63,4.52-5.56,4.99-1.45,8.03-7.67,7.13-12.97-.51-3,.35-4.65,3.89-4.83,1.96-.1,4.46-1.22,5.63-2.72,1.81-2.33,3.52-5.01,6.18-2.44,1.13,1.1.06,4.65-.32,7.03-.12.77-1.21,1.38-2.26,2.48Z"/>
          <path class="cls-1" d="m130.23,146.41c3.62-.26,7.31-1.11,10.85-.67,7.83.97,15.58,2.6,23.36,3.91,4.46.75,6.89-.47,6.68-5.74-.19-4.5,1.1-9.07.91-13.57-.1-2.43-1.96-4.79-2.97-7.2-.51-1.22-1.5-2.6-1.28-3.7.79-3.99.09-7.56-1.52-11.25-.52-1.18.59-3.07.95-4.63,1.41.42,3.16.45,4.15,1.33,3.03,2.68,5.79,5.67,8.59,8.6.49.51.84,1.32.94,2.03.9,7.07,1.7,14.16,2.61,21.23.37,2.91,1.3,5.02,5.08,4.86,1.27-.05,3.34,1.95,3.74,3.38.32,1.14-1.1,3.87-2.17,4.12-7.44,1.78-6.99,8.63-8.48,13.65-1.39,4.68-2.31,5.68-6.82,3.2-5.33-2.92-10.74-5.08-16.3.21-.82.78-3.94-.43-5.77-1.24-2.28-1.01-4.4-2.44-6.45-3.9-5.54-3.93-11-7.97-16.49-11.96.13-.89.26-1.79.39-2.68Z"/>
          <path class="cls-1" d="m200.65,94.92q-4.64-6.42,1.62-11.6c-.67-.83-1.36-1.64-2.02-2.49-2.77-3.59-1.73-6.29,2.45-7.96,1.98-.79,3.3-3.15,5.25-4.11,2.61-1.29,5.55-1.92,8.35-2.83.28,2.67.77,5.34.81,8.01.07,5.6.36,11.25-.28,16.78-.89,7.69-2.55,15.29-3.85,22.94-.09.54-.24,1.27.02,1.66,3.62,5.32,1.05,8.99-2.15,11.16.87,3.83,1.55,6.83,2.23,9.83-2.39-1-4.78-2-7.18-3-2.38-.36-4.7.46-2.45,4.28.56.95-.38,3.27-1.31,4.41-.53.65-2.9.75-3.58.14-1.09-.98-1.72-2.69-2.08-4.21-.72-2.99-1.75-6.11-1.51-9.08.49-6.03,1.78-11.99,2.67-17.98.3-1.99.36-4.01.57-6.01.32-3.15.67-6.29,1.01-9.44.48-.16.96-.32,1.43-.48Z"/>
          <path class="cls-1" d="m354.95,141.11c-1.94,1.89-3.55,4.7-5.86,5.49-8.01,2.72-16.26,4.69-24.4,7.04-1.98.57-4.35.96-5.71,2.29-3.05,2.98-5.37,4.09-7.26-1.75-2.99,2.23-5.38,4-7.76,5.78-.62.46-1.16,1.06-1.83,1.4-3.3,1.69-7.58,4.02-9.78.06-2.3-4.13,1.52-6.49,5.39-7.66,4.18-1.27,7.33-6.2,12.61-3.52,2.23-7.01,9.24-5.5,14.05-7.93.67-.34,1.19-1.25,1.83-1.3,9.17-.72,18.35-1.34,27.52-1.98.41.7.81,1.4,1.22,2.1Z"/>
          <path class="cls-1" d="m220.32,14.86c-.41,5.82-.95,11.11-1.08,16.41-.07,2.91.61,5.83.8,8.76.12,1.92.51,4.11-.22,5.73-.93,2.04-2.58,4.17-4.49,5.19-1.06.57-4.23-.6-4.77-1.76-.91-1.96-.73-4.56-.5-6.84.12-1.17,1.31-2.24,1.96-3.26-8.15-12.21-5.14-22.6,8.3-24.23Z"/>
          <path class="cls-1" d="m266.24,106.57c-4.69-2.42-8.54-4.11-12.02-6.36-1.23-.8-2.42-3.23-2.06-4.46.33-1.11,2.73-1.78,4.33-2.28.76-.23,1.78.4,3.26.8,1.51-4.29,2.7-8.53,4.53-12.46.85-1.83,3-4.36,4.48-4.3,2.28.09,5.14,1.65,6.46,3.51.77,1.08-.58,4.23-1.71,5.98-2.96,4.58-6.8,8.63-5.72,14.86.25,1.41-.98,3.08-1.55,4.71Z"/>
          <path class="cls-1" d="m194.9,132.48c-2.44,2.03-4.16,4.3-5.01,4.01-1.8-.61-3.47-2.38-4.46-4.09-.28-.49,2.13-3.61,3.01-3.48,1.9.28,3.62,1.87,6.47,3.56Z"/>
          <path class="cls-1" d="m171.82,207.03c-2.67,2.07-4.57,4.27-5.25,3.94-1.75-.84-3.16-2.69-4.22-4.43-.19-.32,2.05-3.03,2.86-2.88,1.88.33,3.58,1.73,6.61,3.38Z"/>
          <path class="cls-1" d="m183.01,176.48c-2.41,1.76-4.19,3.57-4.64,3.29-1.68-1.07-3.14-2.7-4.16-4.43-.2-.34,2.29-3.14,2.95-2.94,1.78.56,3.23,2.14,5.85,4.08Z"/>
          <path class="cls-1" d="m178.16,193.94c-2-2.65-3.79-4.05-4.01-5.66-.16-1.13,1.82-2.55,2.85-3.84,1.44,1.27,3.49,2.3,4.1,3.88.38,1-1.39,2.83-2.94,5.62Z"/>
          <path class="cls-1" d="m237.27,171.04c-2.2,1.42-3.88,3.19-4.63,2.86-1.59-.71-2.71-2.51-4.02-3.86,1.33-1.05,2.71-2.98,3.99-2.91,1.33.06,2.57,2.05,4.65,3.91Z"/>
          <path class="cls-1" d="m172.47,201.54c2.11-1.92,3.57-4.15,4.58-3.96,1.58.3,2.85,2.23,4.26,3.47-1.21,1.23-2.3,3.24-3.68,3.47-1.25.21-2.82-1.54-5.15-2.98Z"/>
          <path class="cls-1" d="m220.95,195.73c1.61,2.52,3.3,4,3.2,5.34-.1,1.31-2.03,2.49-3.16,3.72-1.18-1.24-3.16-2.39-3.3-3.74-.13-1.31,1.62-2.82,3.26-5.33Z"/>
          <path class="cls-1" d="m171.69,169.79c-2.21,1.53-3.8,3.44-4.93,3.2-1.36-.29-3.26-2.45-3.2-3.72.06-1.29,2.17-3.4,3.46-3.46,1.23-.06,2.56,2.07,4.67,3.99Z"/>
          <path class="cls-1" d="m212.56,64.24c-1.72-3.17-3.06-4.88-3.49-6.8-.17-.74,1.73-1.95,2.68-2.95,1.39,1.5,3.16,2.83,3.97,4.6.33.73-1.41,2.42-3.16,5.14Z"/>
          <path class="cls-1" d="m194.14,170.3c-2.22,1.57-3.74,3.38-4.62,3.11-1.64-.5-2.91-2.21-4.34-3.42,1.15-1.25,2.46-3.64,3.4-3.5,1.67.24,3.12,2.02,5.56,3.82Z"/>
          <path class="cls-1" d="m199.57,156.56c-1.38-2.3-2.92-3.76-2.89-5.19.02-1.14,1.97-2.23,3.07-3.34,1.21,1.43,2.89,2.71,3.4,4.35.23.76-1.83,2.23-3.58,4.18Z"/>
          <path class="cls-1" d="m193.91,157.71c-2.28,1.61-3.85,3.56-5.03,3.34-1.34-.25-3.03-2.32-3.23-3.78-.13-.95,2.17-3.11,3.36-3.1,1.36.02,2.7,1.85,4.89,3.54Z"/>
          <path class="cls-1" d="m215.56,170.82c-2.24,1.4-3.87,3.13-4.79,2.81-1.37-.48-2.91-2.3-3.1-3.73-.13-.93,2.23-3.21,3.08-3.03,1.48.32,2.66,2.06,4.81,3.95Z"/>
          <path class="cls-1" d="m218.03,7.96c-1.94,1.57-3.5,3.33-3.92,3.09-1.62-.92-3.12-2.34-4.12-3.92-.25-.39,2.01-3.13,2.35-2.99,1.74.73,3.22,2.06,5.69,3.82Z"/>
          <path class="cls-1" d="m247.57,213.67c-2.45,1.55-3.98,3.22-4.88,2.93-1.46-.47-3.08-2.05-3.52-3.5-.24-.8,2.06-3.41,2.73-3.24,1.68.42,3.08,1.95,5.67,3.81Z"/>
          <path class="cls-1" d="m204.33,176.31c-2.07,1.62-3.54,3.53-4.42,3.29-1.48-.41-3.08-1.99-3.63-3.45-.26-.69,1.93-3.27,2.84-3.18,1.51.15,2.89,1.75,5.2,3.35Z"/>
          <path class="cls-1" d="m204.11,189.06c-2.01,1.45-3.51,3.27-4.37,3.01-1.49-.46-2.59-2.21-3.86-3.42,1.19-1.23,2.38-3.44,3.57-3.43,1.31,0,2.61,2.03,4.66,3.84Z"/>
          <path class="cls-1" d="m226.08,188.93c-2.38,1.54-3.93,3.24-4.79,2.95-1.48-.51-2.54-2.27-3.77-3.51,1.14-1.01,2.32-2.86,3.41-2.8,1.4.07,2.72,1.67,5.15,3.37Z"/>
          <path class="cls-1" d="m236.64,195.2c-1.99,1.7-3.62,3.52-3.96,3.31-1.71-1.09-3.08-2.7-4.57-4.13.95-.96,2.18-2.87,2.8-2.69,1.74.51,3.22,1.88,5.72,3.51Z"/>
          <path class="cls-1" d="m290.51,152.43c-2.19,1.94-3.47,3.08-4.75,4.22-1.04-1.21-2.78-2.35-2.91-3.65-.12-1.18,1.55-3.6,2.38-3.58,1.45.04,2.86,1.53,5.28,3.02Z"/>
          <path class="cls-1" d="m155.74,218.4c-1.91-2.15-3.87-3.38-3.99-4.77-.1-1.19,1.9-2.56,2.97-3.86,1.21,1.2,3.02,2.23,3.44,3.67.31,1.05-1.21,2.63-2.42,4.96Z"/>
          <path class="cls-1" d="m204.7,163.93c-2.44,1.65-3.79,3.23-5.23,3.31-.93.05-2.76-2.07-2.77-3.23,0-1.18,1.77-3.38,2.67-3.33,1.46.08,2.84,1.63,5.32,3.25Z"/>
          <path class="cls-1" d="m226.86,164.1c-2.64,1.73-4.22,3.54-5.38,3.31-1.39-.28-2.95-2.16-3.41-3.65-.23-.76,1.97-3.25,2.79-3.13,1.69.26,3.2,1.74,6,3.47Z"/>
          <path class="cls-1" d="m221.1,134.26c1.9,2.64,3.39,4.07,3.96,5.8.23.72-1.54,2.08-2.4,3.15-1.41-1.22-3.3-2.22-4.03-3.76-.4-.84,1.17-2.61,2.47-5.19Z"/>
          <path class="cls-1" d="m274.84,165.73c1.55,2.6,3.06,4.03,3.03,5.44-.02,1.09-1.96,2.15-3.04,3.22-1.09-1.34-2.7-2.55-3.07-4.07-.23-.91,1.47-2.3,3.09-4.59Z"/>
          <path class="cls-1" d="m210.28,177.43c1.59,2.29,3.35,3.71,3.24,4.97-.12,1.41-1.94,2.67-3.03,3.99-1.26-1.47-2.97-2.78-3.59-4.49-.27-.75,1.66-2.3,3.37-4.48Z"/>
          <path class="cls-1" d="m310.67,189.91c-1.92,1.42-3.46,3.13-3.99,2.86-1.43-.73-2.78-2.15-3.43-3.63-.25-.57,1.91-3.02,2.2-2.89,1.58.7,2.92,1.95,5.22,3.66Z"/>
          <path class="cls-1" d="m221.48,218.16c-1.88-2.37-3.53-3.59-3.78-5.06-.18-1.03,1.56-2.38,2.44-3.59,1.28,1.17,3.09,2.13,3.65,3.58.36.94-1.1,2.58-2.31,5.07Z"/>
          <path class="cls-1" d="m215.79,158.22c-2.48,1.54-4.26,3.43-5.26,3.08-1.35-.47-2.56-2.56-2.9-4.16-.14-.67,2.23-2.75,3.2-2.59,1.46.23,2.68,1.88,4.96,3.67Z"/>
          <path class="cls-1" d="m236.4,183.14c-1.82,1.47-3.27,3.23-3.83,2.98-1.48-.66-3.02-2-3.61-3.45-.26-.63,2.02-3.26,2.7-3.1,1.49.36,2.69,1.91,4.75,3.57Z"/>
          <path class="cls-1" d="m193.4,182.86c-2.11,1.46-3.49,3.15-4.55,2.96-1.29-.22-3.16-1.97-3.22-3.14-.06-1.18,1.95-3.55,2.78-3.44,1.49.21,2.77,1.89,4.99,3.62Z"/>
          <path class="cls-1" d="m226.13,176.44c-2.27,1.76-3.55,3.5-4.93,3.58-1.07.07-3.28-2.05-3.18-2.99.16-1.47,1.68-3.62,2.96-3.9,1.14-.25,2.74,1.66,5.15,3.31Z"/>
          <path class="cls-1" d="m210,140.56c2.01,2.47,3.66,3.69,3.98,5.2.18.83-1.86,3-2.9,3-1.11,0-2.84-1.69-3.14-2.93-.28-1.14.96-2.66,2.06-5.27Z"/>
          <path class="cls-1" d="m231.87,212.48c-1.58-2.74-2.91-4.14-3.07-5.66-.09-.91,1.66-2.01,2.59-3.02,1.23,1.24,2.98,2.29,3.48,3.78.29.87-1.4,2.42-2.99,4.91Z"/>
          <path class="cls-1" d="m237.97,176.79c1.98-1.69,3.38-3.67,4.25-3.46,1.47.36,3.14,1.91,3.64,3.34.27.77-1.81,3.35-2.71,3.29-1.49-.1-2.89-1.66-5.19-3.18Z"/>
          <path class="cls-1" d="m233.65,116.72c1.35,2.22,2.84,3.61,2.79,4.95-.03.96-2.17,2.62-3.28,2.55-1.09-.07-2.96-2.01-2.87-2.99.11-1.32,1.77-2.51,3.36-4.51Z"/>
          <path class="cls-1" d="m285.77,169.5c-1.64-2.33-3.3-3.66-3.2-4.83.1-1.21,1.93-2.27,3-3.4,1.06,1.13,2.79,2.16,2.99,3.42.18,1.11-1.36,2.5-2.79,4.81Z"/>
          <path class="cls-1" d="m258.4,170.2c-2.31,1.66-3.76,3.42-4.61,3.17-1.48-.45-2.59-2.14-3.86-3.3.97-1,2.01-2.86,2.91-2.8,1.5.1,2.92,1.44,5.56,2.93Z"/>
          <path class="cls-1" d="m277.12,77.89c-1.79-2.4-3.26-3.54-3.41-4.83-.12-1.03,1.37-2.25,2.14-3.38,1.25.91,3.2,1.63,3.54,2.8.32,1.12-1.05,2.72-2.27,5.41Z"/>
        </g>
        <path class="cls-1" d="m231.22,214.83c1.65,2.09,3.21,3.22,3.28,4.43.05.96-1.73,2.03-2.69,3.04-1.1-1.05-2.69-1.93-3.11-3.21-.27-.8,1.22-2.18,2.52-4.27Z"/>
      </g>
      <path class="cls-1" d="m311.25,276.85c-1.48-1.99-3.04-3.18-2.93-4.17.16-1.36,1.59-2.57,2.48-3.84,1.18,1,3.18,1.91,3.31,3.03.14,1.24-1.44,2.67-2.86,4.98Z"/>
    </g>
  </g>
</svg>