<?xml version="1.0" encoding="UTF-8"?>
<svg id="Layer_2" data-name="Layer 2" xmlns="http://www.w3.org/2000/svg" viewBox="0 0 39.7 43.37">
  <defs>
    <style>
      .cls-1 {
        fill: #fff;
        stroke-width: 0px;
      }
    </style>
  </defs>
  <g id="Layer_1-2" data-name="Layer 1">
    <path class="cls-1" d="m38.31,36.38c-2.58,0-4.73-1.36-5.98-3.36-.59-.75-.97-1.68-1.06-2.68-.09-.36-.15-.72-.17-1.07-.2-4.22-.16-8.46.02-12.69.28-6.59-3.77-14.12-11.5-16.17-2.81-.75-3.75-.58-5.47,1.74-1.14,1.55-2.33,3.06-3.44,4.63-.41.57-.65,1.26-1.2,2.33,1.33,0,2.17-.09,2.97.02,1.96.25,4.08.23,5.8,1.03,1.15.53,2.11,2.21,2.38,3.54.12.58-1.57,1.73-2.6,2.34-3.27,1.93-6.62,3.73-9.94,5.58,0-.01,0-.02,0-.03C4.13,23.64.65,26.15.16,31.12c-.04.39-.07.77-.16,1.12,0,.03,0,.06,0,.09.04.21.13.77.15.87.19.81.48,1.57.74,2.37,0,0,0,0,0,.01.1.22.2.43.29.65.18.39.36.78.53,1.18.09.22.19.44.28.66.13.12.25.26.37.42,2.65,3.49,6.41,4.53,10.53,4.87,1.78.15,3.11-.37,4.06-1.97.78-1.32,1.75-2.52,2.67-3.75,1.15-1.53,2.1-1.57,3.42.05,1.28,1.57,2.89,2.96,4.59,4.08,2.56,1.7,3.56,1.47,5.92-.57.24-.21.48-.37.71-.48.49-.41.99-.81,1.5-1.2.44-.34.87-.68,1.31-1,.04-.03.08-.06.1-.08.1-.08.21-.16.31-.25.75-.63,1.46-1.31,2.21-1.94-.46.1-.92.15-1.39.15Zm-19.25-2.41c-1.84.01-3.7.1-5.52-.14-3.4-.45-5.66-3.19-5.7-6.75-.02-1.81.17-3.63.26-5.44,3.58-.06,7.16-.12,10.75-.17,1.52-.02,2.27.79,2.28,2.27.02,2.69,0,5.37.02,8.06.01,1.43-.71,2.16-2.09,2.17Z"/>
  </g>
</svg>