<?xml version="1.0" encoding="UTF-8"?>
<svg id="Layer_2" data-name="Layer 2" xmlns="http://www.w3.org/2000/svg" viewBox="0 0 82.22 173.24">
  <defs>
    <style>
      .cls-1 {
        fill: #fff;
        stroke-width: 0px;
      }
    </style>
  </defs>
  <g id="Layer_1-2" data-name="Layer 1">
    <path class="cls-1" d="m81.65,88.11c-.34-.64-1.54-1.29-2.01-1.93-.88-.47-1.53-1.29-1.85-2.25-.3-.54-.47-1.16-.5-1.81,0-.09,0-.17,0-.26-.2-.86.06-1.99-.05-2.7-.54-3.47-.95-6.87-1.06-10.39-.06-2.02.25-6.96.03-11.35.01.05.03.1.04.14-.03-.18-.05-.36-.06-.54,0-.11,0-.23,0-.34,0-.09-.02-.17-.02-.26,0-.1,0-.2,0-.29,0,0,0-.01,0-.02-.01.08-.02.16-.03.24-.24-3.35-.85-6.19-2.26-6.86-3.07-1.46-4.5,1.09-5.68-3.49-.46-1.78-.24-4.11-1.42-5.69-1.19-1.59-2.27-1.23-3.74-2.16-2.89-1.83-1.16-3.76-3.11-5.89-1.87-2.04-4.95-1.17-5.61-4.57,1.45-.23,6.1.45,6.92-.83,1.41-2.19-3.07-1.57-4.17-1.57,1.53-.86,5.08-.87,4.34-3.44-.84-2.96-5.49-1.83-7.63-1.44,0-2.06,2.68-3.12,3.8-4.64,1.27-1.72,2.22-3.45,1.71-5.76-.54-2.46-2.23-2.98-3.85-4.51-1.56-1.47-2.57-4.48-4.65-5.19-1.79-.61-6.06-.18-7.9,0-3.52.34-3.07,1.01-4.81,3.49-2.94,4.19-7.08.95-7.9,7.27-.59,4.58-2.25,13.23,2.66,15.22,2.39.97,5.48.63,3.2,3.37-.21.25-1.92.83-2.48,1.27-.64.5-2.05,2.26-2.44,3.07-.94,1.94-.56,3.63-2.44,5.05-2.5,1.9-5.11.77-7.79.63-6.39-.32-1.19,7.91-2.36,12.4-1.45,5.58-7.85,2.67-7.99,8.93-.08,3.52,2.85,9.25-.25,11.93-1.55,1.34-4.99.17-6.21,1.85-1.04,1.43.32,4.84.37,6.43.13,4.42-4.05,3.05-4.44,6.87-.29,2.78.89,6.27,1.12,9.08.21,2.51.25,5.22.8,7.68.65,2.9,2.02,3.46,3.59,5.72,1.27,1.83.82,4.32,1.89,5.94,1.39,2.1,3.61,1.49,5.35,3.07,1.34,1.22,1.06,2.88,2.05,4.33,1.34,1.96,2.73,2.89,5.35,2.39,3.12-.6,1.96-.8,2.51-3.71.94-5.03,5.56-2.29,6.54,1.73,1.07,4.44-.62,9.7-.39,14.21.21,3.94,3.44,13.34-.35,16.39-1.22.98-3.04.44-3.94,1.91-.96,1.58.82,3.61-1.01,5.46-2.29,2.32-9.54,1.85-5.09,7.61,2.69,3.48,9.22,2.28,13.12,2.7,2.1.22,5.17,1.57,6.65-.48,1.07-1.47-.52-4.11,1.02-5.75,1.49-1.58,4.42-.73,5.92-2.45,1.65-1.89.35-4.07.13-6.22-.32-3.23.5-6.56.03-9.79-.42-2.82-1.28-4.89-1.14-7.85.21-4.57-2.32-9.02-1.64-13.52.66-4.33,4.97-9.26,7.4-3.39,1.61,3.89.31,9.18.83,13.33.62,4.96.31,9.73.97,14.68.31,2.29.62,4.78.42,7.09-.15,1.63-1.4,4.39-.22,5.88,1.48,1.88,4.16.22,5.9,1.24,1.85,1.09.95,2.3,1.63,4.08.84,2.24.86,2.7,3.48,2.99,2.81.31,5.81-.36,8.6-.55,5.01-.33,9.59.45,8.48-5.86-.89-5.06-4.88-1.49-7.26-4.81-1.11-1.55-.28-3.04-2.13-4.3-2.1-1.43-4.54-.56-6.17-3-2.05-3.09-.68-10.86-.91-14.68-.35-5.95,0-11.92-.72-17.85-.43-3.5-2.05-11.1.25-14.36,1.05-1.49,4.24-2.13,5.93-1.01.71.47.88,1.37,1.07,2.26.18.12.45.31.57.37.11.06.22.11.33.17.44.14.87.26,1.32.35.55.04,1.1.03,1.65-.01.78-.15,1.52-.37,2.28-.63.15-.06.38-.15.51-.21.23-.12.46-.24.69-.36.1-.05.19-.11.28-.16.3-.55.55-1.12.74-1.65.03-2.01.3-3.95,1.81-5.49.32-.33.66-.58,1-.8.24-.39.47-.79.68-1.19.19-2.5.18-5.03.18-7.53,0-.24.02-.48.07-.71-.08-.81-.21-1.65-.58-2.33Zm-54.95,2.89c-.06,2.3-.15,7.67-4.09,5.5-2.34-1.29-2.77-8.19-2.71-10.51.2-2.44.66-8.09,4.53-6.33,3.52,1.59,2.34,8.53,2.27,11.34Zm7.37-20.05c0,6.67-10.29,4.39-8.69-2.88.46-2.08,1.78-3.16,4.05-3.06,3.37.14,4.5,3.04,4.7,5.94-.02,0-.04,0-.06,0Zm23.75-48.53c-1.34.59-2.61,1.11-4.34,1.26.56-.71,3.75-2.81,4.34-1.26Zm1.02,65.61c-2.76.24-2.77-2.11-3.41-3.96-.67-1.95-.05-1.94-1.55-3.37-1.44-1.38-4.68-1.37-5.31-3.69-1-3.67,5.66-5.38,8.19-4.47,4.01,1.45,4.76,7.74,4.92,11.26-.17,1.7-.65,4.05-2.85,4.23Zm14.82,15.82c-4.07.45-4.31-3.94-4.73-7.3-.33-2.65-1.01-7.14,1.69-9.08,4.17-3,5.97,2.8,6.54,5.83-1,3.6,1.6,9.98-3.5,10.55Z"/>
  </g>
</svg>