<?xml version="1.0" encoding="UTF-8"?>
<svg id="Layer_2" data-name="Layer 2" xmlns="http://www.w3.org/2000/svg" viewBox="0 0 141.02 141.02">
  <defs>
    <style>
      .cls-1 {
        fill: #fff;
        stroke-width: 0px;
      }
    </style>
  </defs>
  <g id="Layer_1-2" data-name="Layer 1">
    <g>
      <g id="_Radial_Repeat_" data-name="&amp;lt;Radial Repeat&amp;gt;">
        <path class="cls-1" d="m79.81,51.27c-.43-.11-.88-.17-1.31-.28-.27-.06-.68-.12-.78-.31-.34-.64-.95-.55-1.49-.69-.55-.14-1.07-.36-1.64-.53,0,0-.06.11-.19.37-.24-.89-.87-.95-1.53-.99-.41,0-1.03-.02-1.16-.25-.37-.68-1.02-.64-1.58-.8-.44-.13-.89-.26-1.29-.36-.29-.13-.46-.18-.62-.26-.21-.1-.38-.27-.61-.36-.44-.16-.9-.31-1.38-.47q-.42.28-.71-.15c-.06-.11-.17-.2-.26-.25-.93-.34-1.89-.57-2.76-1.03-.96-.45-2.12-.26-2.97-.98-.05-.02-.11-.06-.16-.12-.06-.07-.2-.05-.3-.06-.61-.18-1.24-.34-1.85-.52-.21-.07-.44-.16-.67-.25-.18-.03-.3-.22-.46-.3-.87-.46-1.91-.37-2.72-1.06-.42-.36-1.17-.3-1.76-.49-.49-.15-1.13,0-1.46-.62-.03-.07-.23-.02-.48-.06.2.21.31.3.42.4-.06.05-.11.09-.16.1-.54-.32-1.05-.68-1.62-.95-.63-.31-1.28-.58-1.94-.78-.66-.2-1.33-.3-2.07-.45-.02-.1-.07-.28-.12-.49-.07.03-.16.04-.23.06-.05.2-.14.39-.14.61-.05.66-.06,1.31-.05,1.96.02.48-.14,1.07.62,1.28-.18.08-.39.17-.74.3.24.14.4.19.53.31.11.1.25.26.25.41.03.71,0,1.42,0,2.1.22.16.4.26.59.38-.2.13-.38.28-.57.44.2.17.41.34.61.52-.26.09-.53.22-.92.39.28.08.47.08.61.18.13.08.29.28.31.42,0,.42-.05.84-.07,1.26.23.09.41.16.59.19.04.12.1.23.14.35-.28-.04-.57-.06-.85-.1.02.1.08.21.1.31.13.08.29.13.4.22s.18.25.27.36c-.14.05-.28.07-.42.13-.12.04-.28.07-.4.11,0,.07,0,.12.02.17.18.03.37,0,.53.09.11.06.28.23.26.31-.16.75-.26,1.45.71,1.88-.27.04-.55.12-.83.19.37.04.58.14.7.29.34.37,0,1.02.06,1.49,0,.03-.02.05,0,.07-.11.58-.2,1.15.66,1.25.03.04.06.11.1.23-.31.07-.59.15-1.06.25.4.19.67.28,1.1.48-.41.18-.64.31-.92.42q.74.22.72,1.1c.25.07.47.16.72.24l-.02.17c-.24.04-.48.09-.86.15.23.21.38.31.5.45.11.1.25.23.25.35.04.43.02.85.01,1.29-.02.54-.14,1.14.72,1.14,0,0,0,.09.02.17-.15,0-.29-.01-.42,0-.12.04-.23.1-.35.14.06.11.13.23.22.31.08.06.23.02.3.1.09.08.15.22.24.33-.14.05-.25.15-.35.17-.19.03-.37,0-.54-.02,0,.07-.01.13-.02.2.16.05.33.07.48.13.11.06.2.17.31.27-.13.07-.22.18-.35.25-.14.05-.33.05-.5.07.03.07.02.14.01.2.19,0,.36-.02.49.03.16.05.34.15.43.3.17.32.27.67.44,1.06-.12.04-.35.1-.57.16.01.05,0,.12,0,.15.24.14.5.27.74.38,0,.07,0,.12-.02.17-.26.06-.54.13-.9.22.14.13.21.26.29.28.52.03.66.32.57.8-.12.56-.12,1.09.68,1.17.05-.01.09.14.21.32-.41.03-.71.03-1,.06.1.2.23.24.34.3.18.1.32.2.48.28-.18.08-.34.19-.52.27-.14.05-.25.11-.55.23.46.11.8.11.94.28.28.3.44.72.65,1.13-.17.02-.39.05-.84.1.29.2.43.3.55.41.13.08.34.19.35.27.02.36-.02.73-.04,1.08,0,.41-.03.83.07,1.21.04.12.39.17.62.26.02.02.01.05.02.1.28-.29.56-.59.8-.57.84.08,1.06-.47,1.4-.96.39-.54.78-1.08,1.53-1.14-.05-.21-.08-.4-.11-.65.35.05.62.08.99.11-.1-.35-.16-.61-.27-1.01.64.43.99.3,1.22-.24.14-.27.31-.6.56-.71.25-.14.6-.06.94-.1-.13-.23-.24-.45-.34-.64.3,0,.69.08.89.04.07,0,.1-.02.14-.05.59-.64,1.08-1.38,1.69-2.22.2-.1.5.95.87.08-.08-.06-.13-.08-.17-.14l-.26-.43c.17.02.34.03.51.02.19-.03.41-.06.56-.18.51-.42.7-1.29,1.61-1.11.07,0,.19-.07.25-.15.47-.48.92-.98,1.39-1.46.34-.37.72-.96,1.09-.99.76-.01,1.01-.43,1.36-.93.37-.52.67-1.17,1.49-1.11-.11-.47-.4-1.12.51-.54.03.04.13.01.19-.03.7-.54,1.19-1.26,1.67-2.09-.25-.04-.42-.02-.47-.08-.12-.11-.18-.29-.26-.43.25.04.51.1.76.18.08.02.15.06.19.12.41.31.81.23,1.13-.13.14-.17.3-.34.44-.52.51-.58,1.01-1.14,1.41-1.62.45-.13.84-.1,1.03-.29.68-.71,1.3-1.5,1.94-2.25.11-.12.26-.21.39-.32.05.17.1.35.12.49.7-.61,1.46-1.26,2.23-1.93-.25-.19-.21-.32-.09-.45-.06-.07-.12-.11-.19-.12Zm-24.92,19.28c-.06.05-.19.07-.26.03-.33-.22-.63-.47-.95-.7.02-.08.06-.15.09-.23.39.21.78.38,1.14.6.05.06,0,.22-.03.3Zm-7.1-29.98s.16-.1.23-.1c.32.05.63.13,1.06.24-.44.4-.81.33-1.2.12-.06-.04-.12-.18-.09-.26Zm27.08,13.4c-.29.02-.59.33-.88.02,0-.09,0-.15-.01-.24.3.03.59.04.89.04,0,.07,0,.12,0,.19Zm1.32-3.27c-.34,0-.7.02-1.03-.02-.07,0-.15-.15-.15-.22,0-.07.14-.17.2-.17.34.03.65.11.98.18,0,.07-.01.13,0,.22Z"/>
        <path class="cls-1" d="m129.04,94.85c-.32-.01-.8.04-.87-.08-.28-.64-.77-.63-1.51-.45.26-.43.42-.69.55-.91-.3-.06-.56-.12-.83-.18.19-.22.41-.43.77-.82-.38.03-.6.09-.82.06s-.51-.1-.58-.26c-.4-.72-.72-1.44-1.12-2.22-.65.56-.82.28-1.03-.39-.15-.59-.53-1.13-.84-1.69-.03-.07-.14-.13-.21-.14-.32-.01-.63,0-.93,0,.16-.26.29-.51.55-.91-.9.52-1.12.03-1.35-.59-.23-.61-.57-1.07-1.36-.64,0,0-.06-.04-.21-.14.26-.25.48-.46.61-.57-3.34.59-6.77,1.19-10.26,1.78-.02.05-.09.23-.09.23-.56,0-1.01-.06-1.44-.02-1.23.12-2.39.55-3.63.61-.82.06-1.62.35-2.49.54-.53.07-1.13.09-1.71.17-.46.07-1,.39-1.34.24-.71-.34-1.3-.07-1.94.08-.16.04-.35-.02-.64-.06.25-.33.41-.52.5-.63-.36-.17-.81-.2-.91-.39-.28-.6-.46-1.23-1.15-1.28-.18-.03-.37,0-.63.06.22-.22.39-.35.57-.5.08-.09.19-.19.32-.29-.37-.07-.62-.11-.9-.19-.12,0-.25-.04-.38-.05.15-.12.24-.23.34-.34.17-.14.3-.28.48-.46-.24.01-.39.05-.51.05-.03,0-.07,0-.1,0-.25-.07-.53-.15-.66-.32-.42-.55-.48-1.49-1.59-1.25.23-.32.41-.52.53-.71-.38-.05-.81-.01-.95-.18-.35-.46-.63-.99-.82-1.52-.2-.58-.4-.97-1.09-.65-.07.03-.23-.09-.42-.18.2-.13.31-.19.4-.3.11-.12.23-.28.36-.42-.19,0-.36.02-.49-.03-.23-.06-.53-.12-.63-.28-.35-.61-.61-1.26-.93-1.88-.09-.14-.37-.15-.57-.21-.2-.05-.42-.06-.82-.13.43-.26.65-.38.84-.51-.01-.05-.04-.12-.07-.19-.17.02-.35.07-.51.02-.2-.05-.46-.11-.57-.27-.32-.54-.62-1.13-.88-1.71-.16-.3-.28-.45-.64-.33-.12.04-.28-.08-.43-.14.08-.13.16-.26.26-.36.08-.09.17-.17.26-.28-.57-.02-1.16.09-1.41-.59-.14.17-.3.34-.44.52-.32.36-.72.44-1.13.13-.05-.06-.11-.1-.19-.12-.25-.07-.51-.13-.76-.18.09.14.14.32.26.43.05.06.22.04.47.08-.49.83-.98,1.55-1.67,2.09-.06.05-.16.07-.19.03-.91-.58-.62.08-.51.54-.82-.06-1.12.59-1.49,1.11-.35.51-.6.92-1.36.93-.38.03-.75.62-1.09.99-.47.48-.92.98-1.39,1.46-.06.08-.18.15-.25.15-.91-.17-1.1.69-1.61,1.11-.15.12-.37.15-.56.18-.17.02-.34,0-.51-.02l.26.43c.05.06.09.08.17.14-.37.86-.68-.18-.87-.08-.61.84-1.1,1.59-1.69,2.22-.04.03-.07.06-.14.05.34.49.77,1-.22,1.42.27.03.46-.04.65-.04s.48.06.52.19c.21.44.35.95.5,1.47.34-.03.63-.06,1.06-.1-.21.39-.37.68-.53.96.38-.03.61-.04.87-.07-.16.26-.3.5-.54.88.31-.04.5-.1.7-.08.22,0,.59.07.62.11-.03.64.43.67.88.66-.21.27-.39.5-.56.74.05.06.07.13.1.2.33-.05.67-.09,1.1-.13-.2.29-.37.52-.55.76.41,0,.82-.12.98.03.29.32.5.76.61,1.19.13.42.27.52.66.32.13-.07.34-.03.51-.05-.12.16-.23.32-.35.44-.12.16-.25.26-.45.5.52,0,.83,0,1.32,0-.3.34-.46.53-.67.8.27.03.44,0,.59.04.13.05.27.14.4.19-.11.12-.19.25-.3.34-.1.11-.24.2-.36.27.03.07.07.13.1.2.4-.08.83-.16,1.24-.25.07.35.11.59.17.88.26-.06.48-.09.74-.15-.2.32-.36.57-.56.93.46-.04.74-.08,1.16-.12-.15.19-.25.33-.35.47-.13.14-.23.25-.33.39.47.05.94-.06,1.14.11.25.26.3.74.43,1.12.02.02.03.04.03.07.1.35.29.47.65.27.13-.07.26-.09.4-.15l.11.13c-.19.22-.4.45-.65.75.4.07.68.12,1.07.17-.25.3-.4.49-.53.63.41.12.74.19,1.09.27-.23.25-.45.5-.81.89.71-.18,1.33-.26,1.59.51.02.02.26-.03.39-.05.15,0,.29.01.52,0-.23.32-.42.53-.61.75.28.08.46,0,.61.02.18.03.41.12.5.27.29.47.49,1.01.81,1.47.22.34.58.63.94.99-.02.05-.1.3-.21.61.59-.15.93-.15,1.14.48.19.49.52,1.3,1.43.92.02-.02.05.06.11.13-.11.12-.21.23-.35.32-.13.11-.27.16-.41.25.08.06.17.14.25.19.27.03.57.06.86.07-.14.24-.27.5-.43.82.17-.05.29-.06.42-.1.48-.09,1.12-.4,1.39-.22.7.51,1.16.13,1.69-.12.6-.28,1.22-.54,1.9-.24.07-.18.14-.36.23-.62.28.23.52.41.8.6.1-.36.16-.59.27-1.02.34.71.7.78,1.19.44.25-.18.56-.37.83-.34.27,0,.55.22.88.39,0-.27-.02-.51-.01-.73.35.2.72.58.93.5.84-.26,1.61-.67,2.56-1.09.2.02-.04,1.08.71.53-.04-.09-.07-.16-.06-.23-.02-.17-.02-.32-.04-.49.14.1.29.2.45.28.18.07.39.14.56.12.66-.14,1.24-.78,1.96-.17.06.04.18.03.29.01.64-.19,1.29-.42,1.95-.59.47-.14,1.09-.47,1.43-.28.66.35,1.09.12,1.65-.13.57-.28,1.15-.7,1.85-.23.13-.48.18-1.17.68-.22.03.04.13.08.19.09.88-.14,1.66-.5,2.5-.98-.2-.17-.35-.24-.38-.31-.04-.16,0-.34,0-.52.18.19.39.36.57.55.05.06.07.13.1.2.21.48.59.6,1.06.46.94-.31,1.89-.66,2.66-.93.44.13.76.33,1.02.27.94-.28,1.87-.65,2.82-.96.16-.07.35-.07.5-.1-.03.18-.08.35-.13.51.9-.18,1.88-.38,2.92-.58-.31-.67.55-.3.78-.58.08-.13.37-.12.56-.15-.12.16-.23.28-.35.44l-.18.15c.05.06.06.11.09.14.83-.22,1.69-.46,2.56-.72,1.2.56,2.3-.69,3.64-.38-.14-.5-.25-1.06-.56-1.42-.18-.22-.71-.19-1.18-.27l.83-.68c-.38-.09-.74.08-.91-.02-.26-.13-.39-.48-.57-.77-.11-.13-.22-.31-.24-.48-.1-.38-.27-.55-.66-.35-.11.06-.23.06-.4.08.19-.34.33-.61.47-.88-.06-.04-.11-.06-.18-.1-.23.06-.44.14-.86.27.28-.45.48-.73.76-1.18q-1,.39-1.63-.67c-.4-.63.39-.57.53-.9Zm-33.53,11.82s-.1.18-.19.22c-.06.05-.2-.02-.23-.09-.17-.35-.32-.72-.49-1.08.09-.04.14-.09.22-.15.24.36.47.72.69,1.1Z"/>
      </g>
      <g id="_Radial_Repeat_-2" data-name="&amp;lt;Radial Repeat&amp;gt;">
        <path class="cls-1" d="m82.52,88.18c.31-.32.59-.68.9-.99.18-.2.44-.53.66-.52.73.02.95-.54,1.34-.95.39-.4.84-.74,1.28-1.16,0,0-.07-.11-.23-.35.89.24,1.26-.28,1.63-.83.21-.35.53-.89.79-.88.78.02,1.07-.56,1.48-.97.33-.32.67-.64.96-.93.26-.19.38-.31.54-.4.2-.13.43-.19.62-.34.36-.3.72-.63,1.1-.96q-.04-.5.49-.54c.12,0,.26-.04.34-.11.76-.63,1.44-1.35,2.27-1.88.87-.6,1.28-1.71,2.33-2.08.04-.03.11-.07.18-.08.09-.02.14-.15.2-.23.46-.44.91-.9,1.37-1.34.17-.15.36-.3.55-.45.12-.14.34-.15.49-.25.83-.52,1.28-1.47,2.28-1.83.52-.18.85-.87,1.31-1.28.38-.35.56-.99,1.26-.96.07.01.14-.19.3-.39-.28.07-.42.12-.55.16-.01-.07-.02-.14,0-.19.55-.31,1.11-.57,1.63-.92.59-.39,1.14-.82,1.64-1.29.5-.47.92-1,1.43-1.57.1.03.28.07.48.14.01-.07.05-.15.06-.23-.14-.14-.27-.32-.46-.43-.54-.37-1.11-.71-1.67-1.03-.42-.22-.86-.65-1.42-.1.02-.2.05-.42.11-.79-.24.14-.37.25-.53.31-.14.05-.35.08-.48,0-.63-.33-1.23-.71-1.82-1.05-.25.11-.42.22-.62.32-.02-.24-.05-.47-.09-.71-.25.09-.5.18-.75.27.05-.27.07-.57.13-.99-.21.2-.3.36-.46.44-.13.07-.39.11-.52.06-.37-.2-.71-.46-1.06-.69-.19.15-.34.27-.46.42-.13-.03-.25-.03-.37-.06.18-.22.33-.47.51-.69-.1-.03-.22-.04-.33-.07-.13.07-.26.19-.4.24s-.31.03-.45.05c.02-.15.07-.28.1-.43.03-.13.07-.28.1-.4-.05-.04-.11-.05-.16-.07-.12.14-.19.32-.34.42-.11.07-.34.13-.4.07-.57-.51-1.12-.95-1.99-.32.1-.26.18-.54.25-.81-.22.3-.41.43-.6.46-.49.11-.88-.51-1.32-.7-.03-.02-.03-.04-.05-.04-.45-.38-.9-.74-1.41-.05-.05,0-.12,0-.25-.03.09-.31.17-.58.31-1.04-.37.25-.58.43-.97.72.05-.44.05-.71.1-1.01q-.56.53-1.32.07c-.19.18-.38.33-.57.51l-.14-.1c.08-.23.16-.46.3-.82-.3.1-.45.17-.64.2-.14.05-.32.1-.43.05-.39-.18-.74-.41-1.12-.63-.46-.29-.91-.69-1.34.06,0,0-.08-.04-.16-.07.07-.13.15-.24.2-.37.03-.13.03-.25.06-.37-.12,0-.27,0-.38.04-.09.04-.14.19-.23.21-.11.04-.26.02-.4.04.02-.15,0-.29.03-.39.07-.18.19-.32.29-.46-.05-.04-.11-.08-.16-.12-.13.12-.22.25-.35.35-.11.07-.25.09-.39.14,0-.14-.05-.28-.05-.43.02-.15.12-.31.19-.47-.07-.01-.13-.05-.18-.09-.09.16-.16.32-.27.41-.13.12-.3.22-.47.22-.36-.01-.72-.1-1.14-.15.03-.13.09-.35.14-.58-.05-.02-.11-.05-.13-.07-.24.14-.48.3-.7.45-.05-.04-.11-.05-.14-.1.08-.25.15-.53.26-.89-.18.05-.33.05-.39.11-.29.43-.61.42-.98.09-.43-.39-.88-.65-1.35,0-.02.05-.17,0-.38.02.18-.37.33-.63.45-.9-.22-.01-.33.08-.43.15-.18.1-.33.18-.49.27.02-.2,0-.39.02-.58.02-.15.03-.27.07-.59-.33.34-.5.64-.71.67-.4.09-.84.02-1.3,0,.07-.16.16-.36.33-.78-.31.15-.47.22-.63.27-.13.07-.33.2-.41.16-.32-.16-.62-.38-.92-.57-.35-.21-.7-.44-1.08-.54-.13-.03-.34.25-.54.4-.02,0-.05-.02-.1-.03.11.39.23.78.09.98-.49.69-.12,1.16.14,1.69.27.61.54,1.21.22,1.9.2.06.38.13.62.23-.22.28-.38.5-.59.8.35.09.61.16,1.01.27-.69.33-.75.71-.41,1.18.16.26.36.57.33.84,0,.29-.25.55-.39.86.27,0,.51.01.73.02-.15.27-.41.55-.48.76-.04.05-.03.1-.02.15.26.83.66,1.63,1.08,2.57-.01.22-1.07-.04-.51.71.09-.04.13-.07.2-.08h.51c-.1.13-.2.26-.27.42-.07.18-.15.39-.12.58.11.66.76,1.25.16,1.95-.04.05-.04.2,0,.29.18.65.38,1.29.56,1.93.15.48.47,1.1.31,1.45-.37.67-.13,1.08.13,1.64.27.58.68,1.17.21,1.85.46.14,1.17.22.22.71-.05,0-.08.11-.07.18.12.87.49,1.66.97,2.49.16-.2.23-.35.3-.36.16-.05.34,0,.51-.01-.16.2-.34.4-.53.57-.06.06-.13.09-.2.11-.47.2-.6.58-.45,1.04.08.2.14.43.23.64.24.73.48,1.44.7,2.03-.12.45-.33.78-.26,1.03.28.94.65,1.87.98,2.81.05.16.05.33.08.49-.18-.04-.35-.09-.48-.14.18.91.36,1.9.56,2.9.29-.12.38-.02.43.14.09-.02.16-.05.2-.11Zm-4.24-31.22c-.01-.07.04-.2.11-.23.36-.18.72-.31,1.08-.47.06.06.09.13.15.19-.37.23-.72.48-1.09.69-.07.01-.19-.11-.25-.18Zm29.51,8.84s0,.19-.03.25c-.2.25-.43.48-.74.8-.12-.58.12-.87.49-1.1.07-.04.22-.01.27.05Zm-25.15,16.75c.13-.26,0-.68.43-.77.08.04.13.07.21.11-.18.25-.33.49-.48.76-.05-.04-.11-.05-.16-.09Zm2.18,2.78c.17-.29.33-.61.53-.89.04-.05.21-.06.26-.02.05.04.08.2.04.26-.2.27-.42.51-.65.76-.05-.04-.11-.08-.19-.11Z"/>
        <path class="cls-1" d="m20.17,109.03c.17-.27.36-.71.51-.71.69.08.93-.35,1.15-1.09.24.44.38.71.52.93.2-.23.39-.43.57-.63.09.27.17.58.33,1.08.16-.34.22-.57.36-.74s.34-.4.52-.38c.82,0,1.61.09,2.49.14-.16-.84.17-.85.85-.7.58.17,1.25.11,1.88.12.07.01.18-.05.22-.11.17-.27.32-.54.47-.8.14.27.3.51.52.93,0-1.04.54-.98,1.18-.87.65.11,1.21.04,1.23-.86,0,0,.07-.04.22-.11.08.35.16.65.18.81,1.16-3.19,2.35-6.45,3.59-9.78-.03-.04-.15-.19-.15-.19.28-.48.56-.84.74-1.23.51-1.12.72-2.34,1.28-3.45.36-.74.51-1.58.78-2.42.21-.49.48-1.02.7-1.57.17-.44.16-1.07.46-1.28.65-.45.71-1.08.9-1.72.05-.15.19-.3.37-.52.16.38.25.61.29.75.33-.22.58-.6.8-.59.66.06,1.29.22,1.68-.35.12-.14.19-.32.27-.58.07.3.11.51.15.75.04.11.07.25.09.42.24-.28.4-.48.61-.68.05-.11.16-.2.24-.31.03.19.08.33.13.46.04.21.09.4.16.65.11-.21.16-.36.21-.47.02-.03.04-.05.06-.08.19-.18.4-.38.61-.42.69-.09,1.53.32,1.88-.75.16.36.25.61.35.81.24-.31.42-.7.63-.73.57-.07,1.18-.05,1.72.05.6.12,1.04.14,1.1-.62.01-.07.19-.15.36-.28.02.24.01.36.06.5.05.16.13.34.18.52.09-.16.16-.32.27-.41.16-.17.37-.4.56-.41.7,0,1.39.11,2.1.13.17,0,.32-.25.47-.39.14-.15.26-.33.52-.64.01.51,0,.75.02.99.05.02.13.03.2.04.07-.16.11-.33.24-.45.14-.14.33-.34.52-.35.63,0,1.28.03,1.92.09.34.02.53-.02.61-.39.03-.13.21-.2.34-.3.07.13.14.27.19.4.04.11.06.23.11.37.31-.49.5-1.05,1.22-.93-.08-.2-.15-.43-.23-.64-.15-.46-.02-.84.45-1.04.07-.01.14-.05.2-.11.19-.18.37-.38.53-.57-.17,0-.34-.04-.51.01-.07.01-.14.17-.3.36-.48-.84-.85-1.62-.97-2.49-.01-.07.02-.17.07-.18.96-.5.24-.57-.22-.71.47-.68.05-1.26-.21-1.85-.26-.56-.5-.98-.13-1.64.16-.34-.16-.96-.31-1.45-.18-.65-.38-1.29-.56-1.93-.04-.09-.04-.23,0-.29.61-.71-.05-1.3-.16-1.95-.03-.19.05-.4.12-.58.07-.16.17-.29.27-.43h-.51c-.07.02-.11.05-.2.09-.56-.75.5-.49.51-.71-.42-.94-.82-1.75-1.08-2.57,0-.05-.02-.09.02-.15-.6.05-1.25.16-1.12-.9-.16.22-.2.42-.29.58s-.3.39-.42.36c-.49-.04-.99-.17-1.52-.3-.14.31-.27.58-.44.97-.23-.37-.4-.66-.57-.94-.16.34-.27.55-.38.79-.14-.27-.28-.51-.49-.91-.12.29-.16.49-.28.65-.11.19-.36.47-.4.48-.54-.34-.79.04-1.01.43-.13-.32-.24-.59-.36-.86-.07.01-.14,0-.22-.01-.12.31-.26.62-.43,1.01-.15-.31-.27-.58-.38-.85-.21.35-.31.78-.51.83-.42.09-.91.06-1.34-.07-.43-.1-.58-.02-.61.42,0,.14-.14.31-.21.47-.08-.18-.16-.36-.21-.52-.08-.18-.11-.34-.2-.64-.26.45-.41.72-.65,1.15-.15-.43-.23-.66-.36-.98-.16.22-.23.38-.33.49-.11.09-.26.16-.37.25-.05-.16-.12-.29-.14-.43-.05-.14-.05-.31-.05-.45-.07-.01-.14,0-.22-.01-.13.38-.28.8-.4,1.2-.33-.11-.56-.2-.85-.29-.08.25-.16.46-.24.72-.18-.33-.32-.6-.52-.95-.2.42-.3.68-.47,1.07-.09-.23-.16-.38-.24-.54-.05-.18-.1-.32-.18-.48-.27.38-.41.84-.67.93-.35.08-.79-.11-1.19-.19-.02,0-.05,0-.07-.01-.35-.09-.55.02-.56.43,0,.14-.05.27-.07.42l-.16.03c-.09-.27-.19-.57-.33-.94-.26.31-.44.53-.68.84-.13-.36-.22-.59-.27-.78-.31.29-.54.55-.78.81-.1-.32-.2-.64-.36-1.15-.2.71-.44,1.28-1.24,1.12-.02,0-.11.23-.16.36-.07.13-.15.24-.26.45-.16-.36-.25-.63-.34-.91-.21.2-.22.4-.32.51-.12.14-.31.29-.48.3-.55.02-1.12-.08-1.67-.03-.41.02-.84.19-1.32.32-.03-.04-.21-.23-.42-.49-.17.58-.34.88-.99.74-.52-.08-1.39-.2-1.51.78,0,.02-.07.01-.16.03-.05-.16-.1-.3-.1-.47-.03-.16,0-.31,0-.48-.09.04-.2.08-.29.12-.16.22-.33.47-.49.71-.14-.24-.3-.48-.49-.79-.04.18-.1.28-.13.41-.16.46-.22,1.17-.5,1.32-.79.35-.69.94-.74,1.52-.06.66-.14,1.33-.74,1.77.12.15.24.3.42.51-.34.13-.61.25-.92.4.26.27.43.43.75.74-.78-.06-1.03.22-.98.81.03.31.04.67-.12.89-.13.24-.47.37-.78.56.24.13.45.24.64.35-.35.2-.86.34-.9.56-.2.85-.22,1.73-.34,2.76-.12.16-.92-.57-.81.35.1,0,.17.02.23.06.16.07.29.14.45.22-.16.07-.31.15-.47.25-.15.12-.32.27-.39.43-.21.64.05,1.46-.84,1.78-.07.04-.12.14-.15.24-.16.65-.29,1.33-.47,1.99-.11.48-.14,1.18-.47,1.38-.63.4-.65.88-.72,1.5-.04.63.03,1.35-.73,1.72.35.35.92.74-.15.7-.05,0-.13.07-.17.13-.32.83-.4,1.68-.4,2.65.25-.09.38-.18.45-.17.15.05.29.17.45.26-.25.07-.51.16-.76.22-.07.01-.15,0-.22-.01-.52-.06-.81.21-.92.69-.2.98-.37,1.97-.53,2.77-.33.32-.67.5-.74.75-.23.96-.38,1.95-.58,2.92-.02.17-.11.33-.16.49-.14-.12-.26-.25-.38-.37-.29.87-.61,1.82-.96,2.82.74.07-.02.63.11.97.07.13-.08.38-.15.56-.08-.18-.13-.34-.21-.52l-.04-.23c-.07.01-.12,0-.17,0-.22.83-.44,1.69-.66,2.57-1.08.76-.55,2.34-1.5,3.34.51.13,1.04.31,1.51.23.28-.05.52-.52.82-.89l.18,1.06c.27-.29.3-.68.47-.78.24-.16.61-.1.95-.11.16-.03.38-.04.54.03.38.11.61.04.63-.4,0-.12.06-.23.13-.38.2.33.36.59.53.85.07-.04.11-.07.18-.1.06-.23.09-.45.19-.88.25.47.4.78.64,1.25q.16-1.07,1.39-1.08c.74-.03.3.63.51.9Zm6.53-34.95s-.1-.18-.09-.27c-.01-.07.12-.16.19-.15.39.03.79.09,1.18.12,0,.1,0,.17.02.26-.43.02-.86.05-1.3.05Z"/>
      </g>
      <g id="_Radial_Repeat_-3" data-name="&amp;lt;Radial Repeat&amp;gt;">
        <path class="cls-1" d="m49.2,72.08c.12.43.29.85.41,1.27.08.26.24.65.12.83-.38.62,0,1.09.15,1.63.15.54.22,1.1.36,1.69,0,0,.13,0,.42-.02-.65.65-.38,1.23-.1,1.82.2.35.5.9.37,1.13-.4.66-.04,1.2.1,1.77.11.45.22.9.33,1.29.03.32.07.49.08.67.01.23-.05.47-.01.71.08.46.18.93.28,1.43q.45.22.22.69c-.06.1-.09.25-.08.35.17.98.45,1.92.49,2.9.09,1.05.84,1.97.63,3.06,0,.05,0,.13-.02.2-.03.09.05.2.09.29.15.62.32,1.24.47,1.86.04.22.08.46.12.71.06.18-.04.37-.03.55.04.98.63,1.84.44,2.89-.1.55.33,1.17.46,1.77.12.5.57.98.2,1.58-.05.06.1.21.19.45.08-.28.11-.42.13-.56.07.03.13.05.17.09,0,.63-.06,1.25-.02,1.88.04.7.14,1.4.29,2.07.16.67.41,1.3.64,2.02-.08.07-.2.2-.36.35.06.05.11.12.17.16.2-.05.41-.08.6-.18.59-.29,1.17-.61,1.72-.93.4-.26,1-.42.8-1.18.16.11.34.25.63.49,0-.28-.04-.45,0-.61.03-.14.1-.34.23-.42.6-.39,1.23-.71,1.82-1.05.03-.27.02-.47.03-.7.21.11.44.19.66.27.05-.26.09-.52.14-.79.21.18.45.35.79.6-.07-.28-.16-.44-.15-.62,0-.15.1-.4.21-.48.36-.22.75-.38,1.13-.57-.04-.24-.07-.43-.13-.61.09-.09.15-.2.24-.29.1.27.24.52.34.79.08-.07.14-.18.22-.25,0-.15-.03-.32,0-.46s.13-.28.18-.42c.12.09.2.2.32.3.09.09.2.2.3.29.06-.03.1-.06.14-.1-.06-.18-.18-.32-.19-.5,0-.13.06-.36.14-.38.72-.24,1.38-.5,1.27-1.56.17.22.38.42.58.62-.15-.34-.17-.57-.1-.75.15-.48.88-.51,1.27-.8.03-.01.05,0,.06-.03.56-.2,1.09-.4.75-1.19.02-.04.06-.1.15-.2.22.23.42.44.75.79-.04-.45-.09-.72-.14-1.2.36.26.59.4.82.59q-.18-.75.59-1.18c-.06-.25-.1-.49-.15-.74l.15-.07c.16.19.32.37.56.67.06-.31.08-.48.14-.66.03-.14.07-.33.17-.39.35-.25.72-.44,1.11-.65.48-.25,1.06-.44.62-1.19,0,0,.07-.05.14-.1.08.13.13.25.22.36.09.09.2.15.29.24.06-.1.14-.23.16-.35.01-.1-.1-.21-.06-.3.02-.12.11-.24.16-.37.12.09.25.14.32.22.12.15.18.32.25.48.06-.03.12-.06.18-.08-.04-.17-.11-.32-.13-.48,0-.13.05-.26.07-.4.13.07.27.1.39.17.12.09.21.26.31.4.05-.06.11-.09.17-.11-.09-.16-.19-.3-.22-.44-.04-.17-.04-.37.04-.52.19-.31.44-.57.7-.91.09.09.26.25.43.42.04-.04.1-.06.13-.08,0-.28-.02-.57-.04-.83.06-.03.1-.06.15-.07.18.2.38.4.64.67.04-.19.12-.31.1-.4-.23-.47-.06-.73.41-.89.55-.18,1-.44.67-1.17-.04-.04.08-.15.18-.34.23.34.39.6.55.84.12-.18.09-.32.09-.45,0-.2.01-.38,0-.56.16.11.33.2.49.31.12.09.22.16.48.36-.13-.46-.3-.75-.23-.95.12-.39.4-.74.65-1.13.1.14.24.32.51.67.03-.35.04-.52.08-.68,0-.15,0-.38.06-.43.3-.19.64-.35.95-.51.35-.2.73-.39,1.01-.66.09-.09-.04-.42-.08-.67,0-.02.04-.04.08-.07-.4-.1-.79-.19-.89-.41-.35-.77-.94-.68-1.53-.73-.66-.07-1.32-.14-1.75-.76-.16.15-.3.27-.51.42-.13-.33-.24-.57-.4-.91-.25.26-.45.44-.74.74.06-.77-.23-1-.82-.94-.31.01-.67.03-.89-.13-.25-.14-.35-.49-.55-.77-.14.23-.26.44-.38.62-.16-.26-.27-.64-.42-.79-.03-.06-.07-.08-.12-.09-.84-.19-1.74-.24-2.77-.35-.18-.12.57-.91-.36-.8-.01.1,0,.15-.03.22l-.24.44c-.07-.15-.14-.31-.24-.45-.12-.15-.26-.33-.44-.39-.62-.23-1.46.04-1.77-.84-.03-.06-.15-.13-.25-.14-.65-.17-1.31-.31-1.96-.48-.49-.11-1.19-.14-1.41-.45-.39-.66-.87-.66-1.49-.71-.64-.06-1.35,0-1.71-.74-.35.33-.77.91-.73-.17.02-.04-.06-.12-.12-.15-.82-.33-1.68-.4-2.65-.41.09.24.19.38.16.44-.04.16-.16.3-.24.44-.09-.24-.17-.5-.23-.75-.02-.08-.02-.16,0-.23.06-.51-.2-.81-.68-.91-.22-.03-.45-.09-.67-.12-.76-.16-1.49-.3-2.11-.41-.33-.33-.51-.67-.76-.74-.96-.23-1.95-.37-2.92-.56-.16-.04-.31-.12-.47-.18.13-.13.25-.26.36-.35-.88-.3-1.82-.63-2.79-.97-.04.32-.18.34-.34.3-.03.09-.04.16,0,.23Zm29.16,11.94c.07.03.15.13.15.21-.02.4-.09.78-.13,1.17-.08.02-.16.02-.24.04-.01-.44-.06-.86-.05-1.29.03-.07.19-.11.28-.13Zm-22.41,21.14c-.05,0-.17-.09-.2-.15-.12-.3-.2-.61-.32-1.04.57.19.69.54.7.98,0,.08-.1.19-.18.21Zm-1.94-30.16c.16.24.58.35.45.76-.07.05-.13.08-.2.13-.13-.28-.26-.53-.42-.79.06-.03.1-.06.16-.09Zm-3.49.5c.17.29.36.59.5.9.03.06-.05.21-.11.24-.06.03-.22-.03-.25-.09-.14-.31-.23-.62-.34-.94.06-.03.12-.06.19-.11Z"/>
        <path class="cls-1" d="m62.33,7.65c.15.28.44.67.36.8-.41.56-.16.98.37,1.54-.5-.01-.81-.02-1.06-.02.1.29.18.55.26.81-.28-.06-.58-.14-1.1-.26.21.31.38.47.46.68s.17.5.07.64c-.42.71-.89,1.35-1.37,2.08.81.28.65.57.18,1.08-.44.42-.72,1.03-1.04,1.57-.05.06-.04.19-.02.25.15.28.3.55.46.81-.3-.01-.59,0-1.06-.02.9.52.58.96.17,1.46-.42.5-.64,1.03.13,1.5,0,0,0,.08-.02.25-.34-.1-.64-.19-.8-.25,2.18,2.6,4.41,5.26,6.67,7.99.05,0,.24-.04.24-.04.28.48.45.91.7,1.25.72,1.01,1.67,1.79,2.35,2.84.46.68,1.12,1.23,1.71,1.89.32.43.64.93,1,1.39.3.37.84.67.88,1.04.06.79.58,1.16,1.04,1.64.11.12.16.31.27.58-.41-.05-.65-.09-.79-.12.03.39.23.8.11.98-.38.54-.84,1.01-.53,1.63.06.18.18.32.37.52-.3-.09-.5-.16-.72-.25-.12-.02-.25-.07-.41-.13.12.35.21.59.28.87.06.1.09.24.15.36-.18-.07-.32-.09-.46-.12-.2-.08-.39-.12-.64-.19.13.2.24.32.3.42.01.03.03.06.04.09.06.25.13.53.06.73-.26.64-1.04,1.16-.29,2-.39-.04-.65-.09-.88-.1.15.36.4.71.32.91-.22.53-.54,1.04-.91,1.47-.4.46-.64.83-.02,1.27.06.05.04.24.06.45-.21-.11-.32-.17-.46-.2-.16-.04-.36-.06-.55-.1.09.16.19.3.22.44.07.23.16.52.07.69-.35.61-.79,1.15-1.16,1.75-.08.15.05.4.11.6.05.2.16.39.3.77-.44-.24-.65-.37-.86-.48-.04.04-.09.09-.13.15.1.14.23.26.27.43.05.2.13.46.04.63-.31.55-.67,1.1-1.04,1.62-.18.29-.25.47.03.72.09.09.07.28.09.44-.15,0-.3-.01-.44-.04-.12-.02-.23-.06-.37-.09.27.51.66.96.19,1.52.22.03.45.09.67.12.47.1.74.4.68.91-.03.07-.03.14,0,.23.06.25.14.51.23.75.08-.15.21-.28.24-.44.03-.07-.08-.21-.16-.44.96,0,1.83.07,2.65.41.07.03.14.1.12.15-.05,1.08.37.5.73.17.36.74,1.07.68,1.71.74.62.05,1.1.06,1.49.71.21.31.91.34,1.41.45.65.17,1.31.31,1.96.48.1.01.22.08.25.14.31.88,1.15.61,1.77.84.18.07.32.25.44.39.1.14.17.29.24.45l.24-.44c.03-.07.02-.12.03-.22.93-.11.18.68.36.8,1.03.11,1.92.16,2.77.35.04.02.09.03.12.09.25-.54.49-1.17,1.34-.52-.11-.25-.27-.38-.36-.54s-.19-.45-.1-.55c.28-.4.65-.78,1.02-1.17-.2-.28-.37-.52-.62-.87.44-.01.77-.02,1.1-.02-.21-.31-.34-.51-.49-.72.3.01.58.01,1.03.03-.19-.25-.34-.38-.42-.57-.11-.19-.23-.54-.21-.59.57-.3.36-.7.13-1.1.34.05.63.08.92.12.03-.07.07-.13.12-.18-.21-.26-.41-.54-.66-.88.35.03.64.06.93.09-.2-.35-.52-.65-.47-.86.13-.41.41-.81.73-1.13.3-.32.31-.49-.06-.73-.13-.07-.2-.28-.3-.42.2.02.39.04.55.08.2.02.35.08.66.14-.26-.45-.42-.72-.67-1.14.45.09.69.13,1.03.18-.11-.25-.21-.38-.26-.53-.03-.14-.01-.31-.04-.45.16.04.32.04.45.09.14.03.29.11.42.18.05-.06.07-.13.12-.18-.27-.3-.55-.64-.84-.95.26-.23.45-.39.68-.59-.18-.2-.32-.37-.5-.57.38.01.68.02,1.08.02-.27-.38-.44-.6-.69-.94.24.04.41.05.59.07.19.04.33.07.5.09-.2-.43-.52-.78-.47-1.04.1-.34.49-.63.76-.94,0-.02.02-.04.05-.06.25-.26.26-.49-.1-.7-.13-.07-.21-.18-.33-.28l.06-.16c.28.06.59.12.97.19-.14-.38-.24-.65-.39-1.01.38.07.62.11.81.15-.1-.42-.21-.74-.31-1.08.33.07.66.14,1.17.26-.52-.52-.89-1.02-.35-1.63,0-.02-.15-.21-.24-.32-.08-.13-.13-.25-.26-.45.39.04.67.1.96.16-.07-.28-.23-.39-.28-.54-.06-.18-.1-.42-.02-.57.26-.49.63-.93.87-1.43.19-.36.26-.82.39-1.31.05,0,.3-.06.63-.12-.42-.44-.59-.73-.15-1.23.33-.41.87-1.1.08-1.7-.02,0,.03-.07.06-.16.16.04.31.06.45.14.16.06.27.15.42.23.01-.1.03-.22.04-.32-.11-.25-.24-.52-.37-.77.28,0,.57-.02.93-.03-.13-.13-.2-.23-.29-.31-.32-.37-.91-.77-.89-1.1.09-.86-.47-1.06-.95-1.4-.54-.38-1.08-.79-1.16-1.53-.19.03-.38.06-.65.11.06-.36.09-.65.12-1-.37.09-.59.16-1.02.28.45-.65.32-1-.22-1.25-.28-.13-.6-.3-.71-.55-.14-.23-.08-.59-.1-.95-.23.14-.43.27-.62.38,0-.41.14-.91-.04-1.06-.64-.6-1.39-1.05-2.22-1.67-.08-.18.95-.51.1-.88-.06.08-.1.14-.16.17-.14.1-.27.18-.41.28.01-.17.03-.35.02-.53-.03-.19-.08-.41-.18-.55-.45-.5-1.29-.69-1.12-1.62,0-.08-.06-.18-.13-.25-.49-.46-1.01-.91-1.49-1.4-.36-.34-.95-.71-.96-1.1-.03-.75-.44-1-.94-1.37-.53-.35-1.18-.65-1.12-1.49-.48.13-1.1.43-.53-.48.02-.04,0-.15-.02-.21-.56-.69-1.26-1.18-2.09-1.67-.05.26-.03.42-.08.48-.12.11-.29.17-.45.26.07-.25.12-.52.19-.77.03-.07.07-.13.12-.18.31-.42.23-.81-.13-1.14-.74-.66-1.52-1.31-2.13-1.84-.11-.45-.1-.83-.28-1.02-.71-.67-1.5-1.3-2.24-1.96-.14-.1-.23-.26-.34-.38.18-.06.34-.1.51-.14-.61-.69-1.27-1.44-1.96-2.24-.43.6-.54-.33-.9-.39-.15,0-.28-.26-.41-.41.2.02.36.06.55.08l.22.08c.03-.07.06-.1.08-.15-.61-.61-1.24-1.23-1.9-1.86-.12-1.32-1.75-1.65-2.15-2.97-.37.37-.79.75-.96,1.19-.1.27.19.71.36,1.15l-1-.38c.11.37.44.6.44.8.02.29-.22.58-.38.88-.06.16-.16.35-.3.45-.28.28-.34.51.03.75.1.06.17.16.27.3-.38,0-.69.02-1,.03,0,.08,0,.13,0,.2.17.16.34.31.66.6-.53-.02-.87-.05-1.4-.07q.84.67.24,1.74c-.35.66-.69-.06-1.04,0Zm27,23.13s.2,0,.28.06c.07.03.08.18.04.24-.22.32-.47.64-.69.96-.08-.06-.15-.08-.24-.11.2-.38.39-.77.61-1.15Z"/>
      </g>
    </g>
  </g>
</svg>