<?xml version="1.0" encoding="UTF-8"?>
<svg id="Layer_2" data-name="Layer 2" xmlns="http://www.w3.org/2000/svg" viewBox="0 0 82.77 82.77">
  <defs>
    <style>
      .cls-1 {
        fill: #fff;
        stroke-width: 0px;
      }
    </style>
  </defs>
  <g id="Layer_1-2" data-name="Layer 1">
    <g>
      <g id="_Radial_Repeat_" data-name="&amp;lt;Radial Repeat&amp;gt;">
        <path class="cls-1" d="m36.42,67.71c.47.38.84.69,1.36,1.11l2.62-2.57c.57.46.98.8,1.46,1.18.93-.82,1.81-1.59,2.7-2.37.51.39.9.68,1.46,1.1l1.42-1.39c.59-.14,1.16-.33,1.7-.56,1.07.72,1.22.51,2.04-.86-.05-.07-.1-.14-.15-.21.78-.56,1.5-1.22,2.17-1.98.34-.39.66-.79.98-1.2,1.37-1.06,2.58-2.18,3.69-3.5l.24.25,4.04-3.97c-.36-.52-.66-.97-1.04-1.51l5.27-5.18c-.39-.53-.7-.95-.93-1.28.26-1.58,3.66-2.01,1.22-4.26.39-.47.72-.87,1.05-1.28-.37-.5-.69-.93-1.01-1.36l1.05-1.04,3.71,3.77c-.33.47-.64.91-1.02,1.46l2.46,2.51c-1.22.97-1.22,1.94-.11,2.86-.39.5-.71.91-1.04,1.33.36.51.67.94.96,1.35-.36.46-.65.85-1.02,1.33,1.59,1.18.73,2.05-.31,2.92-.4.33-.72.76-1.05,1.13.42.53.72.91,1.13,1.43l-3.9,3.84c.39.59.69,1.03,1,1.51-.7.77-1.37,1.45-.23,2.37,1.02.82,1.73,2.54,3.27.66.51.38.94.69,1.38,1.01.49-.36.92-.67,1.32-.97.5.36.93.67,1.48,1.07l2.55-2.51c.55.44.97.78,1.41,1.13.49-.34.93-.64,1.45-1,.35.41.64.76.99,1.18l-3.89,3.83c.42.59.73,1.02,1.09,1.52-.41.35-.77.65-1.11.93-.5-.4-.88-.7-1.28-1.01-.49.36-.91.67-1.38,1.01-.93-.84-1.79-1.64-2.8-2.56l-2.56,2.52c-.55-.42-.94-.71-1.42-1.07-.92,1.26-1.87,1.01-2.74.02-.53.36-.97.66-1.4.95-.45-.36-.82-.67-1.23-1.01-.48.36-.9.68-1.4,1.06-.91-1.35-1.88-.97-2.8-.06-.46-.38-.84-.69-1.35-1.1l-2.55,2.51c-.56-.42-.98-.74-1.41-1.07-.49.35-.93.65-1.37.97-.47-.37-.89-.69-1.36-1.06-.48.33-.91.64-1.33.94-.51-.33-.95-.62-1.4-.93-.47.39-.88.73-1.32,1.09-.48-.4-.89-.74-1.34-1.11-.47.31-.92.6-1.37.9-.48-.33-.92-.63-1.38-.95-.48.37-.9.69-1.36,1.04-.47-.36-.89-.68-1.31-1.01-.5.36-.94.66-1.43,1.01-.84-1.25-1.75-1.08-2.64-.15l-2.31-2.35,2.39-2.35Z"/>
        <g id="WNsNV2">
          <path class="cls-1" d="m73.69,34.21c-.02-.6-.04-1.09-.06-1.76l-3.66-.28c-.03-.73-.05-1.26-.07-1.88-1.23-.16-2.39-.32-3.56-.47-.05-.64-.08-1.13-.13-1.82l-1.98-.15c-.49-.36-1.01-.66-1.54-.91-.17-1.28-.42-1.25-1.99-.97-.02.08-.04.17-.06.25-.93-.22-1.91-.33-2.92-.33-.52,0-1.03.02-1.55.05-1.7-.34-3.34-.5-5.06-.48l.03-.35-5.65-.43c-.16.62-.29,1.14-.45,1.78l-7.36-.55c-.14.64-.26,1.15-.35,1.54-1.37.85-3.92-1.44-4,1.89-.61.02-1.13.03-1.66.05-.13.61-.24,1.13-.36,1.65l-1.47-.11.4-5.27c.57-.06,1.1-.12,1.77-.19l.26-3.5c1.54.28,2.26-.36,2.23-1.8.63-.04,1.16-.07,1.68-.09.14-.6.27-1.12.38-1.61.58-.04,1.07-.07,1.67-.11-.16-1.98,1.06-1.89,2.41-1.69.51.08,1.04.04,1.54.05.12-.67.21-1.15.33-1.8l5.46.41c.19-.69.33-1.2.48-1.75,1.04.02,1.99.08,1.94-1.38-.05-1.31.77-2.98-1.66-2.89-.06-.64-.1-1.16-.15-1.7-.59-.13-1.11-.25-1.6-.36-.06-.62-.11-1.14-.17-1.82l-3.57-.27c-.03-.71-.05-1.24-.08-1.8-.58-.15-1.09-.27-1.71-.43.08-.53.15-.99.23-1.52l5.44.41c.17-.7.29-1.22.43-1.82.53.08,1,.15,1.43.22.03.64.06,1.13.08,1.63.59.13,1.11.25,1.67.37-.03,1.25-.05,2.43-.08,3.79l3.58.27c.05.69.09,1.18.13,1.77,1.55-.14,1.99.75,1.82,2.05.62.16,1.13.29,1.64.43.02.57.04,1.06.06,1.59.59.12,1.11.23,1.72.35-.41,1.57.51,2.06,1.8,2.15.02.6.04,1.08.06,1.74l3.57.27c.05.7.09,1.23.13,1.77.59.14,1.11.27,1.63.4.03.59.07,1.13.1,1.72.56.14,1.08.26,1.58.39.08.6.15,1.13.23,1.67.61.1,1.13.18,1.69.27.02.63.03,1.16.05,1.74.54.15,1.06.29,1.58.44.07.58.13,1.11.2,1.66.59.12,1.11.22,1.68.34.04.59.07,1.12.1,1.65.6.14,1.12.27,1.71.41-.39,1.45.34,2.03,1.62,2.08l-.25,3.29-3.34-.25Z"/>
        </g>
      </g>
      <g id="_Radial_Repeat_-2" data-name="&amp;lt;Radial Repeat&amp;gt;">
        <path class="cls-1" d="m15.06,36.42c-.38.47-.69.84-1.11,1.36l2.57,2.62c-.46.57-.8.98-1.18,1.46.82.93,1.59,1.81,2.37,2.7-.39.51-.68.9-1.1,1.46l1.39,1.42c.14.59.33,1.16.56,1.7-.72,1.07-.51,1.22.86,2.04.07-.05.14-.1.21-.15.56.78,1.22,1.5,1.98,2.17.39.34.79.66,1.2.98,1.06,1.37,2.18,2.58,3.5,3.69l-.25.24,3.97,4.04c.52-.36.97-.66,1.51-1.04l5.18,5.27c.53-.39.95-.7,1.28-.93,1.58.26,2.01,3.66,4.26,1.22.47.39.87.72,1.28,1.05.5-.37.93-.69,1.36-1.01l1.04,1.05-3.77,3.71c-.47-.33-.91-.64-1.46-1.02l-2.51,2.46c-.97-1.22-1.94-1.22-2.86-.11-.5-.39-.91-.71-1.33-1.04-.51.36-.94.67-1.35.96-.46-.36-.85-.65-1.33-1.02-1.18,1.59-2.05.73-2.92-.31-.33-.4-.76-.72-1.13-1.05-.53.42-.91.72-1.43,1.13l-3.84-3.9c-.59.39-1.03.69-1.51,1-.77-.7-1.45-1.37-2.37-.23-.82,1.02-2.54,1.73-.66,3.27-.38.51-.69.94-1.01,1.38.36.49.67.92.97,1.32-.36.5-.67.93-1.07,1.48l2.51,2.55c-.44.55-.78.97-1.13,1.41.34.49.64.93,1,1.45-.41.35-.76.64-1.18.99l-3.83-3.89c-.59.42-1.02.73-1.52,1.09-.35-.41-.65-.77-.93-1.11.4-.5.7-.88,1.01-1.28-.36-.49-.67-.91-1.01-1.38.84-.93,1.64-1.79,2.56-2.8l-2.52-2.56c.42-.55.71-.94,1.07-1.42-1.26-.92-1.01-1.87-.02-2.74-.36-.53-.66-.97-.95-1.4.36-.45.67-.82,1.01-1.23-.36-.48-.68-.9-1.06-1.4,1.35-.91.97-1.88.06-2.8.38-.46.69-.84,1.1-1.35l-2.51-2.55c.42-.56.74-.98,1.07-1.41-.35-.49-.65-.93-.97-1.37.37-.47.69-.89,1.06-1.36-.33-.48-.64-.91-.94-1.33.33-.51.62-.95.93-1.4-.39-.47-.73-.88-1.09-1.32.4-.48.74-.89,1.11-1.34-.31-.47-.6-.92-.9-1.37.33-.48.63-.92.95-1.38-.37-.48-.69-.9-1.04-1.36.36-.47.68-.89,1.01-1.31-.36-.5-.66-.94-1.01-1.43,1.25-.84,1.08-1.75.15-2.64l2.35-2.31,2.35,2.39Z"/>
        <g id="WNsNV2-2" data-name="WNsNV2">
          <path class="cls-1" d="m48.56,73.69c.6-.02,1.09-.04,1.76-.06l.28-3.66c.73-.03,1.26-.05,1.88-.07.16-1.23.32-2.39.47-3.56.64-.05,1.13-.08,1.82-.13l.15-1.98c.36-.49.66-1.01.91-1.54,1.28-.17,1.25-.42.97-1.99-.08-.02-.17-.04-.25-.06.22-.93.33-1.91.33-2.92,0-.52-.02-1.03-.05-1.55.34-1.7.5-3.34.48-5.06l.35.03.43-5.65c-.62-.16-1.14-.29-1.78-.45l.55-7.36c-.64-.14-1.15-.26-1.54-.35-.85-1.37,1.44-3.92-1.89-4-.02-.61-.03-1.13-.05-1.66-.61-.13-1.13-.24-1.65-.36l.11-1.47,5.27.4c.06.57.12,1.1.19,1.77l3.5.26c-.28,1.54.36,2.26,1.8,2.23.04.63.07,1.16.09,1.68.6.14,1.12.27,1.61.38.04.58.07,1.07.11,1.67,1.98-.16,1.89,1.06,1.69,2.41-.08.51-.04,1.04-.05,1.54.67.12,1.15.21,1.8.33l-.41,5.46c.69.19,1.2.33,1.75.48-.02,1.04-.08,1.99,1.38,1.94,1.31-.05,2.98.77,2.89-1.66.64-.06,1.16-.1,1.7-.15.13-.59.25-1.11.36-1.6.62-.06,1.14-.11,1.82-.17l.27-3.57c.71-.03,1.24-.05,1.8-.08.15-.58.27-1.09.43-1.71.53.08.99.15,1.52.23l-.41,5.44c.7.17,1.22.29,1.82.43-.08.53-.15,1-.22,1.43-.64.03-1.13.06-1.63.08-.13.59-.25,1.11-.37,1.67-1.25-.03-2.43-.05-3.79-.08l-.27,3.58c-.69.05-1.18.09-1.77.13.14,1.55-.75,1.99-2.05,1.82-.16.62-.29,1.13-.43,1.64-.57.02-1.06.04-1.59.06-.12.59-.23,1.11-.35,1.72-1.57-.41-2.06.51-2.15,1.8-.6.02-1.08.04-1.74.06l-.27,3.57c-.7.05-1.23.09-1.77.13-.14.59-.27,1.11-.4,1.63-.59.03-1.13.07-1.72.1-.14.56-.26,1.08-.39,1.58-.6.08-1.13.15-1.67.23-.1.61-.18,1.13-.27,1.69-.63.02-1.16.03-1.74.05-.15.54-.29,1.06-.44,1.58-.58.07-1.11.13-1.66.2-.12.59-.22,1.11-.34,1.68-.59.04-1.12.07-1.65.1-.14.6-.27,1.12-.41,1.71-1.45-.39-2.03.34-2.08,1.62l-3.29-.25.25-3.34Z"/>
        </g>
      </g>
      <g id="_Radial_Repeat_-3" data-name="&amp;lt;Radial Repeat&amp;gt;">
        <path class="cls-1" d="m46.35,15.06c-.47-.38-.84-.69-1.36-1.11l-2.62,2.57c-.57-.46-.98-.8-1.46-1.18-.93.82-1.81,1.59-2.7,2.37-.51-.39-.9-.68-1.46-1.1l-1.42,1.39c-.59.14-1.16.33-1.7.56-1.07-.72-1.22-.51-2.04.86.05.07.1.14.15.21-.78.56-1.5,1.22-2.17,1.98-.34.39-.66.79-.98,1.2-1.37,1.06-2.58,2.18-3.69,3.5l-.24-.25-4.04,3.97c.36.52.66.97,1.04,1.51l-5.27,5.18c.39.53.7.95.93,1.28-.26,1.58-3.66,2.01-1.22,4.26-.39.47-.72.87-1.05,1.28.37.5.69.93,1.01,1.36l-1.05,1.04-3.71-3.77c.33-.47.64-.91,1.02-1.46l-2.46-2.51c1.22-.97,1.22-1.94.11-2.86.39-.5.71-.91,1.04-1.33-.36-.51-.67-.94-.96-1.35.36-.46.65-.85,1.02-1.33-1.59-1.18-.73-2.05.31-2.92.4-.33.72-.76,1.05-1.13-.42-.53-.72-.91-1.13-1.43l3.9-3.84c-.39-.59-.69-1.03-1-1.51.7-.77,1.37-1.45.23-2.37-1.02-.82-1.73-2.54-3.27-.66-.51-.38-.94-.69-1.38-1.01-.49.36-.92.67-1.32.97-.5-.36-.93-.67-1.48-1.07l-2.55,2.51c-.55-.44-.97-.78-1.41-1.13-.49.34-.93.64-1.45,1-.35-.41-.64-.76-.99-1.18l3.89-3.83c-.42-.59-.73-1.02-1.09-1.52.41-.35.77-.65,1.11-.93.5.4.88.7,1.28,1.01.49-.36.91-.67,1.38-1.01.93.84,1.79,1.64,2.8,2.56l2.56-2.52c.55.42.94.71,1.42,1.07.92-1.26,1.87-1.01,2.74-.02.53-.36.97-.66,1.4-.95.45.36.82.67,1.23,1.01.48-.36.9-.68,1.4-1.06.91,1.35,1.88.97,2.8.06.46.38.84.69,1.35,1.1l2.55-2.51c.56.42.98.74,1.41,1.07.49-.35.93-.65,1.37-.97.47.37.89.69,1.36,1.06.48-.33.91-.64,1.33-.94.51.33.95.62,1.4.93.47-.39.88-.73,1.32-1.09.48.4.89.74,1.34,1.11.47-.31.92-.6,1.37-.9.48.33.92.63,1.38.95.48-.37.9-.69,1.36-1.04.47.36.89.68,1.31,1.01.5-.36.94-.66,1.43-1.01.84,1.25,1.75,1.08,2.64.15l2.31,2.35-2.39,2.35Z"/>
        <g id="WNsNV2-3" data-name="WNsNV2">
          <path class="cls-1" d="m9.08,48.56c.02.6.04,1.09.06,1.76l3.66.28c.03.73.05,1.26.07,1.88,1.23.16,2.39.32,3.56.47.05.64.08,1.13.13,1.82l1.98.15c.49.36,1.01.66,1.54.91.17,1.28.42,1.25,1.99.97.02-.08.04-.17.06-.25.93.22,1.91.33,2.92.33.52,0,1.03-.02,1.55-.05,1.7.34,3.34.5,5.06.48l-.03.35,5.65.43c.16-.62.29-1.14.45-1.78l7.36.55c.14-.64.26-1.15.35-1.54,1.37-.85,3.92,1.44,4-1.89.61-.02,1.13-.03,1.66-.05.13-.61.24-1.13.36-1.65l1.47.11-.4,5.27c-.57.06-1.1.12-1.77.19l-.26,3.5c-1.54-.28-2.26.36-2.23,1.8-.63.04-1.16.07-1.68.09-.14.6-.27,1.12-.38,1.61-.58.04-1.07.07-1.67.11.16,1.98-1.06,1.89-2.41,1.69-.51-.08-1.04-.04-1.54-.05-.12.67-.21,1.15-.33,1.8l-5.46-.41c-.19.69-.33,1.2-.48,1.75-1.04-.02-1.99-.08-1.94,1.38.05,1.31-.77,2.98,1.66,2.89.06.64.1,1.16.15,1.7.59.13,1.11.25,1.6.36.06.62.11,1.14.17,1.82l3.57.27c.03.71.05,1.24.08,1.8.58.15,1.09.27,1.71.43-.08.53-.15.99-.23,1.52l-5.44-.41c-.17.7-.29,1.22-.43,1.82-.53-.08-1-.15-1.43-.22-.03-.64-.06-1.13-.08-1.63-.59-.13-1.11-.25-1.67-.37.03-1.25.05-2.43.08-3.79l-3.58-.27c-.05-.69-.09-1.18-.13-1.77-1.55.14-1.99-.75-1.82-2.05-.62-.16-1.13-.29-1.64-.43-.02-.57-.04-1.06-.06-1.59-.59-.12-1.11-.23-1.72-.35.41-1.57-.51-2.06-1.8-2.15-.02-.6-.04-1.08-.06-1.74l-3.57-.27c-.05-.7-.09-1.23-.13-1.77-.59-.14-1.11-.27-1.63-.4-.03-.59-.07-1.13-.1-1.72-.56-.14-1.08-.26-1.58-.39-.08-.6-.15-1.13-.23-1.67-.61-.1-1.13-.18-1.69-.27-.02-.63-.03-1.16-.05-1.74-.54-.15-1.06-.29-1.58-.44-.07-.58-.13-1.11-.2-1.66-.59-.12-1.11-.22-1.68-.34-.04-.59-.07-1.12-.1-1.65-.6-.14-1.12-.27-1.71-.41.39-1.45-.34-2.03-1.62-2.08l.25-3.29,3.34.25Z"/>
        </g>
      </g>
      <g id="_Radial_Repeat_-4" data-name="&amp;lt;Radial Repeat&amp;gt;">
        <path class="cls-1" d="m67.71,46.35c.38-.47.69-.84,1.11-1.36l-2.57-2.62c.46-.57.8-.98,1.18-1.46-.82-.93-1.59-1.81-2.37-2.7.39-.51.68-.9,1.1-1.46l-1.39-1.42c-.14-.59-.33-1.16-.56-1.7.72-1.07.51-1.22-.86-2.04-.07.05-.14.1-.21.15-.56-.78-1.22-1.5-1.98-2.17-.39-.34-.79-.66-1.2-.98-1.06-1.37-2.18-2.58-3.5-3.69l.25-.24-3.97-4.04c-.52.36-.97.66-1.51,1.04l-5.18-5.27c-.53.39-.95.7-1.28.93-1.58-.26-2.01-3.66-4.26-1.22-.47-.39-.87-.72-1.28-1.05-.5.37-.93.69-1.36,1.01l-1.04-1.05,3.77-3.71c.47.33.91.64,1.46,1.02l2.51-2.46c.97,1.22,1.94,1.22,2.86.11.5.39.91.71,1.33,1.04.51-.36.94-.67,1.35-.96.46.36.85.65,1.33,1.02,1.18-1.59,2.05-.73,2.92.31.33.4.76.72,1.13,1.05.53-.42.91-.72,1.43-1.13l3.84,3.9c.59-.39,1.03-.69,1.51-1,.77.7,1.45,1.37,2.37.23.82-1.02,2.54-1.73.66-3.27.38-.51.69-.94,1.01-1.38-.36-.49-.67-.92-.97-1.32.36-.5.67-.93,1.07-1.48l-2.51-2.55c.44-.55.78-.97,1.13-1.41-.34-.49-.64-.93-1-1.45.41-.35.76-.64,1.18-.99l3.83,3.89c.59-.42,1.02-.73,1.52-1.09.35.41.65.77.93,1.11-.4.5-.7.88-1.01,1.28.36.49.67.91,1.01,1.38-.84.93-1.64,1.79-2.56,2.8l2.52,2.56c-.42.55-.71.94-1.07,1.42,1.26.92,1.01,1.87.02,2.74.36.53.66.97.95,1.4-.36.45-.67.82-1.01,1.23.36.48.68.9,1.06,1.4-1.35.91-.97,1.88-.06,2.8-.38.46-.69.84-1.1,1.35l2.51,2.55c-.42.56-.74.98-1.07,1.41.35.49.65.93.97,1.37-.37.47-.69.89-1.06,1.36.33.48.64.91.94,1.33-.33.51-.62.95-.93,1.4.39.47.73.88,1.09,1.32-.4.48-.74.89-1.11,1.34.31.47.6.92.9,1.37-.33.48-.63.92-.95,1.38.37.48.69.9,1.04,1.36-.36.47-.68.89-1.01,1.31.36.5.66.94,1.01,1.43-1.25.84-1.08,1.75-.15,2.64l-2.35,2.31-2.35-2.39Z"/>
        <g id="WNsNV2-4" data-name="WNsNV2">
          <path class="cls-1" d="m34.21,9.08c-.6.02-1.09.04-1.76.06l-.28,3.66c-.73.03-1.26.05-1.88.07-.16,1.23-.32,2.39-.47,3.56-.64.05-1.13.08-1.82.13l-.15,1.98c-.36.49-.66,1.01-.91,1.54-1.28.17-1.25.42-.97,1.99.08.02.17.04.25.06-.22.93-.33,1.91-.33,2.92,0,.52.02,1.03.05,1.55-.34,1.7-.5,3.34-.48,5.06l-.35-.03-.43,5.65c.62.16,1.14.29,1.78.45l-.55,7.36c.64.14,1.15.26,1.54.35.85,1.37-1.44,3.92,1.89,4,.02.61.03,1.13.05,1.66.61.13,1.13.24,1.65.36l-.11,1.47-5.27-.4c-.06-.57-.12-1.1-.19-1.77l-3.5-.26c.28-1.54-.36-2.26-1.8-2.23-.04-.63-.07-1.16-.09-1.68-.6-.14-1.12-.27-1.61-.38-.04-.58-.07-1.07-.11-1.67-1.98.16-1.89-1.06-1.69-2.41.08-.51.04-1.04.05-1.54-.67-.12-1.15-.21-1.8-.33l.41-5.46c-.69-.19-1.2-.33-1.75-.48.02-1.04.08-1.99-1.38-1.94-1.31.05-2.98-.77-2.89,1.66-.64.06-1.16.1-1.7.15-.13.59-.25,1.11-.36,1.6-.62.06-1.14.11-1.82.17l-.27,3.57c-.71.03-1.24.05-1.8.08-.15.58-.27,1.09-.43,1.71-.53-.08-.99-.15-1.52-.23l.41-5.44c-.7-.17-1.22-.29-1.82-.43.08-.53.15-1,.22-1.43.64-.03,1.13-.06,1.63-.08.13-.59.25-1.11.37-1.67,1.25.03,2.43.05,3.79.08l.27-3.58c.69-.05,1.18-.09,1.77-.13-.14-1.55.75-1.99,2.05-1.82.16-.62.29-1.13.43-1.64.57-.02,1.06-.04,1.59-.06.12-.59.23-1.11.35-1.72,1.57.41,2.06-.51,2.15-1.8.6-.02,1.08-.04,1.74-.06l.27-3.57c.7-.05,1.23-.09,1.77-.13.14-.59.27-1.11.4-1.63.59-.03,1.13-.07,1.72-.1.14-.56.26-1.08.39-1.58.6-.08,1.13-.15,1.67-.23.1-.61.18-1.13.27-1.69.63-.02,1.16-.03,1.74-.05.15-.54.29-1.06.44-1.58.58-.07,1.11-.13,1.66-.2.12-.59.22-1.11.34-1.68.59-.04,1.12-.07,1.65-.1.14-.6.27-1.12.41-1.71,1.45.39,2.03-.34,2.08-1.62l3.29.25-.25,3.34Z"/>
        </g>
      </g>
    </g>
  </g>
</svg>