<?xml version="1.0" encoding="UTF-8"?>
<svg id="Layer_2" data-name="Layer 2" xmlns="http://www.w3.org/2000/svg" viewBox="0 0 395.6 395.6">
  <defs>
    <style>
      .cls-1 {
        fill: #fff;
        stroke-width: 0px;
      }
    </style>
  </defs>
  <g id="Layer_1-2" data-name="Layer 1">
    <g>
      <g id="_Radial_Repeat_" data-name="&amp;lt;Radial Repeat&amp;gt;">
        <g id="_9A4TyH.tif" data-name="9A4TyH.tif">
          <path class="cls-1" d="m263.63,49.41c5.14,5.51,10.6,10.77,15.36,16.59,13.36,16.33,24.64,33.91,30.38,54.5,1.25,4.48,2.18,9.06,3.19,13.6,1.58,7.12,1.62,6.95,8.22,4.09,7.28-3.15,14.64-6.28,22.24-8.47,9.97-2.86,20.23-1.07,30.36-.23,4.89.4,9.75,1.11,14.71,2.29-2.28,1.41-4.62,2.73-6.82,4.25-8.21,5.67-16.37,11.41-24.54,17.14-.71.5-1.43,1.06-1.94,1.74-.54.71-.83,1.6-1.23,2.41.83.37,1.66,1.07,2.48,1.05,2.32-.08,4.64-.38,6.93-.73,3.42-.52,6.82-1.16,10.81-1.86-13.92,12.65-27.72,24.63-39.2,40.05,4.89.85,9.11,1.58,13.7,2.38-2.59,1.45-5.02,2.71-7.35,4.14-3.14,1.92-6.31,3.82-9.29,5.98-5.08,3.7-5.14,5.92-.4,10.19-.73.6-1.4,1.22-2.14,1.75-5.6,4.01-11.05,8.25-16.87,11.91-3.3,2.08-7.06,3.81-10.84,4.66-8.12,1.82-15.26-2.27-17.97-10.14-1.63-4.72-2.45-9.72-3.62-14.52-14.9,8.21-38.12,13.75-47.34,11.44,2.72-2.32,6.03-4.48,8.47-7.37,6.59-7.83,3.24-17.88-6.81-19.74-7.97-1.48-16.13-1.95-24.23-2.59-5.36-.43-9.97-2.27-13.88-5.91-4.99-4.65-5.97-10.86-2.77-17.3,2.97-5.98,8.07-8.4,15.01-7.14,4.66.85,8.59,2.83,11.48,6.76,1.89,2.57,3.87,5.11,6.04,7.45,4.53,4.89,9.22,4.31,12.37-1.5,1.8-3.32,3.39-6.77,5.04-10.17,9.22-19.05,18.39-38.12,27.67-57.14,1.08-2.22,1.33-4.25.81-6.67-3.74-17.46-7.35-34.94-10.99-52.42-.13-.65-.11-1.32-.17-1.99,1.05.51,2.1,1.01,3.15,1.52Zm22.68,134.83c-3.87-2.02-8.36-.8-10.29,2.78-2.03,3.77-.57,8.29,3.33,10.35,3.87,2.05,8.57.67,10.48-3.07,1.86-3.65.32-8.06-3.52-10.06Z"/>
        </g>
      </g>
      <g id="_Radial_Repeat_-2" data-name="&amp;lt;Radial Repeat&amp;gt;">
        <g id="_9A4TyH.tif-2" data-name="9A4TyH.tif">
          <path class="cls-1" d="m293.4,329c-7.35,1.69-14.63,3.79-22.05,5-20.82,3.4-41.68,4.38-62.39-.94-4.51-1.16-8.93-2.64-13.37-4.04-6.95-2.19-6.83-2.07-7.65,5.07-.91,7.88-1.88,15.82-3.79,23.49-2.51,10.07-9.19,18.06-14.98,26.41-2.79,4.03-5.83,7.89-9.34,11.6-.08-2.68-.05-5.36-.27-8.03-.81-9.94-1.69-19.88-2.57-29.82-.08-.86-.2-1.77-.53-2.55-.35-.82-.97-1.52-1.48-2.27-.73.53-1.76.9-2.15,1.62-1.09,2.05-1.99,4.2-2.84,6.37-1.26,3.22-2.4,6.49-3.8,10.29-4-18.38-7.47-36.32-15.09-53.97-3.18,3.81-5.93,7.1-8.91,10.67.04-2.96.16-5.7.09-8.43-.09-3.68-.15-7.38-.54-11.03-.66-6.25-2.56-7.41-8.62-5.44-.16-.93-.36-1.83-.45-2.73-.68-6.85-1.62-13.69-1.88-20.56-.15-3.89.23-8.01,1.39-11.71,2.48-7.94,9.59-12.08,17.77-10.49,4.9.95,9.64,2.73,14.38,4.12.34-17,7.15-39.89,13.76-46.71.65,3.51.86,7.46,2.15,11.02,3.49,9.62,13.86,11.74,20.5,3.97,5.26-6.16,9.75-13,14.36-19.69,3.05-4.43,6.95-7.5,12.06-9.07,6.53-1.99,12.39.26,16.37,6.25,3.69,5.57,3.23,11.19-1.33,16.57-3.06,3.61-6.75,6.03-11.59,6.56-3.18.35-6.36.8-9.47,1.5-6.5,1.48-8.34,5.83-4.88,11.46,1.98,3.22,4.17,6.32,6.29,9.45,11.89,17.51,23.82,34.99,35.65,52.53,1.38,2.05,3.02,3.28,5.37,4.04,16.99,5.49,33.94,11.1,50.9,16.69.63.21,1.2.56,1.8.85-.96.66-1.92,1.31-2.89,1.97Zm-128.1-47.78c3.68-2.34,4.87-6.84,2.74-10.3-2.25-3.64-6.89-4.64-10.63-2.29-3.7,2.33-4.86,7.09-2.58,10.61,2.23,3.44,6.82,4.31,10.47,1.99Z"/>
        </g>
      </g>
      <g id="_Radial_Repeat_-3" data-name="&amp;lt;Radial Repeat&amp;gt;">
        <g id="_9A4TyH.tif-3" data-name="9A4TyH.tif">
          <path class="cls-1" d="m36.38,214.99c2.21-7.21,4.03-14.56,6.69-21.6,7.47-19.73,17.05-38.29,32.01-53.56,3.26-3.32,6.75-6.41,10.19-9.56,5.38-4.92,5.21-4.88-.57-9.17-6.37-4.73-12.76-9.54-18.45-15.03-7.47-7.2-11.04-16.99-15.38-26.18-2.09-4.43-3.92-9-5.38-13.89,2.36,1.27,4.67,2.64,7.09,3.78,9.02,4.27,18.06,8.48,27.11,12.68.79.37,1.63.71,2.48.81.88.11,1.8-.08,2.7-.15-.09-.9.1-1.98-.33-2.67-1.23-1.97-2.64-3.83-4.1-5.64-2.16-2.7-4.42-5.32-7.01-8.44,17.92,5.73,35.19,11.69,54.29,13.92-1.71-4.66-3.19-8.68-4.79-13.05,2.55,1.52,4.86,2.99,7.26,4.29,3.23,1.76,6.47,3.56,9.83,5.05,5.74,2.55,7.7,1.49,9.02-4.75.88.33,1.76.6,2.59.98,6.27,2.84,12.67,5.45,18.75,8.65,3.45,1.82,6.82,4.21,9.45,7.06,5.64,6.12,5.67,14.35.2,20.64-3.28,3.77-7.19,6.99-10.76,10.39,14.55,8.8,30.97,26.14,33.57,35.28-3.37-1.19-6.89-2.99-10.62-3.65-10.08-1.79-17.1,6.13-13.69,15.77,2.7,7.64,6.38,14.95,9.87,22.28,2.31,4.86,3.02,9.77,1.82,14.98-1.54,6.65-6.42,10.6-13.59,11.05-6.67.41-11.31-2.79-13.69-9.43-1.6-4.46-1.84-8.86.11-13.32,1.28-2.93,2.49-5.91,3.43-8.95,1.97-6.37-.88-10.14-7.49-9.96-3.78.1-7.56.45-11.33.72-21.11,1.54-42.21,3.13-63.32,4.61-2.47.17-4.35.98-6.18,2.63-13.25,11.97-26.59,23.84-39.9,35.73-.49.44-1.09.76-1.64,1.14-.09-1.16-.17-2.32-.26-3.49Zm105.43-87.05c.19,4.36,3.48,7.64,7.55,7.52,4.27-.13,7.46-3.65,7.3-8.06-.16-4.37-3.71-7.75-7.9-7.54-4.1.21-7.14,3.75-6.96,8.08Z"/>
        </g>
      </g>
    </g>
  </g>
</svg>