<?xml version="1.0" encoding="UTF-8"?>
<svg id="Layer_2" data-name="Layer 2" xmlns="http://www.w3.org/2000/svg" viewBox="0 0 55.16 131.22">
  <defs>
    <style>
      .cls-1 {
        fill: #fff;
        stroke-width: 0px;
      }
    </style>
  </defs>
  <g id="Layer_1-2" data-name="Layer 1">
    <path class="cls-1" d="m1.58,125.16c-.31-.18-.61-.37-.89-.53-.17-.6-.37-1.17-.48-1.77-.12-.66-.26-1.35-.2-2.02.23-2.83.37-5.66.76-8.49.29-2.05.81-4.17.26-6.29-.05-.2.05-.43.07-.65.06-.71.21-1.42.17-2.12-.11-1.7-.07-3.37.4-5.04.2-.71.1-1.5.14-2.25.1-1.71.14-3.43.32-5.14.22-2.07.39-4.11.09-6.2-.12-.84.26-1.75.4-2.63.19-1.16.51-2.31.52-3.47.03-2.3-.15-4.6-.18-6.9-.02-1.22.11-2.44.12-3.66.02-2.44,0-4.88,0-7.32,0-2.98.04-5.95.02-8.93-.03-3.83-.11-7.66-.16-11.49,0-.41,0-.82.06-1.21.09-.54.25-1.07.89-1.23.09-.02.17-.07.24-.12,1.27-.98,2.04-.78.93-3.11-.91-1.92-1.07-4.02-.72-6.21.29-1.83,1.11-3.34,2.05-4.8,1.05-1.62,2.68-2.61,4.46-3.37,1.55-.67,3.15-1.07,4.79-1.4.31-.06.69-.26.86-.51.88-1.25,1.71-2.54,2.56-3.81.02-.04.06-.08.07-.12.15-1.53,1.4-2.45,2.09-3.67.68-1.21,1.54-2.32,2.29-3.5.41-.64.83-1.29,1.11-1.99.13-.34-.06-.81-.08-1.01.78-.86,1.56-1.59,2.19-2.43.56-.74,1.05-1.46,2.1-1.44.09,0,.18-.04.26-.06,2.16-.63,3.29-.15,4.44,1.84.38.66.82,1.29,1.18,1.86-.06.62-.12,1.21-.19,1.79-.01.13,0,.29-.06.39-.63.97-1.27,1.93-1.93,2.88-.46.66-1.03,1.25-1.43,1.94-.8,1.39-1.44,2.87-2.3,4.22-.85,1.34-1.91,2.55-2.84,3.85-.76,1.06-1.46,2.17-2.17,3.27-.29.45-.14.94.25,1.22,1.6,1.16,2.22,2.78,2.41,4.66.02.21.17.4.27.62,1.23-.09,1.68-1.03,2.28-1.84,1.13-1.52,2.29-3.01,3.48-4.48,1.29-1.61,2.62-3.19,3.95-4.77.84-.99,1.76-1.91,2.58-2.93.73-.91,1.35-1.91,2.04-2.85.28-.39.68-.7.93-1.1.91-1.46,2.44-2.43,3.31-3.83,1.09-1.76,2.5-3.02,4.28-3.88.88-.43,1.97-.42,2.84.18.69.48,1.33,1.07,1.91,1.69.49.52.9,1.14.68,1.95-.05.2,0,.46.07.66.21.62.03,1.08-.32,1.63-.57.88-1.24,1.63-2,2.35-.71.67-1.15,1.62-1.87,2.28-1.67,1.54-2.74,3.53-4.17,5.25-.85,1.03-1.82,1.97-2.61,3.04-1.25,1.7-2.9,3.03-4.17,4.71-.32.43-.7.9-.79,1.4-.16.96-.9,1.54-1.36,2.28-.27.44-.86.76-1.24,1.24-.25.3-.43.57-.62.92-.23.43-.76.72-1.2,1-1.28.83-1.28.82-1.34,1.94-.88,1.02-1.63,1.9-2.38,2.77-.09.1-.21.18-.3.27-.34.34-.89.65-.96,1.04-.12.73-.09,1.55.11,2.26.25.9.53,1.68-.14,2.54-.26.33-.39.86-.08,1.4.19.33,0,.84.07,1.26.1.63-.56,1.43.44,1.91.11.05.04.83-.16,1.13-.93,1.32-.56,2.8-.59,4.21-.03,1.2.04,2.4.17,3.6.19,1.85-.09,3.66-.18,5.49-.13,2.43-.13,4.87-.19,7.3,0,.05-.02.1,0,.13.77,2.05-.11,4.24.5,6.3-.63,1.26.25,2.66-.39,3.96-.19.38.12,1,.23,1.69-.76.77-.68,1.75-.03,2.76.09.15.24.39.19.48-.39.71.28,1.05.42,1.54-.37,2.52-.92,5.05.25,7.67-.46.67-.64,1.5-.21,2.41.12.25-.05.63.02.92.08.33.28.63.51,1.13-.36.5-.57,1.23.43,1.86-1.06.75-.49,1.69-.34,2.41.2.95.42,1.78.01,2.75-.18.43.12,1.05.16,1.59.11,1.8.19,3.6.3,5.4.07,1.19.16,2.37.57,3.52.15.43.04.98-.03,1.46-.19,1.22-.42,2.44-.66,3.78-1.44-.73-2.54-.48-3.35.75-1.17-1.15-1.2-1.16-2.05-.68.37.16.66.28,1.03.43-.54.58-1.21.4-1.78.51,0,0,.03,0,.03,0,.2-.49-.18-.51-.48-.6-1.19-.37-1.42-.73-1.41-1.91,0-.81-.09-1.62-.16-2.43-.09-.99-.12-1.99-.3-2.96-.37-1.95-.21-3.93-.42-5.89-.13-1.21-.13-2.44-.25-3.65-.1-1.08-.32-2.14-.31-3.24.01-1.07-.36-2.13-.42-3.21-.09-1.48-.04-2.96-.05-4.44,0-.27.02-.54,0-.81-.26-2.92-.55-5.84-.78-8.77-.04-.55.1-1.11.17-1.8-.18-.36-.43-.87-.75-1.52-1.09.1-2.31.02-3.37.38-.88.3-1.59.14-2.33-.12-.78-.28-1.5-.21-2.24.09-.62.26-.81.66-.82,1.37-.03,1.8-.2,3.6-.33,5.41-.02.31-.17.64-.12.93.35,1.75.02,3.5.04,5.24,0,1.03-.33,2.05-.38,3.08-.06,1.25-.31,2.48-.36,3.71-.09,2.32-.03,4.65-.11,6.97-.04,1.3-.28,2.6-.38,3.9-.15,1.83-.33,3.66-.36,5.5-.03,1.81-.42,3.52-.98,5.16-.5.22-1.17-.27-1.32.52.21.34.6.69.6,1.05,0,.4-.35.79-.67,1.42.43-.26.68-.4,1.14-.68-.12.62-.2,1.02-.28,1.43h-.87c-.23,1.07-.47,2.16-.75,3.45-.28-.58-.5-1.04-.74-1.53-.2.02-.42.04-.65.06l.04.04c.04-.63.07-1.26.11-1.88.23.3.46.6.76.98.21-.31.39-.47.43-.66.05-.23.05-.65-.04-.69-.24-.09-.55-.05-.8.03-.14.04-.23.25-.34.38-.17.05-.35.1-.52.15-.1-.03-.2-.06-.3-.09-.54.56-1.04.24-1.85-.09.53-.17.78-.26,1.12-.37.04-.24.08-.54.14-.9-.55-.06-1.02-.11-1.5-.16l.02.04c.04-.67.53-.73,1.05-.8.69-.09,1.45.04,1.92-.72.07-.12.5-.02.76-.02.05.1.09.19.14.29-.16.09-.34.16-.47.27-.1.09-.16.23-.33.5q1.05-.51.96-1.79c-.94-.16-1.88-.32-2.79-.48-.54.11-1.09.22-1.65.34.04.34.08.67.11,1.01l.04.04Zm20.65-34.75c-.17.14-.35.24-.34.27.05.13.14.27.25.35.03.02.27-.11.27-.17,0-.13-.1-.26-.18-.45Z"/>
  </g>
</svg>