<?xml version="1.0" encoding="UTF-8"?>
<svg id="Layer_2" data-name="Layer 2" xmlns="http://www.w3.org/2000/svg" viewBox="0 0 88.58 88.58">
  <defs>
    <style>
      .cls-1 {
        fill: #fff;
        stroke-width: 0px;
      }
    </style>
  </defs>
  <g id="Layer_1-2" data-name="Layer 1">
    <g>
      <g id="_Radial_Repeat_" data-name="&amp;lt;Radial Repeat&amp;gt;">
        <rect class="cls-1" x="28.1" y="7.64" width="4.23" height="4.23" transform="translate(36.87 -21.29) rotate(84.21)"/>
        <g id="WNsNV2">
          <path class="cls-1" d="m6.84,59.88c-.08-1.02-.15-1.84-.24-2.98l4.49-.73c-.1-1.24-.17-2.14-.26-3.18,1.5-.36,2.91-.71,4.34-1.06-.06-1.08-.1-1.91-.16-3.09l2.43-.4c.55-.64,1.13-1.18,1.75-1.65-.02-2.17.29-2.14,2.3-1.78.04.14.08.28.11.42,1.12-.44,2.31-.69,3.57-.77.64-.04,1.29-.04,1.93-.03,2.05-.69,4.06-1.09,6.2-1.17l-.1-.59,6.94-1.13c.31,1.03.56,1.9.89,2.98l9.04-1.47c.3,1.07.53,1.93.71,2.58,1.85,1.33,4.61-2.71,5.31,2.9.76-.01,1.41-.02,2.07-.04.28,1.03.51,1.89.74,2.77l1.81-.29-1.44-8.89c-.72-.06-1.39-.12-2.23-.2l-.96-5.91c-1.86.58-2.87-.45-3.09-2.88-.79-.01-1.45-.03-2.1-.04-.29-1.01-.53-1.87-.77-2.69-.73-.02-1.34-.04-2.1-.07-.16-3.36-1.66-3.13-3.29-2.68-.62.17-1.29.14-1.91.19-.27-1.12-.47-1.93-.73-3.02l-6.7,1.09c-.36-1.15-.62-2-.91-2.92-1.28.11-2.46.27-2.65-2.2-.17-2.22-1.49-4.98,1.53-5.01-.05-1.08-.08-1.98-.12-2.89.71-.27,1.33-.5,1.92-.72-.04-1.05-.07-1.94-.12-3.1l4.39-.71c-.09-1.2-.16-2.1-.23-3.06.69-.29,1.31-.54,2.04-.85-.19-.89-.36-1.66-.56-2.56l-6.68,1.08c-.33-1.17-.58-2.04-.86-3.05-.65.18-1.21.33-1.73.48.08,1.09.13,1.91.19,2.76-.71.27-1.33.5-2,.75.26,2.12.5,4.1.78,6.41l-4.39.71c.06,1.17.11,2,.16,3.01-1.95-.12-2.34,1.41-1.89,3.61-.74.32-1.35.58-1.96.84.08.97.15,1.79.22,2.7-.71.25-1.33.46-2.07.72.8,2.64-.26,3.52-1.84,3.76.08,1.01.15,1.84.24,2.95l-4.38.71c.06,1.18.11,2.08.16,3-.7.28-1.32.54-1.95.79.06,1.01.12,1.91.19,2.92-.68.27-1.29.52-1.89.77,0,1.02.01,1.92.02,2.84-.74.21-1.37.39-2.05.58.09,1.06.17,1.97.26,2.95-.65.3-1.26.57-1.88.86.02.99.04,1.88.06,2.82-.71.24-1.34.46-2.02.69.06,1,.12,1.9.17,2.8-.72.29-1.34.54-2.04.82.74,2.42-.06,3.45-1.64,3.64l.9,5.55,4.11-.67Z"/>
        </g>
      </g>
      <g id="_Radial_Repeat_-2" data-name="&amp;lt;Radial Repeat&amp;gt;">
        <rect class="cls-1" x="79.12" y="47.25" width="4.23" height="4.23" transform="translate(135.09 127.71) rotate(-155.79)"/>
        <g id="WNsNV2-2" data-name="WNsNV2">
          <path class="cls-1" d="m49.51,4.06c.92.44,1.67.79,2.7,1.28l-1.61,4.26c1.12.53,1.94.92,2.88,1.37-.43,1.48-.84,2.87-1.25,4.28.97.49,1.7.87,2.76,1.4l-.87,2.31c.28.79.46,1.57.56,2.34,1.89,1.06,1.71,1.33.39,2.88-.14-.04-.28-.07-.42-.11-.18,1.19-.55,2.35-1.12,3.47-.29.57-.61,1.13-.94,1.69-.43,2.12-1.09,4.06-2.09,5.95l.56.21-2.49,6.57c-1.05-.25-1.93-.46-3.02-.72l-3.25,8.56c-1.08-.28-1.94-.51-2.59-.68-2.08.93.04,5.35-5.17,3.15-.37.66-.69,1.24-1,1.81-1.03-.28-1.89-.51-2.77-.74l-.65,1.71,8.42,3.2c.42-.6.8-1.14,1.28-1.83l5.6,2.12c.43-1.9,1.82-2.26,4.04-1.23.41-.68.75-1.24,1.09-1.8,1.02.26,1.89.47,2.72.68.39-.62.71-1.14,1.11-1.78,2.99,1.54,3.54.13,3.97-1.51.16-.62.53-1.19.78-1.75,1.11.33,1.9.56,2.98.87l2.41-6.35c1.17.27,2.05.46,2.99.68.55-1.17.99-2.27,3.23-1.2,2.01.96,5.06,1.2,3.58,3.83.96.5,1.75.91,2.56,1.34-.12.75-.23,1.4-.33,2.02.93.49,1.72.91,2.74,1.45l-1.58,4.15c1.08.52,1.9.91,2.76,1.33-.1.75-.18,1.4-.29,2.19.87.28,1.62.52,2.5.79l2.4-6.33c1.18.3,2.05.52,3.07.78.17-.65.32-1.21.45-1.74-.98-.48-1.72-.84-2.49-1.21.12-.75.23-1.4.35-2.11-1.96-.84-3.8-1.62-5.94-2.53l1.58-4.16c-1.05-.53-1.78-.91-2.68-1.37,1.08-1.63-.05-2.73-2.18-3.44.1-.8.18-1.46.25-2.12-.88-.42-1.63-.77-2.45-1.16.14-.74.26-1.39.41-2.15-2.68-.63-2.91-1.99-2.34-3.48-.92-.43-1.67-.79-2.68-1.27l1.57-4.15c-1.06-.54-1.86-.94-2.68-1.36.11-.75.2-1.41.29-2.09-.91-.45-1.72-.85-2.62-1.3.1-.72.19-1.38.28-2.02-.89-.51-1.66-.95-2.47-1.4.19-.74.35-1.38.52-2.06-.97-.45-1.79-.84-2.69-1.25.07-.71.13-1.38.2-2.06-.87-.48-1.65-.91-2.47-1.36.15-.74.27-1.39.41-2.1-.9-.45-1.7-.85-2.51-1.25.11-.77.21-1.43.31-2.18-2.47-.57-2.96-1.78-2.34-3.24l-5.25-1.99-1.48,3.89Z"/>
        </g>
      </g>
      <g id="_Radial_Repeat_-3" data-name="&amp;lt;Radial Repeat&amp;gt;">
        <rect class="cls-1" x="19.3" y="71.63" width="4.23" height="4.23" transform="translate(-39.09 26.46) rotate(-35.79)"/>
        <g id="WNsNV2-3" data-name="WNsNV2">
          <path class="cls-1" d="m76.52,68.93c-.84.58-1.52,1.05-2.46,1.7l-2.88-3.53c-1.02.71-1.77,1.22-2.63,1.81-1.06-1.11-2.06-2.16-3.08-3.23-.91.59-1.6,1.04-2.59,1.69l-1.56-1.91c-.83-.15-1.59-.39-2.31-.69-1.87,1.11-2,.82-2.69-1.1.1-.1.2-.21.3-.31-.94-.75-1.76-1.65-2.45-2.71-.35-.54-.68-1.1-.99-1.66-1.62-1.43-2.97-2.97-4.11-4.78l-.46.38-4.44-5.45c.74-.78,1.36-1.44,2.14-2.26l-5.79-7.1c.78-.79,1.41-1.43,1.88-1.91.23-2.27-4.65-2.64-.14-6.05-.39-.65-.73-1.21-1.06-1.77.75-.75,1.39-1.39,2.03-2.03l-1.16-1.42-6.98,5.7c.31.66.59,1.26.95,2.03l-4.64,3.79c1.43,1.32,1.05,2.71-.95,4.12.38.69.7,1.27,1.02,1.84-.73.76-1.35,1.4-1.95,2.01.35.65.63,1.18.99,1.85-2.83,1.82-1.88,3-.68,4.19.46.45.76,1.05,1.12,1.55-.84.8-1.43,1.37-2.25,2.14l4.29,5.26c-.82.88-1.42,1.54-2.08,2.25.74,1.06,1.47,2-.58,3.4-1.83,1.26-3.57,3.78-5.11,1.18-.91.58-1.67,1.06-2.44,1.55-.59-.48-1.1-.9-1.59-1.3-.89.56-1.65,1.03-2.63,1.65l-2.81-3.44c-.99.68-1.74,1.19-2.53,1.73-.6-.46-1.12-.86-1.75-1.34-.67.61-1.26,1.15-1.94,1.77l4.28,5.24c-.85.87-1.48,1.52-2.21,2.27.48.47.89.88,1.28,1.26.9-.61,1.59-1.07,2.29-1.55.59.48,1.09.9,1.65,1.36,1.71-1.28,3.3-2.48,5.16-3.88l2.82,3.45c.98-.64,1.68-1.09,2.53-1.64.87,1.75,2.39,1.32,4.07-.17.65.49,1.18.88,1.71,1.28.8-.55,1.48-1.02,2.23-1.54.57.49,1.07.92,1.66,1.43,1.88-2.01,3.18-1.53,4.18-.29.84-.58,1.52-1.05,2.44-1.69l2.81,3.44c.99-.65,1.75-1.14,2.51-1.64.6.47,1.13.88,1.66,1.3.84-.56,1.6-1.06,2.44-1.62.58.45,1.1.86,1.61,1.26.88-.52,1.65-.97,2.45-1.43.55.53,1.02.99,1.53,1.48.87-.61,1.62-1.13,2.43-1.7.58.41,1.13.8,1.68,1.2.85-.51,1.61-.98,2.41-1.46.57.49,1.06.93,1.61,1.41.84-.55,1.59-1.05,2.34-1.55.61.48,1.13.89,1.73,1.36,1.73-1.86,3.02-1.67,3.98-.4l4.35-3.55-2.63-3.22Z"/>
        </g>
      </g>
    </g>
  </g>
</svg>