<?xml version="1.0" encoding="UTF-8"?>
<svg id="Layer_2" data-name="Layer 2" xmlns="http://www.w3.org/2000/svg" viewBox="0 0 82.81 88.46">
  <defs>
    <style>
      .cls-1 {
        fill: #fff;
        stroke-width: 0px;
      }
    </style>
  </defs>
  <g id="Layer_1-2" data-name="Layer 1">
    <g>
      <path class="cls-1" d="m67.77,9.57c.21.12.41.2.57.33.55.48,1.13.94,1.62,1.47.21.22.52.32.66.66.1.25.48.37.65.62.51.73,1.21,1.3,1.76,1.99.28.35.52.73.79,1.09.16.22.36.41.53.62.15.19.26.44.44.59.36.3.45.77.78,1.09.14.13.19.35.3.52.11.17.23.33.36.48.15.18.32.35.29.62-.02.19.17.04.2.12.13.36.51.62.44.99.18.24.33.42.45.62.15.23.28.47.4.72.1.21.16.43.25.64.03.06.08.12.12.17.36.43.46,1,.74,1.46.22.37.33.79.47,1.18.14.37.42.71.42,1.13,0,.06.03.14.08.19.34.37.45.83.58,1.3.18.66.41,1.3.56,1.97.13.59.35,1.15.51,1.74.16.6.19,1.23.34,1.82.18.71.19,1.43.32,2.14.03.14-.07.29.09.41.07.05.08.23.05.33-.1.41,0,.8.09,1.18.08.35.14.68.11,1.04-.03.4-.02.81-.01,1.22,0,.6.03,1.2.05,1.79,0,.13,0,.26,0,.4,0,.23,0,.46,0,.7,0,.09.04.19,0,.26-.14.33-.04.66-.03.99,0,.15-.01.33-.09.46-.13.22-.16.43-.15.68.03.44-.02.88-.14,1.31-.06.2.03.45-.02.66-.15.6-.15,1.23-.37,1.83-.09.25-.11.56-.12.86-.01.38-.16.77-.27,1.14-.03.11-.12.21-.18.32-.03.06-.04.13-.05.19-.1.51-.2,1.02-.31,1.53,0,.01,0,.03,0,.04-.22.28-.3.62-.38.96-.05.19-.1.38-.17.57-.23.64-.44,1.29-.7,1.92-.05.12-.29.18-.23.36.07.22-.15.29-.18.45-.04.17-.1.33-.17.49-.07.18-.15.35-.22.52-.07.16-.12.33-.2.48-.24.44-.5.88-.75,1.31-.04.07-.08.15-.11.23-.13.35-.31.68-.55.97-.11.14-.16.32-.26.47-.38.58-.68,1.2-1.08,1.77-.27.38-.71.68-.76,1.21,0,.05-.11.09-.15.14-.12.16-.22.34-.33.5-.08.12-.17.23-.26.34-.21.25-.42.5-.63.75-.19.23-.46.41-.54.72-.29.06-.25.38-.43.52-.21.16-.32.4-.5.56-.37.33-.56.83-1.05,1.04-.12.05-.17.29-.3.34-.31.13-.36.48-.62.65-.24.16-.43.37-.61.59-.19.24-.46.41-.7.61-.03.03-.1.04-.11.06-.12.45-.56.54-.87.76-.19.14-.32.36-.52.49-.33.21-.56.59-.99.65-.03,0-.08.05-.08.09-.05.23-.24.3-.41.42-.33.22-.62.5-.94.74-.26.19-.54.36-.82.52-.34.21-.68.41-1.03.61-.09.05-.22.03-.3.09-.09.07-.12.22-.21.27-.24.14-.49.25-.74.37-.12.06-.24.15-.36.22-.15.09-.29.19-.45.27-.46.23-.93.46-1.39.69-.31.15-.6.35-.99.31-.02.26-.2.33-.43.4-.43.12-.85.24-1.24.52-.29.21-.69.27-1.05.4-.53.18-1.06.39-1.6.54-.37.1-.74.25-1.11.32-.26.05-.47.17-.71.23-.11.03-.24,0-.35.03-.13.03-.25.12-.39.14-.29.03-.54.12-.8.25-.12.06-.31.18-.46,0-.22.21-.51.08-.76.18-.71.27-1.47.41-2.22.44-.55.02-1.06.14-1.6.21-.14.02-.29-.02-.43-.02-.15,0-.35-.16-.45.11,0,.02-.05.03-.08.03-.44,0-.87,0-1.31,0-.23,0-.47.07-.7.04-.55-.07-1.07-.05-1.6.12-.1.03-.24.02-.35-.02-.48-.14-.97-.19-1.47-.11-.16.02-.33.02-.48-.03-.21-.06-.39-.07-.6,0-.09.03-.24.05-.3,0-.29-.24-.64-.1-.96-.2-.12-.04-.29-.08-.38-.03-.29.18-.55.02-.78-.07-.22-.08-.43-.11-.66-.12-.18,0-.37-.07-.55-.1-.03,0-.05-.03-.08-.03-.19,0-.45.08-.55-.02-.15-.15-.31-.1-.46-.15-.42-.14-.87-.07-1.29-.22-.44-.15-.91-.21-1.37-.31-.32-.07-.64-.16-.96-.24-.19.29-.28.5-.2.84.12.5.3,1.01.17,1.55,0,.01,0,.04,0,.04.36.38.19.87.29,1.31.09.39.18.79.26,1.19.05.26.06.53.23.75-.07.08-.13.14-.17.19.34.3.28.7.28,1.08,0,.04,0,.09.02.13.06.13.15.24.18.38.03.14-.01.29-.02.43-.24.17-.42,0-.6-.11-.34-.21-.69-.41-1.05-.59-.49-.26-.92-.66-1.44-.84-.36-.13-.59-.4-.91-.56-.24-.12-.53-.19-.73-.43-.19-.22-.47-.37-.71-.55-.17-.12-.36-.23-.52-.35-.21-.15-.4-.32-.6-.48-.31-.25-.68-.44-.99-.69-.37-.3-.84-.47-1.11-.9-.03-.05-.13-.05-.18-.09-.12-.09-.25-.17-.36-.28-.12-.13-.22-.28-.32-.42-.35.14-.41-.24-.62-.35-.22-.11-.38-.35-.57-.52-.09-.08-.21-.14-.31-.21-.43-.32-.83-.69-1.18-1.09-.29-.32-.65-.58-.92-.9-.22-.26-.61-.36-.7-.74-.45-.15-.67-.54-.91-.91-.15-.24-.33-.49-.65-.56-.05-.01-.08-.08-.11-.13-.13-.17-.23-.42-.41-.5-.31-.15-.4-.44-.59-.66-.35-.4-.7-.8-1.04-1.2-.06-.07-.05-.19-.1-.26-.06-.09-.17-.14-.22-.23-.15-.28-.38-.49-.62-.7-.13-.11-.21-.27-.32-.4-.26-.31-.52-.61-.78-.91,0-.01-.02-.02-.03-.03-.14-.51-.58-.83-.79-1.3-.15-.32-.4-.59-.6-.88-.23-.34-.47-.69-.69-1.04-.36-.59-.72-1.19-1.07-1.79-.19-.32-.34-.67-.56-.97-.19-.26-.33-.54-.48-.81-.27-.48-.5-.98-.75-1.47-.16-.3-.34-.59-.5-.89-.23-.44-.46-.87-.67-1.32-.15-.31-.28-.63-.39-.96-.05-.15-.06-.31-.09-.49-.05.02-.1.03-.11.03-.37-.85-.82-1.68-1.1-2.56-.28-.89-.8-1.68-.94-2.62-.47-.82-.61-1.76-.91-2.64-.31-.89-.5-1.83-.73-2.75-.23-.91-.47-1.82-.7-2.73.08-.05.14-.08.27-.15-.14-.04-.2-.05-.32-.08.02-.19.04-.38.06-.6q-.27-.23,0-.49c0,.1,0,.18.01.27.25.11.46.26.59.53.09.19.29.31.42.48.11.14.18.31.27.48,0,0,.03-.03.11-.09.08.23.41.3.33.63,0,.02.08.06.12.1.09.09.17.18.26.26.09.09.17.18.27.25.09.07.03.3.25.24.05-.01.17.09.18.15.05.29.28.41.46.59.38.38.73.8,1.08,1.21.18.22.33.47.52.67.18.18.42.3.6.49.15.15.28.34.34.54.07.21.27.2.4.3.62.49,1.19,1.02,1.68,1.65.1.13.26.23.39.35.56.52,1.08,1.1,1.69,1.56.28.21.47.51.81.68.18.09.32.34.52.48.03.02.03.09.06.11q.4.26.48.59c.06-.07.11-.11.13-.14.41.29.81.58,1.21.87.05.04.08.12.13.17.19.22.35.54.59.62.26.08.45.22.66.36.22.15.48.27.65.47.36.45.87.68,1.33.96.54.33.95.83,1.53,1.08.06.3.37.19.54.33.16.14.3.36.56.34.34.38.89.47,1.24.84.05.06.15.08.23.11.07.03.16.02.21.07.33.27.74.41,1.09.63.4.25.82.49,1.24.71.2.11.44.14.64.24.48.23.99.44,1.43.74.5.33,1.09.45,1.61.74.25.14.52.23.78.36.35.17.73.27,1.09.42.1.04.17.16.26.19.1.03.23-.02.33,0,.22.06.43.17.65.22.25.06.51.03.65.31.01.02.09.04.12.03.26-.16.41.03.61.15.17.1.39.1.58.18.42.17.9.21,1.31.36.42.14.92.09,1.28.41.03.03.15-.06.22-.05.22.02.43.07.64.1.21.03.44.02.64.07.39.1.77.22,1.18.34,0,.1.03.21-.02.26-.2.2-.41.39-.64.56-.24.18-.5.34-.75.51-.13.09-.27.16-.41.24-.05.03-.13.03-.15.07-.21.34-.6.47-.87.72-.31.28-.68.5-.96.83-.14.16-.38.23-.65.38-.03.13-.18.25-.38.38-.3.2-.54.5-.78.79-.19.22-.08.47.03.69.42.14.82.35,1.24.37.3.02.57.12.86.17.8.13,1.59.31,2.39.4.28.03.55.27.85.08.26.18.57.02.83.1.46.16.93-.1,1.34.04.35.11.64-.03.96,0,.32.02.65-.01.95.07.41.12.82-.11,1.21.06.39-.27.85.05,1.25-.13.02-.01.06,0,.09,0,.62.17,1.2-.1,1.81-.12.12,0,.25-.13.37.02.02.02.09.02.12,0,.49-.28,1.06-.17,1.57-.34.18-.06.37-.11.55-.1.12,0,.21.11.36-.04.09-.09.4.03.46-.06.13-.19.29-.04.42-.11.15-.07.32-.09.48-.14.15-.05.3-.11.45-.14.09-.02.19-.01.29-.02.06,0,.16,0,.18-.04.06-.12.15-.1.26-.1.28,0,.52-.17.77-.26.2-.07.38-.28.63-.11.02.01.07-.03.11-.05.23-.12.45-.29.7-.34.68-.14,1.26-.5,1.88-.75.23-.09.45-.2.69-.28.73-.27,1.35-.77,2.1-1,.2-.06.38-.21.55-.34.25-.19.55-.29.84-.41.05-.02.11-.03.14-.06.17-.22.36-.39.67-.39.15,0,.21-.22.41-.28.23-.07.39-.34.6-.48.19-.12.37-.23.46-.44.02-.04.06-.07.1-.09.61-.24,1.07-.68,1.52-1.12.42-.05.57-.51.96-.62.03,0,.05-.09.07-.13.04-.06.08-.15.13-.16.34-.09.46-.4.67-.61.22-.21.44-.42.66-.63.14-.14.27-.28.42-.42.39-.36.83-.68,1.14-1.09.22-.3.56-.49.73-.85.12-.25.4-.43.59-.65.09-.1.14-.24.21-.36.05-.09.11-.17.17-.25.39-.42.78-.82,1.03-1.36.12-.27.41-.45.62-.68.06-.07.09-.17.14-.25.26-.44.49-.89.78-1.31.33-.48.48-1.07.91-1.5.03-.03.02-.11.05-.16.38-.76.83-1.49,1.1-2.31.12-.35.34-.67.48-1.01.13-.32.23-.65.35-.97.11-.3.3-.58.35-.89.07-.4.37-.71.36-1.14,0-.21.14-.42.21-.64.05-.15.06-.32.12-.47.07-.16.11-.3.11-.47.02-.33.06-.69.2-.97.17-.34.15-.7.24-1.04.13-.56.12-1.16.26-1.72.16-.62.06-1.26.24-1.85.12-.38.04-.74.11-1.11.04-.19,0-.4,0-.6,0-.23.03-.46.01-.69-.06-.62.1-1.24-.05-1.85-.02-.07-.01-.15,0-.22.13-.58.03-1.16,0-1.74,0-.15-.06-.31-.08-.46-.06-.34-.12-.68-.08-1.04.03-.28-.09-.57-.13-.85-.06-.47-.3-.93-.18-1.42-.17-.31-.13-.67-.27-.99-.16-.37-.18-.79-.28-1.19-.07-.3-.15-.59-.24-.89-.14-.47-.35-.93-.44-1.41-.09-.49-.36-.89-.49-1.35-.17-.63-.42-1.23-.65-1.84-.04-.11-.17-.18-.22-.29-.09-.18-.14-.39-.23-.57-.29-.58-.7-1.11-.79-1.78-.34-.3-.48-.74-.73-1.09-.25-.35-.49-.68-.6-1.09-.28-.05-.29-.33-.42-.51-.42-.59-.79-1.22-1.3-1.75-.04-.04-.09-.08-.11-.13-.15-.32-.36-.59-.62-.84-.25-.24-.39-.6-.63-.87-.32-.37-.7-.69-1.02-1.06-.24-.27-.54-.47-.72-.8-.08-.14-.29-.2-.41-.32-.46-.46-.9-.94-1.36-1.4-.12-.12-.28-.2-.41-.31-.22-.18-.43-.37-.66-.54-.16-.12-.34-.22-.5-.34-.13-.09-.24-.21-.36-.31-.29-.24-.5-.56-.89-.68-.13-.04-.22-.18-.34-.26-.11-.07-.24-.12-.35-.19-.35-.24-.7-.49-1.06-.72-.31-.2-.6-.44-.95-.61-.39-.19-.77-.42-1.15-.63-.47-.26-.95-.5-1.41-.77-.19-.11-.41-.17-.6-.27-.52-.26-1.09-.41-1.6-.67-.27-.14-.56-.23-.83-.36-.39-.18-.8-.28-1.21-.41-.65-.2-1.3-.41-1.96-.59-.53-.15-1.07-.27-1.61-.4-.41-.09-.85-.12-1.23-.27-.28-.11-.54-.06-.81-.07-.14,0-.28-.06-.43-.08-.33-.04-.66-.08-.99-.12-.04,0-.09.02-.13,0-.53-.25-1.11-.13-1.66-.22-.29-.05-.56,0-.84-.02-.2-.02-.39-.08-.59-.11-.25-.04-.52-.12-.76-.07-.22.05-.42-.06-.63,0-.19.05-.39.13-.59.15-.32.03-.66.06-.98.01-.22-.03-.47.22-.65-.08-.3.28-.67-.06-.92.07-.46.25-.9.29-1.38.18-.31.25-.7.09-1.04.23-.33.13-.69.2-1.04.28-.38.09-.77.15-1.16.23-.19.04-.39.14-.56.12-.33-.05-.58.25-.9.16-.16.21-.41.25-.64.28-.54.08-1.02.31-1.51.5-.42.16-.86.26-1.29.4-.13.04-.24.14-.36.21-.09.05-.19.15-.27.13-.26-.05-.42.13-.62.23-.34.16-.69.28-1.04.42-.09.04-.16.1-.24.15-.1.06-.19.14-.29.19-.68.34-1.36.69-2,1.11-.55.35-1.19.57-1.71.96-.31.24-.69.41-.96.73-.23.27-.6.43-.88.67-.22.18-.41.4-.6.62-.08.08-.12.19-.22.34.42.01.75.19,1.14.12.23-.05.49,0,.73.01.1,0,.2.01.3.01.29,0,.58,0,.87,0,.12,0,.23-.01.35-.01.24,0,.49.01.73.01.17,0,.35-.01.52-.02.1,0,.21-.05.3-.02.39.09.77.09,1.15-.03.01,0,.03-.01.04,0,.53.29,1.12-.12,1.66.13.18.08.42.03.63,0,.38-.03.74,0,1.1.14.19.08.42.05.63.05.47,0,.94-.01,1.41-.02.04,0,.08.02.12.04.21.1.45.17.66.13.39-.07.74.25,1.13.07.45.22.96.03,1.42.23.23.11.53.07.8.09.16.01.32-.01.48.02.5.1,1,.28,1.5.32.37.03.74.04,1.11.12.5.11.99.23,1.49.35.18.04.36.12.54.11.22-.02.38.15.56.13.22-.02.37.02.49.18,0,0,.03.02.04.02.33-.14.59.16.91.15.2,0,.4.08.59.14.3.1.58.26.88.3.44.07.85.23,1.28.34.4.1.79.24,1.19.37.34.11.69.21,1.02.35.33.14.71.13,1.01.36.09.06.18.12.27.19.05-.03.11-.07.17-.12.21.12.35.37.65.29.04-.01.1.05.15.07.14.08.26.18.41.23.23.09.5.11.69.25.19.14.4.14.58.23.25.13.5.27.75.4.14.07.3.1.45.15.13.05.26.11.38.18.45.26.89.54,1.39.69.07.02.14.05.2.09.5.32,1,.64,1.5.96.05.03.1.07.15.07.24.03.24.21.28.36-.43.23-.87.25-1.28.19-.32-.04-.6.04-.89.06-.32.02-.63.1-.94.15-.07.01-.15.03-.22.01-.55-.11-1.02.15-1.52.3-.2.06-.25.24-.27.41-.02.19.08.29.25.36.21.09.45.15.57.38.01.02.09.05.11.03.22-.16.3.07.44.14.12.07.24.16.36.22.2.1.45.15.61.3.25.23.62.15.86.4.13.14.37.15.45.37.01.03.07.05.11.06.39.08.71.27.98.56.03.03.07.07.1.07.36-.03.55.29.84.39.49.17.79.63,1.25.82.34.14.65.28.91.56.18.2.47.28.71.43.18.11.35.25.54.37.24.15.5.26.59.56.42-.06.61.32.87.52.24.19.59.27.72.61.02.06.21.03.28.09.29.22.56.45.83.69.22.19.42.38.7.52.23.12.37.39.55.59.03.04.04.12.08.13.5.15.81.53,1.16.87.53.52,1.04,1.05,1.56,1.58.17.18.33.37.5.56-.07.15-.17.2-.34.15-.48-.13-.95-.27-1.43-.37-.36-.08-.72-.1-1.09-.16-.13-.02-.26-.08-.4-.11-.08-.02-.16-.04-.25-.05-.43-.06-.86-.13-1.3-.19-.43-.06-.85-.03-1.28,0-.2.02-.32.16-.3.37.02.18.07.36.14.53.12.31.26.61.4.91.31.62.63,1.24.94,1.86.03.05.09.09.1.14.16.71.56,1.31.81,1.98.24.65.51,1.3.65,1.97.08.38.35.7.32,1.1.28.28.16.71.41,1.02.13.17.14.45.16.65.05.5.39.94.28,1.46.34.44.11,1.02.41,1.5.19.31.14.76.2,1.15.02.13.09.33.04.37-.24.19.17.19.07.28-.13.14.22.26-.01.41-.05.03.06.27.08.42.01.14,0,.29,0,.46-.13.1-.25.07-.34-.08-.03-.05-.06-.1-.07-.16-.13-.71-.56-1.29-.89-1.9-.16-.3-.27-.64-.47-.93-.26-.37-.47-.79-.71-1.19.07-.04.11-.07.16-.1-.01-.02-.03-.07-.04-.06-.22,0-.3-.18-.38-.32-.31-.51-.54-1.08-.93-1.53-.33-.39-.47-.88-.84-1.24-.32-.31-.48-.78-.74-1.16-.24-.35-.51-.68-.77-1.02-.08-.1-.18-.2-.24-.31-.17-.37-.52-.59-.73-.91-.31-.48-.71-.86-1.11-1.26-.06-.06-.08-.15-.12-.23-.1-.23-.34-.34-.49-.53-.2-.25-.41-.49-.62-.74-.04-.04-.1-.06-.14-.09-.15-.12-.31-.22-.43-.41-.08-.13-.25-.27-.42-.38-.4-.27-.73-.65-1.1-.96-.37-.32-.75-.64-1.16-.9-.21-.13-.34-.29-.44-.5-.05.04-.1.08-.11.09-.17-.12-.34-.22-.49-.34-.16-.12-.28-.28-.45-.38-.17-.11-.38-.15-.55-.25-.17-.1-.31-.26-.47-.37-.17-.11-.44-.16-.51-.31-.11-.23-.33-.02-.45-.22-.08-.13-.35-.15-.53-.24-.18-.09-.34-.22-.52-.32-.17-.09-.36-.16-.54-.24-.18-.08-.37-.16-.56-.24.08-.25.26-.28.44-.3.79-.06,1.59-.02,2.38-.23.19-.05.4.01.61.02.24,0,.47,0,.69-.15-.03-.27-.2-.43-.39-.56-.37-.27-.75-.53-1.14-.77-.57-.34-1.16-.65-1.73-.99-.26-.15-.51-.33-.76-.49-.25-.17-.53-.25-.79-.43-.36-.26-.85-.34-1.27-.52-.48-.21-.95-.44-1.42-.65-.23-.1-.47-.18-.7-.27-.36-.15-.71-.35-1.09-.45-.23-.06-.44-.16-.66-.23-.91-.3-1.84-.54-2.74-.86-.48-.17-.96-.28-1.45-.39-.48-.11-.97-.22-1.45-.34-.42-.1-.83-.26-1.25-.32-.38-.06-.73-.22-1.13-.18-.15.01-.3-.14-.46-.15-.17-.01-.35.05-.46-.15-.01-.02-.09-.04-.1-.03-.15.2-.33.05-.49.04-.29-.02-.58-.21-.88-.05-.21-.17-.48-.12-.72-.2.06-.21.16-.3.4-.35.43-.08.83-.29,1.24-.43.09-.03.22-.07.3-.03.15.08.23.05.33-.08.04-.05.15-.09.2-.07.25.11.43-.06.61-.14.45-.21.93-.09,1.39-.2.53-.14,1.1-.13,1.63-.22.54-.09,1.08-.16,1.62-.26.16-.03.31-.12.49-.18-.2-.44-.54-.64-.87-.82-.4-.22-.87-.35-1.24-.62-.44-.32-.97-.39-1.42-.64-.21-.11-.51-.07-.62-.35-.2.1-.34-.09-.52-.11-.36-.04-.68-.24-1.02-.37-.98-.39-2.01-.62-3.02-.92-.7-.21-1.41-.46-2.15-.54-.25-.03-.49-.09-.75-.09-.24,0-.52-.07-.73-.19-.25-.14-.49.01-.73-.08-.25-.09-.56-.03-.8-.13-.25-.1-.55-.05-.75-.18-.2-.12-.2.11-.33.08-.2-.05-.41-.03-.61-.07-.31-.06-.61-.15-.92-.2-.1-.02-.22.05-.33.04-.29-.02-.58-.06-.88-.09v-.28s-.08,0-.09.01c-.2.4-.19.38-.6.19-.14-.06-.34,0-.51,0-.59-.02-1.18-.05-1.77-.07-.14,0-.25.17-.41.05-.5.21-1.04.14-1.55.23-.2.03-.4.16-.55.31-.39.38-.75.79-1.13,1.18-.19.19-.27.48-.57.54.05.43-.42.45-.57.74-.14.28-.34.54-.57.76-.4.39-.68.86-.96,1.32-.21.34-.45.61-.72.88-.1.1-.16.27-.22.41-.1.27-.21.51-.45.7-.11.09-.14.31-.24.47-.15.22-.2.49-.44.67-.12.09-.14.33-.21.5-.09.22-.16.47-.4.58-.03.01-.06.08-.05.1.08.24-.12.38-.19.56-.14.38-.28.77-.42,1.15-.19.51-.12.77.6.93.25.06.52.03.78.07.22.03.43-.11.68.05.15.1.42,0,.64,0,.08,0,.16.06.24.08.08.03.17.07.24.06.52-.09,1.01.07,1.5.2.37.09.74.12,1.12.18.05,0,.11.02.16.05.14.07.27.17.41.21.39.11.79.2,1.19.29.06.01.11.03.16.05.05.02.49.24.52.25.33.1.67.2,1,.31.08.03.18.07.22.14.09.17.26.15.4.21.28.12.61.15.8.45.03.05.18.03.26.07.5.27,1.03.48,1.49.83.16.13.4.17.52.22.48-.11.9-.2,1.31-.29.45-.1.9-.2,1.36-.28.35-.06.71-.09,1.07-.13.3-.04.61-.09.91-.11.23-.02.46.02.69.02.2,0,.39-.03.59-.03.23,0,.46.02.69.02.1,0,.19-.02.29-.02.07,0,.14-.03.21-.02.46.07.91.11,1.38.05.29-.04.59.08.89.12.14.02.28.02.42.05.13.03.25.1.4.15.03-.02.11-.11.16-.1.74.21,1.52.3,2.26.49.43.11.88.17,1.31.31.57.19,1.15.34,1.72.51.33.1.65.26.95.42.09.05.14.13.23.02.1.1.11.22,0,.3-.22.18-.47.33-.68.52-.13.11-.21.28-.31.41.06.27.2.38.48.43.35.06.68.22,1.02.33.37.12.74.24,1.11.37.2.07.41.14.6.24.17.09.43,0,.51.26.48.15.96.27,1.43.44.26.09.53.21.72.39.13.13.24.18.39.22.08.02.16.07.23.12.17.13.37.19.57.26.33.12.61.39.93.61,0,0,.04-.03.1-.09.03.11.06.2.11.34-.5.2-1.06.29-1.48.76.1.14.2.3.32.43.11.12.26.22.4.34.07-.01.11-.17.26-.02.25.24.54.5.85.58.23.06.39.13.56.28.16.14.33.3.53.36.47.14.75.55,1.15.74.34.16.59.41.88.61.19.13.35.29.52.45.34.32.69.63,1.02.96.08.08.12.22.17.31-.18.24-.39.29-.62.3-.1,0-.2.02-.28.06-.5.27-.52.39-.12.79.55.56,1.11,1.12,1.67,1.67.17.17.3.36.24.68.23-.2.31-.02.36.08.13.29.4.44.6.65.04.04.12.06.13.1.11.43.51.66.71,1.02.03.05.05.11.09.15.18.15.31.31.36.57.03.14.21.26.32.38.03.03.08.05.09.09.11.22.16.52.33.64.24.16.3.39.43.59.03.05.04.11.06.17.06.27,0,.34-.31.37-.25.02-.5.05-.74.11-.29.07-.29.14-.26.44.04.38.34.58.5.88.1.18.35.3.25.57,0,.02.01.06.03.08.41.24.51.69.73,1.06.15.26.29.49.36.78.03.12.18.2.25.32.26.44.44.91.53,1.42.01.07.09.14.14.21.16.19.24.37.2.64-.03.18.06.37.1.59-.25.17-.67-.07-.91.36.05.39.18.84.36,1.27.02.05.07.1.07.16.02.41.13.78.26,1.17.13.39.09.83.23,1.22.11.32.07.59,0,.87-.24.07-.48-.16-.71.01,0,0-.03,0-.04,0-.4-.26-.87-.13-1.29-.25-.71-.2-1.43-.42-2.14-.62-.25-.07-.51-.12-.75-.18-.46.3-.21.68-.16,1.03.03.2.09.39.15.62-.49-.16-.92-.29-1.34-.44-.21-.07-.41-.26-.61-.25-.39.01-.6-.3-.92-.41-.35-.12-.73-.25-1.02-.48-.42-.33-.9-.55-1.34-.85-.15-.1-.33-.16-.48-.23-.3.24-.38.49-.32.82.04.24-.02.49-.04.74,0,.07,0,.14.02.26-.14-.05-.32-.06-.41-.16-.23-.23-.53-.32-.8-.47-.18-.09-.39-.13-.47-.36-.02-.05-.12-.06-.18-.09-.44-.24-.86-.5-1.19-.89-.16-.18-.36-.38-.57-.43-.26-.06-.37-.26-.54-.4-.35-.28-.68-.6-1-.91-.11-.11-.18-.26-.29-.37-.24-.23-.49-.45-.78-.72-.38.64-.34,1.32-.42,1.99-.05-.02-.15-.02-.2-.07-.4-.37-.79-.75-1.18-1.13-.46-.45-.9-.94-1.39-1.37-.34-.3-.62-.64-.9-1-.04-.06-.07-.12-.12-.18-.16-.22-.26-.46-.49-.66-.27-.23-.44-.59-.63-.91-.24-.41-.44-.86-.71-1.26-.13-.19-.36-.31-.6-.51-.32.6-.42,1.26-.47,1.93-.15.1-.31.11-.43-.04-.36-.45-.84-.79-1.19-1.25-.09-.11-.15-.25-.24-.36-.35-.44-.71-.86-1.07-1.3-.04-.04-.1-.08-.11-.13-.2-.6-.71-.99-1.02-1.51-.23-.4-.44-.81-.66-1.21-.15-.28-.31-.55-.46-.82-.5.09-.58.53-.75.89-.36.07-.49-.17-.59-.41-.14-.31-.24-.63-.52-.86-.04-.04-.07-.09-.1-.14-.24-.48-.43-.98-.72-1.43-.27-.42-.45-.87-.7-1.29-.37-.63-.63-1.31-.89-1.99-.05-.12-.1-.24-.17-.34-.2-.32-.33-.67-.44-1.04-.18-.61-.4-1.21-.59-1.82-.05-.15-.05-.31-.1-.45-.04-.13-.14-.25-.17-.38-.1-.56-.31-1.1-.42-1.65-.17-.81-.4-1.61-.39-2.46,0-.44-.07-.89-.09-1.34-.01-.42-.41-.7-.81-.87-.25-.11-.48-.23-.7-.39-.3-.22-.69-.32-1.04-.47-.43-.18-.88-.29-1.28-.55-.31-.19-.7-.25-1.05-.36-.28-.09-.56-.15-.84-.25-.62-.21-1.24-.37-1.91-.34-.31.01-.63-.11-.95-.18-.27-.06-.54-.1-.82,0-.11.04-.26-.02-.39-.02-.15-.01-.29-.04-.44-.02-.21.02-.39.11-.62-.05-.14-.09-.42.03-.63.05-.09.01-.17.06-.26.05-.97-.03-1.9.19-2.81.52-.15.05-.33.05-.46.12-.61.31-1.22.64-1.83.97-.5.28-1,.55-1.49.86-.15.1-.24.27-.46.3-.33.06-.55.02-.81-.22-.04-.04-.09-.05-.14-.08-.19-.09-.4-.15-.58-.27-.14-.09-.23-.3-.38-.34-.5-.15-.52-.69-.85-.98-.05-.04-.05-.18-.02-.25.11-.27.1-.59.34-.8.04-.03.05-.1.06-.15.17-1.13.15-2.26.05-3.4-.24-.23.06-.6-.24-.84-.13-.11.12-.45.33-.38.47.14.88-.03,1.31-.14.39-.11.8-.18,1.18-.32.44-.16.87-.32,1.15-.78.23-.39.41-.79.58-1.2.03-.07.04-.15.09-.2.32-.36.42-.84.63-1.25.24-.48.53-.93.8-1.4.11-.19.24-.36.32-.56.21-.49.63-.84.79-1.37.1-.33.41-.59.62-.88.14-.18.28-.36.41-.55.14-.2.24-.43.4-.61.19-.22.36-.46.56-.65.19-.18.3-.34.37-.58.03-.09.09-.2.17-.25.46-.31.72-.81,1.11-1.19.31-.3.56-.65.95-.86.04-.02.08-.09.09-.13.06-.45.41-.69.72-.96.29-.26.57-.53.86-.8.02.01.06.03.09.06.02-.01.05-.03.06-.04.12-.14.22-.29.35-.42.32-.31.65-.61.98-.91.06-.06.13-.12.2-.17.13-.1.28-.19.41-.3.18-.17.34-.37.52-.55.18-.18.46-.22.63-.45.17-.22.44-.38.69-.51.51-.26.96-.62,1.45-.92.24-.14.44-.33.71-.44.24-.09.43-.34.66-.47.47-.27.94-.53,1.39-.82.43-.28.92-.4,1.34-.68.05-.04.13-.05.17-.1.17-.27.48-.35.74-.42.61-.16,1.1-.54,1.67-.76.05-.02.11-.06.16-.06.33,0,.56-.21.83-.35.22-.11.45-.2.69-.27.73-.22,1.46-.43,2.19-.65.2-.06.42-.1.58-.23.38-.29.83-.29,1.26-.4.21-.05.43-.03.63-.16.09-.06.25-.04.38-.05.04,0,.12.03.12.02.22-.38.61-.11.91-.25.36-.16.79-.15,1.18-.27.15-.05.23.23.39.01.07-.1.31-.08.47-.1.15-.02.32.03.44-.03.45-.22.94-.14,1.4-.24.37-.07.73-.14,1.12-.11.23.01.5-.05.76-.06.03,0,.07-.02.09-.01.23.14.46.03.69.02.24-.01.49-.07.73-.08.3-.01.61,0,.91.01.4,0,.81-.05,1.19.03.5.11.99.04,1.48.08.24.02.52-.08.72,0,.33.15.7-.01,1.01.18.07.05.2.05.28.03.45-.14.86.09,1.29.13.15.01.29.13.46.03.02-.01.07-.02.08,0,.47.31,1.03.17,1.54.29.64.15,1.27.3,1.91.47.76.2,1.53.42,2.29.64.54.16,1.07.34,1.6.52.08.23.3.1.45.17.16.08.34.1.5.17.13.06.24.17.37.23.32.13.66.23.98.36.22.09.42.24.64.34.26.12.52.26.8.32.38.08.65.29.91.53.03.03.05.1.08.1.36.02.63.26.93.41.14.07.32.08.43.18.48.37,1.07.55,1.53.92.18.15.38.19.56.31.18.12.36.23.54.36.05.03.08.09.12.14.11.12.16.28.39.26.13,0,.27.14.39.25.32.28.64.54,1.05.68.05.02.09.07.14.11.3.25.59.5.89.75.07.06.18.06.24.13.13.14.25.3.37.44Zm-13.85,49.29s.07-.03.1-.05c.06-.26-.09-.48-.22-.67-.4-.58-.8-1.17-1.13-1.8-.03-.05-.07-.09-.1-.14-.28-.41-.55-.82-.83-1.23-.16-.24-.31-.48-.49-.7-.54-.63-.97-1.34-1.48-1.99-.42-.53-.91-1.01-1.3-1.58-.34-.5-.84-.91-1.23-1.4-.43-.53-.94-.99-1.42-1.47-.64-.63-1.28-1.26-1.93-1.89-.16-.15-.33-.28-.49-.43-.25-.24-.48-.5-.74-.73-.62-.54-1.28-1.04-1.89-1.6-.51-.47-1.1-.83-1.61-1.3-.18-.17-.38-.32-.58-.46-.33-.24-.66-.47-.99-.7-.4-.28-.78-.58-1.19-.84-.4-.26-.77-.56-1.18-.8-.44-.26-.84-.6-1.27-.89-.18-.12-.37-.23-.56-.33-.37-.2-.71-.44-1.05-.68-.6-.43-1.26-.77-1.9-1.14-.4-.23-.78-.52-1.21-.67-.48-.17-.86-.49-1.31-.68-.6-.26-1.17-.58-1.77-.84-.32-.14-.64-.31-.96-.44-.19-.08-.38-.19-.58-.26-.29-.1-.82.2-.85.5-.02.23,0,.47.07.69.16.56.71.68,1.14.93.27.16.6.22.88.37.76.42,1.56.74,2.34,1.09.44.2.83.49,1.27.68.48.21.91.54,1.37.8.21.12.44.2.64.32.34.21.67.43,1,.64.8.49,1.6.97,2.33,1.56.09.07.23.08.33.15.34.25.67.52,1.01.78.25.19.46.41.77.53.19.07.33.27.51.4.38.28.78.54,1.15.83.36.29.73.58,1.04.91.31.33.73.51,1.04.85.36.39.86.65,1.24,1.03.61.62,1.31,1.14,1.92,1.75.51.51,1.1.94,1.49,1.55.02.03.07.05.1.08.23.18.46.35.67.54.45.39.77.9,1.24,1.28.11.09.24.21.32.32.18.22.38.4.59.6.08.08.09.26.17.29.34.13.43.48.68.7.51.46.96,1,1.4,1.53.67.81,1.43,1.55,2.03,2.43.39.58.93,1.06,1.41,1.59Zm.36.45s-.04-.05-.06-.05c-.02,0-.05.02-.07.04.03.03.05.05.08.08.02-.02.03-.04.05-.06Z"/>
      <path class="cls-1" d="m8.65,70.63v.34h.73c.15.43-.24.49-.39.69q-.6-.14-1.18.38c.01-.15,0-.26.03-.35.12-.27.28-.53.32-.84.03-.19.18-.23.49-.22Z"/>
      <path class="cls-1" d="m66.61,51.34c.05,0,.11,0,.16.01,0,.04,0,.07-.01.11-.06-.02-.11-.03-.17-.05,0-.02,0-.04.01-.07Z"/>
      <path class="cls-1" d="m38.25,69.95s.02.09.02.13c0,0-.03,0-.03,0-.02-.04-.03-.08-.05-.12.02,0,.04-.01.06-.02Z"/>
      <path class="cls-1" d="m54.29,59.31s-.03.04-.05.06c-.03-.03-.05-.05-.08-.08.02-.01.05-.04.07-.04.02,0,.04.04.06.05Z"/>
    </g>
  </g>
</svg>