<?xml version="1.0" encoding="UTF-8"?>
<svg id="Layer_2" data-name="Layer 2" xmlns="http://www.w3.org/2000/svg" viewBox="0 0 34.88 42.29">
  <defs>
    <style>
      .cls-1 {
        fill: #fff;
        stroke-width: 0px;
      }
    </style>
  </defs>
  <g id="Layer_1-2" data-name="Layer 1">
    <g>
      <path class="cls-1" d="m19.24,21.79s-.1.05-.15.08c-.15.11-.3.09-.44-.02-.08-.06-.14-.06-.24-.02-.06.03-.16-.02-.24-.03-.09-.02-.18-.03-.27-.05-.17-.03-.34-.04-.5-.11-.1-.05-.18-.1-.28-.02-.04.03-.1.03-.15.02-.1-.01-.19-.05-.29-.06-.34-.04-.67-.06-1.01-.09-.06,0-.11-.03-.17-.04-.12-.01-.25-.05-.37-.02-.24.06-.31.03-.35-.24-.05.05-.09.08-.12.12-.08.11-.18.12-.31.08-.16-.05-.33-.07-.49-.1-.07-.01-.14-.01-.2-.05-.14-.08-.25-.13-.39.01-.04.04-.19-.02-.29-.06-.12.02-.14.09-.06.2.18.23.39.45.54.7.09.14.17.25.3.34,0,0,.02.02.02.03-.06.23.13.22.26.3.13.08.2.26.3.39.06.08.14.16.19.24.05.09.1.19.12.3.03.18.09.29.3.32.08.01.17.11.22.19.08.12.12.25.19.38.01.03.05.04.08.06.06.05.18.1.18.15,0,.16,0,.34-.05.49-.04.1-.18.17-.27.25-.02-.01-.03-.02-.05-.04v-.16s-.02-.01-.04-.02c-.02.03-.07.06-.07.09,0,.27-.26.35-.38.53-.01.02-.09,0-.13,0-.12-.03-.2.03-.21.13-.03.27-.25.34-.44.45-.08.05-.15.12-.22.18-.03.02-.04.06-.07.07-.32.1-.43.44-.69.59-.09.06-.19.11-.28.17-.08.06-.16.11-.21.19-.07.12-.15.14-.26.09-.06-.02-.12-.03-.22-.06.19.38-.15.47-.3.63-.15.15-.38.23-.58.33-.16.08-.37.08-.48.26-.02.02-.08.01-.11.03-.06.03-.12.07-.18.12-.1.08-.18.16-.28.24-.12.1-.25.2-.38.3-.02.01-.03.04-.05.05-.28.14-.56.28-.84.42-.07.04-.14.08-.21.11-.1.06-.21.11-.31.16-.04.02-.09.02-.11.05-.15.23-.39.29-.63.4-.19.09-.46.05-.58.3-.02.04-.1.04-.15.07-.08.04-.17.07-.24.13-.12.09-.18.07-.22-.07-.01-.04-.02-.09-.05-.1-.04-.02-.1-.02-.15-.02,0,.05,0,.1.01.13.02.05.06.08.13.16-.11.03-.2.09-.27.08-.22-.04-.36.12-.5.21-.22.14-.21.17-.35-.04,0,0-.01,0-.02,0-.14.17-.29.31-.54.25-.02,0-.06.08-.1.11-.06.05-.12.12-.18.12-.21,0-.42-.03-.63-.06-.1-.01-.13.02-.1.12.02.05.01.11.01.17-.08,0-.15,0-.23,0-.01,0-.03-.02-.04-.03-.06-.03-.12-.05-.18-.08-.02.06-.05.12-.07.18,0,.02-.01.04-.02.06-.2.03-.25-.16-.35-.26-.01,0-.03.01-.04.02,0,.04.03.09.02.13-.01.07-.03.16-.07.18-.06.02-.17.01-.21-.03-.17-.16-.16-.16-.29.03-.03.04-.11.08-.16.07-.17,0-.33-.04-.5-.05-.08,0-.16.02-.23.04-.06.02-.11.06-.17.09-.01-.06-.03-.12-.04-.19,0,0-.02-.01-.03-.01-.23.08-.23.08-.36-.15-.02-.04-.06-.07-.1-.1-.24-.14-.35-.37-.44-.61,0-.02-.02-.05-.01-.07.09-.2-.02-.36-.08-.53-.05-.14-.02-.31-.03-.46,0-.06-.02-.11-.02-.17,0-.08,0-.19.04-.25.15-.21.18-.43.17-.68,0-.05.03-.12.07-.16.09-.1.15-.19.11-.35-.03-.13.07-.28.12-.42.07-.2.13-.41.21-.6.11-.24.24-.46.36-.69.01-.02.05-.03.05-.05-.05-.37.33-.52.44-.81.05-.13.16-.24.23-.37.13-.22.24-.45.36-.68.01-.03.02-.06.04-.07.17-.08.27-.21.33-.39.04-.13.11-.26.19-.38.11-.15.14-.37.35-.43.02,0,.04-.01.05-.02.1-.15.19-.31.3-.45.14-.21.23-.46.5-.55.11-.03.17-.09.16-.24,0-.12.07-.27.14-.38.11-.15.26-.28.39-.42.09-.1.19-.19.26-.31.12-.22.27-.4.53-.46.04,0,.08-.04.09-.07.09-.19.15-.39.25-.57.12-.19.22-.4.47-.47.06-.02.1-.09.14-.15.11-.15.2-.31.32-.45.02-.02.11.02.17.02.05,0,.11,0,.16,0,0-.05-.03-.1-.02-.14.02-.07.05-.14.09-.2.05-.08.11-.14.16-.21.04-.05.07-.13.12-.14.24-.06.3-.29.44-.44.11-.11.15-.27.37-.27.07,0,.2-.21.2-.32,0-.27.19-.4.32-.57.14-.18.31-.33.46-.49.07-.07.12-.17.2-.21.3-.18.51-.44.73-.71.25-.01.3-.23.41-.39.12-.17.28-.27.46-.38.14-.09.21-.28.31-.43.02-.03.04-.07.06-.1.24-.26.47-.52.71-.78.02-.02.03-.05.05-.05.32-.06.35-.41.58-.57.1-.07.15-.18.24-.13.09-.13.16-.24.24-.35.1-.13.18-.29.38-.29.01,0,.03-.02.03-.04.12-.28.35-.45.59-.63.14-.1.23-.28.36-.4.13-.12.28-.2.42-.3.03-.02.07-.04.09-.07.09-.12.17-.26.27-.37.05-.06.14-.08.21-.13.06-.03.13-.06.15-.12.1-.26.29-.42.54-.54.06-.03.11-.08.14-.14.06-.08.08-.19.15-.25.26-.23.52-.44.79-.65.06-.05.16-.04.24-.06-.01-.02-.03-.03-.04-.05.04-.07.06-.15.11-.2.14-.15.26-.35.52-.32.02,0,.07-.05.07-.09.02-.3.27-.41.48-.53.14-.08.25-.17.3-.32.04-.14.12-.18.26-.16.05,0,.13-.03.17-.08.09-.12.15-.25.23-.37.08-.14.15-.29.3-.17.15-.19.28-.37.43-.54.03-.04.12-.03.17-.05.06-.03.16-.06.17-.1.03-.21.16-.39.33-.46.22-.1.36-.24.48-.44.07-.11.23-.16.36-.23.11-.05.21-.1.23-.23.03-.18.13-.24.3-.19.1.03.15.01.17-.1.05-.26.29-.46.54-.49.05,0,.1-.07.14-.12.05-.07.09-.16.14-.24.05-.07.1-.13.16-.19.03-.04.08-.1.11-.1.17,0,.23-.09.28-.23.05-.13.13-.24.3-.19.03,0,.07-.01.09-.03.1-.11.19-.22.27-.34.09-.12.18-.21.34-.21.04,0,.09-.07.12-.11.04-.07.06-.16.11-.21.14-.13.25-.31.49-.29.03,0,.08-.06.09-.1.03-.3.28-.4.48-.54.08-.06.15-.14.23-.21.06-.05.12-.13.19-.14.16-.02.23-.12.31-.23.11-.18.21-.18.33-.01.11.14.19.3.29.44.02.02.03.05.06.07.15.13.3.25.45.38.01.01.03.02.04.04.07.26.34.34.5.52.08.09.15.19.24.28.09.1.19.21.28.31.02.02.06.04.07.05.02.31.36.34.5.54.12.17.16.43.43.5.1.03.17.18.25.27.03.04.06.08.09.13.02.03.03.09.06.1.29.16.44.44.64.68.06.07.13.13.2.2,0,0,.02.01.03.02.11.22.28.38.48.52.06.04.11.1.16.16.05.06.11.14.11.21,0,.12.03.14.14.17.23.05.33.26.46.43.07.09.14.17.22.25.08.09.17.17.25.26.15.17.3.33.45.51.05.07.07.16.12.24.04.06.09.11.15.16.07.06.15.12.23.18.04.03.07.07.1.11.06.08.12.16.18.24.1.11.2.22.3.32.2.18.2.24-.01.41-.06.05-.11.12-.16.18-.04.04-.1.08-.15.1-.01,0-.05-.08-.08-.11-.03-.03-.08-.06-.12-.08-.01.05-.05.13-.03.15.12.16.04.22-.1.28-.04.02-.07.07-.09.12-.08.22-.15.25-.36.14-.01,0-.03,0-.06,0,0,.03,0,.06.02.08.09.13.02.2-.09.26-.07.04-.12.1-.18.16-.03.03-.05.08-.08.09-.28.1-.4.35-.6.54-.09.09-.21.15-.3.23-.2.2-.39.42-.59.61-.12.11-.25.22-.39.31-.04.03-.12,0-.18,0-.04,0-.08-.04-.15-.07,0,.07,0,.11.02.14.05.11.02.17-.08.24-.06.04-.11.11-.16.17-.03.04-.05.08-.08.11-.14.11-.29.2-.44.31-.04.03-.06.09-.09.12-.06.06-.12.12-.18.17-.15.14-.31.26-.44.41-.13.14-.15.15-.28.02-.03-.03-.09-.03-.13-.05,0,.05-.01.12.01.15.12.13.08.21-.07.28-.05.02-.1.05-.13.09-.1.14-.21.27-.43.2.03.29-.22.38-.36.54-.1.12-.26.2-.38.32-.27.26-.53.53-.8.78-.04.04-.14.02-.21.01-.05,0-.1-.02-.15-.04,0,.05,0,.1.02.14.07.11.04.17-.07.21-.05.02-.12.06-.14.11-.06.17-.17.21-.33.15-.03-.01-.07,0-.12,0,0,.05,0,.09.01.12.05.1.02.15-.06.22-.27.23-.52.47-.78.71-.08.08-.16.12-.25,0-.02-.02-.06-.03-.1-.05,0,.12-.11.37-.19.46-.03.04-.05.09-.08.13-.08.1-.16.17-.29.07-.03-.02-.08,0-.12,0,.01.04,0,.09.03.12.07.09.07.15-.04.21-.05.03-.09.09-.13.13-.03.04-.06.09-.1.12-.15.12-.33.2-.43.35-.16.23-.42.31-.6.51-.15.17-.3.33-.46.49-.04.04-.09.06-.14.1-.06.05-.12.11-.17.17-.04.04-.07.09-.11.12-.06.06-.13.11-.2.16-.17.15-.35.29-.52.44-.16.14-.3.31-.45.45-.12.11-.25.2-.39.27-.09.05-.17.06-.19.19-.03.15-.16.2-.27.09-.12-.11-.21-.13-.34-.02-.12.1-.25.04-.37-.14Zm-14.45,9.64c-.04.06-.09.09-.09.12.01.04.05.08.09.09.03,0,.07-.04.1-.06-.03-.04-.06-.09-.11-.15Zm-2.11.32s.02-.05.04-.07c-.04-.01-.09-.05-.11-.03-.05.02-.08.07-.11.11,0,.01.05.08.06.08.05-.02.09-.06.13-.09Zm29.66-21.31c-.04.09-.07.13-.07.17,0,.03.04.06.06.09.03-.04.08-.07.09-.11,0-.03-.03-.07-.08-.15ZM4,31.78c-.05-.06-.08-.12-.1-.12-.04,0-.08.05-.11.08.03.03.05.08.08.09.03,0,.07-.03.13-.06Zm11.97-11.67c-.05.06-.09.09-.09.12,0,.03.05.08.07.08.03,0,.08-.04.09-.07,0-.03-.04-.07-.07-.13Zm1.44,1.2c.04-.07.08-.11.07-.15,0-.04-.05-.07-.07-.1-.03.03-.07.06-.07.1,0,.03.03.07.07.14Zm-9.78,5.92c-.06-.04-.1-.08-.13-.08-.02,0-.05.04-.08.07.03.03.06.06.1.08.02,0,.06-.03.12-.06Z"/>
      <path class="cls-1" d="m22.27,36.4c-.02.32-.07.35-.33.2-.09-.05-.16-.02-.2.06-.05.09-.09.19-.13.29-.04,0-.07,0-.1-.02-.14-.06-.23-.01-.31.11-.17.25-.17.24-.41.09-.06-.03-.14-.03-.21-.04,0,.02-.02.04-.02.07.07.05.13.1.2.16.1.09.08.16-.04.22-.07.03-.14.09-.18.16-.05.09-.1.15-.21.14-.05,0-.13.02-.14.06-.1.25-.34.33-.53.48-.05.04-.09.08-.13.13-.07.08-.14.12-.23.02-.05-.05-.12-.08-.19-.12,0,.08,0,.16-.01.24,0,.01,0,.02,0,.05-.18.08-.36.16-.54.25-.04.02-.09.03-.12.06-.13.11-.26.23-.39.35-.15.13-.24.11-.33-.06-.02-.04-.1-.05-.15-.07,0,.05-.03.11-.01.15.03.05.1.08.13.13.03.04.03.09.04.14-.05,0-.09,0-.14-.02-.04-.02-.08-.07-.11-.07-.13,0-.13.08-.11.18.01.05,0,.11,0,.16-.06,0-.12,0-.17-.02-.15-.06-.31,0-.35.15-.04.14-.11.19-.25.19-.13,0-.23.05-.29.19-.08.17-.18.17-.31.05-.03-.03-.08-.04-.13-.06-.02.05-.06.1-.06.15,0,.19,0,.17-.18.11-.07-.02-.18.01-.24.06-.1.07-.16.18-.25.27-.11.1-.22.13-.33,0-.03-.04-.1-.06-.14-.09-.06-.04-.13-.06-.16-.12-.06-.1-.14-.16-.24-.12-.1.05-.2.13-.28.21-.05.05-.07.14-.13.19-.11.09-.16.18-.11.33.02.05-.04.13-.06.19-.04-.04-.08-.09-.12-.13-.04-.04-.09-.07-.14-.1-.02.04-.05.08-.07.12-.02.06-.01.16-.05.18-.07.02-.15,0-.23,0-.01,0-.02-.01-.03-.02-.07-.02-.14-.05-.21-.07v.24c-.05.06-.12.14-.2.2-.03.02-.11,0-.14-.02-.12-.12-.21-.13-.31,0-.08.1-.17.14-.3.14-.08,0-.16.06-.25.1-.02-.07-.02-.19-.07-.23-.06-.04-.16-.02-.25-.03.04-.12.11-.22.08-.3-.02-.07-.15-.1-.21-.13-.08.13-.14.24-.22.34-.09.13-.08.17.07.22.02,0,.04,0,.05.01.04.05.08.09.12.14-.06.02-.15.09-.19.07-.18-.11-.36-.05-.54-.06-.07,0-.15-.05-.19-.1-.1-.13-.19-.13-.29,0-.03.04-.07.06-.11.09-.01-.06-.05-.12-.04-.17.05-.25-.09-.54-.31-.64-.07-.03-.14-.04-.16.06-.04.2-.16.14-.29.08.06-.16,0-.22-.16-.22-.03,0-.06-.03-.09-.05-.14-.13-.28-.25-.41-.39-.06-.06-.1-.14-.12-.22-.03-.11-.08-.18-.2-.22-.19-.06-.19-.14-.04-.26.05-.04.05-.12.08-.19-.07.01-.14.02-.21.05-.06.02-.11.07-.17.1-.03-.1-.08-.19-.09-.29,0-.04.05-.1.1-.12.14-.09.15-.12.01-.23-.04-.03-.06-.1-.1-.13-.08-.07-.16-.14-.25-.19-.01,0-.08.1-.13.15-.05.05-.11.09-.17.14-.03-.06-.06-.11-.09-.17-.02-.04-.05-.1-.08-.11-.28-.05-.33-.32-.49-.49-.04-.05-.08-.1-.13-.13-.18-.13-.34-.26-.4-.48,0-.04-.09-.08-.12-.08-.15.04-.19-.07-.23-.16-.01-.03.07-.1.11-.15.04-.04.09-.08.1-.13.01-.06-.02-.13-.03-.19-.06.03-.12.05-.17.08-.03.02-.04.06-.06.08-.07.09-.13.1-.2,0-.05-.08-.13-.15-.21-.19-.15-.08-.18-.14-.09-.29.02-.04.02-.08.03-.12-.05,0-.11-.02-.14,0-.15.09-.23.07-.24-.12,0-.02-.01-.05-.03-.06-.32-.17-.45-.54-.76-.74-.09-.06-.14-.18-.21-.26-.11-.11-.24-.21-.36-.32-.1-.09-.07-.19-.02-.29.02-.03.02-.07,0-.13-.03.03-.06.05-.1.08-.04.03-.1.08-.12.07-.04-.02-.1-.08-.1-.12,0-.14-.08-.19-.2-.22-.13-.04-.23-.1-.12-.26.02-.03.02-.1,0-.11-.03-.02-.08-.03-.12-.02-.12.03-.17.01-.18-.12,0-.06-.08-.12-.12-.18-.02-.03-.04-.06-.05-.1.04-.01.08-.03.12-.04.02,0,.04.01.06.03.18.09.33.14.5-.04.06-.06.19-.06.29-.08.15-.04.31-.05.45-.12.24-.11.29-.11.38.15,0,.02.02.04.03.04.09-.09.17-.18.27-.26.08-.07.17-.13.27-.17.1-.03.24-.06.33-.02.13.06.2.05.3-.04.13-.13.24-.3.47-.24.02,0,.06-.05.08-.08.06-.16.17-.17.29-.09.11.07.19.04.24-.05.1-.22.34-.23.51-.34.08-.05.17-.09.26-.13.04-.02.1-.05.13-.03.33.13.46-.17.68-.29.15-.08.28-.2.44-.26.06-.03.16.03.24.06.06.02.12.04.18.07,0-.08,0-.15,0-.23,0-.03-.02-.05-.03-.06.31-.2.61-.38.91-.58.17-.11.38-.15.49-.35.01-.02.13,0,.18.03.17.11.25.09.27-.13,0-.12.06-.17.17-.14.16.04.23-.04.29-.16.03-.06.06-.11.1-.16.07-.08.15-.13.26-.06.1.06.16.03.15-.1,0-.02-.01-.06,0-.07.17-.14.34-.27.51-.4.03-.02.11-.02.12-.04.11-.28.45-.25.61-.46.05-.06.2-.04.3-.07.06-.02.16-.06.16-.09.04-.31.3-.37.52-.49,0,0,.03,0,.03,0,.09-.09.17-.23.28-.27.13-.05.25-.06.32-.21.1-.21.28-.34.49-.43.08-.03.16-.08.21-.15.1-.14.17-.3.38-.28.02,0,.06-.02.06-.03,0-.23.25-.26.34-.42,0,0,0-.01.01-.01.34-.12.47-.49.79-.65.17-.08.29-.27.42-.42.02-.02.04-.06.07-.08.12-.11.23-.21.36-.31.09-.07.09-.13.03-.22-.08-.12-.14-.25-.21-.37-.01-.02-.02-.05-.04-.06-.32-.13-.4-.49-.64-.7-.14-.12-.32-.26-.34-.49,0-.03-.11-.05-.15-.09-.06-.05-.15-.11-.16-.17,0-.05.08-.12.14-.17.16-.12.33-.14.5-.03.01,0,.04.02.05.01.28-.08.53.07.8.09.19.01.37.1.56.15.05.01.11.05.15.03.2-.11.39-.03.59,0,.04,0,.09,0,.14,0,.09,0,.19-.02.25.02.15.09.28.12.44.06.03-.01.08,0,.11.03.15.1.3.09.45.04.15-.05.26,0,.35.11.07.09.13.17.21,0,.02-.04.16-.04.24-.04.12,0,.24.02.37.03.08,0,.16.01.23.04.17.06.31.23.51.1.02,0,.06.01.08.03.11.09.22.12.36.05.09-.05.16-.02.15.1,0,.04.03.08.05.12.04-.03.07-.06.11-.09.06-.03.13-.09.18-.08.05.01.08.1.11.16.02.04.03.08.05.12.04-.03.1-.04.12-.08.15-.22.18-.23.42-.1.07.03.16.04.24.03.16-.02.31-.01.43.13.03.03.12.05.16.03.26-.15.26-.16.37.1.02,0,.05-.01.07-.03.16-.14.33-.18.53-.08.1.06.22.09.33,0,.01,0,.04-.02.05-.01.2.07.4.15.59.22.06.02.15.06.2.04.14-.05.22-.03.28.11.01.03.04.05.08.1.38-.48.62-.18.84.18.03-.11.04-.18.06-.25.04.01.11.02.12.04.01.09,0,.17,0,.29.04,0,.11-.03.2-.05.03.07.09.16-.05.17-.1,0-.12.05-.1.13.02.09.06.12.15.09.03-.01.07-.01.15-.02,0,.15,0,.29,0,.42-.02.25-.05.49.08.73.02.03-.03.1-.03.14,0,.12,0,.24,0,.36,0,.02.03.05.03.06-.06.17-.13.33-.2.5-.01.03-.06.04-.07.07-.02.03-.01.07-.02.11.04,0,.08,0,.12-.03.03-.02.04-.05.05-.08.02,0,.04,0,.06-.01.02.06.07.15.04.18-.09.14-.04.27,0,.4.01.06,0,.14-.02.21-.01.1-.06.21-.04.31.02.13.06.23-.1.27.1.23.19.44.1.69-.03.08-.02.19,0,.29.03.11.03.19-.07.26-.1.07-.09.15,0,.23.11.1.15.22.09.38-.04.1-.03.22-.03.33,0,.13.02.26-.1.37-.03.03,0,.15.04.21.08.14.07.19-.08.24-.04.02-.07.07-.11.11.04.03.09.08.13.08.1,0,.15.05.14.14-.02.17-.06.34-.09.51,0,.05,0,.11.02.16.05.13.06.22-.11.27-.11.03-.11.12,0,.2.23.18.28.41.18.69-.05.13-.09.26.07.36.02.01.02.11.01.11-.25.08-.12.27-.07.36.09.16.1.27,0,.43-.04.06-.03.18,0,.27.03.1.01.17-.07.22-.13.08-.11.17-.02.26.13.13.2.24.09.44-.06.1,0,.26,0,.39,0,0-.02,0-.02,0-.16-.26-.48-.39-.59-.7-.01-.04-.07-.06-.1-.09-.14-.13-.34-.23-.4-.39-.07-.2-.17-.27-.35-.36-.15-.07-.23-.29-.34-.45,0,0,0-.01,0-.02-.33-.22-.43-.68-.87-.8-.22-.06-.34.01-.47.19-.12.16-.31.28-.49.37-.11.06-.22.08-.26.22-.03.11-.09.15-.21.09-.12-.07-.2-.03-.22.12-.02.22-.2.39-.34.47-.19.11-.33.27-.5.4-.17.14-.35.27-.52.4-.03.02-.08.04-.09.08-.07.16-.19.23-.37.18Zm-12.92,4.13c-.13-.09-.25-.19-.38-.27-.01,0-.08.05-.1.08-.06.07-.13.15-.18.23-.02.03-.03.09-.02.13,0,.02.06.05.08.04.04-.01.08-.05.1-.08.12-.25.11-.25.34-.07.02.02.06.03.09.02.02,0,.04-.04.08-.09Zm9.96-2.41c.03-.06.06-.11.08-.16.04-.1.09-.19.11-.29,0-.05-.07-.1-.1-.16-.04.04-.08.07-.1.12-.04.07-.05.15-.09.22-.07.12-.02.19.11.26Zm-8.11.84s-.07-.08-.1-.08c-.05,0-.1.04-.13.08-.06.07-.11.14-.15.22-.02.04-.05.1-.04.12.03.04.08.07.13.07.02,0,.06-.05.08-.08.04-.05.07-.11.11-.16.03-.05.06-.09.11-.16Zm-.98,2.04s-.03.02-.04.02c.05.12.08.25.15.35.03.04.15,0,.22,0-.01-.06,0-.15-.04-.19-.09-.08-.2-.13-.3-.19Zm16.84-6.6s0-.06-.01-.1c-.2.12-.33.06-.43-.11-.01-.02-.07-.01-.1-.02,0,.04-.03.1-.01.11.09.08.19.18.3.21.07.02.17-.07.26-.1Zm-16.46,5.97c.04-.09.08-.16.09-.23.01-.05-.01-.11-.02-.16-.06.02-.16.03-.18.07-.07.12,0,.21.12.31Zm-3.18-4.39c.16,0,.29-.18.22-.3-.02-.04-.08-.06-.12-.08-.02.04-.06.08-.07.12-.02.08-.02.17-.03.27Zm3.35,5.52c-.11.12-.2.21-.28.31-.03.03-.02.09-.03.13.05,0,.11,0,.13-.03.07-.09.14-.18.19-.28.02-.03,0-.09-.01-.13Zm-2.71-5.37c-.08-.07-.12-.11-.17-.15-.06.08-.12.16-.17.24,0,.01.07.09.07.08.08-.04.15-.1.26-.18Zm17.54-5.68s-.05-.04-.06-.04c-.16.07-.28.05-.34-.13,0-.01-.07-.03-.09-.02-.02.01-.04.08-.04.08.08.06.17.13.26.18.09.04.19.05.26-.08Zm-20.96,3.68c-.08-.07-.13-.14-.15-.13-.07.03-.12.09-.18.13.05.05.09.12.15.13.04,0,.1-.07.18-.14Zm10.91,3.47c-.06-.09-.1-.15-.14-.22-.04.05-.13.11-.12.14.02.07.09.13.13.2.04-.03.07-.07.13-.11Zm-8.09-.29c-.12-.08-.22-.15-.32-.21-.02-.01-.07-.01-.09,0-.02.02-.02.06-.01.09.04.11.28.18.43.11Zm-.8.96c-.06.08-.14.14-.13.17.02.06.09.1.14.14.05-.05.11-.1.13-.16,0-.03-.08-.08-.15-.16Zm6.77,2.87c.07-.07.14-.12.15-.17,0-.04-.08-.09-.12-.14-.05.06-.11.11-.14.17,0,.02.06.07.11.14Zm-4.64-2.53c.04.07.07.11.09.15.06-.06.12-.12.17-.2.01-.02-.05-.07-.07-.11-.06.05-.12.1-.18.16Zm8.83-3.71v-.06s-.1-.08-.14-.07c-.05,0-.09.06-.13.1.04.04.07.12.11.12.05,0,.11-.05.16-.09Zm.28,2.21c-.09-.07-.15-.13-.22-.16,0,0-.06.07-.1.11.06.05.11.1.18.13.02,0,.06-.04.14-.08Zm-10.71,1.54c.06-.06.1-.09.14-.13-.05-.05-.1-.12-.16-.13-.03,0-.09.08-.13.13.04.04.08.07.15.13Zm5.5,2.03s-.03.04-.05.07c.06.06.11.13.18.18.03.02.09-.01.14-.02-.01-.04,0-.1-.04-.12-.07-.05-.16-.07-.24-.11Zm.55-2.09c-.05.1-.1.15-.11.21,0,.04.06.08.09.12.05-.06.1-.12.13-.19,0-.02-.05-.07-.11-.15Zm-1.06-.5c.08-.05.15-.09.22-.13-.05-.03-.1-.08-.15-.07-.07.01-.13.07-.2.1.04.03.08.06.13.1Zm5.03-2.96c-.09-.07-.14-.11-.2-.14,0,0-.08.08-.08.1.02.06.07.11.11.17.04-.03.09-.07.17-.13Zm-4.53,1.49c.06-.1.11-.15.11-.2,0-.05-.07-.08-.11-.12-.03.04-.1.07-.1.11,0,.06.05.11.1.22Zm-4.99,2.15s-.02-.05-.03-.07c-.04-.03-.09-.08-.13-.08-.04,0-.11.07-.11.09.02.06.06.13.11.14.05,0,.11-.05.16-.08Zm-1.46-.97c-.08-.05-.13-.1-.15-.09-.05.03-.1.09-.14.14,0,0,.06.09.07.08.06-.03.12-.07.22-.13Zm5.44,3.35c-.06.1-.1.15-.11.21,0,.04.04.08.06.12.05-.05.1-.1.13-.16.01-.02-.04-.08-.08-.17Zm11.5-5.53c.04-.07.08-.12.07-.14-.04-.05-.09-.1-.15-.13-.01,0-.06.04-.09.07.05.06.1.12.17.2Zm4.04-9.05s.05.02.07.04l.12-.22s-.09-.06-.11-.05c-.1.05-.14.13-.09.23Zm-15.19,13.93c-.07-.05-.11-.12-.15-.11-.04.01-.09.07-.1.12,0,.03.07.11.08.11.05-.02.1-.06.17-.12Zm-2.4-3.7s.03-.04.05-.06c-.07-.07-.13-.15-.2-.22-.01-.01-.07-.02-.07-.01-.02.02-.04.08-.02.09.08.07.17.14.26.21Zm-1.21,3.34c-.05.09-.09.14-.11.2,0,.02.08.08.09.07.05-.04.1-.08.13-.13,0-.02-.05-.07-.11-.14Zm8.57-1.78c.07-.07.12-.11.15-.17,0-.01-.06-.06-.09-.1-.05.05-.1.09-.13.14,0,.01.04.06.08.13Zm7.84-4.68c.05.07.09.14.14.21.03-.02.1-.05.1-.07,0-.12-.08-.16-.23-.14Zm-12.25-.58c-.08-.05-.14-.1-.16-.09-.05.03-.09.09-.12.14,0,0,.07.08.09.07.06-.02.1-.06.19-.12Zm9.52,2.81l.07.02c.03-.1.06-.19.09-.29,0,0-.04-.03-.06-.04-.04.08-.07.17-.1.25,0,.02,0,.04.02.06Zm1.67-2.08s-.09-.09-.1-.08c-.06.04-.11.09-.15.14,0,0,.05.06.08.1.05-.05.1-.09.17-.16Zm4.46,1.2c.05-.08.1-.13.09-.17,0-.04-.07-.07-.1-.11-.03.04-.07.09-.08.13,0,.03.05.07.1.14Zm-14.68,1.29c.05-.05.09-.08.12-.11-.04-.04-.08-.09-.13-.11-.03,0-.07.06-.11.09.04.03.07.07.12.12Zm-10.31-1.71c-.09-.04-.17-.08-.24-.11,0,.05,0,.11.02.16.06.1.13.08.23-.05Zm15.49,2.75c-.06-.05-.11-.1-.14-.09-.05.02-.08.08-.13.12.04.03.07.09.11.08.04,0,.08-.05.15-.1Zm-8.58,2.89c-.04.07-.1.12-.09.15,0,.04.07.07.11.1.03-.04.08-.08.09-.13,0-.03-.05-.07-.11-.13Zm8.46-6.9c-.06-.04-.11-.07-.12-.07-.05.04-.1.1-.14.15,0,0,.07.07.07.07.06-.04.11-.09.18-.16Zm.42,1.26c-.06-.06-.11-.09-.15-.13-.02.03-.07.07-.07.09.02.05.06.1.09.15.03-.03.07-.06.12-.11Zm-4.55.27c.05-.06.1-.1.11-.15,0-.02-.07-.09-.1-.08-.04,0-.09.06-.11.1,0,.02.05.07.09.13Zm.7,1.02c-.07-.05-.11-.1-.15-.09-.04,0-.08.06-.12.09.03.03.06.09.1.09.04,0,.09-.04.17-.09Zm7.33.33c.04-.08.08-.12.07-.16-.01-.04-.06-.08-.1-.12-.03.04-.07.09-.08.13,0,.03.05.07.1.14Zm-16.95-2.77c-.05.07-.1.11-.1.14.01.04.07.08.1.11.03-.03.09-.07.09-.1,0-.04-.05-.09-.1-.16Zm14.7,1.83c-.08-.04-.12-.08-.16-.08-.04,0-.07.06-.1.09.03.03.07.09.1.09.04,0,.09-.05.17-.1Zm-5.14,3.63c-.08-.06-.12-.1-.17-.12-.02,0-.06.05-.1.08.04.04.08.09.13.12.02,0,.07-.03.14-.07Zm4.96-2.18c.05-.07.1-.12.09-.15-.01-.04-.07-.07-.11-.11-.03.04-.07.08-.07.11,0,.04.04.08.09.15Zm-8.97.3c-.06.08-.11.12-.13.17,0,.02.04.06.07.09.04-.04.1-.07.13-.12.01-.02-.03-.07-.06-.14Zm-.08,3.79s.06-.05.09-.08c-.06-.05-.11-.11-.17-.16,0,0-.06.06-.06.06.04.06.09.12.14.18Zm8.93-4s-.06.03-.09.05c.04.07.08.14.12.21,0,0,.06-.03.1-.04l-.13-.22Zm-4.93.17c-.05.06-.1.1-.09.13.01.05.05.09.08.14.03-.03.1-.06.1-.09,0-.05-.05-.09-.09-.17Zm-.29,1.11c.06-.07.11-.11.13-.16,0,0-.06-.08-.07-.08-.05.03-.1.06-.14.11,0,.01.04.06.08.13Zm-4.84-6.56s0-.09,0-.13c-.05-.02-.1-.05-.15-.04-.03,0-.09.07-.08.1,0,.04.04.11.08.12.04.01.1-.03.14-.05Zm1.91,7.52s-.06.04-.08.05c.04.07.09.14.13.21.03-.02.08-.06.08-.06-.04-.07-.08-.13-.12-.2Zm9.13-2.03c.05-.07.1-.1.1-.15,0-.03-.06-.06-.1-.09-.03.04-.08.08-.09.12,0,.02.05.06.09.11Zm-6.27-1.5c-.06.08-.1.13-.11.19,0,.01.07.08.08.07.04-.03.08-.07.1-.11,0-.03-.03-.07-.07-.14Zm12.87-2.59s.03-.04.05-.06c-.02-.09-.07-.16-.18-.15-.02,0-.04.04-.06.07.06.05.13.1.19.15Zm-12.55,5.4c.03.21.1.26.29.21-.1-.07-.18-.13-.29-.21Zm-8.25-2.23s0-.04,0-.06c-.05,0-.11-.04-.15-.02-.05.02-.08.08-.11.12.01.01.03.03.04.04.08-.03.15-.06.23-.09Zm14.75-1.69s.02.05.04.07l.12.09s.07-.07.07-.1c-.02-.05-.05-.1-.1-.12-.03-.01-.08.03-.13.04Zm-13.74.79c-.07-.04-.11-.08-.13-.07-.05.02-.08.07-.12.1.03.03.07.08.09.08.05-.01.09-.05.16-.11Zm5.87-1.87c.05-.07.09-.11.09-.15,0-.03-.06-.09-.08-.08-.04.01-.09.05-.1.09,0,.03.04.07.09.15Zm2.98,5.99s-.05.04-.08.06c.04.06.08.12.13.17,0,0,.06-.03.1-.04l-.15-.19Zm.3-2.1s-.07-.08-.09-.11c-.03.04-.08.08-.09.12,0,.03.05.07.08.11.03-.04.06-.07.1-.12Zm-1.53.87c-.07-.04-.12-.08-.14-.08-.05.02-.08.06-.12.1.03.03.06.07.09.07.05,0,.09-.05.17-.09Zm-7.56.93c-.05.07-.1.11-.09.14,0,.04.06.08.1.09.02,0,.08-.05.08-.08,0-.04-.04-.08-.08-.15Zm3.91,1.96c.03-.06.07-.1.06-.12-.03-.05-.08-.09-.11-.13-.02.03-.06.08-.06.1.01.05.06.08.11.15Zm8.31-6.62s-.08-.07-.11-.1c-.03.04-.08.07-.08.11,0,.03.05.07.07.1.03-.03.07-.06.12-.11Zm-1.06,1.3c-.05.09-.09.13-.09.17,0,.04.04.08.07.12.03-.04.08-.07.08-.11,0-.04-.03-.08-.06-.18Zm-9.48,5.48c.05-.07.11-.1.11-.14,0-.04-.05-.07-.08-.11-.03.03-.08.05-.09.09,0,.04.03.08.06.16Zm-2.43-4.8c-.07-.04-.11-.08-.15-.09-.02,0-.08.07-.08.08.02.04.06.08.1.09.02,0,.06-.04.12-.09Zm3.56,4.19s-.03-.02-.05-.04c-.14.02-.15.11-.14.21.02.01.04.02.05.03.05-.07.09-.14.14-.21Zm7.98-6.37c-.04.06-.08.1-.07.12.03.05.08.09.12.12,0,0,.06-.05.06-.06-.02-.05-.06-.1-.11-.18Zm-1.89,4.98c.05-.06.1-.1.1-.14,0-.03-.06-.09-.08-.08-.04.01-.09.05-.1.09,0,.02.04.07.07.13Zm1.57-2.37c-.05.06-.1.11-.09.12.02.04.06.08.1.1,0,0,.08-.05.07-.07,0-.04-.04-.08-.08-.15Zm-1.59.8s-.05-.03-.07-.04c-.01.04-.04.09-.03.11.03.05.07.09.12.12,0,0,.07-.05.07-.07-.02-.05-.06-.09-.09-.13Zm11.34-1.95c-.06-.03-.1-.07-.11-.06-.04.03-.08.07-.1.12,0,.01.04.05.06.08.04-.04.09-.08.15-.14Zm-14.43,5.18s.05-.03.07-.05c.02-.03.07-.07.06-.08-.03-.04-.07-.07-.11-.11-.03.03-.08.06-.08.09,0,.05.03.1.05.15Zm10.02-7.93c-.05-.05-.08-.09-.1-.09-.05.02-.09.05-.14.08.03.03.06.08.09.08.04,0,.08-.04.15-.08Zm-5.83-7.44c.05-.08.09-.12.11-.16,0-.01-.06-.07-.07-.07-.04.02-.09.05-.1.09-.01.03.03.07.06.14Zm-12.84,10.54c-.07-.04-.12-.08-.14-.08-.04.01-.08.05-.12.08.03.03.06.07.09.07.04,0,.08-.04.17-.08Zm6.84,3.61c-.06-.05-.1-.1-.13-.1-.03,0-.08.05-.08.08,0,.03.05.08.08.09.03,0,.07-.03.14-.06Zm-6.22-2.93s.02-.05.04-.07c-.05-.02-.09-.07-.14-.06-.04,0-.07.06-.1.09.03.03.06.08.09.08.03,0,.07-.03.11-.04Zm6.32,2.24c.05-.07.09-.1.1-.14,0-.02-.05-.08-.06-.07-.04.02-.09.05-.11.09,0,.02.04.06.08.13Zm8.23-4.96c-.06-.05-.09-.09-.13-.11-.02,0-.06.05-.09.07.03.03.07.08.11.1.02,0,.06-.03.11-.06Zm6.7-.03c-.07-.05-.1-.09-.14-.1-.02,0-.08.05-.08.08,0,.03.05.08.08.09.03,0,.07-.03.14-.07Zm-4.21,1.3s.02.06.03.09c.07-.02.13-.05.2-.07-.01-.03-.03-.08-.03-.08-.07.02-.13.04-.2.06Zm-13.77,2.46c-.06-.04-.1-.09-.11-.08-.04.03-.08.07-.11.11,0,0,.05.07.06.06.05-.02.09-.05.16-.09Zm-.43-.3c.05-.07.08-.11.11-.16,0,0-.07-.07-.07-.06-.04.03-.08.07-.11.11,0,.01.04.06.07.11Zm12.49-3.18c-.06-.05-.1-.1-.12-.1-.04.02-.08.06-.1.1,0,.01.05.08.06.07.04,0,.08-.04.15-.08Zm-2.74,1.75s-.05-.04-.07-.05c-.04.05-.08.11-.11.16,0,0,.04.04.06.06.04-.06.08-.11.12-.17Zm3.09-.55s.06.03.09.04c.02-.06.05-.12.07-.18-.03-.01-.08-.03-.08-.03-.03.05-.05.11-.08.17Zm-7.08,2.84c.08.04.12.07.15.07.04,0,.07-.05.1-.08-.04-.03-.07-.07-.11-.08-.03,0-.06.04-.13.09Zm4.19-.04c-.06-.04-.1-.07-.14-.08-.02,0-.07.07-.06.08.03.04.06.07.1.09.02,0,.05-.04.1-.09Zm-10.36.68c.04-.05.06-.08.08-.11-.04-.03-.08-.07-.13-.09-.01,0-.07.05-.06.06.03.05.06.09.11.15Zm1.39,1.21c-.07-.04-.11-.07-.16-.08-.01,0-.06.06-.05.08.01.04.05.08.08.09.03,0,.06-.04.13-.09Zm3.78.3c-.05.07-.08.11-.1.16,0,.02.04.05.07.08.03-.04.08-.08.1-.12,0-.02-.03-.06-.07-.11Zm14.81-14.48c-.06-.04-.1-.09-.12-.08-.03,0-.07.06-.07.09,0,.02.05.08.07.07.04,0,.07-.04.13-.08Zm-4.54,7.35c-.06-.05-.1-.08-.15-.11,0,0-.06.06-.06.06.03.04.07.08.11.11,0,0,.05-.03.09-.06Zm-4.08,1.77s-.08-.09-.11-.09c-.03,0-.08.06-.08.08,0,.03.05.07.08.09.02,0,.05-.04.1-.08Zm3.98-1.38c-.06-.03-.1-.07-.12-.06-.04.02-.07.06-.09.1,0,0,.06.07.07.06.04-.02.07-.06.13-.11Zm-3.65,4.36c.05-.06.09-.09.11-.14,0-.01-.06-.07-.07-.07-.04.02-.08.06-.09.09,0,.02.03.06.06.11Zm-12.63-.42c-.06-.05-.09-.09-.12-.09-.03,0-.08.05-.08.08,0,.02.04.08.07.08.03,0,.07-.04.13-.07Zm-.76-.77c-.04.05-.09.09-.09.11.01.04.05.07.08.11.02-.03.07-.05.07-.08,0-.04-.03-.07-.06-.14Zm11.17,1.56s-.08-.09-.09-.08c-.04.02-.08.06-.11.09.03.03.06.08.09.08.03,0,.07-.04.12-.08Zm-10.29-1.74c-.04.06-.07.1-.09.14,0,.01.07.06.08.06.04-.02.07-.06.09-.1,0-.01-.04-.05-.08-.1Zm20.17-2.21c-.04.06-.08.09-.08.11.01.04.06.07.09.1.02-.03.06-.06.06-.08,0-.04-.04-.07-.07-.13Zm-17.47,6.88c.03-.05.07-.09.08-.13,0,0-.06-.06-.06-.06-.04.03-.07.07-.11.11.02.02.05.04.09.07Zm.08-.45s.06-.03.09-.04c-.03-.05-.06-.11-.1-.16,0,0-.05.01-.08.02.03.06.06.12.09.18Zm1.42-4.41c.04-.05.07-.09.08-.12,0-.02-.04-.05-.07-.08-.03.03-.07.06-.09.1,0,.01.04.05.08.1Zm-.32,3.62c-.04.06-.08.09-.09.13,0,.02.05.08.07.07.04,0,.09-.04.09-.07,0-.03-.04-.07-.08-.13Zm13.36-5.63s-.08-.09-.1-.08c-.04,0-.09.04-.09.07,0,.03.04.09.07.09.03,0,.07-.04.12-.08Zm-16.04,5.21s-.04.05-.06.07c.06.05.13.1.19.15.02-.02.03-.04.05-.06-.06-.05-.12-.11-.18-.16Zm12.03-2.21s-.09-.07-.1-.06c-.04.03-.08.07-.12.1.02.02.05.07.06.06.05-.02.09-.06.15-.1Zm-13.24-1.85c.04-.05.08-.09.08-.11,0-.04-.05-.07-.08-.1-.03.03-.08.06-.08.09,0,.03.04.06.08.12Zm10.71,3.01c.03-.07.06-.1.06-.14,0-.02-.05-.05-.07-.07-.03.03-.06.06-.07.1,0,.02.04.05.08.11Zm-3.54,1.01c.04-.05.08-.09.08-.12,0-.03-.05-.06-.08-.08-.03.03-.07.06-.08.1,0,.02.04.05.08.1Zm-6.36-2.47s.06.01.08.02c.02-.05.03-.11.04-.16,0,0-.06-.02-.1-.03,0,.06-.02.11-.03.17Zm8.87-1.15c-.05-.04-.09-.08-.12-.08-.03,0-.05.06-.08.09.03.03.06.07.1.07.02,0,.05-.04.1-.08Zm-6.58,3.6c.07.03.11.07.13.06.04-.02.07-.06.1-.1-.03-.02-.07-.05-.1-.05-.04,0-.07.04-.13.09Zm14.15-6.47c-.06-.03-.1-.07-.14-.06-.03,0-.05.05-.08.07.03.03.06.07.1.07.02,0,.06-.04.12-.08Zm-14.79,4.84c-.05-.04-.08-.08-.12-.09-.01,0-.07.06-.07.08,0,.04.05.07.08.09.01,0,.05-.04.1-.07Zm-4.19-3.96c-.05-.04-.09-.07-.13-.09,0,0-.06.07-.06.08.03.04.07.07.11.09,0,0,.04-.04.08-.07Zm16.35,1.47c.04-.05.08-.08.1-.13,0-.02-.03-.05-.04-.08-.04.03-.08.07-.12.11,0,0,.03.05.06.1Z"/>
      <path class="cls-1" d="m4.79,31.43c.05.07.08.11.11.15-.03.02-.08.07-.1.06-.04,0-.08-.05-.09-.09,0-.02.04-.06.09-.12Z"/>
      <path class="cls-1" d="m2.67,31.75s-.08.07-.13.09c0,0-.07-.07-.06-.08.03-.04.07-.09.11-.11.03-.01.07.02.11.03-.01.02-.02.05-.04.07Z"/>
      <path class="cls-1" d="m4,31.78c-.06.03-.1.06-.13.06-.03-.01-.06-.06-.08-.09.04-.03.07-.07.11-.08.02,0,.05.06.1.12Z"/>
      <path class="cls-1" d="m15.97,20.11c.04.06.08.1.07.13,0,.03-.06.07-.09.07-.02,0-.07-.05-.07-.08,0-.03.05-.06.09-.12Z"/>
      <path class="cls-1" d="m7.64,27.23c-.06.03-.09.07-.12.06-.04-.01-.06-.05-.1-.08.03-.02.05-.07.08-.07.04,0,.07.04.13.08Z"/>
      <path class="cls-1" d="m9.92,31.53s-.1.06-.14.05c-.04-.01-.08-.08-.08-.12,0-.03.05-.09.08-.1.05,0,.1.03.15.04,0,.04,0,.09,0,.13Z"/>
    </g>
  </g>
</svg>