<?xml version="1.0" encoding="UTF-8"?>
<svg id="Layer_2" data-name="Layer 2" xmlns="http://www.w3.org/2000/svg" viewBox="0 0 139.56 301.51">
  <defs>
    <style>
      .cls-1 {
        fill: #fff;
        stroke-width: 0px;
      }
    </style>
  </defs>
  <g id="Layer_1-2" data-name="Layer 1">
    <g>
      <path class="cls-1" d="m93.14,9.87c-1.53-.11-.78-1.86-2.79-.51l-.24-1c2.86.5,1.16-2.93,3.28-3.53.83.49-.36,2.4-.26,2.52.11.12.78-.1,1.01,0-.32.89-.85,1.65-1.01,2.52Z"/>
      <path class="cls-1" d="m80.01,48.25c-1.64,1.86-4.63-1.38-5.04-2.79-.45-1.51,2.18-.62,1,1.27l3.53-.49c.1.31-.09.81,0,1l-2.02.25,2.52.76Z"/>
      <path class="cls-1" d="m94.15,7.34c.35-.96,1.14-1.83,1.02-3.03l1.5,1,.5-1.31,1.54.04-.52-3.78-.5,1.52-.9-.37-.39.89-1.73-.53,1,2.02c-1.37-.52-2.4-1.09-1.98-2.74l.48-.57,6.6-.5c.19,1.61,1.24,2.91.43,4.49l1.55.83-.96-1.22c1-1.02,0-2.47.08-3.09.16-1.27,3.12-1.04,2.91.78l1.5-1,.08.86c2.27-.85,3.24,1.42,4.46,2.33,1.42,1.04,3.84,2.83,4.87,4.02,1.23,1.42,3.55,4.17,3.99,5.9.18.71.3,3.49-.78,3.29,2.83,1.32,1.69,5.28,2.16,7.94,1.28,7.39,4.7,14.67,3.84,22.29-.39,3.42-3.92,9.58-3.15,12.33.86,3.07,2.7,1.71,4.86,2.24,5.9,1.46,9.65,3.85,12.07,9.64,2.14,5.12-.05,11.18-1.64,16.22-4.37,13.89-11.46,28.44-14.87,42.69-.99,4.14-.32,8.16-.82,12.32-1.34,11.12-8.02,18.77-12.29,28.61-2.51,5.79-8.73,22.85-8.57,28.52.11,4.01,4.61,9.5,5.66,13.74,2.62,10.5-.97,17.88-.9,27.66.06,8.41,1.6,17.06,1.46,25.81-.14,9.27-1.2,18.42-2.6,27.59-.29,1.92-1.53,3.67-.5,5.71-.14.77-2.1.9-2.84.94-5.22.28-10.76-.55-15.99-.16-1.34-1.26-.51-3.23-.74-4.84-.58-3.94-1.46-7.85-1.51-11.87-4.21,1.04-5.55,4.86-9.91,6.5-3.03,1.14-4.97.57-7.39,1.2-1.36.35-4.46,3.13-6.23,3.86-4.45,1.85-14.62,1.13-17.88-2.71-2.42-2.85.21-7.54.47-10.68.59-7.03-9.36-16.53-11.71-23.53-3.94-11.7-1.24-22.63-5.79-33.71-1.84-4.48-10.21-22.27-12.93-25.08-3.49-3.6-7.58-4.84-9.28-10.68-2.35-8.05-2.69-14.26.03-22.41.51-1.52,2.13-5.99,3.87-5.47l-.97-1.2c2.98-5.29,5.9-10.62,8.82-15.94,4.02-7.31,7.3-11.46,11.52-18.21.3-.48-.97-1.25,1.33-1.03-.87-1.98,1.88-2.43,2.09-4.5l1.95.47-1.51-1.26,2.02-.76-.49-1.71c1.85-.89,1-1.62,1.89-3.17,1.35-2.35,3.43-4.36,4.63-6.1s2.1-4.67,4.04-4.72c-.89-1.83,2.66-2.66,1.75-4.53l3.82-.99c-.09-1-1.41.05-.61-1.44l-.9-.57h2.02c-.51-2.1.3-1.99.96-2.97.75-1.12-.67-1.31,2.57-.58l-1-2.52.5,1.51,2.52-.51-2.01-.5,1.08-2.48,2.16.5c.55-1.39.38-.87,1.72-.61l1.51-1.54c-.46-4.16-1.13-.17-1.7.03-4.12.18-.7-1.52-.2-2.33,1.21-1.98,2.04-4.3,3.57-6.16l1.47.47c-.97-1.72-.27-2.53,1.44-3.11l-.31-.67,1.39-.27-1-.75,3.52-4.29c-.16,1.4.94,1.04,2.03,1l-1.52-.5c-.77-.7,2.05-2.97,2.67-3.34.15-.09.48.23.75.14.17-.06-.06-1.27,2.13-.33l-1.01-.75c.15-.2.34-.34.55-.48,1.09-.72,3.66-2.59,3.74-.79.94-.97,2.35-2.15,3.46-2.86.88-.57,1.44-.76,2.66-1.61,3.18-2.2,6.5-2.35,3.73-7.39l1.52-.51c-.62-.86-1.38-.22-2.28-.7-1.11-.59-3.09-2.03-3.78-3.09-.2-.3-.35-.68-.5-1.01l.47-.29c-.02-1.89,1.17-3.77.08-5.56l.91-.43-.45-3.82,2.02.5-.25-1.01h3.27c-.33.94-.44,2.36,1.01,2.03,0-1.43-.51-2.34,1.02-2.78v-.75s-2.03-.52-2.03-.52l.51-1.51h-1.52s.51,1,.51,1c-.5.03-1.01-.03-1.52,0-.23.64-.35,1.36-.51,2.02l-.5-1.27-1.5.26c-.41-1.63,1.57-.95,2.52-1.01.46-1.3,1.09-2.6,1.01-4.04l.5,2.02c1.81.46,1.65-.41,2.46-.96.29-.19.98.04,1.08-.06.16-.15-.44-1.13-.35-1.67.06-.37,1.32-2.71,1.62-2.86l1.26,1.51-.76-3.02c-.16-.05-.92,2.39-2.26,1.51-.3-.19-.06-2.56-1.01-2.52l-1.01,3.53c1.4-2.5-1.32-3.8-3.02-2.02l.51-2.02,2.77,1.02-.25-1.01,1.72.05,1.31,1.97,1.01-3.02,1.01,2.02v-3.54c-.69.8-1.59-.26-2.01-1l1.44-.46,1.08,1.46c-.93-1.51.83-3.73-1-4.54l-1.01,1.01v-1.51s4.04-.51,4.04-.51l-1.02-2.01-1.01,1.51-1.06-1.49-1.45.49-.45-1.98.95-.55-1.02-.33.02-3.21c1.39.44.83,2.09.5,3.02l2.01-1-.5,2.52,2.81-1.01c.45-.69-.32-1.38-.29-1.51.14.01.59-.59,1.01-.27.4.3.86,1.77,1.25,1.76.12,0,.55-.69,1.1-.81.43-.09,1.13.39,1.17.35.26-.31-.24-3.68,2.02-3.55l-1.01-1.25c2.64-1-.36-2.4-1.02.01l1.01.74c-1.57-.11-2.1.46-2.04,2.02l-.92-.41-.56.91c-.02-1.03-.06-1.59-1.02-2.02Zm10.1-2.02c1.56-.49.55-1.82.49-3.03h-.49s0,3.03,0,3.03Zm4.54,1.52h-2.02s0,.49,0,.49l1.02,1.01c1.32.27,1.04-.29,1-1.5Zm-4.04,2.52v-2.02s-2.02.51-2.02.51c-.21.18,1.37,1.93,2.02,1.51Zm10.6,5.05l-1-4.54c.06,1.23-.22,3.77,1,4.54Zm-15.15-1.52c.31-.25.56-1.72-.25-2.01-2.45-.87-.88,2.91.25,2.01Zm3.53,0l-1.25-1.51-2.28,2.52c2.16.17,1.54-2.21,3.53-1.01Zm-6.97,3.47l.9-2.72-.99-.75-.26,1.51-1.26-1.01.27,1.55-1.25.53.43,1.4-1.45.83-.02,1.24,1-1,1.53,3.53c2.21-1.21-1.64-2.77-1.01-3.53l1.01.25-.51-2.26,2.52,1-.91-.56Zm4.44,2.08c.21-1.24-1.17-1.6-2.01-2.02l.54,1.74-.54,1.04,1.08-1.21.93.44Zm-7.56,3.02l.99-.75c-.53-.78-1.08-.88-2.01-.75l1.02,1.5Zm7.05.51l-2.01.51,1.02,1.5,1-2.01Zm-7.07,4.04c.01-1.11.29-2.64-1-3.03.32,1.08-.29,2.69,1,3.03Zm7.58.51h-2.52s.51,2.52.51,2.52l.51-2.02,1,1,.51-1.51Zm5.55.5h-1.01s0,2.02,0,2.02c1.01-.27,1.13-1.08,1-2.02Zm-9.59.51l-1.01,2.52h1.51s-.5-2.52-.5-2.52Zm-5.05,5.55l-.51-2.52h-.49s0,2.52,0,2.52h1Zm6.56.51c.05-.9-.56-2.16-1.5-2.52-.05.9.56,2.16,1.5,2.52Zm8.59-1.01l-1.44.24-.07,2.28,1.51-2.52Zm-18.18,3.53l-.75-3.02-1.26,1.5c1.65-.27.28,1.91,2.01,1.52Zm14.14-3.02h-1.01s0,3.02,0,3.02h.49s.51-3.02.51-3.02Zm5.05,2.52l-.25-2.01-.76,2.01h1.01Zm-10.62-.48c-1.62-.29-.51.48-.91,1.41l1.93.59-1.02-2Zm-4.53,1.5l-1.01,2.01h1.51s-.5-2.01-.5-2.01Zm-10.61,2.52c-2.22-.4-.31,2.14.51,1.51l-.51-1.51Zm4.55.51l-2.03.34-2.01,2.17,4.04-.51-1.01-1.26,1.01-.75Zm-4.54,4.03c.12-.93.03-1.48-.76-2.01h-.75s.51,2.01.51,2.01h1Zm17.17-2.01h-1.51s0,1.51,0,1.51h1s.51-1.51.51-1.51Zm-6.56,2.02c-1.08-.11-2.14,1.01-2.01,2.01l2.01-2.01Zm-8.58,1.51v-1.01c-1.13.29-1.09,1.52-1,2.52h.49s.01-1.51.01-1.51h.5c-.82,3.32-.03,1.94.97,3.33s-.81,2.51,1.04,2.22c1.05-3.84-.03-1.76-.74-2.48-.29-.29-.82-1.43-.77-1.8l2.02-1.27h-2.52Zm-1.52-.5c-.63-.72-1.5,1.79-2.52,1.01l1.27,3.53c1.64.13.1-1.72.33-2.66.12-.48,1.36-1.37.92-1.88Zm17.26,2.46l.41-1.45-1.02,1.73,1.53.79c.47-1.37-.78-.87-.92-1.07Zm-10.19.06c-.4-1.44-1.46-.52-2.5-.47.21,1.24-.45,2.92.98,3.25l-2.02,1.76c2.63.07,2.61-1.48,2.02-3.53l1.25,1-.5-1.5.76-.52Zm2.03-1c-.68,1.45-.16,2.66.99,1.26l-.5-1.26h-.49Zm1.51,6.06l2-1.26c-1.35-1.68-.55.28-2,.26v1Zm-3.04,3.03v-2.01s-.5,0-.5,0l-.51,2.01h1Zm-3.53,4.55h-1.51v1h1.51v-1Zm-15.65,7.58h-1.51s0,1.51,0,1.51l1.51-1.51Zm2.53,2.02l-2.8-.44c-.08,1.04-1.94,2.16-1.74,2.7s.87.99,1.51.52c.77-.57-.27-1.76.76-2.27l2.27,1v-1.5Zm3.52.5h-1.01s.43.95.43.95l-.93.56h1.51s0-1.51,0-1.51Zm-12.12,3.53l-1.5-1,.26,2.03c1.01-.73,4.49-.26,4.28-2.03l-2.96.11-.07.89Zm17.67,1.01c-.98.87-2.9-.89-2.52,1.01l2.52.51v-1.52Zm-20.19,2.53l-.5-1.01v2.28s2.01.25,2.01.25l.51-2.53-2.01,1.01Zm16.15-1.01c-1.21-.19-2.14.24-2.01,1.51l2.01-.5v-1.01Zm-4.54,2.01c.29-.29-.42-1.5-.75-1.5-1.4,0,0,2.27.75,1.5Zm-11.61,2.03h-2.52s0,1.01,0,1.01h2.52s0-1.01,0-1.01Zm1.12,2.43c-.21-.07.18-1.83-1.11-.16l2.01,1.26-1.51.26,2.52,1.26-1.02-.76,1.01-1.51c-.66-1.22-1.28-.13-1.9-.34Zm14.53.59v-.75s-1-.76-1-.76l-.51,1.51h1.51Zm-20.19,1.51c-.36-.82-1.11-1.67-2.02-1.51.36.82,1.11,1.67,2.02,1.51Zm2.53-1h-2.02s0,1.51,0,1.51h2.52s-.93-.56-.93-.56l.43-.95Zm7.57,2.52c-.95-.16-1.68.59-1.51,1.51l1.51-.51v-1Zm6.06,1c-.27-1-1.08-1.13-2.02-1v1s2.02,0,2.02,0Zm-13.13.01l-1.51-.51.51,2.02h.49s.51-1.51.51-1.51Zm1.51-.51h-1s0,1.51,0,1.51h1.51s-.51-1.51-.51-1.51Zm16.67,4.55c-.33-.3-3.35,1.33-2.52,2.01,1.03.85,2.25-1.35,2.52-2.01Zm7.57,0c-.94-.14-1.75,0-2.02,1,.94.14,1.75,0,2.02-1Zm-26.26,1.01c-2.03.53-2.94.48-4.79-.52l-.26,1.01c1.54-.12,2.13.45,2.03,2.02l3.02-2.52Zm-14.65,9.08c.17-.92-.55-1.67-1.51-1.51v1s1.51.51,1.51.51Zm0,3.03c-.25-1.2-1.57-.45-2.52-1v1.01s2.52,0,2.52,0Zm6.56,2.03l-3.02,1.26,1.5,1.26c-1.18-2.52.54-.75,1.52-2.52Zm9.59,2.52h-.75s-.76,1-.76,1l1.51.51v-1.51Zm-20.7,2.52l-.75-.99-1.26.5v1.01s2.02-.51,2.02-.51Zm-7.07,5.05l2.51-.75-2.27-.24-.24,1Zm19.18,1.52l-2.02.24,1.25.76.76-1Zm50.49,13.63c-.51-.55-2.38,1.59-2.78,2.01-3.31,3.47-5.78,7.49-9.33,10.87-3.66,3.5-16.15,11.64-17.08,15.76-.23,1.02-.13,1.7.14,2.68,1.69,6.17,5.8,11.86,9.27,16.99.61.91,2.77,5.57,3.38,5.72.93.23.98-.77,1.23-1.29,2.72-5.66,3.18-14.65,4.72-21.03,1.52-6.3,3.76-14.91,5.76-21,1.23-3.73,3.21-7.1,4.69-10.7Zm-40.39,11.62l-2.52.51v1c.48-.12,3.01-1.13,2.52-1.51Zm2.84,83.01c-1.3-1.02-3.33-1.95-4.82-3.01s-4.25-3.8-5.59-4.51c-.61-.33-.9-.36-1.29.25-.96,1.51.36,7.98.26,10.36-.28,6.8-4.33,11.41-3.47,18.64.45,3.83,2.71,9.42,3.84,13.33,2,6.91,1.17,12.34,10.11,13.62,1.76.25,6.72.68,8.39.6.99-.05,6.64-1.66,6.85-2.31-.17-2.9-.93-6.72-.88-9.53.15-9.75,2.99-13-1.59-23.24-2.59-5.79-6.89-10.34-11.81-14.19Z"/>
      <path class="cls-1" d="m82.53,33.1l-1.42-.44-1.76,2.11.58,2.64-.79.34.37.91c-1.15.78-1.09-2.09-2.02-1-.66.76.93,2.71,2.02,2.53l-1.51,4.03-.25-4.05-1.01.52c-4.09-2.07.42-2.59.24-5.55l-2.02-1.02,1.44-.45.8,1.37,2.8-1.44-1.01-.5.51-.77,1.01.26-.5-1.51,2.28-.5.24,2.52Z"/>
      <path class="cls-1" d="m82.03,26.53l-1.04.29.53,2.24c-.73.26-.41-2-1.51-1-.19.17-.3,1.61,0,2.01l-1.46-.05-.59-1.66c1.46-.82,2.33-4.3,4.06-1.82Z"/>
      <path class="cls-1" d="m85.56,16.94l.51,4.55,1.25-3.03.76,3.53-1.51-.5c.85,1.44-1.6,2.72-2.02,1.02,3.57-.75-3.02-4.76,1-5.57Z"/>
      <polygon class="cls-1" points="89.61 5.32 90.12 3.31 91.37 4.31 93.13 1.79 92.92 4.35 89.61 5.32"/>
      <path class="cls-1" d="m87.74,16.29c.37.56,2.01.65,1.35,2.67l-1.26-2.02-.75,1c-.87-1.55-1.42-1.5-.51-3.53.77,0,.69,1.16,1.16,1.87Z"/>
      <path class="cls-1" d="m82.42,20.58c.54.23,2.22,2.51.11,1.66l-.5,2.27c.69-2.34-1.49-1.84-1.52-3.52.66.03,1.26-.68,1.9-.41Z"/>
      <path class="cls-1" d="m82.03,30.07c-.47-1.36.78-.88.91-1.07s-1.25-2.55.59-2.96c.29,1.62.9,3.93-1.51,4.04Z"/>
      <path class="cls-1" d="m87.58,10.37l.5-1.01c-.24,1.05.19,2.71-1,3.03l-.5-2.02-.5,3.02v-6.05s1.5,3.03,1.5,3.03Z"/>
      <polygon class="cls-1" points="73.96 27.04 75.46 26.53 75.46 28.05 72.44 27.28 73.44 27.05 73.95 25.53 73.96 27.04"/>
      <path class="cls-1" d="m76.98,44.21h-2.52s.51-2.02.51-2.02c.81.4,2.21.77,2.01,2.02Z"/>
      <polygon class="cls-1" points="77.48 32.59 76.45 31.33 77.24 30.07 77.48 32.59"/>
      <polygon class="cls-1" points="91.12 7.85 89.6 7.84 90.62 5.33 91.11 5.33 91.12 7.85"/>
      <polygon class="cls-1" points="86.07 35.12 86.07 36.13 84.05 36.13 84.06 35.12 86.07 35.12"/>
      <polygon class="cls-1" points="83.03 19.97 82.03 19.97 82.04 19.22 83.54 17.95 83.03 19.97"/>
      <path class="cls-1" d="m89.1,1.79c.76.76-1.5,2.15-1.5.75,0-.33,1.21-1.04,1.5-.75Z"/>
      <path class="cls-1" d="m87.58,29.56h-2.02s0-.5,0-.5c.97.08,1.71.09,1.52-1.01h.49s0,1.51,0,1.51Z"/>
      <polygon class="cls-1" points="79.5 44.72 79.5 45.72 77.49 45.72 77.49 44.72 79.5 44.72"/>
      <path class="cls-1" d="m75.46,31.58l.51,1.51c-.82.63-2.73-1.91-.51-1.51Z"/>
    </g>
  </g>
</svg>