<?xml version="1.0" encoding="UTF-8"?>
<svg id="Layer_2" data-name="Layer 2" xmlns="http://www.w3.org/2000/svg" viewBox="0 0 213.94 213.94">
  <defs>
    <style>
      .cls-1 {
        fill: #fff;
        stroke-width: 0px;
      }
    </style>
  </defs>
  <g id="Layer_1-2" data-name="Layer 1">
    <g>
      <g id="_Radial_Repeat_" data-name="&amp;lt;Radial Repeat&amp;gt;">
        <g id="_9qNEOA.tif" data-name="9qNEOA.tif">
          <g>
            <path class="cls-1" d="m125.09,79.13c2.62,3.32,5.46,6.5,7.78,10.01,1.87,2.84,3.28,6.03,4.59,9.2,1.46,3.54,3,7.14,3.75,10.86.99,4.92,1.78,10,1.74,15-.1,13.2-2.57,25.87-10.25,37.03-1.37,1.98-2.8,3.92-4.09,5.95-5.17,8.18-12.41,14.27-20.77,18.68-7.64,4.03-15.86,7.21-24.57,8.12-8.3.87-16.72.68-24.92-.91-4.07-.79-7.85-3.07-11.77-4.66-7.27-2.95-13.86-7.03-19.4-12.58-3.16-3.16-5.72-6.93-8.78-10.2-5.96-6.38-8.94-14.38-11.02-22.45-1.68-6.53-1.47-13.56-1.84-20.38-.04-.68,1.82-2.18,2.67-2.09,7.68.81,15.32,1.93,22.99,2.88,8.05,1,16.11,1.83,24.15,2.89,3.62.48,7.18,1.47,10.79,1.99,7.18,1.02,14.38,1.92,21.58,2.79,7.95.96,15.97,1.55,23.86,2.87,3.84.64,6.09.19,6.98-3.87,1.44-6.59,3.56-13.08,4.42-19.74.96-7.39.91-14.91,1.14-22.38.05-1.69-.64-3.39-.84-5.1-.13-1.12,0-2.26.02-3.4.59-.17,1.18-.34,1.77-.51Zm-5.39,62.19c-6.18-.9-12.06-2.26-17.97-2.44-4.37-.13-8.57-1.45-13.11-.87-3.8.49-7.85-.86-11.77-1.47-1.29-.2-2.52-.77-3.8-.92-3.46-.42-6.96-1.05-10.41-.93-2.56.09-6-2.63-7.66,1.76-1.18,3.13-2.62,6.16-3.63,9.34-1.09,3.41-1.82,6.94-2.79,10.71,1.12.01,1.65.15,2.06,0,8.76-3.25,17.21-7.03,24.47-13.15,1.42-1.2,3.86-1.72,5.8-1.65,3.53.12,7.02,1.05,10.56,1.41,6.31.64,12.63,1.08,18.94,1.67,5.14.49,6,2.09,3.59,6.57-.38.7-1.03,1.26-1.59,1.84-3.23,3.37-7.16,6.3-9.5,10.2-2.36,3.94-5.83,6.03-9.25,8.42-3.1,2.17-6.26,4.27-9.56,6.12-3.85,2.16-7.73,4.44-11.87,5.86-4.23,1.44-8.79,1.9-13.21,2.78,24.44,4.18,45.98-.84,62.78-20.24,9.07-10.48,14.25-22.8,15.31-36.66.9-11.77-1.77-22.96-6.59-33.94,0,16.37-2.61,31.87-10.8,45.59Zm-72.21,39.93c24.67-.9,43.6-11.88,58.57-29.69-.6-.06-1.46-.07-2.3-.23-2.99-.55-5.97-1.19-8.97-1.7-2.92-.49-5.98-.48-8.77-1.35-5.42-1.69-7.9-1.23-11.75,3.02-3.41,3.77-7.71,6.15-12.46,7.78-3.72,1.27-6.78,4.34-11.21,3.84-.66-.07-2.13,1.79-2.23,2.85-.48,5.06-.61,10.16-.88,15.49Zm-31.2-30.89c.51-.12,1.03-.24,1.54-.36-.08-2.38-.45-4.8-.18-7.13.43-3.58,1.4-7.08,1.92-10.65.13-.87-.38-2.49-.96-2.68-2.24-.74-4.62-1.06-6.97-1.46-.15-.03-.62.61-.58.88.73,4.35,1.36,8.72,2.36,13.01.67,2.87,1.88,5.61,2.85,8.4Z"/>
            <path class="cls-1" d="m100.21,122.74c-2.75,2.41-4.57,4.65-8.3,3.5-3.23-1-6.73-1.21-10.13-1.57-6.04-.62-12.11-.94-18.13-1.67-3.81-.46-7.59-1.29-11.33-2.21-3.38-.84-7.07.83-10.27-1.44-.39-.27-1.34.4-1.98.3-4-.65-8.02-2.16-11.95-1.95-6.1.32-11.66-2.67-17.75-2.05-2.5.26-4.28-3.14-3.34-5.76,3.84-10.81,8.07-21.43,15.89-30.16,5.29-5.91,11.4-10.85,18.44-14.45,5.42-2.77,10.96-5.99,16.82-7.09,7.36-1.39,15.1-1.15,22.66-1.04,7.93.11,15.51,2.32,22.43,6.21,1.95,1.1,3.95,3.14,4.68,5.19,2.3,6.43,1.87,13.12,1.7,19.92-.2,7.85-1.6,15.28-4.03,22.56-1.42,4.24-3.75,8.18-5.41,11.71Zm-65.18-44.93c-.95.22-2.1.14-2.63.67-1.94,1.93-3.78,3.99-5.45,6.16-3.3,4.29-6.81,8.47-8.98,13.5-1.21,2.81-1.83,5.95-3.37,8.55-1.73,2.92-.73,3.37,1.99,3.6,2.57.22,5.13.74,7.66,1.28,2.2.48,3.75-.11,4.99-2.03,2.62-4.03,5.13-8.16,8.09-11.93,10.84-13.81,24.49-23.56,41.61-28.16,4.16-1.11,8.27-2.39,12.4-3.59-.05-.48-.11-.96-.16-1.45-6.71-.5-13.5-1.86-20.1-1.26-6.58.6-13.57.07-19.71,3.71-5.54,3.29-12.26,4.45-16.74,9.94-.06-.16.16.4.4,1Zm68.79,18.31c-14.04,3.76-24.98,10.21-34.16,20.39,1.16.57,1.68.99,2.24,1.07,6.5.96,13.01,1.92,19.52,2.77,2.3.3,4.16-.5,4.99-2.89,2.35-6.78,4.7-13.56,7.4-21.34Z"/>
          </g>
        </g>
      </g>
      <g id="_Radial_Repeat_-2" data-name="&amp;lt;Radial Repeat&amp;gt;">
        <g id="_9qNEOA.tif-2" data-name="9qNEOA.tif">
          <g>
            <path class="cls-1" d="m122.02,136.58c-4.19.6-8.35,1.48-12.56,1.73-3.4.2-6.87-.17-10.26-.62-3.8-.5-7.68-.97-11.28-2.19-4.76-1.6-9.55-3.46-13.86-6-11.38-6.69-21.12-15.16-26.94-27.39-1.03-2.17-1.99-4.39-3.11-6.51-4.5-8.57-6.15-17.88-5.8-27.33.33-8.63,1.69-17.34,5.25-25.33,3.4-7.62,7.78-14.82,13.25-21.13,2.72-3.13,6.59-5.26,9.92-7.86,6.19-4.83,13.02-8.48,20.59-10.51,4.32-1.16,8.86-1.49,13.22-2.5,8.51-1.97,16.92-.56,24.95,1.68,6.49,1.81,12.48,5.51,18.57,8.6.61.31.98,2.66.48,3.36-4.54,6.25-9.33,12.31-13.99,18.47-4.89,6.47-9.64,13.04-14.58,19.47-2.23,2.9-4.86,5.48-7.12,8.35-4.48,5.71-8.86,11.49-13.21,17.3-4.81,6.41-9.33,13.05-14.41,19.23-2.47,3-3.21,5.18-.13,7.98,4.98,4.55,9.55,9.62,14.88,13.7,5.92,4.53,12.46,8.24,18.82,12.18,1.44.89,3.25,1.14,4.84,1.82,1.03.44,1.96,1.13,2.93,1.71-.15.6-.3,1.19-.45,1.79Zm-51.16-35.76c3.87-4.9,7.98-9.31,11.09-14.34,2.3-3.72,5.54-6.69,7.31-10.92,1.48-3.53,4.67-6.36,7.16-9.46.81-1.01,1.92-1.8,2.7-2.83,2.09-2.79,4.39-5.5,6.01-8.55,1.2-2.26,5.28-3.89,2.3-7.51-2.12-2.58-4.03-5.35-6.27-7.81-2.41-2.65-5.1-5.05-7.88-7.77-.57.97-.96,1.35-1.03,1.79-1.56,9.21-2.52,18.41-.85,27.76.33,1.83-.44,4.2-1.47,5.85-1.87,3-4.42,5.56-6.5,8.44-3.71,5.14-7.25,10.4-10.92,15.57-2.99,4.21-4.81,4.16-7.48-.18-.42-.67-.57-1.52-.8-2.29-1.3-4.48-1.88-9.35-4.08-13.33-2.23-4.02-2.31-8.06-2.66-12.22-.32-3.77-.57-7.56-.52-11.34.06-4.41.02-8.92.86-13.21.86-4.38,2.75-8.56,4.19-12.83-15.84,19.07-22.26,40.24-13.86,64.49,4.54,13.09,12.62,23.74,24.1,31.59,9.75,6.66,20.76,9.95,32.69,11.27-14.17-8.19-26.3-18.19-34.08-32.15Zm1.52-82.5c-11.55,21.82-11.51,43.7-3.57,65.57.35-.49.8-1.23,1.35-1.88,1.97-2.32,4.02-4.57,5.96-6.92,1.88-2.28,3.4-4.93,5.55-6.92,4.17-3.85,5.02-6.23,3.26-11.68-1.56-4.84-1.47-9.75-.5-14.68.76-3.85-.37-8.04,2.28-11.63.4-.53-.49-2.74-1.36-3.36-4.15-2.94-8.49-5.61-12.97-8.5Zm42.35-11.57c-.15.51-.3,1.01-.46,1.52,2.1,1.12,4.38,2,6.27,3.41,2.88,2.16,5.44,4.75,8.27,6.99.69.54,2.35.91,2.8.51,1.76-1.57,3.23-3.48,4.75-5.3.1-.12-.22-.84-.47-.94-4.13-1.54-8.24-3.18-12.45-4.46-2.82-.85-5.8-1.17-8.7-1.73Z"/>
            <path class="cls-1" d="m96.69,93.22c-.71-3.59-1.74-6.28,1.12-8.93,2.48-2.3,4.42-5.22,6.42-7.99,3.56-4.92,6.87-10.02,10.51-14.87,2.3-3.07,4.91-5.93,7.58-8.7,2.41-2.51,2.82-6.54,6.38-8.18.43-.2.32-1.36.73-1.86,2.56-3.13,5.88-5.87,7.66-9.38,2.77-5.45,8.14-8.76,10.65-14.35,1.03-2.3,4.86-2.13,6.66-.01,7.44,8.73,14.53,17.7,18.17,28.84,2.47,7.54,3.7,15.3,3.29,23.19-.31,6.08-.3,12.49-2.27,18.11-2.47,7.07-6.55,13.65-10.43,20.15-4.06,6.82-9.76,12.28-16.6,16.32-1.93,1.14-4.69,1.85-6.83,1.46-6.72-1.22-12.3-4.94-18.1-8.49-6.7-4.09-12.44-9.02-17.53-14.77-2.97-3.35-5.21-7.34-7.44-10.54Zm71.5-33.99c.28-.93.93-1.88.73-2.62-.71-2.64-1.56-5.27-2.61-7.8-2.06-5-3.93-10.13-7.2-14.52-1.83-2.46-4.24-4.56-5.72-7.19-1.66-2.96-2.55-2.32-4.11-.08-1.48,2.12-3.2,4.07-4.94,5.99-1.51,1.67-1.78,3.3-.74,5.34,2.18,4.28,4.5,8.52,6.28,12.97,6.54,16.29,8.16,32.99,3.58,50.12-1.11,4.16-2.06,8.36-3.09,12.54.44.19.89.39,1.33.58,3.79-5.56,8.36-10.76,11.15-16.78,2.77-6,6.73-11.79,6.64-18.92-.08-6.45,2.27-12.84-.24-19.46.17.02-.42-.06-1.07-.15Zm-50.25,50.42c3.76-14.04,3.65-26.74-.58-39.78-1.07.72-1.69.96-2.05,1.41-4.08,5.15-8.17,10.3-12.16,15.52-1.41,1.84-1.65,3.86,0,5.77,4.69,5.43,9.39,10.86,14.78,17.08Z"/>
          </g>
        </g>
      </g>
      <g id="_Radial_Repeat_-3" data-name="&amp;lt;Radial Repeat&amp;gt;">
        <g id="_9qNEOA.tif-3" data-name="9qNEOA.tif">
          <g>
            <path class="cls-1" d="m73.8,105.19c1.57-3.93,2.9-7.97,4.78-11.74,1.53-3.04,3.58-5.86,5.67-8.57,2.33-3.04,4.69-6.17,7.53-8.68,3.77-3.32,7.77-6.54,12.12-9,11.48-6.51,23.69-10.71,37.19-9.64,2.4.19,4.79.47,7.2.56,9.67.39,18.56,3.61,26.57,8.64,7.31,4.6,14.17,10.13,19.31,17.22,4.9,6.76,8.95,14.14,11.67,22.04,1.35,3.92,1.26,8.34,1.85,12.52,1.08,7.77.84,15.52-1.19,23.09-1.16,4.32-3.14,8.41-4.45,12.7-2.55,8.36-7.98,14.93-13.93,20.77-4.81,4.72-11.01,8.05-16.73,11.78-.57.37-2.8-.48-3.14-1.27-3.14-7.05-5.99-14.23-9-21.35-3.16-7.47-6.47-14.87-9.57-22.36-1.4-3.38-2.31-6.95-3.68-10.34-2.7-6.73-5.53-13.42-8.37-20.09-3.14-7.37-6.64-14.6-9.45-22.1-1.36-3.64-2.88-5.37-6.85-4.11-6.43,2.04-13.1,3.46-19.3,6.04-6.88,2.86-13.37,6.67-19.95,10.21-1.49.8-2.62,2.25-4,3.28-.9.67-1.96,1.13-2.95,1.68-.44-.43-.88-.86-1.33-1.28Zm56.55-26.42c2.31,5.8,4.07,11.57,6.87,16.78,2.07,3.85,3.02,8.15,5.8,11.79,2.32,3.05,3.18,7.22,4.62,10.93.47,1.21.6,2.56,1.1,3.76,1.37,3.21,2.57,6.55,4.4,9.48,1.36,2.17.73,6.51,5.36,5.75,3.3-.54,6.65-.82,9.9-1.53,3.5-.76,6.92-1.89,10.67-2.94-.55-.98-.69-1.5-1.03-1.79-7.19-5.96-14.69-11.39-23.62-14.62-1.75-.63-3.42-2.48-4.33-4.2-1.66-3.12-2.6-6.61-4.05-9.85-2.6-5.78-5.39-11.48-8.03-17.24-2.15-4.7-1.2-6.24,3.89-6.39.79-.02,1.6.26,2.39.45,4.53,1.11,9.04,3.05,13.58,3.13,4.59.08,8.13,2.03,11.91,3.8,3.43,1.6,6.83,3.29,10.08,5.22,3.79,2.26,7.71,4.47,11.01,7.35,3.36,2.94,6.04,6.67,9.01,10.05-8.6-23.25-23.72-39.4-48.92-44.25-13.61-2.62-26.87-.94-39.4,5.07-10.64,5.11-19,13.01-26.1,22.67,14.18-8.18,28.91-13.68,44.88-13.44Zm70.69,42.57c-13.12-20.91-32.09-31.81-55-35.87.25.55.67,1.3.95,2.11,1.02,2.87,1.95,5.77,3.01,8.62,1.03,2.77,2.57,5.42,3.22,8.27,1.25,5.54,2.88,7.46,8.49,8.67,4.97,1.07,9.19,3.6,12.97,6.91,2.96,2.59,7.15,3.7,8.93,7.79.27.61,2.61.95,3.58.5,4.62-2.12,9.1-4.55,13.85-6.98Zm-11.15,42.46c-.36-.39-.73-.77-1.09-1.16-2.02,1.26-3.93,2.79-6.09,3.72-3.31,1.42-6.83,2.33-10.18,3.66-.81.32-1.97,1.58-1.84,2.17.48,2.31,1.4,4.53,2.22,6.76.05.14.84.23,1.05.06,3.4-2.81,6.87-5.54,10.09-8.55,2.15-2.01,3.91-4.43,5.85-6.67Z"/>
            <path class="cls-1" d="m124.01,104.94c3.46,1.18,6.31,1.64,7.18,5.43.75,3.3,2.31,6.43,3.71,9.55,2.48,5.54,5.24,10.96,7.62,16.54,1.51,3.53,2.68,7.22,3.75,10.92.96,3.34,4.25,5.71,3.89,9.61-.04.47,1.02.96,1.25,1.56,1.43,3.79,2.14,8.02,4.29,11.33,3.33,5.12,3.52,11.43,7.1,16.4,1.47,2.04-.58,5.27-3.32,5.78-11.29,2.08-22.6,3.73-34.06,1.32-7.76-1.63-15.1-4.45-21.73-8.74-5.11-3.31-10.67-6.5-14.55-11.02-4.89-5.68-8.54-12.5-12.24-19.11-3.87-6.93-5.75-14.59-5.84-22.53-.03-2.24.74-4.99,2.15-6.65,4.41-5.21,10.43-8.18,16.4-11.43,6.89-3.75,14.03-6.26,21.55-7.79,4.38-.89,8.96-.85,12.85-1.17Zm-6.32,78.92c.66.71,1.17,1.75,1.9,1.94,2.64.71,5.34,1.28,8.06,1.64,5.36.71,10.74,1.66,16.18,1.03,3.04-.36,6.06-1.39,9.09-1.35,3.39.04,3.28-1.05,2.13-3.52-1.09-2.34-1.93-4.81-2.72-7.27-.69-2.14-1.97-3.19-4.25-3.31-4.8-.25-9.63-.36-14.38-1.04-17.38-2.48-32.65-9.43-45.19-21.96-3.04-3.04-6.21-5.96-9.31-8.94-.39.29-.78.57-1.17.86,2.92,6.06,5.13,12.62,8.96,18.04,3.81,5.4,6.84,11.72,13.07,15.21,5.63,3.15,9.99,8.39,16.98,9.52-.11.14.26-.34.67-.85Zm-18.53-68.73c10.28,10.28,21.33,16.53,34.74,19.39-.09-1.28.02-1.94-.19-2.48-2.42-6.11-4.84-12.22-7.36-18.29-.89-2.14-2.52-3.35-5-2.88-7.05,1.35-14.1,2.71-22.18,4.26Z"/>
          </g>
        </g>
      </g>
    </g>
  </g>
</svg>