<?xml version="1.0" encoding="UTF-8"?>
<svg id="Layer_2" data-name="Layer 2" xmlns="http://www.w3.org/2000/svg" viewBox="0 0 221.39 265.33">
  <defs>
    <style>
      .cls-1 {
        fill: #fff;
        stroke-width: 0px;
      }
    </style>
  </defs>
  <g id="Layer_1-2" data-name="Layer 1">
    <path class="cls-1" d="m221.38,16.09v-.31c.03-1.3-.07-2.63-.96-3.54-.9-.92-2.28-1.05-3.51-1.05h-.02c-5.19,0-10.38.01-15.59.02.72-1.28.77-3.2.84-6.44v-.34c.03-1.18-.06-2.5-.94-3.4-.88-.9-2.18-1.02-3.47-1.02h-.02c-41.22.05-82.99.06-123.95.06-9.18,0-18.33,0-27.41,0-9.27,0-18.53,0-27.8,0C14.34.06,12.23.06,10.89,1.33c-1.35,1.29-1.38,3.36-1.46,7.48v.27c-.02.71.02,1.48.27,2.16-.06,0-.11,0-.17,0-4.4,0-6.6,0-7.99,1.32C.15,13.89.11,16.04.04,20.31v.25c-.02,1.16.07,2.47.94,3.36.12.12.25.23.38.32C.16,25.51.12,27.5.03,31.35v.33c-.03,1.18.06,2.52.94,3.42.16.16.33.3.52.41C.11,36.89.09,39.14.04,43.56v.2c-.01,1.05.09,2.23.9,3.05.8.81,1.96.93,3,.93.02,0,.03,0,.05,0,1.93,0,3.87-.01,5.8-.02-.12.24-.21.51-.23.79-.19,2.61-.19,5.22.01,7.76.06.76.68,1.45,1.41,1.92-.01.01-.03.03-.04.04-1.41,1.35-1.44,3.53-1.51,7.87v.24c-.02,1.13.08,2.4.92,3.26.03.03.05.05.08.07-.4.38-.71.84-.83,1.33-.24,1.01-.2,2.01-.15,2.99.02.37.03.73.03,1.07,0,.34-.02.7-.03,1.07-.04.97-.09,1.97.14,2.97.15.65.69,1.4,1.36,1.91,0,0,0,0-.01.01-1.38,1.31-1.42,3.42-1.51,7.63v.32c-.02.79.02,1.65.3,2.4-.19,0-.38,0-.57,0-4.21,0-6.33,0-7.67,1.28-1.35,1.29-1.39,3.36-1.46,7.47v.27c-.02,1.12.07,2.37.92,3.23.14.14.29.26.45.37-1.25,1.32-1.29,3.43-1.38,7.5v.32c-.03,1.18.06,2.5.95,3.4.13.14.28.25.43.35-.01.01-.03.02-.04.04-1.39,1.43-1.31,3.7-1.17,8.22.05,1.45,2.01,3.41,3.45,3.44,2.08.03,4.18.06,6.27.07-.18.27-.31.58-.34.95-.2,2.56-.2,5.24,0,7.99.05.74.62,1.48,1.31,1.99-1.32,1.25-1.37,3.25-1.45,7.22v.33c-.03.79.01,1.65.3,2.4h-.93c-3.98,0-5.98,0-7.27,1.2-1.31,1.22-1.37,3.15-1.5,6.99l-.02.5c-.06,1.84.26,3.02,1.04,3.83.93.97,2.29,1.17,4.04,1.17h.03c1.55,0,3.09,0,4.63,0-.09.2-.16.41-.17.64-.2,2.56-.2,5.18,0,7.76.05.7.53,1.29.89,1.64-.46.39-.88.92-.91,1.57-.02.44-.05.89-.07,1.34-.13,2.36-.27,4.8.15,7.18.02.09.03.17.04.23-.03,0-.05,0-.08,0h-.11c-4.39.02-6.59.04-7.98,1.41-1.38,1.37-1.41,3.56-1.47,7.94v.25c-.02.96.07,2.15.81,3-.76.83-.83,2.01-.81,2.94.15,5.63.15,11.29,0,16.84-.03,1.01.05,2.28.89,3.14.13.13.26.24.4.34-1.17,1.26-1.21,3.25-1.3,7.06v.33c-.03,1.18.06,2.51.94,3.41.16.16.33.3.52.41-1.42,1.42-1.43,3.74-1.44,8.34v.17c0,.91.09,2.05.88,2.84.77.77,1.85.88,2.82.88.02,0,.03,0,.05,0,1.98,0,3.97-.01,5.96-.02-.1.21-.16.42-.18.63-.19,2.53-.19,5.21,0,7.97.05.72.58,1.31,1.01,1.68.09.08.21.17.34.26-1.38,1.35-1.42,3.53-1.49,7.86v.27c-.02,1.11.07,2.36.92,3.22.85.86,2.14.97,3.28.97,19.24-.05,38.72-.05,57.9-.05,6.27,0,12.51,0,18.69,0,6.3,0,12.61,0,18.91,0h68.81s.47.99.47.99l-.02-.99h21.55c4.08,0,6.13,0,7.44-1.24,1.32-1.25,1.37-3.25,1.45-7.22v-.33c.03-1.2-.06-2.71-1.06-3.73-.99-1.01-2.48-1.15-3.8-1.15h-.02c-41.82.05-84.2.05-125.79.05-9.93,0-19.83,0-29.65,0-9.85,0-19.69,0-29.54,0-1.51,0-2.76,0-3.81.05.09-.17.16-.34.21-.52.25-1.01.2-2.01.15-2.99-.02-.37-.03-.73-.03-1.07,0-.34.02-.7.03-1.07.04-.97.09-1.97-.14-2.97h0c-.05-.22-.13-.43-.24-.63,9.57-.02,19.15-.01,28.51-.01,3.93,0,7.86,0,11.79,0h45.62c4.4,0,6.61,0,8.02-1.33,1.42-1.34,1.52-3.53,1.71-7.88,0-.03,0-.06,0-.08.28-.92.33-1.7.16-2.34,10.78,0,21.53,0,32.23,0,9.61,0,19.18,0,28.69,0,9.73,0,19.45,0,29.18,0,4.21,0,6.32,0,7.66-1.28,1.35-1.29,1.39-3.36,1.46-7.47v-.27c.02-1.11-.07-2.37-.92-3.23-.85-.87-2.13-.98-3.27-.98-.6,0-1.19,0-1.79,0,.22-.7.21-1.44.16-2.01-.18-2.08-.11-4.24-.04-6.34,0-.23.01-.46.02-.7,1.32.14,2.32-.12,3.03-.78,1.11-1.03,1.12-2.71.99-4.05-.16-1.77-.16-3.3,0-4.67.11-.91.16-2.24-.69-3.19-.85-.96-2.17-1.09-3.48-1.09h-.04c-.5,0-1,0-1.5,0,.75-1.48.6-3.63.45-5.87-.07-1.06-.15-2.15-.11-3.07.06-.09.2-.25.29-.35.08-.09.17-.19.25-.29.2-.25.46-.5.74-.77.69-.67,1.47-1.43,1.69-2.47.24-1.1.19-2.19.14-3.25-.03-.78-.07-1.51.02-2.2.12-.99.17-2.41-.72-3.41-.9-1.01-2.35-1.14-3.65-1.14h-.02c-52.89.06-106.67.06-158.68.06-9.29,0-18.59,0-27.88,0,.09-.17.16-.34.2-.52.24-1.01.19-2.01.15-2.98-.02-.37-.03-.73-.03-1.07,0-.34.02-.7.03-1.07.04-.97.09-1.97-.14-2.98-.04-.18-.11-.36-.21-.54,69.81-.07,128.61-.06,184.3.03h.35c.17,0,.34,0,.51,0,2.35,0,4.53-.09,5.89-1.6.96-1.07,1.32-2.67,1.08-4.88-.02-.18.03-.46.08-.73.02-.09.03-.18.05-.27.2-1.21.35-2.91-.43-4.23,3.26-.02,5.03-.16,6.2-1.28,1.35-1.29,1.39-3.36,1.46-7.47v-.27c.02-1.11-.07-2.37-.92-3.23-.84-.86-2.1-.98-3.23-.98-.01,0-.03,0-.04,0-26.3.06-53.03.06-78.89.05-6.44,0-12.87,0-19.31,0H18.33c-1.23,0-2.27,0-3.16.03.1-.19.18-.39.22-.58.23-1.05.18-2.1.14-3.12-.02-.4-.03-.77-.03-1.14,0-.35.02-.7.04-1.07.05-.97.1-1.98-.15-2.99-.07-.3-.2-.56-.35-.79,2.07,0,4.14,0,6.2,0s4.04,0,6.03,0c2.03,0,4.07,0,6.1,0h26.6c3.13,0,4.69,0,5.77-1.04,1.07-1.04,1.13-2.61,1.24-5.74v-.03c.01-.25.09-.55.17-.86.07-.28.16-.6.2-.94.13-.88.19-1.78-.06-2.56,25.37-.01,50.71-.01,75.78-.01,9.56,0,19.09,0,28.56,0,9.67,0,19.34,0,29.01,0,4.43,0,6.65,0,8.05-1.34,1.4-1.35,1.44-3.53,1.51-7.88v-.27c.02-1.08-.07-2.28-.86-3.14.1-.08.2-.16.3-.25,1.32-1.25,1.37-3.25,1.46-7.22v-.33c.03-.79-.01-1.65-.3-2.4.34,0,.68,0,1.02,0,.78,0,1.49,0,2.14,0l.34,2.12.36-2.13c2.62-.06,4.16-.3,5.22-1.32,1.4-1.35,1.44-3.53,1.51-7.88v-.26c.02-1.11-.07-2.37-.92-3.23-.85-.86-2.13-.98-3.27-.98-27.28.06-55.02.06-81.85.05-6.57,0-13.13,0-19.7,0H18.78c-1.41,0-2.59,0-3.58.05.12-.23.2-.47.21-.7.19-2.53.19-5.22,0-7.98-.01-.18-.06-.36-.12-.52,25.61-.06,51.61-.06,76.77-.05,6.48,0,12.96,0,19.44,0,4.56,0,6.85,0,8.25-1.4,1.39-1.4,1.38-3.65,1.37-8.13v-.13c0-.99-.12-2.23-.96-3.07-.86-.85-2.13-.95-3.01-.94-13.14.06-26.51.06-39.43.05-4.07,0-8.13,0-12.2,0H19.02c-1.51,0-2.76,0-3.81.05.08-.17.15-.33.18-.49.21-1,.17-1.99.13-2.95-.02-.37-.03-.72-.03-1.07,0-.34.02-.69.04-1.07.05-.98.1-1.99-.16-3-.06-.22-.15-.43-.27-.64,12.8-.03,25.66-.02,38.18-.02,4.67,0,9.34,0,14.02,0h59.73c3.31,0,4.96,0,6.09-1.05,1.14-1.06,1.22-2.69,1.39-5.93h0c.02-.35.08-.71.17-1.07.27-1.02.53-2.42.03-3.58,15.12,0,30.16,0,45.07,0,9.92,0,19.84,0,29.76,0,4.21,0,6.33,0,7.66-1.28,1.35-1.29,1.39-3.36,1.46-7.47v-.27c.02-.85-.03-1.78-.44-2.56.66-.19,1.18-.47,1.62-.89,1.37-1.29,1.42-3.37,1.5-7.51ZM3.14,189.87h0,0Zm-.37-2.91h0s0,0,0,0Zm27.29,11.19h0s0,0,0,0Zm43.43-46.33h0s0,0,0,0Zm-56.93-63.68h0s0,0,0,0h0Zm-4.39-1.64h0s0,0,0,0h0Zm110.53,23.63h0s0,0,0,0Zm15.82-90.97h0s0,0,0,0Zm64.35.35h0s0,0,0,0h0Zm-1.02-2.76h0s0,0,0,0Zm11.17.87c.19.16.44.46.6.63.04.04.08.09.12.13l-.21.83-1.02-1.04c.16-.19.37-.42.52-.55ZM19.18,2.97h0s0,0,0,0Zm-.3,1.44h0s0,0,0,0Zm.39-1.22h0s0,0,0,0Zm46.48,1.53h0s0,0,0,0t0,0Zm.22-.11h0s0,0,0,0h0Zm124.83,3.52h0s0,0,0,0Zm-.52-4.48h0s0,0,0,0Zm.65,4.09h0s0,0,0,0h0Z"/>
  </g>
</svg>