<?xml version="1.0" encoding="UTF-8"?>
<svg id="Layer_2" data-name="Layer 2" xmlns="http://www.w3.org/2000/svg" viewBox="0 0 77.03 112.57">
  <defs>
    <style>
      .cls-1 {
        fill: #fff;
        stroke-width: 0px;
      }
    </style>
  </defs>
  <g id="Layer_1-2" data-name="Layer 1">
    <path class="cls-1" d="m76.7,33.86c-1.97-3.22-3.18-6.98-3.36-10.97-.04-.98,0-1.95.11-2.9-.17.02-.36.03-.52.06.07-.27.07-.7.23-.77.18-.08.31-.16.43-.25.06-.34.13-.67.2-1-.12-.14-.28-.29-.5-.45-.16-.11-.1-.64-.01-.94.06-.22.52-.49.48-.55-.66-1.1-.18-2.3-.36-3.4-.13-.75-.41-1.23.34-1.79.33-.25.44-.8.68-1.29-.47-.16-.8-.28-1.07-.38.63-.86,1.22-1.66,1.8-2.47.06-.09.09-.3.03-.37-.67-.81-.56-1.32-.21-1.72-.49-.51-.95-1.04-1.38-1.6-.89.69-1.82,1.32-2.8,1.87-.18.27-.37.52-.49.81-.59,1.4-1.39,2.81-.98,4.54-.17.02-.43.06-.37.05,0,2.13-.11,4.18.01,6.21.07,1.09.5,2.17.83,3.23.04.13.45.15.74.23-.47,1.14-1.44,2.15-.66,3.56.16.3-.29.93-.29,1.72.21-.31.42-.63.62-.94.41,1.52-.43,1.96-1.15,2.46-.23.16-.68.21-.74.4-.29.98-.8,1.04-1.65.24.13,1.34.22,2.23-1.48,1.54-1.07-.43-2.65,1.33-3.11,2.54-.39,1.04-1.23,1.91-1.87,2.86-.23.34-.48.68-.79,1.11-.19-.35-.36-.66-.62-1.14-.49.26-.95.55-1.45.75-.31.12-.67.15-1.01.15-.29,0-.65-.26-.87-.16-1.9.91-2.71.21-3.43-1.68-.47-1.24-1.8-2.16-2.75-3.23-.26-.3-.52-.61-.85-1.01,1.05-.43,2.04-.81.6-1.73-.07-.04-.16-.19-.15-.2,1.14-.99-.29-2.45.74-3.6.67-.75,1.81-1.66,1.04-3.07-.08-.14.11-.46.22-.68.07-.16.33-.34.29-.41-.56-1.27-.04-2.59-.24-3.87-.05-.29-.27-.7-.16-.84,1.24-1.55-.22-2.25-.91-3.23-.19-.27-.26-.95-.09-1.08.75-.6.62-1.01,0-1.6-.17-.16-.13-.85.07-1.07.74-.79,1.58-1.48,2.01-1.87.2.01.37.03.55.04-3.06-1.35-5.71-3.42-7.79-6-.87.02-1.75.29-2.16.8-.25.31-.35.91-.24,1.29.41,1.42,1.02,2.78,1.39,4.21.38,1.49.57,3.03.82,4.55.14.87.08,1.82.4,2.62.91,2.34.74,4.73.12,6.99-.54,1.95-.58,3.9-.82,5.85-.19,1.53-.41,3.06-.74,4.56-.13.56-.72,1.01-.92,1.57-.9,2.55-2.61,4.47-4.66,6.12-.29.23-.9.26-1.28.13-.52-.18-.96-.6-1.6-1.03.2-.29.48-.65.68-1.04.15-.3.27-.65.26-.98-.02-.75-.13-1.5-.2-2.25l.54-.18c-.84-1.07-1.68-2.14-2.57-3.28-.87.65-1.71,1.12-2.36,1.78-1.29,1.32-.75,3.08-1.01,4.66-.13.79-.66,1.54-1.16,2.2-.09.12-.89-.29-1.37-.46-.65.19-1.38.4-2.23.65-.14.24-.35.62-.62,1.09-1.01-1.16-1.88-2.16-2.8-3.22.17-.13.38-.21.48-.37.49-.77,1.44-1.66,1.3-2.32-.2-.95-.47-1.68.36-2.32-.63-1.04-1.21-1.98-1.62-2.65.26-.75.78-1.59.59-1.8-.45-.51-1.23-.95-1.88-.96-.37,0-.99.86-1.08,1.4-.21,1.26-.16,2.55-.22,3.84-.11,2.5-.23,5-.34,7.5-.04.89-1.37,2.17-1.86,1.76-1.11-.91-2.07,1.01-3.06-.07-.21.46-.34.76-.46,1.02-.5-.23-.94-.64-1.33-.59-1.62.19-3.22.52-4.9.82-.13.33-.31.76-.36.9-.82.15-1.37.21-1.89.35-.93.24-1.89.82-2.77.71-1.2-.14-1.81.41-2.11,1.25-.45,1.28-.64,2.64-.91,3.82,1.32.68,2.62,1.35,3.91,2.02.61-.47,1.33-1.02,2.34-1.8-.92,2.31-2.78,3.58-3.09,5.82-.14,1.07,0,1.9.67,2.49.43.38,1.27.28,1.97.41.01.12.06.47.1.82.32-.14.65-.27.97-.42.2-.09.44-.18.55-.34.99-1.37,3.38-2.01,2.33-4.45-.05-.12.04-.39.15-.47,1.05-.73.93-1.45-.18-2.16,1.05-1.06,2-2.02,2.96-2.98.13.1.26.2.38.3-.25.42-.71.84-.7,1.26,0,.56.39,1.12.58,1.69.03.1-.03.27-.1.37-.91,1.34-1.1,2.79-.57,4.34-.37.17-.67.3-.8.36-.09.71-.02,1.33-.27,1.76-.5.85-.05,1.81-.79,2.78-1.04,1.37-1.24,3.35-2.04,4.95-.86,1.72-2.01,3.29-3.04,4.93-1.1-.5-1.22-.41-1.4,1.19-.3-.2-.56-.37-.78-.53-.56.55-1.21.95-1.52,1.54-.48.9-1.94,1.06-1.59,2.72.21,1.01,0,2.13.47,3.22.53,1.2,1.11,2.5,1.14,3.77.04,1.98-.59,3.93-.55,5.97.03,1.28.55,1.91,1.47,2.48q1.8-1.95.73-3.39c.86-.67,1.71-1.33,2.72-2.12,0,.01.02-.3.04-.62.68.29,1.26.53,1.83.78.17-.08.34-.15.52-.22-1.56-1.06-.99-1.68-.09-2.52.43-.39,1.7-.83.93-1.84-.66-.88-.44-1.37.34-1.94.48-.35.92-.82,1.24-1.32.14-.22.02-.85-.18-.97-.58-.36-.65-.58-.13-1.07.99-.93,2.33-1.76,1.29-3.48-.08-.14.13-.57.32-.74.69-.59.84-1.07,0-1.68-.16-.12-.17-.8,0-.99.8-.9,1.71-1.7,2.52-2.6.21-.23.37-.73.27-1-.5-1.27,1.09-2.61-.17-3.83-.02-.02.05-.19.11-.22,1.47-.81.8-1.61-.1-2.34.81-.84,1.56-1.61,2.31-2.39-.07-.15-.13-.26-.19-.37-.24-.38-.77-.94-.67-1.1.45-.71,1.08-1.31,1.67-1.92.06-.06.41.02.47.13.36.6.92,1.21.94,1.84.07,1.8-.07,3.62-.14,5.42-.09,2.5-.18,5-.3,7.5-.04.74-.2,1.47-.26,2.21-.18,2.46-.29,4.92-.54,7.37-.07.65-.56,1.25-.83,1.88-.38.87-.74,1.74-1.11,2.61-.17.39-.39.77-.51,1.18-.48,1.67-.78,3.4-1.43,4.99-.48,1.19-1.41,2.19-2.1,3.3-.19.31-.27.71-.34,1.08-.25,1.23-.16,2.65-.76,3.68-1.34,2.32-2.52,4.67-3.51,7.17-.43,1.09-.01,1.74.52,2.34.25.28,1.03.1,1.6.13-.02.15-.05.49-.09.83.11.07.22.14.33.21.48-.54,1.39-1.11,1.35-1.61-.14-1.85.51-2.86,1.98-2.96.51-.82.8-1.4,1.2-1.91.49-.62,1.04-1.21,1.62-1.75,1.2-1.09,1.19.63,1.85.83.17.05.32.15.47.24,1.32.76,1.65,1.75,1.05,3.14.89,1.03.83,2.24.8,3.5-.04,1.66-.56,3.32.21,5.01.47,1.03.7,1.82,1.77.55.09-.1.31-.11.48-.13.45-.07.9-.13,1.41-.2-.25-.63-.54-.99-.48-1.26.26-1.1,1.29-2.14.14-3.32-.02-.02.1-.24.19-.32.7-.62.58-1.15-.05-1.77-.44-.43-.77-.99-1.1-1.52-.11-.18-.16-.56-.05-.7.55-.72,1.17-1.39,1.77-2.1-1.16-.88-.89-1.78-.05-2.68-1.21-.82-.46-1.74-.07-2.65-.57,0-1.01.01-1.55.02q1.21-1.78.13-2.94c1.28-.75,1.82-1.76,1.29-3.26-.12-.35.13-.84.23-1.26.05-.23.27-.58.2-.66-.97-.94-.35-1.74.14-2.43-.44-1.07-.84-2.03-1.32-3.19.15-.14.58-.44.86-.85.28-.41.4-.92.54-1.26-.2-.35-.44-.63-.52-.95-.18-.66-.27-1.34-.4-2.01-.15,0-.29-.02-.44-.02.17-.17.33-.37.52-.51.67-.48.7-1.1.08-1.5-.83-.54-.62-.81-.03-1.36.24-.22.28-1.09.07-1.27-1-.85.29-1.18.28-1.73,0-.67-.28-1.34-.41-2.01-.01-.06.19-.16.29-.25.5-.46.5-.8-.09-1.27-.23-.18-.16-.85-.08-1.26.06-.29.39-.52.6-.77-.15-.02-.3-.04-.45-.06-.14-.96-.17-1.95-.44-2.87-.52-1.71,1.19-1.59,1.85-2.78.15.89.23,1.39.32,1.92.36-.06.7-.12.98-.17-.03.72-.05,1.35-.07,1.91.78-.34,1.68-.82,1.73-.74.71,1.09,1.44,1.08,2.36-.06.11,1.64.21,3.03.3,4.41.2,0,.43-.02.65-.02-.03.6-.13,1.13-.08,1.64.2,1.88.45,3.76.67,5.64.07.6.34,1.31.13,1.8-.65,1.5-1.03,2.99-1.16,4.64-.15,1.83.12,2.51,2.58,3.71,1.33.64,1.69-.64,2.37-1.27.19-.18.36-.38.56-.55.57-.49.67-.86.04-1.5-.9-.89,1.09-2.24-.35-3.17.15-.2.27-.43.45-.6.67-.6.85-1.09-.12-1.59-.17-.09-.23-.86-.12-.93,1.32-.8,1.04-1.54.12-2.1.4-.65.64-1.29,1.09-1.73.44-.44,1.08-.67,1.63-1-.85.95-.57,1.48.35,2.09.96.64,1.79,1.47,2.75,2.27.25-.06.65-.15,1.04-.25.26.67-.63,2.02,1.14,1.37.04,2.32.18,4.49.09,6.65-.09,2.13-.4,4.26-.57,5.93-.87.36-1.52.52-2.02.87-.59.42-1.01,1.09-1.61,1.5-.83.58-1.87.91-2.61,1.57-1.22,1.09-2.38,2.28-3.39,3.56-1.51,1.91-4.07,2.55-5.37,4.8-.52.9-.71,1.4-.14,2.1.73.92,1.87,1.05,2.62.35,1.34-1.24,2.64-2.51,3.97-3.76.99-.93,1.99-1.83,2.84-2.61.24.99.5,1.89.65,2.82.11.65.15,1.34.06,1.99-.27,1.76-.55,3.53-.98,5.25-.25,1.02-.67,2.06-1.25,2.92-.92,1.36-.98,2.24.08,3.53,1.52-.15,3.23.2,4-1.7-.67-.98-.53-.9.25-2.13.6-.94,2.35-1.81.7-3.13,1.63-1.68,3.15-3.25,4.67-4.82-.11-.14-.23-.28-.34-.41-.3.11-.6.26-.91.3-.17.03-.47-.07-.54-.2-.07-.14-.02-.46.1-.57,1.04-1,2.09-2,3.18-2.94.59-.51.69-.87-.06-1.28-.85-.48-.67-.89.1-1.28.28-.15.49-.42.57-.48.24.92.43,1.57.57,2.22.06.28.06.58.04.87-.11,1.36-.26,2.72-.34,4.08-.08,1.4.05,2.83-.18,4.19-.29,1.73.45,2.72,2.2,2.55.16-.02.33.1.49.08.45-.05.94-.04,1.3-.26.16-.1.04-.67.04-1.02,0-.32-.14-.8.02-.94.77-.69.69-1.33.13-2.08-.1-.14-.13-.47-.04-.6,1.02-1.36-.11-2.85.27-4.24.13-.46.11-.97.14-1.46.02-.41.05-.82,0-1.23-.03-.34-.3-.72-.21-.99.59-1.71-.46-2.77-1.49-3.97,1.15-.76,1.21-1.63-.05-2.5,1.07-.85,1.74-1.69.15-2.64.77-.8,1.44-1.52,2.14-2.2.76-.74,1.55-1.45,2.37-2.21.38.35.71.71,1.1.97.12.08.38.11.55.08.02-.36.06-.71.1-1.07-.62-.57-1.31-1.1-2.17-1.8.6-.63,1.27-1.35,2.03-2.15.31.36.54.65.79.9.89-2.93,2.5-5.61,4.59-7.87-.13,0-.26,0-.38.01.13-.28.18-.7.4-.82.89-.46.88-.84.09-1.42-.21-.15-.34-.84-.19-.99,1.09-1.14,2.25-2.2,3.37-3.28-.49-.77-1.69-1.35.03-2.11.63-.28,1.34-1.61,1.17-2.24-.38-1.42.55-2.21,1.21-2.83.89-.83.9-1.35.28-1.96.4-.72.59-1.48,1.08-1.85,1.07-.81,1.2-1.87,1.25-3.03.01-.29.04-.71.22-.85,1.08-.85.96-2.1,1.2-3.24.14-.64.77-1.43.57-1.84-.6-1.2-.13-1.82.74-2.5.39-.3.63-.79.94-1.2-.11,0-.22-.01-.33-.02-.1-.62-.46-1.37-.24-1.84.33-.69,1.11-1.16,1.62-1.78.19-.22.35-.77.22-.9-.78-.83-.66-1.26-.29-1.56Zm-6.99-5.98c.12-.26.36-.46.55-.68.17.07.34.15.5.22-.17.3-.28.68-.54.88-.46.35-1.01.6-1.53.88-.49-1.07.77-.79,1.01-1.31Zm-21.9,65.4c-.15.21-.46.35-.72.42-.08.02-.39-.32-.36-.42.08-.26.24-.54.45-.71.36-.28.79-.48,1.47-.89-.37.71-.56,1.19-.85,1.6Zm9.67-25.03c-.1,1.41-.03,2.98-1.21,4.19-.49.5-.69,1.28-1.03,1.94.09.08.17.16.26.23-.36.08-.72.17-1.11.26,0,.47-.01.89-.02,1.47-.43-.18-.75-.32-1.22-.52-.12.63-.22,1.16-.34,1.77-.41-.04-.78-.08-1.17-.12,0,.55,0,1.04-.01,1.53-.15.05-.29.1-.44.16-.51-.74-1.01-1.49-1.52-2.23-.07-.11-.13-.27-.23-.3-1.47-.52-.59-1.19,0-1.88-.62-.79-1.32-1.51-1.77-2.35-.21-.39.05-1.04.12-1.9-.37-.55-1.02-1.37-1.51-2.28-.16-.3.11-.83.19-1.29-.33,0-.78.02-1.32.03.25-.72.65-1.33.62-1.92-.03-.59-.48-1.15-.87-1.99-.09-.02-.56-.14-.97-.23.25-.7.77-1.51.57-1.76-.5-.66-1.24-1.04-2.27-.97-.7.05-1.61-.42-2.12-.95-.88-.91-1.69-.94-2.68-.29-.27-.37-.49-.67-.72-.98-.13,0-.26,0-.4,0-.06.55-.11,1.1-.17,1.66-1.93-.46-2.67-2.37-4.01-3.6-.11-.1,0-.7.14-.77,1.52-.7.67-1.15-.14-1.65-.24-.15-.45-.36-.86-.56.53,1.36.26,2.43-1.05,2.88-.35.12-.95-.49-1.74-.94-.28.11-.91.36-1.66.65-.09-.3-.19-.6-.3-.96-.26-.01-.68.09-.84-.07-.71-.71-1.37-1.2-2.24-.22-.04.05-.49-.11-.51-.21-.04-.22.02-.6.16-.67.77-.39.45-.87.27-1.44-.12-.39,0-.86.03-1.29.02-.33.06-.66.1-.99.1-.84.45-1.75.26-2.52-.2-.79-1.13-1.43-.01-2.22.07-.05,0-.43-.1-.58-.88-1.32-.87-1.35.61-1.85.12-.04.25-.05.33-.07.07.41.13.8.19,1.19.32-.17.65-.32.95-.51.48-.31.9-.71,1.4-.97.26-.13.73-.16.96-.02,1.97,1.23,3.17,2.96,3.56,5.31.13.79.69,1.58,1.23,2.23.8.95,1.76,1.77,2.81,2.8.88-.92,1.92-1.83,2.72-2.92.56-.75.03-1.26-.88-1.29-.12-.93,2.15-1.05.69-2.34-.65-.58-1.11-1.37-1.72-2.16.85-1.62,1.68-1.87,3.1-.76q.91-.99,2.7.02c.83-.57,1.68-1.09,2.47-1.7.74-.57.95-1.27.14-1.99-.03-.03-.1-.06-.1-.08.07-.71.42-1.55.15-2.08-.43-.85-.68-1.28.34-1.86.76-.43,1.3-1.24,1.96-1.86.2-.19.45-.32.96-.68-.12.95-.21,1.57-.28,2.15,1.34.82.73,2.18.96,3.29.11.52.18,1.05.29,1.56.13.6.31,1.18.43,1.78.26,1.31.17,2.84.85,3.87.58.88.44,1.81.84,2.67.47,1,.47,2.33.32,3.48-.1.78.02,1.3.45,1.89.62.85.77,1.79.88,2.88.1,1.09,1.14,2.08,1.71,3.15.32.61.53,1.27.79,1.91-.09.06-.18.11-.26.17.26.09.53.19.46.16.38,1.13.49,2.14,1.01,2.85.84,1.16.91,2.5.82,3.69Zm12.69-31.33c.11.25.23.5.32.76.13.36.38.75.31,1.08-.19.96-.53,1.88-.78,2.83-.17.65-.29,1.31-.47,2.1-.04,0-.34-.04-.31-.03-.93,2.64-1.8,5.13-2.69,7.67-.56.73-1.28,1.54-1.85,2.44-.56.88-1.09,1.82-1.4,2.81-.36,1.16-.46,2.4-.7,3.6-.08.42-.14.88-.34,1.24-.64,1.15-.81.95-1.81.14-.94-.75-.52-1.67-.84-2.46-.44-1.09-.76-2.23-1.16-3.43-1.01-.04-1.64-.04-.91-1.35.28-.5-.3-1.93-.9-2.38-1.06-.8-.66-1.22.08-1.76-.6-.9-1.17-1.72-1.71-2.57-.11-.17-.21-.52-.13-.6.83-.84.36-1.56-.13-2.32-.32-.49-.55-1.03-.98-1.85.79-.8,1.78-1.8,2.93-2.95,1.01,1.83,2,1.15,2.98.19.61-.6,1.25-.59,2.11-.56.77.02,1.61-.83,2.36-1.38.89-.66,1.71-1.41,2.64-2.19.33.51.58.88.85,1.29.74-.71,1.4-1.41,2.14-2,.14-.12.73.08.9.3.25.33.31.8.46,1.21-.32.06-.65.12-.98.19Z"/>
  </g>
</svg>