<?xml version="1.0" encoding="UTF-8"?>
<svg id="Layer_2" data-name="Layer 2" xmlns="http://www.w3.org/2000/svg" viewBox="0 0 87.75 87.75">
  <defs>
    <style>
      .cls-1 {
        fill: #fff;
        stroke-width: 0px;
      }
    </style>
  </defs>
  <g id="Layer_1-2" data-name="Layer 1">
    <g>
      <g id="_Radial_Repeat_" data-name="&amp;lt;Radial Repeat&amp;gt;">
        <path class="cls-1" d="m19.07,58.87c-.2-.29-.35-.53-.57-.85l1.63-1.38c-.24-.35-.41-.61-.61-.91.52-.5,1.02-.96,1.52-1.44-.2-.32-.35-.56-.56-.91l.89-.75c.11-.34.25-.65.42-.96-.36-.66-.23-.73.61-1.14.04.03.07.07.11.1.36-.42.79-.81,1.27-1.15.24-.18.5-.34.75-.51.69-.74,1.41-1.38,2.23-1.95l-.13-.16,2.52-2.13c.29.24.52.44.82.69l3.29-2.78c.29.25.52.46.69.61.93-.07,1.36-2.02,2.54-.48.29-.2.55-.37.8-.54.27.24.5.45.73.66l.66-.56-1.99-2.35c-.29.17-.56.32-.9.51l-1.32-1.57c-.63.66-1.19.6-1.67-.09-.31.2-.57.36-.83.53-.27-.24-.51-.44-.73-.63-.29.18-.53.33-.83.52-.6-.99-1.15-.53-1.71.02-.22.21-.48.37-.71.55-.29-.27-.49-.47-.77-.74l-2.44,2.06c-.32-.26-.56-.45-.82-.66-.48.36-.92.72-1.39,0-.42-.64-1.38-1.14-.21-1.93-.19-.32-.35-.58-.51-.85.23-.27.44-.5.63-.72-.18-.31-.34-.58-.54-.92l1.6-1.35c-.23-.34-.4-.6-.58-.88.22-.27.42-.5.66-.79-.22-.22-.41-.42-.63-.64l-2.43,2.05c-.32-.27-.55-.48-.82-.71-.22.22-.42.41-.6.59.2.31.36.55.52.8-.23.26-.44.49-.66.75.44.58.85,1.13,1.33,1.76l-1.6,1.35c.21.34.36.59.54.88-.78.46-.69,1.03-.16,1.59-.24.29-.44.53-.63.76.19.28.34.51.52.77-.24.26-.44.49-.69.75.73.6.46,1.15-.12,1.63.19.29.35.52.57.84l-1.59,1.35c.21.35.38.61.54.88-.23.27-.43.51-.63.75.19.29.35.56.54.85-.22.26-.42.49-.62.72.17.31.31.58.46.87-.25.25-.47.47-.71.7.21.3.38.56.57.84-.21.26-.4.5-.6.75.17.3.32.57.47.85-.24.26-.45.48-.68.73.18.29.35.55.52.81-.23.27-.44.51-.67.78.68.55.53,1.08-.05,1.54l1.24,1.47,1.49-1.26Z"/>
        <g id="WNsNV2">
          <path class="cls-1" d="m1.49,59.26c.25.24.46.44.74.71l1.63-1.38c.31.29.54.51.79.75.58-.43,1.12-.84,1.67-1.26.28.25.49.43.8.7l.89-.75c.35-.05.69-.14,1.01-.25.59.46.68.35,1.22-.41-.03-.04-.05-.08-.08-.13.48-.29.93-.64,1.35-1.06.21-.21.42-.43.62-.65.85-.56,1.59-1.16,2.3-1.87l.13.16,2.52-2.13c-.19-.32-.34-.59-.54-.93l3.29-2.78c-.2-.33-.36-.59-.48-.78.22-.91,2.22-1.01.89-2.42.24-.26.46-.48.67-.7-.2-.31-.36-.57-.53-.83l.66-.56,1.99,2.35c-.21.26-.41.5-.66.8l1.32,1.57c-.75.51-.79,1.07-.19,1.66-.25.27-.45.5-.66.73.19.31.35.57.5.83-.23.25-.42.47-.65.73.87.76.33,1.22-.31,1.68-.25.18-.45.41-.66.61.22.33.38.56.6.88l-2.44,2.06c.2.36.35.63.52.92-.44.42-.86.78-.24,1.37.56.52.9,1.55,1.87.53.28.24.52.44.76.65.3-.19.56-.35.81-.5.28.23.51.43.82.69l1.6-1.35c.3.28.53.49.77.72.3-.18.57-.33.88-.52.18.25.34.47.53.73l-2.43,2.05c.22.36.38.62.57.93-.26.18-.48.34-.68.49-.28-.25-.48-.45-.7-.64-.3.19-.56.35-.85.53-.5-.53-.97-1.03-1.52-1.61l-1.6,1.35c-.3-.27-.52-.45-.78-.68-.59.69-1.13.5-1.6-.11-.33.19-.59.34-.86.49-.24-.23-.45-.43-.67-.64-.29.19-.55.36-.86.55-.47-.82-1.05-.65-1.62-.16-.25-.24-.46-.44-.74-.7l-1.59,1.35c-.31-.27-.54-.47-.77-.68-.3.18-.57.34-.84.5-.26-.23-.49-.44-.74-.68-.29.17-.56.33-.82.49-.28-.22-.52-.4-.78-.6-.29.21-.55.39-.81.58-.26-.25-.49-.47-.73-.71-.29.16-.56.31-.84.46-.27-.21-.51-.41-.76-.61-.29.19-.55.36-.84.55-.26-.23-.49-.44-.72-.64-.31.19-.58.35-.88.53-.43-.76-.97-.7-1.53-.2L0,60.52l1.49-1.26Z"/>
        </g>
      </g>
      <g id="_Radial_Repeat_-2" data-name="&amp;lt;Radial Repeat&amp;gt;">
        <path class="cls-1" d="m15.73,36.94c.07-.34.12-.62.2-1.01l2.13.18c.08-.42.14-.72.21-1.07.72.02,1.4.04,2.09.06.09-.36.15-.64.25-1.04l1.16.1c.32-.16.64-.29.97-.38.21-.72.36-.68,1.24-.37,0,.05,0,.1,0,.15.56-.04,1.13-.01,1.71.08.3.05.59.11.89.17,1.01-.04,1.97.02,2.96.19l.02-.2,3.29.28c.03.37.06.68.1,1.07l4.29.36c.02.38.04.69.06.92.71.61,2.39-.46,2.13,1.46.35.07.65.12.95.18.02.37.04.67.05.98l.86.07.26-3.07c-.32-.09-.62-.17-1-.27l.17-2.04c-.91.02-1.27-.42-1.12-1.24-.36-.08-.66-.14-.96-.21-.03-.36-.05-.67-.07-.96-.33-.08-.61-.14-.95-.22.27-1.12-.44-1.19-1.23-1.19-.3,0-.6-.08-.89-.11,0-.4-.02-.68-.02-1.06l-3.18-.27c-.04-.41-.08-.72-.11-1.05-.6-.08-1.16-.14-.99-.98.15-.75-.17-1.79,1.22-1.51.09-.36.17-.66.24-.97.35-.02.66-.04.95-.06.09-.35.17-.65.27-1.03l2.08.18c.08-.4.15-.71.21-1.03.35-.03.65-.06,1.02-.09,0-.31,0-.58,0-.9l-3.17-.27c-.03-.42-.05-.73-.08-1.09-.32,0-.59,0-.84,0-.08.37-.14.64-.2.93-.35.02-.66.04-1,.06-.1.72-.2,1.4-.31,2.19l-2.09-.18c-.09.39-.16.67-.24,1.01-.88-.22-1.21.25-1.24,1.01-.37.04-.68.06-.98.09-.06.33-.12.61-.18.91-.35.02-.66.03-1.02.04.09.94-.48,1.14-1.23,1.07-.07.34-.12.62-.2,1l-2.08-.18c-.09.4-.16.7-.24,1-.35.03-.66.05-.98.08-.07.34-.14.64-.22.98-.34.03-.65.05-.95.08-.1.34-.19.63-.29.94-.36,0-.67,0-1,0-.07.36-.13.67-.19,1-.33.04-.64.07-.95.11-.09.33-.18.63-.27.94-.35.01-.66.03-1,.04-.08.34-.14.64-.21.94-.36.03-.67.05-1.02.08.09.87-.39,1.13-1.13,1.05l-.16,1.92,1.95.16Z"/>
        <g id="WNsNV2-2" data-name="WNsNV2">
          <path class="cls-1" d="m3.03,24.79c0,.35.02.63.03,1.02l2.13.18c.01.43.02.74.03,1.09.72.1,1.39.2,2.07.29.02.37.04.66.07,1.06l1.16.1c.29.21.58.39.89.54.09.74.24.73,1.16.57.01-.05.02-.1.03-.15.54.13,1.11.2,1.7.21.3,0,.6,0,.9-.02.99.2,1.94.31,2.95.3l-.02.2,3.29.28c.1-.36.18-.66.27-1.04l4.29.36c.09-.37.16-.67.21-.9.8-.49,2.28.86,2.34-1.08.35,0,.66-.01.97-.02.08-.36.15-.66.22-.96l.86.07-.26,3.07c-.34.03-.64.06-1.03.1l-.17,2.04c-.89-.17-1.32.2-1.31,1.04-.37.02-.68.03-.98.05-.09.35-.16.65-.23.94-.34.02-.63.04-.98.06.08,1.15-.63,1.1-1.41.97-.3-.05-.61-.03-.9-.04-.07.39-.13.67-.2,1.05l-3.18-.27c-.11.4-.2.7-.29,1.02-.6-.02-1.16-.06-1.14.8.02.76-.46,1.73.95,1.7.03.37.05.68.08.99.34.08.64.15.93.22.03.36.06.67.09,1.06l2.08.18c.01.41.02.72.04,1.05.34.09.64.17.99.26-.05.31-.09.57-.14.89l-3.17-.27c-.1.41-.17.71-.26,1.06-.31-.05-.58-.1-.83-.14-.02-.37-.03-.66-.04-.95-.34-.08-.64-.15-.97-.23.02-.73.04-1.41.07-2.21l-2.09-.18c-.03-.4-.04-.69-.07-1.03-.91.07-1.16-.45-1.05-1.21-.36-.1-.66-.18-.95-.26,0-.33-.02-.62-.02-.93-.34-.07-.64-.14-1-.21.25-.92-.29-1.2-1.04-1.26,0-.35-.02-.63-.03-1.02l-2.08-.18c-.03-.41-.04-.72-.06-1.03-.34-.09-.64-.16-.95-.24-.02-.35-.03-.66-.05-1-.33-.08-.63-.16-.92-.23-.04-.35-.08-.66-.12-.97-.35-.06-.66-.11-.98-.17,0-.37-.01-.68-.02-1.02-.32-.09-.61-.18-.92-.27-.04-.34-.07-.65-.1-.97-.34-.07-.65-.14-.98-.2-.02-.34-.03-.65-.05-.96-.35-.09-.65-.16-.99-.25.23-.84-.19-1.18-.94-1.22l.16-1.92,1.95.16Z"/>
        </g>
      </g>
      <g id="_Radial_Repeat_-3" data-name="&amp;lt;Radial Repeat&amp;gt;">
        <path class="cls-1" d="m28.88,19.07c.29-.2.53-.35.85-.57l1.38,1.63c.35-.24.61-.41.91-.61.5.52.96,1.02,1.44,1.52.32-.2.56-.35.91-.56l.75.89c.34.11.65.25.96.42.66-.36.73-.23,1.14.61-.03.04-.07.07-.1.11.42.36.81.79,1.15,1.27.18.24.34.5.51.75.74.69,1.38,1.41,1.95,2.23l.16-.13,2.13,2.52c-.24.29-.44.52-.69.82l2.78,3.29c-.25.29-.46.52-.61.69.07.93,2.02,1.36.48,2.54.2.29.37.55.54.8-.24.27-.45.5-.66.73l.56.66,2.35-1.99c-.17-.29-.32-.56-.51-.9l1.57-1.32c-.66-.63-.6-1.19.09-1.67-.2-.31-.36-.57-.53-.83.24-.27.44-.51.63-.73-.18-.29-.33-.53-.52-.83.99-.6.53-1.15-.02-1.71-.21-.22-.37-.48-.55-.71.27-.29.47-.49.74-.77l-2.06-2.44c.26-.32.45-.56.66-.82-.36-.48-.72-.92,0-1.39.64-.42,1.14-1.38,1.93-.21.32-.19.58-.35.85-.51.27.23.5.44.72.63.31-.18.58-.34.92-.54l1.35,1.6c.34-.23.6-.4.88-.58.27.22.5.42.79.66.22-.22.42-.41.64-.63l-2.05-2.43c.27-.32.48-.55.71-.82-.22-.22-.41-.42-.59-.6-.31.2-.55.36-.8.52-.26-.23-.49-.44-.75-.66-.58.44-1.13.85-1.76,1.33l-1.35-1.6c-.34.21-.59.36-.88.54-.46-.78-1.03-.69-1.59-.16-.29-.24-.53-.44-.76-.63-.28.19-.51.34-.77.52-.26-.24-.49-.44-.75-.69-.6.73-1.15.46-1.63-.12-.29.19-.52.35-.84.57l-1.35-1.59c-.35.21-.61.38-.88.54-.27-.23-.51-.43-.75-.63-.29.19-.56.35-.85.54-.26-.22-.49-.42-.72-.62-.31.17-.58.31-.87.46-.25-.25-.47-.47-.7-.71-.3.21-.56.38-.84.57-.26-.21-.5-.4-.75-.6-.3.17-.57.32-.85.47-.26-.24-.48-.45-.73-.68-.29.18-.55.35-.81.52-.27-.23-.51-.44-.78-.67-.55.68-1.08.53-1.54-.05l-1.47,1.24,1.26,1.49Z"/>
        <g id="WNsNV2-3" data-name="WNsNV2">
          <path class="cls-1" d="m28.49,1.49c-.24.25-.44.46-.71.74l1.38,1.63c-.29.31-.51.54-.75.79.43.58.84,1.12,1.26,1.67-.25.28-.43.49-.7.8l.75.89c.05.35.14.69.25,1.01-.46.59-.35.68.41,1.22.04-.03.08-.05.13-.08.29.48.64.93,1.06,1.35.21.21.43.42.65.62.56.85,1.16,1.59,1.87,2.3l-.16.13,2.13,2.52c.32-.19.59-.34.93-.54l2.78,3.29c.33-.2.59-.36.78-.48.91.22,1.01,2.22,2.42.89.26.24.48.46.7.67.31-.2.57-.36.83-.53l.56.66-2.35,1.99c-.26-.21-.5-.41-.8-.66l-1.57,1.32c-.51-.75-1.07-.79-1.66-.19-.27-.25-.5-.45-.73-.66-.31.19-.57.35-.83.5-.25-.23-.47-.42-.73-.65-.76.87-1.22.33-1.68-.31-.18-.25-.41-.45-.61-.66-.33.22-.56.38-.88.6l-2.06-2.44c-.36.2-.63.35-.92.52-.42-.44-.78-.86-1.37-.24-.52.56-1.55.9-.53,1.87-.24.28-.44.52-.65.76.19.3.35.56.5.81-.23.28-.43.51-.69.82l1.35,1.6c-.28.3-.49.53-.72.77.18.3.33.57.52.88-.25.18-.47.34-.73.53l-2.05-2.43c-.36.22-.62.38-.93.57-.18-.26-.34-.48-.49-.68.25-.28.45-.48.64-.7-.19-.3-.35-.56-.53-.85.53-.5,1.03-.97,1.61-1.52l-1.35-1.6c.27-.3.45-.52.68-.78-.69-.59-.5-1.13.11-1.6-.19-.33-.34-.59-.49-.86.23-.24.43-.45.64-.67-.19-.29-.36-.55-.55-.86.82-.47.65-1.05.16-1.62.24-.25.44-.46.7-.74l-1.35-1.59c.27-.31.47-.54.68-.77-.18-.3-.34-.57-.5-.84.23-.26.44-.49.68-.74-.17-.29-.33-.56-.49-.82.22-.28.4-.52.6-.78-.21-.29-.39-.55-.58-.81.25-.26.47-.49.71-.73-.16-.29-.31-.56-.46-.84.21-.27.41-.51.61-.76-.19-.29-.36-.55-.55-.84.23-.26.44-.49.64-.72-.19-.31-.35-.58-.53-.88.76-.43.7-.97.2-1.53L27.22,0l1.26,1.49Z"/>
        </g>
      </g>
      <g id="_Radial_Repeat_-4" data-name="&amp;lt;Radial Repeat&amp;gt;">
        <path class="cls-1" d="m50.81,15.73c.34.07.62.12,1.01.2l-.18,2.13c.42.08.72.14,1.07.21-.02.72-.04,1.4-.06,2.09.36.09.64.15,1.04.25l-.1,1.16c.16.32.29.64.38.97.72.21.68.36.37,1.24-.05,0-.1,0-.15,0,.04.56.01,1.13-.08,1.71-.05.3-.11.59-.17.89.04,1.01-.02,1.97-.19,2.96l.2.02-.28,3.29c-.37.03-.68.06-1.07.1l-.36,4.29c-.38.02-.69.04-.92.06-.61.71.46,2.39-1.46,2.13-.07.35-.12.65-.18.95-.37.02-.67.04-.98.05l-.07.86,3.07.26c.09-.32.17-.62.27-1l2.04.17c-.02-.91.42-1.27,1.24-1.12.08-.36.14-.66.21-.96.36-.03.67-.05.96-.07.08-.33.14-.61.22-.95,1.12.27,1.19-.44,1.19-1.23,0-.3.08-.6.11-.89.4,0,.68-.02,1.06-.02l.27-3.18c.41-.04.72-.08,1.05-.11.08-.6.14-1.16.98-.99.75.15,1.79-.17,1.51,1.22.36.09.66.17.97.24.02.35.04.66.06.95.35.09.65.17,1.03.27l-.18,2.08c.4.08.71.15,1.03.21.03.35.06.65.09,1.02.31,0,.58,0,.9,0l.27-3.17c.42-.03.73-.05,1.09-.08,0-.32,0-.59,0-.84-.37-.08-.64-.14-.93-.2-.02-.35-.04-.66-.06-1-.72-.1-1.4-.2-2.19-.31l.18-2.09c-.39-.09-.67-.16-1.01-.24.22-.88-.25-1.21-1.01-1.24-.04-.37-.06-.68-.09-.98-.33-.06-.61-.12-.91-.18-.02-.35-.03-.66-.04-1.02-.94.09-1.14-.48-1.07-1.23-.34-.07-.62-.12-1-.2l.18-2.08c-.4-.09-.7-.16-1-.24-.03-.35-.05-.66-.08-.98-.34-.07-.64-.14-.98-.22-.03-.34-.05-.65-.08-.95-.34-.1-.63-.19-.94-.29,0-.36,0-.67,0-1-.36-.07-.67-.13-1-.19-.04-.33-.07-.64-.11-.95-.33-.09-.63-.18-.94-.27-.01-.35-.03-.66-.04-1-.34-.08-.64-.14-.94-.21-.03-.36-.05-.67-.08-1.02-.87.09-1.13-.39-1.05-1.13l-1.92-.16-.16,1.95Z"/>
        <g id="WNsNV2-4" data-name="WNsNV2">
          <path class="cls-1" d="m62.96,3.03c-.35,0-.63.02-1.02.03l-.18,2.13c-.43.01-.74.02-1.09.03-.1.72-.2,1.39-.29,2.07-.37.02-.66.04-1.06.07l-.1,1.16c-.21.29-.39.58-.54.89-.74.09-.73.24-.57,1.16.05.01.1.02.15.03-.13.54-.2,1.11-.21,1.7,0,.3,0,.6.02.9-.2.99-.31,1.94-.3,2.95l-.2-.02-.28,3.29c.36.1.66.18,1.04.27l-.36,4.29c.37.09.67.16.9.21.49.8-.86,2.28,1.08,2.34,0,.35.01.66.02.97.36.08.66.15.96.22l-.07.86-3.07-.26c-.03-.34-.06-.64-.1-1.03l-2.04-.17c.17-.89-.2-1.32-1.04-1.31-.02-.37-.03-.68-.05-.98-.35-.09-.65-.16-.94-.23-.02-.34-.04-.63-.06-.98-1.15.08-1.1-.63-.97-1.41.05-.3.03-.61.04-.9-.39-.07-.67-.13-1.05-.2l.27-3.18c-.4-.11-.7-.2-1.02-.29.02-.6.06-1.16-.8-1.14-.76.02-1.73-.46-1.7.95-.37.03-.68.05-.99.08-.08.34-.15.64-.22.93-.36.03-.67.06-1.06.09l-.18,2.08c-.41.01-.72.02-1.05.04-.09.34-.17.64-.26.99-.31-.05-.57-.09-.89-.14l.27-3.17c-.41-.1-.71-.17-1.06-.26.05-.31.1-.58.14-.83.37-.02.66-.03.95-.04.08-.34.15-.64.23-.97.73.02,1.41.04,2.21.07l.18-2.09c.4-.03.69-.04,1.03-.07-.07-.91.45-1.16,1.21-1.05.1-.36.18-.66.26-.95.33,0,.62-.02.93-.02.07-.34.14-.64.21-1,.92.25,1.2-.29,1.26-1.04.35,0,.63-.02,1.02-.03l.18-2.08c.41-.03.72-.04,1.03-.06.09-.34.16-.64.24-.95.35-.02.66-.03,1-.05.08-.33.16-.63.23-.92.35-.04.66-.08.97-.12.06-.35.11-.66.17-.98.37,0,.68-.01,1.02-.02.09-.32.18-.61.27-.92.34-.04.65-.07.97-.1.07-.34.14-.65.2-.98.34-.02.65-.03.96-.05.09-.35.16-.65.25-.99.84.23,1.18-.19,1.22-.94l1.92.16-.16,1.95Z"/>
        </g>
      </g>
      <g id="_Radial_Repeat_-5" data-name="&amp;lt;Radial Repeat&amp;gt;">
        <path class="cls-1" d="m68.68,28.88c.2.29.35.53.57.85l-1.63,1.38c.24.35.41.61.61.91-.52.5-1.02.96-1.52,1.44.2.32.35.56.56.91l-.89.75c-.11.34-.25.65-.42.96.36.66.23.73-.61,1.14-.04-.03-.07-.07-.11-.1-.36.42-.79.81-1.27,1.15-.24.18-.5.34-.75.51-.69.74-1.41,1.38-2.23,1.95l.13.16-2.52,2.13c-.29-.24-.52-.44-.82-.69l-3.29,2.78c-.29-.25-.52-.46-.69-.61-.93.07-1.36,2.02-2.54.48-.29.2-.55.37-.8.54-.27-.24-.5-.45-.73-.66l-.66.56,1.99,2.35c.29-.17.56-.32.9-.51l1.32,1.57c.63-.66,1.19-.6,1.67.09.31-.2.57-.36.83-.53.27.24.51.44.73.63.29-.18.53-.33.83-.52.6.99,1.15.53,1.71-.02.22-.21.48-.37.71-.55.29.27.49.47.77.74l2.44-2.06c.32.26.56.45.82.66.48-.36.92-.72,1.39,0,.42.64,1.38,1.14.21,1.93.19.32.35.58.51.85-.23.27-.44.5-.63.72.18.31.34.58.54.92l-1.6,1.35c.23.34.4.6.58.88-.22.27-.42.5-.66.79.22.22.41.42.63.64l2.43-2.05c.32.27.55.48.82.71.22-.22.42-.41.6-.59-.2-.31-.36-.55-.52-.8.23-.26.44-.49.66-.75-.44-.58-.85-1.13-1.33-1.76l1.6-1.35c-.21-.34-.36-.59-.54-.88.78-.46.69-1.03.16-1.59.24-.29.44-.53.63-.76-.19-.28-.34-.51-.52-.77.24-.26.44-.49.69-.75-.73-.6-.46-1.15.12-1.63-.19-.29-.35-.52-.57-.84l1.59-1.35c-.21-.35-.38-.61-.54-.88.23-.27.43-.51.63-.75-.19-.29-.35-.56-.54-.85.22-.26.42-.49.62-.72-.17-.31-.31-.58-.46-.87.25-.25.47-.47.71-.7-.21-.3-.38-.56-.57-.84.21-.26.4-.5.6-.75-.17-.3-.32-.57-.47-.85.24-.26.45-.48.68-.73-.18-.29-.35-.55-.52-.81.23-.27.44-.51.67-.78-.68-.55-.53-1.08.05-1.54l-1.24-1.47-1.49,1.26Z"/>
        <g id="WNsNV2-5" data-name="WNsNV2">
          <path class="cls-1" d="m86.25,28.49c-.25-.24-.46-.44-.74-.71l-1.63,1.38c-.31-.29-.54-.51-.79-.75-.58.43-1.12.84-1.67,1.26-.28-.25-.49-.43-.8-.7l-.89.75c-.35.05-.69.14-1.01.25-.59-.46-.68-.35-1.22.41.03.04.05.08.08.13-.48.29-.93.64-1.35,1.06-.21.21-.42.43-.62.65-.85.56-1.59,1.16-2.3,1.87l-.13-.16-2.52,2.13c.19.32.34.59.54.93l-3.29,2.78c.2.33.36.59.48.78-.22.91-2.22,1.01-.89,2.42-.24.26-.46.48-.67.7.2.31.36.57.53.83l-.66.56-1.99-2.35c.21-.26.41-.5.66-.8l-1.32-1.57c.75-.51.79-1.07.19-1.66.25-.27.45-.5.66-.73-.19-.31-.35-.57-.5-.83.23-.25.42-.47.65-.73-.87-.76-.33-1.22.31-1.68.25-.18.45-.41.66-.61-.22-.33-.38-.56-.6-.88l2.44-2.06c-.2-.36-.35-.63-.52-.92.44-.42.86-.78.24-1.37-.56-.52-.9-1.55-1.87-.53-.28-.24-.52-.44-.76-.65-.3.19-.56.35-.81.5-.28-.23-.51-.43-.82-.69l-1.6,1.35c-.3-.28-.53-.49-.77-.72-.3.18-.57.33-.88.52-.18-.25-.34-.47-.53-.73l2.43-2.05c-.22-.36-.38-.62-.57-.93.26-.18.48-.34.68-.49.28.25.48.45.7.64.3-.19.56-.35.85-.53.5.53.97,1.03,1.52,1.61l1.6-1.35c.3.27.52.45.78.68.59-.69,1.13-.5,1.6.11.33-.19.59-.34.86-.49.24.23.45.43.67.64.29-.19.55-.36.86-.55.47.82,1.05.65,1.62.16.25.24.46.44.74.7l1.59-1.35c.31.27.54.47.77.68.3-.18.57-.34.84-.5.26.23.49.44.74.68.29-.17.56-.33.82-.49.28.22.52.4.78.6.29-.21.55-.39.81-.58.26.25.49.47.73.71.29-.16.56-.31.84-.46.27.21.51.41.76.61.29-.19.55-.36.84-.55.26.23.49.44.72.64.31-.19.58-.35.88-.53.43.76.97.7,1.53.2l1.24,1.47-1.49,1.26Z"/>
        </g>
      </g>
      <g id="_Radial_Repeat_-6" data-name="&amp;lt;Radial Repeat&amp;gt;">
        <path class="cls-1" d="m72.01,50.81c-.07.34-.12.62-.2,1.01l-2.13-.18c-.08.42-.14.72-.21,1.07-.72-.02-1.4-.04-2.09-.06-.09.36-.15.64-.25,1.04l-1.16-.1c-.32.16-.64.29-.97.38-.21.72-.36.68-1.24.37,0-.05,0-.1,0-.15-.56.04-1.13.01-1.71-.08-.3-.05-.59-.11-.89-.17-1.01.04-1.97-.02-2.96-.19l-.02.2-3.29-.28c-.03-.37-.06-.68-.1-1.07l-4.29-.36c-.02-.38-.04-.69-.06-.92-.71-.61-2.39.46-2.13-1.46-.35-.07-.65-.12-.95-.18-.02-.37-.04-.67-.05-.98l-.86-.07-.26,3.07c.32.09.62.17,1,.27l-.17,2.04c.91-.02,1.27.42,1.12,1.24.36.08.66.14.96.21.03.36.05.67.07.96.33.08.61.14.95.22-.27,1.12.44,1.19,1.23,1.19.3,0,.6.08.89.11,0,.4.02.68.02,1.06l3.18.27c.04.41.08.72.11,1.05.6.08,1.16.14.99.98-.15.75.17,1.79-1.22,1.51-.09.36-.17.66-.24.97-.35.02-.66.04-.95.06-.09.35-.17.65-.27,1.03l-2.08-.18c-.08.4-.15.71-.21,1.03-.35.03-.65.06-1.02.09,0,.31,0,.58,0,.9l3.17.27c.03.42.05.73.08,1.09.32,0,.59,0,.84,0,.08-.37.14-.64.2-.93.35-.02.66-.04,1-.06.1-.72.2-1.4.31-2.19l2.09.18c.09-.39.16-.67.24-1.01.88.22,1.21-.25,1.24-1.01.37-.04.68-.06.98-.09.06-.33.12-.61.18-.91.35-.02.66-.03,1.02-.04-.09-.94.48-1.14,1.23-1.07.07-.34.12-.62.2-1l2.08.18c.09-.4.16-.7.24-1,.35-.03.66-.05.98-.08.07-.34.14-.64.22-.98.34-.03.65-.05.95-.08.1-.34.19-.63.29-.94.36,0,.67,0,1,0,.07-.36.13-.67.19-1,.33-.04.64-.07.95-.11.09-.33.18-.63.27-.94.35-.01.66-.03,1-.04.08-.34.14-.64.21-.94.36-.03.67-.05,1.02-.08-.09-.87.39-1.13,1.13-1.05l.16-1.92-1.95-.16Z"/>
        <g id="WNsNV2-6" data-name="WNsNV2">
          <path class="cls-1" d="m84.72,62.96c0-.35-.02-.63-.03-1.02l-2.13-.18c-.01-.43-.02-.74-.03-1.09-.72-.1-1.39-.2-2.07-.29-.02-.37-.04-.66-.07-1.06l-1.16-.1c-.29-.21-.58-.39-.89-.54-.09-.74-.24-.73-1.16-.57-.01.05-.02.1-.03.15-.54-.13-1.11-.2-1.7-.21-.3,0-.6,0-.9.02-.99-.2-1.94-.31-2.95-.3l.02-.2-3.29-.28c-.1.36-.18.66-.27,1.04l-4.29-.36c-.09.37-.16.67-.21.9-.8.49-2.28-.86-2.34,1.08-.35,0-.66.01-.97.02-.08.36-.15.66-.22.96l-.86-.07.26-3.07c.34-.03.64-.06,1.03-.1l.17-2.04c.89.17,1.32-.2,1.31-1.04.37-.02.68-.03.98-.05.09-.35.16-.65.23-.94.34-.02.63-.04.98-.06-.08-1.15.63-1.1,1.41-.97.3.05.61.03.9.04.07-.39.13-.67.2-1.05l3.18.27c.11-.4.2-.7.29-1.02.6.02,1.16.06,1.14-.8-.02-.76.46-1.73-.95-1.7-.03-.37-.05-.68-.08-.99-.34-.08-.64-.15-.93-.22-.03-.36-.06-.67-.09-1.06l-2.08-.18c-.01-.41-.02-.72-.04-1.05-.34-.09-.64-.17-.99-.26.05-.31.09-.57.14-.89l3.17.27c.1-.41.17-.71.26-1.06.31.05.58.1.83.14.02.37.03.66.04.95.34.08.64.15.97.23-.02.73-.04,1.41-.07,2.21l2.09.18c.03.4.04.69.07,1.03.91-.07,1.16.45,1.05,1.21.36.1.66.18.95.26,0,.33.02.62.02.93.34.07.64.14,1,.21-.25.92.29,1.2,1.04,1.26,0,.35.02.63.03,1.02l2.08.18c.03.41.04.72.06,1.03.34.09.64.16.95.24.02.35.03.66.05,1,.33.08.63.16.92.23.04.35.08.66.12.97.35.06.66.11.98.17,0,.37.01.68.02,1.02.32.09.61.18.92.27.04.34.07.65.1.97.34.07.65.14.98.2.02.34.03.65.05.96.35.09.65.16.99.25-.23.84.19,1.18.94,1.22l-.16,1.92-1.95-.16Z"/>
        </g>
      </g>
      <g id="_Radial_Repeat_-7" data-name="&amp;lt;Radial Repeat&amp;gt;">
        <path class="cls-1" d="m58.87,68.68c-.29.2-.53.35-.85.57l-1.38-1.63c-.35.24-.61.41-.91.61-.5-.52-.96-1.02-1.44-1.52-.32.2-.56.35-.91.56l-.75-.89c-.34-.11-.65-.25-.96-.42-.66.36-.73.23-1.14-.61.03-.04.07-.07.1-.11-.42-.36-.81-.79-1.15-1.27-.18-.24-.34-.5-.51-.75-.74-.69-1.38-1.41-1.95-2.23l-.16.13-2.13-2.52c.24-.29.44-.52.69-.82l-2.78-3.29c.25-.29.46-.52.61-.69-.07-.93-2.02-1.36-.48-2.54-.2-.29-.37-.55-.54-.8.24-.27.45-.5.66-.73l-.56-.66-2.35,1.99c.17.29.32.56.51.9l-1.57,1.32c.66.63.6,1.19-.09,1.67.2.31.36.57.53.83-.24.27-.44.51-.63.73.18.29.33.53.52.83-.99.6-.53,1.15.02,1.71.21.22.37.48.55.71-.27.29-.47.49-.74.77l2.06,2.44c-.26.32-.45.56-.66.82.36.48.72.92,0,1.39-.64.42-1.14,1.38-1.93.21-.32.19-.58.35-.85.51-.27-.23-.5-.44-.72-.63-.31.18-.58.34-.92.54l-1.35-1.6c-.34.23-.6.4-.88.58-.27-.22-.5-.42-.79-.66-.22.22-.42.41-.64.63l2.05,2.43c-.27.32-.48.55-.71.82.22.22.41.42.59.6.31-.2.55-.36.8-.52.26.23.49.44.75.66.58-.44,1.13-.85,1.76-1.33l1.35,1.6c.34-.21.59-.36.88-.54.46.78,1.03.69,1.59.16.29.24.53.44.76.63.28-.19.51-.34.77-.52.26.24.49.44.75.69.6-.73,1.15-.46,1.63.12.29-.19.52-.35.84-.57l1.35,1.59c.35-.21.61-.38.88-.54.27.23.51.43.75.63.29-.19.56-.35.85-.54.26.22.49.42.72.62.31-.17.58-.31.87-.46.25.25.47.47.7.71.3-.21.56-.38.84-.57.26.21.5.4.75.6.3-.17.57-.32.85-.47.26.24.48.45.73.68.29-.18.55-.35.81-.52.27.23.51.44.78.67.55-.68,1.08-.53,1.54.05l1.47-1.24-1.26-1.49Z"/>
        <g id="WNsNV2-7" data-name="WNsNV2">
          <path class="cls-1" d="m59.26,86.25c.24-.25.44-.46.71-.74l-1.38-1.63c.29-.31.51-.54.75-.79-.43-.58-.84-1.12-1.26-1.67.25-.28.43-.49.7-.8l-.75-.89c-.05-.35-.14-.69-.25-1.01.46-.59.35-.68-.41-1.22-.04.03-.08.05-.13.08-.29-.48-.64-.93-1.06-1.35-.21-.21-.43-.42-.65-.62-.56-.85-1.16-1.59-1.87-2.3l.16-.13-2.13-2.52c-.32.19-.59.34-.93.54l-2.78-3.29c-.33.2-.59.36-.78.48-.91-.22-1.01-2.22-2.42-.89-.26-.24-.48-.46-.7-.67-.31.2-.57.36-.83.53l-.56-.66,2.35-1.99c.26.21.5.41.8.66l1.57-1.32c.51.75,1.07.79,1.66.19.27.25.5.45.73.66.31-.19.57-.35.83-.5.25.23.47.42.73.65.76-.87,1.22-.33,1.68.31.18.25.41.45.61.66.33-.22.56-.38.88-.6l2.06,2.44c.36-.2.63-.35.92-.52.42.44.78.86,1.37.24.52-.56,1.55-.9.53-1.87.24-.28.44-.52.65-.76-.19-.3-.35-.56-.5-.81.23-.28.43-.51.69-.82l-1.35-1.6c.28-.3.49-.53.72-.77-.18-.3-.33-.57-.52-.88.25-.18.47-.34.73-.53l2.05,2.43c.36-.22.62-.38.93-.57.18.26.34.48.49.68-.25.28-.45.48-.64.7.19.3.35.56.53.85-.53.5-1.03.97-1.61,1.52l1.35,1.6c-.27.3-.45.52-.68.78.69.59.5,1.13-.11,1.6.19.33.34.59.49.86-.23.24-.43.45-.64.67.19.29.36.55.55.86-.82.47-.65,1.05-.16,1.62-.24.25-.44.46-.7.74l1.35,1.59c-.27.31-.47.54-.68.77.18.3.34.57.5.84-.23.26-.44.49-.68.74.17.29.33.56.49.82-.22.28-.4.52-.6.78.21.29.39.55.58.81-.25.26-.47.49-.71.73.16.29.31.56.46.84-.21.27-.41.51-.61.76.19.29.36.55.55.84-.23.26-.44.49-.64.72.19.31.35.58.53.88-.76.43-.7.97-.2,1.53l-1.47,1.24-1.26-1.49Z"/>
        </g>
      </g>
      <g id="_Radial_Repeat_-8" data-name="&amp;lt;Radial Repeat&amp;gt;">
        <path class="cls-1" d="m36.94,72.01c-.34-.07-.62-.12-1.01-.2l.18-2.13c-.42-.08-.72-.14-1.07-.21.02-.72.04-1.4.06-2.09-.36-.09-.64-.15-1.04-.25l.1-1.16c-.16-.32-.29-.64-.38-.97-.72-.21-.68-.36-.37-1.24.05,0,.1,0,.15,0-.04-.56-.01-1.13.08-1.71.05-.3.11-.59.17-.89-.04-1.01.02-1.97.19-2.96l-.2-.02.28-3.29c.37-.03.68-.06,1.07-.1l.36-4.29c.38-.02.69-.04.92-.06.61-.71-.46-2.39,1.46-2.13.07-.35.12-.65.18-.95.37-.02.67-.04.98-.05l.07-.86-3.07-.26c-.09.32-.17.62-.27,1l-2.04-.17c.02.91-.42,1.27-1.24,1.12-.08.36-.14.66-.21.96-.36.03-.67.05-.96.07-.08.33-.14.61-.22.95-1.12-.27-1.19.44-1.19,1.23,0,.3-.08.6-.11.89-.4,0-.68.02-1.06.02l-.27,3.18c-.41.04-.72.08-1.05.11-.08.6-.14,1.16-.98.99-.75-.15-1.79.17-1.51-1.22-.36-.09-.66-.17-.97-.24-.02-.35-.04-.66-.06-.95-.35-.09-.65-.17-1.03-.27l.18-2.08c-.4-.08-.71-.15-1.03-.21-.03-.35-.06-.65-.09-1.02-.31,0-.58,0-.9,0l-.27,3.17c-.42.03-.73.05-1.09.08,0,.32,0,.59,0,.84.37.08.64.14.93.2.02.35.04.66.06,1,.72.1,1.4.2,2.19.31l-.18,2.09c.39.09.67.16,1.01.24-.22.88.25,1.21,1.01,1.24.04.37.06.68.09.98.33.06.61.12.91.18.02.35.03.66.04,1.02.94-.09,1.14.48,1.07,1.23.34.07.62.12,1,.2l-.18,2.08c.4.09.7.16,1,.24.03.35.05.66.08.98.34.07.64.14.98.22.03.34.05.65.08.95.34.1.63.19.94.29,0,.36,0,.67,0,1,.36.07.67.13,1,.19.04.33.07.64.11.95.33.09.63.18.94.27.01.35.03.66.04,1,.34.08.64.14.94.21.03.36.05.67.08,1.02.87-.09,1.13.39,1.05,1.13l1.92.16.16-1.95Z"/>
        <g id="WNsNV2-8" data-name="WNsNV2">
          <path class="cls-1" d="m24.79,84.72c.35,0,.63-.02,1.02-.03l.18-2.13c.43-.01.74-.02,1.09-.03.1-.72.2-1.39.29-2.07.37-.02.66-.04,1.06-.07l.1-1.16c.21-.29.39-.58.54-.89.74-.09.73-.24.57-1.16-.05-.01-.1-.02-.15-.03.13-.54.2-1.11.21-1.7,0-.3,0-.6-.02-.9.2-.99.31-1.94.3-2.95l.2.02.28-3.29c-.36-.1-.66-.18-1.04-.27l.36-4.29c-.37-.09-.67-.16-.9-.21-.49-.8.86-2.28-1.08-2.34,0-.35-.01-.66-.02-.97-.36-.08-.66-.15-.96-.22l.07-.86,3.07.26c.03.34.06.64.1,1.03l2.04.17c-.17.89.2,1.32,1.04,1.31.02.37.03.68.05.98.35.09.65.16.94.23.02.34.04.63.06.98,1.15-.08,1.1.63.97,1.41-.05.3-.03.61-.04.9.39.07.67.13,1.05.2l-.27,3.18c.4.11.7.2,1.02.29-.02.6-.06,1.16.8,1.14.76-.02,1.73.46,1.7-.95.37-.03.68-.05.99-.08.08-.34.15-.64.22-.93.36-.03.67-.06,1.06-.09l.18-2.08c.41-.01.72-.02,1.05-.04.09-.34.17-.64.26-.99.31.05.57.09.89.14l-.27,3.17c.41.1.71.17,1.06.26-.05.31-.1.58-.14.83-.37.02-.66.03-.95.04-.08.34-.15.64-.23.97-.73-.02-1.41-.04-2.21-.07l-.18,2.09c-.4.03-.69.04-1.03.07.07.91-.45,1.16-1.21,1.05-.1.36-.18.66-.26.95-.33,0-.62.02-.93.02-.07.34-.14.64-.21,1-.92-.25-1.2.29-1.26,1.04-.35,0-.63.02-1.02.03l-.18,2.08c-.41.03-.72.04-1.03.06-.09.34-.16.64-.24.95-.35.02-.66.03-1,.05-.08.33-.16.63-.23.92-.35.04-.66.08-.97.12-.06.35-.11.66-.17.98-.37,0-.68.01-1.02.02-.09.32-.18.61-.27.92-.34.04-.65.07-.97.1-.07.34-.14.65-.2.98-.34.02-.65.03-.96.05-.09.35-.16.65-.25.99-.84-.23-1.18.19-1.22.94l-1.92-.16.16-1.95Z"/>
        </g>
      </g>
    </g>
  </g>
</svg>