<?xml version="1.0" encoding="UTF-8"?>
<svg id="Layer_2" data-name="Layer 2" xmlns="http://www.w3.org/2000/svg" viewBox="0 0 96.87 96.87">
  <defs>
    <style>
      .cls-1 {
        fill: #fff;
        stroke-width: 0px;
      }
    </style>
  </defs>
  <g id="Layer_1-2" data-name="Layer 1">
    <g>
      <g id="_Radial_Repeat_" data-name="&amp;lt;Radial Repeat&amp;gt;">
        <path class="cls-1" d="m73.92,18.83s-.02.03-.03.05c-.27.45-.46.73-.65.83-.17-.32-.44-.61-.82-.84-.35-.21-.71-.42-1.09-.58-.87-.9-1.79-1.78-2.85-2.36-1.62-.91-3.35-1.65-5.06-2.38-.6-.24-1.19-.5-1.79-.76-1.4-.61-2.81-1.19-4.25-1.67-.77-.27-1.62-.33-2.44-.4-2.18-.19-4.4-.17-6.55-.57-1.13-.22-2.12-.23-3.24-.04-1.75.31-3.53.56-5.29.53-1.11-.03-1.99.19-2.9.75-.52.32-1.15.48-1.75.62-2.2.51-4.64.36-6.19,2.5-.18.24-.61.29-.9.46-1.89,1.09-4,2.11-4.03,4.68-.04,2.29.27,4.59,1.96,6.4.21.22.46.42.74.54,1.22.54,2.45,1.05,3.68,1.55,2.16.87,4.25.6,6.31-.36.34-.16.81-.06,1.21-.07.02.5.23,1.12.03,1.5-1.51,2.76-2.82,5.56-3,8.78-.05.91-.98,1.76-1.89,1.61-1.06-.16-2.09-.56-3.11-.89-.61-.19-1.2-.66-1.81-.67-1.99-.03-3.64-.86-5.32-1.83-1.19-.7-2.01-1.58-2.26-2.87-.38-1.94-.69-3.89.08-5.86.3-.75.33-1.67.26-2.48-.25-2.48.85-4.66,1.57-6.87.59-1.79,2.12-3.25,2.88-5.02.89-2.04,2.58-3.25,4.01-4.75,1.65-1.73,3.34-3.35,5.83-3.8.36-.07.66-.37,1.01-.54,1.83-.87,3.49-2.1,5.7-2.15,1.37-.03,2.8-.43,4.07-.98,1.3-.56,2.53-.66,3.89-.56,1.52.11,3.16.43,4.53-.03,1.77-.57,3.2.01,4.76.37.3.07.61.08,1.12.15-.09-.21-.15-.36-.19-.51.61.07,1.23.07,1.84,0l3.87,6.03c2.44,3.84,4.84,7.69,7.33,11.49.1.15.19.28.29.41.03.05.07.1.12.14l.05.07c.09.13.18.24.29.36Z"/>
        <path class="cls-1" d="m69.04,57.7s-.01-.03-.02-.06c-.16-.5-.28-.81-.45-.95-.24.28-.56.5-.98.64-.39.13-.78.25-1.19.33-1.05.69-2.14,1.34-3.3,1.68-1.78.53-3.63.87-5.46,1.21-.64.1-1.27.22-1.91.35-1.5.28-3,.55-4.51.69-.81.09-1.65-.04-2.47-.15-2.17-.29-4.33-.8-6.52-.88-1.15-.04-2.12-.24-3.17-.67-1.64-.69-3.32-1.32-5.04-1.68-1.09-.22-1.9-.62-2.66-1.37-.43-.43-1.01-.72-1.57-.99-2.03-.98-4.45-1.37-5.49-3.81-.12-.27-.53-.41-.78-.65-1.61-1.48-3.43-2.94-2.9-5.45.47-2.25,1.27-4.42,3.32-5.81.25-.17.54-.31.84-.36,1.3-.25,2.62-.48,3.94-.71,2.3-.38,4.28.35,6.08,1.74.3.23.78.23,1.16.34.13-.48.47-1.04.36-1.46-.86-3.03-1.53-6.05-.99-9.23.15-.9-.57-1.93-1.49-1.98-1.07-.07-2.16.08-3.23.18-.64.05-1.32.38-1.91.25-1.95-.41-3.74.03-5.59.61-1.32.42-2.31,1.1-2.84,2.3-.8,1.81-1.53,3.65-1.21,5.73.12.8-.04,1.7-.3,2.48-.79,2.36-.2,4.74.02,7.05.18,1.87,1.35,3.64,1.7,5.53.42,2.19,1.8,3.74,2.87,5.51,1.23,2.05,2.52,4.01,4.85,4.99.33.14.57.51.86.74,1.59,1.26,2.94,2.82,5.08,3.35,1.33.33,2.64,1.03,3.76,1.85,1.14.83,2.33,1.2,3.67,1.4,1.5.23,3.18.28,4.42,1.02,1.6.95,3.13.69,4.73.68.31,0,.62.06,1.12.1-.13.18-.22.32-.3.46.61.06,1.22.2,1.8.4l5.1-5.03c3.22-3.21,6.42-6.43,9.68-9.59.13-.12.25-.23.37-.33.04-.04.09-.08.15-.12l.07-.05c.11-.1.23-.2.36-.29Z"/>
      </g>
      <g id="_Radial_Repeat_-2" data-name="&amp;lt;Radial Repeat&amp;gt;">
        <path class="cls-1" d="m61.34,85.32s-.02-.03-.03-.05c-.26-.46-.4-.76-.39-.98.37,0,.75-.07,1.14-.29.36-.2.72-.41,1.05-.65,1.22-.3,2.44-.66,3.47-1.29,1.6-.95,3.1-2.07,4.6-3.19.51-.4,1.03-.79,1.55-1.17,1.23-.91,2.44-1.83,3.57-2.85.62-.54,1.09-1.24,1.57-1.91,1.26-1.79,2.35-3.73,3.77-5.39.76-.87,1.26-1.72,1.66-2.78.61-1.67,1.28-3.34,2.19-4.85.58-.95.83-1.82.8-2.89-.02-.61.16-1.24.34-1.83.66-2.16,2.01-4.2.93-6.61-.12-.27.05-.67.05-1.01,0-2.18.17-4.52-2.03-5.83-1.97-1.18-4.11-2.06-6.52-1.5-.3.07-.59.19-.83.37-1.07.78-2.13,1.6-3.19,2.41-1.84,1.44-2.64,3.38-2.85,5.64-.04.38-.36.73-.54,1.08-.44-.23-1.09-.36-1.31-.73-1.64-2.69-3.41-5.22-6.11-6.99-.77-.5-1.03-1.73-.45-2.44.67-.84,1.53-1.53,2.33-2.25.47-.43,1.17-.71,1.49-1.24,1.02-1.71,2.56-2.73,4.24-3.69,1.2-.68,2.38-.95,3.62-.52,1.87.64,3.71,1.35,5.03,3,.51.63,1.28,1.12,2.02,1.47,2.28,1.02,3.61,3.07,5.16,4.79,1.25,1.4,1.76,3.46,2.91,5,1.32,1.79,1.53,3.86,2.11,5.85.67,2.3,1.23,4.57.37,6.95-.12.34-.01.76-.04,1.14-.16,2.02.07,4.07-.99,6.01-.66,1.2-1.03,2.64-1.19,4.01-.16,1.4-.7,2.52-1.46,3.65-.85,1.26-1.95,2.53-2.24,3.94-.39,1.81-1.61,2.77-2.71,3.94-.21.23-.38.49-.69.89.22.03.39.05.54.09-.37.5-.68,1.03-.93,1.59l-7.16.33c-4.55.19-9.08.35-13.61.6-.17.01-.34.03-.5.05-.06,0-.12.02-.18.03h-.09c-.15.02-.3.05-.45.08Z"/>
        <path class="cls-1" d="m30.12,61.65s.04,0,.06.01c.52.11.85.16,1.05.08-.12-.35-.15-.74-.06-1.17.08-.4.17-.81.31-1.19-.07-1.25-.09-2.52.2-3.7.43-1.81,1.06-3.58,1.68-5.34.23-.61.45-1.21.65-1.83.5-1.44,1.03-2.87,1.66-4.25.33-.75.86-1.41,1.36-2.06,1.34-1.73,2.86-3.35,4.02-5.2.61-.98,1.27-1.72,2.16-2.41,1.41-1.07,2.81-2.21,3.98-3.53.73-.84,1.49-1.34,2.52-1.62.59-.16,1.13-.52,1.65-.87,1.87-1.27,3.41-3.16,6.04-2.85.3.03.62-.25.95-.35,2.08-.65,4.27-1.5,6.17.21,1.71,1.53,3.19,3.31,3.37,5.78.02.3,0,.62-.1.9-.43,1.26-.89,2.51-1.36,3.76-.83,2.18-2.45,3.53-4.54,4.39-.35.15-.59.56-.87.84.35.36.67.93,1.08,1.04,3.05.77,6,1.7,8.49,3.76.7.58,1.96.47,2.46-.3.6-.89,1.01-1.91,1.46-2.89.27-.58.33-1.33.74-1.78,1.33-1.48,1.84-3.26,2.26-5.15.3-1.35.21-2.55-.57-3.61-1.17-1.6-2.39-3.15-4.36-3.91-.75-.29-1.45-.88-2-1.5-1.65-1.87-4-2.54-6.11-3.51-1.71-.78-3.82-.65-5.64-1.29-2.1-.73-4.13-.31-6.21-.28-2.39.04-4.73.18-6.75,1.71-.29.22-.72.24-1.08.38-1.89.75-3.91,1.14-5.45,2.73-.95.98-2.22,1.77-3.48,2.33-1.29.57-2.2,1.42-3.05,2.48-.95,1.19-1.83,2.61-3.09,3.31-1.62.91-2.16,2.36-2.96,3.75-.16.27-.36.51-.65.92-.09-.21-.17-.35-.24-.49-.36.5-.78.96-1.25,1.36l1.81,6.93c1.17,4.4,2.36,8.77,3.47,13.18.04.17.08.33.1.49.01.06.02.12.03.18v.08c.05.15.07.3.08.45Z"/>
      </g>
      <g id="_Radial_Repeat_-3" data-name="&amp;lt;Radial Repeat&amp;gt;">
        <path class="cls-1" d="m10.05,41.17s.04,0,.06,0c.53,0,.86.03,1.05.15-.19.31-.31.68-.32,1.13-.01.41,0,.82.04,1.23-.34,1.21-.65,2.44-.62,3.65.03,1.86.25,3.72.47,5.58.09.64.17,1.28.24,1.93.17,1.52.37,3.03.68,4.52.16.8.52,1.56.87,2.31.92,1.98,2.05,3.9,2.78,5.96.38,1.09.86,1.96,1.58,2.82,1.14,1.36,2.25,2.78,3.1,4.32.53.98,1.16,1.63,2.1,2.13.54.28.99.75,1.41,1.21,1.54,1.65,2.63,3.84,5.26,4.11.3.04.55.38.85.55,1.89,1.1,3.83,2.41,6.07,1.15,2-1.12,3.84-2.53,4.56-4.9.09-.29.13-.61.1-.91-.14-1.32-.32-2.65-.5-3.97-.32-2.31-1.61-3.98-3.46-5.29-.31-.22-.45-.67-.67-1.01.42-.27.86-.76,1.29-.77,3.14-.08,6.23-.34,9.11-1.8.82-.41,2.01-.03,2.34.83.39,1,.56,2.09.79,3.14.14.62.03,1.37.33,1.9.97,1.74,1.08,3.58,1.07,5.52,0,1.38-.36,2.53-1.35,3.39-1.49,1.3-3.03,2.54-5.12,2.86-.8.12-1.61.54-2.28,1.02-2.02,1.46-4.46,1.6-6.73,2.07-1.84.38-3.87-.21-5.78.02-2.21.25-4.1-.61-6.12-1.1-2.32-.57-4.58-1.22-6.21-3.15-.24-.28-.65-.39-.97-.6-1.67-1.15-3.56-1.97-4.71-3.86-.71-1.17-1.77-2.21-2.88-3.04-1.13-.84-1.83-1.87-2.43-3.09-.66-1.37-1.21-2.95-2.29-3.91-1.38-1.24-1.59-2.78-2.06-4.31-.09-.3-.24-.57-.43-1.04-.13.18-.24.31-.35.42C.67,61.79.36,61.25,0,60.76l3.29-6.36c2.11-4.03,4.24-8.04,6.29-12.09.08-.16.15-.31.21-.45.03-.05.05-.11.07-.17l.03-.08c.07-.14.12-.28.17-.43Z"/>
        <path class="cls-1" d="m46.16,25.96s-.02.03-.04.04c-.35.39-.56.65-.6.87.36.07.71.24,1.05.53.31.27.61.55.88.87,1.12.56,2.23,1.18,3.1,2.02,1.35,1.28,2.57,2.71,3.78,4.13.41.5.83.99,1.26,1.48,1,1.16,1.97,2.33,2.86,3.56.48.66.79,1.45,1.11,2.21.83,2.03,1.47,4.15,2.49,6.09.55,1.02.85,1.96,1,3.08.22,1.76.51,3.54,1.07,5.21.36,1.05.41,1.96.14,2.99-.16.59-.12,1.24-.07,1.86.17,2.25,1.03,4.54-.55,6.66-.17.24-.09.67-.17,1-.48,2.13-.83,4.45-3.27,5.24-2.18.72-4.47,1.11-6.69.03-.27-.14-.54-.31-.73-.54-.87-1-1.73-2.03-2.58-3.06-1.48-1.8-1.83-3.88-1.53-6.13.05-.37-.19-.79-.29-1.18-.48.13-1.14.11-1.44.42-2.19,2.26-4.47,4.35-7.5,5.47-.86.32-1.39,1.46-.97,2.28.47.96,1.15,1.83,1.77,2.71.36.52.98.95,1.18,1.53.62,1.89,1.9,3.22,3.33,4.53,1.02.93,2.11,1.45,3.41,1.31,1.97-.22,3.92-.5,5.57-1.82.63-.51,1.49-.81,2.3-.98,2.44-.5,4.2-2.2,6.09-3.54,1.53-1.09,2.47-2.98,3.94-4.24,1.69-1.45,2.34-3.42,3.34-5.24,1.16-2.09,2.21-4.19,1.89-6.7-.04-.36.16-.74.21-1.12.29-2.01.97-3.95.36-6.08-.38-1.32-.42-2.8-.28-4.18.15-1.4-.13-2.61-.62-3.88-.56-1.42-1.35-2.89-1.32-4.34.02-1.86-.97-3.06-1.77-4.44-.15-.27-.26-.56-.47-1.02.22.02.39.03.55.03-.25-.56-.44-1.16-.55-1.76l-6.91-1.9c-4.39-1.19-8.78-2.34-13.15-3.59-.17-.05-.33-.1-.47-.15-.06-.02-.11-.04-.17-.07l-.08-.03c-.15-.04-.28-.1-.43-.17Z"/>
      </g>
    </g>
  </g>
</svg>