<?xml version="1.0" encoding="UTF-8"?>
<svg id="Layer_2" data-name="Layer 2" xmlns="http://www.w3.org/2000/svg" viewBox="0 0 76.57 76.57">
  <defs>
    <style>
      .cls-1 {
        fill: #fff;
        stroke-width: 0px;
      }
    </style>
  </defs>
  <g id="Layer_1-2" data-name="Layer 1">
    <g>
      <g id="_Radial_Repeat_" data-name="&amp;lt;Radial Repeat&amp;gt;">
        <path class="cls-1" d="m74.79,54.32c-.49-.01-.88-.02-1.43-.04l-.25-2.97c-.6-.02-1.03-.03-1.53-.04-.14-1-.27-1.94-.41-2.89-.52-.03-.92-.06-1.48-.1l-.14-1.61c-.29-.4-.54-.81-.75-1.25-1.04-.13-1.02-.33-.8-1.62l.2-.05c-.19-.76-.28-1.55-.29-2.38,0-.42.01-.84.03-1.26-.28-1.35-.42-2.64-.42-4.01.07.07.14.15.21.22.34-.28.63-.52.91-.74-.24-.46-.43-.81-.62-1.17.36-.34.67-.63,1.02-.95-.46-.75-.9-1.46-1.39-2.25.2-.05.41-.11.64-.17l-.07-.77,1.59-1.11c-.25-.5-.43-.86-.64-1.3,1.14-.54,1.09-1.34.43-2.19.37-.37.67-.67.97-.98-.22-.41-.41-.76-.62-1.14.36-.33.68-.62,1.06-.96-.41-.41-.56-.78-.51-1.12.02,0,.03,0,.04,0,0-.07,0-.13,0-.2.12-.34.43-.65.84-.93-.07-.12-.13-.24-.2-.36.25-.06.49-.11.72-.16l-.1-1.2-.48.04,1.76-1.23c-.25-.51-.44-.9-.64-1.29.35-.34.66-.65.98-.95-.22-.43-.42-.82-.64-1.25.34-.33.65-.63.95-.92-.19-.46-.36-.85-.53-1.26.39-.32.72-.59,1.07-.89-.25-.45-.46-.83-.69-1.24.32-.33.62-.64.92-.96-.19-.44-.37-.83-.55-1.24.36-.33.69-.61,1.04-.93-.22-.43-.42-.81-.61-1.2.36-.35.67-.65,1.03-.99-.87-.85-.59-1.56.28-2.13L74.19,0l-2.24,1.56c.23.43.42.78.68,1.26l-2.45,1.7c.28.52.49.91.73,1.34-.79.62-1.54,1.21-2.3,1.8.23.47.41.82.66,1.33l-1.33.92c-.2.45-.44.88-.7,1.28.41.96.22,1.05-1,1.5-.05-.05-.09-.1-.14-.15-.56.54-1.2,1.02-1.91,1.44-.36.21-.73.41-1.11.61-1.03.91-2.08,1.69-3.26,2.37.03-.1.06-.19.08-.29-.41-.15-.76-.29-1.1-.42-.28.44-.49.78-.71,1.12-.47-.14-.88-.27-1.33-.41-.42.78-.82,1.51-1.25,2.33-.15-.15-.3-.3-.47-.47l-.64.44-1.75-.82c-.31.47-.53.8-.8,1.2-1.04-.72-1.71-.27-2.11.73-.51-.14-.92-.25-1.33-.36-.24.4-.45.74-.68,1.11-.46-.15-.87-.28-1.36-.44-.15.56-.4.87-.71,1,0-.01-.02-.02-.03-.04-.06.03-.12.06-.17.1-.36.07-.78-.05-1.23-.26-.08.12-.15.24-.21.35-.17-.19-.34-.37-.5-.54l-.99.69.27.39-1.94-.91c-.31.47-.55.83-.8,1.2-.47-.13-.89-.25-1.31-.37-.26.41-.5.77-.76,1.18-.46-.13-.87-.25-1.27-.36-.3.39-.56.73-.83,1.09-.47-.17-.88-.32-1.31-.48-.26.44-.49.81-.73,1.22-.45-.11-.87-.21-1.3-.32-.28.38-.54.73-.8,1.1-.46-.15-.88-.29-1.32-.44-.26.4-.5.77-.73,1.13-.48-.14-.9-.26-1.38-.39-.3,1.18-1.05,1.3-1.98.83l-1.14,2.43,2.47,1.16c.26-.42.46-.76.74-1.22l2.7,1.27c.31-.51.54-.88.8-1.3.93.38,1.82.73,2.71,1.09.29-.44.51-.76.82-1.24l1.46.69c.49-.06.98-.06,1.46-.03.63-.84.8-.72,1.8.11-.02.07-.04.13-.06.2.75.21,1.48.53,2.2.94.36.21.72.43,1.08.66,1.3.43,2.5.96,3.68,1.64-.09.02-.19.05-.29.07.07.43.13.81.19,1.16.52.02.92.04,1.32.05.11.48.21.9.32,1.36.88-.03,1.72-.05,2.64-.08-.05.21-.11.41-.17.64l.7.33.16,1.93c.56.04.96.06,1.44.09-.1,1.26.62,1.61,1.68,1.47.14.51.25.92.36,1.33.47.01.86.02,1.3.03.1.48.19.9.3,1.4.56-.15.96-.09,1.23.11,0,.01-.01.03-.02.04.06.04.11.07.17.1.24.28.35.7.39,1.19.14,0,.28,0,.41.01-.08.24-.15.48-.22.71l1.09.51.2-.43.18,2.14c.57.04,1,.06,1.44.09.12.48.23.9.34,1.32.48.03.92.05,1.4.07.12.46.22.87.33,1.28.49.06.92.12,1.36.18.08.49.16.92.23,1.37.51,0,.94.02,1.42.02.13.44.25.86.37,1.28.47.05.9.1,1.35.15.1.48.19.9.29,1.36.48.03.91.05,1.34.07.12.49.23.91.35,1.39,1.18-.33,1.65.26,1.71,1.31l2.67-.22-.23-2.72Zm-15.1-36.95c.03-.09.05-.19.08-.28l.1.15-.19.13Zm-12.48,15.81l.08-.17.21.1c-.1.02-.19.05-.28.07Zm6.28-5.8s.08-.04.12-.06c.03.05.06.1.08.15l-.2-.09Zm7.98-1.81l.18-.13s0,.09,0,.13c-.06,0-.12,0-.17,0Zm-2.33,7.84s.06-.1.09-.15l.02.22s-.07-.05-.11-.07Zm8.1,2.63l-.02-.23c.07.07.14.14.2.21l-.18.02Z"/>
      </g>
      <g id="_Radial_Repeat_-2" data-name="&amp;lt;Radial Repeat&amp;gt;">
        <path class="cls-1" d="m22.24,74.79c.01-.49.02-.88.04-1.43l2.97-.25c.02-.6.03-1.03.04-1.53,1-.14,1.94-.27,2.89-.41.03-.52.06-.92.1-1.48l1.61-.14c.4-.29.81-.54,1.25-.75.13-1.04.33-1.02,1.62-.8l.05.2c.76-.19,1.55-.28,2.38-.29.42,0,.84.01,1.26.03,1.35-.28,2.64-.42,4.01-.42-.07.07-.15.14-.22.21.28.34.52.63.74.91.46-.24.81-.43,1.17-.62.34.36.63.67.95,1.02.75-.46,1.46-.9,2.25-1.39.05.2.11.41.17.64l.77-.07,1.11,1.59c.5-.25.86-.43,1.3-.64.54,1.14,1.34,1.09,2.19.43.37.37.67.67.98.97.41-.22.76-.41,1.14-.62.33.36.62.68.96,1.06.41-.41.78-.56,1.12-.51,0,.02,0,.03,0,.04.07,0,.13,0,.2,0,.34.12.65.43.93.84.12-.07.24-.13.36-.2.06.25.11.49.16.72l1.2-.1-.04-.48,1.23,1.76c.51-.25.9-.44,1.29-.64.34.35.65.66.95.98.43-.22.82-.42,1.25-.64.33.34.63.65.92.95.46-.19.85-.36,1.26-.53.32.39.59.72.89,1.07.45-.25.83-.46,1.24-.69.33.32.64.62.96.92.44-.19.83-.37,1.24-.55.33.36.61.69.93,1.04.43-.22.81-.42,1.2-.61.35.36.65.67.99,1.03.85-.87,1.56-.59,2.13.28l2.2-1.53-1.56-2.24c-.43.23-.78.42-1.26.68l-1.7-2.45c-.52.28-.91.49-1.34.73-.62-.79-1.21-1.54-1.8-2.3-.47.23-.82.41-1.33.66l-.92-1.33c-.45-.2-.88-.44-1.28-.7-.96.41-1.05.22-1.5-1,.05-.05.1-.09.15-.14-.54-.56-1.02-1.2-1.44-1.91-.21-.36-.41-.73-.61-1.11-.91-1.03-1.69-2.08-2.37-3.26.1.03.19.06.29.08.15-.41.29-.76.42-1.1-.44-.28-.78-.49-1.12-.71.14-.47.27-.88.41-1.33-.78-.42-1.51-.82-2.33-1.25.15-.15.3-.3.47-.47l-.44-.64.82-1.75c-.47-.31-.8-.53-1.2-.8.72-1.04.27-1.71-.73-2.11.14-.51.25-.92.36-1.33-.4-.24-.74-.45-1.11-.68.15-.46.28-.87.44-1.36-.56-.15-.87-.4-1-.71.01,0,.02-.02.04-.03-.03-.06-.06-.12-.1-.17-.07-.36.05-.78.26-1.23-.12-.08-.24-.15-.35-.21.19-.17.37-.34.54-.5l-.69-.99-.39.27.91-1.94c-.47-.31-.83-.55-1.2-.8.13-.47.25-.89.37-1.31-.41-.26-.77-.5-1.18-.76.13-.46.25-.87.36-1.27-.39-.3-.73-.56-1.09-.83.17-.47.32-.88.48-1.31-.44-.26-.81-.49-1.22-.73.11-.45.21-.87.32-1.3-.38-.28-.73-.54-1.1-.8.15-.46.29-.88.44-1.32-.4-.26-.77-.5-1.13-.73.14-.48.26-.9.39-1.38-1.18-.3-1.3-1.05-.83-1.98l-2.43-1.14-1.16,2.47c.42.26.76.46,1.22.74l-1.27,2.7c.51.31.88.54,1.3.8-.38.93-.73,1.82-1.09,2.71.44.29.76.51,1.24.82l-.69,1.46c.06.49.06.98.03,1.46.84.63.72.8-.11,1.8-.07-.02-.13-.04-.2-.06-.21.75-.53,1.48-.94,2.2-.21.36-.43.72-.66,1.08-.43,1.3-.96,2.5-1.64,3.68-.02-.09-.05-.19-.07-.29-.43.07-.81.13-1.16.19-.02.52-.04.92-.05,1.32-.48.11-.9.21-1.36.32.03.88.05,1.72.08,2.64-.21-.05-.41-.11-.64-.17l-.33.7-1.93.16c-.04.56-.06.96-.09,1.44-1.26-.1-1.61.62-1.47,1.68-.51.14-.92.25-1.33.36-.01.47-.02.86-.03,1.3-.48.1-.9.19-1.4.3.15.56.09.96-.11,1.23-.01,0-.03-.01-.04-.02-.04.06-.07.11-.1.17-.28.24-.7.35-1.19.39,0,.14,0,.28-.01.41-.24-.08-.48-.15-.71-.22l-.51,1.09.43.2-2.14.18c-.04.57-.06,1-.09,1.44-.48.12-.9.23-1.32.34-.03.48-.05.92-.07,1.4-.46.12-.87.22-1.28.33-.06.49-.12.92-.18,1.36-.49.08-.92.16-1.37.23,0,.51-.02.94-.02,1.42-.44.13-.86.25-1.28.37-.05.47-.1.9-.15,1.35-.48.1-.9.19-1.36.29-.03.48-.05.91-.07,1.34-.49.12-.91.23-1.39.35.33,1.18-.26,1.65-1.31,1.71l.22,2.67,2.72-.23Zm36.95-15.1c.09.03.19.05.28.08l-.15.1-.13-.19Zm-15.81-12.48l.17.08-.1.21c-.02-.1-.05-.19-.07-.28Zm5.8,6.28s.04.08.06.12c-.05.03-.1.06-.15.08l.09-.2Zm1.81,7.98l.13.18s-.09,0-.13,0c0-.06,0-.12,0-.17Zm-7.84-2.33s.1.06.15.09l-.22.02s.05-.07.07-.11Zm-2.63,8.1l.23-.02c-.07.07-.14.14-.21.2l-.02-.18Z"/>
      </g>
      <g id="_Radial_Repeat_-3" data-name="&amp;lt;Radial Repeat&amp;gt;">
        <path class="cls-1" d="m1.78,22.24c.49.01.88.02,1.43.04l.25,2.97c.6.02,1.03.03,1.53.04.14,1,.27,1.94.41,2.89.52.03.92.06,1.48.1l.14,1.61c.29.4.54.81.75,1.25,1.04.13,1.02.33.8,1.62l-.2.05c.19.76.28,1.55.29,2.38,0,.42-.01.84-.03,1.26.28,1.35.42,2.64.42,4.01-.07-.07-.14-.15-.21-.22-.34.28-.63.52-.91.74.24.46.43.81.62,1.17-.36.34-.67.63-1.02.95.46.75.9,1.46,1.39,2.25-.2.05-.41.11-.64.17l.07.77-1.59,1.11c.25.5.43.86.64,1.3-1.14.54-1.09,1.34-.43,2.19-.37.37-.67.67-.97.98.22.41.41.76.62,1.14-.36.33-.68.62-1.06.96.41.41.56.78.51,1.12-.02,0-.03,0-.04,0,0,.07,0,.13,0,.2-.12.34-.43.65-.84.93.07.12.13.24.2.36-.25.06-.49.11-.72.16l.1,1.2.48-.04-1.76,1.23c.25.51.44.9.64,1.29-.35.34-.66.65-.98.95.22.43.42.82.64,1.25-.34.33-.65.63-.95.92.19.46.36.85.53,1.26-.39.32-.72.59-1.07.89.25.45.46.83.69,1.24-.32.33-.62.64-.92.96.19.44.37.83.55,1.24-.36.33-.69.61-1.04.93.22.43.42.81.61,1.2-.36.35-.67.65-1.03.99.87.85.59,1.56-.28,2.13l1.53,2.2,2.24-1.56c-.23-.43-.42-.78-.68-1.26l2.45-1.7c-.28-.52-.49-.91-.73-1.34.79-.62,1.54-1.21,2.3-1.8-.23-.47-.41-.82-.66-1.33l1.33-.92c.2-.45.44-.88.7-1.28-.41-.96-.22-1.05,1-1.5.05.05.09.1.14.15.56-.54,1.2-1.02,1.91-1.44.36-.21.73-.41,1.11-.61,1.03-.91,2.08-1.69,3.26-2.37-.03.1-.06.19-.08.29.41.15.76.29,1.1.42.28-.44.49-.78.71-1.12.47.14.88.27,1.33.41.42-.78.82-1.51,1.25-2.33.15.15.3.3.47.47l.64-.44,1.75.82c.31-.47.53-.8.8-1.2,1.04.72,1.71.27,2.11-.73.51.14.92.25,1.33.36.24-.4.45-.74.68-1.11.46.15.87.28,1.36.44.15-.56.4-.87.71-1,0,.01.02.02.03.04.06-.03.12-.06.17-.1.36-.07.78.05,1.23.26.08-.12.15-.24.21-.35.17.19.34.37.5.54l.99-.69-.27-.39,1.94.91c.31-.47.55-.83.8-1.2.47.13.89.25,1.31.37.26-.41.5-.77.76-1.18.46.13.87.25,1.27.36.3-.39.56-.73.83-1.09.47.17.88.32,1.31.48.26-.44.49-.81.73-1.22.45.11.87.21,1.3.32.28-.38.54-.73.8-1.1.46.15.88.29,1.32.44.26-.4.5-.77.73-1.13.48.14.9.26,1.38.39.3-1.18,1.05-1.3,1.98-.83l1.14-2.43-2.47-1.16c-.26.42-.46.76-.74,1.22l-2.7-1.27c-.31.51-.54.88-.8,1.3-.93-.38-1.82-.73-2.71-1.09-.29.44-.51.76-.82,1.24l-1.46-.69c-.49.06-.98.06-1.46.03-.63.84-.8.72-1.8-.11.02-.07.04-.13.06-.2-.75-.21-1.48-.53-2.2-.94-.36-.21-.72-.43-1.08-.66-1.3-.43-2.5-.96-3.68-1.64.09-.02.19-.05.29-.07-.07-.43-.13-.81-.19-1.16-.52-.02-.92-.04-1.32-.05-.11-.48-.21-.9-.32-1.36-.88.03-1.72.05-2.64.08.05-.21.11-.41.17-.64l-.7-.33-.16-1.93c-.56-.04-.96-.06-1.44-.09.1-1.26-.62-1.61-1.68-1.47-.14-.51-.25-.92-.36-1.33-.47-.01-.86-.02-1.3-.03-.1-.48-.19-.9-.3-1.4-.56.15-.96.09-1.23-.11,0-.01.01-.03.02-.04-.06-.04-.11-.07-.17-.1-.24-.28-.35-.7-.39-1.19-.14,0-.28,0-.41-.01.08-.24.15-.48.22-.71l-1.09-.51-.2.43-.18-2.14c-.57-.04-1-.06-1.44-.09-.12-.48-.23-.9-.34-1.32-.48-.03-.92-.05-1.4-.07-.12-.46-.22-.87-.33-1.28-.49-.06-.92-.12-1.36-.18-.08-.49-.16-.92-.23-1.37-.51,0-.94-.02-1.42-.02-.13-.44-.25-.86-.37-1.28-.47-.05-.9-.1-1.35-.15-.1-.48-.19-.9-.29-1.36-.48-.03-.91-.05-1.34-.07-.12-.49-.23-.91-.35-1.39-1.18.33-1.65-.26-1.71-1.31l-2.67.22.23,2.72Zm15.1,36.95c-.03.09-.05.19-.08.28l-.1-.15.19-.13Zm12.48-15.81l-.08.17-.21-.1c.1-.02.19-.05.28-.07Zm-6.28,5.8s-.08.04-.12.06c-.03-.05-.06-.1-.08-.15l.2.09Zm-7.98,1.81l-.18.13s0-.09,0-.13c.06,0,.12,0,.17,0Zm2.33-7.84s-.06.1-.09.15l-.02-.22s.07.05.11.07Zm-8.1-2.63l.02.23c-.07-.07-.14-.14-.2-.21l.18-.02Z"/>
      </g>
      <g id="_Radial_Repeat_-4" data-name="&amp;lt;Radial Repeat&amp;gt;">
        <path class="cls-1" d="m54.32,1.78c-.01.49-.02.88-.04,1.43l-2.97.25c-.02.6-.03,1.03-.04,1.53-1,.14-1.94.27-2.89.41-.03.52-.06.92-.1,1.48l-1.61.14c-.4.29-.81.54-1.25.75-.13,1.04-.33,1.02-1.62.8l-.05-.2c-.76.19-1.55.28-2.38.29-.42,0-.84-.01-1.26-.03-1.35.28-2.64.42-4.01.42.07-.07.15-.14.22-.21-.28-.34-.52-.63-.74-.91-.46.24-.81.43-1.17.62-.34-.36-.63-.67-.95-1.02-.75.46-1.46.9-2.25,1.39-.05-.2-.11-.41-.17-.64l-.77.07-1.11-1.59c-.5.25-.86.43-1.3.64-.54-1.14-1.34-1.09-2.19-.43-.37-.37-.67-.67-.98-.97-.41.22-.76.41-1.14.62-.33-.36-.62-.68-.96-1.06-.41.41-.78.56-1.12.51,0-.02,0-.03,0-.04-.07,0-.13,0-.2,0-.34-.12-.65-.43-.93-.84-.12.07-.24.13-.36.2-.06-.25-.11-.49-.16-.72l-1.2.1.04.48-1.23-1.76c-.51.25-.9.44-1.29.64-.34-.35-.65-.66-.95-.98-.43.22-.82.42-1.25.64-.33-.34-.63-.65-.92-.95-.46.19-.85.36-1.26.53-.32-.39-.59-.72-.89-1.07-.45.25-.83.46-1.24.69-.33-.32-.64-.62-.96-.92-.44.19-.83.37-1.24.55-.33-.36-.61-.69-.93-1.04-.43.22-.81.42-1.2.61-.35-.36-.65-.67-.99-1.03-.85.87-1.56.59-2.13-.28L0,2.38l1.56,2.24c.43-.23.78-.42,1.26-.68l1.7,2.45c.52-.28.91-.49,1.34-.73.62.79,1.21,1.54,1.8,2.3.47-.23.82-.41,1.33-.66l.92,1.33c.45.2.88.44,1.28.7.96-.41,1.05-.22,1.5,1-.05.05-.1.09-.15.14.54.56,1.02,1.2,1.44,1.91.21.36.41.73.61,1.11.91,1.03,1.69,2.08,2.37,3.26-.1-.03-.19-.06-.29-.08-.15.41-.29.76-.42,1.1.44.28.78.49,1.12.71-.14.47-.27.88-.41,1.33.78.42,1.51.82,2.33,1.25-.15.15-.3.3-.47.47l.44.64-.82,1.75c.47.31.8.53,1.2.8-.72,1.04-.27,1.71.73,2.11-.14.51-.25.92-.36,1.33.4.24.74.45,1.11.68-.15.46-.28.87-.44,1.36.56.15.87.4,1,.71-.01,0-.02.02-.04.03.03.06.06.12.1.17.07.36-.05.78-.26,1.23.12.08.24.15.35.21-.19.17-.37.34-.54.5l.69.99.39-.27-.91,1.94c.47.31.83.55,1.2.8-.13.47-.25.89-.37,1.31.41.26.77.5,1.18.76-.13.46-.25.87-.36,1.27.39.3.73.56,1.09.83-.17.47-.32.88-.48,1.31.44.26.81.49,1.22.73-.11.45-.21.87-.32,1.3.38.28.73.54,1.1.8-.15.46-.29.88-.44,1.32.4.26.77.5,1.13.73-.14.48-.26.9-.39,1.38,1.18.3,1.3,1.05.83,1.98l2.43,1.14,1.16-2.47c-.42-.26-.76-.46-1.22-.74l1.27-2.7c-.51-.31-.88-.54-1.3-.8.38-.93.73-1.82,1.09-2.71-.44-.29-.76-.51-1.24-.82l.69-1.46c-.06-.49-.06-.98-.03-1.46-.84-.63-.72-.8.11-1.8.07.02.13.04.2.06.21-.75.53-1.48.94-2.2.21-.36.43-.72.66-1.08.43-1.3.96-2.5,1.64-3.68.02.09.05.19.07.29.43-.07.81-.13,1.16-.19.02-.52.04-.92.05-1.32.48-.11.9-.21,1.36-.32-.03-.88-.05-1.72-.08-2.64.21.05.41.11.64.17l.33-.7,1.93-.16c.04-.56.06-.96.09-1.44,1.26.1,1.61-.62,1.47-1.68.51-.14.92-.25,1.33-.36.01-.47.02-.86.03-1.3.48-.1.9-.19,1.4-.3-.15-.56-.09-.96.11-1.23.01,0,.03.01.04.02.04-.06.07-.11.1-.17.28-.24.7-.35,1.19-.39,0-.14,0-.28.01-.41.24.08.48.15.71.22l.51-1.09-.43-.2,2.14-.18c.04-.57.06-1,.09-1.44.48-.12.9-.23,1.32-.34.03-.48.05-.92.07-1.4.46-.12.87-.22,1.28-.33.06-.49.12-.92.18-1.36.49-.08.92-.16,1.37-.23,0-.51.02-.94.02-1.42.44-.13.86-.25,1.28-.37.05-.47.1-.9.15-1.35.48-.1.9-.19,1.36-.29.03-.48.05-.91.07-1.34.49-.12.91-.23,1.39-.35-.33-1.18.26-1.65,1.31-1.71l-.22-2.67-2.72.23Zm-36.95,15.1c-.09-.03-.19-.05-.28-.08l.15-.1.13.19Zm15.81,12.48l-.17-.08.1-.21c.02.1.05.19.07.28Zm-5.8-6.28s-.04-.08-.06-.12c.05-.03.1-.06.15-.08l-.09.2Zm-1.81-7.98l-.13-.18s.09,0,.13,0c0,.06,0,.12,0,.17Zm7.84,2.33s-.1-.06-.15-.09l.22-.02s-.05.07-.07.11Zm2.63-8.1l-.23.02c.07-.07.14-.14.21-.2l.02.18Z"/>
      </g>
    </g>
  </g>
</svg>