<?xml version="1.0" encoding="UTF-8"?>
<svg id="Layer_2" data-name="Layer 2" xmlns="http://www.w3.org/2000/svg" viewBox="0 0 94.94 94.94">
  <defs>
    <style>
      .cls-1 {
        fill: #fff;
        stroke-width: 0px;
      }
    </style>
  </defs>
  <g id="Layer_1-2" data-name="Layer 1">
    <g>
      <g id="_Radial_Repeat_" data-name="&amp;lt;Radial Repeat&amp;gt;">
        <g id="WNsNV2">
          <path class="cls-1" d="m9.5,76.64l3.01,2.37,2.41-3.06c-.5-.49-.9-.89-1.46-1.43l2.64-3.35c-.61-.6-1.05-1.03-1.56-1.53.83-1.18,1.61-2.29,2.4-3.42-.51-.54-.9-.96-1.45-1.54l1.43-1.82c.08-.7.23-1.38.43-2.04-.96-1.14-.74-1.34.74-2.47.09.05.18.1.26.15.54-.97,1.22-1.89,2.02-2.76.41-.44.83-.87,1.26-1.29,1.05-1.72,2.2-3.25,3.57-4.71l-.32-.25,4.08-5.18c.66.35,1.2.64,1.88,1.01l5.32-6.75c.66.38,1.19.68,1.59.91,1.8-.51,1.85-4.49,4.76-1.95.49-.51.92-.94,1.35-1.38.63.37,1.16.68,1.7.99l1.06-1.35-4.83-3.81c-.5.44-.97.85-1.55,1.37l-3.21-2.53c-.33.52-.68.88-1.04,1.08h0s-1.06,1.35-1.06,1.35c-.54-.32-1.07-.63-1.7-1-.43.44-.85.88-1.35,1.38-2.91-2.54-2.97,1.44-4.76,1.95-.4-.23-.93-.53-1.6-.92l-5.32,6.75c-.68-.37-1.23-.66-1.88-1.01l-4.08,5.18.32.25c-1.38,1.46-2.52,2.99-3.57,4.71-.43.42-.85.85-1.26,1.29-.8.87-1.48,1.79-2.02,2.76-.09-.05-.17-.1-.26-.15-.22.16-.41.31-.57.45.46.49.84.89,1.22,1.29-.34.61-.64,1.16-.94,1.71.48.5.91.94,1.4,1.44-.33.59-.62,1.13-.91,1.66.45.54.84,1.01,1.25,1.51-.4.6-.74,1.11-1.09,1.66.52.51.97.94,1.46,1.41-.3.59-.58,1.14-.87,1.7.45.51.85.98,1.27,1.47-.37.6-.68,1.13-1.03,1.7.47.49.9.94,1.33,1.39-.35.63-.65,1.17-.99,1.79,1.55.81,1.47,1.89.51,3.03Z"/>
        </g>
        <g id="WNsNV2-2" data-name="WNsNV2">
          <path class="cls-1" d="m25.65,34.59l-2.21,3.14,3.19,2.24c.46-.53.84-.95,1.35-1.53l3.49,2.46c.56-.64.97-1.1,1.45-1.64,1.22.76,2.38,1.48,3.55,2.21.51-.54.91-.95,1.46-1.54l1.89,1.33c.7.04,1.39.15,2.06.32,1.09-1.02,1.3-.82,2.5.6-.04.09-.09.18-.13.27,1,.49,1.96,1.11,2.87,1.86.46.38.91.78,1.36,1.19,1.77.95,3.37,2.02,4.9,3.31l.23-.33,5.39,3.79c-.31.67-.58,1.24-.91,1.94l7.03,4.94c-.34.68-.62,1.23-.82,1.64.6,1.77,4.58,1.61,2.2,4.65.53.46.99.87,1.45,1.27-.33.65-.61,1.2-.9,1.75l1.41.99,3.54-5.03c-.47-.48-.9-.92-1.45-1.47l2.35-3.34c-.54-.3-.92-.63-1.13-.98h0s-1.41-.98-1.41-.98c.29-.55.57-1.1.9-1.75-.46-.4-.92-.81-1.46-1.27,2.38-3.04-1.6-2.89-2.2-4.65.21-.42.48-.96.83-1.64l-7.03-4.94c.33-.7.59-1.26.9-1.93l-5.39-3.79-.23.33c-1.53-1.29-3.13-2.35-4.9-3.31-.45-.41-.89-.81-1.36-1.19-.91-.75-1.87-1.38-2.87-1.86.05-.09.09-.18.14-.27-.18-.21-.33-.39-.48-.54-.46.49-.84.89-1.22,1.29-.63-.3-1.19-.57-1.76-.85-.47.51-.89.96-1.36,1.47-.61-.29-1.16-.56-1.71-.82-.52.48-.97.9-1.44,1.33-.62-.36-1.15-.67-1.72-1-.48.55-.89,1.02-1.33,1.53-.6-.26-1.17-.52-1.75-.77-.49.47-.93.9-1.4,1.35-.62-.33-1.16-.62-1.76-.94-.47.5-.89.95-1.31,1.4-.64-.31-1.2-.58-1.84-.89-.72,1.59-1.8,1.57-3,.67Z"/>
        </g>
      </g>
      <g id="_Radial_Repeat_-2" data-name="&amp;lt;Radial Repeat&amp;gt;">
        <g id="WNsNV2-3" data-name="WNsNV2">
          <path class="cls-1" d="m41.19,0l-3.56,1.42,1.45,3.62c.67-.19,1.22-.34,1.97-.55l1.58,3.97c.82-.23,1.42-.39,2.11-.58.61,1.31,1.18,2.54,1.77,3.79.72-.17,1.28-.3,2.06-.49l.86,2.15c.56.42,1.08.89,1.55,1.39,1.47-.26,1.53.03,1.77,1.87-.09.05-.17.1-.26.15.57.96,1.03,2,1.38,3.13.18.57.34,1.15.49,1.74.96,1.77,1.72,3.53,2.29,5.45l.38-.15,2.44,6.12c-.63.39-1.16.72-1.82,1.13l3.18,7.98c-.66.39-1.19.69-1.59.93-.46,1.81,2.96,3.85-.7,5.1.19.68.36,1.27.52,1.86-.63.36-1.17.67-1.71.97l.64,1.6,5.71-2.28c-.13-.66-.25-1.26-.41-2.03l3.8-1.52c-.29-.55-.42-1.03-.41-1.44h0s-.64-1.59-.64-1.59c.54-.31,1.08-.61,1.71-.97-.16-.59-.33-1.18-.52-1.86,3.66-1.25.24-3.29.7-5.1.4-.23.93-.54,1.59-.92l-3.19-7.98c.66-.4,1.19-.73,1.81-1.13l-2.44-6.12-.37.15c-.58-1.92-1.33-3.68-2.3-5.45-.15-.58-.31-1.16-.49-1.74-.35-1.13-.81-2.17-1.38-3.13.09-.05.17-.1.26-.15-.03-.27-.06-.51-.1-.72-.66.16-1.19.28-1.72.41-.36-.6-.68-1.13-1.01-1.67-.67.17-1.27.32-1.94.49-.35-.58-.67-1.1-.98-1.62-.69.12-1.3.22-1.93.33-.32-.64-.6-1.19-.89-1.78-.7.2-1.3.37-1.95.56-.36-.55-.69-1.07-1.04-1.6-.67.13-1.27.24-1.91.36-.34-.62-.63-1.16-.96-1.75-.66.16-1.26.31-1.87.46-.37-.61-.69-1.14-1.05-1.75-1.47.94-2.37.33-2.88-1.07Z"/>
        </g>
        <g id="WNsNV2-4" data-name="WNsNV2">
          <path class="cls-1" d="m69.53,35.02l-1.61-3.48-3.54,1.64c.22.66.4,1.2.65,1.94l-3.87,1.8c.27.81.47,1.39.7,2.07-1.27.68-2.47,1.32-3.68,1.97.21.71.37,1.26.6,2.04l-2.1.97c-.39.59-.83,1.13-1.31,1.62.34,1.46.06,1.53-1.77,1.87-.06-.08-.11-.17-.17-.25-.92.62-1.94,1.14-3.05,1.55-.56.21-1.13.4-1.71.58-1.71,1.06-3.43,1.91-5.32,2.59l.17.37-5.98,2.77c-.43-.61-.78-1.12-1.22-1.75l-7.79,3.61c-.42-.64-.76-1.15-1.01-1.53-1.83-.36-3.68,3.17-5.13-.42-.67.23-1.25.43-1.82.62-.4-.61-.73-1.13-1.07-1.65l-1.56.72,2.59,5.58c.65-.17,1.25-.32,2-.52l1.72,3.71c.53-.32,1-.48,1.41-.49h0s1.56-.73,1.56-.73c.34.52.67,1.04,1.06,1.65.58-.2,1.16-.4,1.83-.63,1.45,3.58,3.3.06,5.13.42.26.39.59.9,1.01,1.54l7.79-3.62c.44.63.8,1.15,1.22,1.75l5.98-2.77-.17-.37c1.89-.68,3.6-1.53,5.32-2.59.58-.18,1.14-.37,1.71-.58,1.11-.41,2.13-.93,3.05-1.55.06.09.11.17.16.25.27-.05.51-.09.71-.14-.19-.65-.35-1.17-.5-1.7.58-.4,1.09-.74,1.61-1.1-.21-.66-.39-1.25-.6-1.91.56-.38,1.07-.73,1.56-1.07-.16-.69-.29-1.29-.43-1.91.62-.35,1.16-.66,1.73-.98-.24-.69-.44-1.28-.66-1.92.53-.39,1.03-.75,1.54-1.13-.16-.66-.31-1.26-.47-1.88.6-.37,1.12-.7,1.69-1.05-.2-.65-.38-1.25-.56-1.84.59-.4,1.11-.75,1.69-1.14-1.02-1.42-.46-2.35.91-2.93Z"/>
        </g>
      </g>
      <g id="_Radial_Repeat_-3" data-name="&amp;lt;Radial Repeat&amp;gt;">
        <g id="WNsNV2-5" data-name="WNsNV2">
          <path class="cls-1" d="m91.72,65.76l.55-3.8-3.86-.56c-.18.68-.32,1.22-.51,1.98l-4.23-.61c-.21.82-.37,1.42-.55,2.11-1.44-.13-2.79-.25-4.16-.36-.21.71-.38,1.26-.61,2.03l-2.29-.33c-.65.28-1.31.49-1.98.64-.51,1.41-.79,1.31-2.51.6,0-.1,0-.2,0-.3-1.11.02-2.25-.11-3.4-.37-.59-.13-1.16-.28-1.75-.45-2.01-.05-3.92-.27-5.87-.74l-.06.4-6.52-.94c-.03-.74-.05-1.36-.07-2.14l-8.5-1.23c0-.76,0-1.38,0-1.84-1.34-1.3-4.81.64-4.07-3.15-.69-.17-1.28-.33-1.87-.47,0-.73,0-1.35.01-1.97l-1.7-.25-.88,6.09c.64.22,1.22.41,1.96.66l-.59,4.05c.62.03,1.1.15,1.45.36h0s1.7.24,1.7.24c0,.62,0,1.24-.01,1.97.59.15,1.19.3,1.87.47-.75,3.79,2.73,1.85,4.07,3.15,0,.46,0,1.07,0,1.84l8.5,1.23c.02.77.04,1.39.07,2.13l6.52.94.06-.4c1.95.46,3.85.69,5.87.74.58.16,1.16.32,1.75.45,1.15.26,2.29.38,3.4.37,0,.1,0,.2,0,.3.25.11.47.2.67.27.19-.65.35-1.17.51-1.7.7-.01,1.32-.03,1.95-.04.19-.67.36-1.26.55-1.93.68-.01,1.29-.03,1.89-.04.24-.66.46-1.24.68-1.84.71.04,1.33.08,1.98.12.18-.71.33-1.31.49-1.97.66-.04,1.28-.07,1.91-.1.22-.64.43-1.23.64-1.83.7.02,1.32.03,1.99.04.19-.66.36-1.25.53-1.85.72-.01,1.34-.02,2.04-.04-.07-1.74.9-2.21,2.37-1.96Z"/>
        </g>
        <g id="WNsNV2-6" data-name="WNsNV2">
          <path class="cls-1" d="m47.22,72.8l3.82.34.35-3.89c-.69-.14-1.24-.25-2-.4l.38-4.25c-.83-.17-1.44-.29-2.14-.43.05-1.44.09-2.8.14-4.18-.72-.17-1.28-.31-2.06-.5l.21-2.3c-.31-.63-.56-1.28-.75-1.94-1.43-.43-1.35-.71-.73-2.47.1,0,.2-.01.3-.02-.08-1.11-.02-2.25.18-3.42.1-.59.22-1.18.35-1.77-.06-2.01.06-3.92.42-5.9l-.41-.04.59-6.56c.74-.07,1.36-.12,2.13-.18l.76-8.55c.76-.05,1.37-.08,1.83-.11,1.23-1.41-.9-4.77,2.93-4.23.14-.69.26-1.29.37-1.89.73-.04,1.34-.07,1.97-.1l.15-1.71-6.12-.55c-.18.65-.34,1.24-.55,1.99l-4.07-.36c0,.62-.08,1.11-.28,1.47h0s-.15,1.71-.15,1.71c-.62.03-1.24.06-1.96.09-.12.6-.24,1.2-.37,1.9-3.83-.54-1.7,2.83-2.93,4.23-.46.03-1.07.06-1.84.1l-.76,8.56c-.77.06-1.39.12-2.13.18l-.59,6.56.4.04c-.35,1.97-.48,3.88-.42,5.9-.13.59-.25,1.18-.35,1.77-.2,1.17-.26,2.31-.18,3.42-.1,0-.2.01-.3.02-.09.26-.17.48-.23.68.66.16,1.19.28,1.72.41.05.7.1,1.32.15,1.95.67.15,1.28.29,1.96.44.05.68.1,1.29.14,1.89.67.21,1.26.39,1.87.58,0,.72,0,1.33,0,1.99.71.14,1.33.26,1.99.38.07.65.13,1.27.2,1.9.65.19,1.25.36,1.87.54.02.7.04,1.32.07,1.99.67.15,1.27.29,1.87.43.05.71.1,1.33.15,2.04,1.74-.17,2.26.78,2.08,2.26Z"/>
        </g>
      </g>
    </g>
  </g>
</svg>