<?xml version="1.0" encoding="UTF-8"?>
<svg id="Layer_2" data-name="Layer 2" xmlns="http://www.w3.org/2000/svg" viewBox="0 0 86.06 86.06">
  <defs>
    <style>
      .cls-1 {
        fill: #fff;
        stroke-width: 0px;
      }
    </style>
  </defs>
  <g id="Layer_1-2" data-name="Layer 1">
    <g>
      <g id="_Radial_Repeat_" data-name="&amp;lt;Radial Repeat&amp;gt;">
        <path class="cls-1" d="m40.61,38.23c.3-.14.6-.29.93-.45l-2.07-7.36c.62-.28,1.12-.5,1.49-.67.58-1.56-2.26-3.69,1.1-4.45-.11-.62-.2-1.16-.29-1.69.59-.26,1.1-.48,1.6-.7l-.41-1.47-5.27,1.48c.06.6.1,1.14.17,1.83l-3.5.98c.59,1.5.09,2.37-1.37,2.63.09.65.17,1.19.25,1.72-.58.27-1.08.5-1.55.72.08.6.15,1.1.23,1.72-2.04.24-1.7,1.46-1.22,2.78.18.5.25,1.05.36,1.55-.65.26-1.12.45-1.75.7l.5,1.79c3.46-1.12,7.17-1.5,10.79-1.13Z"/>
        <g id="WNsNV2">
          <path class="cls-1" d="m13.87,67.64c.59-.19,1.07-.34,1.73-.55l-.74-3.72c.72-.23,1.25-.4,1.85-.59-.18-1.27-.35-2.47-.52-3.68.62-.22,1.1-.4,1.78-.64l-.4-2.02c.22-.59.37-1.19.48-1.79,1.23-.52,1.13-.76.41-2.26-.09,0-.18,0-.26.01-.04-.99-.2-1.99-.49-3-.14-.51-.31-1.02-.48-1.53-.14-1.79-.43-3.47-.94-5.18l.35-.07-1.15-5.75c-.66.01-1.21.03-1.9.04l-1.5-7.49c-.68.03-1.22.06-1.63.08-1.22-1.13.34-4.31-2.99-3.47-.19-.6-.35-1.12-.51-1.64-.65.04-1.19.07-1.75.1l-.3-1.5,5.36-1.07c.22.56.43,1.07.68,1.71l3.57-.71c.15,1.61.99,2.15,2.41,1.72.21.62.39,1.14.56,1.65.64-.02,1.19-.05,1.71-.07.2.57.37,1.05.58,1.64,1.93-.71,2.18.53,2.35,1.93.06.53.25,1.05.38,1.55.7-.06,1.2-.11,1.88-.17l1.11,5.55c.74,0,1.28,0,1.87-.01.27,1.04.48,2.01,1.92,1.55,1.29-.41,3.18-.06,2.42-2.46.62-.23,1.13-.42,1.65-.62-.03-.63-.06-1.17-.09-1.69.6-.23,1.11-.42,1.77-.68l-.73-3.63c.7-.23,1.22-.4,1.78-.58-.02-.62-.03-1.17-.05-1.82.55-.07,1.03-.13,1.58-.19l1.11,5.54c.74-.03,1.29-.05,1.93-.08.07.56.12,1.04.18,1.48-.63.21-1.11.37-1.6.53.03.63.06,1.17.09,1.77-1.26.32-2.43.63-3.8.98l.73,3.64c-.67.24-1.15.41-1.73.62.57,1.51-.19,2.19-1.54,2.39.01.67.02,1.21.03,1.75-.57.18-1.04.33-1.57.5.04.62.08,1.17.13,1.81-1.68.03-1.91,1.08-1.64,2.39-.59.19-1.07.34-1.72.54l.73,3.63c-.68.24-1.2.43-1.72.62.02.63.04,1.18.06,1.74-.58.2-1.11.38-1.69.58.02.6.04,1.15.06,1.68-.58.25-1.08.47-1.6.69.07.63.13,1.18.2,1.76-.62.19-1.15.35-1.72.53,0,.58,0,1.13,0,1.7-.56.23-1.07.44-1.6.66.05.62.09,1.17.13,1.77-.58.2-1.1.38-1.62.56.02.64.04,1.19.07,1.81-1.55.02-1.92.91-1.63,2.2l-3.34.67-.68-3.4Z"/>
        </g>
      </g>
      <g id="_Radial_Repeat_-2" data-name="&amp;lt;Radial Repeat&amp;gt;">
        <path class="cls-1" d="m48.4,43.33c-.02.33-.05.66-.08,1.03l7.4,1.89c-.07.68-.13,1.22-.17,1.63,1.06,1.28,4.32-.11,3.3,3.17.59.22,1.1.41,1.61.6-.07.64-.13,1.19-.2,1.74l1.48.38,1.35-5.3c-.54-.25-1.04-.48-1.67-.77l.9-3.52c-1.6-.24-2.1-1.1-1.59-2.5-.61-.24-1.11-.45-1.62-.65.06-.64.11-1.18.15-1.7-.56-.23-1.03-.42-1.61-.66.81-1.89-.42-2.21-1.8-2.45-.53-.09-1.04-.31-1.53-.46.1-.7.17-1.19.27-1.87l-1.81-.46c-.76,3.55-2.29,6.96-4.42,9.91Z"/>
        <g id="WNsNV2-2" data-name="WNsNV2">
          <path class="cls-1" d="m36.3,5.47c-.13.61-.24,1.1-.39,1.78l3.6,1.22c-.16.74-.28,1.28-.42,1.9,1.19.48,2.31.93,3.45,1.39-.12.65-.21,1.15-.33,1.86l1.95.66c.4.48.84.92,1.31,1.31-.16,1.32.1,1.36,1.75,1.48.04-.08.08-.16.12-.24.88.46,1.83.82,2.85,1.08.52.13,1.04.24,1.57.35,1.62.77,3.22,1.36,4.95,1.78l-.12.34,5.55,1.88c.32-.58.58-1.06.91-1.67l7.24,2.45c.31-.6.56-1.09.74-1.45,1.59-.5,3.56,2.45,4.5-.86.61.14,1.14.26,1.67.38.29-.58.54-1.07.78-1.56l1.45.49-1.75,5.18c-.59-.09-1.13-.16-1.82-.26l-1.17,3.44c-1.47-.67-2.36-.22-2.69,1.23-.64-.13-1.18-.23-1.71-.34-.3.57-.55,1.05-.8,1.51-.59-.11-1.09-.2-1.71-.32-.35,2.02-1.55,1.62-2.84,1.07-.49-.21-1.04-.31-1.53-.45-.29.64-.51,1.1-.79,1.72l-5.36-1.81c-.36.64-.63,1.12-.93,1.63-1.03-.29-1.98-.59-2.3.89-.29,1.32-1.54,2.79.92,3.32-.11.65-.2,1.19-.29,1.74.56.29,1.05.53,1.51.77-.1.64-.19,1.17-.3,1.87l3.51,1.19c-.15.72-.27,1.26-.39,1.83.54.3,1.03.56,1.6.87-.22.51-.4.95-.62,1.47l-5.35-1.81c-.35.66-.6,1.14-.9,1.71-.51-.22-.96-.41-1.37-.59.13-.65.23-1.14.34-1.65-.56-.28-1.04-.53-1.58-.8.35-1.25.67-2.42,1.05-3.78l-3.52-1.19c.13-.7.22-1.2.33-1.81-1.59-.26-1.8-1.26-1.3-2.53-.58-.32-1.06-.59-1.54-.85.13-.58.24-1.07.35-1.61-.56-.27-1.05-.51-1.63-.8.82-1.47.02-2.19-1.25-2.61.13-.6.24-1.1.39-1.76l-3.51-1.19c.13-.71.23-1.25.33-1.8-.55-.29-1.04-.55-1.53-.82.12-.6.22-1.15.34-1.75-.53-.28-1.01-.54-1.49-.79.07-.62.13-1.17.2-1.73-.58-.25-1.09-.47-1.62-.71.14-.63.27-1.17.4-1.76-.51-.29-.98-.57-1.47-.85.08-.6.15-1.14.23-1.71-.56-.27-1.06-.51-1.6-.77.11-.6.22-1.14.32-1.68-.56-.3-1.05-.56-1.6-.85.76-1.35.18-2.12-1.09-2.51l1.09-3.23,3.29,1.11Z"/>
        </g>
      </g>
      <g id="_Radial_Repeat_-3" data-name="&amp;lt;Radial Repeat&amp;gt;">
        <path class="cls-1" d="m40.09,47.53c-.27-.19-.55-.37-.86-.58l-5.34,5.47c-.55-.4-.99-.72-1.32-.96-1.64.28-2.06,3.8-4.4,1.27-.48.4-.9.75-1.32,1.1-.52-.38-.96-.71-1.41-1.04l-1.07,1.1,3.91,3.82c.49-.35.94-.66,1.5-1.06l2.6,2.54c1-1.26,2-1.27,2.96-.13.51-.4.94-.74,1.37-1.08.52.37.97.68,1.4.99.48-.37.88-.68,1.38-1.06,1.23,1.64,2.12.74,3.02-.33.34-.41.79-.74,1.16-1.09.55.44.95.75,1.48,1.17l1.3-1.33c-2.7-2.44-4.89-5.46-6.37-8.78Z"/>
        <g id="WNsNV2-3" data-name="WNsNV2">
          <path class="cls-1" d="m78.92,55.98c-.46-.42-.83-.76-1.34-1.23l-2.85,2.51c-.56-.51-.97-.88-1.44-1.31-1.01.79-1.96,1.54-2.93,2.29-.51-.43-.89-.75-1.44-1.22l-1.55,1.36c-.62.11-1.22.27-1.79.48-1.06-.8-1.23-.6-2.16.77.05.07.1.15.14.22-.84.53-1.63,1.17-2.36,1.92-.37.38-.73.78-1.08,1.18-1.48,1.01-2.79,2.11-4.02,3.4l-.24-.27-4.41,3.87c.34.56.63,1.04.99,1.62l-5.74,5.04c.37.57.66,1.03.89,1.37-.36,1.62-3.9,1.86-1.5,4.33-.43.46-.79.86-1.16,1.26.36.54.66,1,.96,1.46l-1.15,1.01-3.61-4.11c.37-.47.71-.9,1.14-1.45l-2.4-2.73c1.32-.93,1.37-1.93.28-2.95.43-.49.79-.9,1.15-1.31-.34-.54-.63-1.01-.91-1.45.39-.46.72-.84,1.13-1.32-1.58-1.31-.63-2.16.49-3,.43-.32.78-.75,1.15-1.1-.41-.57-.7-.99-1.09-1.54l4.25-3.74c-.37-.64-.65-1.11-.95-1.62.77-.75,1.5-1.42.38-2.43-1-.91-1.64-2.72-3.34-.87-.51-.42-.93-.77-1.36-1.12-.53.34-.99.64-1.42.92-.5-.41-.92-.75-1.47-1.19l-2.78,2.45c-.54-.49-.96-.86-1.39-1.25-.53.32-.99.61-1.55.95-.33-.44-.62-.83-.96-1.27l4.24-3.73c-.4-.63-.69-1.09-1.04-1.64.45-.33.84-.62,1.2-.89.5.44.87.77,1.26,1.12.53-.34.98-.64,1.48-.96.91.93,1.76,1.79,2.75,2.8l2.79-2.45c.55.46.93.79,1.4,1.19,1.02-1.25,1.99-.93,2.84.14.57-.34,1.04-.63,1.5-.91.44.4.81.74,1.22,1.11.51-.35.97-.65,1.5-1.01.87,1.45,1.89,1.11,2.89.23.46.42.83.76,1.33,1.22l2.78-2.44c.55.47.97.82,1.4,1.18.53-.33,1-.62,1.47-.92.46.4.88.77,1.34,1.17.51-.32.98-.61,1.43-.89.5.37.94.7,1.4,1.04.51-.38.95-.71,1.42-1.05.48.44.88.82,1.32,1.23.51-.29.98-.57,1.47-.85.48.37.91.71,1.37,1.06.51-.35.97-.66,1.46-1,.46.4.88.76,1.29,1.12.54-.34,1.01-.63,1.54-.96.79,1.34,1.75,1.21,2.72.31l2.25,2.56-2.61,2.29Z"/>
        </g>
      </g>
    </g>
  </g>
</svg>