<?xml version="1.0" encoding="UTF-8"?>
<svg id="Layer_2" data-name="Layer 2" xmlns="http://www.w3.org/2000/svg" viewBox="0 0 92.64 92.64">
  <defs>
    <style>
      .cls-1 {
        fill: #fff;
        stroke-width: 0px;
      }
    </style>
  </defs>
  <g id="Layer_1-2" data-name="Layer 1">
    <g>
      <g id="_Radial_Repeat_" data-name="&amp;lt;Radial Repeat&amp;gt;">
        <path class="cls-1" d="m81.44,19.72c-.3-.36-.53-.66-.86-1.06l-2.4,1.55c-.36-.44-.62-.76-.92-1.13-.84.48-1.63.92-2.43,1.38-.33-.37-.58-.66-.94-1.07l-1.3.84c-.47,0-.93.07-1.39.16-.7-.71-.85-.58-1.69.34.03.06.05.12.08.18-.68.3-1.34.69-1.97,1.17-.32.24-.63.5-.94.76-1.21.59-2.31,1.26-3.37,2.08l-.15-.23-3.71,2.39c.19.46.35.84.55,1.32l-4.83,3.11c.21.47.38.84.51,1.12-.45,1.17-3.11.95-1.6,3.05-.37.3-.69.55-1.01.81.21.44.38.82.55,1.19l-.97.62-2.23-3.46c.33-.31.63-.59,1.01-.95l-1.48-2.3c1.08-.55,1.23-1.29.54-2.16.37-.32.69-.58,1-.85-.19-.44-.36-.82-.52-1.18.34-.3.63-.55.99-.86-1.03-1.15-.23-1.68.7-2.18.36-.19.67-.47.98-.69-.24-.47-.41-.81-.64-1.27l3.58-2.31c-.21-.51-.36-.9-.53-1.31.65-.47,1.28-.89.55-1.77-.65-.79-.92-2.21-2.39-1.02-.33-.37-.61-.68-.89-.99-.43.2-.8.37-1.16.53-.33-.36-.6-.66-.96-1.05l-2.35,1.51c-.35-.43-.62-.75-.89-1.08-.43.18-.81.34-1.26.53-.2-.37-.37-.68-.57-1.05l3.57-2.3c-.23-.51-.39-.89-.59-1.33.37-.2.69-.37.99-.53.32.38.56.67.81.97.43-.2.8-.37,1.21-.55.57.79,1.11,1.53,1.73,2.39l2.35-1.51c.36.4.61.69.91,1.04.9-.81,1.59-.47,2.1.42.46-.19.84-.35,1.22-.51.28.35.52.64.78.96.42-.2.79-.38,1.23-.59.48,1.17,1.28,1.04,2.12.49.29.36.53.66.86,1.05l2.34-1.51c.36.41.63.72.91,1.04.43-.19.81-.35,1.2-.52.3.35.57.67.87,1.02.42-.18.79-.34,1.16-.5.33.33.62.63.92.93.42-.22.79-.42,1.18-.62.3.38.56.71.85,1.06.41-.16.79-.31,1.19-.47.32.33.6.63.9.94.42-.2.79-.38,1.2-.58.3.35.57.66.84.98.44-.19.82-.36,1.25-.55.44,1.08,1.17,1.1,1.99.53l1.39,2.16-2.2,1.41Z"/>
        <g id="WNsNV2">
          <path class="cls-1" d="m42.39,13.78c-.44.16-.8.28-1.29.45l.65,2.78c-.54.19-.93.33-1.38.49.16.95.32,1.85.48,2.76-.46.18-.82.32-1.32.52l.35,1.51c-.15.45-.25.9-.32,1.36-.91.42-.83.6-.26,1.71.07,0,.13-.01.2-.02.05.74.2,1.5.44,2.25.12.38.26.76.4,1.14.15,1.34.4,2.6.82,3.87l-.26.06,1,4.3c.5-.03.91-.05,1.43-.08l1.3,5.6c.51-.04.92-.07,1.23-.1.95.82-.15,3.25,2.33,2.54.15.45.29.83.42,1.22.49-.04.9-.08,1.31-.12l.26,1.12-4.01.93c-.18-.41-.34-.79-.55-1.27l-2.67.62c-.15-1.21-.79-1.6-1.85-1.24-.17-.46-.32-.85-.46-1.23-.48.03-.89.06-1.28.09-.16-.42-.3-.78-.47-1.22-1.43.58-1.65-.35-1.81-1.4-.06-.4-.22-.78-.32-1.16-.53.06-.9.11-1.41.17l-.96-4.15c-.55.02-.97.04-1.41.05-.23-.78-.41-1.5-1.48-1.12-.96.34-2.39.12-1.76,1.9-.46.19-.84.35-1.23.5.04.47.07.88.1,1.27-.45.19-.82.35-1.32.55l.63,2.72c-.52.19-.91.33-1.32.48.03.47.05.88.08,1.37-.41.06-.77.12-1.19.18l-.96-4.14c-.56.04-.97.07-1.45.1-.06-.42-.12-.78-.17-1.11.47-.17.82-.3,1.19-.44-.04-.47-.07-.88-.11-1.33.94-.27,1.82-.53,2.84-.82l-.63-2.72c.5-.2.86-.34,1.29-.51-.46-1.12.09-1.65,1.1-1.83-.02-.5-.04-.91-.07-1.32.42-.15.78-.27,1.17-.41-.05-.46-.09-.87-.14-1.36,1.27-.06,1.41-.86,1.18-1.83.44-.15.8-.28,1.28-.45l-.63-2.71c.51-.2.89-.35,1.28-.5-.03-.47-.06-.88-.08-1.3.43-.16.82-.31,1.26-.47-.03-.45-.05-.86-.08-1.27.43-.2.8-.38,1.19-.56-.07-.47-.13-.88-.19-1.32.46-.16.86-.29,1.28-.44-.01-.44-.03-.85-.04-1.28.42-.19.79-.35,1.19-.53-.05-.47-.09-.88-.14-1.33.43-.16.82-.31,1.2-.46-.03-.48-.06-.89-.09-1.36,1.17-.05,1.43-.73,1.17-1.69l2.5-.58.59,2.54Z"/>
        </g>
      </g>
      <g id="_Radial_Repeat_-2" data-name="&amp;lt;Radial Repeat&amp;gt;">
        <path class="cls-1" d="m51.81,90.04c.46-.07.84-.13,1.35-.21l-.14-2.85c.56-.09.97-.16,1.44-.23,0-.97.02-1.87.02-2.8.49-.1.86-.17,1.39-.28l-.08-1.55c.23-.41.41-.84.56-1.28.97-.25.93-.44.56-1.63-.07,0-.13-.01-.2-.02.08-.74.07-1.51-.03-2.29-.05-.4-.12-.8-.19-1.19.1-1.35.07-2.63-.12-3.96h.27s-.21-4.42-.21-4.42c-.49-.06-.91-.12-1.42-.18l-.28-5.74c-.51-.05-.92-.09-1.22-.12-.78-.97.73-3.17-1.84-2.91-.07-.47-.14-.87-.2-1.28-.49-.04-.9-.08-1.31-.12l-.06-1.15,4.11-.2c.1.44.2.84.32,1.35l2.73-.13c-.07,1.21.5,1.71,1.6,1.55.09.48.16.89.23,1.29.48.05.89.1,1.28.14.09.45.16.82.25,1.28,1.51-.31,1.57.64,1.54,1.7-.01.4.07.81.11,1.2.53.03.91.05,1.42.08l.21,4.26c.55.08.96.14,1.4.2.08.8.13,1.55,1.26,1.36,1.01-.16,2.37.31,2.08-1.56.49-.1.89-.19,1.3-.28.05-.47.09-.88.12-1.27.47-.1.87-.19,1.39-.31l-.14-2.79c.54-.09.95-.16,1.39-.23.06-.46.11-.87.17-1.36.42.01.78.02,1.2.03l.21,4.25c.56.06.97.1,1.45.16-.01.42-.02.78-.03,1.12-.49.09-.86.15-1.25.22-.05.47-.08.88-.13,1.33-.97.1-1.88.19-2.94.3l.14,2.79c-.53.11-.9.18-1.36.27.26,1.19-.39,1.61-1.41,1.6-.07.5-.12.9-.17,1.31-.44.07-.81.13-1.23.2-.04.47-.07.88-.11,1.36-1.26-.17-1.54.59-1.49,1.59-.46.07-.83.13-1.34.21l.14,2.78c-.53.11-.94.19-1.35.27-.05.47-.1.88-.15,1.3-.46.08-.87.16-1.32.24-.05.45-.1.86-.15,1.26-.46.12-.85.23-1.27.34-.02.48-.03.89-.05,1.33-.48.07-.89.14-1.34.2-.06.43-.13.84-.19,1.26-.44.11-.84.21-1.26.31-.03.47-.06.88-.1,1.33-.45.09-.86.16-1.27.24-.05.48-.1.89-.15,1.36-1.16-.16-1.53.46-1.45,1.45l-2.56.12-.13-2.61Z"/>
        <g id="WNsNV2-2" data-name="WNsNV2">
          <path class="cls-1" d="m76.47,59.18c.09-.46.16-.83.25-1.35l-2.73-.83c.1-.56.18-.97.27-1.44-.91-.33-1.76-.65-2.63-.96.07-.49.13-.87.21-1.41l-1.48-.45c-.31-.35-.65-.67-1.02-.96.09-1-.1-1.02-1.35-1.07-.03.06-.06.12-.08.18-.67-.33-1.39-.57-2.17-.75-.39-.09-.79-.16-1.19-.23-1.24-.54-2.45-.95-3.77-1.22l.08-.26-4.22-1.29c-.22.44-.41.81-.65,1.28l-5.5-1.67c-.22.46-.39.83-.53,1.11-1.18.41-2.74-1.76-3.36.75-.46-.09-.87-.17-1.27-.24-.21.44-.38.82-.55,1.19l-1.1-.34,1.2-3.94c.45.05.86.1,1.38.16l.8-2.62c1.12.47,1.78.11,2-.99.49.08.89.15,1.29.21.21-.43.39-.8.57-1.16.45.07.83.13,1.29.2.21-1.53,1.13-1.26,2.11-.87.38.15.79.21,1.16.3.21-.49.35-.84.56-1.31l4.08,1.24c.26-.49.45-.85.66-1.25.78.19,1.5.4,1.71-.72.18-1,1.09-2.13-.77-2.48.07-.49.12-.9.18-1.32-.43-.2-.8-.38-1.15-.55.06-.48.11-.89.18-1.42l-2.67-.81c.1-.54.17-.95.25-1.38-.42-.21-.78-.39-1.22-.62.15-.39.28-.72.43-1.12l4.07,1.24c.24-.5.42-.87.64-1.31.39.15.73.29,1.05.41-.09.49-.15.86-.22,1.25.43.2.8.38,1.2.57-.23.95-.45,1.84-.7,2.87l2.67.81c-.08.53-.13.91-.2,1.37,1.2.16,1.39.91,1.03,1.87.45.23.81.42,1.17.6-.08.44-.15.81-.23,1.22.43.19.8.36,1.24.56-.58,1.13.04,1.65,1,1.94-.09.46-.16.83-.25,1.33l2.67.81c-.08.54-.14.95-.2,1.36.42.21.79.39,1.17.58-.08.46-.14.87-.22,1.33.41.2.77.38,1.14.56-.04.47-.07.88-.11,1.31.45.18.83.33,1.24.49-.09.48-.17.89-.26,1.33.39.21.75.4,1.12.6-.05.45-.09.86-.13,1.29.43.19.81.36,1.22.54-.07.45-.14.86-.2,1.27.43.21.8.39,1.23.6-.54,1.04-.08,1.6.88,1.86l-.75,2.46-2.5-.76Z"/>
        </g>
      </g>
      <g id="_Radial_Repeat_-3" data-name="&amp;lt;Radial Repeat&amp;gt;">
        <path class="cls-1" d="m5.72,29.22c-.17.44-.3.79-.49,1.28l2.54,1.31c-.2.53-.35.92-.52,1.37.83.49,1.62.95,2.41,1.42-.16.47-.28.83-.46,1.35l1.38.71c.25.4.52.78.83,1.12-.27.97-.08,1.02,1.14,1.3.04-.05.08-.11.12-.16.6.44,1.27.81,2,1.12.37.16.75.3,1.13.43,1.12.76,2.24,1.37,3.49,1.88l-.12.24,3.93,2.02c.3-.39.55-.73.87-1.14l5.11,2.63c.3-.42.54-.75.72-1,1.24-.19,2.38,2.22,3.44-.14.44.17.82.32,1.2.47.28-.4.52-.74.76-1.08l1.02.53-1.88,3.66c-.43-.13-.83-.25-1.33-.4l-1.25,2.43c-1.02-.66-1.73-.43-2.14.62-.46-.17-.85-.3-1.23-.44-.29.39-.53.72-.76,1.04-.43-.15-.79-.27-1.23-.43-.48,1.47-1.34,1.04-2.24.48-.34-.21-.74-.34-1.09-.5-.29.44-.5.76-.78,1.19l-3.79-1.95c-.34.44-.6.76-.87,1.11-.74-.33-1.41-.66-1.81.41-.36.95-1.45,1.9.31,2.58-.15.47-.28.86-.41,1.26.38.28.72.51,1.04.74-.15.46-.27.85-.43,1.36l2.48,1.28c-.19.52-.34.91-.49,1.32.37.28.7.53,1.09.82-.22.35-.41.66-.63,1.02l-3.78-1.94c-.33.45-.57.78-.86,1.18-.36-.22-.67-.41-.96-.59.17-.47.3-.82.44-1.19-.38-.27-.72-.51-1.08-.77.4-.89.77-1.73,1.21-2.7l-2.49-1.28c.17-.51.3-.87.44-1.31-1.15-.37-1.2-1.14-.68-2.02-.4-.31-.72-.56-1.05-.8.16-.42.29-.77.44-1.16-.38-.26-.72-.5-1.12-.77.77-1,.26-1.63-.64-2.08.17-.43.3-.79.49-1.27l-2.48-1.27c.18-.51.31-.91.45-1.3-.38-.28-.71-.53-1.05-.78.16-.44.3-.83.45-1.26-.36-.27-.69-.52-1.02-.76.12-.46.23-.85.34-1.26-.41-.25-.76-.47-1.13-.71.18-.45.33-.84.5-1.26-.34-.27-.67-.53-1-.79.13-.44.24-.83.36-1.25-.39-.26-.73-.5-1.1-.75.15-.43.29-.82.43-1.22-.39-.29-.72-.53-1.1-.81.72-.92.37-1.56-.53-1.99l1.17-2.28,2.32,1.19Z"/>
        <g id="WNsNV2-3" data-name="WNsNV2">
          <path class="cls-1" d="m20.11,66c.36.31.64.55,1.04.89l2.09-1.95c.43.37.75.64,1.11.95.74-.62,1.44-1.2,2.15-1.79.39.31.69.55,1.11.88l1.13-1.06c.46-.09.91-.23,1.34-.4.82.58.94.42,1.61-.63-.04-.05-.08-.11-.11-.16.62-.42,1.2-.92,1.73-1.5.27-.3.53-.6.79-.91,1.09-.8,2.05-1.65,2.94-2.65l.19.2,3.22-3.01c-.27-.42-.5-.76-.78-1.2l4.2-3.93c-.29-.42-.52-.76-.7-1.01.24-1.23,2.89-1.49,1.03-3.29.31-.36.58-.67.85-.98-.28-.4-.52-.74-.76-1.08l.84-.79,2.81,3.01c-.27.36-.51.69-.82,1.11l1.87,2c-.97.73-.98,1.49-.14,2.22-.31.38-.57.7-.83,1.01.27.4.5.74.72,1.07-.29.35-.52.65-.82,1.02,1.22.95.53,1.61-.3,2.27-.32.25-.57.58-.84.86.32.42.55.73.86,1.14l-3.11,2.91c.3.47.51.82.75,1.19-.56.58-1.1,1.1-.23,1.84.78.66,1.3,2.01,2.53.58.39.3.72.56,1.05.81.39-.27.73-.5,1.05-.73.39.29.71.54,1.14.86l2.04-1.9c.42.36.74.62,1.07.91.39-.26.73-.48,1.15-.75.26.32.49.61.75.94l-3.1,2.9c.31.46.55.81.82,1.21-.33.26-.61.49-.88.7-.38-.32-.67-.56-.97-.81-.39.27-.72.5-1.09.76-.7-.68-1.36-1.31-2.13-2.04l-2.04,1.91c-.42-.33-.72-.57-1.08-.86-.74.96-1.48.75-2.14-.04-.42.27-.77.49-1.11.72-.34-.29-.63-.54-.94-.81-.38.27-.71.51-1.11.8-.68-1.07-1.45-.79-2.18-.1-.35-.3-.64-.55-1.03-.89l-2.04,1.9c-.43-.34-.75-.6-1.08-.86-.39.26-.74.49-1.09.73-.36-.29-.68-.56-1.04-.85-.38.25-.72.48-1.06.7-.39-.27-.73-.5-1.08-.75-.38.3-.7.55-1.05.82-.37-.32-.68-.59-1.02-.89-.37.23-.73.45-1.09.67-.37-.27-.7-.51-1.05-.76-.38.28-.71.52-1.08.78-.36-.29-.68-.55-1-.81-.4.27-.74.5-1.13.76-.63-.99-1.34-.87-2.05-.17l-1.75-1.88,1.91-1.78Z"/>
        </g>
      </g>
    </g>
  </g>
</svg>