<?xml version="1.0" encoding="UTF-8"?>
<svg id="Layer_2" data-name="Layer 2" xmlns="http://www.w3.org/2000/svg" viewBox="0 0 118.2 118.2">
  <defs>
    <style>
      .cls-1 {
        fill: #fff;
        stroke-width: 0px;
      }
    </style>
  </defs>
  <g id="Layer_1-2" data-name="Layer 1">
    <g>
      <g id="_Radial_Repeat_" data-name="&amp;lt;Radial Repeat&amp;gt;">
        <path class="cls-1" d="m23.21,95.61c.03-.35.43-.47,1.39-.66.28-.06.56-.11.84-.17-.34.23-.71.42-1.08.6-.4.2-.79.26-1.15.24Z"/>
        <path class="cls-1" d="m23.58,96.65s-.02-.03-.03-.05c-.24-.47-.37-.78-.35-1,.37.03.75-.04,1.15-.24.37-.18.73-.37,1.08-.6,1.23-.25,2.47-.55,3.53-1.13,1.64-.88,3.19-1.93,4.74-2.98.53-.38,1.06-.74,1.6-1.1,1.27-.85,2.52-1.72,3.7-2.68.64-.51,1.15-1.19,1.65-1.84,1.34-1.73,2.52-3.62,4.01-5.21.79-.83,1.34-1.66,1.78-2.7.68-1.64,1.43-3.27,2.4-4.74.62-.92.91-1.78.93-2.85,0-.61.21-1.23.42-1.81.75-2.13,2.2-4.1,1.23-6.57-.1-.28.08-.67.1-1.01.1-2.18.37-4.51-1.77-5.92-1.91-1.27-4.01-2.25-6.45-1.79-.3.06-.6.16-.85.33-1.11.74-2.2,1.5-3.29,2.27-1.9,1.35-2.79,3.26-3.1,5.51-.05.37-.39.71-.59,1.06-.43-.25-1.07-.41-1.28-.78-1.51-2.76-3.17-5.37-5.79-7.26-.74-.53-.95-1.77-.34-2.46.71-.8,1.59-1.46,2.43-2.14.49-.41,1.2-.66,1.54-1.17,1.1-1.66,2.68-2.61,4.41-3.49,1.23-.63,2.42-.85,3.64-.36,1.84.73,3.65,1.52,4.89,3.23.48.66,1.22,1.18,1.95,1.56,2.23,1.12,3.47,3.23,4.94,5.02,1.19,1.46,1.6,3.53,2.68,5.12,1.24,1.85,1.35,3.92,1.84,5.93.56,2.32,1.03,4.62.06,6.96-.14.34-.05.76-.09,1.14-.25,2.01-.11,4.07-1.26,5.96-.71,1.17-1.15,2.59-1.37,3.95-.23,1.39-.81,2.49-1.63,3.58-.91,1.22-2.06,2.43-2.42,3.83-.47,1.8-1.74,2.69-2.88,3.81-.22.22-.4.47-.73.86.22.04.39.07.54.11-.39.48-.73,1-1,1.55h-7.16c-4.55,0-9.09-.05-13.63,0-.17,0-.34.01-.5.02-.06,0-.12.01-.18.02h-.09c-.15.01-.3.03-.46.06Z"/>
        <path class="cls-1" d="m56.33,29.38s.02.03.03.05c.24.47.37.78.35,1-.37-.03-.75.04-1.15.24-.37.18-.73.37-1.08.6-1.23.25-2.47.55-3.53,1.13-1.64.88-3.19,1.93-4.74,2.98-.53.38-1.06.74-1.6,1.1-1.27.85-2.52,1.72-3.7,2.68-.64.51-1.15,1.19-1.65,1.84-1.34,1.73-2.52,3.62-4.01,5.21-.79.83-1.34,1.66-1.78,2.7-.68,1.64-1.43,3.27-2.4,4.74-.62.92-.91,1.78-.93,2.85,0,.61-.21,1.23-.42,1.81-.75,2.13-2.2,4.1-1.23,6.57.1.28-.08.67-.1,1.01-.1,2.18-.37,4.51,1.77,5.92,1.91,1.27,4.01,2.25,6.45,1.79.3-.06.6-.16.85-.33,1.11-.74,2.2-1.5,3.29-2.27,1.9-1.35,2.79-3.26,3.1-5.51.05-.37.39-.71.59-1.06.43.25,1.07.41,1.28.78,1.51,2.76,3.17,5.37,5.79,7.26.74.53.95,1.77.34,2.46-.71.8-1.59,1.46-2.43,2.14-.49.41-1.2.66-1.54,1.17-1.1,1.66-2.68,2.61-4.41,3.49-1.23.63-2.42.85-3.64.36-1.84-.73-3.65-1.52-4.89-3.23-.48-.66-1.22-1.18-1.95-1.56-2.23-1.12-3.47-3.23-4.94-5.02-1.19-1.46-1.6-3.53-2.68-5.12-1.24-1.85-1.35-3.92-1.84-5.93-.56-2.32-1.03-4.62-.06-6.96.14-.34.05-.76.09-1.14.25-2.01.11-4.07,1.26-5.96.71-1.17,1.15-2.59,1.37-3.95.23-1.39.81-2.49,1.63-3.58.91-1.22,2.06-2.43,2.42-3.83.47-1.8,1.74-2.69,2.88-3.81.22-.22.4-.47.73-.86-.22-.04-.39-.07-.54-.11.39-.48.73-1,1-1.55h7.16c4.55,0,9.09.05,13.63,0,.17,0,.34-.01.5-.02.06,0,.12-.01.18-.02h.09c.15-.01.3-.03.46-.06Z"/>
        <path class="cls-1" d="m13.12,93.43c-.13-.18-.38-.26-.57-.4-.97-.76-2.09-1.32-2.72-2.51-.39-.74-1-1.41-1.64-1.94-.66-.55-1.05-1.2-1.37-1.95-.36-.85-.64-1.83-1.25-2.45-.79-.8-.86-1.75-1.1-2.69-.05-.18-.12-.35-.22-.64-.09.1-.16.17-.23.24-.12-.35-.29-.69-.5-1,2.11-3.64,4.34-7.22,6.44-10.86.13-.23.23-.44.33-.67.85.06.91.13.58,1.06-.3.88-.64,1.78-.67,2.68-.06,1.52.09,3.05.17,4.58.05.92.11,1.84.25,2.75.07.49.27.97.45,1.44.5,1.24,1.11,2.43,1.48,3.71.19.67.45,1.22.86,1.77.65.86,1.27,1.76,1.73,2.73.29.61.65,1.02,1.2,1.35.32.19.57.5.81.79.87,1.05,1.47,2.42,3.05,2.67.18.02.32.24.5.36.78.52,1.58,1.1,2.49,1.15.37.03.75-.04,1.15-.24.37-.18.73-.37,1.08-.6,1.23-.25,2.47-.55,3.53-1.13,1.64-.88,3.19-1.93,4.74-2.98,0,.27-.02.55-.03.84-.05.83-.3,1.52-.93,2.01-.95.73-1.93,1.44-3.21,1.55-.49.05-1,.28-1.42.54-1.16.74-2.51.8-3.79.97-.06,0-.12.01-.18.02h-.09s-.06.02-.09.03c-.13.02-.25.03-.36.03-.36.02-.72-.01-1.09-.05-.68-.08-1.38-.21-2.05-.17-1.34.08-2.46-.51-3.66-.88-1.39-.42-2.74-.9-3.66-2.12Z"/>
      </g>
      <g id="_Radial_Repeat_-2" data-name="&amp;lt;Radial Repeat&amp;gt;">
        <path class="cls-1" d="m45.43,9.76c.29.2.19.61-.12,1.53-.09.27-.18.54-.27.81-.03-.41-.01-.82.02-1.23.03-.45.17-.81.37-1.12Z"/>
        <path class="cls-1" d="m44.33,9.56s.04,0,.06,0c.53.03.86.07,1.04.2-.21.3-.34.67-.37,1.12-.03.41-.04.82-.02,1.23-.4,1.19-.76,2.41-.79,3.62-.06,1.86.08,3.73.21,5.59.06.65.11,1.29.15,1.94.1,1.52.23,3.04.47,4.54.12.81.45,1.59.77,2.35.83,2.02,1.87,3.99,2.51,6.08.33,1.1.77,1.99,1.45,2.89,1.08,1.41,2.12,2.87,2.91,4.45.49,1,1.09,1.68,2,2.23.52.31.96.8,1.36,1.27,1.47,1.72,2.45,3.95,5.07,4.35.29.05.54.41.82.59,1.84,1.18,3.72,2.58,6.01,1.43,2.05-1.02,3.95-2.35,4.78-4.69.1-.29.16-.6.14-.9-.08-1.33-.2-2.66-.32-3.99-.22-2.32-1.43-4.05-3.22-5.44-.3-.23-.42-.69-.62-1.04.43-.25.89-.72,1.32-.72,3.14.07,6.24-.06,9.18-1.38.83-.38,2.01.06,2.3.94.34,1.01.47,2.11.64,3.17.11.63-.03,1.37.24,1.92.89,1.78.92,3.63.82,5.56-.07,1.38-.48,2.52-1.51,3.33-1.55,1.23-3.14,2.4-5.24,2.62-.81.08-1.63.47-2.32.91-2.09,1.37-4.53,1.39-6.82,1.77-1.86.3-3.86-.38-5.78-.24-2.22.15-4.07-.79-6.06-1.37-2.29-.67-4.52-1.42-6.06-3.43-.22-.29-.63-.42-.94-.65-1.62-1.22-3.47-2.13-4.53-4.07-.66-1.2-1.67-2.29-2.74-3.16-1.09-.89-1.75-1.95-2.28-3.2-.6-1.4-1.08-3-2.11-4.01-1.32-1.31-1.46-2.85-1.86-4.4-.08-.3-.21-.58-.38-1.06-.14.17-.26.3-.37.41-.22-.58-.5-1.13-.84-1.64l3.57-6.21c2.29-3.93,4.6-7.84,6.83-11.79.08-.15.16-.3.23-.44.03-.05.05-.11.07-.17l.04-.08c.07-.13.13-.27.19-.42Z"/>
        <path class="cls-1" d="m86.22,71.56s-.04,0-.06,0c-.53-.03-.86-.07-1.04-.2.21-.3.34-.67.37-1.12.03-.41.04-.82.02-1.23.4-1.19.76-2.41.79-3.62.06-1.86-.08-3.73-.21-5.59-.06-.65-.11-1.29-.15-1.94-.1-1.52-.23-3.04-.47-4.54-.12-.81-.45-1.59-.77-2.35-.83-2.02-1.87-3.99-2.51-6.08-.33-1.1-.77-1.99-1.45-2.89-1.08-1.41-2.12-2.87-2.91-4.45-.49-1-1.09-1.68-2-2.23-.52-.31-.96-.8-1.36-1.27-1.47-1.72-2.45-3.95-5.07-4.35-.29-.05-.54-.41-.82-.59-1.84-1.18-3.72-2.58-6.01-1.43-2.05,1.02-3.95,2.35-4.78,4.69-.1.29-.16.6-.14.9.08,1.33.2,2.66.32,3.99.22,2.32,1.43,4.05,3.22,5.44.3.23.42.69.62,1.04-.43.25-.89.72-1.32.72-3.14-.07-6.24.06-9.18,1.38-.83.38-2.01-.06-2.3-.94-.34-1.01-.47-2.11-.64-3.17-.11-.63.03-1.37-.24-1.92-.89-1.78-.92-3.63-.82-5.56.07-1.38.48-2.52,1.51-3.33,1.55-1.23,3.14-2.4,5.24-2.62.81-.08,1.63-.47,2.32-.91,2.09-1.37,4.53-1.39,6.82-1.77,1.86-.3,3.86.38,5.78.24,2.22-.15,4.07.79,6.06,1.37,2.29.67,4.52,1.42,6.06,3.43.22.29.63.42.94.65,1.62,1.22,3.47,2.13,4.53,4.07.66,1.2,1.67,2.29,2.74,3.16,1.09.89,1.75,1.95,2.28,3.2.6,1.4,1.08,3,2.11,4.01,1.32,1.31,1.46,2.85,1.86,4.4.08.3.21.58.38,1.06.14-.17.26-.3.37-.41.22.58.5,1.13.84,1.64l-3.57,6.21c-2.29,3.93-4.6,7.84-6.83,11.79-.08.15-.16.3-.23.44-.03.05-.05.11-.07.17l-.04.08c-.07.13-.13.27-.19.42Z"/>
        <path class="cls-1" d="m52.35,2.11c.22-.02.41-.2.63-.29,1.14-.46,2.19-1.15,3.53-1.1.83.03,1.72-.16,2.5-.45.81-.3,1.56-.31,2.38-.21.92.11,1.91.36,2.75.14,1.09-.29,1.94.13,2.88.39.18.05.36.07.66.13-.04-.13-.07-.22-.09-.32.36.07.74.09,1.12.07,2.1,3.65,4.08,7.37,6.19,11.01.13.23.27.42.41.62-.48.71-.57.72-1.21-.03-.61-.7-1.22-1.44-1.99-1.92-1.29-.81-2.69-1.45-4.05-2.14-.82-.42-1.65-.82-2.51-1.16-.46-.18-.98-.25-1.47-.33-1.32-.19-2.66-.25-3.95-.57-.68-.17-1.28-.22-1.96-.14-1.07.13-2.16.22-3.23.13-.67-.05-1.21.05-1.77.37-.33.18-.72.25-1.09.31-1.34.23-2.83.06-3.84,1.31-.11.15-.37.16-.56.25-.84.42-1.74.82-2.24,1.58-.21.3-.34.67-.37,1.12-.03.41-.04.82-.02,1.23-.4,1.19-.76,2.41-.79,3.62-.06,1.86.08,3.73.21,5.59-.23-.14-.47-.29-.71-.45-.7-.46-1.17-1.02-1.28-1.81-.16-1.19-.28-2.39.26-3.55.2-.45.26-1.01.24-1.5-.06-1.38.56-2.57,1.05-3.77.03-.05.05-.11.07-.17l.04-.08s.02-.06.03-.09c.05-.12.1-.23.15-.33.16-.32.37-.62.59-.92.41-.55.87-1.09,1.17-1.69.6-1.2,1.67-1.87,2.59-2.73,1.06-1,2.15-1.92,3.67-2.11Z"/>
      </g>
      <g id="_Radial_Repeat_-3" data-name="&amp;lt;Radial Repeat&amp;gt;">
        <path class="cls-1" d="m108.66,71.93c-.32.15-.62-.14-1.27-.87-.19-.21-.38-.43-.57-.64.37.18.72.4,1.06.63.37.25.62.55.78.88Z"/>
        <path class="cls-1" d="m109.38,71.08s-.02.03-.03.05c-.29.44-.49.71-.69.8-.16-.33-.41-.63-.78-.88-.34-.23-.69-.45-1.06-.63-.83-.94-1.71-1.86-2.74-2.49-1.58-.98-3.27-1.8-4.95-2.61-.59-.27-1.17-.55-1.75-.84-1.37-.67-2.75-1.32-4.17-1.86-.76-.3-1.6-.4-2.42-.51-2.17-.29-4.39-.37-6.52-.87-1.12-.27-2.11-.33-3.23-.19-1.76.23-3.55.4-5.31.29-1.11-.08-2,.1-2.93.62-.53.3-1.17.43-1.78.54-2.22.41-4.65.15-6.3,2.22-.19.23-.62.26-.92.42-1.94,1-4.09,1.93-4.24,4.49-.14,2.29.06,4.6,1.67,6.48.2.23.44.44.71.57,1.19.59,2.4,1.16,3.61,1.72,2.12.97,4.22.79,6.32-.07.35-.14.81-.02,1.21-.02,0,.5.18,1.13-.04,1.5-1.63,2.69-3.07,5.43-3.39,8.64-.09.91-1.06,1.71-1.96,1.52-1.05-.21-2.06-.65-3.07-1.03-.6-.22-1.17-.71-1.78-.75-1.99-.12-3.6-1.02-5.23-2.07-1.16-.75-1.94-1.67-2.13-2.97-.29-1.96-.51-3.92.35-5.85.33-.74.41-1.65.37-2.47-.14-2.49,1.06-4.62,1.88-6.79.67-1.76,2.26-3.15,3.1-4.88.98-2,2.72-3.13,4.22-4.56,1.73-1.65,3.49-3.2,6-3.53.36-.05.68-.34,1.03-.49,1.87-.79,3.58-1.94,5.79-1.89,1.37.03,2.82-.3,4.11-.79,1.32-.5,2.56-.54,3.91-.38,1.51.18,3.14.57,4.53.18,1.79-.49,3.2.16,4.74.59.3.08.61.11,1.11.2-.08-.21-.13-.37-.17-.52.61.1,1.23.13,1.84.09l3.59,6.2c2.26,3.95,4.49,7.9,6.8,11.81.09.15.18.29.27.42.03.05.07.1.11.15l.05.07c.08.13.17.25.27.37Z"/>
        <path class="cls-1" d="m34.74,76.35s.02-.03.03-.05c.29-.44.49-.71.69-.8.16.33.41.63.78.88.34.23.69.45,1.06.63.83.94,1.71,1.86,2.74,2.49,1.58.98,3.27,1.8,4.95,2.61.59.27,1.17.55,1.75.84,1.37.67,2.75,1.32,4.17,1.86.76.3,1.6.4,2.42.51,2.17.29,4.39.37,6.52.87,1.12.27,2.11.33,3.23.19,1.76-.23,3.55-.4,5.31-.29,1.11.08,2-.1,2.93-.62.53-.3,1.17-.43,1.78-.54,2.22-.41,4.65-.15,6.3-2.22.19-.23.62-.26.92-.42,1.94-1,4.09-1.93,4.24-4.49.14-2.29-.06-4.6-1.67-6.48-.2-.23-.44-.44-.71-.57-1.19-.59-2.4-1.16-3.61-1.72-2.12-.97-4.22-.79-6.32.07-.35.14-.81.02-1.21.02,0-.5-.18-1.13.04-1.5,1.63-2.69,3.07-5.43,3.39-8.64.09-.91,1.06-1.71,1.96-1.52,1.05.21,2.06.65,3.07,1.03.6.22,1.17.71,1.78.75,1.99.12,3.6,1.02,5.23,2.07,1.16.75,1.94,1.67,2.13,2.97.29,1.96.51,3.92-.35,5.85-.33.74-.41,1.65-.37,2.47.14,2.49-1.06,4.62-1.88,6.79-.67,1.76-2.26,3.15-3.1,4.88-.98,2-2.72,3.13-4.22,4.56-1.73,1.65-3.49,3.2-6,3.53-.36.05-.68.34-1.03.49-1.87.79-3.58,1.94-5.79,1.89-1.37-.03-2.82.3-4.11.79-1.32.5-2.56.54-3.91.38-1.51-.18-3.14-.57-4.53-.18-1.79.49-3.2-.16-4.74-.59-.3-.08-.61-.11-1.11-.2.08.21.13.37.17.52-.61-.1-1.23-.13-1.84-.09l-3.59-6.2c-2.26-3.95-4.49-7.9-6.8-11.81-.09-.15-.18-.29-.27-.42-.03-.05-.07-.1-.11-.15l-.05-.07c-.08-.13-.17-.25-.27-.37Z"/>
        <path class="cls-1" d="m111.82,81.75c-.09.2-.03.46-.06.69-.17,1.22-.1,2.47-.81,3.61-.44.71-.72,1.57-.86,2.39-.15.85-.51,1.51-1.01,2.16-.56.74-1.27,1.47-1.5,2.31-.3,1.09-1.08,1.62-1.78,2.3-.13.13-.24.28-.44.51.13.03.23.05.32.08-.24.28-.45.6-.62.93-4.21-.01-8.42-.15-12.63-.15-.26,0-.5.02-.74.05-.37-.77-.34-.85.63-1.03.91-.18,1.86-.34,2.66-.76,1.35-.71,2.6-1.6,3.88-2.44.77-.5,1.54-1.02,2.26-1.59.39-.31.71-.72,1.02-1.11.82-1.05,1.55-2.18,2.47-3.14.49-.5.83-1,1.1-1.63.42-.99.89-1.98,1.5-2.86.38-.56.56-1.07.57-1.72.01-.37.15-.75.28-1.1.47-1.28,1.36-2.48.79-3.98-.07-.17.05-.4.06-.61.06-.94.16-1.92-.25-2.73-.16-.33-.41-.63-.78-.88-.34-.23-.69-.45-1.06-.63-.83-.94-1.71-1.86-2.74-2.49-1.58-.98-3.27-1.8-4.95-2.61.24-.13.49-.26.74-.39.75-.37,1.47-.5,2.21-.2,1.11.46,2.21.95,2.95,2,.29.4.74.73,1.18.96,1.22.64,1.95,1.77,2.74,2.8.03.05.07.1.11.15l.05.07s.04.05.06.07c.08.1.15.2.21.3.2.3.35.63.5.97.27.63.51,1.3.88,1.86.74,1.12.79,2.38,1.07,3.61.33,1.42.59,2.82-.01,4.23Z"/>
      </g>
    </g>
  </g>
</svg>