<?xml version="1.0" encoding="UTF-8"?>
<svg id="Layer_2" data-name="Layer 2" xmlns="http://www.w3.org/2000/svg" viewBox="0 0 86.89 86.89">
  <defs>
    <style>
      .cls-1 {
        fill: #fff;
        stroke-width: 0px;
      }
    </style>
  </defs>
  <g id="Layer_1-2" data-name="Layer 1">
    <g>
      <g id="_Radial_Repeat_" data-name="&amp;lt;Radial Repeat&amp;gt;">
        <path class="cls-1" d="m57.5,57.86c-1.74-3.15-3.11-5.54-4.4-7.97-.9-1.69-.22-2.96.98-4.32,5.31-5.98,12.56-7.4,19.52-3.61.98.53,2.02,1.31,2.54,2.24,2.12,3.82,4.06,7.75,6.04,11.65.12.23.06.55.13,1.33-1.99-1.02-3.67-1.86-5.33-2.73-2.58-1.36-5.12-2.82-7.74-4.09-3.62-1.75-7.03-.58-9.03,2.92-.77,1.35-1.59,2.67-2.71,4.57Z"/>
        <path class="cls-1" d="m37.98,45.77s-.05,0-.07.01c-1.14.18-2.25.51-3.33.97-2.24.95-4.33,2.48-6.19,4.57-.57.65-1.03,1.28-1.25,1.94.35.95.6,1.92.71,2.9.02.13.02.25.04.38,1.15,2.13,2.38,4.3,3.91,7.06,1.13-1.9,1.95-3.22,2.71-4.57,1.16-2.03,2.8-3.28,4.68-3.63,1.28-.24,2.68-.06,4.1.58.09.04.17.08.26.12,2.62,1.27,5.16,2.73,7.74,4.09,1.66.87,3.34,1.71,5.33,2.73-.07-.78-.02-1.1-.13-1.33-1.98-3.9-3.92-7.83-6.04-11.65-.13-.23-.29-.45-.47-.66,0-.07-.02-.14-.04-.2-1.47-3.19-3.05-6.34-4.59-9.49-.23,0-.45,0-.68,0-1.48,3.29-3.51,5.68-6.69,6.18Z"/>
        <path class="cls-1" d="m23.68,63c-.17.08-.33.15-.5.22-.01,0-.03.01-.04.02-.34.13-.68.23-1.03.3,0,0-.02,0-.03,0-.18.04-.35.06-.53.09,0,0,0,0,0,0-.36.04-.72.06-1.08.04,0,0-.01,0-.02,0-.36-.01-.72-.05-1.07-.12-2.92-.16-5.12-1.96-5.95-5.11-.74-2.82-1.28-5.69-1.94-8.54-.42-1.83-.87-3.65-1.4-5.82-.54.56-.82.73-.92.97-1.67,4.04-3.39,8.07-4.91,12.17-.37,1-.28,2.3-.05,3.39,1.65,7.75,7.46,12.33,15.45,12.47,1.81.03,3.22-.28,3.92-2.06,1-2.56,1.93-5.15,3.19-8.52-1.18.2-2.17.37-3.07.52h0Z"/>
        <path class="cls-1" d="m49.6,31.67c1.28-.24,2.68-.06,4.1.58.09.04.17.08.26.12,2.62,1.27,5.16,2.73,7.74,4.09,1.66.87,3.34,1.71,5.33,2.73-.07-.78-.02-1.1-.13-1.33-1.98-3.9-3.92-7.83-6.04-11.65-.13-.23-.29-.45-.47-.66,0-.07-.02-.14-.04-.2-1.47-3.19-3.05-6.34-4.59-9.49-.22,0-.45,0-.67,0-.46,1.1-1.06,2.15-1.77,3.15-2.07,2.89-5.48,4.44-8.88,5-.51.09-1.04.12-1.58.12-1.44.89-2.8,2.05-4.05,3.46-1.2,1.35-1.88,2.63-.98,4.32,1.29,2.43,2.65,4.81,4.4,7.97,1.13-1.9,1.95-3.22,2.71-4.57,1.16-2.03,2.8-3.28,4.68-3.63Z"/>
        <path class="cls-1" d="m20.11,71.56c1.19-.02,2.38-.04,3.54-.3"/>
        <path class="cls-1" d="m20.78,70.46c2.99-.18,5.92-1.11,8.47-2.66"/>
        <path class="cls-1" d="m20.99,71.65c2.34-.13,4.64-.85,6.64-2.07.49-.3.99-.63,1.56-.64"/>
      </g>
      <g id="_Radial_Repeat_-2" data-name="&amp;lt;Radial Repeat&amp;gt;">
        <path class="cls-1" d="m23.93,48.41c3.6.06,6.35.08,9.1.17,1.91.07,2.68,1.29,3.25,3.01,2.52,7.58.13,14.58-6.63,18.71-.95.58-2.14,1.09-3.21,1.08-4.37-.07-8.74-.36-13.11-.59-.26-.01-.51-.22-1.22-.55,1.88-1.22,3.44-2.25,5.03-3.25,2.47-1.56,5-3.02,7.41-4.66,3.32-2.26,4.02-5.8,1.99-9.28-.78-1.34-1.52-2.71-2.6-4.63Z"/>
        <path class="cls-1" d="m44.16,37.54s.01-.04.03-.07c.41-1.08.69-2.2.83-3.37.3-2.41.02-4.99-.87-7.64-.27-.82-.59-1.53-1.06-2.05-.99-.17-1.96-.45-2.87-.83-.12-.05-.23-.11-.35-.16-2.42-.07-4.92-.08-8.07-.14,1.08,1.93,1.81,3.29,2.6,4.63,1.18,2.02,1.44,4.07.8,5.86-.43,1.23-1.29,2.34-2.56,3.26-.07.06-.15.11-.23.16-2.42,1.64-4.95,3.1-7.41,4.66-1.59,1-3.15,2.03-5.03,3.25.71.33.96.54,1.22.55,4.37.23,8.74.52,13.11.6.26,0,.53-.02.81-.08.06.03.13.06.19.06,3.5.32,7.01.53,10.52.77.12-.2.23-.39.35-.59-2.11-2.93-3.16-5.88-2.01-8.88Z"/>
        <path class="cls-1" d="m36.39,16.55c.01-.18.04-.36.06-.54,0-.02,0-.03,0-.05.06-.36.14-.7.26-1.04,0,0,0-.02,0-.03.06-.17.12-.34.19-.5,0,0,0,0,0,0,.14-.33.31-.65.5-.96,0,0,0-.01.01-.02.19-.31.41-.6.64-.87,1.6-2.44,4.26-3.45,7.4-2.59,2.81.77,5.57,1.73,8.36,2.59,1.79.55,3.59,1.07,5.74,1.7-.21-.75-.22-1.08-.38-1.28-2.67-3.47-5.29-6.97-8.08-10.34-.68-.82-1.85-1.4-2.91-1.74-7.54-2.45-14.41.29-18.53,7.14-.93,1.55-1.37,2.93-.17,4.43,1.72,2.15,3.49,4.24,5.79,7.02.41-1.12.77-2.06,1.08-2.92h0Z"/>
        <path class="cls-1" d="m50.56,54.66c-.43,1.23-1.29,2.34-2.56,3.26-.07.06-.15.11-.23.16-2.42,1.64-4.95,3.1-7.41,4.66-1.59,1-3.15,2.03-5.03,3.25.71.33.96.54,1.22.55,4.37.23,8.74.52,13.11.6.26,0,.53-.02.81-.08.06.03.13.06.19.06,3.5.32,7.01.53,10.52.77.11-.19.23-.38.34-.58-.72-.95-1.33-1.99-1.84-3.11-1.46-3.24-1.1-6.97.11-10.2.18-.49.42-.96.68-1.43-.05-1.69-.37-3.45-.97-5.24-.57-1.72-1.34-2.95-3.25-3.01-2.75-.09-5.5-.11-9.1-.17,1.08,1.93,1.81,3.29,2.6,4.63,1.18,2.02,1.44,4.07.8,5.86Z"/>
        <path class="cls-1" d="m30.76,9.18c-.58,1.04-1.16,2.08-1.51,3.22"/>
        <path class="cls-1" d="m31.38,10.31c-1.33,2.68-2,5.68-1.93,8.67"/>
        <path class="cls-1" d="m30.24,9.9c-1.05,2.09-1.58,4.44-1.53,6.79.01.57.05,1.17-.22,1.67"/>
      </g>
      <g id="_Radial_Repeat_-3" data-name="&amp;lt;Radial Repeat&amp;gt;">
        <path class="cls-1" d="m48.9,24.06c-1.86,3.09-3.24,5.46-4.7,7.79-1.01,1.62-2.46,1.67-4.23,1.31-7.83-1.61-12.69-7.18-12.89-15.1-.03-1.11.12-2.4.67-3.32,2.25-3.75,4.68-7.39,7.07-11.05.14-.22.45-.33,1.09-.78.11,2.24.23,4.11.3,5.98.12,2.92.12,5.84.33,8.75.29,4.01,3.01,6.38,7.05,6.36,1.55,0,3.11.04,5.31.07Z"/>
        <path class="cls-1" d="m48.2,47.01s.03.03.04.06c.73.89,1.56,1.7,2.5,2.4,1.94,1.46,4.32,2.51,7.05,3.07.85.17,1.62.25,2.31.11.64-.78,1.37-1.48,2.15-2.07.1-.08.21-.15.31-.22,1.27-2.06,2.53-4.22,4.16-6.92-2.21-.03-3.76-.08-5.31-.07-2.34.01-4.24-.78-5.48-2.24-.85-.99-1.39-2.29-1.55-3.85-.01-.09-.02-.19-.03-.28-.21-2.91-.21-5.83-.33-8.75-.07-1.87-.19-3.75-.3-5.98-.64.45-.94.56-1.09.78-2.39,3.67-4.82,7.31-7.07,11.05-.14.23-.25.47-.34.74-.06.04-.11.08-.15.14-2.03,2.87-3.96,5.81-5.93,8.73.11.2.22.4.34.59,3.59-.36,6.67.2,8.7,2.7Z"/>
        <path class="cls-1" d="m70.26,50.78c.15.1.3.21.44.33.01,0,.02.02.04.03.28.23.54.48.77.74,0,0,.01.01.02.02.12.13.23.27.34.42,0,0,0,0,0,0,.22.29.41.59.58.91,0,0,0,.01,0,.02.17.32.31.65.43.99,1.32,2.61.86,5.41-1.46,7.71-2.07,2.05-4.29,3.96-6.43,5.95-1.37,1.28-2.72,2.58-4.34,4.12.76.19,1.04.35,1.3.32,4.34-.58,8.68-1.1,12.99-1.83,1.06-.18,2.13-.91,2.96-1.65,5.89-5.31,6.95-12.62,3.08-19.62-.88-1.58-1.86-2.65-3.75-2.36-2.72.41-5.42.9-8.97,1.5.77.92,1.4,1.69,1.99,2.4h0Z"/>
        <path class="cls-1" d="m30.17,44c-.85-.99-1.39-2.29-1.55-3.85-.01-.09-.02-.19-.03-.28-.21-2.91-.21-5.83-.33-8.75-.07-1.87-.19-3.75-.3-5.98-.64.45-.94.56-1.09.78-2.39,3.67-4.82,7.31-7.07,11.05-.14.23-.25.47-.34.74-.06.04-.11.08-.15.14-2.03,2.87-3.96,5.81-5.93,8.73.11.19.22.39.33.58,1.18-.15,2.39-.16,3.61-.04,3.53.35,6.58,2.53,8.78,5.19.33.4.63.84.89,1.31,1.49.8,3.17,1.4,5.02,1.78,1.77.36,3.22.31,4.23-1.31,1.45-2.33,2.84-4.71,4.7-7.79-2.21-.03-3.76-.08-5.31-.07-2.34.01-4.24-.78-5.48-2.24Z"/>
        <path class="cls-1" d="m79.46,49.6c-.61-1.02-1.22-2.05-2.03-2.91"/>
        <path class="cls-1" d="m78.17,49.56c-1.65-2.49-3.92-4.58-6.54-6.01"/>
        <path class="cls-1" d="m79.09,48.78c-1.28-1.96-3.06-3.59-5.11-4.72-.5-.27-1.04-.54-1.34-1.03"/>
      </g>
    </g>
  </g>
</svg>