<?xml version="1.0" encoding="UTF-8"?>
<svg id="Layer_2" data-name="Layer 2" xmlns="http://www.w3.org/2000/svg" viewBox="0 0 118.2 118.2">
  <defs>
    <style>
      .cls-1 {
        fill: #fff;
        stroke-width: 0px;
      }
    </style>
  </defs>
  <g id="Layer_1-2" data-name="Layer 1">
    <g>
      <g id="_Radial_Repeat_" data-name="&amp;lt;Radial Repeat&amp;gt;">
        <path class="cls-1" d="m23.2,95.61c.03-.35.43-.47,1.39-.66.28-.06.56-.11.84-.17-.34.23-.71.42-1.08.6-.4.2-.79.26-1.15.24Z"/>
        <path class="cls-1" d="m23.58,96.65s-.02-.03-.03-.05c-.24-.47-.37-.78-.35-1,.37.03.75-.04,1.15-.24.37-.18.73-.37,1.08-.6,1.23-.25,2.47-.55,3.53-1.13,1.64-.88,3.19-1.93,4.74-2.98.53-.38,1.06-.74,1.6-1.1,1.27-.85,2.52-1.72,3.7-2.68.64-.51,1.15-1.19,1.65-1.84,1.34-1.73,2.52-3.62,4.01-5.21.79-.83,1.34-1.66,1.78-2.7.68-1.64,1.43-3.27,2.4-4.74.62-.92.91-1.78.93-2.85,0-.61.21-1.23.42-1.81.75-2.13,2.2-4.1,1.23-6.57-.1-.28.08-.67.1-1.01.1-2.18.37-4.51-1.77-5.92-1.91-1.27-4.01-2.25-6.45-1.79-.3.06-.6.16-.85.33-1.11.74-2.2,1.5-3.29,2.27-1.9,1.35-2.79,3.26-3.1,5.51-.05.37-.39.71-.59,1.06-.43-.25-1.07-.41-1.28-.78-1.51-2.76-3.17-5.37-5.79-7.26-.74-.53-.95-1.77-.34-2.46.71-.8,1.59-1.46,2.43-2.14.49-.41,1.2-.66,1.54-1.17,1.1-1.66,2.68-2.61,4.41-3.49,1.23-.63,2.42-.85,3.64-.36,1.84.73,3.65,1.52,4.89,3.23.48.66,1.22,1.18,1.95,1.56,2.23,1.12,3.47,3.23,4.94,5.02,1.19,1.46,1.6,3.53,2.68,5.12,1.24,1.85,1.35,3.92,1.84,5.93.56,2.32,1.03,4.62.06,6.96-.14.34-.05.76-.09,1.14-.25,2.01-.11,4.07-1.26,5.96-.71,1.17-1.15,2.59-1.37,3.95-.23,1.39-.81,2.49-1.63,3.58-.91,1.22-2.06,2.43-2.42,3.83-.47,1.8-1.74,2.69-2.88,3.81-.22.22-.4.47-.73.86.22.04.39.07.54.11-.39.48-.73,1-1,1.55h-7.16c-4.55,0-9.09-.05-13.63,0-.17,0-.34.01-.5.02-.06,0-.12.01-.18.02h-.09c-.15.01-.3.03-.46.06Z"/>
        <path class="cls-1" d="m81.64,60.51s-.02-.03-.03-.05c-.33-.41-.55-.66-.76-.73-.13.34-.35.67-.7.95-.32.26-.65.51-1,.73-.74,1.01-1.53,2.01-2.5,2.73-1.48,1.12-3.09,2.09-4.69,3.06-.56.32-1.11.66-1.66,1-1.3.79-2.62,1.57-3.98,2.24-.73.37-1.56.55-2.36.73-2.13.49-4.34.77-6.41,1.47-1.09.37-2.07.52-3.2.49-1.77-.07-3.57-.07-5.31.2-1.1.18-2,.09-2.97-.35-.56-.25-1.2-.32-1.82-.37-2.25-.2-4.64.28-6.48-1.63-.21-.21-.64-.2-.95-.33-2.02-.82-4.25-1.54-4.64-4.08-.35-2.27-.37-4.59,1.06-6.61.18-.25.4-.48.65-.63,1.13-.7,2.28-1.38,3.44-2.05,2.02-1.16,4.13-1.18,6.3-.52.36.11.81-.06,1.21-.09-.05-.5.07-1.14-.18-1.49-1.87-2.53-3.56-5.12-4.18-8.29-.17-.9-1.21-1.6-2.09-1.33-1.03.31-1.99.84-2.96,1.31-.58.27-1.1.82-1.7.91-1.97.3-3.49,1.35-5.02,2.55-1.09.85-1.78,1.84-1.85,3.15-.11,1.98-.15,3.95.89,5.79.4.71.56,1.6.6,2.43.09,2.49,1.48,4.5,2.5,6.59.83,1.69,2.54,2.93,3.54,4.57,1.16,1.9,3,2.86,4.62,4.15,1.88,1.48,3.77,2.86,6.3,2.96.36.02.71.28,1.07.39,1.94.61,3.74,1.6,5.94,1.35,1.36-.16,2.84.04,4.17.41,1.36.38,2.6.3,3.93.02,1.49-.32,3.07-.86,4.49-.6,1.83.32,3.17-.46,4.67-1.03.29-.11.6-.17,1.09-.3-.06.22-.1.38-.12.53.6-.16,1.21-.24,1.82-.26l3-6.51c1.88-4.14,3.74-8.28,5.68-12.39.08-.16.15-.31.23-.44.03-.05.06-.11.1-.16l.04-.07c.07-.14.15-.26.23-.39Z"/>
        <path class="cls-1" d="m15.4,69.54c.68-.15,1.39-.21,2.15-.14.31.03.63.11.9.26.51.28,1.02.58,1.52.87.3.15.58.31.85.49.39.23.79.44,1.18.67,2.05,1.21,3.11,3.08,3.58,5.35.08.38.45.69.68,1.03.43-.29,1.07-.51,1.26-.91,1.36-2.95,2.88-5.77,5.44-7.92.73-.61.85-1.89.17-2.54-.79-.76-1.74-1.35-2.65-1.98-.53-.38-1.28-.57-1.67-1.06-1.25-1.6-2.95-2.43-4.79-3.18-1.31-.53-2.55-.65-3.77-.05-1.84.91-3.65,1.87-4.8,3.73-.44.71-1.18,1.31-1.9,1.76-2.21,1.34-3.34,3.6-4.73,5.57-.66.94-1.02,2.06-1.41,3.19,1.34-2.9,4.03-5.1,7.99-5.13Z"/>
        <path class="cls-1" d="m13.12,93.43c-.13-.18-.38-.26-.57-.4-.97-.76-2.09-1.32-2.72-2.51-.39-.74-1-1.41-1.64-1.94-.66-.55-1.05-1.2-1.37-1.95-.36-.85-.64-1.83-1.25-2.45-.79-.8-.86-1.75-1.1-2.69-.05-.18-.12-.35-.22-.64-.09.1-.16.17-.23.24-.12-.35-.29-.69-.5-1,2.11-3.64,4.34-7.22,6.44-10.86.13-.23.23-.44.33-.67.85.06.91.13.58,1.06-.3.88-.64,1.78-.67,2.68-.06,1.52.09,3.05.17,4.58.05.92.11,1.84.25,2.75.07.49.27.97.45,1.44.5,1.24,1.11,2.43,1.48,3.71.19.67.45,1.22.86,1.77.65.86,1.27,1.76,1.73,2.73.29.61.65,1.02,1.2,1.35.32.19.57.5.81.79.87,1.05,1.47,2.42,3.05,2.67.18.02.32.24.5.36.78.52,1.58,1.1,2.49,1.15.37.03.75-.04,1.15-.24.37-.18.73-.37,1.08-.6,1.23-.25,2.47-.55,3.53-1.13,1.64-.88,3.19-1.93,4.74-2.98,0,.27-.02.55-.03.84-.05.83-.3,1.52-.93,2.01-.95.73-1.93,1.44-3.21,1.55-.49.05-1,.28-1.42.54-1.16.74-2.51.8-3.79.97-.06,0-.12.01-.18.02h-.09s-.06.02-.09.03c-.13.02-.25.03-.36.03-.36.02-.72-.01-1.09-.05-.68-.08-1.38-.21-2.05-.17-1.34.08-2.46-.51-3.66-.88-1.39-.42-2.74-.9-3.66-2.12Z"/>
      </g>
      <g id="_Radial_Repeat_-2" data-name="&amp;lt;Radial Repeat&amp;gt;">
        <path class="cls-1" d="m45.43,9.76c.29.2.19.61-.12,1.53-.09.27-.18.54-.27.81-.03-.41-.01-.82.02-1.23.03-.45.17-.81.37-1.12Z"/>
        <path class="cls-1" d="m44.33,9.56s.04,0,.06,0c.53.03.86.07,1.04.2-.21.3-.34.67-.37,1.12-.03.41-.04.82-.02,1.23-.4,1.19-.76,2.41-.79,3.62-.06,1.86.08,3.73.21,5.59.06.65.11,1.29.15,1.94.1,1.52.23,3.04.47,4.54.12.81.45,1.59.77,2.35.83,2.02,1.87,3.99,2.51,6.08.33,1.1.77,1.99,1.45,2.89,1.08,1.41,2.12,2.87,2.91,4.45.49,1,1.09,1.68,2,2.23.52.31.96.8,1.36,1.27,1.47,1.72,2.45,3.95,5.07,4.35.29.05.54.41.82.59,1.84,1.18,3.72,2.58,6.01,1.43,2.05-1.02,3.95-2.35,4.78-4.69.1-.29.16-.6.14-.9-.08-1.33-.2-2.66-.32-3.99-.22-2.32-1.43-4.05-3.22-5.44-.3-.23-.42-.69-.62-1.04.43-.25.89-.72,1.32-.72,3.14.07,6.24-.06,9.18-1.38.83-.38,2.01.06,2.3.94.34,1.01.47,2.11.64,3.17.11.63-.03,1.37.24,1.92.89,1.78.92,3.63.82,5.56-.07,1.38-.48,2.52-1.51,3.33-1.55,1.23-3.14,2.4-5.24,2.62-.81.08-1.63.47-2.32.91-2.09,1.37-4.53,1.39-6.82,1.77-1.86.3-3.86-.38-5.78-.24-2.22.15-4.07-.79-6.06-1.37-2.29-.67-4.52-1.42-6.06-3.43-.22-.29-.63-.42-.94-.65-1.62-1.22-3.47-2.13-4.53-4.07-.66-1.2-1.67-2.29-2.74-3.16-1.09-.89-1.75-1.95-2.28-3.2-.6-1.4-1.08-3-2.11-4.01-1.32-1.31-1.46-2.85-1.86-4.4-.08-.3-.21-.58-.38-1.06-.14.17-.26.3-.37.41-.22-.58-.5-1.13-.84-1.64l3.57-6.21c2.29-3.93,4.6-7.84,6.83-11.79.08-.15.16-.3.23-.44.03-.05.05-.11.07-.17l.04-.08c.07-.13.13-.27.19-.42Z"/>
        <path class="cls-1" d="m46.61,77.92s.04,0,.06,0c.52-.08.85-.15,1.02-.29-.23-.28-.4-.64-.47-1.08-.07-.4-.12-.81-.13-1.23-.51-1.15-.98-2.33-1.12-3.53-.23-1.84-.27-3.72-.3-5.59,0-.65-.01-1.29-.03-1.94-.04-1.52-.05-3.05.05-4.57.04-.82.3-1.62.55-2.41.64-2.09,1.5-4.14,1.93-6.29.22-1.13.58-2.05,1.18-3.01.94-1.5,1.85-3.06,2.48-4.7.39-1.04.93-1.78,1.79-2.4.49-.36.88-.88,1.23-1.39,1.3-1.85,2.08-4.16,4.65-4.8.29-.08.5-.45.77-.66,1.72-1.34,3.46-2.91,5.85-1.98,2.14.83,4.15,1.98,5.19,4.22.13.28.22.58.22.88.04,1.33.05,2.67.05,4,0,2.33-1.04,4.16-2.7,5.71-.27.26-.36.73-.52,1.09.45.21.95.64,1.38.59,3.12-.36,6.22-.52,9.27.53.86.3,2-.25,2.2-1.15.25-1.04.27-2.14.35-3.22.05-.64-.16-1.36.06-1.93.72-1.86.58-3.7.3-5.62-.2-1.37-.71-2.46-1.81-3.18-1.66-1.08-3.35-2.1-5.46-2.13-.81,0-1.67-.32-2.4-.7-2.2-1.17-4.64-.97-6.95-1.13-1.88-.13-3.81.74-5.73.78-2.23.05-3.98,1.16-5.91,1.93-2.22.88-4.37,1.83-5.71,3.98-.2.31-.59.48-.88.73-1.5,1.37-3.26,2.44-4.14,4.47-.55,1.26-1.45,2.44-2.43,3.4-1.01.99-1.56,2.1-1.98,3.39-.47,1.45-.79,3.09-1.73,4.19-1.19,1.42-1.19,2.97-1.44,4.55-.05.31-.15.6-.28,1.09-.16-.16-.28-.27-.4-.37-.16.6-.4,1.17-.69,1.71l4.13,5.85c2.64,3.7,5.3,7.38,7.89,11.11.1.14.19.28.27.42.03.05.06.11.09.16l.04.07c.08.13.16.26.22.4Z"/>
        <path class="cls-1" d="m71.91,16.03c-.21.67-.51,1.31-.95,1.93-.18.25-.41.49-.68.65-.5.3-1.01.59-1.51.89-.28.18-.56.35-.85.5-.39.23-.78.46-1.17.68-2.08,1.17-4.23,1.15-6.43.43-.37-.12-.82.04-1.23.08.04.52-.09,1.18.16,1.55,1.87,2.65,3.56,5.37,4.14,8.67.16.93,1.22,1.69,2.11,1.42,1.05-.3,2.04-.84,3.04-1.31.59-.28,1.13-.83,1.75-.92,2.01-.28,3.58-1.34,5.15-2.56,1.12-.87,1.84-1.88,1.93-3.24.14-2.05.2-4.1-.83-6.02-.39-.74-.55-1.67-.57-2.53-.06-2.59-1.45-4.7-2.46-6.88-.48-1.04-1.28-1.92-2.05-2.82,1.84,2.61,2.4,6.04.45,9.48Z"/>
        <path class="cls-1" d="m52.35,2.11c.22-.02.41-.2.63-.29,1.14-.46,2.19-1.15,3.53-1.1.83.03,1.72-.16,2.5-.45.81-.3,1.56-.31,2.38-.21.92.11,1.91.36,2.75.14,1.09-.29,1.94.13,2.88.39.18.05.36.07.66.13-.04-.13-.07-.22-.09-.32.36.07.74.09,1.12.07,2.1,3.65,4.08,7.37,6.19,11.01.13.23.27.42.41.62-.48.71-.57.72-1.21-.03-.61-.7-1.22-1.44-1.99-1.92-1.29-.81-2.69-1.45-4.05-2.14-.82-.42-1.65-.82-2.51-1.16-.46-.18-.98-.25-1.47-.33-1.32-.19-2.66-.25-3.95-.57-.68-.17-1.28-.22-1.96-.14-1.07.13-2.16.22-3.23.13-.67-.05-1.21.05-1.77.37-.33.18-.72.25-1.09.31-1.34.23-2.83.06-3.84,1.31-.11.15-.37.16-.56.25-.84.42-1.74.82-2.24,1.58-.21.3-.34.67-.37,1.12-.03.41-.04.82-.02,1.23-.4,1.19-.76,2.41-.79,3.62-.06,1.86.08,3.73.21,5.59-.23-.14-.47-.29-.71-.45-.7-.46-1.17-1.02-1.28-1.81-.16-1.19-.28-2.39.26-3.55.2-.45.26-1.01.24-1.5-.06-1.38.56-2.57,1.05-3.77.03-.05.05-.11.07-.17l.04-.08s.02-.06.03-.09c.05-.12.1-.23.15-.33.16-.32.37-.62.59-.92.41-.55.87-1.09,1.17-1.69.6-1.2,1.67-1.87,2.59-2.73,1.06-1,2.15-1.92,3.67-2.11Z"/>
      </g>
      <g id="_Radial_Repeat_-3" data-name="&amp;lt;Radial Repeat&amp;gt;">
        <path class="cls-1" d="m108.66,71.93c-.32.15-.62-.14-1.27-.87-.19-.21-.38-.43-.57-.64.37.18.72.4,1.06.63.37.25.62.55.78.88Z"/>
        <path class="cls-1" d="m109.38,71.08s-.02.03-.03.05c-.29.44-.49.71-.69.8-.16-.33-.41-.63-.78-.88-.34-.23-.69-.45-1.06-.63-.83-.94-1.71-1.86-2.74-2.49-1.58-.98-3.27-1.8-4.95-2.61-.59-.27-1.17-.55-1.75-.84-1.37-.67-2.75-1.32-4.17-1.86-.76-.3-1.6-.4-2.42-.51-2.17-.29-4.39-.37-6.52-.87-1.12-.27-2.11-.33-3.23-.19-1.76.23-3.55.4-5.31.29-1.11-.08-2,.1-2.93.62-.53.3-1.17.43-1.78.54-2.22.41-4.65.15-6.3,2.22-.19.23-.62.26-.92.42-1.94,1-4.09,1.93-4.24,4.49-.14,2.29.06,4.6,1.67,6.48.2.23.44.44.71.57,1.19.59,2.4,1.16,3.61,1.72,2.12.97,4.22.79,6.32-.07.35-.14.81-.02,1.21-.02,0,.5.18,1.13-.04,1.5-1.63,2.69-3.07,5.43-3.39,8.64-.09.91-1.06,1.71-1.96,1.52-1.05-.21-2.06-.65-3.07-1.03-.6-.22-1.17-.71-1.78-.75-1.99-.12-3.6-1.02-5.23-2.07-1.16-.75-1.94-1.67-2.13-2.97-.29-1.96-.51-3.92.35-5.85.33-.74.41-1.65.37-2.47-.14-2.49,1.06-4.62,1.88-6.79.67-1.76,2.26-3.15,3.1-4.88.98-2,2.72-3.13,4.22-4.56,1.73-1.65,3.49-3.2,6-3.53.36-.05.68-.34,1.03-.49,1.87-.79,3.58-1.94,5.79-1.89,1.37.03,2.82-.3,4.11-.79,1.32-.5,2.56-.54,3.91-.38,1.51.18,3.14.57,4.53.18,1.79-.49,3.2.16,4.74.59.3.08.61.11,1.11.2-.08-.21-.13-.37-.17-.52.61.1,1.23.13,1.84.09l3.59,6.2c2.26,3.95,4.49,7.9,6.8,11.81.09.15.18.29.27.42.03.05.07.1.11.15l.05.07c.08.13.17.25.27.37Z"/>
        <path class="cls-1" d="m49.05,38.87s-.01.03-.02.05c-.19.49-.3.81-.25,1.03.36-.06.75-.03,1.17.13.38.14.77.3,1.13.5,1.25.13,2.51.32,3.62.8,1.71.72,3.36,1.63,4.99,2.53.56.33,1.13.64,1.7.94,1.34.73,2.67,1.48,3.93,2.33.68.45,1.25,1.07,1.81,1.68,1.49,1.6,2.84,3.37,4.48,4.82.87.76,1.49,1.53,2.02,2.53.83,1.57,1.73,3.13,2.83,4.5.71.86,1.07,1.69,1.19,2.75.06.61.33,1.2.59,1.76.95,2.05,2.57,3.88,1.83,6.42-.08.29.15.66.19.99.31,2.16.79,4.45-1.21,6.06-1.79,1.44-3.79,2.61-6.25,2.38-.3-.03-.61-.1-.88-.25-1.17-.63-2.33-1.29-3.49-1.95-2.02-1.17-3.08-2.99-3.6-5.2-.09-.37-.45-.67-.68-1-.41.29-1.03.51-1.2.9-1.25,2.88-2.66,5.64-5.09,7.76-.69.6-.78,1.85-.11,2.48.78.74,1.72,1.31,2.61,1.91.53.36,1.26.54,1.64,1.02,1.25,1.55,2.91,2.35,4.71,3.07,1.28.51,2.48.62,3.65.02,1.77-.9,3.49-1.85,4.57-3.67.41-.7,1.11-1.29,1.8-1.73,2.11-1.33,3.16-3.54,4.45-5.46,1.05-1.56,1.26-3.66,2.19-5.35,1.07-1.96.98-4.03,1.28-6.08.35-2.37.59-4.7-.59-6.94-.17-.32-.12-.75-.2-1.12-.44-1.98-.49-4.04-1.8-5.82-.82-1.1-1.39-2.47-1.73-3.81-.35-1.37-1.04-2.4-1.95-3.41-1.02-1.13-2.28-2.23-2.77-3.59-.63-1.74-1.98-2.52-3.22-3.53-.24-.2-.44-.43-.8-.79.22-.06.38-.11.52-.16-.43-.44-.82-.93-1.14-1.45l-7.13.65c-4.53.44-9.04.9-13.57,1.28-.17.01-.34.02-.5.02-.06,0-.12,0-.19,0h-.09c-.15,0-.3,0-.46,0Z"/>
        <path class="cls-1" d="m89.99,91.72c-.47-.52-.88-1.1-1.19-1.79-.13-.29-.22-.6-.22-.91-.01-.58,0-1.17,0-1.75-.02-.33-.02-.66,0-.98,0-.45-.01-.9,0-1.35.02-2.38,1.12-4.23,2.84-5.78.28-.26.37-.74.55-1.1-.47-.22-.98-.67-1.42-.63-3.23.3-6.43.39-9.58-.75-.89-.32-2.07.21-2.28,1.12-.27,1.06-.3,2.19-.39,3.28-.06.65.15,1.39-.08,1.97-.76,1.88-.63,3.77-.36,5.74.19,1.4.71,2.53,1.84,3.29,1.71,1.14,3.45,2.22,5.63,2.3.84.03,1.72.36,2.47.76,2.27,1.24,4.79,1.09,7.18,1.31,1.14.1,2.3-.15,3.47-.37-3.18.29-6.43-.94-8.44-4.35Z"/>
        <path class="cls-1" d="m111.82,81.75c-.09.2-.03.46-.06.69-.17,1.22-.1,2.47-.81,3.61-.44.71-.72,1.57-.86,2.39-.15.85-.51,1.51-1.01,2.16-.56.74-1.27,1.47-1.5,2.31-.3,1.09-1.08,1.62-1.78,2.3-.13.13-.24.28-.44.51.13.03.23.05.32.08-.24.28-.45.6-.62.93-4.21-.01-8.42-.15-12.63-.15-.26,0-.5.02-.74.05-.37-.77-.34-.85.63-1.03.91-.18,1.86-.34,2.66-.76,1.35-.71,2.6-1.6,3.88-2.44.77-.5,1.54-1.02,2.26-1.59.39-.31.71-.72,1.02-1.11.82-1.05,1.55-2.18,2.47-3.14.49-.5.83-1,1.1-1.63.42-.99.89-1.98,1.5-2.86.38-.56.56-1.07.57-1.72.01-.37.15-.75.28-1.1.47-1.28,1.36-2.48.79-3.98-.07-.17.05-.4.06-.61.06-.94.16-1.92-.25-2.73-.16-.33-.41-.63-.78-.88-.34-.23-.69-.45-1.06-.63-.83-.94-1.71-1.86-2.74-2.49-1.58-.98-3.27-1.8-4.95-2.61.24-.13.49-.26.74-.39.75-.37,1.47-.5,2.21-.2,1.11.46,2.21.95,2.95,2,.29.4.74.73,1.18.96,1.22.64,1.95,1.77,2.74,2.8.03.05.07.1.11.15l.05.07s.04.05.06.07c.08.1.15.2.21.3.2.3.35.63.5.97.27.63.51,1.3.88,1.86.74,1.12.79,2.38,1.07,3.61.33,1.42.59,2.82-.01,4.23Z"/>
      </g>
    </g>
  </g>
</svg>