<?xml version="1.0" encoding="UTF-8"?>
<svg id="Layer_2" data-name="Layer 2" xmlns="http://www.w3.org/2000/svg" viewBox="0 0 579.62 429.07">
  <defs>
    <style>
      .cls-1 {
        fill: #fff;
        stroke-width: 0px;
      }
    </style>
  </defs>
  <g id="Layer_1-2" data-name="Layer 1">
    <path class="cls-1" d="m578.38,25.77c-2.68-1.21-5.38-2.36-8.05-3.58-4.19-1.91-8.37-3.88-12.56-5.79-2.27-1.03-4.58-1.97-6.85-3.01-2.99-1.38-5.83-3.22-8.95-4.13-4.57-1.33-9.3-2.16-14.01-2.95-7.36-1.24-14.76-2.26-22.14-3.38-3.84-.58-7.67-1.42-11.53-1.7-6.88-.5-13.78-.65-20.68-.96-2.13-.09-4.27-.3-6.4-.28-5.3.06-10.61.02-15.89.42-6.35.48-12.68,1.36-19,2.12-1.45.18-2.88.59-4.31.94-5.69,1.39-11.41,2.7-17.06,4.25-2.8.77-5.48,1.98-8.21,3.01-3.31,1.25-6.74,2.28-9.9,3.84-4.63,2.28-9.5,4.12-13.43,7.78-2.3,2.14-5.4,3.4-7.85,5.4-6.57,5.36-13.04,10.85-18.19,17.68-1.3,1.73-2.28,3.74-3.75,5.3-2.79,2.97-4.8,6.4-6.66,9.96-.61,1.17-1.28,2.3-1.88,3.46-1.67,3.23-3.5,6.38-4.93,9.71-1.59,3.69-2.84,7.52-4.16,11.31-.68,1.93-1.24,3.91-1.77,5.88-.62,2.34-1.19,4.69-1.7,7.05-.62,2.87-1.26,5.74-1.71,8.64-.44,2.83-.61,5.7-.98,8.54-.26,1.97-1.86,2.91-3.78,2.79-4.73-.31-9.47-.49-14.21-.63-3.68-.11-7.37-.05-11.05-.18-2.6.37-5.24.44-7.87.23-1.71.33-3.45.53-5.19.59-.23.29-.65.5-1.31.62-4.24.75-8.46,1.65-12.71,2.26-6.41.92-12.7,2.2-18.74,4.63-4.9,1.97-10.08,3.33-14.81,5.63-6.58,3.21-12.94,6.92-19.22,10.7-2.54,1.53-4.6,3.84-6.9,5.76-3.32,2.77-6.87,5.31-9.94,8.34-2.6,2.56-4.85,5.53-6.92,8.54-3.79,5.51-7.43,11.14-10.94,16.83-1.83,2.97-3.4,6.12-4.82,9.31-1.29,2.88-2.3,5.9-3.28,8.9-1.88,5.8-3.74,11.61-5.43,17.47-.67,2.32-.76,4.8-1.29,7.17-.03.12-.07.22-.1.33.26,3.46-.42,7.01-1.94,10.12-.06,2.2-.48,4.4-1.25,6.46.15,1.18.15,2.44-.05,3.81-.6,4.02-.48,8.15-.68,12.3-5.11-.55-10.2-.28-15.05-2.53-1.93,1.3-3.01,1.19-5.5-.7-3.29,2.29-6.59,1.44-9.02.54-5.4.48-9.99.88-14.58,1.29-.57.7-1.29,1.11-2.08,1.33-2.28.62-4.58,1.21-6.89,1.73-1.19.27-2.43.35-3.64.54-1.38.23-2.97.05-3.38,2.05-.08.38-.96.66-1.51.86-.6.22-1.29.19-1.86.45-1.66.76-3.28,1.6-5.36,2.63-.31,1.1-3.13,3.01-4.21,2.77l-4.01,4.01c-.23.56-.41,1.79-.83,1.87-2.76.57-3.88,2.88-5.38,4.76-1.69,2.13-3.63,4.07-4.7,6.7-.4.99-1.96,1.54-2.31,2.53-.71,2.04-1.44,3.88-2.71,5.74-1.86,2.73-2.77,6.12-3.99,9.27-1.2,3.1-2.28,6.25-3.56,9.81-1.66-.71-3.31-1.39-4.94-2.12-3.15-1.39-6.32-2.71-9.41-4.22-2.83-1.38-5.53-3.03-8.35-4.43-1.15-.57-2.53-.68-3.69-1.23-3.62-1.7-7.16-3.57-10.81-5.19-.56-.25-2.16.34-2.26.78-.83,3.39-1.42,6.84-2.02,10.29-.04.24.31.66.59.84,1.51.95,4.88-.36,5.47-2.07.31-.9.72-1.76,1.06-2.58,1.11.92,1.8,1.78,2.7,2.19,5.24,2.43,10.54,4.74,15.81,7.11,2.18.98,4.52,1.74,6.47,3.07,2.92,1.98,6.05,2.62,9.43,2.48,1.14-.05,2.8-.02,3.3-.7,1.62-2.21,2.95-4.67,4.14-7.16.9-1.89,1.26-4.04,2.15-5.94,1.55-3.3,3.95-6.34,4.84-9.79,1.09-4.23,4.38-6.79,6.47-10.18,2.11-3.42,5.63-6.1,8.9-8.63,4.96-3.84,10.25-7.26,16.3-9.25,3.07-1.01,6.08-2.29,9.22-2.94,4.09-.84,8.27-1.42,12.43-1.67,5.54-.33,11.04-1.43,16.67.1,4.08,1.11,8.41,1.26,12.62,1.93,1.06.17,2.09.65,3.08,1.1,1.32.61,2.59,1.33,3.88,2,.58.3,1.19.54,1.74.88,2.45,1.52,4.73,3.54,7.38,4.45,2.15.74,3.67,1.97,5.26,3.32.39.33.82.62,1.26.85,4.48,2.38,8.99,4.73,13.46,7.13,1.92,1.03,3.76,2.18,5.67,3.21,1.87,1.01,3.77,1.96,5.66,2.93-.07.28-.14.56-.2.84-.96.03-1.95.24-2.86.06-3.45-.66-6.84-1.63-10.31-2.13-4.18-.61-8.44-1.35-12.62-1.13-4.69.25-9.46-1.28-14.12.81-1.66.74-3.81.47-5.74.51-5.76.14-11.23,1.55-16.41,3.98-3.35,1.57-6.58,3.42-9.77,5.29-1.58.93-3.05,2.11-4.42,3.34-2.9,2.6-5.87,5.14-8.49,8.01-2.19,2.41-4.38,5.03-5.74,7.94-2.45,5.25-5.75,10.2-6.28,16.26-.27,3.02,1.47,6.71,4.38,7.46,8.15,2.11,15.98,5.36,24.35,6.68,1.53.24,2.91,1.45,4.35,2.22,0,.24,0,.48-.01.72-2.64.21-3.71,3.27-6.6,3.14-.52-.02-1.09.67-1.61,1.07-.46.36-.81.94-1.32,1.13-1.8.69-3.8.98-5.45,1.92-2.51,1.43-4.6,3.49-7.63,4.14-1.58.34-2.91,1.72-4.42,2.52-1.22.65-3.08.8-3.69,1.77-1.15,1.81-2.92,1.51-4.39,2.18-1.56.71-3.01,1.65-4.55,2.41-.91.45-1.94.67-2.85,1.13-6.02,3.05-12.02,6.13-18.03,9.2-1.82.94-3.63,1.9-5.45,2.85-2.59,1.36-5.16,2.75-7.76,4.07-2.03,1.03-4.12,1.93-6.13,2.97-3.01,1.56-5.97,3.22-8.97,4.79-.63.33-1.43.34-2.06.68-5.36,2.85-10.67,5.79-16.05,8.59-5.48,2.85-11.05,5.55-16.56,8.35-3.59,1.83-7.14,3.74-10.73,5.57-.41.21-.94.19-1.69.33.03-1.44-.12-2.71.12-3.89,1.03-5.18,2.24-10.33,3.24-15.52.41-2.15.34-4.38.71-6.54.42-2.5,1.2-4.93,1.61-7.43.8-4.84,1.45-9.7,2.15-14.56.12-.86.07-1.76.27-2.6.6-2.48,1.4-4.91,1.9-7.41.45-2.28.49-4.65.93-6.94.41-2.15,1.23-4.22,1.64-6.37,1.24-6.53,2.4-13.08,3.54-19.63.49-2.82.66-5.71,1.36-8.48.67-2.7-.37-5.61,1.2-8.16.11-.18,2.23-9.42,2.08-9.49-1.17-.5-4.99,3.05-6.19,3.04-.56,0-.96,5.74-1.31,6.6-.45,1.13-.59,2.38-.85,3.58-.42,1.9-.95,3.8-1.21,5.72-.27,1.96-.08,3.99-.45,5.92-1.02,5.38-2.33,10.7-3.33,16.09-.75,4.03-1.12,8.12-1.79,12.17-.45,2.67-1.21,5.29-1.69,7.96-.31,1.73-.15,3.55-.57,5.24-1.47,5.97-2.77,11.93-3.3,18.1-.48,5.59-1.87,11.11-2.95,16.64-.93,4.74-2.05,9.45-2.97,14.19-.62,3.18-1.12,6.38-1.5,9.59-.25,2.12.43,2.53,2.36,1.58,4.85-2.4,9.68-4.84,14.52-7.27,5.41-2.72,10.84-5.42,16.24-8.17,1.89-.96,3.72-2.04,5.59-3.06,2.16-1.18,4.29-2.43,6.49-3.53,5.41-2.71,10.87-5.31,16.27-8.03,3.95-1.99,7.8-4.18,11.75-6.17,3.24-1.63,6.56-3.11,9.84-4.64,1.19-.55,2.43-1,3.59-1.61,3.94-2.07,7.84-4.21,11.77-6.29,4.18-2.21,8.4-4.36,12.58-6.59,1.81-.96,3.49-2.17,5.32-3.08,4.92-2.44,9.91-4.73,14.82-7.17,4.06-2.02,8.12-4.06,12.05-6.32,2.52-1.46,5.41-2,7.88-3.63,2.08-1.37,4.55-2.14,6.79-3.29.49-.25.95-.95,1-1.48.04-.36-.61-1.01-1.06-1.15-3.58-1.1-7.18-2.15-10.8-3.14-1.9-.52-3.89-.74-5.77-1.33-4.22-1.31-8.38-2.79-12.58-4.14-3.47-1.11-6.96-2.13-10.45-3.19-1.46-.44-2.11-1.39-1.62-2.85.67-2.01,1.61-3.95,2.17-5.99,1.31-4.76,4.43-8.5,7.25-12.28,2.5-3.35,5.61-6.37,8.9-8.96,4.62-3.64,9.57-6.83,15.54-8.09,4.29-.91,8.46-2.37,12.74-3.28,2.75-.59,5.61-.8,8.42-.88,3.23-.09,6.47.04,9.69.28,5.18.39,10.39.66,15.51,1.49,6.86,1.12,13.64,2.71,20.44,4.17,1.79.38,3.77.63,5.27,1.54,2.21.54,4.38,1.28,6.48,2.22.15-2.67.57-5.32,1.28-7.9.01-.24.03-.47.07-.72.26-1.67.61-3.36.57-5.03-.14-5.95.16-11.85,1.5-17.67.1-.42.05-.88.09-1.32.35-3.3.54-6.62,1.12-9.88.83-4.71,1.89-9.38,2.95-14.05,1.36-6.01,2.44-12.12,4.34-17.97,2.27-6.97,5.21-13.73,7.99-20.52.85-2.08,2.1-3.99,3.21-5.96,1.83-3.26,3.4-6.71,5.59-9.71,3.89-5.32,8.07-10.44,12.3-15.48,2.55-3.04,5.2-6.1,8.26-8.59,3.81-3.09,8.16-5.51,12.17-8.36,6.17-4.4,12.98-7.43,20.05-10.03,1.04-.38,1.93-.51,2.75-.33,3.51-1.94,7.25-3.2,11.08-3.81.99-.45,2.02-.83,3.07-1.01,5.43-.95,10.87-1.91,16.34-2.59,3.57-.44,7.2-.52,10.8-.59,6.76-.12,13.54-.48,20.27-.06,7.39.46,14.73,1.69,22.08,2.6,1.62.2,2.19-.61,2.84-2.04,1.24-2.75.58-5.71,1.71-8.58,2.22-5.69,3.5-11.75,5.15-17.67.45-1.63.66-3.35,1.27-4.91,2.03-5.19,4.03-10.41,6.36-15.48,2.3-4.99,4.87-9.86,7.55-14.65,1.88-3.37,4.12-6.55,6.23-9.78,1.84-2.82,3.52-5.79,5.67-8.35,3.73-4.45,7.56-8.86,11.76-12.86,3.44-3.28,7.42-6.02,11.27-8.85,1.74-1.28,3.94-1.97,5.59-3.34,5.27-4.36,11.72-6.33,17.82-8.96,5.45-2.35,11-4.43,17.02-5.16,6.18-.75,12.25-2.44,18.44-3.02,10.58-.99,21.2-.57,31.76.59,5.25.57,10.43,1.75,15.63,2.71,3.4.63,6.79,1.29,10.16,2.05,2.13.48,4.21,1.16,6.31,1.75.06-.19.12-.38.18-.57-.41-.28-.8-.62-1.24-.82Zm-211.92,109.93c-2.97-.09-5.94-.3-8.9-.23-5.36.13-10.74.26-16.07.73-3.9.34-7.77,1.19-11.64,1.89-1.53.27-3.04.69-4.54,1.12-2.44.7-4.86,1.47-7.29,2.22-.21.06-.41.32-.58.29-3.91-.63-6.71,2.71-10.46,2.91-1.55.08-3.07,1.25-4.55,2.03-2.4,1.27-4.76,2.63-7.14,3.95-1.52.85-3.08,1.65-4.55,2.57-2.98,1.88-6.02,3.69-8.86,5.78-3.14,2.3-6.09,4.84-9.09,7.32-1.02.84-1.99,1.77-2.88,2.75-2.51,2.76-4.77,5.78-7.48,8.32-3.58,3.35-6.44,7.19-8.96,11.34-1.83,3.02-3.67,6.03-5.44,9.08-1.35,2.34-2.73,4.69-3.86,7.14-1.76,3.84-3.4,7.74-4.92,11.68-1.32,3.42-2.54,6.89-3.57,10.4-1.24,4.22-2.31,8.49-3.3,12.77-.99,4.29-1.72,8.64-2.69,12.93-2.77,12.31-3.14,24.85-3.68,37.38-.04.86-.28,1.72-.55,3.3-2.57-1.5-4.8-2.82-7.05-4.09-2.71-1.53-5.45-2.99-8.15-4.53-1.39-.8-2.74-1.67-4.08-2.56-2.25-1.49-4.43-3.09-6.71-4.51-1.66-1.03-3.44-1.86-5.17-2.77-.26-.14-.59-.18-.8-.36-2.51-2.15-6.21-2.56-8.09-5.65-.21-.35-.9-.51-1.39-.58-2.83-.43-4.77-3.14-7.92-2.95-.67.04-1.31-1.92-2.17-2.14-4.31-1.1-4.29-4.35-4.19-7.73,0-.07.02-.15,0-.22-.89-6.76,1.2-13.3,1.5-19.98.14-3.05.44-6.12.96-9.13.55-3.23,1.41-6.41,2.18-9.61.53-2.22,1.07-4.44,1.7-6.63.56-1.94,1.24-3.86,1.91-5.77,1.84-5.28,3.5-10.63,5.63-15.79,1.27-3.08,3.16-5.93,4.99-8.74,2.66-4.07,5.37-8.13,8.34-11.98,2.4-3.12,5.47-5.75,7.76-8.94,1.67-2.32,3.86-3.69,6.08-5.22,1.83-1.26,3.39-2.93,5.17-4.27,2.92-2.19,5.86-4.36,8.91-6.34,2.51-1.63,5.11-3.16,7.82-4.43,3.42-1.6,7.14-2.61,10.46-4.38,5.27-2.82,11-3.93,16.68-5.34,4.31-1.07,8.56-2.42,12.9-3.33,2.56-.54,5.25-.4,7.87-.72,2.25-.28,4.45-.93,6.7-1.13,2.4-.21,4.84-.02,7.26-.11,5.5-.2,11-.43,16.5-.71,6.56-.33,13,.24,19.34,2.07,3.07.88,6.36.8,9.25,2.58,1.22.75,3,.55,4.48.97,1.88.53,3.68,1.32,5.56,1.88,1.96.59,3.97,1.02,5.94,1.57,1.05.3,2.06.77,3.11,1.08,1.73.5,3.49.92,5.23,1.4.88.24,1.74.54,2.62.82-.04.2-.08.39-.13.59ZM531.66,13.73c-.35.2-.7.57-1.05.57-4.15.03-8.3-.13-12.44.04-4.91.2-9.82.55-14.7,1.08-1.25.14-2.41,1.19-4.07,2.07-2.2-1.36-4.86-.05-7.56.96-1.09.41-2.24.67-3.36,1.03-4.03,1.32-8.14,2.45-12.07,4.03-4.18,1.69-8.24,3.72-12.26,5.8-2.3,1.19-4.43,2.74-6.58,4.21-2.82,1.94-5.66,3.86-8.35,5.97-2.64,2.07-5.24,4.23-7.6,6.62-2.5,2.53-5.36,4.66-7.29,7.86-1.52,2.52-4.17,4.34-6.08,6.66-2.03,2.45-3.8,5.11-5.66,7.7-1.41,1.96-2.92,3.88-4.1,5.97-2.45,4.33-4.82,8.71-7.03,13.17-2.5,5.05-5,10.12-7.12,15.34-1.98,4.88-3.72,9.85-4.78,15.07-.94,4.64-2.55,9.14-3.83,13.72-.46,1.66-.8,3.36-1.25,5.03-.1.37-.43.69-.93,1.47-.42-1.18-.69-1.96-.82-2.3-1.48-.33-2.69-.57-3.89-.86-2.54-.63-5.09-1.19-7.6-1.94-6.36-1.89-12.68-3.9-19.05-5.77-3.66-1.08-7.6-1.49-10.99-3.1-3.13-1.49-6.32-1.93-9.56-2.61-2.68-.57-5.3-1.47-7.94-2.24-2.13-.63-3.11-1.75-2.62-4.25.71-3.59.78-7.31,1.48-10.9.71-3.63,1.82-7.19,2.82-10.76,1.22-4.37,2.42-8.75,3.81-13.07.55-1.69,1.7-3.17,2.39-4.82.49-1.18.66-2.49.97-3.75.07-.28.03-.61.17-.84,1.74-2.8,3.55-5.54,5.24-8.37,1.89-3.16,3.64-6.42,5.56-9.56.35-.57,1.22-.83,2.04-1.35.18-.53.26-1.49.77-2.09,2.17-2.58,4.38-5.14,6.76-7.53,2.68-2.68,5.57-5.16,8.36-7.73,3.51-3.24,7.4-5.89,11.7-8.02,6.67-3.31,13.2-6.9,19.86-10.22,1.74-.87,3.77-1.15,5.66-1.75,3.61-1.15,7.2-2.39,10.83-3.47,1.82-.54,3.71-.85,5.58-1.16,6.73-1.11,13.44-2.37,20.21-3.19,4.71-.57,9.5-.5,14.25-.74,1.1-.05,2.2-.25,3.3-.25,5.33,0,10.68-.24,15.98.11,8.98.61,17.94,1.53,26.89,2.48,2.91.31,5.76,1.12,8.65,1.64,4.92.88,9.86,1.7,14.78,2.55.58.1,1.22.1,1.72.36.36.19.53.74.78,1.13Z"/>
  </g>
</svg>