<?xml version="1.0" encoding="UTF-8"?>
<svg id="Layer_2" data-name="Layer 2" xmlns="http://www.w3.org/2000/svg" viewBox="0 0 139.08 121.21">
  <defs>
    <style>
      .cls-1 {
        fill: #fff;
        stroke-width: 0px;
      }
    </style>
  </defs>
  <g id="Layer_1-2" data-name="Layer 1">
    <path class="cls-1" d="m138.74,113.32c-1.23-1.74-2.46-3.48-3.68-5.23-.79-1.14-1.58-2.27-2.35-3.43-2.18-3.27-4.33-6.56-6.54-9.81-.87-1.27-1.87-2.45-2.79-3.69-.49-.67-1.03-.62-1.57-.15-2.24,1.93-4.46,3.89-6.7,5.83-2.78,2.42-5.56,4.82-8.33,7.25-1.41,1.24-2.76,2.56-4.2,3.76-1.98,1.64-4.02,3.21-6.03,4.81-1.32,1.06-2.64,2.13-3.95,3.2-1.96,1.61-3.91,3.26-5.89,4.84-.26.21-.72.25-1.09.25-5.75.03-11.51.04-17.26.03-.4,0-.87-.12-1.18-.36-3.08-2.34-6.14-4.72-9.2-7.08-.76-.59-1.54-1.14-2.27-1.76-.24-.2-.5-.55-.5-.83-.04-3.11-.02-6.22.19-9.39.59,1.63,1.48,3.22,1.69,4.89.4,3.22,2.5,4.81,5,6.28,2.85,1.69,5.63,3.5,8.38,5.33,1.24.82,2.36.32,3.53,0,2.55-.71,5.1-1.4,7.65-2.13,1.29-.37,2.56-.8,3.84-1.21.18-.06.36-.17.55-.19,2.88-.21,4.56-2.33,6.47-4.07,2.21-2.02,4.43-4.05,6.54-6.18,1.38-1.39,2.55-2.98,3.86-4.44,1.16-1.31,2.43-2.52,3.53-3.88.94-1.16,1.75-2.43,2.55-3.69,1.46-2.32,2.95-4.62,4.25-7.02.84-1.54,1.48-3.22,2-4.9.19-.62.02-1.58-.36-2.13-1.73-2.51-3.58-4.93-5.4-7.38-2.2-2.97-4.39-5.96-6.65-8.88-.26-.33-1.05-.5-1.5-.38-3.35.88-6.68,1.83-10.02,2.79-2.44.7-4.88,1.43-7.31,2.15-.14.04-.27.12-.45.21.05.39.09.76.14,1.21-2.87.16-5.7.32-8.52.48l-.03.3c.6.37,1.21.75,1.81,1.12-.35.55-.69,1.1-1.07,1.7.13.05.53.2,1.15.44-3.43.78-6.91.8-9.67,3.45.55.28.98.49,1.45.73-1.77,1.3-4.31.76-6.11,2.59.51.09.78.17,1.06.19,4.54.28,9.01-.29,13.46-1.09,3.5-.63,6.97-1.44,10.49-1.88,3.55-.44,7.14-.61,10.72-.73,2.07-.07,4.01.6,5.74,1.82.44.31.94.54,1.42.8-.15.22-.31.44-.46.65-.65-.11-1.29-.2-1.94-.33-.57-.11-1.12-.33-1.69-.38-.94-.08-1.9-.17-2,1.25-.03.49-.76,1.22-.62,1.39.8.95.34,2.8,2.14,3.02.2.02.38.23.61.38-1.62,2.7-3.06,5.46-5.94,6.7-.51-.13-1.11-.5-1.51-.35-.75.3-.96.98-.65,1.84.11.3-.22.82-.48,1.15-.06.08-.62-.2-.93-.35-.54-.25-1.1-1.45-1.52.13-.72-.41-1.39-.79-2.11-1.2-.4.47-.81.88-1.12,1.35-.5.74.32.84.62,1.21.52.66,1.01,1.35,1.4,2.09.1.18-.14.74-.36.85-.24.12-.73.04-.96-.14-1.81-1.41-3.6-2.87-5.37-4.33-.25-.2-.4-.53-.79-1.07,1.34,0,2.39-.01,3.44,0,.52,0,1.01.09,1.06-.69.01-.23.31-.56.55-.65,1.56-.6,2.42-1.59,2.02-3.36-.04-.19.08-.43.12-.61.14-.04.21-.07.29-.07.55.02,1.12.82,1.63-.03.39-.65-.03-2.26-.73-2.57-1.99-.87-3.96-1.9-6.05-2.43-1.16-.3-2.63.03-3.77.52-.72.31-1.08,1.44-1.6,2.21-1.83,2.69-4.27,4.65-7.39,5.55-2.44.7-4.72,0-6.73-1.53-.07-.06-.07-.21-.18-.53,1.34-.1,2.61-.22,3.88-.29.5-.03,1.01.09,1.5.01.81-.14,1.02-.8.55-1.44-.29-.4-.47-.9-.82-1.24-.53-.5-1.1-1.01-1.75-1.31-.89-.41-1.65-.28-1.51,1.07-.49-.08-.85-.16-1.23-.21-1.3-.16-1.72.15-1.94,1.47-.13.76-.55.7-.95.31-.65-.64-1.31-1.32-1.82-2.07-1.23-1.82-2.67-1.88-3.89,0-1.17-.55-1.85.25-2.61.99-1.29,1.26-2.56,2.59-4.02,3.61-.57.4-1.66.07-2.63-.15,1.81-2.63,4.61-4.22,6.78-6.78-2.42-.05-4.42.42-6.17,1.45-1.67.97-3.19,2.22-4.66,3.48-2.96,2.55-6.24,4.06-10.23,3.62-.14-.02-.28-.09-.68-.23.48-.65.83-1.27,1.32-1.77,2.42-2.52,4.73-5.18,7.36-7.46,2.63-2.29,5.68-4.06,8.92-5.42,1.45-.61,2.92-1.21,4.33-1.9,2.37-1.16,4.9-1.5,7.49-1.67,1.19-.08,2.38-.26,3.55-.5.88-.19,2.03-.29,1.35-1.85,2.61-.24,5.12-.12,7.66-1.36-.94-.23-1.63-.41-2.32-.58l.04-.47c1.11-.17,2.22-.34,3.45-.54-.19-.42-.34-.74-.55-1.19,2.84-.22,5.74.13,8.61-1.48-1.22-.32-2.21-.58-3.2-.84,0-.11-.02-.22-.03-.33,1.29-.14,2.58-.29,3.88-.43.02-.11.05-.23.07-.34-.35-.27-.7-.55-1.18-.92,2.84-.34,5.67.53,8.58-.44-.43-.34-.7-.56-.97-.78.01-.08.02-.17.04-.25,1.12,0,2.24-.04,3.36,0,1.81.08,3.62.24,5.43.33.9.05,1.19-.46.67-1.26-.84-1.29-1.77-2.52-2.66-3.78-1.75-2.48-3.49-4.96-5.23-7.43-1.33-1.89-2.67-3.78-4-5.67-.92-1.31-1.86-2.61-2.78-3.91-.71-1-1.42-2.01-2.13-3.01-1.71-2.41-3.39-4.84-5.12-7.24-2-2.78-4.04-5.53-6.07-8.29-.11-.15-.28-.24-.51-.43-2.44,2.7-4.96,5.27-7.23,8.05-3.08,3.77-6.05,7.65-8.93,11.58-1.86,2.54-3.48,5.25-5.18,7.9-1.25,1.94-2.54,3.86-3.7,5.86-1.04,1.79-1.95,3.66-2.9,5.5-1.31,2.53-2.65,5.05-3.88,7.62-1.03,2.15-1.96,4.35-2.85,6.56-.87,2.17-1.71,4.36-2.44,6.58-1.16,3.5-2.23,7.04-3.31,10.57-.73,2.41-1.5,4.82-2.09,7.27-1.71,7.09-2.65,14.26-1.76,21.56.09.73.24,1.45.36,2.17.2,1.19,0,1.44-1.19,1.44-1.85,0-3.71-.02-5.56-.02-6.41,0-12.82,0-19.24,0-.55,0-1.11-.08-1.88-.14.87-1.5,1.6-2.78,2.35-4.06,1.24-2.12,2.47-4.24,3.71-6.36.06-.1.12-.2.18-.3,1.91-3.15,3.84-6.29,5.72-9.45,1.17-1.97,2.24-4.01,3.42-5.98,1.83-3.06,3.74-6.09,5.58-9.14.91-1.51,1.77-3.06,2.66-4.58,1.13-1.92,2.28-3.82,3.4-5.74,1.2-2.06,2.37-4.14,3.58-6.2,1.65-2.82,3.31-5.63,4.98-8.44,1.9-3.2,3.83-6.39,5.73-9.6,2.55-4.29,5.1-8.59,7.62-12.9,1.81-3.11,3.53-6.27,5.38-9.35,2.17-3.59,4.47-7.09,6.65-10.66,1.27-2.09,2.42-4.26,3.63-6.38.38-.66.82-1.29,1.23-1.94,1.3-2.09,2.61-4.18,3.88-6.29.66-1.11,1.25-2.26,2.03-3.69,22.89,37.67,45.12,75.38,67.34,113.1-.11.07-.22.15-.33.22Z"/>
  </g>
</svg>