<?xml version="1.0" encoding="UTF-8"?>
<svg id="Layer_2" data-name="Layer 2" xmlns="http://www.w3.org/2000/svg" viewBox="0 0 368.64 229.67">
  <defs>
    <style>
      .cls-1 {
        fill: #fff;
        stroke-width: 0px;
      }
    </style>
  </defs>
  <g id="Layer_1-2" data-name="Layer 1">
    <path class="cls-1" d="m368.64,6.81l-.81-.44c0-1.25-.1-2.27.02-3.25.28-2.36-.64-3.28-3.05-3.1-2.51.18-5.07.23-7.58.02-1.77-.15-3.05.08-3.7.96-.13.43-.29.85-.45,1.26-.06.47-.06,1.01.04,1.67.13.82-.18,1.71-.27,2.46h-2.22c-1.11,1.33-2.48,2.45-4.09,3.3.05.86.09,1.67-.14,2.39-.24.77-1.23,1.75-1.98,1.84-4.84.58-4.85.51-5.29,5.48-.02.29-.17.56-.32,1.05-3.05.22-6.15.75-9.22.59-3.18-.17-4.21,1.01-3.79,3.99.11.77-.08,1.59-.17,2.92-4.67,0-9.28-.02-13.89,0-8.55.05-7.15-1.25-7.23,7.06-.07,7.64,1.61,7.42-7.19,6.89-.1,0-.2-.01-.3-.02q-5.93-.32-6.47,5.44c-.03.28-.18.56-.36,1.08-3.26,0-6.57.12-9.86-.04-2.41-.12-3.13.8-3.1,3.15.04,3.1-.42,6.21-.53,9.32-.07,2.02-1.45,1.93-2.75,1.87-1.29-.06-3.03.55-3.16-1.74-.18-3.11-.59-6.22-.56-9.32.02-2.31-.59-3.21-3.06-3.14-4.95.14-9.9-.06-14.86-.09-.61,0-1.14-.03-1.58-.2-.23,0-.45-.04-.67-.07-.25.26-.52.5-.83.71.14.79.14,1.62-.01,2.41.16.62.18,1.41.02,2.39-.31,1.91.85,2.33,2.56,2.37,4.31.1,4.31.16,4.31,4.49,0,1.01,0,2.02,0,3.03,0,5.01,0,5.1-5,5.62-2,.21-1.9,1.47-1.87,2.77.14,5.14-.43,4.34-4.55,4.38-2.44.02-4.88,0-7.48,0-.44.1-.91.16-1.42.16-.88,0-1.65-.17-2.31-.46-1.94.37-4.17.41-5.1,1.52-1.04,1.25-.47,3.82-.61,5.8-.44.15-.72.3-1,.32-4.32.26-4.39.25-4.69,4.46-.12,1.7-.87,2.34-2.47,2.28-1.01-.04-2.03.08-3.03,0-1.88-.17-2.4.7-2.43,2.49-.08,4.3-.16,4.3-4.51,4.27-1.92-.01-3.85.09-5.76-.1-2.47-.24-3.36.84-3,3.13.48,3.03-.89,3.84-3.73,3.62-2.99-.23-6.02-.05-9.2-.05-.13-1.06-.29-1.83-.31-2.61-.12-4.17-.11-4.18-4.42-4.16-2.63.01-5.26.13-7.88.09-1.59-.02-2.35.42-2.44,2.2-.25,4.81-.33,4.94,4.58,5.17,2.73.13,2.02,1.94,2.08,3.41.07,1.6.36,3.33-2.26,3.24-3.72-.12-7.44-.03-11.43-.03-.15,2.25-.29,4.21-.41,6.02-.22.22-.3.36-.36.35-5.81-.96-6.63,2.59-6.56,7.09,0,.15-1.43.46-2.2.47-2.83.04-5.67.12-8.49-.06-2.32-.15-3.11.77-2.87,2.98.12,1.08.02,2.18.02,3.74-5.32-1.01-8.01.76-6.48,6.75h-26.95c-.35-2.4-.2-4.68-1.13-6.36-.42-.75-3.06-.62-4.58-.34-4.39.82-.75,4.68-2.95,7.05-.41.03-1.47.14-2.53.15-4.05.06-4.05.05-4.05,4.24,0,4.44-.07,8.89.02,13.33.04,1.96-.43,2.96-2.68,2.96-1.33,0-2.13-.25-2.57-.94-.79.59-1.77.98-2.92,1.13-.17.13-.36.24-.55.35.2.04.4.08.62.13v5.84c-.62.1-1.01.21-1.4.21-4.36.02-4.36-.73-4.36,4.51,0,3.09,0,6.17,0,9.34-6.27,0-12.02.05-17.77-.03-2.02-.03-3.02.59-2.85,2.76.1,1.26-.09,2.54-.15,3.82-2.83.25-5.33.45-7.83.68q-5.62.51-6.11,5.98c-.02.18-.18.34-.48.87-3.11,0-6.42.1-9.73-.03-2.13-.09-3.09.44-3.06,2.83.06,4.66-.36,4.92-5.05,4.45-.69-.07-1.35-.36-2.03-.52-5.19-1.23-6.64-.26-6.79,4.89-.06,1.92-.83,2.41-2.56,2.37-5.15-.11-10.31-.02-15.46-.22-3.2-.12-2.56,2-2.65,3.85-.08,1.87-.01,3.26,2.61,3.24,3.48-.03,6.96.46,10.75.74,0,1.32.11,2.42-.02,3.49-.3,2.44.75,3.22,3.1,3.07,2.62-.17,5.27.1,7.88-.1,2.57-.19,3.34.83,3.3,3.3-.02,1.14-.16,2.04-.61,2.64.18.36.32.73.44,1.12,5.76-.24,11.52-.46,17.29-.56,2.91-.05,4.11-.89,3.74-3.8-.28-2.25.88-3.06,3.04-2.97,2.42.1,4.86-.13,7.28.06,2.74.21,3.71-.72,3.7-3.57-.01-3.04-1.43-3.58-3.96-3.43-4.22.26-8.46.45-12.69.55-4.06.1-4.15.03-4.33,4.06-.09,1.95-.88,2.73-2.78,2.67-2.73-.08-5.46-.11-8.19-.09-1.97.02-2.57-1-2.68-2.83-.15-2.6.5-4.18,3.49-3.72,2.65.41,3.73-.71,3.4-3.39-.13-1.04.11-2.12.2-3.47h12.4c.8-2.59-1.84-5.88,1.96-7.05,1.57-.48,4.08-.39,5.11.57,1.02.94.7,3.31.97,5.06.48-.82.65-1.63.54-2.39-.45-2.94.97-3.66,3.62-3.45,2.41.19,4.85.02,7.27.12,1.78.08,2.62-.55,2.51-2.43-.08-1.36.11-2.73.18-4.08,3.59-.26,6.81-.78,10-.65,3.1.12,4.29-.92,3.88-3.96-.25-1.8.35-2.82,2.47-2.82.89,0,1.48.18,1.87.52.7-.25,1.48-.4,2.36-.4.43,0,.84.04,1.23.11.47-.18,1.08-.25,1.86-.23,4.48.16,4.16,0,4.02-4.16-.07-1.94.57-2.76,2.58-2.65,2.52.14,5.06-.06,7.57.13,2.48.19,3.58-.65,3.25-3.21-.13-.98-.02-1.99-.02-3.59h20.22v5.51c-.28.16-.45.32-.62.34-1.78.2-4.05-.22-5.19.73-.92.77-.27,3.22-.7,4.83-.2.75-1.27,1.75-2,1.8-2.81.19-5.66.2-8.47,0-2.6-.19-3.66.58-3.46,3.34.23,3.19.05,6.41.05,9.84-3.8.25-7.28.59-10.77.68-1.91.05-2.68.66-2.71,2.64-.05,2.9-.28,5.82-.72,8.69-.11.75-1.16,1.68-1.96,1.92-1.11.33-2.39.08-4.11.08v-.35c-.56.15-1.13.24-1.7.27,0,2.36,0,4.72,0,6.88-1.96.6-4.38.63-5.01,1.7-.81,1.4-.2,3.63-.2,6.39,5.36-.2,10.29-.34,15.21-.59,1.76-.09,4.3.18,5.06-.81.96-1.25.47-3.62.62-5.59,2.13-.25,4.76.2,5.86-.89,1.1-1.09.66-3.73.91-5.84h6.96c-.26,3.76-.5,7.24-.75,10.72-.14,1.95.51,2.99,2.71,3.01,4.16.03,8.31.11,12.47.19-.03-.22-.05-.44-.06-.67,0-.1,0-.2,0-.3h-.14v-13.65c1.15-.05,2.06-.23,2.94-.11,2.8.38,3.63-.76,3.58-3.53-.06-3.37.47-6.76.75-10.22.71-.08,1.3-.22,1.89-.2,5.34.18,10.69.35,16.03.6,1.81.08,2.59-.57,2.49-2.43-.08-1.35.11-2.72.18-4.01,3.4-.3,6.42-.9,9.4-.74,3.19.17,4.23-.98,3.76-3.95-.36-2.28.65-3.08,2.9-2.91,2.21.17,4.45.09,6.67.09,4.99,0,4.33.13,4.4-4.13.01-.77.18-1.54.27-2.26h5.83c1.27,2.47-1.69,7.18,4.03,6.37,1.45-.21,3.78,1.03,3.78-1.97,0-1.61.45-4.18-.31-4.63-1.64-.99-3.93-.89-6.35-1.3,0-2.34,0-4.74,0-7.14q-.01-5.35,5.35-5.6,7.57-.35,8.2-6.42c.02-.17.2-.33.31-.49,1.8-2.21,6.41,2.59,7.04-3.08.68-6.17-4.27-3.22-6.66-4.45v-6.15c2.78,0,5.29,0,7.81,0,6.27.02,6.16.02,6.05-6.36-.15-8.54-.16-17.07-.08-25.61,0-.86.92-2.35,1.6-2.47,2.56-.44,5.21-.42,7.82-.59.6-.04,1.07.03,1.43.21.77-.71,1.63-1.32,2.58-1.85,0-.57,0-1.14-.01-1.72-.04-2.72.88-3.61,3.5-3.4,2.11.17,4.26-.17,6.36.03,2.94.27,4.41-.59,3.96-3.81-.12-.88.1-2.26.69-2.71,2.12-1.6,5.91.25,6.52,2.93.16-2.52.26-5.05.13-7.56-.12-2.3.9-3.2,3.05-2.92,3,.39,4.04-.97,3.66-3.81-.3-2.2.88-2.7,2.87-2.73,4.02-.06,8.05-.31,12.07-.59,5.09-.34,5.09-.39,5.76-5.44.02-.17.23-.32.35-.47.19-.06.37-.17.57-.19,1.8-.14,4.14.36,5.25-.59,1.03-.87.61-3.32,1.09-5.01.19-.67,1.01-1.54,1.64-1.63,2.79-.36,5.62-.72,8.42-.61,2.84.12,4.21-.66,3.76-3.68-.25-1.7.35-2.58,2.3-2.58,2.91,0,5.83-.41,8.74-.44,1.91-.02,2.61-.9,2.35-2.6-.52-3.39.9-4.62,4.18-4.08,2.43.4,3.39-.79,3.1-3.1-.35-2.73.67-4,3.52-3.6,2.97.42,4.01-1.04,3.72-3.87-.11-1.05.1-2.13.19-3.45,1.72,0,3.16.19,4.5-.08.75-.15,1.99-1.16,1.92-1.63-.66-4.48,1.8-5.33,5.45-5.03.24.02.5-.28.97-.57v-6.08c1.75,0,3.25-.06,4.74.02,1.69.09,2.25-.63,2.33-2.31.2-4.63.27-4.69,4.79-4.9,1.61-.08,2.32-.54,2.41-2.28.21-4.26.29-4.25,4.62-4.49.49-.03.97-.15,1.58-.24.11-.76.25-1.44.29-2.12.16-2.83.21-3.7,1.56-3.98-.06-.52-.05-1.05.02-1.57ZM23.98,214.6c-2.12.33-3.07-.42-3.1-2.77-.02-2.47,1.01-3.08,3.26-3.11,2.41-.03,3.11.94,3.12,3.24.01,2.51-1.27,2.88-3.28,2.63Zm69.64-41.07c-2.4.02-3.1-.96-3.15-3.24-.06-2.61,1.06-3.21,3.44-3.21,2.41,0,3.4.81,2.95,3.19.52,2.68-.87,3.24-3.24,3.26Zm9.87-15.06c-1.25,1.15-3.66,1.03-5.58,1.45-.3-.29-.6-.59-.9-.88.33-1.95.11-4.36,1.2-5.68.69-.84,3.98-.71,4.95.21.94.89,1.15,4.16.33,4.91Zm17.75,49.37c-2.5.43-3.4-.51-3.44-2.93-.05-2.61,1.01-3.21,3.43-3.25,2.52-.04,3.07.96,3.05,3.24-.02,2.34-.65,3.56-3.04,2.95Zm12.26-27.15c-.48-.05-.88-.8-1.31-1.23.65-.22,1.37-.73,1.94-.6,1.26.29,2.45.91,3.68,1.4.02.16.04.32.06.48-1.46,0-2.93.1-4.37-.06Zm11.35-14.65c-3.81.26-7.57.63-11.34.72-2.56.07-1.58-2.1-1.65-3.38-.07-1.25-.62-3.05,1.72-3.05,3.62,0,7.24,0,11.26,0v5.71Zm13.57-5.84c-1.94-.42-4.48-.27-5.61-1.46-.88-.92-.64-4.05.31-5.21.74-.9,4.32-1,4.9-.19,1.1,1.51.94,3.93,1.3,5.97-.3.3-.6.59-.9.89Zm21.22-43.15c-1.45,1.08-3.68,1.11-5.59,1.58-.29-.3-.58-.59-.88-.89.51-1.88.56-4.17,1.72-5.48.66-.75,3.61-.46,4.63.42.8.68.84,3.83.11,4.38Zm17.66,14.69c-2.79.12-3-1.48-3.08-3.66-.1-3.03,1.84-2.68,3.82-2.81,2.89-.18,2.73,1.65,2.6,3.62.42,2.68-1.31,2.76-3.35,2.85Zm13.9-6.84c-2.24-.02-3.05-.81-3.02-3.02.03-2.09.31-3.5,2.93-3.45,2.31.04,3.51.75,3.09,3.09.36,2.45-.57,3.39-3,3.38Zm76.09-55.6c-2.17.03-3.14-.71-3.03-2.99.14-2.92.03-5.85.03-8.46q.21,4.41,6.43,5.33c0,1.14-.06,2.14.01,3.14.17,2.55-1.32,2.96-3.44,2.98Z"/>
  </g>
</svg>