<?xml version="1.0" encoding="UTF-8"?>
<svg id="Layer_2" data-name="Layer 2" xmlns="http://www.w3.org/2000/svg" viewBox="0 0 73.32 280.74">
  <defs>
    <style>
      .cls-1, .cls-2 {
        stroke-width: 0px;
      }

      .cls-2 {
        fill: #fff;
      }
    </style>
  </defs>
  <g id="Layer_1-2" data-name="Layer 1">
    <g>
      <rect class="cls-2" x="0" y="0" width="73.32" height="280.74" transform="translate(73.32 280.74) rotate(180)"/>
      <g>
        <path class="cls-1" d="m70.85,249.3c-2.29-.3-7.73-2.19-9.4-.11-.9,1.12-1.06,9.2-.18,10.34,1.44,1.87,3.57.21,4.86,2.48,1.08,1.9.09,7.76.05,9.98-.07,4.87-1.16,4.62-5.98,4.6-4.49-.01-8.99-.02-13.48-.02-4.08,0-8.17,0-12.25.02-3.28,0-10.09,1.37-13-.06-2.28-1.12-.77-3.44-2.87-4.65-3.11-1.78-3.31.99-4.28,2.35-.85,1.19-.04,1.45-1.65,2.32-.5.27-4.42.42-5.14.05-2.9-1.5-1.84-4.7-1.83-8.1,0-1.39-.72-5.15.06-6.39.83-1.31,1.82-.83,2.48-1.7,1.05-1.39.37-3.91,1.47-5,1.49-1.47,3.54-.37,4.52.99.73,1.01-.25,2.65.72,3.62.88.88,3.46.36,4.49.42-.02,1.61-.65,4.26.72,5.47,1.17,1.02,2.86-.42,4.1,1.17,1.1,1.41.85,8.42,5.15,4.48,1.37-1.25-.09-3.68,1.18-4.94,1.06-1.06,2.71.17,3.65-.68,4.72-4.25-1.99-5.49-4.66-5.43.01-2.17.71-6.33-2.8-5.6-2.59.54-1.8,3.51-1.79,5.6-1.87,0-3.74,0-5.6-.01,0-3.6,1.55-9.9-2.25-11.19-1.71-.58-4.29.77-5.93,0-2.14-1.01-1.11-1.25-1.96-3.17-1.72-3.9-3.5-2.89-3.55-8.35-.07-7.04,2.48-5.73,9.09-6.04,1.51-.07,3.85.41,4.83-1.01.8-1.16-.4-2.98.65-4.09.98-1.04,2.77-.05,3.65-.89,1.27-1.2-.08-3.36.86-4.58,1.51-1.96,8.85-.72,11.23-.66,6.2.15,4.24,4.96,4.25,10.14,0,3.91-.94,5.5,2.43,6.58,3.37,1.08,10.79-2.12,12.83,1.46.71,1.24.49,7.91,4.89,4.36,2.8-2.25-1.45-8.22.71-10.74,1.15-1.34,7.95-2.19,3.47-5.49-2.76-2.03-9.86,1.92-8.72-4.08.64-3.34,6.07-1.64,5.52-5.44-.22-1.52-1.29-2.1-2.7-2.24-3.05-.29-2.02,1.37-2.98,3.19-1.64,3.12-1.14.71-3.57,2.4-1.86,1.29-1.29,3.89-1.43,6-.16,2.32.24,4.3-2.12,4.95-2.36.65-2.65-.66-3.17-2.44-.37-1.28-.46-6.76.21-7.68,1.12-1.56,2.45-.1,3.84-1.2,2.67-2.12.99-14.26,1.03-17.5,0,0-.05.05-.05.05,5.28,0,3.53-.29,5.58-3.85,2.07-3.61,10.9-1.75,14.84-1.76v17.22c-6.39.04-5.84,5.32,0,6.05v28.86Zm-51.28-12.11c-2.29-.02-4.62-.47-5.42,1.92-1.17,3.48,2.39,4,4.64,4.14,3.01.19,5.71.62,5.78-2.98.07-3.52-2.1-3.08-5-3.08Zm15.63-8.64c.76-3.59-6.66-3.71-5.58,1.13.92,4.11,5.59,2.79,5.58-1.13Z"/>
        <path class="cls-1" d="m19.37,65.45c-.07-1.14.31-3.44-.55-4.37-.76-.83-2.19-.07-2.94-.6-2.29-1.62-.51-3.9-2.54-5.35-4.48-3.19-3.96,4.19-3.97,6.01-.02,3.55.38,5.45-3.68,4.54v-11.44c4.59.41,4.56-5.14.04-5.56v-23.01c5.26-1.36,2.02,1.6,3.65,4.22,1.38,2.22,2.84.23,4.27,1.53,1.24,1.13.31,2.2.82,3.56,1.34,3.65,4.17,1.09,5.16,5.23.79,3.31-1.66,11.72,1.22,13.77.88.63,2.6-.44,3.44.2,1.07.82.26,1.55.85,2.43,1.04,1.53-.87,2.85,2.05,3.15,1.57.16,1.66-.52,2.4-1.42,1.44-1.74-.9-3.44,2.31-4.02,1.43-.26,2.39.1,3.06,1.38,2.19,4.22-3.68,3.46-4.69,5.67-1.97,4.32,3.13,3.79,5.38,3.91,4,.21,2.9.41,4.68,3.36,1.06,1.77.28,1.36,2.18,2.23.93.43,2.12-.2,3.02.54,2.43,2-1.29,8.36.69,10.56,3.88,4.3,4.14-3.83,4.13-5.2-.02-6.28.33-5.87,6.59-5.86,4.21,0,7.88-1.35,9.45,2.82,1.29,3.45.18,3.19,4.49,3.8v5.59c-5.92.43-5.96,5.15,0,5.59v5.59c-2.37.18-4.58-.24-4.59,2.79,0,3.17,2.16,2.59,4.59,2.79v23.27c-6.09.72-4.76-2.96-4.96-8.07-.08-2.18.72-7.38-1.13-8.91-1.64-1.36-5.97.82-7.79-.16-2.37-1.27-.36-3.01-1.57-4.62-1.01-1.34-2.93-.91-4.56-.92-3.47-.02-4.42.71-5.64-2.09-.87-2,.76-2.29-1.2-3.41-3.43-1.97-12.05,2.06-14.55-1.56-.74-1.07.69-3-.54-4.13-1.43-1.3-3.5-.38-4.29,1.02-1.68,2.96,1.35,3.02-2.76,4.2-2.49.72-5.72-.7-7.3,1.59-.95,1.37.44,2.62-1.04,3.86-1.2,1.01-6.36.18-7.8-.19v-17.18c5.93,0,11.87.01,17.8,0,3.05,0,11.62,1.9,11.02-2.75-.51-4-8.15-2.13-11.35-2.13-5.82,0-11.64,0-17.46,0v-6.8c3.22,0,6.86,1.04,8.44-2.02.47-.92-.34-2.3.52-3.12.95-.9,3.62-.31,4.72-.35.12,2.85-.51,4.65,2.32,5.52,1.03.32,6.7.48,7.55-.23,5.73-4.81-8.42-5.13-9.93-5.24Zm36.8,17.63c0,2.4-.94,6.19,2.62,5.5,2.57-.5,1.88-3.71,2.01-6,.13-2.33.94-5.16-2.38-4.96-3.02.18-2.24,3.18-2.24,5.47Zm9.41,8.65c.55-3.31-4.38-3.29-4.37.02.01,3.34,4.91,3.31,4.37-.02Z"/>
        <path class="cls-1" d="m35.15,186.01c0-1.89.52-4.04-.93-5.33-1.69-1.51-3.26.82-4.11-2.31-1.31-4.85,7.32-3.19,5.08-8.01-2.45-5.26-15.17.8-19.35-1.65-1.32-.77-2.31-2.64-1.17-4.17,1.28-1.73,5.7-1.03,7.53-1.12,2.12-.1,5.81.51,7.23-1.25,1.02-1.26-.41-3.48,1.05-4.69,1.16-.95,8.5-.97,9.53.28,1.86,2.24-1.27,7.38.62,9.75,2.51,3.17,11.98,1.25,15.41,1.24,0,2.53-.45,4.1,1.36,5.5,1.43,1.11,2.46-.27,3.64,1.7,1.33,2.22-.7,2.6,1.79,3.98,1.67.93,6.06.36,8.02.48v11.17c-2.24-.13-2.87.35-4.28-1.37-1.09-1.33.26-3.19-1.84-4.17-2.06-.96-2.55.23-3.49,1.47-1.66,2.2.3,2.38-2.36,4.1-1.27.82-2.03-.36-3.1,1.07-.85,1.14.3,2.99-.89,4.15-.98.96-3.12-.14-4.02,1.04-.87,1.14-.43,3.64-.44,4.92,0,0,.05-.05.05-.05-2.57.04-3.91-.47-5.14,1.56-.77,1.27.69,3.18-.58,4.43-1.12,1.09-2.82-.14-3.93,1-2.84,2.94,1.61,4.06-3.49,5.25-2.16.51-11.11.98-12.47-.56-1.96-2.22.53-3.8-2.46-5.01-1.9-.77-5.22,1.03-6.94-.01-1.47-.89-.58-1.45-1.29-2.75-.53-.99.38-1.95-.91-2.71-1.52-.89-3.15.02-3.89,1.23-1.64,2.65,1.43,4.93-3.69,3.93v-6.3c1.85.03,3.22-.29,3.45-2.37.34-2.98-1.75-2.16-3.59-3.02,0-3.53-1.7-13.33.4-16.08,2.6-3.39,10.42.87,13.32-2.53,1.15-1.34-.32-4.03,2.58-4.17,2.72-.13,2.56,2.53,2.66,4.44.15,2.69-.92,5.53,1.6,6.89,1.83.99,7.02.04,9.07.02-.07,3.93-.69,4.89,3.09,5.61,1.53.29,5.58.75,6.7-.56,5.02-5.88-7.76-5.01-9.84-5Zm15.33-5.63c.01,1.92,1.16,9.15,4.88,4.53,2.87-3.57-2.83-4.51-4.93-4.48,0-2.01.72-4.42-1.57-5.29-1.53-.58-3,.22-3.52,1.65-1.35,3.69,2.82,3.61,5.14,3.59Zm-30.87,13.86c-.66,3.87,4.4,4.04,4.8.41.47-4.24-5.57-4.16-4.8-.41Z"/>
        <path class="cls-1" d="m70.85,157.14c-4.27.03-19.63,2.72-20.1-2.58-.37-4.13,2.24-1.94,4.34-3.41,2.49-1.73-.01-6.43.93-8.84.71-1.82,2.7-2.95,4.41-1.05,1.74,1.93-.94,4.03,2.51,4.77,3.84.83,2.32-1.92,3.29-3.81,1.16-2.25,1.82-1.82,4.62-1.84v16.76Z"/>
        <path class="cls-1" d="m45.37,5.4c0,2.96-.01,5.91-.02,8.87l.04-.05q-4.79.04-5,4.72c-.01.3-.09.6-.14.9l.04-.04c-2.23.04-9.2,1.27-10.67-.7-.68-.91.31-2.66-.34-3.53-.82-1.12-1.54-.46-2.48-1.1-1.37-.94-4.94-2.6-1.98-5.52,1.93-1.9,5.12,1.16,4.79-3.55h15.75Z"/>
        <path class="cls-1" d="m24.52,5.4c.54,4.35-4.86,2.28-7.26,3.15-5.48,1.96-.46,5-2.78,9.43-.68,1.3-2.6,3.63-4.68,1.81-2.08-1.82,1.01-6.57-4.05-5.36v-5.85c2.44.3,4.09-.3,3.48-3.17h15.29Z"/>
        <path class="cls-1" d="m70.85,65.45c-4.88.34-10.15,2.78-10.3-3.3-.16-6.33-.97-8.11,5.69-7.85l-.04-.04c.05.38.13.76.15,1.15q.16,4.52,4.51,4.92v5.12Z"/>
        <path class="cls-1" d="m70.85,168.78c-4.95,0-9.9.02-14.85.02.17-5.7-.89-5.07,5.21-5.17,3.22-.05,6.43-.29,9.64-.44v5.59Z"/>
        <path class="cls-1" d="m70.85,8.66c-2.31-.03-3.86-.52-4.99,1.38-.9,1.52.14,5.85-3.7,4.12-2.48-1.11-.52-3.06-1.92-4.82-2.2-2.77-3.56.59-4.22-3.93h14.83v3.26Z"/>
        <path class="cls-1" d="m61.09,25.44q.16-5.59,5.86-5.6c1.3,0,2.6,0,3.89-.01v5.59c-3.25,0-6.51.02-9.76.03Z"/>
        <path class="cls-1" d="m66.23,54.3c0-2.21-1.01-7.54.01-9.56,1.01-2.01,2.22-1.6,4.61-1.63v11.17c-1.55,0-3.1-.01-4.66-.02l.04.04Z"/>
        <path class="cls-1" d="m70.85,37.05c-2.25-.01-4.09.54-4.62-2.04-.69-3.33,2.31-3.08,4.62-3.08v5.12Z"/>
        <path class="cls-1" d="m40.23,25.38c0,2.49-1.37,9.87.47,11.59,2,1.88,3.13-.01,4.65,2.52.55.92-.19,1.96.86,2.83.97.79,2.93-.4,3.84.32,1.8,1.42-.05,4.07,1.47,5.52,1.98,1.88,3.45-.93,4.63,2.47.78,2.27.84,11.17.04,13.23-.61,1.57-2.64,3.68-4.9,2.09-1.95-1.37-.07-4.06-1.6-5.58-3.14-3.12-7.68,2.02-9.3-3.65-.54-1.89.56-5.36-.76-7.01-.77-.96-2.28-.48-3.05-1.18-1.44-1.3-.54-2.21-1.47-3.52-3.32-4.69-9.93,1.54-10.13-6.48-.09-3.41-1.46-9.98,1.57-12.1,2.41-1.69,10.68-.8,13.72-1,0,0-.05-.05-.05-.05Zm10.04,26.22c.69-3.77-4.63-3.86-4.81-.2-.2,4,5.58,3.86,4.81.2Z"/>
        <path class="cls-1" d="m45.35,14.27c.61-.06,1.22-.16,1.83-.17,3.34-.06,3.43-.05,3.38,3.36-.03,1.73.52,2.3,2.25,2.27,3.27-.06,3.37.04,3.31,3.33-.03,1.74.53,2.41,2.26,2.24.91-.09,1.84.05,2.77.09-.07,2.04-1.6,9.91.08,11.55,1.89,1.86,4.83-.68,4.59,3.53-.19,3.35-2.91,2.65-5.56,2.66-5.79.01-2.74-.08-5-3.66-1.18-1.87-2.67-.99-4.16-2.51-1.3-1.33.14-2.87-.73-4-1.42-1.83-.87-.19-2.69-1.36-2.36-1.53-1.3.93-2.5-2.23-.31-.8.57-2.38-.03-3.09-1.15-1.35-3.22-.82-4.91-.9,0,0,.05.05.05.05,0-1.87,0-3.75,0-5.62,0,0-.04.04-.04.04q4.78-.04,5-4.72c.01-.3.09-.6.14-.9l-.04.05Z"/>
        <path class="cls-1" d="m65.71,125.97c.54,3.8-1.98,1.63-3.75,2.81-1.99,1.33-.39,3.32-1.68,4.8-2.68,3.08-3.66-.87-4.31-2.27-.85-1.84-.11-1.51-1.85-2.53-1.03-.6-2.21.34-3.17-.69-.94-1.01.14-2.4-.46-3.31-1.61-2.43-5.38-1.5-8.05-1.53-2.67-.03-6.32.86-7.24-2.03-1.14-3.57,1.32-2.49,2.86-3.65,2.21-1.67,2.18-1.65,2.19-5.16,0-1.86-.83-5.39,1.28-6.36,6.3-2.91,2.46,9.15,4.33,10.85,1.24,1.12,3.62-.3,4.7.71,1.25,1.17-.23,3.39.68,4.65,2.19,3.04,15.74-2.25,14.47,3.7Z"/>
        <path class="cls-1" d="m14.35,128.73c-4.59.52-5.17.03-5.26-4.57-.04-1.8.56-4.65-.53-6.14-1.54-2.09-2.91.4-2.9-3.51,0-3.37,5.91-5.5,8.28-3.31,2.55,2.37.41,14.25.37,17.58l.05-.05Z"/>
        <path class="cls-1" d="m12.5,151.57c2.25,0,8.02-.57,7.16,3.47-.72,3.37-5.92,2.04-8.34,2.06-3.08.02-5.59.83-5.62-2.74-.04-4.01,3.63-2.8,6.8-2.8,0,0,0,0,0,0Z"/>
        <path class="cls-1" d="m5.7,168.76c0-1.14-.7-5.29,1.43-5.43,2.53-.17,1.52,2.59,2.16,3.63.7,1.15,0,1.05,1.03,1.93,1.3,1.11,2.94-.33,3.94,1.62,1.92,3.74-3.31,4.49-5.67,3.82-3.15-.88-2.88-2.29-2.9-5.58Z"/>
        <path class="cls-1" d="m40.15,139.91c-6.56,0-6.63-5.55.09-5.58,2.71-.01,4.73-.59,5.11,2.44.45,3.71-2.41,3.13-5.2,3.13,0,0,0,0,0,.01Z"/>
        <path class="cls-1" d="m14.3,128.77c1.22-.09,4.09-.78,5.03.49.65.87.53,3.92-.27,4.7-4.28,4.18-4.83-3.11-4.72-5.24,0,0-.05.05-.05.05Z"/>
        <path class="cls-1" d="m19.35,217.73c.62,3.67-5.03,3.72-5.08-.03-.05-3.87,5.61-3.87,5.08.03Z"/>
        <path class="cls-1" d="m24.6,102.75c.83,4.04-6.34,4.09-5.32-.69.72-3.37,5.85-3.31,5.32.69Z"/>
        <path class="cls-1" d="m14.25,137.2c.65,3.65-5.05,3.79-5.09.23-.05-3.68,5.8-3.54,5.09-.23Z"/>
        <path class="cls-1" d="m5.68,223.25c.2-3.91,4.16-3.32,3.53.43-.59,3.58-3.05,2.49-3.53-.43Z"/>
        <path class="cls-1" d="m55.55,11.35c.49,3.36-4.9,3.38-4.67-.26.21-3.42,5.14-3.3,4.67.26Z"/>
        <path class="cls-1" d="m24.95,260.44c1.56,0,3.12,0,4.68,0-.01,2.11.76,5.03-1.84,5.57-3.49.73-2.83-3.39-2.85-5.57Z"/>
      </g>
    </g>
  </g>
</svg>