<?xml version="1.0" encoding="UTF-8"?>
<svg id="Layer_2" data-name="Layer 2" xmlns="http://www.w3.org/2000/svg" viewBox="0 0 293.49 198.24">
  <defs>
    <style>
      .cls-1 {
        fill: #fff;
        stroke-width: 0px;
      }
    </style>
  </defs>
  <g id="Layer_1-2" data-name="Layer 1">
    <g>
      <path class="cls-1" d="m208.48,81.62c-.02,1.5-.78,1.43-1.71,1.4-2.57-.08-5.14.02-7.71-.04-1.33-.03-2.65-.23-3.98-.35-.2-.02-.43-.08-.61-.01-1.48.53-2.73.56-3.01-1.72-.31.45-.5.6-.5.76-.04,1.17-.57,1.27-1.69,1.21-2.53-.14-5.08.08-7.62.06-1.26,0-2.52-.24-3.78-.31-.47-.03-.95.13-1.43.2-.4.07-.84.28-1.2.19-2.68-.69-5.4-.08-8.1-.28-.29-.02-.62.1-.85-.01-.95-.47-1.81-.26-2.8,0-.99.26-2.1.02-3.15.01-.93-.01-1.87.04-2.79-.04-1.13-.1-2.25-.34-3.38-.45-.57-.06-1.2-.09-1.72.1-1.15.43-1.86.09-1.94-1.14-.06-.94-.31-1.45-1.41-1.61-.6-.09-1.1-.93-1.63-1.45-.47-.46-.91-.96-1.36-1.43-.05-.05-.17-.05-.22-.1-1.35-1.55-2.72-3.07-3.8-4.84-.22-.37-.42-.85-.76-1.03-1.45-.8-2.18-2.02-2.52-3.6-.08-.35-.5-.65-.81-.93-.49-.44-1.05-.8-1.52-1.26-.93-.91-1.85-1.85-2.71-2.82-.45-.51-.79-1.12-1.18-1.69-.23-.33-.4-.72-.68-1-1.47-1.46-3.14-2.77-4.41-4.38-.84-1.06-1.4-2.31-2.69-2.97-.24-.12-.3-.57-.49-.83-.55-.74-1.16-1.45-1.68-2.21-.5-.74-.89-1.55-1.39-2.29-.24-.35-.69-.9-.94-.85-1.02.2-1.41-.4-1.83-1.1-.19-.32-.45-.61-.67-.91-.12.02-.25.04-.37.06-.16,1.24-.33,2.49-.48,3.73-.03.28-.02.57-.03.85-.08,1.76-.16,3.52-.23,5.28,0,.08.05.19,0,.24-1.42,1.9.49,3.96-.31,5.91-.74,1.81.04,4.02-1.54,5.65-.62.64-.4,1.46.15,2.14.59.74.95,1.44.37,2.45-.46.8-.63,1.78-.85,2.71-.06.26.12.6.23.89.13.33.53.83.44.94-.83,1.02-1.59,2.4-2.69,2.81-1.1.41-2.57.51-3.9-.29-.65-.39-1.74-.13-2.63-.05-.8.08-1.52.2-2.1-.6-.16-.23-.81-.38-1.03-.25-1.7,1.06-3.33.27-4.99-.08-.53-.11-1.08-.13-1.63-.14-.28,0-.57.13-.85.12-2.44-.08-4.87-.15-7.31-.28-.43-.02-.84-.34-1.28-.4-.7-.09-1.44-.2-2.12-.07-.82.15-1.42.22-1.8-.71-.29-.7-.73-.68-1.34-.16-.41.35-1.08.55-1.62.54-1.6-.05-3.19-.22-4.78-.4-.52-.06-1.02-.29-1.52-.47-1.88-.66-3.75-1.34-5.62-2-.18-.06-.44-.11-.59-.02-1.82,1.06-3.61.03-5.4-.1-1.47-.11-2.95-.35-4.39-.68-1.07-.24-2.09-.69-3.12-1.06-.34-.13-.65-.44-.99-.47-1.35-.09-2.6-.3-3.88-.89-.95-.44-2.28-.02-3.35-.31-1.39-.37-2.7-1.05-4.04-1.6-.22-.09-.4-.33-.63-.38-1.63-.35-3.29-.6-4.9-1.01-1.02-.26-1.97-.75-2.96-1.13-1.62-.62-3.28-1.13-4.85-1.86-1.43-.66-2.82-1.45-4.1-2.37-.72-.52-1.2-1.27-2.2-.63-.13.08-.38.14-.47.08-1.09-.8-2.2-1.59-3.23-2.47-.39-.34-.6-.89-.92-1.39-1.47,1.6-2.14,1.45-2.85-.48-.28-.76-.65-.93-1.4-.55-.33.17-.9.12-1.25-.06-.66-.33-1.2-.89-1.86-1.21-.87-.42-1.43-.91-1.28-1.97.14-.99-.26-1.24-1.11-.7-.68.44-1.28.27-1.75-.29-.72-.86-1.35-1.81-2.1-2.65-.35-.39-.86-.79-1.35-.87-1.62-.24-2.87-2.38-2.3-3.91.21-.57.14-1.28.08-1.92-.21-2.09.16-4.03,1.28-5.82,1.79-.13,1.41-1.78,1.96-2.78.55-.99.95-2.11,2.18-2.56.3-.11.46-.56.72-.8.41-.38.82-.92,1.31-1.03,1.77-.42,3.09-1.42,4.2-2.79.15-.19.38-.47.55-.45,1.44.12,2.15-.79,2.95-1.77.39-.48,1.25-.54,1.86-.86,1.54-.82,3.01-1.8,4.61-2.51,1.49-.66,3.1-1.03,4.64-1.58.76-.27,1.49-.64,2.21-.99.48-.23.99-.79,1.4-.71,1.67.31,3.14-.54,4.73-.6.24,0,.48-.07.7-.17,1.99-.87,3.84-2.1,6.08-2.28.24-.02.53-.25.71-.17,1.63.72,2.94-.53,4.42-.68.2-.02.42-.08.58-.19,1.76-1.2,3.7-1.34,5.78-1.38,1.74-.03,3.47-.66,5.2-1.06,1.32-.3,2.61-.79,3.94,0,.21.13.64,0,.92-.12.61-.25,1.23-.51,1.77-.89,1.8-1.28,3.81-1.12,5.87-1.11,1.69,0,3.38-.49,5.06-.77.2-.03.47-.16.6-.08,1.59,1.08,3.12.23,4.65-.12.44-.1.89-.2,1.28-.4,1.71-.86,3.44-1.24,5.31-.56.27.1.64,0,.95-.07,1.11-.26,2.2-.59,3.32-.82.92-.19,1.75-.13,1.93,1.09.03.21.35.38.53.57.16-.21.41-.4.45-.62.12-.77.59-.82,1.25-.84.78-.03,1.54-.31,2.32-.37.89-.06,1.79.09,2.68,0,1.41-.14,2.81-.33,4.19-.61.99-.2,1.8-.24,2.11.73,1.97-.68,3.85-1.41,5.78-1.95.83-.23,1.77-.02,2.66-.08,1.92-.13,3.83-.33,5.74-.45.43-.03.88.19,1.32.2.57.02,1.14-.04,1.7-.1.36-.04.71-.16,1.07-.18.8-.05,1.6-.06,2.4-.08.04,0,.09-.03.12-.01,1.99,1.24,3.81-.73,5.77-.32.24.05.53-.09.73,0,2.11.98,4.02-.23,6.01-.5,1.43-.19,2.89-.17,4.34-.26.57-.03,1.14-.1,1.71-.13,1.06-.04,2.16-.75,3.19.13.07.06.24.02.36.01,2.19-.14,4.38-.27,6.56-.44,1.05-.08,2.1-.29,3.15-.33.7-.03,1.41.13,2.12.21.2.02.4.15.59.12,1.18-.18,2.35-.39,3.52-.58.28-.05.57-.1.85-.1,2.08-.04,4.16-.07,6.24-.11.21,0,.43-.07.61-.02,1.85.6,3.66.54,5.56.02.88-.24,1.96.29,2.95.43.42.06.93.15,1.29-.02,1.63-.75,3.24-.71,4.93-.21.57.17,1.25.07,1.86-.03.69-.1,1.38-.56,2.02-.47,2.32.33,4.63.42,6.97.21.26-.02.53.33.83.44.24.09.55.18.76.09,1.94-.81,3.82-1.03,5.65.33.22.16.82.1,1.04-.09,1.62-1.41,3.35-.76,5.08-.37.55.12,1.16.18,1.72.09.68-.11,1.32-.47,2-.6.36-.07.98-.02,1.13.2,1.1,1.69,2.39.45,3.6.3,1.07-.13,2.13-.37,3.21-.42,1.33-.07,2.67-.06,3.99.05.71.06,1.39.41,2.09.61.34.09.72.24,1.04.17,1.29-.28,2.56-.65,3.85-.96,1.15-.27,1.76,1.74,2.97.82,1.02-.78,2.04-.71,3.15-.56.28.04.6.03.85.14,1.27.58,2.45.87,3.76-.08.51-.37,1.32-.22,1.74.63.3.61.73.45,1.4.23,1.35-.45,2.83-.52,4.27-.68.15-.02.42.35.52.58.38.87.86.83,1.52.28.72-.6,4.09-.68,4.94-.36.57.22,1.35.27,1.91.06,1.02-.4,1.86-.42,2.93,0,1,.38,2.3.53,3.28.21,1.5-.48,2.55-.18,3.67,1.11.84-2.23,2.71-.81,4.1-1.29.41-.14,1.06.52,1.63.7.46.14,1.19.34,1.43.12,1.52-1.41,3.13-.72,4.76-.4.68.13,1.41.01,2.12.07.66.05,1.31.22,1.97.28.69.07,1.45.26,2.07.07,1.47-.46,2.24.02,2.31,1.58.05,1.26.34,2.52-.54,3.67-.17.23.11.77.11,1.17.01,1.61-.03,3.23.01,4.84.03,1.21.21,2.42.23,3.63.03,2.25.41,4.62-.13,6.74-.52,2.04.71,3.84.08,5.75-.14.42-.29.85-.34,1.28-.06.57-.07,1.15-.02,1.71.04.51.26,1.01.29,1.51.05.77,0,1.54,0,2.31,0,.12.06.25.05.37-.17,2.86-.35,5.71-.5,8.57-.02.39.22.8.2,1.19-.04.69-.18,1.38-.3,2.07-.07.38-.29.78-.24,1.14.18,1.4.44,2.78.66,4.17.03.16.04.39-.04.48-1.03,1.03-.5,1.95-.14,3.13.35,1.15-.1,2.54-.19,3.82-.04.48-.24,1.04-.07,1.44.76,1.79.08,3.57.08,5.36,0,.81.03,1.63-.03,2.43-.05.67-.22,1.34-.36,2.01-.05.24-.26.47-.23.69.16,1.38.37,2.75.55,4.13.04.28.2.68.07.84-1.17,1.44-.28,2.99-.29,4.49,0,1.36-.49,1.68-1.87,1.82-2.12.21-4.13-.15-6.16-.6-.12-.03-.29-.07-.36-.01-1.46,1.14-3.12.3-4.66.41-1.56.11-3.14-.3-4.72-.4-.55-.04-1.11.24-1.67.24-2.87,0-5.73-.42-8.63.08-1.3.23-2.7-.15-4.06-.22-.36-.02-.73.03-1.09.1-1.13.21-2.08.13-2.31-1.29-.02-.13-.18-.24-.45-.57-.16,1.87-1.14,1.8-2.36,1.36-.25-.09-.61.11-.93.17-.44.08-.87.2-1.31.2-1.77,0-3.54,0-5.31-.04-.98-.03-1.95-.17-2.93-.2-.77-.02-1.56.02-2.32.11-1.42.17-1.7-.05-1.75-1.49,0-.18-.13-.35-.48-.58-.11.32-.3.63-.32.95-.05,1.04-.61,1.19-1.51,1.04-.69-.12-1.41-.09-2.12-.11-.25,0-.52.09-.74.02-1.86-.61-3.72-.21-5.59-.06-1.17.1-2.36-.18-3.55-.23-2.18-.1-4.37-.19-6.56-.23-.43,0-.87.22-1.3.33-1.25.34-1.52.15-1.75-1.1-.05-.28-.27-.53-.41-.79-.21.25-.58.48-.61.76-.13.97-.61,1.17-1.46.87-.27-.09-.64-.29-.82-.18-1.5.88-2.54.03-3.73-1.2Z"/>
      <path class="cls-1" d="m146.68,92.82c1.38-.36,1.91-.02,2.54,1.15.31.59.95,1,1.4,1.53.47.54,1.02,1.06,1.3,1.7.46,1.02.72,2.13,1.95,2.53.08.02.19.08.2.13.27,1.41,1.1,2.31,2.43,2.81.07.03.04.52-.05.75-.12.32-.34.6-.51.89.05.18.1.36.15.54.35-.13.78-.45,1.02-.34.48.21.96.59,1.23,1.03.12.21-.24.72-.39,1.08-.09.2-.2.39-.3.59.25.06.52.21.76.16,1.83-.37,2.16-.19,2.89,1.47.21.47.55.91.92,1.27.86.84,1.75,1.61,1.78,2.97,0,.26.58.68.94.74,2.02.36,2.09.43,1.37,2.28.27.06.52.14.78.17,1.12.12,1.92.66,2.34,1.73.36.94.77,1.83,1.9,2.08.15.03.32.16.39.29.71,1.39,1.39,2.79,2.08,4.2.03.07-.02.2.03.24.97.84,2.18,1.55,1.8,3.16.27.05.56.2.82.15,1.15-.22,1.75.42,2.27,1.29.56.95,1.18,1.86,1.76,2.79.15.24.31.52.31.79.02.91-.02,1.82-.07,2.73-.04.7-.69,1-1.35.71-.29-.13-.64-.13-.97-.18.17.28.37.53.49.83.13.35.38.87.23,1.06-.89,1.22-1.91,2.35-2.83,3.55-.58.76-1.05,1.61-1.62,2.38-.22.3-.53.66-.86.74-1.14.26-1.84.8-1.89,2.07-.01.26-.46.69-.74.73-1.24.18-2.25,1.02-2.37,2.27-.07.77-.33,1.11-1.08,1.39-.58.22-1.21.83-1.41,1.41-.31.89-.64,1.44-1.67,1.4-.31-.01-.89.28-.92.48-.3,2.21-3.06,2.64-3.41,4.81-.05.3-.58.52-.88.78-.69.59-1.5,1.09-2.01,1.8-.46.65-.89,1.06-1.68.96-.74-.1-1.08.14-1.01.94.11,1.18-.45,1.98-1.42,2.67-.89.64-1.59,1.53-2.43,2.24-.38.31-.93.4-1.36.67-.37.24-.87.53-.96.89-.49,1.99-.45,2-2.5,1.02.06.45,0,.84.17,1.05.64.79.28,1.36-.3,1.92-1.29,1.25-2.56,2.53-3.89,3.73-.23.21-.75.18-1.12.13-.96-.14-1.32.14-.95,1.03.34.82.2,1.4-.39,1.99-.19.19-.39.48-.4.74-.05,1.04-.68,1.36-1.59,1.55-.87.18-1.41.7-1.41,1.74,0,.38-.54,1.1-.81,1.09-1.29-.04-1.64.85-1.88,1.76-.27,1.02-.7,1.63-1.82,1.88-.56.12-1.22.78-1.4,1.33-.26.83-.65,1.08-1.41.94-.99-.19-1.37.26-1.37,1.2,0,1.12-.27,1.98-1.48,2.55-.81.38-1.34,1.35-2.17,2.25-.09-.35-.23-.73-.27-1.11-.06-.63-.07-1.27-.07-1.91,0-.89.04-1.78.05-2.66.01-.69.1-1.39,0-2.06-.26-1.8-.24-3.56.44-5.28.11-.29.09-.8-.09-1.01-.6-.69-.62-1.36-.33-2.17.13-.35-.01-.8.02-1.2.04-.63.12-1.25.19-1.88.02-.2.14-.39.14-.59,0-1.74-.05-3.48-.02-5.22.02-1.6-.86-3.14-2.27-3.73-.21-.09-.51-.09-.72-.01-2.02.73-3.92.32-5.84-.43-.52-.2-1.25-.12-1.81.07-.71.24-1.19.27-1.49-.51-.33-.86-.76-.71-1.42-.28-.44.29-1.06.34-1.6.44-.55.1-1.12.15-1.68.2-.4.03-.81.08-1.21.04-.91-.1-1.82-.3-2.74-.37-2.03-.15-4.07-.23-6.11-.38-1.18-.09-2.47.43-3.52-.61-.1-.1-.59.13-.86.27-.98.51-1.51.31-1.88-.72-.46-1.26-.82-1.36-1.79-.49-.86.77-1.73.67-2.14-.36-.44-1.1-1.21-1.03-2.12-.9-.82.12-1.65.16-2.36.23-.19-1.01-.34-1.78-.48-2.55-.2.02-.4.04-.6.06-.02.48-.06.96-.07,1.44-.01,1.06-.41,1.34-1.38.96-.19-.07-.45-.29-.55-.22-1.66,1.02-3.25-.21-4.88-.14-1.32.05-2.65-.21-3.98-.31-.44-.03-.88-.02-1.31.04-.94.13-1.48-.39-1.44-1.3.02-.43-.19-.86-.3-1.29-.33.33-.68.65-.99,1.01-.15.17-.21.43-.35.73-1.49-.61-2.93-1.21-4.38-1.78-.18-.07-.4-.03-.6-.04-1.57-.1-3.14-.2-4.71-.28-.44-.02-.91-.04-1.33.07-.94.25-1.4-.05-1.52-1.02-.04-.3-.31-.58-.47-.87-.27.22-.63.4-.8.68-.72,1.21-1.24,1.27-1.95.09-.6-.99-1.22-1.55-2.5-.98-.48.21-1.24-.03-1.8-.25-.83-.33-1.54-.77-2.55-.41-1.22.44-1.92-.2-2-1.46-.02-.31-.27-.6-.41-.89-.25.22-.52.43-.75.66-.3.3-.57.61-.86.92-.31-.35-.83-.67-.9-1.06-.15-.91-.63-1.21-1.45-1.12-1.55.17-3.1.46-4.51-.57-.17-.12-.54,0-.82.05-.97.14-1.62-.36-1.68-1.43-.06-1.08-.66-1.45-1.62-1.36-.61.06-1.32.37-1.52-.47-.04-.19.72-.56,1.11-.86.09-.07.17-.17.25-.26-.67-.68-1.71-.63-2.4.11-1.62,1.72-2.84,1.65-4.31-.22-.28-.36-.54-.73-.85-1.06-.16-.17-.51-.44-.55-.4-1.12.91-2.18-.4-3.31-.1-.22.06-.91-.6-.88-.87.12-1.14-.62-1.12-1.36-1.31-.75-.19-1.46-.54-2.19-.82-.07-.03-.13-.13-.2-.14-1.15-.2-2.43-.22-1.4-2.04.27-.47-.84-.97-1.62-.67-1.66.64-1.63.55-2.51-.99-.41-.72-1.23-1.33-2.01-1.67-1.01-.44-1.13-1.08-.92-1.96.28-1.24.09-1.42-1.18-1.27-.38.05-.8-.18-1.2-.29.17-.37.31-.76.52-1.12.1-.16.38-.22.47-.38.17-.29.27-.62.4-.94-.33.03-.66.05-.99.08-.47.03-.94.06-1.41.08.22-.47.33-1.04.67-1.37.48-.47,1.11-.83,1.73-1.12.9-.42.75-.98.41-1.85-.9.9-1.94,1.4-2.33.03-.29-1.03-.68-2.4-.42-3.25.43-1.42-.01-2.56-.17-3.82-.06-.45-.01-1.03.23-1.39.59-.89.89-1.65.3-2.72-.6-1.09-.13-1.63,1.11-1.61.31,0,.62-.29.94-.44-.31-.2-.62-.55-.93-.56-1.63-.05-1.75-.18-.91-1.6.4-.68.52-1.24.01-1.93-.18-.24-.19-.69-.11-1.01.04-.14.56-.31.74-.22.27.14.47.47.61.77.13.29.06.72.24.93.23.26.64.36.97.53.1-.31.26-.63.28-.94.02-.55-.09-1.1-.07-1.65.04-.97-.69-1.66-1.68-1.53-.28.04-.58.08-.86.06-.75-.06-1.13-.4-.61-1.11.58-.81.35-1.51.13-2.41-.27-1.12-.03-2.37,0-3.56.01-.71.16-1.46,0-2.13-.3-1.3-.51-2.53.05-3.82.14-.31-.16-.8-.22-1.22-.09-.58-.28-1.18-.17-1.73.05-.27.64-.47,1.02-.62.16-.06.41.15.59.11.46-.09.92-.22,1.34-.42.1-.05.11-.61.05-.63-.42-.17-.87-.31-1.33-.37-.46-.06-.94-.02-1.64-.03.56-1.37.57-2.48-.04-3.68-.2-.4.58-1.29.97-2.06.05.03-.1-.15-.27-.17-1.19-.13-1.09-.88-.66-1.58.43-.69.46-1.27,0-1.93-.13-.19-.16-.47-.16-.71.04-2.48-.09-4.99.22-7.44.25-1.94-.17-3.76-.29-5.64-.03-.49-.16-1.15.09-1.44.9-1.02.41-1.94.05-2.94-.23-.64-.28-1.28.54-1.68.14-.07.15-.84.04-.89-1.02-.44-.61-1.03-.31-1.7.22-.5.27-1.08.41-1.61.07-.25.2-.49.3-.73.28.12.6.2.83.38.17.14.23.43.34.65.53,1.09,1.05,2.08,2.63,1.83.52-.08,1.16.49,1.73.8,1.21.66,2.43,1.31,3.61,2.03.49.3.86.8,1.31,1.17.57.47,1.1,1.04,1.76,1.33.91.39,1.98.44,2.88.85.78.36,1.89.5,1.89,1.81,0,.21.65.58,1.01.59,1.34.04,2.57.32,3.88.68,1.37.38,2.56.47,3.24,1.88.09.18.56.34.77.26,1.26-.47,2.32.19,3.45.52.99.29,2.18.27,2.93.85,1.26.96,2.56,1.53,4.11,1.73,1.44.19,2.85.54,4.28.81,1.04.2,1.86.56,1.96,1.83.03.39.5.75.76,1.12.18-.48.36-.95.52-1.43.03-.1-.01-.23-.03-.42,1.48.32,2.92.64,4.36.94.82.17,1.65.31,2.47.49,1.08.23,2.16.5,3.24.73.4.08.83.16,1.22.08,1.22-.24,1.8.26,1.89,1.46.01.19.13.37.19.53.14.04.24.1.29.08,1.22-.61,2.41-1.35,3.62.11.19.23.96.11,1.41-.03,1.74-.54,2.11-.48,3.17.61,2.11-.12,4.14-.44,6.12.38.25.11.56.1.84.14,1.97.26,4.11.12,5.85.89,1.4.62,2.35.94,3.9.46,1.14-.36,2.73-.3,3.93.74.26.22.98.12,1.37-.06.77-.37,1.35-.35,2.03.22.32.27.99.45,1.32.3,1.59-.74,3.12-.3,4.7-.05.98.16,2,.07,3,.08.25,0,.54-.14.73-.05,2.04.97,4.14-.12,6.19.22.4.07.77.27,1.16.36.38.09.86.3,1.15.16,1.47-.7,2.92-.41,4.44-.22,1.44.18,2.92.06,4.38.04,1.34-.02,2.69-.17,4.01-.07.92.07,1.23-.07,1.24-1.06,0-.83.39-1.65.57-2.48.09-.42.13-.86.15-1.29.03-1.13.02-2.26.05-3.39.05-1.67.02-3.36.22-5.01.17-1.4.59-2.68-.05-4.15-.32-.73.2-1.85.38-2.78.03-.14.36-.36.42-.33.18.11.42.33.41.5-.09,1.31.58,1.81,1.79,2.02.47.08.88.64,1.27,1.03.16.16.14.52.31.66,1.65,1.31,2.69,3.1,3.86,4.79.76,1.11,1.5,2.23,2.25,3.35.18.27.28.7.52.79,2.19.86,3.06,3.16,4.86,4.44.28.2.34.73.5,1.1.13.3.17.77.39.88,1.29.63,1.98,1.68,2.48,2.97.14.35.65.63,1.06.8,1.4.56,2.15,1.47,1.88,3.04-.02.15.05.31.1.55Zm-77.09,68.1l.21.35c.74-.12,1.51-.15,2.19-.4.43-.16.96-.6,1.05-1,.16-.72-.36-.91-1-.63-.66.3-1.33.6-1.95.97-.23.14-.34.47-.51.71Zm-61.77-18.27c.2,0,.4-.02.61-.02.55.49,2.56-.13,2.72-.86.04-.16-.11-.52-.14-.52-.93.11-1.86.2-2.76.44-.21.06-.29.62-.43.96Zm1.94-6.06c-.16-.9-.18-1.5-.39-2.01-.07-.17-.66-.11-1.02-.15-.02.55-.15,1.14,0,1.65.06.22.7.27,1.42.51Zm9.61-40.67c-.03.55-.05.86-.07,1.16.48.01,1.03.16,1.42-.02.24-.11.25-.73.37-1.11-.52,0-1.03-.02-1.73-.03Zm-17.11,7.67c.73-.18,1.17-.28,1.61-.39-.12-.38-.15-.87-.41-1.12-.18-.17-.86-.14-.99.04-.2.28-.13.76-.21,1.46Zm10.74-33.17c-.15-.6-.16-1.15-.35-1.23-.35-.14-.8,0-1.21.04.07.37.03.85.24,1.07.19.19.67.08,1.31.12Zm-8.13,35.95c.53-.07,1.09-.01,1.15-.17.13-.31.12-.94-.08-1.06-.29-.18-.79-.05-1.2-.05.03.35.07.71.12,1.28Zm13.83-12.76c1.46.59,2.32.09,2.15-1.25-.72.42-1.38.8-2.15,1.25Zm17.67,42.91c-.14-.53-.16-.99-.28-1.02-.39-.1-.82-.03-1.23-.03,0,.33-.08.89.04.94.36.14.8.08,1.48.11Zm38.88.36c.59-.08,1.08,0,1.28-.21.17-.17,0-.68-.02-1.03-.37.03-.81-.05-1.09.12-.17.1-.1.6-.17,1.13Zm-23.87,4.01c.66-.2,1.07-.2,1.15-.37.18-.39.21-.85.3-1.28-.28.06-.67.03-.82.2-.24.29-.33.71-.63,1.45Zm15.66,8.38c.2-.07.41-.13.61-.2-.15-.41-.22-.88-.48-1.2-.12-.15-.61,0-.93.01.02.36-.05.76.08,1.07.07.17.47.21.72.31Zm-34.95,2.75c-.15-.64-.13-1.1-.35-1.32-.18-.19-.64-.1-.98-.14.08.4.09.83.28,1.17.09.16.5.15,1.05.28Zm-17.83-21.08c.67-.13,1.1-.15,1.45-.31.14-.06.13-.45.19-.69-.45-.04-.91-.13-1.35-.08-.1.01-.14.51-.29,1.08Zm9.48-3.71c-.09-.5-.06-.95-.23-1.07-.22-.14-.73-.12-.91.05-.19.18-.13.62-.18.95.37.02.73.04,1.32.07Zm-19.75-5.87c-.12-.54-.11-.99-.26-1.05-.33-.13-.74-.06-1.11-.08.01.28-.08.73.06.82.28.19.68.18,1.31.31Zm91.41,45.79c.61-.2,1.03-.22,1.19-.43.16-.21.06-.62.07-.94-.32.08-.7.08-.93.26-.18.14-.17.52-.33,1.1Zm-23.45-30.98c.49-.1.9-.06,1.01-.23.16-.24.09-.62.12-.94-.32-.02-.77-.17-.93-.02-.19.19-.12.63-.2,1.2Zm-13.02-32.79c-.12-.47-.14-.89-.26-.92-.39-.09-.81-.05-1.22-.05,0,.25-.05.68.04.71.38.14.81.16,1.43.26Zm-46.01,10.98c.08.23.15.46.23.69.49-.18.99-.34,1.46-.56.03-.01-.1-.4-.16-.61-.51.16-1.02.32-1.54.48Zm56.01,40.61c.59-.07.98-.02,1.24-.18.13-.08.03-.54.04-.83-.33,0-.7-.11-.97.02-.16.08-.17.5-.31.99Zm-25.85-33.31c.58-.18.98-.2,1.19-.41.13-.13-.03-.55-.05-.84-.31.05-.7,0-.9.16-.17.14-.13.54-.24,1.08Zm-22.2,17.28c-.2-.53-.25-.92-.47-1.12-.12-.1-.65.05-.78.24-.12.16-.03.66.14.79.19.15.57.06,1.11.09Zm-5.32,1.96c-.59.15-.99.15-1.19.35-.14.14-.02.56-.01.85.35-.04.74.01,1.02-.14.15-.08.1-.52.19-1.06Zm116.78,45.99c-.58.2-.94.22-1.09.4-.17.2-.15.56-.21.84.33-.04.72.02.98-.14.17-.11.17-.51.32-1.11Zm-30.36-19.83c.47-.17.88-.22.91-.35.07-.32-.03-.67-.07-1.02-.24.04-.63.02-.69.14-.13.29-.1.66-.16,1.23Zm-48.76-86.05c-.52.08-.91.03-1,.17-.17.26-.16.63-.23.95.26.01.64.13.75.01.21-.22.27-.59.48-1.14Zm-1.35,56.01c.46-.08.89-.07.92-.18.1-.31.07-.68,0-1-.01-.06-.65-.1-.7,0-.15.28-.14.65-.22,1.18Zm10.01-15.19c-.14-.51-.13-.9-.3-1.01-.21-.13-.57-.03-.86-.03.02.29-.06.67.09.85.13.16.53.11,1.08.19Zm-37.92,29.69c-.07-.52-.05-.88-.19-1.17-.04-.1-.67-.07-.68-.01-.08.32-.11.68-.02.99.03.11.45.11.89.2Zm-17.77-27.42c.02-.21.04-.41.07-.62-.42-.04-.84-.12-1.25-.1-.07,0-.12.39-.18.59.46.04.91.08,1.37.13Zm50.71,27.56c.58-.09.97-.1,1.29-.24.09-.04.02-.47.02-.72-.35,0-.72-.06-1.03.05-.13.05-.15.44-.29.91ZM1.98,96.45c.06.19.12.38.19.57.42-.11.84-.22,1.26-.33-.07-.24-.14-.49-.21-.73l-1.23.49Zm61.73,13.25c.51-.1.85-.07,1.03-.23.12-.11.09-.61-.04-.71-.2-.14-.62-.2-.81-.08-.15.1-.1.51-.18,1.02Zm-4.6,19.43c-.45.06-.87.03-.91.14-.09.25-.08.63.06.83.1.13.64.16.73.04.14-.19.08-.54.12-1Zm-10.65-4.43l.59.15c.27-.05.62-.01.8-.17.11-.1.03-.62-.12-.72-.22-.15-.66-.22-.86-.1-.22.14-.28.55-.41.84Zm-27.39-51.55c-.07-.46-.04-.8-.19-1.01-.07-.1-.63-.07-.68.03-.11.25-.12.6-.03.87.03.1.45.06.89.11Zm79,81.51c-.15-.42-.18-.76-.36-.92-.11-.1-.63.02-.67.14-.08.25-.04.6.09.82.06.1.47-.01.93-.04Zm-16.35,9.26c.48-.12.9-.12.95-.25.09-.27-.01-.6-.03-.91-.25.03-.62-.02-.73.13-.15.2-.11.54-.18,1.03ZM4.82,81.87c.47-.07.79-.06,1.03-.2.08-.04.03-.61-.09-.67-.24-.11-.59-.1-.84,0-.1.04-.06.44-.1.86Zm20.59,67.1c.46-.12.8-.12.97-.3.11-.11.03-.65-.07-.68-.26-.08-.61-.06-.86.05-.1.05-.03.46-.04.93Zm-7.61-39.68c.06-.2.11-.4.17-.59-.35-.11-.7-.24-1.05-.29-.04,0-.14.44-.21.67.37.07.73.14,1.1.21Z"/>
    </g>
  </g>
</svg>