<?xml version="1.0" encoding="UTF-8"?>
<svg id="Layer_2" data-name="Layer 2" xmlns="http://www.w3.org/2000/svg" viewBox="0 0 156.74 162.05">
  <defs>
    <style>
      .cls-1 {
        fill: #fff;
        stroke-width: 0px;
      }
    </style>
  </defs>
  <g id="Layer_1-2" data-name="Layer 1">
    <g>
      <path class="cls-1" d="m74.85,126.64c1.62,4.23,4.12,7.77,7.94,10.31.5.33,1.02.64,1.47,1.02,5.08,4.37,11.06,6.37,17.66,6.8,2.46.16,3.08.82,3.21,3.3.05,1.01-.34,2.17.64,2.9.26-.02.39.01.45-.04,5.46-4.18,10.92-8.35,16.36-12.55,1.11-.86,1.15-2.08.06-3.25-1.34-1.44-2.85-2.73-4.13-4.23-2.76-3.24-5.37-6.61-8.13-9.84-.76-.89-1.41-2.19-3-2.1-.13.37-.27.63-.31.91-.38,3.24-1.76,4.28-4.89,3.68-2.71-.52-5.41-1.39-8.13-1.46-3.7-.09-6.41-2.4-9.57-3.64-1.3-.51-2.57-1.6-3.75-2.67-1.65-1.49-2.49-3.48-4.06-4.92-1.12-1.03-1.66-2.29-2.3-3.67-.99-2.17-1.81-4.31-2.26-6.66-.15-.76-.9-1.4-1.65-2.48-.31.98-.61,1.49-.62,2.01-.06,3.47-.09,6.94-.05,10.42.02,1.97-.37,4.24.45,5.85,1.58,3.1.85,7.25,4.28,9.49.2.13.22.53.33.81Z"/>
      <path class="cls-1" d="m42.44,153.28c.91.3,1.73.51,2.5.83,3.46,1.43,6.88,2.99,10.38,4.31,3.03,1.14,6.2,1.94,9.25,3.02,2.87,1.02,3,.97,4.08-1.72,1.39-3.44.88-7.27,2.65-10.73,1.16-2.26,1.1-5.15,1.6-7.75.37-1.91.71-3.81-.28-6-1.12.83-2.08,1.5-3,2.22-1.9,1.5-3.44,1.33-4.61-.84-1.41-2.62-2.84-5.3-3.77-8.11-1.04-3.15-1.9-6.37-1.68-9.82.3-4.63-.77-9.48,2.64-13.51.3-.36.32-.95.58-1.36.72-1.16,1.44-2.33,2.26-3.43,1.26-1.68,2.6-3.29,4.13-5.21-2.36.77-4.53,1.11-6.29,2.15-3.06,1.81-5.87,4.04-8.75,6.15-.71.52-1.38,1.19-1.83,1.93-2.1,3.4-5.23,6.09-6.79,9.87-1.06,2.58-2.81,4.91-2.45,7.99.15,1.32-.31,2.71-.46,4.07-.05.47,0,.96.06,1.43.18,1.46.68,2.94.53,4.37-.36,3.48,2.06,6.32,1.98,9.69,0,.09.04.22.1.27,1.76,1.48,1.1,3.86,2.22,5.48-1.33,2.15-4.51,2.13-5.07,4.7Z"/>
      <path class="cls-1" d="m38.41,104.6c4.05-4.4,8.14-8.9,14.09-10.96,3.36-1.17,6.69-2.27,10.32-1.81,1.18.15,2.37.34,3.55.38.5.02,1.01-.32,1.85-.61-.75-.69-1.18-1.22-1.73-1.56-2.11-1.28-4.24-2.53-6.41-3.7-1.2-.65-2.43-1.39-3.74-1.65-4.77-.96-9.62-1.24-14.48-.84-1.93.16-3.99.24-5.73.97-1.9.8-3.6,2.02-5.79,2.09-.54.02-1.1.44-1.58.78-1.62,1.15-3.23,2.31-4.79,3.52-1.64,1.27-3.14,2.75-4.87,3.88-1.67,1.09-1.79,3.02-2.85,4.41-.65.84-1.2,1.75-1.89,2.78-2.23,1.58-3.69-1.04-5.89-1.53-.6,2.3-.28,4.04.85,5.68.26.38.37.89.44,1.35.63,4.21,1.23,8.41,1.86,12.62.05.36.31.7.42,1.06.32,1,.68,2,.92,3.02.2.84.25,1.71.39,2.81,1.19-.36,2.14-.59,3.05-.94,5.34-2.06,10.7-4.07,15.99-6.25,1.93-.8,4.36-.94,5.58-3.67-.77-.42-1.54-.88-2.34-1.26-1.7-.8-2.17-1.42-1.37-3.2,1.16-2.56,2.27-5.34,4.13-7.36Z"/>
      <path class="cls-1" d="m156.6,79.05c-.43-1-.07-2.35-.08-3.54,0-1.69.08-3.38-.04-5.05-.09-1.13-.46-2.25-.74-3.36-.26-1.01-.71-1.99-.85-3.02-.22-1.67.22-3.58-.45-4.99-.89-1.86-1.27-3.7-1.44-5.68-.03-.37-.14-.84-.39-1.08-1.25-1.22-1.38-2.77-1.58-4.37-.1-.83-.45-1.74-.98-2.38-1.34-1.61-2.66-3.17-2.53-5.45.01-.24-.23-.51-.4-.73-1.89-2.57-4.04-5-5.58-7.77-.99-1.77-2.59-2.83-3.68-4.39-3.18-4.54-7.72-7.64-11.78-11.24-1.29-1.15-2.76-2.1-4.22-3.04-1.31-.85-2.71-1.58-4.08-2.35-1.21-.68-2.41-1.36-3.63-2.01-1.21-.64-2.6-1.95-3.63-1.71-1.76.4-1.7-1.69-3.04-1.61-.22.01-.57-.92-1.47-.55-.47.2-1.22-.2-1.83-.39-.84-.27-1.64-.66-2.49-.87-2.53-.65-5.3-.16-7.7-1.58-.36-.21-.95-.06-1.44-.04-2.2.08-4.38-1.57-6.61-.1-.05.03-.24-.03-.27-.1-.81-1.67-1.55-.22-2.32.04-.26.09-.53.18-.79.27-.19-.48-.36-.9-.55-1.37-1.02.49-1.89.9-2.83,1.35-.19-.53-.34-.94-.69-1.95-1.83,3.05-4.63,1.8-6.99,1.95-2.76.18-3.21.08-3.55,2.59-.01.09-.24.15-.21.13-.5-.74-.97-1.45-1.38-2.04-2.81.62-5.57.57-7.72,2.43-.19.17-.7.29-.83.17-1.25-1.09-2.21.12-3.22.43-2.08.63-3.54,2.21-5.05,3.67-.1.1-.35.04-.54.05-.04-.44-.07-.89-.14-1.81-1.45,1.17-2.75,2.05-3.8,3.16-.45.48-.54.61-1.3.67-1.25.1-3.05.7-3.53,1.64-1.17,2.28-3.06,2.78-4.65,3.06-.83,1.07-1.3,1.92-1.99,2.5-3.02,2.56-6.13,5.03-9.16,7.58-.5.42-.78,1.09-1.16,1.65-.47.71-.87,1.48-1.41,2.12-.51.6-1.29.99-1.74,1.62-2.42,3.39-4.13,7.22-6.68,10.54-.75.99-1.52,2.24-1.59,3.41-.12,1.87-1.34,3.26-1.59,5.13-.45,3.34-1.9,6.51-2.85,9.78-.65,2.23-1.11,4.36-1.11,6.62,0,4.45.12,8.91.14,13.36,0,1.24-.47,2.22-1.97,1.92-1.74-.35-2.95.66-4.52,1.38,3.38,4.77,8.74,7.02,12.14,11.5,2.76-4.75,6.69-8.35,8.58-13.47-.62-.08-1.19-.21-1.76-.22-3.63-.06-4.89-1.19-4.57-4.77.28-3.22.93-6.41,1.58-9.59.02-.07.09-.14.13-.21-.42-3.46.23-7.06,1.88-10.09-.11-.5-.24-1.02-.08-1.41,1.7-4.11,3.12-8.33,5.04-12.37,1.3-2.75,3.02-5.14,4.73-7.57.52-.74,1.09-1.29,1.69-1.68,1.87-4.52,5.22-8.35,10-10.41-.06-.07-.13-.12-.19-.19,1.68-1.22,3.31-2.59,5.11-3.68,2.92-1.77,5.94-3.4,8.96-5.01,1.22-.65,2.5-1.23,3.82-1.62,3.08-.93,6.17-1.85,9.31-2.54,3.26-.71,6.56-1.3,9.87-1.65,2.36-.25,4.77-.07,7.16-.01,5.2.12,10.3,1.08,15.31,2.35,2.66.68,5.27,1.67,7.78,2.79,3.77,1.68,7.65,3.26,11.08,5.5,7.73,5.06,14.13,11.52,19.3,19.25,1.55,2.32,2.05,5.33,4.62,7.02.38.25.2,1.31.32,1.98.15.86.16,2.36.54,2.47,1.6.44,1.07,1.67,1.31,2.61.12.47.02,1.13.3,1.41,1.37,1.34,1.29,3.04,1.41,4.72.04.48.07,1.04.31,1.43.95,1.53,1.3,3.18,1.33,4.95.09,5.16-.02,10.35.39,15.49.33,4.08-2.18,7.58-1.86,11.58.01.17-.12.39-.25.53-1.18,1.28-1.08,2.92-1.3,4.47-.07.49.03,1.08-.21,1.44-2.06,3.1-2.74,6.95-5.41,9.71-.39.41-.52,1.05-.83,1.55-.66,1.07-1.33,2.13-2.05,3.16-.39.56-1.21,1.01-1.28,1.58-.29,2.28-2.1,3.26-3.55,4.57-.73.67-1.39,1.41-2.12,2.08-1.13,1.05-1.34,2.17-.27,3.38,1.43,1.61,2.88,3.2,4.53,5.02.65-.7.88-1.04,1.19-1.27,3.62-2.62,5.66-6.67,8.75-9.77.39-.39.53-1.04.82-1.55.56-1.01,1.11-2.04,1.73-3.02.42-.66,1.15-1.18,1.38-1.89,1.06-3.14,3.39-5.68,4.02-9.04.28-1.48.89-3.06,1.82-4.23,1.03-1.31,1.02-2.73,1.33-4.15.3-1.39.85-2.74.98-4.14.3-3.11.57-6.25.51-9.37-.03-1.23,1.99-.7,1.31-2.28Z"/>
      <path class="cls-1" d="m69.18,95.17c-1.53,1.92-2.87,3.54-4.13,5.21-.82,1.09-1.54,2.26-2.26,3.43-.26.42-.27,1-.58,1.36-3.4,4.03-2.34,8.88-2.64,13.51-.22,3.45.64,6.68,1.68,9.82.93,2.82,2.35,5.49,3.77,8.11,1.17,2.18,2.72,2.34,4.61.84.91-.72,1.87-1.39,3-2.22.99,2.18.65,4.09.28,6-.5,2.6-.45,5.48-1.6,7.75-1.76,3.45-1.26,7.28-2.65,10.73-1.09,2.69-1.21,2.75-4.08,1.72-3.06-1.09-6.22-1.88-9.25-3.02-3.51-1.32-6.92-2.88-10.38-4.31-.77-.32-1.59-.53-2.5-.83.56-2.57,3.73-2.55,5.07-4.7-1.13-1.63-.46-4-2.22-5.48-.07-.06-.11-.18-.1-.27.08-3.37-2.34-6.21-1.98-9.69.15-1.42-.35-2.91-.53-4.37-.06-.47-.11-.96-.06-1.43.14-1.36.61-2.75.46-4.07-.36-3.08,1.39-5.41,2.45-7.99,1.55-3.77,4.68-6.47,6.79-9.87.46-.74,1.13-1.41,1.83-1.93,2.87-2.11,5.69-4.34,8.75-6.15,1.76-1.04,3.94-1.38,6.29-2.15Z"/>
      <path class="cls-1" d="m8.49,100.75c2.2.49,3.66,3.11,5.89,1.53.69-1.02,1.24-1.93,1.89-2.78,1.07-1.39,1.18-3.32,2.85-4.41,1.73-1.13,3.23-2.61,4.87-3.88,1.57-1.22,3.18-2.38,4.79-3.52.48-.34,1.04-.76,1.58-.78,2.19-.07,3.88-1.3,5.79-2.09,1.74-.73,3.79-.81,5.73-.97,4.86-.41,9.7-.12,14.48.84,1.31.26,2.54,1,3.74,1.65,2.17,1.18,4.3,2.43,6.41,3.7.55.33.98.87,1.73,1.56-.85.29-1.36.63-1.85.61-1.19-.04-2.37-.23-3.55-.38-3.63-.46-6.96.65-10.32,1.81-5.95,2.06-10.04,6.56-14.09,10.96-1.86,2.02-2.97,4.79-4.13,7.36-.8,1.78-.33,2.4,1.37,3.2.8.38,1.57.84,2.34,1.26-1.23,2.73-3.65,2.87-5.58,3.67-5.29,2.19-10.65,4.2-15.99,6.25-.91.35-1.86.58-3.05.94-.15-1.1-.2-1.97-.39-2.81-.24-1.02-.59-2.02-.92-3.02-.12-.36-.37-.69-.42-1.06-.63-4.2-1.23-8.41-1.86-12.62-.07-.46-.18-.97-.44-1.35-1.12-1.64-1.44-3.38-.85-5.68Z"/>
      <path class="cls-1" d="m70.45,98.06c.75,1.08,1.5,1.73,1.65,2.48.45,2.34,1.27,4.48,2.26,6.66.63,1.38,1.18,2.64,2.3,3.67,1.56,1.44,2.41,3.43,4.06,4.92,1.18,1.07,2.45,2.16,3.75,2.67,3.16,1.23,5.87,3.54,9.57,3.64,2.72.07,5.42.94,8.13,1.46,3.13.6,4.51-.44,4.89-3.68.03-.28.18-.54.31-.91,1.59-.09,2.24,1.21,3,2.1,2.77,3.23,5.38,6.6,8.13,9.84,1.27,1.5,2.79,2.79,4.13,4.23,1.09,1.17,1.05,2.4-.06,3.25-5.44,4.2-10.9,8.37-16.36,12.55-.07.05-.19.02-.45.04-.98-.73-.59-1.89-.64-2.9-.13-2.48-.75-3.14-3.21-3.3-6.6-.42-12.58-2.43-17.66-6.8-.45-.39-.97-.69-1.47-1.02-3.82-2.54-6.32-6.08-7.94-10.31-.11-.28-.13-.68-.33-.81-3.43-2.23-2.7-6.38-4.28-9.49-.82-1.61-.43-3.88-.45-5.85-.04-3.47,0-6.94.05-10.42,0-.52.31-1.03.62-2.01Z"/>
      <path class="cls-1" d="m126.17,74.58c-5.27-.31-9.39-3.29-10.9-7.63-1.14-3.26.22-8.03,2.93-10.24,1-.82,1.99-1.64,3.04-2.4,5.28-3.83,13.71-.3,15.31,5.21.48,1.65,2.02,3.1,1.29,4.97-.47,1.2-1.55,2.11-1.53,3.59.04,1.87-1.59,2.64-2.79,3.6-1.23.99-2.52,2-3.95,2.58-1.13.45-2.52.26-3.4.33Z"/>
    </g>
  </g>
</svg>