<?xml version="1.0" encoding="UTF-8"?>
<svg id="Layer_2" data-name="Layer 2" xmlns="http://www.w3.org/2000/svg" viewBox="0 0 351.5 351.5">
  <defs>
    <style>
      .cls-1 {
        fill: #fff;
        stroke-width: 0px;
      }
    </style>
  </defs>
  <g id="Layer_1-2" data-name="Layer 1">
    <g>
      <g id="_Radial_Repeat_" data-name="&amp;lt;Radial Repeat&amp;gt;">
        <path class="cls-1" d="m251.39,325.06c.96-.66,1.85-1.46,2.81-2.12.57-.42,1.41-1.15,1.97-1.01,1.87.42,2.72-.93,3.93-1.78,1.21-.85,2.54-1.5,3.88-2.34,0,0-.12-.32-.41-1.01,2.17,1.06,3.39-.1,4.61-1.32.71-.8,1.81-2.02,2.49-1.88,1.99.43,3.03-.92,4.31-1.77,1.02-.66,2.04-1.33,2.93-1.93.76-.36,1.14-.6,1.59-.77.57-.24,1.2-.28,1.77-.58,1.08-.6,2.16-1.26,3.31-1.92q.16-1.31,1.53-1.15c.31.07.69.02.94-.1,2.29-1.26,4.39-2.77,6.8-3.71,2.54-1.12,4.17-3.78,7.06-4.2.13-.06.32-.12.5-.11.25,0,.45-.3.64-.48,1.4-.9,2.8-1.87,4.21-2.77.51-.3,1.08-.6,1.65-.9.38-.3.95-.23,1.39-.4,2.4-.94,4.03-3.15,6.8-3.58,1.45-.21,2.62-1.81,4.02-2.65,1.15-.72,1.94-2.27,3.74-1.85.19.07.45-.43.96-.85-.75.04-1.13.1-1.51.15,0-.19,0-.38.08-.5,1.58-.52,3.16-.92,4.68-1.57,1.71-.71,3.36-1.54,4.89-2.5,1.53-.96,2.87-2.12,4.47-3.33.25.13.68.33,1.17.59.07-.19.2-.37.26-.56-.3-.45-.54-.95-.97-1.34-1.22-1.22-2.51-2.38-3.79-3.48-.98-.78-1.89-2.12-3.61-.97.14-.5.34-1.06.68-1.99-.7.23-1.08.47-1.52.52-.38.05-.94.04-1.25-.22-1.47-1.17-2.82-2.45-4.17-3.62-.69.17-1.2.34-1.77.52.08-.62.1-1.25.11-1.88-.69.11-1.38.21-2.08.32.27-.68.48-1.43.82-2.49-.64.42-.96.79-1.4.9-.38.12-1.07.1-1.38-.1-.86-.71-1.59-1.54-2.38-2.32-.57.3-1.02.54-1.4.84-.31-.13-.62-.2-.93-.34.58-.49,1.09-1.04,1.67-1.52-.25-.13-.56-.2-.81-.33-.38.12-.76.36-1.14.41s-.81-.08-1.19-.09c.14-.37.33-.68.47-1.05.13-.31.33-.68.46-.99-.12-.13-.25-.19-.37-.26-.38.3-.65.74-1.09.91-.32.12-.94.16-1.06-.03-1.21-1.6-2.43-3.01-4.96-1.82.39-.62.72-1.3,1.05-1.98-.71.67-1.28.91-1.78.89-1.32.03-2.02-1.74-3.07-2.46-.06-.06-.06-.13-.12-.13-.97-1.22-1.94-2.37-3.61-.85-.12,0-.31-.07-.62-.2.4-.74.73-1.42,1.32-2.53-1.08.47-1.71.83-2.85,1.37.34-1.12.49-1.8.75-2.55q-1.72,1.08-3.43-.46c-.57.36-1.14.66-1.72,1.02l-.3-.32c.33-.56.66-1.11,1.18-1.97-.82.1-1.26.22-1.76.21-.38.05-.88.1-1.13-.09-.92-.65-1.72-1.42-2.57-2.2-1.04-.97-2.01-2.24-3.49-.53,0,0-.18-.13-.37-.26.26-.31.52-.55.71-.86.13-.31.2-.62.34-.93-.31-.07-.69-.14-1-.09-.25.06-.45.43-.7.42-.31.05-.69-.08-1.06-.09.13-.37.14-.75.28-1,.26-.43.65-.74.97-1.04-.12-.13-.24-.26-.37-.39-.38.24-.7.55-1.08.72-.32.12-.69.11-1.07.16.07-.37.02-.75.09-1.13.14-.37.46-.74.72-1.11-.19-.07-.31-.2-.43-.32-.32.37-.58.74-.9.92-.38.24-.89.42-1.32.34-.93-.21-1.8-.61-2.86-.95.13-.31.4-.87.66-1.42-.12-.07-.25-.19-.31-.26-.7.23-1.39.53-2.03.82-.12-.13-.25-.19-.31-.32.33-.62.66-1.3,1.12-2.16-.5.05-.88-.02-1.07.1-.96.98-1.77.77-2.56-.25-.91-1.21-1.95-2.12-3.49-.65-.07.12-.44-.07-1-.15.65-.86,1.17-1.47,1.62-2.09-.56-.14-.88.04-1.19.16-.51.17-.95.29-1.39.46.14-.5.21-1,.35-1.49.14-.37.21-.68.48-1.49-1.02.73-1.6,1.4-2.17,1.38-1.07.04-2.18-.37-3.37-.65.26-.37.59-.86,1.24-1.85-.88.23-1.32.34-1.76.39-.38.12-.95.35-1.13.22-.74-.58-1.41-1.29-2.08-1.93-.8-.71-1.59-1.48-2.52-1.94-.31-.13-1.01.48-1.59.77-.06,0-.12-.07-.25-.13.1,1.07.2,2.13-.25,2.56-1.61,1.52-.89,2.92-.49,4.44.39,1.7.79,3.4-.38,5,.49.26.93.53,1.48.92-.7.61-1.22,1.1-1.93,1.77.87.4,1.48.73,2.48,1.19-1.96.51-2.29,1.44-1.64,2.84.29.76.65,1.65.44,2.33-.14.75-.91,1.29-1.43,2.03.69.14,1.31.28,1.87.42-.52.61-1.35,1.22-1.61,1.71-.13.12-.13.25-.13.37.25,2.26.89,4.53,1.51,7.18-.14.56-2.74-.63-1.67,1.59.25-.06.38-.12.57-.11l1.31.22c-.32.3-.64.61-.9.98-.26.43-.59.92-.6,1.43-.05,1.75,1.35,3.61-.57,5.12-.13.12-.2.5-.14.75.14,1.76.35,3.52.49,5.28.15,1.32.67,3.09.09,3.89-1.29,1.53-.89,2.73-.49,4.31.4,1.64,1.17,3.35-.38,4.88,1.11.59,2.92,1.14.2,1.95-.13,0-.26.24-.26.43-.12,2.31.45,4.52,1.26,6.92.51-.43.77-.79.96-.79.44-.05.87.15,1.31.22-.51.43-1.09.85-1.66,1.21-.19.12-.38.18-.57.17-1.32.28-1.85,1.2-1.69,2.46.11.57.16,1.19.27,1.76.26,2.01.52,3.96.79,5.6-.53,1.11-1.24,1.85-1.19,2.54.25,2.57.74,5.16,1.12,7.73.05.44-.02.88-.03,1.31-.43-.2-.87-.4-1.17-.59,0,2.44,0,5.07-.01,7.77.82-.17,1,.15,1.05.59.25,0,.44-.05.57-.17Zm4.64-82.7c0-.19.2-.5.39-.55,1.01-.29,2.02-.45,3.02-.67.12.19.18.38.3.57-1.08.41-2.09.89-3.16,1.23-.19,0-.43-.39-.55-.58Zm71.76,37.56c.06.13-.08.5-.2.62-.64.55-1.34,1.03-2.3,1.69-.02-1.57.75-2.17,1.82-2.58.19-.06.56.08.68.27Zm-73.28,30.68c.45-.61.36-1.75,1.49-1.78.18.13.31.26.49.39-.58.55-1.09,1.1-1.61,1.71-.12-.13-.25-.19-.37-.32Zm4.23,8.25c.58-.67,1.16-1.41,1.81-2.02.13-.12.57-.05.69.08.12.13.11.57-.02.69-.64.61-1.34,1.09-2.05,1.64-.12-.13-.24-.26-.43-.39Z"/>
        <path class="cls-1" d="m111.5,351.04c.58-.61,1.3-1.66,1.67-1.59,1.74.55,2.58-.43,3.5-2.23.41,1.26.64,2.02.87,2.65.64-.48,1.21-.91,1.79-1.33.11.75.15,1.57.3,2.95.58-.8.85-1.36,1.3-1.72.45-.36,1.09-.85,1.52-.71,2.12.43,4.11,1.05,6.35,1.6,0-2.26.87-2.11,2.54-1.38,1.42.73,3.17.9,4.79,1.25.19.07.5-.05.63-.17.58-.61,1.1-1.22,1.61-1.84.23.76.53,1.45.87,2.65.51-2.68,1.88-2.27,3.49-1.66,1.61.61,3.11.71,3.61-1.6,0,0,.19-.06.63-.17.04.94.08,1.76.07,2.19,4.58-7.65,9.3-15.48,14.14-23.44-.06-.13-.3-.57-.3-.57.97-1.1,1.87-1.89,2.52-2.82,1.89-2.65,3.03-5.69,5.04-8.26,1.3-1.72,2.1-3.83,3.22-5.87.78-1.17,1.75-2.4,2.6-3.69.65-1.05.95-2.67,1.83-3.09,1.9-.83,2.38-2.44,3.17-3.99.2-.37.64-.67,1.22-1.16.22,1.07.33,1.7.38,2.08.95-.41,1.79-1.27,2.35-1.13,1.68.48,3.23,1.21,4.51-.07.38-.3.65-.74.97-1.35.04.82.03,1.38.01,2.01.05.31.04.69.03,1.13.77-.61,1.28-1.03,1.92-1.45.19-.25.51-.43.77-.67-.01.5.04.88.09,1.26-.01.56.04,1.07.08,1.76.39-.49.59-.86.78-1.11.06-.06.13-.12.19-.18.57-.36,1.21-.78,1.77-.77,1.81.11,3.78,1.6,5.23-.99.22,1.01.33,1.7.51,2.27.77-.67,1.42-1.59,1.98-1.58,1.5.1,3.06.45,4.42.99,1.49.6,2.61.88,3.16-1.05.07-.19.57-.3,1.08-.54-.08.62-.15.94-.1,1.31.05.44.16.94.21,1.45.32-.37.58-.74.9-.92.51-.36,1.15-.85,1.65-.77,1.81.36,3.55.97,5.35,1.39.44.07.95-.48,1.4-.78.45-.3.83-.73,1.67-1.4-.22,1.31-.36,1.93-.44,2.56.12.07.31.13.5.2.26-.37.46-.8.84-1.04.45-.3,1.02-.73,1.52-.65,1.62.29,3.3.71,4.92,1.19.87.21,1.37.22,1.77-.71.13-.31.64-.42,1.02-.6.12.38.23.76.28,1.14.05.31.05.63.1,1,1.03-1.1,1.82-2.46,3.62-1.79-.11-.57-.16-1.19-.27-1.76-.16-1.26.37-2.18,1.69-2.46.19,0,.38-.05.57-.17.57-.36,1.15-.78,1.66-1.21-.44-.07-.87-.27-1.31-.22-.19,0-.45.36-.96.79-.82-2.4-1.38-4.61-1.26-6.92,0-.19.14-.44.26-.43,2.71-.81.91-1.35-.2-1.95,1.54-1.53.77-3.24.38-4.88-.4-1.58-.81-2.78.49-4.31.58-.8.07-2.57-.09-3.89-.14-1.76-.35-3.52-.49-5.28-.06-.25.02-.63.14-.75,1.92-1.52.53-3.37.57-5.12.01-.5.34-.99.6-1.43.26-.37.58-.67.9-.98l-1.31-.22c-.19,0-.31.05-.57.11-1.07-2.22,1.53-1.03,1.67-1.59-.62-2.65-1.25-4.92-1.51-7.18,0-.13,0-.25.13-.37-1.56-.17-3.31-.21-2.43-2.88-.51.49-.71.98-1.04,1.35s-.96.85-1.27.72c-1.24-.35-2.48-.94-3.78-1.54-.52.74-.97,1.35-1.63,2.28-.41-1.08-.7-1.9-.99-2.72-.58.8-.97,1.29-1.36,1.84-.23-.76-.46-1.45-.81-2.59-.46.68-.66,1.17-1.04,1.54-.39.43-1.15,1.04-1.28,1.03-1.22-1.16-2.06-.3-2.84.62-.16-.88-.33-1.64-.5-2.39-.19,0-.37-.07-.56-.14-.46.74-.98,1.48-1.63,2.4-.23-.88-.4-1.64-.56-2.4-.71.8-1.18,1.85-1.74,1.9-1.13.03-2.37-.31-3.42-.84-1.05-.47-1.49-.35-1.77.77-.07.37-.52.74-.78,1.11-.11-.5-.22-1.01-.28-1.45-.11-.5-.1-.94-.2-1.76-.9,1.04-1.42,1.65-2.26,2.64-.16-1.19-.27-1.82-.43-2.7-.51.49-.77.86-1.09,1.1-.32.18-.76.29-1.08.47-.05-.44-.17-.82-.16-1.19-.05-.38.02-.81.09-1.19-.19-.07-.37-.07-.56-.14-.53.93-1.11,1.91-1.64,2.9-.8-.46-1.36-.79-2.04-1.18-.33.62-.66,1.11-.98,1.73-.29-.95-.52-1.7-.87-2.72-.71.98-1.11,1.6-1.76,2.52-.11-.63-.22-1.07-.34-1.51-.05-.5-.1-.88-.22-1.32-.9.85-1.49,1.97-2.18,2.07-.94.04-1.99-.68-2.98-1.08-.06,0-.13,0-.19-.07-.87-.4-1.44-.22-1.65.83-.07.37-.27.68-.4,1.05h-.44c-.11-.77-.21-1.58-.37-2.59-.83.67-1.41,1.15-2.18,1.82-.16-1.01-.27-1.64-.32-2.14-.96.6-1.66,1.15-2.42,1.69-.1-.88-.2-1.76-.36-3.14-.86,1.73-1.77,3.09-3.76,2.28-.06,0-.39.55-.59.86-.26.31-.52.55-.9,1.04-.22-1.01-.33-1.76-.44-2.52-.64.42-.78.92-1.09,1.16-.38.3-.96.6-1.39.53-1.43-.23-2.86-.76-4.3-.93-1.06-.15-2.26.07-3.58.16-.06-.13-.42-.7-.84-1.46-.73,1.42-1.31,2.1-2.92,1.43-1.3-.47-3.48-1.22-4.29,1.27,0,.06-.19,0-.44-.01-.05-.44-.1-.82-.03-1.25.01-.44.15-.81.22-1.25-.25.06-.57.11-.82.17-.51.49-1.09,1.04-1.61,1.59-.23-.7-.53-1.39-.88-2.28-.2.43-.39.68-.53.99-.66,1.11-1.14,2.92-1.96,3.14-2.21.51-2.25,2.07-2.66,3.56-.48,1.68-1.03,3.36-2.8,4.19.24.44.48.89.84,1.53-.94.16-1.7.33-2.58.56.54.83.91,1.34,1.57,2.3-1.99-.55-2.76.05-2.92,1.62-.08.81-.23,1.75-.75,2.24-.45.55-1.4.72-2.28,1.07.55.45,1.04.84,1.47,1.23-1.01.35-2.39.44-2.59,1-.93,2.11-1.43,4.35-2.25,6.96-.39.37-2.08-1.93-2.27.51.25.07.44.14.56.26.37.26.68.52,1.04.78-.44.11-.88.23-1.33.4-.44.24-.95.54-1.21.91-.85,1.54-.6,3.81-3.05,4.18-.19.06-.38.3-.52.55-.73,1.61-1.4,3.28-2.19,4.89-.53,1.18-.95,2.98-1.9,3.33-1.83.7-2.12,1.95-2.6,3.5-.42,1.62-.59,3.49-2.74,4.06.72,1.08,2.01,2.37-.73,1.73-.12,0-.38.12-.51.24-1.24,1.97-1.86,4.15-2.36,6.64.69-.11,1.07-.29,1.26-.22.37.2.67.58,1.04.9-.69.04-1.38.15-2.07.2-.19,0-.37-.07-.56-.14-1.31-.41-2.2.13-2.73,1.31-1,2.42-1.94,4.9-2.75,6.88-1.02.66-1.97.95-2.3,1.57-1.06,2.35-1.94,4.84-2.94,7.25-.14.44-.46.8-.66,1.17-.3-.38-.54-.77-.78-1.15-1.18,2.1-2.49,4.38-3.87,6.79,1.87.55-.36,1.62-.19,2.56.12.38-.4.93-.66,1.36-.11-.5-.16-.94-.28-1.45l.02-.63c-.19,0-.31-.07-.44-.07-.99,2.04-1.99,4.15-2.98,6.31-3.17,1.42-2.59,5.76-5.53,7.88,1.24.6,2.53,1.32,3.79,1.35.75.02,1.59-1.09,2.55-1.88l-.07,2.82c.83-.61,1.11-1.6,1.61-1.78.7-.3,1.63.04,2.5.19.44.01,1,.09,1.37.35.93.46,1.56.42,1.83-.7.07-.31.27-.56.53-.93.35.95.64,1.71.94,2.47.19-.06.32-.12.51-.17.26-.56.47-1.12.93-2.17.4,1.33.63,2.21,1.04,3.54q.95-2.67,4.13-2.09c1.93.3.46,1.77.87,2.59Zm34.32-86.95c-.06,0-.17-.51-.11-.75,0-.19.39-.37.57-.3,1,.28,1.99.62,2.98.89-.07.25-.07.44-.08.69-1.12-.15-2.25-.31-3.37-.53Z"/>
      </g>
      <g id="_Radial_Repeat_-2" data-name="&amp;lt;Radial Repeat&amp;gt;">
        <path class="cls-1" d="m26.44,251.39c.66.96,1.46,1.85,2.12,2.81.42.57,1.15,1.41,1.01,1.97-.42,1.87.93,2.72,1.78,3.93.85,1.21,1.5,2.54,2.34,3.88,0,0,.32-.12,1.01-.41-1.06,2.17.1,3.39,1.32,4.61.8.71,2.02,1.81,1.88,2.49-.43,1.99.92,3.03,1.77,4.31.66,1.02,1.33,2.04,1.93,2.93.36.76.6,1.14.77,1.59.24.57.28,1.2.58,1.77.6,1.08,1.26,2.16,1.92,3.31q1.31.16,1.15,1.53c-.07.31-.02.69.1.94,1.26,2.29,2.77,4.39,3.71,6.8,1.12,2.54,3.78,4.17,4.2,7.06.06.13.12.32.11.5,0,.25.3.45.48.64.9,1.4,1.87,2.8,2.77,4.21.3.51.6,1.08.9,1.65.3.38.23.95.4,1.39.94,2.4,3.15,4.03,3.58,6.8.21,1.45,1.81,2.62,2.65,4.02.72,1.15,2.27,1.94,1.85,3.74-.07.19.43.45.85.96-.04-.75-.1-1.13-.15-1.51.19,0,.38,0,.5.08.52,1.58.92,3.16,1.57,4.68.71,1.71,1.54,3.36,2.5,4.89.96,1.53,2.12,2.87,3.33,4.47-.13.25-.33.68-.59,1.17.19.07.37.2.56.26.45-.3.95-.54,1.34-.97,1.22-1.22,2.38-2.51,3.48-3.79.78-.98,2.12-1.89.97-3.61.5.14,1.06.34,1.99.68-.23-.7-.47-1.08-.52-1.52-.05-.38-.04-.94.22-1.25,1.17-1.47,2.45-2.82,3.62-4.17-.17-.69-.34-1.2-.52-1.77.62.08,1.25.1,1.88.11-.11-.69-.21-1.38-.32-2.08.68.27,1.43.48,2.49.82-.42-.64-.79-.96-.9-1.4-.12-.38-.1-1.07.1-1.38.71-.86,1.54-1.59,2.32-2.38-.3-.57-.54-1.02-.84-1.4.13-.31.2-.62.34-.93.49.58,1.04,1.09,1.52,1.67.13-.25.2-.56.33-.81-.12-.38-.36-.76-.41-1.14s.08-.81.09-1.19c.37.14.68.33,1.05.47.31.13.68.33.99.46.13-.12.19-.25.26-.37-.3-.38-.74-.65-.91-1.09-.12-.32-.16-.94.03-1.06,1.6-1.21,3.01-2.43,1.82-4.96.62.39,1.3.72,1.98,1.05-.67-.71-.91-1.28-.89-1.78-.03-1.32,1.74-2.02,2.46-3.07.06-.06.13-.06.13-.12,1.22-.97,2.37-1.94.85-3.61,0-.12.07-.31.2-.62.74.4,1.42.73,2.53,1.32-.47-1.08-.83-1.71-1.37-2.85,1.12.34,1.8.49,2.55.75q-1.08-1.72.46-3.43c-.36-.57-.66-1.14-1.02-1.72l.32-.3c.56.33,1.11.66,1.97,1.18-.1-.82-.22-1.26-.21-1.76-.05-.38-.1-.88.09-1.13.65-.92,1.42-1.72,2.2-2.57.97-1.04,2.24-2.01.53-3.49,0,0,.13-.18.26-.37.31.26.55.52.86.71.31.13.62.2.93.34.07-.31.14-.69.09-1-.06-.25-.43-.45-.42-.7-.05-.31.08-.69.09-1.06.37.13.75.14,1,.28.43.26.74.65,1.04.97.13-.12.26-.24.39-.37-.24-.38-.55-.7-.72-1.08-.12-.32-.11-.69-.16-1.07.37.07.75.02,1.13.09.37.14.74.46,1.11.72.07-.19.2-.31.32-.43-.37-.32-.74-.58-.92-.9-.24-.38-.42-.89-.34-1.32.21-.93.61-1.8.95-2.86.31.13.87.4,1.42.66.07-.12.19-.25.26-.31-.23-.7-.53-1.39-.82-2.03.13-.12.19-.25.32-.31.62.33,1.3.66,2.16,1.12-.05-.5.02-.88-.1-1.07-.98-.96-.77-1.77.25-2.56,1.21-.91,2.12-1.95.65-3.49-.12-.07.07-.44.15-1,.86.65,1.47,1.17,2.09,1.62.14-.56-.04-.88-.16-1.19-.17-.51-.29-.95-.46-1.39.5.14,1,.21,1.49.35.37.14.68.21,1.49.48-.73-1.02-1.4-1.6-1.38-2.17-.04-1.07.37-2.18.65-3.37.37.26.86.59,1.85,1.24-.23-.88-.34-1.32-.39-1.76-.12-.38-.35-.95-.22-1.13.58-.74,1.29-1.41,1.93-2.08.71-.8,1.48-1.59,1.94-2.52.13-.31-.48-1.01-.77-1.59,0-.06.07-.12.13-.25-1.07.1-2.13.2-2.56-.25-1.52-1.61-2.92-.89-4.44-.49-1.7.39-3.4.79-5-.38-.26.49-.53.93-.92,1.48-.61-.7-1.1-1.22-1.77-1.93-.4.87-.73,1.48-1.19,2.48-.51-1.96-1.44-2.29-2.84-1.64-.76.29-1.65.65-2.33.44-.75-.14-1.29-.91-2.03-1.43-.14.69-.28,1.31-.42,1.87-.61-.52-1.22-1.35-1.71-1.61-.12-.13-.25-.13-.37-.13-2.26.25-4.53.89-7.18,1.51-.56-.14.63-2.74-1.59-1.67.06.25.12.38.11.57l-.22,1.31c-.3-.32-.61-.64-.98-.9-.43-.26-.92-.59-1.43-.6-1.75-.05-3.61,1.35-5.12-.57-.12-.13-.5-.2-.75-.14-1.76.14-3.52.35-5.28.49-1.32.15-3.09.67-3.89.09-1.53-1.29-2.73-.89-4.31-.49-1.64.4-3.35,1.17-4.88-.38-.59,1.11-1.14,2.92-1.95.2,0-.13-.24-.26-.43-.26-2.31-.12-4.52.45-6.92,1.26.43.51.79.77.79.96.05.44-.15.87-.22,1.31-.43-.51-.85-1.09-1.21-1.66-.12-.19-.18-.38-.17-.57-.28-1.32-1.2-1.85-2.46-1.69-.57.11-1.19.16-1.76.27-2.01.26-3.96.52-5.6.79-1.11-.53-1.85-1.24-2.54-1.19-2.57.25-5.16.74-7.73,1.12-.44.05-.88-.02-1.31-.03.2-.43.4-.87.59-1.17-2.44,0-5.07,0-7.77-.01.17.82-.15,1-.59,1.05,0,.25.05.44.17.57Zm82.7,4.64c.19,0,.5.2.55.39.29,1.01.45,2.02.67,3.02-.19.12-.38.18-.57.3-.41-1.08-.89-2.09-1.23-3.16,0-.19.39-.43.58-.55Zm-37.56,71.76c-.13.06-.5-.08-.62-.2-.55-.64-1.03-1.34-1.69-2.3,1.57-.02,2.17.75,2.58,1.82.06.19-.08.56-.27.68Zm-30.68-73.28c.61.45,1.75.36,1.78,1.49-.13.18-.26.31-.39.49-.55-.58-1.1-1.09-1.71-1.61.13-.12.19-.25.32-.37Zm-8.25,4.23c.67.58,1.41,1.16,2.02,1.81.12.13.05.57-.08.69-.13.12-.57.11-.69-.02-.61-.64-1.09-1.34-1.64-2.05.13-.12.26-.24.39-.43Z"/>
        <path class="cls-1" d="m.46,111.5c.61.58,1.66,1.3,1.59,1.67-.55,1.74.43,2.58,2.23,3.5-1.26.41-2.02.64-2.65.87.48.64.91,1.21,1.33,1.79-.75.11-1.57.15-2.95.3.8.58,1.36.85,1.72,1.3.36.45.85,1.09.71,1.52-.43,2.12-1.05,4.11-1.6,6.35,2.26,0,2.11.87,1.38,2.54-.73,1.42-.9,3.17-1.25,4.79-.07.19.05.5.17.63.61.58,1.22,1.1,1.84,1.61-.76.23-1.45.53-2.65.87,2.68.51,2.27,1.88,1.66,3.49-.61,1.61-.71,3.11,1.6,3.61,0,0,.06.19.17.63-.94.04-1.76.08-2.19.07,7.65,4.58,15.48,9.3,23.44,14.14.13-.06.57-.3.57-.3,1.1.97,1.89,1.87,2.82,2.52,2.65,1.89,5.69,3.03,8.26,5.04,1.72,1.3,3.83,2.1,5.87,3.22,1.17.78,2.4,1.75,3.69,2.6,1.05.65,2.67.95,3.09,1.83.83,1.9,2.44,2.38,3.99,3.17.37.2.67.64,1.16,1.22-1.07.22-1.7.33-2.08.38.41.95,1.27,1.79,1.13,2.35-.48,1.68-1.21,3.23.07,4.51.3.38.74.65,1.35.97-.82.04-1.38.03-2.01.01-.31.05-.69.04-1.13.03.61.77,1.03,1.28,1.45,1.92.25.19.43.51.67.77-.5-.01-.88.04-1.26.09-.56-.01-1.07.04-1.76.08.49.39.86.59,1.11.78.06.06.12.13.18.19.36.57.78,1.21.77,1.77-.11,1.81-1.6,3.78.99,5.23-1.01.22-1.7.33-2.27.51.67.77,1.59,1.42,1.58,1.98-.1,1.5-.45,3.06-.99,4.42-.6,1.49-.88,2.61,1.05,3.16.19.07.3.57.54,1.08-.62-.08-.94-.15-1.31-.1-.44.05-.94.16-1.45.21.37.32.74.58.92.9.36.51.85,1.15.77,1.65-.36,1.81-.97,3.55-1.39,5.35-.07.44.48.95.78,1.4.3.45.73.83,1.4,1.67-1.31-.22-1.93-.36-2.56-.44-.07.12-.13.31-.2.5.37.26.8.46,1.04.84.3.45.73,1.02.65,1.52-.29,1.62-.71,3.3-1.19,4.92-.21.87-.22,1.37.71,1.77.31.13.42.64.6,1.02-.38.12-.76.23-1.14.28-.31.05-.63.05-1,.1,1.1,1.03,2.46,1.82,1.79,3.62.57-.11,1.19-.16,1.76-.27,1.26-.16,2.18.37,2.46,1.69,0,.19.05.38.17.57.36.57.78,1.15,1.21,1.66.07-.44.27-.87.22-1.31,0-.19-.36-.45-.79-.96,2.4-.82,4.61-1.38,6.92-1.26.19,0,.44.14.43.26.81,2.71,1.35.91,1.95-.2,1.53,1.54,3.24.77,4.88.38,1.58-.4,2.78-.81,4.31.49.8.58,2.57.07,3.89-.09,1.76-.14,3.52-.35,5.28-.49.25-.06.63.02.75.14,1.52,1.92,3.37.53,5.12.57.5.01.99.34,1.43.6.37.26.67.58.98.9l.22-1.31c0-.19-.05-.31-.11-.57,2.22-1.07,1.03,1.53,1.59,1.67,2.65-.62,4.92-1.25,7.18-1.51.13,0,.25,0,.37.13.17-1.56.21-3.31,2.88-2.43-.49-.51-.98-.71-1.35-1.04s-.85-.96-.72-1.27c.35-1.24.94-2.48,1.54-3.78-.74-.52-1.35-.97-2.28-1.63,1.08-.41,1.9-.7,2.72-.99-.8-.58-1.29-.97-1.84-1.36.76-.23,1.45-.46,2.59-.81-.68-.46-1.17-.66-1.54-1.04-.43-.39-1.04-1.15-1.03-1.28,1.16-1.22.3-2.06-.62-2.84.88-.16,1.64-.33,2.39-.5,0-.19.07-.37.14-.56-.74-.46-1.48-.98-2.4-1.63.88-.23,1.64-.4,2.4-.56-.8-.71-1.85-1.18-1.9-1.74-.03-1.13.31-2.37.84-3.42.47-1.05.35-1.49-.77-1.77-.37-.07-.74-.52-1.11-.78.5-.11,1.01-.22,1.45-.28.5-.11.94-.1,1.76-.2-1.04-.9-1.65-1.42-2.64-2.26,1.19-.16,1.82-.27,2.7-.43-.49-.51-.86-.77-1.1-1.09-.18-.32-.29-.76-.47-1.08.44-.05.82-.17,1.19-.16.38-.05.81.02,1.19.09.07-.19.07-.37.14-.56-.93-.53-1.91-1.11-2.9-1.64.46-.8.79-1.36,1.18-2.04-.62-.33-1.11-.66-1.73-.98.95-.29,1.7-.52,2.72-.87-.98-.71-1.6-1.11-2.52-1.76.63-.11,1.07-.22,1.51-.34.5-.05.88-.1,1.32-.22-.85-.9-1.97-1.49-2.07-2.18-.04-.94.68-1.99,1.08-2.98,0-.06,0-.13.07-.19.4-.87.22-1.44-.83-1.65-.37-.07-.68-.27-1.05-.4v-.44c.77-.11,1.58-.21,2.59-.37-.67-.83-1.15-1.41-1.82-2.18,1.01-.16,1.64-.27,2.14-.32-.6-.96-1.15-1.66-1.69-2.42.88-.1,1.76-.2,3.14-.36-1.73-.86-3.09-1.77-2.28-3.76,0-.06-.55-.39-.86-.59-.31-.26-.55-.52-1.04-.9,1.01-.22,1.76-.33,2.52-.44-.42-.64-.92-.78-1.16-1.09-.3-.38-.6-.96-.53-1.39.23-1.43.76-2.86.93-4.3.15-1.06-.07-2.26-.16-3.58.13-.06.7-.42,1.46-.84-1.42-.73-2.1-1.31-1.43-2.92.47-1.3,1.22-3.48-1.27-4.29-.06,0,0-.19.01-.44.44-.05.82-.1,1.25-.03.44.01.81.15,1.25.22-.06-.25-.11-.57-.17-.82-.49-.51-1.04-1.09-1.59-1.61.7-.23,1.39-.53,2.28-.88-.43-.2-.68-.39-.99-.53-1.11-.66-2.92-1.14-3.14-1.96-.51-2.21-2.07-2.25-3.56-2.66-1.68-.48-3.36-1.03-4.19-2.8-.44.24-.89.48-1.53.84-.16-.94-.33-1.7-.56-2.58-.83.54-1.34.91-2.3,1.57.55-1.99-.05-2.76-1.62-2.92-.81-.08-1.75-.23-2.24-.75-.55-.45-.72-1.4-1.07-2.28-.45.55-.84,1.04-1.23,1.47-.35-1.01-.44-2.39-1-2.59-2.11-.93-4.35-1.43-6.96-2.25-.37-.39,1.93-2.08-.51-2.27-.07.25-.14.44-.26.56-.26.37-.52.68-.78,1.04-.11-.44-.23-.88-.4-1.33-.24-.44-.54-.95-.91-1.21-1.54-.85-3.81-.6-4.18-3.05-.06-.19-.3-.38-.55-.52-1.61-.73-3.28-1.4-4.89-2.19-1.18-.53-2.98-.95-3.33-1.9-.7-1.83-1.95-2.12-3.5-2.6-1.62-.42-3.49-.59-4.06-2.74-1.08.72-2.37,2.01-1.73-.73,0-.12-.12-.38-.24-.51-1.97-1.24-4.15-1.86-6.64-2.36.11.69.29,1.07.22,1.26-.2.37-.58.67-.9,1.04-.04-.69-.15-1.38-.2-2.07,0-.19.07-.37.14-.56.41-1.31-.13-2.2-1.31-2.73-2.42-1-4.9-1.94-6.88-2.75-.66-1.02-.95-1.97-1.57-2.3-2.35-1.06-4.84-1.94-7.25-2.94-.44-.14-.8-.46-1.17-.66.38-.3.77-.54,1.15-.78-2.1-1.18-4.38-2.49-6.79-3.87-.55,1.87-1.62-.36-2.56-.19-.38.12-.93-.4-1.36-.66.5-.11.94-.16,1.45-.28l.63.02c0-.19.07-.31.07-.44-2.04-.99-4.15-1.99-6.31-2.98-1.42-3.17-5.76-2.59-7.88-5.53-.6,1.24-1.32,2.53-1.35,3.79-.02.75,1.09,1.59,1.88,2.55l-2.82-.07c.61.83,1.6,1.11,1.78,1.61.3.7-.04,1.63-.19,2.5-.01.44-.09,1-.35,1.37-.46.93-.42,1.56.7,1.83.31.07.56.27.93.53-.95.35-1.71.64-2.47.94.06.19.12.32.17.51.56.26,1.12.47,2.17.93-1.33.4-2.21.63-3.54,1.04q2.67.95,2.09,4.13c-.3,1.93-1.77.46-2.59.87Zm86.95,34.32c0-.06.51-.17.75-.11.19,0,.37.39.3.57-.28,1-.62,1.99-.89,2.98-.25-.07-.44-.07-.69-.08.15-1.12.31-2.25.53-3.37Z"/>
      </g>
      <g id="_Radial_Repeat_-3" data-name="&amp;lt;Radial Repeat&amp;gt;">
        <path class="cls-1" d="m100.11,26.44c-.96.66-1.85,1.46-2.81,2.12-.57.42-1.41,1.15-1.97,1.01-1.87-.42-2.72.93-3.93,1.78-1.21.85-2.54,1.5-3.88,2.34,0,0,.12.32.41,1.01-2.17-1.06-3.39.1-4.61,1.32-.71.8-1.81,2.02-2.49,1.88-1.99-.43-3.03.92-4.31,1.77-1.02.66-2.04,1.33-2.93,1.93-.76.36-1.14.6-1.59.77-.57.24-1.2.28-1.77.58-1.08.6-2.16,1.26-3.31,1.92q-.16,1.31-1.53,1.15c-.31-.07-.69-.02-.94.1-2.29,1.26-4.39,2.77-6.8,3.71-2.54,1.12-4.17,3.78-7.06,4.2-.13.06-.32.12-.5.11-.25,0-.45.3-.64.48-1.4.9-2.8,1.87-4.21,2.77-.51.3-1.08.6-1.65.9-.38.3-.95.23-1.39.4-2.4.94-4.03,3.15-6.8,3.58-1.45.21-2.62,1.81-4.02,2.65-1.15.72-1.94,2.27-3.74,1.85-.19-.07-.45.43-.96.85.75-.04,1.13-.1,1.51-.15,0,.19,0,.38-.08.5-1.58.52-3.16.92-4.68,1.57-1.71.71-3.36,1.54-4.89,2.5-1.53.96-2.87,2.12-4.47,3.33-.25-.13-.68-.33-1.17-.59-.07.19-.2.37-.26.56.3.45.54.95.97,1.34,1.22,1.22,2.51,2.38,3.79,3.48.98.78,1.89,2.12,3.61.97-.14.5-.34,1.06-.68,1.99.7-.23,1.08-.47,1.52-.52.38-.05.94-.04,1.25.22,1.47,1.17,2.82,2.45,4.17,3.62.69-.17,1.2-.34,1.77-.52-.08.62-.1,1.25-.11,1.88.69-.11,1.38-.21,2.08-.32-.27.68-.48,1.43-.82,2.49.64-.42.96-.79,1.4-.9.38-.12,1.07-.1,1.38.1.86.71,1.59,1.54,2.38,2.32.57-.3,1.02-.54,1.4-.84.31.13.62.2.93.34-.58.49-1.09,1.04-1.67,1.52.25.13.56.2.81.33.38-.12.76-.36,1.14-.41s.81.08,1.19.09c-.14.37-.33.68-.47,1.05-.13.31-.33.68-.46.99.12.13.25.19.37.26.38-.3.65-.74,1.09-.91.32-.12.94-.16,1.06.03,1.21,1.6,2.43,3.01,4.96,1.82-.39.62-.72,1.3-1.05,1.98.71-.67,1.28-.91,1.78-.89,1.32-.03,2.02,1.74,3.07,2.46.06.06.06.13.12.13.97,1.22,1.94,2.37,3.61.85.12,0,.31.07.62.2-.4.74-.73,1.42-1.32,2.53,1.08-.47,1.71-.83,2.85-1.37-.34,1.12-.49,1.8-.75,2.55q1.72-1.08,3.43.46c.57-.36,1.14-.66,1.72-1.02l.3.32c-.33.56-.66,1.11-1.18,1.97.82-.1,1.26-.22,1.76-.21.38-.05.88-.1,1.13.09.92.65,1.72,1.42,2.57,2.2,1.04.97,2.01,2.24,3.49.53,0,0,.18.13.37.26-.26.31-.52.55-.71.86-.13.31-.2.62-.34.93.31.07.69.14,1,.09.25-.06.45-.43.7-.42.31-.05.69.08,1.06.09-.13.37-.14.75-.28,1-.26.43-.65.74-.97,1.04.12.13.24.26.37.39.38-.24.7-.55,1.08-.72.32-.12.69-.11,1.07-.16-.07.37-.02.75-.09,1.13-.14.37-.46.74-.72,1.11.19.07.31.2.43.32.32-.37.58-.74.9-.92.38-.24.89-.42,1.32-.34.93.21,1.8.61,2.86.95-.13.31-.4.87-.66,1.42.12.07.25.19.31.26.7-.23,1.39-.53,2.03-.82.12.13.25.19.31.32-.33.62-.66,1.3-1.12,2.16.5-.05.88.02,1.07-.1.96-.98,1.77-.77,2.56.25.91,1.21,1.95,2.12,3.49.65.07-.12.44.07,1,.15-.65.86-1.17,1.47-1.62,2.09.56.14.88-.04,1.19-.16.51-.17.95-.29,1.39-.46-.14.5-.21,1-.35,1.49-.14.37-.21.68-.48,1.49,1.02-.73,1.6-1.4,2.17-1.38,1.07-.04,2.18.37,3.37.65-.26.37-.59.86-1.24,1.85.88-.23,1.32-.34,1.76-.39.38-.12.95-.35,1.13-.22.74.58,1.41,1.29,2.08,1.93.8.71,1.59,1.48,2.52,1.94.31.13,1.01-.48,1.59-.77.06,0,.12.07.25.13-.1-1.07-.2-2.13.25-2.56,1.61-1.52.89-2.92.49-4.44-.39-1.7-.79-3.4.38-5-.49-.26-.93-.53-1.48-.92.7-.61,1.22-1.1,1.93-1.77-.87-.4-1.48-.73-2.48-1.19,1.96-.51,2.29-1.44,1.64-2.84-.29-.76-.65-1.65-.44-2.33.14-.75.91-1.29,1.43-2.03-.69-.14-1.31-.28-1.87-.42.52-.61,1.35-1.22,1.61-1.71.13-.12.13-.25.13-.37-.25-2.26-.89-4.53-1.51-7.18.14-.56,2.74.63,1.67-1.59-.25.06-.38.12-.57.11l-1.31-.22c.32-.3.64-.61.9-.98.26-.43.59-.92.6-1.43.05-1.75-1.35-3.61.57-5.12.13-.12.2-.5.14-.75-.14-1.76-.35-3.52-.49-5.28-.15-1.32-.67-3.09-.09-3.89,1.29-1.53.89-2.73.49-4.31-.4-1.64-1.17-3.35.38-4.88-1.11-.59-2.92-1.14-.2-1.95.13,0,.26-.24.26-.43.12-2.31-.45-4.52-1.26-6.92-.51.43-.77.79-.96.79-.44.05-.87-.15-1.31-.22.51-.43,1.09-.85,1.66-1.21.19-.12.38-.18.57-.17,1.32-.28,1.85-1.2,1.69-2.46-.11-.57-.16-1.19-.27-1.76-.26-2.01-.52-3.96-.79-5.6.53-1.11,1.24-1.85,1.19-2.54-.25-2.57-.74-5.16-1.12-7.73-.05-.44.02-.88.03-1.31.43.2.87.4,1.17.59,0-2.44,0-5.07.01-7.77-.82.17-1-.15-1.05-.59-.25,0-.44.05-.57.17Zm-4.64,82.7c0,.19-.2.5-.39.55-1.01.29-2.02.45-3.02.67-.12-.19-.18-.38-.3-.57,1.08-.41,2.09-.89,3.16-1.23.19,0,.43.39.55.58ZM23.7,71.58c-.06-.13.08-.5.2-.62.64-.55,1.34-1.03,2.3-1.69.02,1.57-.75,2.17-1.82,2.58-.19.06-.56-.08-.68-.27Zm73.28-30.68c-.45.61-.36,1.75-1.49,1.78-.18-.13-.31-.26-.49-.39.58-.55,1.09-1.1,1.61-1.71.12.13.25.19.37.32Zm-4.23-8.25c-.58.67-1.16,1.41-1.81,2.02-.13.12-.57.05-.69-.08-.12-.13-.11-.57.02-.69.64-.61,1.34-1.09,2.05-1.64.12.13.24.26.43.39Z"/>
        <path class="cls-1" d="m240,.46c-.58.61-1.3,1.66-1.67,1.59-1.74-.55-2.58.43-3.5,2.23-.41-1.26-.64-2.02-.87-2.65-.64.48-1.21.91-1.79,1.33-.11-.75-.15-1.57-.3-2.95-.58.8-.85,1.36-1.3,1.72-.45.36-1.09.85-1.52.71-2.12-.43-4.11-1.05-6.35-1.6,0,2.26-.87,2.11-2.54,1.38-1.42-.73-3.17-.9-4.79-1.25-.19-.07-.5.05-.63.17-.58.61-1.1,1.22-1.61,1.84-.23-.76-.53-1.45-.87-2.65-.51,2.68-1.88,2.27-3.49,1.66-1.61-.61-3.11-.71-3.61,1.6,0,0-.19.06-.63.17-.04-.94-.08-1.76-.07-2.19-4.58,7.65-9.3,15.48-14.14,23.44.06.13.3.57.3.57-.97,1.1-1.87,1.89-2.52,2.82-1.89,2.65-3.03,5.69-5.04,8.26-1.3,1.72-2.1,3.83-3.22,5.87-.78,1.17-1.75,2.4-2.6,3.69-.65,1.05-.95,2.67-1.83,3.09-1.9.83-2.38,2.44-3.17,3.99-.2.37-.64.67-1.22,1.16-.22-1.07-.33-1.7-.38-2.08-.95.41-1.79,1.27-2.35,1.13-1.68-.48-3.23-1.21-4.51.07-.38.3-.65.74-.97,1.35-.04-.82-.03-1.38-.01-2.01-.05-.31-.04-.69-.03-1.13-.77.61-1.28,1.03-1.92,1.45-.19.25-.51.43-.77.67.01-.5-.04-.88-.09-1.26.01-.56-.04-1.07-.08-1.76-.39.49-.59.86-.78,1.11-.06.06-.13.12-.19.18-.57.36-1.21.78-1.77.77-1.81-.11-3.78-1.6-5.23.99-.22-1.01-.33-1.7-.51-2.27-.77.67-1.42,1.59-1.98,1.58-1.5-.1-3.06-.45-4.42-.99-1.49-.6-2.61-.88-3.16,1.05-.07.19-.57.3-1.08.54.08-.62.15-.94.1-1.31-.05-.44-.16-.94-.21-1.45-.32.37-.58.74-.9.92-.51.36-1.15.85-1.65.77-1.81-.36-3.55-.97-5.35-1.39-.44-.07-.95.48-1.4.78-.45.3-.83.73-1.67,1.4.22-1.31.36-1.93.44-2.56-.12-.07-.31-.13-.5-.2-.26.37-.46.8-.84,1.04-.45.3-1.02.73-1.52.65-1.62-.29-3.3-.71-4.92-1.19-.87-.21-1.37-.22-1.77.71-.13.31-.64.42-1.02.6-.12-.38-.23-.76-.28-1.14-.05-.31-.05-.63-.1-1-1.03,1.1-1.82,2.46-3.62,1.79.11.57.16,1.19.27,1.76.16,1.26-.37,2.18-1.69,2.46-.19,0-.38.05-.57.17-.57.36-1.15.78-1.66,1.21.44.07.87.27,1.31.22.19,0,.45-.36.96-.79.82,2.4,1.38,4.61,1.26,6.92,0,.19-.14.44-.26.43-2.71.81-.91,1.35.2,1.95-1.54,1.53-.77,3.24-.38,4.88.4,1.58.81,2.78-.49,4.31-.58.8-.07,2.57.09,3.89.14,1.76.35,3.52.49,5.28.06.25-.02.63-.14.75-1.92,1.52-.53,3.37-.57,5.12-.01.5-.34.99-.6,1.43-.26.37-.58.67-.9.98l1.31.22c.19,0,.31-.05.57-.11,1.07,2.22-1.53,1.03-1.67,1.59.62,2.65,1.25,4.92,1.51,7.18,0,.13,0,.25-.13.37,1.56.17,3.31.21,2.43,2.88.51-.49.71-.98,1.04-1.35s.96-.85,1.27-.72c1.24.35,2.48.94,3.78,1.54.52-.74.97-1.35,1.63-2.28.41,1.08.7,1.9.99,2.72.58-.8.97-1.29,1.36-1.84.23.76.46,1.45.81,2.59.46-.68.66-1.17,1.04-1.54.39-.43,1.15-1.04,1.28-1.03,1.22,1.16,2.06.3,2.84-.62.16.88.33,1.64.5,2.39.19,0,.37.07.56.14.46-.74.98-1.48,1.63-2.4.23.88.4,1.64.56,2.4.71-.8,1.18-1.85,1.74-1.9,1.13-.03,2.37.31,3.42.84,1.05.47,1.49.35,1.77-.77.07-.37.52-.74.78-1.11.11.5.22,1.01.28,1.45.11.5.1.94.2,1.76.9-1.04,1.42-1.65,2.26-2.64.16,1.19.27,1.82.43,2.7.51-.49.77-.86,1.09-1.1.32-.18.76-.29,1.08-.47.05.44.17.82.16,1.19.05.38-.02.81-.09,1.19.19.07.37.07.56.14.53-.93,1.11-1.91,1.64-2.9.8.46,1.36.79,2.04,1.18.33-.62.66-1.11.98-1.73.29.95.52,1.7.87,2.72.71-.98,1.11-1.6,1.76-2.52.11.63.22,1.07.34,1.51.05.5.1.88.22,1.32.9-.85,1.49-1.97,2.18-2.07.94-.04,1.99.68,2.98,1.08.06,0,.13,0,.19.07.87.4,1.44.22,1.65-.83.07-.37.27-.68.4-1.05h.44c.11.77.21,1.58.37,2.59.83-.67,1.41-1.15,2.18-1.82.16,1.01.27,1.64.32,2.14.96-.6,1.66-1.15,2.42-1.69.1.88.2,1.76.36,3.14.86-1.73,1.77-3.09,3.76-2.28.06,0,.39-.55.59-.86.26-.31.52-.55.9-1.04.22,1.01.33,1.76.44,2.52.64-.42.78-.92,1.09-1.16.38-.3.96-.6,1.39-.53,1.43.23,2.86.76,4.3.93,1.06.15,2.26-.07,3.58-.16.06.13.42.7.84,1.46.73-1.42,1.31-2.1,2.92-1.43,1.3.47,3.48,1.22,4.29-1.27,0-.06.19,0,.44.01.05.44.1.82.03,1.25-.01.44-.15.81-.22,1.25.25-.06.57-.11.82-.17.51-.49,1.09-1.04,1.61-1.59.23.7.53,1.39.88,2.28.2-.43.39-.68.53-.99.66-1.11,1.14-2.92,1.96-3.14,2.21-.51,2.25-2.07,2.66-3.56.48-1.68,1.03-3.36,2.8-4.19-.24-.44-.48-.89-.84-1.53.94-.16,1.7-.33,2.58-.56-.54-.83-.91-1.34-1.57-2.3,1.99.55,2.76-.05,2.92-1.62.08-.81.23-1.75.75-2.24.45-.55,1.4-.72,2.28-1.07-.55-.45-1.04-.84-1.47-1.23,1.01-.35,2.39-.44,2.59-1,.93-2.11,1.43-4.35,2.25-6.96.39-.37,2.08,1.93,2.27-.51-.25-.07-.44-.14-.56-.26-.37-.26-.68-.52-1.04-.78.44-.11.88-.23,1.33-.4.44-.24.95-.54,1.21-.91.85-1.54.6-3.81,3.05-4.18.19-.06.38-.3.52-.55.73-1.61,1.4-3.28,2.19-4.89.53-1.18.95-2.98,1.9-3.33,1.83-.7,2.12-1.95,2.6-3.5.42-1.62.59-3.49,2.74-4.06-.72-1.08-2.01-2.37.73-1.73.12,0,.38-.12.51-.24,1.24-1.97,1.86-4.15,2.36-6.64-.69.11-1.07.29-1.26.22-.37-.2-.67-.58-1.04-.9.69-.04,1.38-.15,2.07-.2.19,0,.37.07.56.14,1.31.41,2.2-.13,2.73-1.31,1-2.42,1.94-4.9,2.75-6.88,1.02-.66,1.97-.95,2.3-1.57,1.06-2.35,1.94-4.84,2.94-7.25.14-.44.46-.8.66-1.17.3.38.54.77.78,1.15,1.18-2.1,2.49-4.38,3.87-6.79-1.87-.55.36-1.62.19-2.56-.12-.38.4-.93.66-1.36.11.5.16.94.28,1.45l-.02.63c.19,0,.31.07.44.07.99-2.04,1.99-4.15,2.98-6.31,3.17-1.42,2.59-5.76,5.53-7.88-1.24-.6-2.53-1.32-3.79-1.35-.75-.02-1.59,1.09-2.55,1.88l.07-2.82c-.83.61-1.11,1.6-1.61,1.78-.7.3-1.63-.04-2.5-.19-.44-.01-1-.09-1.37-.35-.93-.46-1.56-.42-1.83.7-.07.31-.27.56-.53.93-.35-.95-.64-1.71-.94-2.47-.19.06-.32.12-.51.17-.26.56-.47,1.12-.93,2.17-.4-1.33-.63-2.21-1.04-3.54q-.95,2.67-4.13,2.09c-1.93-.3-.46-1.77-.87-2.59Zm-34.32,86.95c.06,0,.17.51.11.75,0,.19-.39.37-.57.3-1-.28-1.99-.62-2.98-.89.07-.25.07-.44.08-.69,1.12.15,2.25.31,3.37.53Z"/>
      </g>
      <g id="_Radial_Repeat_-4" data-name="&amp;lt;Radial Repeat&amp;gt;">
        <path class="cls-1" d="m325.06,100.11c-.66-.96-1.46-1.85-2.12-2.81-.42-.57-1.15-1.41-1.01-1.97.42-1.87-.93-2.72-1.78-3.93-.85-1.21-1.5-2.54-2.34-3.88,0,0-.32.12-1.01.41,1.06-2.17-.1-3.39-1.32-4.61-.8-.71-2.02-1.81-1.88-2.49.43-1.99-.92-3.03-1.77-4.31-.66-1.02-1.33-2.04-1.93-2.93-.36-.76-.6-1.14-.77-1.59-.24-.57-.28-1.2-.58-1.77-.6-1.08-1.26-2.16-1.92-3.31q-1.31-.16-1.15-1.53c.07-.31.02-.69-.1-.94-1.26-2.29-2.77-4.39-3.71-6.8-1.12-2.54-3.78-4.17-4.2-7.06-.06-.13-.12-.32-.11-.5,0-.25-.3-.45-.48-.64-.9-1.4-1.87-2.8-2.77-4.21-.3-.51-.6-1.08-.9-1.65-.3-.38-.23-.95-.4-1.39-.94-2.4-3.15-4.03-3.58-6.8-.21-1.45-1.81-2.62-2.65-4.02-.72-1.15-2.27-1.94-1.85-3.74.07-.19-.43-.45-.85-.96.04.75.1,1.13.15,1.51-.19,0-.38,0-.5-.08-.52-1.58-.92-3.16-1.57-4.68-.71-1.71-1.54-3.36-2.5-4.89-.96-1.53-2.12-2.87-3.33-4.47.13-.25.33-.68.59-1.17-.19-.07-.37-.2-.56-.26-.45.3-.95.54-1.34.97-1.22,1.22-2.38,2.51-3.48,3.79-.78.98-2.12,1.89-.97,3.61-.5-.14-1.06-.34-1.99-.68.23.7.47,1.08.52,1.52.05.38.04.94-.22,1.25-1.17,1.47-2.45,2.82-3.62,4.17.17.69.34,1.2.52,1.77-.62-.08-1.25-.1-1.88-.11.11.69.21,1.38.32,2.08-.68-.27-1.43-.48-2.49-.82.42.64.79.96.9,1.4.12.38.1,1.07-.1,1.38-.71.86-1.54,1.59-2.32,2.38.3.57.54,1.02.84,1.4-.13.31-.2.62-.34.93-.49-.58-1.04-1.09-1.52-1.67-.13.25-.2.56-.33.81.12.38.36.76.41,1.14s-.08.81-.09,1.19c-.37-.14-.68-.33-1.05-.47-.31-.13-.68-.33-.99-.46-.13.12-.19.25-.26.37.3.38.74.65.91,1.09.12.32.16.94-.03,1.06-1.6,1.21-3.01,2.43-1.82,4.96-.62-.39-1.3-.72-1.98-1.05.67.71.91,1.28.89,1.78.03,1.32-1.74,2.02-2.46,3.07-.06.06-.13.06-.13.12-1.22.97-2.37,1.94-.85,3.61,0,.12-.07.31-.2.62-.74-.4-1.42-.73-2.53-1.32.47,1.08.83,1.71,1.37,2.85-1.12-.34-1.8-.49-2.55-.75q1.08,1.72-.46,3.43c.36.57.66,1.14,1.02,1.72l-.32.3c-.56-.33-1.11-.66-1.97-1.18.1.82.22,1.26.21,1.76.05.38.1.88-.09,1.13-.65.92-1.42,1.72-2.2,2.57-.97,1.04-2.24,2.01-.53,3.49,0,0-.13.18-.26.37-.31-.26-.55-.52-.86-.71-.31-.13-.62-.2-.93-.34-.07.31-.14.69-.09,1,.06.25.43.45.42.7.05.31-.08.69-.09,1.06-.37-.13-.75-.14-1-.28-.43-.26-.74-.65-1.04-.97-.13.12-.26.24-.39.37.24.38.55.7.72,1.08.12.32.11.69.16,1.07-.37-.07-.75-.02-1.13-.09-.37-.14-.74-.46-1.11-.72-.07.19-.2.31-.32.43.37.32.74.58.92.9.24.38.42.89.34,1.32-.21.93-.61,1.8-.95,2.86-.31-.13-.87-.4-1.42-.66-.07.12-.19.25-.26.31.23.7.53,1.39.82,2.03-.13.12-.19.25-.32.31-.62-.33-1.3-.66-2.16-1.12.05.5-.02.88.1,1.07.98.96.77,1.77-.25,2.56-1.21.91-2.12,1.95-.65,3.49.12.07-.07.44-.15,1-.86-.65-1.47-1.17-2.09-1.62-.14.56.04.88.16,1.19.17.51.29.95.46,1.39-.5-.14-1-.21-1.49-.35-.37-.14-.68-.21-1.49-.48.73,1.02,1.4,1.6,1.38,2.17.04,1.07-.37,2.18-.65,3.37-.37-.26-.86-.59-1.85-1.24.23.88.34,1.32.39,1.76.12.38.35.95.22,1.13-.58.74-1.29,1.41-1.93,2.08-.71.8-1.48,1.59-1.94,2.52-.13.31.48,1.01.77,1.59,0,.06-.07.12-.13.25,1.07-.1,2.13-.2,2.56.25,1.52,1.61,2.92.89,4.44.49,1.7-.39,3.4-.79,5,.38.26-.49.53-.93.92-1.48.61.7,1.1,1.22,1.77,1.93.4-.87.73-1.48,1.19-2.48.51,1.96,1.44,2.29,2.84,1.64.76-.29,1.65-.65,2.33-.44.75.14,1.29.91,2.03,1.43.14-.69.28-1.31.42-1.87.61.52,1.22,1.35,1.71,1.61.12.13.25.13.37.13,2.26-.25,4.53-.89,7.18-1.51.56.14-.63,2.74,1.59,1.67-.06-.25-.12-.38-.11-.57l.22-1.31c.3.32.61.64.98.9.43.26.92.59,1.43.6,1.75.05,3.61-1.35,5.12.57.12.13.5.2.75.14,1.76-.14,3.52-.35,5.28-.49,1.32-.15,3.09-.67,3.89-.09,1.53,1.29,2.73.89,4.31.49,1.64-.4,3.35-1.17,4.88.38.59-1.11,1.14-2.92,1.95-.2,0,.13.24.26.43.26,2.31.12,4.52-.45,6.92-1.26-.43-.51-.79-.77-.79-.96-.05-.44.15-.87.22-1.31.43.51.85,1.09,1.21,1.66.12.19.18.38.17.57.28,1.32,1.2,1.85,2.46,1.69.57-.11,1.19-.16,1.76-.27,2.01-.26,3.96-.52,5.6-.79,1.11.53,1.85,1.24,2.54,1.19,2.57-.25,5.16-.74,7.73-1.12.44-.05.88.02,1.31.03-.2.43-.4.87-.59,1.17,2.44,0,5.07,0,7.77.01-.17-.82.15-1,.59-1.05,0-.25-.05-.44-.17-.57Zm-82.7-4.64c-.19,0-.5-.2-.55-.39-.29-1.01-.45-2.02-.67-3.02.19-.12.38-.18.57-.3.41,1.08.89,2.09,1.23,3.16,0,.19-.39.43-.58.55Zm37.56-71.76c.13-.06.5.08.62.2.55.64,1.03,1.34,1.69,2.3-1.57.02-2.17-.75-2.58-1.82-.06-.19.08-.56.27-.68Zm30.68,73.28c-.61-.45-1.75-.36-1.78-1.49.13-.18.26-.31.39-.49.55.58,1.1,1.09,1.71,1.61-.13.12-.19.25-.32.37Zm8.25-4.23c-.67-.58-1.41-1.16-2.02-1.81-.12-.13-.05-.57.08-.69.13-.12.57-.11.69.02.61.64,1.09,1.34,1.64,2.05-.13.12-.26.24-.39.43Z"/>
        <path class="cls-1" d="m351.04,240c-.61-.58-1.66-1.3-1.59-1.67.55-1.74-.43-2.58-2.23-3.5,1.26-.41,2.02-.64,2.65-.87-.48-.64-.91-1.21-1.33-1.79.75-.11,1.57-.15,2.95-.3-.8-.58-1.36-.85-1.72-1.3-.36-.45-.85-1.09-.71-1.52.43-2.12,1.05-4.11,1.6-6.35-2.26,0-2.11-.87-1.38-2.54.73-1.42.9-3.17,1.25-4.79.07-.19-.05-.5-.17-.63-.61-.58-1.22-1.1-1.84-1.61.76-.23,1.45-.53,2.65-.87-2.68-.51-2.27-1.88-1.66-3.49.61-1.61.71-3.11-1.6-3.61,0,0-.06-.19-.17-.63.94-.04,1.76-.08,2.19-.07-7.65-4.58-15.48-9.3-23.44-14.14-.13.06-.57.3-.57.3-1.1-.97-1.89-1.87-2.82-2.52-2.65-1.89-5.69-3.03-8.26-5.04-1.72-1.3-3.83-2.1-5.87-3.22-1.17-.78-2.4-1.75-3.69-2.6-1.05-.65-2.67-.95-3.09-1.83-.83-1.9-2.44-2.38-3.99-3.17-.37-.2-.67-.64-1.16-1.22,1.07-.22,1.7-.33,2.08-.38-.41-.95-1.27-1.79-1.13-2.35.48-1.68,1.21-3.23-.07-4.51-.3-.38-.74-.65-1.35-.97.82-.04,1.38-.03,2.01-.01.31-.05.69-.04,1.13-.03-.61-.77-1.03-1.28-1.45-1.92-.25-.19-.43-.51-.67-.77.5.01.88-.04,1.26-.09.56.01,1.07-.04,1.76-.08-.49-.39-.86-.59-1.11-.78-.06-.06-.12-.13-.18-.19-.36-.57-.78-1.21-.77-1.77.11-1.81,1.6-3.78-.99-5.23,1.01-.22,1.7-.33,2.27-.51-.67-.77-1.59-1.42-1.58-1.98.1-1.5.45-3.06.99-4.42.6-1.49.88-2.61-1.05-3.16-.19-.07-.3-.57-.54-1.08.62.08.94.15,1.31.1.44-.05.94-.16,1.45-.21-.37-.32-.74-.58-.92-.9-.36-.51-.85-1.15-.77-1.65.36-1.81.97-3.55,1.39-5.35.07-.44-.48-.95-.78-1.4-.3-.45-.73-.83-1.4-1.67,1.31.22,1.93.36,2.56.44.07-.12.13-.31.2-.5-.37-.26-.8-.46-1.04-.84-.3-.45-.73-1.02-.65-1.52.29-1.62.71-3.3,1.19-4.92.21-.87.22-1.37-.71-1.77-.31-.13-.42-.64-.6-1.02.38-.12.76-.23,1.14-.28.31-.05.63-.05,1-.1-1.1-1.03-2.46-1.82-1.79-3.62-.57.11-1.19.16-1.76.27-1.26.16-2.18-.37-2.46-1.69,0-.19-.05-.38-.17-.57-.36-.57-.78-1.15-1.21-1.66-.07.44-.27.87-.22,1.31,0,.19.36.45.79.96-2.4.82-4.61,1.38-6.92,1.26-.19,0-.44-.14-.43-.26-.81-2.71-1.35-.91-1.95.2-1.53-1.54-3.24-.77-4.88-.38-1.58.4-2.78.81-4.31-.49-.8-.58-2.57-.07-3.89.09-1.76.14-3.52.35-5.28.49-.25.06-.63-.02-.75-.14-1.52-1.92-3.37-.53-5.12-.57-.5-.01-.99-.34-1.43-.6-.37-.26-.67-.58-.98-.9l-.22,1.31c0,.19.05.31.11.57-2.22,1.07-1.03-1.53-1.59-1.67-2.65.62-4.92,1.25-7.18,1.51-.13,0-.25,0-.37-.13-.17,1.56-.21,3.31-2.88,2.43.49.51.98.71,1.35,1.04s.85.96.72,1.27c-.35,1.24-.94,2.48-1.54,3.78.74.52,1.35.97,2.28,1.63-1.08.41-1.9.7-2.72.99.8.58,1.29.97,1.84,1.36-.76.23-1.45.46-2.59.81.68.46,1.17.66,1.54,1.04.43.39,1.04,1.15,1.03,1.28-1.16,1.22-.3,2.06.62,2.84-.88.16-1.64.33-2.39.5,0,.19-.07.37-.14.56.74.46,1.48.98,2.4,1.63-.88.23-1.64.4-2.4.56.8.71,1.85,1.18,1.9,1.74.03,1.13-.31,2.37-.84,3.42-.47,1.05-.35,1.49.77,1.77.37.07.74.52,1.11.78-.5.11-1.01.22-1.45.28-.5.11-.94.1-1.76.2,1.04.9,1.65,1.42,2.64,2.26-1.19.16-1.82.27-2.7.43.49.51.86.77,1.1,1.09.18.32.29.76.47,1.08-.44.05-.82.17-1.19.16-.38.05-.81-.02-1.19-.09-.07.19-.07.37-.14.56.93.53,1.91,1.11,2.9,1.64-.46.8-.79,1.36-1.18,2.04.62.33,1.11.66,1.73.98-.95.29-1.7.52-2.72.87.98.71,1.6,1.11,2.52,1.76-.63.11-1.07.22-1.51.34-.5.05-.88.1-1.32.22.85.9,1.97,1.49,2.07,2.18.04.94-.68,1.99-1.08,2.98,0,.06,0,.13-.07.19-.4.87-.22,1.44.83,1.65.37.07.68.27,1.05.4v.44c-.77.11-1.58.21-2.59.37.67.83,1.15,1.41,1.82,2.18-1.01.16-1.64.27-2.14.32.6.96,1.15,1.66,1.69,2.42-.88.1-1.76.2-3.14.36,1.73.86,3.09,1.77,2.28,3.76,0,.06.55.39.86.59.31.26.55.52,1.04.9-1.01.22-1.76.33-2.52.44.42.64.92.78,1.16,1.09.3.38.6.96.53,1.39-.23,1.43-.76,2.86-.93,4.3-.15,1.06.07,2.26.16,3.58-.13.06-.7.42-1.46.84,1.42.73,2.1,1.31,1.43,2.92-.47,1.3-1.22,3.48,1.27,4.29.06,0,0,.19-.01.44-.44.05-.82.1-1.25.03-.44-.01-.81-.15-1.25-.22.06.25.11.57.17.82.49.51,1.04,1.09,1.59,1.61-.7.23-1.39.53-2.28.88.43.2.68.39.99.53,1.11.66,2.92,1.14,3.14,1.96.51,2.21,2.07,2.25,3.56,2.66,1.68.48,3.36,1.03,4.19,2.8.44-.24.89-.48,1.53-.84.16.94.33,1.7.56,2.58.83-.54,1.34-.91,2.3-1.57-.55,1.99.05,2.76,1.62,2.92.81.08,1.75.23,2.24.75.55.45.72,1.4,1.07,2.28.45-.55.84-1.04,1.23-1.47.35,1.01.44,2.39,1,2.59,2.11.93,4.35,1.43,6.96,2.25.37.39-1.93,2.08.51,2.27.07-.25.14-.44.26-.56.26-.37.52-.68.78-1.04.11.44.23.88.4,1.33.24.44.54.95.91,1.21,1.54.85,3.81.6,4.18,3.05.06.19.3.38.55.52,1.61.73,3.28,1.4,4.89,2.19,1.18.53,2.98.95,3.33,1.9.7,1.83,1.95,2.12,3.5,2.6,1.62.42,3.49.59,4.06,2.74,1.08-.72,2.37-2.01,1.73.73,0,.12.12.38.24.51,1.97,1.24,4.15,1.86,6.64,2.36-.11-.69-.29-1.07-.22-1.26.2-.37.58-.67.9-1.04.04.69.15,1.38.2,2.07,0,.19-.07.37-.14.56-.41,1.31.13,2.2,1.31,2.73,2.42,1,4.9,1.94,6.88,2.75.66,1.02.95,1.97,1.57,2.3,2.35,1.06,4.84,1.94,7.25,2.94.44.14.8.46,1.17.66-.38.3-.77.54-1.15.78,2.1,1.18,4.38,2.49,6.79,3.87.55-1.87,1.62.36,2.56.19.38-.12.93.4,1.36.66-.5.11-.94.16-1.45.28l-.63-.02c0,.19-.07.31-.07.44,2.04.99,4.15,1.99,6.31,2.98,1.42,3.17,5.76,2.59,7.88,5.53.6-1.24,1.32-2.53,1.35-3.79.02-.75-1.09-1.59-1.88-2.55l2.82.07c-.61-.83-1.6-1.11-1.78-1.61-.3-.7.04-1.63.19-2.5.01-.44.09-1,.35-1.37.46-.93.42-1.56-.7-1.83-.31-.07-.56-.27-.93-.53.95-.35,1.71-.64,2.47-.94-.06-.19-.12-.32-.17-.51-.56-.26-1.12-.47-2.17-.93,1.33-.4,2.21-.63,3.54-1.04q-2.67-.95-2.09-4.13c.3-1.93,1.77-.46,2.59-.87Zm-86.95-34.32c0,.06-.51.17-.75.11-.19,0-.37-.39-.3-.57.28-1,.62-1.99.89-2.98.25.07.44.07.69.08-.15,1.12-.31,2.25-.53,3.37Z"/>
      </g>
    </g>
  </g>
</svg>