<?xml version="1.0" encoding="UTF-8"?>
<svg id="Layer_2" data-name="Layer 2" xmlns="http://www.w3.org/2000/svg" viewBox="0 0 91.42 91.42">
  <defs>
    <style>
      .cls-1 {
        fill: #fff;
        stroke-width: 0px;
      }
    </style>
  </defs>
  <g id="Layer_1-2" data-name="Layer 1">
    <g>
      <g id="_Radial_Repeat_" data-name="&amp;lt;Radial Repeat&amp;gt;">
        <path class="cls-1" d="m36.51,73.64c-.51-.3-.93-.54-1.5-.88l1.49-3.32c-.62-.37-1.08-.64-1.6-.94.44-1.15.85-2.23,1.27-3.32-.53-.34-.94-.6-1.52-.97l.81-1.8c-.08-.6-.1-1.19-.07-1.77-1.03-.75-.89-.95.1-2.19.08.02.16.05.24.07.25-.92.61-1.82,1.09-2.7.24-.45.51-.89.77-1.33.51-1.64,1.14-3.14,1.97-4.63l-.31-.14,2.3-5.12c.61.15,1.13.28,1.76.44l2.99-6.67c.63.18,1.13.32,1.51.42,1.38-.79.6-4.09,3.53-2.6.3-.52.56-.97.83-1.42.6.17,1.1.32,1.61.47l.6-1.34-4.78-2.14c-.32.47-.62.9-1,1.45l-3.18-1.42c-.48,1.47-1.38,1.8-2.62,1.09-.33.53-.6.98-.88,1.42-.59-.16-1.1-.29-1.58-.42-.31.49-.57.9-.89,1.41-1.65-1.07-2.15.03-2.6,1.3-.17.48-.46.93-.68,1.37-.64-.21-1.1-.36-1.72-.56l-2.22,4.95c-.69-.16-1.2-.28-1.75-.41-.47.91-.87,1.77-2.12,1.03-1.11-.66-2.96-.73-1.74-2.81-.53-.35-.97-.64-1.41-.93.16-.58.31-1.08.44-1.56-.51-.34-.94-.63-1.51-1.01l1.45-3.24c-.6-.36-1.06-.63-1.53-.92.15-.57.28-1.08.43-1.69-.5-.18-.93-.34-1.43-.52l-2.21,4.93c-.69-.19-1.19-.32-1.79-.48-.18.5-.34.94-.48,1.35.54.33.95.58,1.38.84-.16.58-.31,1.08-.46,1.63,1.1.57,2.14,1.1,3.34,1.72l-1.45,3.24c.58.37.98.63,1.48.95-.85,1.29-.29,2.09.93,2.55-.15.62-.28,1.13-.4,1.63.49.29.9.53,1.36.8-.17.57-.32,1.07-.5,1.66,1.57.38,1.55,1.42,1.02,2.58.51.3.93.54,1.49.87l-1.45,3.23c.58.37,1.03.65,1.48.94-.15.58-.29,1.09-.42,1.61.5.31.95.59,1.45.9-.15.56-.28,1.06-.41,1.56.48.36.91.66,1.34.98-.2.58-.38,1.07-.56,1.6.54.31,1,.57,1.5.86-.12.54-.24,1.06-.36,1.58.47.33.9.64,1.35.95-.18.57-.33,1.07-.5,1.62.5.31.94.59,1.39.87-.16.59-.29,1.1-.45,1.68,1.44.35,1.6,1.26,1.05,2.4l2.98,1.33,1.36-3.03Z"/>
        <g id="WNsNV2">
          <path class="cls-1" d="m1.36,53.29c.57.18,1.02.33,1.66.53l1.49-3.32c.69.22,1.19.38,1.77.57.56-1.09,1.1-2.12,1.64-3.16.61.17,1.08.3,1.74.49l.81-1.8c.5-.34.95-.72,1.37-1.13,1.24.27,1.3.03,1.57-1.53-.07-.05-.14-.09-.21-.14.52-.79.95-1.67,1.29-2.61.17-.48.33-.97.47-1.46.88-1.47,1.59-2.94,2.14-4.56l.31.14,2.3-5.12c-.52-.35-.96-.65-1.5-1.02l2.99-6.67c-.55-.35-.99-.63-1.32-.84-.33-1.56,2.65-3.17-.41-4.36.19-.57.35-1.07.51-1.56-.53-.33-.97-.61-1.42-.89l.6-1.34,4.78,2.14c-.14.56-.26,1.07-.42,1.71l3.18,1.42c-.77,1.34-.42,2.23.93,2.68-.18.6-.33,1.1-.48,1.6.51.34.95.62,1.37.9-.16.56-.29,1.02-.46,1.6,1.9.52,1.41,1.63.76,2.81-.25.45-.39.96-.56,1.42.58.34,1,.58,1.56.91l-2.22,4.95c.58.4,1.01.71,1.47,1.03-.37.96-.74,1.83.64,2.27,1.23.39,2.51,1.72,3.25-.57.61.16,1.12.3,1.63.43.32-.51.6-.95.87-1.37.6.15,1.1.28,1.76.45l1.45-3.24c.67.21,1.17.37,1.71.53.33-.49.62-.93.97-1.44.47.25.87.47,1.34.73l-2.21,4.93c.6.39,1.04.68,1.55,1.01-.26.47-.48.88-.69,1.25-.61-.19-1.07-.33-1.54-.47-.32.51-.6.95-.91,1.43-1.16-.44-2.24-.86-3.51-1.35l-1.45,3.24c-.66-.18-1.13-.32-1.69-.47-.39,1.49-1.36,1.6-2.52,1.01-.36.53-.66.96-.95,1.39-.54-.17-1-.32-1.5-.48-.31.51-.58.95-.91,1.48-1.33-.91-2.09-.21-2.6.95-.56-.18-1.02-.33-1.64-.53l-1.45,3.23c-.67-.19-1.17-.33-1.69-.48-.33.5-.62.94-.92,1.39-.57-.17-1.07-.32-1.64-.49-.32.48-.61.92-.89,1.34-.59-.13-1.1-.23-1.63-.35-.3.53-.55.99-.82,1.48-.59-.19-1.09-.36-1.64-.54-.32.46-.63.88-.94,1.32-.56-.13-1.08-.25-1.61-.38-.31.51-.58.96-.88,1.45-.56-.16-1.07-.31-1.57-.46-.34.51-.63.95-.96,1.45-1.22-.85-2-.36-2.49.81L0,56.32l1.36-3.03Z"/>
        </g>
      </g>
      <g id="_Radial_Repeat_-2" data-name="&amp;lt;Radial Repeat&amp;gt;">
        <path class="cls-1" d="m26.12,23.78c.52-.29.94-.53,1.51-.86l2.13,2.94c.63-.36,1.09-.62,1.62-.92.77.95,1.5,1.85,2.24,2.76.56-.29.99-.51,1.61-.83l1.15,1.6c.56.23,1.08.51,1.57.83,1.16-.52,1.27-.3,1.85,1.18-.06.06-.12.12-.18.18.67.67,1.27,1.44,1.79,2.3.27.44.52.88.76,1.33,1.17,1.26,2.15,2.56,3.03,4.03l.28-.2,3.29,4.55c-.44.45-.81.83-1.27,1.31l4.28,5.93c-.47.45-.84.82-1.12,1.09,0,1.59,3.24,2.57.48,4.36.3.52.56.97.82,1.42-.45.43-.83.79-1.21,1.16l.86,1.19,4.24-3.07c-.25-.52-.47-.99-.76-1.59l2.82-2.04c-1.03-1.15-.87-2.09.36-2.81-.3-.55-.54-1.01-.79-1.47.43-.43.8-.8,1.16-1.16-.27-.51-.5-.94-.77-1.47,1.75-.89,1.05-1.88.18-2.9-.33-.39-.57-.86-.84-1.28.5-.45.86-.77,1.34-1.21l-3.17-4.39c.48-.51.84-.9,1.23-1.31-.55-.87-1.1-1.64.16-2.35,1.13-.63,2.11-2.19,3.3-.1.56-.28,1.03-.52,1.51-.76.42.43.78.81,1.13,1.16.55-.27,1.02-.5,1.63-.8l2.08,2.87c.61-.34,1.07-.6,1.56-.87.42.41.8.78,1.25,1.22.4-.34.76-.64,1.17-.98l-3.17-4.38c.5-.5.88-.87,1.31-1.31-.35-.41-.65-.76-.93-1.09-.56.31-.98.54-1.41.78-.42-.43-.78-.81-1.18-1.22-1.04.67-2.02,1.3-3.16,2.03l-2.08-2.88c-.61.31-1.04.54-1.56.81-.69-1.38-1.66-1.29-2.68-.47-.46-.44-.84-.8-1.21-1.16-.49.28-.91.52-1.37.78-.41-.43-.77-.82-1.19-1.27-1.11,1.16-2,.63-2.74-.4-.51.29-.93.53-1.5.85l-2.08-2.87c-.61.32-1.08.56-1.55.81-.43-.42-.8-.79-1.18-1.17-.52.28-.99.53-1.5.81-.41-.41-.78-.77-1.15-1.13-.55.24-1.03.45-1.52.67-.4-.46-.74-.86-1.1-1.28-.54.31-1,.58-1.5.86-.41-.38-.8-.74-1.19-1.1-.53.24-1,.46-1.5.69-.41-.44-.76-.82-1.15-1.24-.52.27-.98.52-1.45.77-.43-.43-.81-.8-1.23-1.23-1.02,1.08-1.89.76-2.6-.29l-2.65,1.91,1.95,2.69Z"/>
        <g id="WNsNV2-2" data-name="WNsNV2">
          <path class="cls-1" d="m61.32,3.51c-.44.4-.8.72-1.29,1.17l2.13,2.94c-.54.49-.93.84-1.38,1.25.66,1.03,1.28,2.01,1.92,3-.45.44-.8.78-1.29,1.26l1.15,1.6c.04.6.15,1.18.3,1.75-.86.94-.68,1.11.54,2.13.07-.04.15-.08.22-.12.43.85.97,1.65,1.62,2.42.33.39.68.77,1.03,1.14.83,1.5,1.75,2.85,2.87,4.14l-.28.2,3.29,4.55c.57-.27,1.04-.51,1.64-.79l4.28,5.93c.58-.3,1.04-.54,1.39-.72,1.51.49,1.42,3.89,3.98,1.83.4.45.75.84,1.1,1.22.55-.29,1.01-.54,1.48-.78l.86,1.19-4.24,3.07c-.41-.4-.79-.76-1.27-1.22l-2.82,2.04c-.77-1.34-1.72-1.48-2.78-.54-.43-.45-.79-.83-1.15-1.21-.55.28-1.02.51-1.46.74-.4-.42-.74-.77-1.15-1.2-1.39,1.38-2.11.41-2.81-.74-.27-.44-.64-.81-.95-1.2-.58.33-1,.57-1.57.9l-3.17-4.39c-.64.3-1.11.52-1.63.76-.65-.8-1.22-1.56-2.28-.58-.96.87-2.74,1.32-1.13,3.1-.45.45-.82.82-1.19,1.2.28.53.52,1,.75,1.44-.43.44-.8.81-1.27,1.29l2.08,2.87c-.52.47-.91.83-1.32,1.21.26.53.49,1,.77,1.56-.45.28-.84.52-1.3.8l-3.17-4.38c-.64.32-1.1.56-1.65.84-.28-.46-.52-.85-.74-1.22.47-.43.82-.76,1.18-1.1-.28-.53-.52-.99-.78-1.5.96-.78,1.87-1.51,2.92-2.36l-2.08-2.88c.49-.48.84-.82,1.26-1.23-1.1-1.09-.71-1.98.39-2.69-.28-.58-.5-1.05-.73-1.51.42-.38.78-.7,1.17-1.06-.28-.52-.53-.98-.83-1.52,1.46-.69,1.23-1.7.48-2.73.44-.4.8-.72,1.28-1.16l-2.08-2.87c.5-.48.87-.85,1.26-1.22-.27-.54-.5-1.01-.74-1.49.43-.41.81-.77,1.24-1.17-.26-.52-.49-.98-.72-1.44.4-.45.75-.84,1.12-1.24-.31-.52-.59-.97-.87-1.45.46-.41.86-.77,1.29-1.15-.23-.51-.45-.99-.67-1.48.4-.42.76-.81,1.13-1.21-.29-.52-.54-.98-.82-1.48.42-.4.8-.77,1.18-1.13-.27-.55-.51-1.02-.78-1.55,1.34-.63,1.31-1.55.54-2.56l2.65-1.91,1.95,2.69Z"/>
        </g>
      </g>
      <g id="_Radial_Repeat_-3" data-name="&amp;lt;Radial Repeat&amp;gt;">
        <path class="cls-1" d="m74.5,39.71c0,.6,0,1.08-.01,1.74l-3.61.37c0,.72-.01,1.25-.02,1.86-1.21.19-2.35.38-3.51.56-.03.63-.05,1.12-.08,1.81l-1.96.2c-.48.37-.98.68-1.5.94-.13,1.27-.38,1.25-1.95,1.01-.02-.08-.04-.16-.06-.25-.92.24-1.88.38-2.89.4-.51.01-1.02,0-1.53,0-1.68.38-3.29.59-5,.61l.04.34-5.58.57c-.17-.61-.32-1.12-.5-1.75l-7.27.75c-.16-.63-.29-1.13-.39-1.52-1.37-.8-3.84,1.53-4.01-1.76-.6,0-1.12,0-1.64,0-.15-.6-.27-1.11-.4-1.63l-1.46.15.53,5.21c.57.05,1.09.09,1.76.14l.36,3.46c1.51-.32,2.25.3,2.25,1.72.63.02,1.15.03,1.67.05.16.59.29,1.1.42,1.58.58.02,1.06.04,1.66.06-.11,1.96,1.1,1.85,2.43,1.61.51-.09,1.03-.06,1.53-.09.14.66.24,1.13.37,1.77l5.39-.55c.2.67.35,1.18.52,1.72,1.03-.05,1.97-.13,1.96,1.32-.02,1.3.84,2.93-1.56,2.91-.04.63-.07,1.15-.1,1.69-.58.15-1.09.28-1.57.4-.04.61-.07,1.13-.12,1.81l-3.53.36c-.01.7-.02,1.23-.03,1.79-.57.16-1.08.3-1.68.47.09.52.17.97.27,1.5l5.38-.55c.18.69.32,1.2.47,1.79.53-.1.98-.18,1.41-.26.01-.64.02-1.12.04-1.61.58-.15,1.09-.27,1.64-.41-.06-1.24-.11-2.4-.18-3.75l3.54-.36c.03-.68.05-1.17.08-1.76,1.54.1,1.95-.79,1.75-2.08.61-.18,1.11-.32,1.61-.47,0-.57,0-1.05.01-1.58.58-.14,1.09-.25,1.69-.4-.45-1.55.45-2.05,1.72-2.17,0-.59,0-1.07.01-1.73l3.52-.36c.03-.69.05-1.22.08-1.75.58-.16,1.09-.3,1.6-.44.02-.59.03-1.12.05-1.71.56-.15,1.06-.29,1.56-.43.07-.6.12-1.12.18-1.66.6-.11,1.12-.21,1.66-.31,0-.62,0-1.15,0-1.73.53-.16,1.04-.32,1.55-.48.05-.58.1-1.1.15-1.65.58-.13,1.09-.25,1.65-.38.02-.58.04-1.11.06-1.64.59-.16,1.1-.3,1.68-.45-.42-1.42.29-2.02,1.55-2.11l-.33-3.25-3.3.34Z"/>
        <g id="WNsNV2-3" data-name="WNsNV2">
          <path class="cls-1" d="m74.45,80.33c-.13-.58-.23-1.05-.37-1.7l-3.61.37c-.15-.71-.27-1.22-.39-1.82-1.23.06-2.38.11-3.55.16-.16-.61-.28-1.08-.45-1.75l-1.96.2c-.54-.26-1.1-.46-1.66-.62-.38-1.21-.62-1.14-2.11-.59,0,.08,0,.17-.01.25-.95-.05-1.92.01-2.91.19-.5.09-1,.2-1.5.32-1.72-.03-3.34.1-5.02.42l-.04-.34-5.58.57c-.05.63-.08,1.16-.13,1.81l-7.27.75c-.03.65-.05,1.17-.07,1.56-1.18,1.06-4.07-.71-3.57,2.54-.59.12-1.1.23-1.61.34-.02.62-.04,1.14-.06,1.67l-1.46.15-.53-5.21c.55-.16,1.05-.31,1.69-.49l-.36-3.46c1.54,0,2.14-.75,1.86-2.14.61-.14,1.12-.27,1.62-.39.04-.61.06-1.14.09-1.63.56-.14,1.03-.26,1.61-.4-.5-1.9.7-2.03,2.05-2.07.51-.01,1.02-.15,1.51-.22,0-.67,0-1.15,0-1.81l5.39-.55c.06-.7.11-1.22.16-1.79,1.01-.16,1.96-.27,1.65-1.69-.28-1.27.23-3.04-2.12-2.53-.16-.61-.3-1.12-.44-1.63-.6-.03-1.12-.05-1.62-.07-.16-.59-.3-1.1-.48-1.75l-3.53.36c-.15-.68-.27-1.2-.39-1.74-.59-.04-1.11-.08-1.74-.12-.01-.53-.03-.99-.04-1.52l5.38-.55c.04-.71.07-1.23.1-1.85.53-.01,1-.02,1.43-.03.14.62.25,1.09.36,1.57.6.03,1.12.05,1.69.07.19,1.23.38,2.37.59,3.71l3.54-.36c.17.66.29,1.13.44,1.7,1.49-.41,2.07.38,2.13,1.68.64.05,1.16.09,1.67.13.12.56.22,1.03.33,1.54.59.02,1.12.03,1.74.04-.13,1.61.86,1.91,2.13,1.78.12.58.23,1.05.36,1.69l3.52-.36c.17.67.3,1.18.43,1.7.6.04,1.12.07,1.66.1.14.57.26,1.09.4,1.66.57.04,1.1.07,1.61.1.19.57.35,1.07.51,1.58.61-.01,1.14-.02,1.69-.03.13.61.23,1.13.35,1.69.56.05,1.08.1,1.62.15.17.56.32,1.06.48,1.58.6.01,1.12.02,1.69.03.14.57.26,1.08.39,1.59.61.04,1.14.07,1.73.1-.12,1.48.69,1.92,1.95,1.75l.33,3.25-3.3.34Z"/>
        </g>
      </g>
    </g>
  </g>
</svg>