<?xml version="1.0" encoding="UTF-8"?>
<svg id="Layer_2" data-name="Layer 2" xmlns="http://www.w3.org/2000/svg" viewBox="0 0 142.87 309.18">
  <defs>
    <style>
      .cls-1 {
        fill: #fff;
        stroke-width: 0px;
      }
    </style>
  </defs>
  <g id="Layer_1-2" data-name="Layer 1">
    <g>
      <path class="cls-1" d="m136.48,112.02c3.05,3.14,4.99,15.72,5.32,20.31.18,2.48-.6,4.54-.53,6.56.56,15.01,3.23,36.83.1,50.94-.89,3.99-5.51,13.46-5.22,16.26.5,4.88,11.56,14.72,3.09,18.59-5.55,2.54-7.79-5.89-9.31-9.57l-6.71,1.25c-6.62,22.28-6.81,47.64-13.29,69.66-.56,1.89-2.36,3.5-2.58,5.04-.49,3.47,2.87,5.94,1.23,10.4-.37,1.02-4.23,6.03-5.18,6.59-3.22,1.91-4.28-.42-5.68-.37-.84.04-2.21,1.99-3.79,1.37,2.57-6.21-1.55-4.65-2.37-7.29-.88-2.86.41-7.33-.33-10.58-.56-2.47-3.27-3.75-3.85-6.23-1.55-6.71,5.82-25.67,6.53-34.27s-.17-18.34-.4-27.27c-8.08,8.26-9.27,20.16-13.21,30.44-2.64,6.89-10.02,28.11-13.36,32.82-2.49,3.52-4.78,2.14-6.99,3.93-3.76,3.04-5.13,13.83-7.53,15.98-4.08,3.63-17.36,2.35-15.41-6.16.43-1.89,7.39-10.3,9.19-12.66.87-1.15,2.81-1.74,3.15-2.78.65-1.95-1.57-5.78-1.59-8.25-.05-6.9,6.58-20.87,8.79-28.15,3.56-11.72,12.53-36.13,13.72-46.81.29-2.63-.87-6.36-.67-9.84.83-14.27,4.42-25.53,3.37-41.19-1.17-17.56-4.42-6.35-12.42-3.12-2.05.83-4.07,1.5-6.33.91-2.76-.83-5.86-12.82-5.62-15.3.14-1.42,1.72-4.57,2.48-5.98,1.95-3.63,11.57-15.72,14.7-18.04,1.81-1.34,4.07-1.49,5.5-2.89s3.99-7.21,1.18-8.01l-37.33,17.27L0,41.76,84.32,0l2.12.45c5.72,12.79,12.39,25.12,18.58,37.68,1.33,2.7,2.68,8.02,4.14,10.13s4.78,2.29,7.05,3.87c1.31.91,5.46,5.25,5.92,6.68.93,2.9,2.48,17.68,2,20.58-.92,5.58-9.94,14.35-6.48,20.86,2.06,3.87,15.01,7.85,18.84,11.79Zm-49.35-77.43l2.23,5.79-12.97,8.05c1.5,2.75,2.7,9.72,6.67,8.38s8.71-5.35,12.59-6.77c2.36-.87,8.37-.79,8.39-3.34-2.69-4.76-17.72-39.99-19.88-40.68-.47-.15-.97-.16-1.46-.1L6.17,43.69v3.42s29.93,62.04,29.93,62.04l50.18-23.54c.78-3.98-2.83-5.61-3.27-9.53-.49-4.34,1.53-6.48,1.7-10.51-2.77.5-6.04,1.74-5.96,4.93l-3.73-.7-17.89-38.97c2.49-2.68,25.57-14.33,27.03-13.9,1.53,1.16,3.75,4.95,2.68,6.64-3.53,5.6-24.78,5.8-14.19,16.87,3.57.14,11.69-7.61,14.47-5.84Zm1.96,31.15c-4.2,8.63,2.66,30.53,12.92,31.67,11.18,1.23,17.5-11.92,17.97-21.4.32-6.56-4.86-5.72-8.45-9.15-2.2-2.11-2.51-5.05-4.57-7.16-5.1,4.03-11.82,4.44-17.87,6.04Zm-1.01,33.41c2.15.32,3.81-.82,4.23-2.99l-3.92-6.14c-7.7,1.93.11,4.37-.3,9.12Zm-11.61,14.96c8.38,3.02,11.37-17.94,7-18.28-5.98,4.03-13.05,11.45-7,18.28Zm10.75-1.53l-2.54.38c-2.04,1.45.68,6.55,1.57,8.58,1.99,4.56,5.39,9.17,7.48,13.51,9.94,20.56,19.65,41.25,29.53,61.84,3.13,1.94,4.24-1.87,3.04-4.56l-39.08-79.74Zm37.78,57.09v-5.03h-.82v5.03h.82Zm.84,10.08v-4.19h-.82v4.19h.82Zm8.29,18.59c-.35-.56-3.37-1.09-4.32-.83-3.65.97-7.58,9.53-6.48,13.32,5.09,2.16,13.01-9,10.8-12.49Zm-36.83,14.17c-1.27,11.31,1.72,23.79.83,34.83-.94,11.66-5.64,24.32-7.42,35.97,3.92,5.1,10.9,6.93,15.39,1.39,2.75-14.28,4.86-28.68,7.38-42.99,2.13-12.04,4.49-19.77,4.91-32.18.06-1.84,2.23-3.53,1.51-5.72-.46-1.41-6.87-2.05-8.76-2.2-8.7-.67-16.83.93-25.93-.09-2.59-.29-6.66-2.58-8.91-1.2-1.96,1.21-2.96,8.97-3.78,11.34-5.44,15.75-11.13,31.36-15.46,47.51-1.56,5.81-7.18,21.66-1.23,25.48,2.02,1.3,5.3,1.7,6.97-.42.85-1.09,4.25-8.78,5.15-10.8,6.73-15.13,11.26-32.26,18.54-46.95,1.38-2.78,5.54-10.97,7.44-12.71,1.14-1.05,1.67-1.53,3.37-1.24Zm36.52-2.51l-2.01,2.26c.34,1.91,3.82,9.97,6.19,9.48,1.29-1.01,1.29-1.05.91-2.55-.25-1.01-4.57-9.18-5.09-9.18Zm-38.2,89h-1.67v.82h1.67v-.82Z"/>
      <path class="cls-1" d="m87.13,34.6c-2.79-1.77-10.91,5.99-14.47,5.84-10.59-11.07,10.66-11.27,14.19-16.87,1.07-1.7-1.15-5.48-2.68-6.64-1.47-.43-24.55,11.22-27.03,13.9l17.89,38.97,3.73.7c-.08-3.19,3.19-4.43,5.96-4.93-.17,4.03-2.18,6.17-1.7,10.51.44,3.92,4.06,5.55,3.27,9.53l-50.18,23.54L6.19,47.11v-3.42S82.7,5.93,82.7,5.93c.49-.06.99-.06,1.46.1,2.16.7,17.19,35.92,19.88,40.68-.02,2.55-6.02,2.47-8.39,3.34-3.87,1.42-8.73,5.48-12.59,6.77s-5.17-5.64-6.67-8.38l12.97-8.05-2.23-5.79Zm-35.99,21.73c5.26,4.78,6.58,13.18,10.9,18.96,1.44.92,7.44-2.22,7.62-4.28l-19.08-37.28-11.26,5.52,5.09,27.99c-.87.93-5.1-3.76-5.89-4.59-2.76-2.88-10.88-14.01-13.44-15.16-2.13-.96-12.05,3.64-11.59,6.53l18.33,36.37c1.42.91,7.62-1.78,7.63-3.39.04-5.24-9.24-14.5-9.29-20.59,4.87,2.4,12.1,14.59,15.96,16.38,2.82,1.31,6.36-1.6,8.85-2.95l-3.83-23.52Z"/>
      <path class="cls-1" d="m89.1,65.74c6.05-1.6,12.77-2.01,17.87-6.04,2.06,2.11,2.36,5.05,4.57,7.16,3.59,3.43,8.78,2.6,8.45,9.15-.47,9.48-6.79,22.63-17.97,21.4-10.26-1.13-17.12-23.03-12.92-31.67Zm5.48,4.99c-5.53,1.06-3.57,8.98,2.14,7.27,3.77-1.12,2.73-8.21-2.14-7.27Zm14.9.2c-3.83.16-4.73,5.93-1.25,7.65,6.47,3.19,8.38-7.95,1.25-7.65Zm-4.61,11.42c-1.6-.12-3.68-.23-4.19,1.67h4.19s0-1.67,0-1.67Zm3.12,9.82c1.44-1.15,4.8-6.02,4.43-8.15-4.04,3.72-6.74,6.41-12.8,4.83-1.38-.36-4.77-3.97-5.66-3.14,1.98,5.04,8.83,10.63,14.03,6.46Z"/>
      <path class="cls-1" d="m87.22,112.59l39.08,79.74c1.2,2.69.09,6.5-3.04,4.56-9.88-20.59-19.59-41.28-29.53-61.84-2.1-4.33-5.49-8.95-7.48-13.51-.89-2.03-3.61-7.12-1.57-8.58l2.54-.38Z"/>
      <path class="cls-1" d="m76.47,114.11c-6.06-6.84,1.01-14.26,7-18.28,4.37.34,1.38,21.3-7,18.28Z"/>
      <path class="cls-1" d="m88.08,99.15c.41-4.75-7.39-7.19.3-9.12l3.92,6.14c-.42,2.17-2.08,3.3-4.23,2.99Z"/>
      <path class="cls-1" d="m51.15,56.33l3.83,23.52c-2.49,1.35-6.03,4.25-8.85,2.95-3.86-1.79-11.1-13.99-15.96-16.38.05,6.09,9.33,15.35,9.29,20.59-.01,1.61-6.21,4.3-7.63,3.39L13.49,54.01c-.46-2.89,9.46-7.48,11.59-6.53,2.56,1.15,10.68,12.28,13.44,15.16.8.83,5.02,5.52,5.89,4.59l-5.09-27.99,11.26-5.52,19.08,37.28c-.19,2.06-6.19,5.2-7.62,4.28-4.32-5.77-5.64-14.18-10.9-18.96Z"/>
      <path class="cls-1" d="m107.98,92.18c-5.2,4.17-12.05-1.42-14.03-6.46.89-.82,4.28,2.78,5.66,3.14,6.06,1.58,8.77-1.11,12.8-4.83.37,2.12-2.99,6.99-4.43,8.15Z"/>
      <path class="cls-1" d="m109.47,70.94c7.12-.3,5.22,10.84-1.25,7.65-3.48-1.72-2.58-7.49,1.25-7.65Z"/>
      <path class="cls-1" d="m94.57,70.74c4.87-.93,5.91,6.15,2.14,7.27-5.71,1.7-7.67-6.21-2.14-7.27Z"/>
      <path class="cls-1" d="m104.86,82.36v1.67s-4.19,0-4.19,0c.51-1.9,2.59-1.79,4.19-1.67Z"/>
    </g>
  </g>
</svg>