<?xml version="1.0" encoding="UTF-8"?>
<svg id="Layer_2" data-name="Layer 2" xmlns="http://www.w3.org/2000/svg" viewBox="0 0 333.92 251.2">
  <defs>
    <style>
      .cls-1 {
        fill: #fff;
        stroke-width: 0px;
      }
    </style>
  </defs>
  <g id="Layer_1-2" data-name="Layer 1">
    <g>
      <path class="cls-1" d="m125.87,76.09c-7.35,5.64-14.26,11.76-21.39,17.45-2.23-.61-10.34-4.77-13.61-6.96.32-.37.57-.78.93-1.06,10.29-8.36,20.63-16.66,31.43-24.37,11.46-8.18,23.16-15.96,35.73-22.36,9.15-4.66,18.59-8.59,28.57-11.14,8.15-2.09,16.41-2.86,24.79-2.18,3.31.27,6.6.86,9.73,1.95,1.76.62,2.98.33,4.36-.84,6.23-5.23,12.53-10.37,18.82-15.54.46-.38.95-.71,1.38-1.03,2.09.63,10.01,4.93,12.98,7.02.17.74-.43,1.05-.86,1.4-14.27,11.59-28.71,22.95-44.08,33.07-9.49,6.25-19.23,12.06-29.55,16.84-9.79,4.53-19.87,8.17-30.58,9.83-8.23,1.27-16.41,1.1-24.52-.89-1.26-.31-2.5-.72-4.11-1.18Zm92.85-43.9c-4.57.18-8.64.64-12.68,1.34-9.84,1.72-19.22,4.92-28.31,9.01-8.62,3.88-16.79,8.57-24.71,13.71-6.91,4.48-13.58,9.3-20.11,14.3-.41.31-1.17.49-.88,1.3.1.05.19.13.28.13.4.01.8.03,1.19,0,10.21-.52,20.03-2.94,29.6-6.38,8.71-3.13,16.96-7.28,24.95-11.92,10.43-6.06,20.21-13.06,29.81-20.35.22-.17.34-.45.86-1.16Z"/>
      <path class="cls-1" d="m186.3,7.75c-2.07-.17-3.86-.34-5.65-.46-13.75-.88-27,1.54-39.9,6.17-11.87,4.26-22.93,10.15-33.51,16.97-11.92,7.67-23.19,16.23-34.12,25.25-4.95,4.09-9.89,8.2-14.84,12.29-.61.51-1.25.98-1.82,1.41-2.26-.66-10.86-5.04-13.89-7.07.29-.38.51-.82.86-1.11,13.32-11,26.88-21.69,41.18-31.41,10.06-6.83,20.42-13.16,31.43-18.38,8.83-4.19,17.9-7.66,27.48-9.7,8.22-1.75,16.49-2.3,24.84-1,6.23.96,11.99,3.24,17.48,6.25.14.08.2.32.47.79Z"/>
      <path class="cls-1" d="m210.26,20.29c-3.66-.2-6.65-.4-9.65-.51-7.47-.27-14.83.57-22.12,2.18-8.07,1.78-15.83,4.49-23.37,7.85-9.38,4.18-18.24,9.28-26.82,14.92-8.32,5.47-16.34,11.34-24.09,17.57-7.2,5.79-14.27,11.74-21.4,17.61-.69.57-1.41,1.11-2.23,1.75-2.5-.8-4.66-2.27-6.98-3.41-2.24-1.1-4.42-2.32-6.87-3.62.74-.75,1.22-1.37,1.82-1.84,9.01-7.06,17.96-14.2,27.08-21.13,11.45-8.7,23.45-16.59,36.11-23.43,9.2-4.98,18.72-9.26,28.81-12.16,7.86-2.26,15.83-3.6,24.06-3.37,8.61.25,16.65,2.45,24.21,6.5.33.18.61.45,1.44,1.08Z"/>
      <path class="cls-1" d="m282.99,29.47c-.63.65-1.12,1.27-1.73,1.75-10.51,8.4-21.07,16.74-32.07,24.51-9.03,6.38-18.26,12.43-27.91,17.84-9.83,5.51-20.01,10.26-30.82,13.56-7.92,2.42-16,3.88-24.3,3.78-8.36-.1-16.32-1.94-23.78-5.77-.59-.3-1.14-.68-2.3-1.37,1.01-.05,1.35-.12,1.68-.08,10.38,1.08,20.62.35,30.8-1.99,11.95-2.75,23.09-7.47,33.82-13.26,10.36-5.59,20.1-12.14,29.56-19.13,8.16-6.03,16.1-12.34,23.9-18.82,2.86-2.37,5.77-4.68,8.59-7.11,1.17-1.01,2.2-1.11,3.52-.35,3.3,1.91,6.66,3.73,9.99,5.6.33.18.6.47,1.05.84Z"/>
      <path class="cls-1" d="m164.01,95.6c.27-.04.55-.15.81-.12,8.54,1.13,17.04.67,25.48-.81,11.95-2.1,23.2-6.29,34.05-11.69,14.35-7.15,27.5-16.16,40.25-25.79,9.13-6.9,18.02-14.11,26.83-21.41.53-.44,1.11-.82,1.75-1.29,4.4,2.06,8.5,4.56,12.57,6.76.25.84-.22,1.1-.6,1.41-10.56,8.49-21.25,16.84-32.34,24.62-10.85,7.61-21.96,14.84-33.75,20.95-10.74,5.56-21.84,10.14-33.69,12.76-7.01,1.55-14.1,2.1-21.25,1.47-6.68-.58-12.99-2.5-18.93-5.62-.49-.26-1.19-.38-1.18-1.24Z"/>
      <path class="cls-1" d="m317.31,171.84c1.23-1.27,2.21-2.42,3.33-3.42,2.23-1.99,4.79-2.76,7.8-2.05,5.14,1.2,6.68,7.67,4.53,11.16-1.03,1.67-2.53,2.53-4.55,2.34-1.76-.17-2.97-1.26-3.24-3.03-.31-2.06.35-3.77,2.04-5.02.71-.53,1.48-.97,2.18-1.43-.09-1.56-1.06-2.02-2.22-2.15-1.88-.22-3.6.34-5.07,1.5-1.42,1.13-2.64,2.47-3.21,4.39.52,1.03,1.12,2.07,1.6,3.17,3.37,7.75,3.27,15.34-1.9,22.25-4.67,6.24-10.98,9.2-18.93,8.04-2.24-.33-4.15-1.43-5.98-2.49-3,1.05-5.82,3.51-6.89,6.03-.27.64-.48,1.33-.55,2.02-.16,1.49.42,2.6,1.81,3.13,1.2.46,2.5.86,3.77.92,3.71.17,7.42.19,11.13.18,3.51,0,7.02-.34,10.52.32,1.79.33,3.51.85,5.12,1.69,3.64,1.89,5.8,4.88,6.5,8.9,1.4,8.08-2.22,15.4-9.56,19.42-2.76,1.51-5.73,2.49-8.81,2.96-5.51.84-11.01.81-16.39-.92-3.01-.97-5.69-2.48-7.85-4.85-1.04-1.14-1.79-2.42-2.22-3.89-.9-3.01-.52-5.83,1.74-8.11,2.2-2.22,5-2.46,7.86-1.68,2.4.66,4.24,2.22,5.66,4.27.06.08.14.19.12.27-.08.36-.12.77-.33,1.04-.1.13-.61.11-.81-.03-.84-.55-1.56-1.29-2.44-1.73-3.43-1.71-7.5.98-7.31,4.8.09,1.76.73,3.37,2.02,4.58,1.02.95,2.14,1.87,3.38,2.47,1.61.77,3.35,1.42,5.1,1.75,6.29,1.21,12.41.65,18.15-2.37,3.18-1.68,5.78-3.99,7.35-7.3.88-1.85,1.29-3.79,1.01-5.85-.37-2.71-1.72-4.71-4.28-5.72-1.3-.51-2.67-1-4.04-1.13-2.99-.29-6-.45-9.01-.47-3.01-.02-6.02.24-9.03.32-2.21.06-4.42.04-6.59-.51-.87-.22-1.77-.41-2.59-.77-2.7-1.17-4.3-3.18-4.66-6.16-.39-3.26.31-6.24,2.43-8.73,1.36-1.59,2.99-2.95,4.54-4.37.73-.67,1.58-1.21,2.53-1.92-.37-.55-.66-1.04-1.01-1.48-.62-.79-1.3-1.53-1.89-2.34-6.76-9.22-5.04-22.55,3.79-29.51,6.03-4.75,14.63-5.29,21.19-1.29,1.36.83,2.64,1.78,4.15,2.8Zm-24.28,14.92c-.09,4.57-.04,8.07.77,11.53,1.24,5.29,4.24,7.61,9.69,7.41.2,0,.4-.01.6-.03,4.18-.3,6.95-2.38,8.18-6.39.56-1.81.95-3.71,1.14-5.59.46-4.7.56-9.42.11-14.13-.17-1.78-.53-3.58-1.07-5.29-1.04-3.26-3.28-5.28-6.77-5.52-1.68-.12-3.42-.05-5.07.26-2.27.42-3.99,1.77-5.14,3.82-.85,1.51-1.34,3.12-1.7,4.8-.72,3.36-.75,6.77-.75,9.13Z"/>
      <path class="cls-1" d="m218.72,32.18c-.52.71-.64,1-.86,1.16-9.6,7.28-19.38,14.29-29.81,20.35-7.99,4.64-16.23,8.79-24.95,11.92-9.58,3.44-19.39,5.86-29.6,6.38-.4.02-.8,0-1.19,0-.09,0-.18-.08-.28-.13-.29-.81.47-.99.88-1.3,6.54-5,13.2-9.81,20.11-14.3,7.92-5.14,16.1-9.83,24.71-13.71,9.09-4.09,18.47-7.29,28.31-9.01,4.04-.71,8.11-1.16,12.68-1.34Z"/>
      <path class="cls-1" d="m293.04,186.76c0-2.36.02-5.77.75-9.13.36-1.68.85-3.29,1.7-4.8,1.16-2.05,2.87-3.41,5.14-3.82,1.65-.3,3.39-.37,5.07-.26,3.49.24,5.74,2.26,6.77,5.52.54,1.71.9,3.51,1.07,5.29.45,4.71.35,9.43-.11,14.13-.18,1.88-.58,3.78-1.14,5.59-1.23,4.01-4.01,6.09-8.18,6.39-.2.01-.4.02-.6.03-5.45.2-8.46-2.12-9.69-7.41-.81-3.46-.86-6.96-.77-11.53Z"/>
    </g>
  </g>
</svg>