<?xml version="1.0" encoding="UTF-8"?>
<svg id="Layer_2" data-name="Layer 2" xmlns="http://www.w3.org/2000/svg" viewBox="0 0 55.45 120">
  <defs>
    <style>
      .cls-1 {
        fill: #fff;
        stroke-width: 0px;
      }
    </style>
  </defs>
  <g id="Layer_1-2" data-name="Layer 1">
    <g>
      <path class="cls-1" d="m52.97,43.48c1.18,1.22,1.94,6.1,2.07,7.88.07.96-.23,1.76-.2,2.55.22,5.83,1.25,14.3.04,19.77-.34,1.55-2.14,5.22-2.02,6.31.2,1.89,4.49,5.71,1.2,7.21-2.16.99-3.02-2.29-3.61-3.71l-2.6.48c-2.57,8.65-2.64,18.49-5.16,27.04-.22.73-.92,1.36-1,1.96-.19,1.35,1.11,2.31.48,4.04-.15.4-1.64,2.34-2.01,2.56-1.25.74-1.66-.16-2.2-.14-.32.01-.86.77-1.47.53,1-2.41-.6-1.8-.92-2.83-.34-1.11.16-2.84-.13-4.11-.22-.96-1.27-1.46-1.49-2.42-.6-2.61,2.26-9.96,2.53-13.3.28-3.46-.07-7.12-.16-10.58-3.14,3.2-3.6,7.82-5.13,11.82-1.02,2.67-3.89,10.91-5.18,12.74-.97,1.37-1.86.83-2.71,1.52-1.46,1.18-1.99,5.37-2.92,6.2-1.58,1.41-6.74.91-5.98-2.39.17-.73,2.87-4,3.57-4.91.34-.44,1.09-.68,1.22-1.08.25-.76-.61-2.24-.62-3.2-.02-2.68,2.55-8.1,3.41-10.92,1.38-4.55,4.86-14.02,5.32-18.17.11-1.02-.34-2.47-.26-3.82.32-5.54,1.71-9.91,1.31-15.99-.45-6.81-1.72-2.47-4.82-1.21-.8.32-1.58.58-2.46.35-1.07-.32-2.28-4.98-2.18-5.94.05-.55.67-1.77.96-2.32.75-1.41,4.49-6.1,5.71-7,.7-.52,1.58-.58,2.14-1.12s1.55-2.8.46-3.11l-14.49,6.7L0,16.21,32.72,0l.82.17c2.22,4.96,4.81,9.75,7.21,14.62.52,1.05,1.04,3.11,1.61,3.93.55.79,1.86.89,2.74,1.5.51.35,2.12,2.04,2.3,2.59.36,1.13.96,6.86.78,7.99-.36,2.17-3.86,5.57-2.52,8.09.8,1.5,5.83,3.05,7.31,4.58Zm-19.15-30.05l.86,2.25-5.03,3.12c.58,1.07,1.05,3.77,2.59,3.25s3.38-2.08,4.88-2.63c.92-.34,3.25-.31,3.25-1.29-1.04-1.85-6.88-15.52-7.72-15.79-.18-.06-.38-.06-.57-.04L2.4,16.96v1.33s11.62,24.08,11.62,24.08l19.48-9.14c.3-1.55-1.1-2.18-1.27-3.7-.19-1.68.59-2.51.66-4.08-1.08.2-2.34.68-2.31,1.91l-1.45-.27-6.94-15.12c.97-1.04,9.92-5.56,10.49-5.39.59.45,1.46,1.92,1.04,2.58-1.37,2.18-9.62,2.25-5.51,6.55,1.38.06,4.54-2.95,5.62-2.27Zm.76,12.09c-1.63,3.35,1.03,11.85,5.02,12.29,4.34.48,6.79-4.62,6.97-8.3.13-2.54-1.89-2.22-3.28-3.55-.85-.82-.97-1.96-1.77-2.78-1.98,1.56-4.59,1.72-6.94,2.34Zm-.39,12.96c.83.12,1.48-.32,1.64-1.16l-1.52-2.38c-2.99.75.04,1.7-.12,3.54Zm-4.51,5.81c3.25,1.17,4.41-6.96,2.72-7.1-2.32,1.56-5.07,4.44-2.72,7.1Zm4.17-.59l-.99.15c-.79.56.26,2.54.61,3.33.77,1.77,2.09,3.56,2.9,5.24,3.86,7.98,7.63,16.01,11.46,24,1.21.75,1.64-.73,1.18-1.77l-15.17-30.95Zm14.66,22.16v-1.95h-.32v1.95h.32Zm.33,3.91v-1.63h-.32v1.63h.32Zm3.22,7.21c-.14-.22-1.31-.42-1.68-.32-1.42.38-2.94,3.7-2.52,5.17,1.98.84,5.05-3.49,4.19-4.85Zm-14.29,5.5c-.49,4.39.67,9.23.32,13.52-.36,4.53-2.19,9.44-2.88,13.96,1.52,1.98,4.23,2.69,5.97.54,1.07-5.54,1.88-11.13,2.87-16.69.82-4.67,1.74-7.67,1.91-12.49.02-.71.87-1.37.59-2.22-.18-.55-2.66-.8-3.4-.85-3.38-.26-6.53.36-10.06-.04-1-.11-2.59-1-3.46-.47-.76.47-1.15,3.48-1.47,4.4-2.11,6.11-4.32,12.17-6,18.44-.61,2.26-2.79,8.41-.48,9.89.78.5,2.06.66,2.71-.16.33-.42,1.65-3.41,2-4.19,2.61-5.87,4.37-12.52,7.2-18.22.54-1.08,2.15-4.26,2.89-4.93.44-.41.65-.59,1.31-.48Zm14.17-.97l-.78.88c.13.74,1.48,3.87,2.4,3.68.5-.39.5-.41.35-.99-.1-.39-1.77-3.56-1.98-3.56Zm-14.83,34.54h-.65v.32h.65v-.32Z"/>
      <path class="cls-1" d="m33.82,13.43c-1.08-.69-4.23,2.32-5.62,2.27-4.11-4.3,4.14-4.37,5.51-6.55.42-.66-.45-2.13-1.04-2.58-.57-.17-9.53,4.35-10.49,5.39l6.94,15.12,1.45.27c-.03-1.24,1.24-1.72,2.31-1.91-.07,1.56-.85,2.4-.66,4.08.17,1.52,1.57,2.15,1.27,3.7l-19.48,9.14L2.4,18.28v-1.33S32.09,2.3,32.09,2.3c.19-.02.38-.02.57.04.84.27,6.67,13.94,7.72,15.79,0,.99-2.34.96-3.25,1.29-1.5.55-3.39,2.13-4.88,2.63s-2.01-2.19-2.59-3.25l5.03-3.12-.86-2.25Zm-13.97,8.43c2.04,1.85,2.55,5.12,4.23,7.36.56.36,2.89-.86,2.96-1.66l-7.41-14.47-4.37,2.14,1.98,10.86c-.34.36-1.98-1.46-2.29-1.78-1.07-1.12-4.22-5.44-5.22-5.89-.83-.37-4.68,1.41-4.5,2.53l7.11,14.12c.55.35,2.96-.69,2.96-1.31.01-2.03-3.59-5.63-3.61-7.99,1.89.93,4.7,5.66,6.2,6.36,1.09.51,2.47-.62,3.43-1.14l-1.49-9.13Z"/>
      <path class="cls-1" d="m34.58,25.52c2.35-.62,4.96-.78,6.94-2.34.8.82.92,1.96,1.77,2.78,1.39,1.33,3.41,1.01,3.28,3.55-.18,3.68-2.64,8.78-6.97,8.3-3.98-.44-6.64-8.94-5.02-12.29Zm2.13,1.94c-2.15.41-1.39,3.48.83,2.82,1.46-.44,1.06-3.19-.83-2.82Zm5.78.08c-1.49.06-1.84,2.3-.49,2.97,2.51,1.24,3.25-3.08.49-2.97Zm-1.79,4.43c-.62-.05-1.43-.09-1.63.65h1.63s0-.65,0-.65Zm1.21,3.81c.56-.45,1.86-2.34,1.72-3.16-1.57,1.44-2.61,2.49-4.97,1.87-.54-.14-1.85-1.54-2.2-1.22.77,1.96,3.43,4.12,5.45,2.51Z"/>
      <path class="cls-1" d="m33.85,43.7l15.17,30.95c.47,1.04.04,2.52-1.18,1.77-3.83-7.99-7.6-16.02-11.46-24-.81-1.68-2.13-3.47-2.9-5.24-.35-.79-1.4-2.76-.61-3.33l.99-.15Z"/>
      <path class="cls-1" d="m29.68,44.29c-2.35-2.65.39-5.53,2.72-7.1,1.7.13.54,8.27-2.72,7.1Z"/>
      <path class="cls-1" d="m34.19,38.48c.16-1.84-2.87-2.79.12-3.54l1.52,2.38c-.16.84-.81,1.28-1.64,1.16Z"/>
      <path class="cls-1" d="m19.85,21.86l1.49,9.13c-.97.52-2.34,1.65-3.43,1.14-1.5-.7-4.31-5.43-6.2-6.36.02,2.37,3.62,5.96,3.61,7.99,0,.63-2.41,1.67-2.96,1.31l-7.11-14.12c-.18-1.12,3.67-2.9,4.5-2.53.99.45,4.14,4.77,5.22,5.89.31.32,1.95,2.14,2.29,1.78l-1.98-10.86,4.37-2.14,7.41,14.47c-.07.8-2.4,2.02-2.96,1.66-1.68-2.24-2.19-5.5-4.23-7.36Z"/>
      <path class="cls-1" d="m41.91,35.78c-2.02,1.62-4.68-.55-5.45-2.51.35-.32,1.66,1.08,2.2,1.22,2.35.61,3.4-.43,4.97-1.87.14.82-1.16,2.71-1.72,3.16Z"/>
      <path class="cls-1" d="m42.49,27.53c2.76-.12,2.02,4.21-.49,2.97-1.35-.67-1-2.91.49-2.97Z"/>
      <path class="cls-1" d="m36.71,27.45c1.89-.36,2.29,2.39.83,2.82-2.22.66-2.98-2.41-.83-2.82Z"/>
      <path class="cls-1" d="m40.7,31.96v.65s-1.63,0-1.63,0c.2-.74,1.01-.69,1.63-.65Z"/>
    </g>
  </g>
</svg>