<?xml version="1.0" encoding="UTF-8"?>
<svg id="Layer_2" data-name="Layer 2" xmlns="http://www.w3.org/2000/svg" viewBox="0 0 94.89 94.89">
  <defs>
    <style>
      .cls-1 {
        fill: #fff;
        stroke-width: 0px;
      }
    </style>
  </defs>
  <g id="Layer_1-2" data-name="Layer 1">
    <g>
      <g id="_Radial_Repeat_" data-name="&amp;lt;Radial Repeat&amp;gt;">
        <path class="cls-1" d="m54.18,26.24c-.11.48-.2.86-.32,1.39l2.82.98c-.13.58-.23,1-.34,1.49.93.38,1.81.75,2.7,1.12-.1.51-.17.9-.28,1.46l1.53.53c.31.38.66.73,1.02,1.04-.14,1.04.07,1.07,1.37,1.18.03-.06.06-.12.1-.18.69.37,1.43.66,2.23.87.41.11.82.2,1.23.28,1.27.62,2.52,1.09,3.88,1.43l-.09.27,4.36,1.52c.25-.45.47-.83.73-1.3l5.68,1.97c.25-.47.45-.85.6-1.14,1.25-.38,2.79,1.95,3.54-.65.48.11.9.21,1.31.31.23-.45.43-.84.63-1.22l1.14.4-1.41,4.06c-.46-.07-.89-.14-1.43-.22l-.94,2.7c-1.15-.54-1.85-.19-2.13.95-.5-.1-.92-.19-1.34-.28-.24.44-.44.82-.64,1.18-.47-.09-.86-.17-1.34-.26-.29,1.59-1.23,1.27-2.24.82-.39-.17-.81-.25-1.2-.36-.24.5-.4.86-.63,1.34l-4.21-1.46c-.29.5-.51.87-.74,1.28-.81-.23-1.55-.48-1.81.68-.23,1.04-1.23,2.18.7,2.62-.09.51-.16.94-.24,1.37.44.23.82.43,1.18.62-.08.5-.15.92-.25,1.47l2.75.96c-.12.56-.22.99-.32,1.43.43.24.8.44,1.25.69-.17.4-.32.75-.5,1.15l-4.19-1.46c-.28.52-.48.9-.72,1.34-.4-.18-.75-.33-1.08-.47.11-.51.19-.9.28-1.3-.44-.23-.82-.43-1.23-.64.28-.98.55-1.9.85-2.97l-2.76-.96c.1-.55.18-.94.27-1.42-1.25-.22-1.41-1-1-2-.46-.26-.83-.47-1.2-.68.1-.46.19-.84.29-1.26-.44-.22-.82-.41-1.28-.64.65-1.15.03-1.72-.96-2.06.11-.47.2-.86.32-1.38l-2.75-.96c.11-.56.19-.98.27-1.41-.43-.24-.81-.44-1.2-.65.1-.47.18-.9.28-1.37-.42-.23-.79-.43-1.16-.63.06-.49.11-.92.17-1.36-.46-.2-.85-.38-1.27-.57.12-.5.22-.92.33-1.38-.4-.23-.77-.45-1.15-.68.07-.47.13-.9.19-1.34-.44-.22-.83-.41-1.25-.61.09-.47.18-.89.26-1.32-.44-.24-.82-.45-1.26-.68.61-1.06.15-1.67-.84-1.98l.88-2.53,2.58.9Z"/>
        <g id="WNsNV2">
          <path class="cls-1" d="m92.61,58.73c-.36.34-.64.61-1.04.98l-2.27-1.94c-.43.41-.75.7-1.11,1.05-.8-.61-1.56-1.18-2.33-1.77-.39.34-.69.6-1.12.98l-1.23-1.05c-.49-.08-.96-.2-1.41-.36-.83.64-.96.48-1.71-.58.04-.06.07-.12.11-.18-.67-.41-1.29-.9-1.88-1.49-.3-.3-.58-.6-.87-.92-1.18-.78-2.22-1.62-3.2-2.63l-.18.22-3.51-2.99c.26-.45.48-.82.76-1.29l-4.57-3.9c.28-.45.51-.82.68-1.09-.31-1.27-3.09-1.42-1.23-3.38-.34-.36-.64-.67-.93-.98.27-.43.51-.79.74-1.16l-.92-.78-2.79,3.27c.3.36.57.7.91,1.12l-1.86,2.18c1.05.72,1.1,1.5.26,2.31.34.38.63.7.92,1.02-.26.43-.49.8-.7,1.15.32.36.58.66.9,1.02-1.23,1.05-.47,1.7.42,2.35.34.25.62.58.92.86-.31.46-.54.78-.84,1.23l3.39,2.89c-.29.5-.5.88-.73,1.28.61.58,1.2,1.1.33,1.91-.78.73-1.26,2.16-2.61.72-.4.34-.72.61-1.06.9-.42-.26-.78-.49-1.13-.71-.39.32-.72.6-1.14.96l-2.22-1.89c-.42.39-.74.69-1.08,1-.42-.25-.79-.47-1.23-.73-.26.35-.48.66-.74,1.01l3.38,2.88c-.31.5-.53.87-.79,1.3.36.26.66.48.95.69.39-.35.68-.62.98-.89.42.26.78.49,1.18.74.7-.74,1.36-1.43,2.13-2.24l2.22,1.9c.42-.37.72-.63,1.09-.95.82.97,1.58.71,2.23-.14.45.26.82.48,1.19.69.34-.32.63-.59.94-.89.41.27.77.5,1.19.78.66-1.15,1.47-.89,2.27-.21.35-.33.64-.61,1.03-.97l2.22,1.89c.43-.37.75-.66,1.08-.95.42.25.79.48,1.17.71.36-.32.68-.61,1.04-.94.41.24.77.47,1.14.68.39-.3.73-.56,1.09-.83.41.29.76.54,1.13.81.37-.35.68-.65,1.03-.98.4.22.78.43,1.16.65.37-.3.71-.57,1.06-.85.41.27.77.51,1.16.77.36-.32.68-.61,1-.89.43.26.8.49,1.22.74.61-1.06,1.36-.97,2.13-.27l1.74-2.04-2.08-1.77Z"/>
        </g>
      </g>
      <g id="_Radial_Repeat_-2" data-name="&amp;lt;Radial Repeat&amp;gt;">
        <path class="cls-1" d="m62.44,63.88c-.36-.33-.65-.6-1.05-.97l-2.26,1.95c-.44-.4-.76-.7-1.12-1.04-.8.61-1.55,1.19-2.32,1.78-.39-.34-.7-.6-1.13-.97l-1.22,1.06c-.49.08-.96.2-1.41.37-.83-.64-.96-.48-1.7.59.04.06.07.12.11.18-.66.41-1.29.91-1.87,1.5-.3.3-.58.61-.86.92-1.17.79-2.21,1.64-3.18,2.65l-.19-.21-3.49,3.01c.27.45.49.82.77,1.28l-4.55,3.93c.29.45.52.81.69,1.08-.3,1.27-3.08,1.44-1.21,3.39-.34.36-.63.67-.92.98.28.43.51.79.75,1.15l-.91.79-2.81-3.25c.29-.37.56-.7.91-1.13l-1.87-2.16c1.04-.73,1.09-1.51.24-2.32.34-.38.63-.71.91-1.02-.27-.43-.49-.8-.71-1.14.31-.36.57-.66.9-1.03-1.23-1.04-.48-1.7.41-2.36.34-.25.62-.58.91-.86-.32-.45-.54-.78-.85-1.22l3.37-2.91c-.29-.5-.5-.88-.73-1.28.61-.59,1.19-1.11.31-1.91-.78-.72-1.27-2.15-2.62-.71-.4-.33-.73-.61-1.07-.89-.42.27-.78.5-1.12.71-.39-.32-.72-.59-1.15-.95l-2.21,1.91c-.43-.39-.75-.68-1.08-.99-.42.25-.79.47-1.23.74-.26-.35-.48-.65-.75-1.01l3.36-2.9c-.31-.5-.54-.86-.8-1.29.35-.26.66-.49.95-.7.39.35.68.61.98.89.42-.27.78-.5,1.17-.75.71.73,1.37,1.42,2.14,2.22l2.21-1.91c.43.37.73.63,1.1.94.81-.97,1.57-.72,2.23.13.45-.27.82-.48,1.19-.7.34.32.63.59.95.88.41-.27.77-.51,1.19-.79.67,1.14,1.48.89,2.27.2.36.33.65.6,1.04.97l2.2-1.9c.43.37.76.65,1.09.94.42-.26.79-.48,1.17-.71.36.32.69.61,1.05.93.4-.25.77-.47,1.13-.69.39.3.74.56,1.09.83.41-.29.76-.55,1.13-.82.37.35.69.65,1.03.97.4-.23.78-.44,1.16-.66.37.29.71.56,1.07.84.41-.27.77-.51,1.16-.78.36.32.68.6,1.01.89.43-.26.8-.49,1.22-.75.61,1.06,1.37.96,2.13.26l1.75,2.03-2.07,1.78Z"/>
        <g id="WNsNV2-2" data-name="WNsNV2">
          <path class="cls-1" d="m15.09,80.92c-.11-.48-.2-.86-.33-1.39l2.81-1c-.14-.58-.23-1-.35-1.49.93-.39,1.81-.76,2.7-1.13-.1-.51-.18-.9-.28-1.46l1.52-.54c.31-.38.65-.73,1.02-1.05-.14-1.04.06-1.07,1.36-1.19.03.06.06.12.1.18.68-.37,1.43-.67,2.23-.88.41-.11.82-.2,1.23-.29,1.26-.63,2.51-1.11,3.87-1.46l-.09-.27,4.35-1.54c.26.45.47.83.74,1.3l5.66-2.01c.25.47.45.85.6,1.13,1.25.37,2.77-1.97,3.55.62.48-.12.9-.22,1.31-.32.24.45.43.83.63,1.22l1.13-.4-1.44-4.05c-.46.07-.89.14-1.43.23l-.96-2.69c-1.15.55-1.85.2-2.13-.94-.5.11-.92.2-1.34.28-.24-.44-.45-.82-.65-1.18-.47.09-.86.17-1.34.27-.3-1.59-1.24-1.26-2.25-.81-.39.17-.81.25-1.2.37-.24-.5-.41-.86-.64-1.34l-4.2,1.49c-.29-.5-.51-.87-.75-1.27-.81.24-1.55.49-1.82-.67-.24-1.04-1.24-2.17.68-2.62-.09-.51-.17-.93-.25-1.37.44-.23.82-.43,1.18-.62-.09-.5-.16-.92-.26-1.47l2.75-.97c-.13-.56-.22-.99-.33-1.43.42-.24.8-.45,1.25-.7-.18-.4-.33-.74-.51-1.15l-4.19,1.49c-.28-.51-.49-.89-.73-1.34-.4.18-.75.33-1.07.48.11.51.2.9.29,1.29-.44.23-.82.43-1.23.65.29.98.56,1.89.87,2.96l-2.75.98c.11.55.18.94.28,1.42-1.25.22-1.4,1.01-.99,2-.45.26-.83.47-1.2.69.11.45.2.84.3,1.26-.43.22-.82.42-1.27.64.66,1.15.04,1.72-.95,2.07.11.47.2.86.33,1.38l-2.74.97c.11.56.19.98.28,1.41-.43.24-.81.45-1.2.66.1.47.19.9.29,1.37-.41.23-.79.44-1.16.64.06.49.12.92.18,1.36-.46.21-.85.38-1.27.57.12.5.22.92.34,1.38-.39.24-.77.46-1.15.68.07.47.13.9.2,1.34-.44.22-.82.41-1.25.62.1.47.18.89.27,1.32-.44.24-.82.45-1.25.69.61,1.05.16,1.66-.83,1.98l.9,2.53,2.57-.91Z"/>
        </g>
      </g>
      <g id="_Radial_Repeat_-3" data-name="&amp;lt;Radial Repeat&amp;gt;">
        <path class="cls-1" d="m25.71,52.21c.47-.14.85-.26,1.37-.42l-.56-2.93c.57-.18.98-.3,1.46-.45-.13-1-.26-1.94-.39-2.9.49-.17.87-.3,1.4-.49l-.3-1.59c.18-.46.3-.93.39-1.41.97-.4.89-.59.34-1.77-.07,0-.14,0-.21,0-.02-.78-.15-1.57-.36-2.37-.11-.41-.24-.81-.37-1.21-.1-1.41-.32-2.73-.7-4.08l.28-.05-.87-4.53c-.52,0-.95.01-1.49.02l-1.13-5.9c-.53.02-.96.04-1.28.05-.95-.89.29-3.39-2.33-2.74-.14-.47-.27-.88-.39-1.29-.51.03-.94.05-1.37.07l-.23-1.18,4.22-.81c.17.44.33.84.53,1.35l2.81-.54c.11,1.26.76,1.7,1.89,1.37.16.49.3.9.43,1.3.5-.01.93-.03,1.34-.04.15.45.28.83.44,1.29,1.52-.55,1.71.43,1.84,1.53.05.42.19.83.29,1.22.55-.05.95-.08,1.48-.12l.84,4.37c.58,0,1.01,0,1.47,0,.2.82.36,1.58,1.5,1.23,1.02-.32,2.5-.03,1.92-1.91.49-.18.89-.33,1.3-.48-.02-.49-.04-.92-.06-1.33.47-.18.88-.33,1.4-.52l-.55-2.86c.55-.17.96-.3,1.4-.44,0-.49-.02-.92-.03-1.43.43-.05.81-.09,1.25-.14l.83,4.36c.58-.02,1.02-.03,1.52-.05.05.44.09.82.13,1.17-.5.16-.87.28-1.26.41.02.49.04.92.06,1.39-.99.25-1.92.48-3,.74l.55,2.87c-.53.19-.91.32-1.36.48.44,1.19-.16,1.72-1.23,1.87,0,.52,0,.95.01,1.38-.45.14-.82.25-1.24.38.03.49.06.92.09,1.42-1.32,0-1.51.84-1.3,1.87-.46.14-.84.26-1.36.42l.55,2.86c-.54.19-.94.33-1.36.47.01.49.02.93.03,1.37-.46.15-.87.29-1.33.44.01.47.02.9.03,1.32-.45.19-.85.36-1.26.53.05.5.1.93.15,1.38-.49.15-.91.27-1.36.41,0,.46,0,.89-.01,1.33-.44.18-.84.34-1.26.51.03.49.06.92.09,1.39-.46.15-.86.29-1.27.43.01.5.03.94.04,1.43-1.22,0-1.52.7-1.29,1.72l-2.63.5-.51-2.68Z"/>
        <g id="WNsNV2-3" data-name="WNsNV2">
          <path class="cls-1" d="m34.64,2.68c.47.14.85.25,1.37.41l-.54,2.94c.57.17.99.3,1.46.44-.13,1-.25,1.94-.37,2.9.49.17.87.3,1.4.48l-.29,1.59c.18.46.31.93.4,1.4.97.4.9.59.35,1.77-.07,0-.14,0-.21,0-.02.78-.14,1.57-.35,2.37-.11.41-.23.81-.36,1.21-.09,1.41-.3,2.73-.68,4.08l.28.05-.84,4.54c-.52,0-.95,0-1.49-.01l-1.09,5.91c-.53-.02-.96-.03-1.28-.05-.95.9.32,3.38-2.31,2.76-.14.47-.26.88-.38,1.29-.51-.02-.94-.04-1.37-.06l-.22,1.18,4.23.78c.17-.44.32-.84.52-1.35l2.81.52c.1-1.27.75-1.7,1.88-1.38.16-.49.29-.9.42-1.3.5.01.93.02,1.35.03.15-.45.28-.83.43-1.29,1.52.54,1.71-.44,1.83-1.54.04-.42.19-.83.28-1.22.55.04.95.07,1.48.11l.81-4.38c.58,0,1.01,0,1.47-.01.2-.82.35-1.59,1.49-1.24,1.02.31,2.5.01,1.93,1.9.49.18.89.32,1.31.47-.02.49-.03.92-.05,1.33.48.17.88.32,1.4.51l-.53,2.87c.55.17.97.3,1.4.43,0,.49-.01.92-.02,1.43.43.05.81.09,1.25.13l.81-4.37c.58.02,1.02.03,1.52.04.05-.44.08-.82.12-1.17-.5-.16-.87-.28-1.26-.4.02-.49.04-.92.05-1.39-.99-.24-1.92-.46-3-.73l.53-2.87c-.53-.18-.91-.31-1.37-.47.43-1.19-.17-1.72-1.24-1.86,0-.52,0-.95,0-1.38-.45-.13-.83-.25-1.24-.37.03-.49.05-.92.08-1.42-1.32,0-1.51-.83-1.32-1.86-.47-.14-.85-.25-1.36-.41l.53-2.86c-.54-.18-.95-.32-1.36-.47,0-.49.02-.93.03-1.37-.46-.15-.87-.29-1.33-.44,0-.47.02-.9.02-1.32-.46-.19-.85-.35-1.26-.53.05-.5.09-.93.14-1.38-.49-.14-.91-.27-1.36-.4,0-.46-.01-.89-.02-1.33-.44-.17-.84-.33-1.26-.5.03-.49.06-.92.08-1.39-.46-.15-.87-.29-1.28-.42.01-.5.02-.94.03-1.43-1.22,0-1.52-.69-1.3-1.71L35.13,0l-.5,2.68Z"/>
        </g>
      </g>
    </g>
  </g>
</svg>