<?xml version="1.0" encoding="UTF-8"?>
<svg id="Layer_2" data-name="Layer 2" xmlns="http://www.w3.org/2000/svg" viewBox="0 0 215.27 210.33">
  <defs>
    <style>
      .cls-1 {
        fill: #fff;
        stroke-width: 0px;
      }
    </style>
  </defs>
  <g id="Layer_1-2" data-name="Layer 1">
    <path class="cls-1" d="m214.38,160.94c-1.69-1.02-3.3-2.01-4.93-2.97-1.26-.74-2.54-1.43-3.81-2.14-.96-.54-1.94-1.04-2.88-1.6-2.21-1.31-4.4-2.66-6.61-3.97-.3-.18-.75-.15-.99-.37-.57-.51-1.17-.91-1.81-1.19h.02c-1.16-.73-3.86-2.25-4.85-2.81-1.76-1-3.55-1.93-5.31-2.93-.5-.28-.92-.3-.97.3-.15,1.99.43,3.99.04,5.99-.02.09.14.2.14.29-.02.69.02,1.4-.14,2.05-.05.2-.67.24-.99.42-.21.12-.35.35-.44.44-.86-.16-1.64-.35-2.44-.43-.35-.04-.74.26-1.07.2-1.4-.28-2.77-.61-4.19-.1-.22.08-.56.11-.74-.01-.76-.51-1.56-.13-2.33-.15-.69-.02-1.39-.08-2.08-.04-.21.01-.41.27-.61.41.01-.08.02-.16.04-.24h-6.85s-.09.18-.16.34c-.24-.17-.45-.32-.7-.5-.1.21-.19.39-.21.42-2.4.13-4.4-.32-5.01-3.13-.03-.3-.07-.6-.11-.93-.24.04-.47.08-.76.14-.11-.68-.21-1.31-.33-1.99-.29-.21-.69-.5-.9-.65-.27-.54-.44-.91-.64-1.26-.22-.41-.46-.8-.63-1.1-.51-.39-1.15-.66-1.45-1.14-1.24-2.04-2.4-4.13-3.55-6.23-.19-.35-.16-.81-.24-1.28-.4-.69-.84-1.47-1.29-2.24-.04.03-.07.05-.11.08-.05-.46-.1-.91-.14-1.37-.57-.33-1.48-1.07-1.37-1.26.47-.86-.69-.82-.64-1.46.03-.35-.58-.75-.9-1.13-.23-.29-.44-.59-.69-.91.09-.11.24-.3.43-.53-.27-.07-.48-.13-.63-.17-.09-.58-.16-1.1-.26-1.73-.16-.01-.48-.04-.84-.07-.29-.75-.57-1.5-.86-2.25-.42-.4-.71-.9-.98-1.4-.48-.87-.95-1.75-1.52-2.81.13-.04.41-.15.7-.25-1.4-.38-2-.93-1.79-1.67-.78-.31-2-2.57-1.95-3.59-.65-.21-2.1-2.61-2.11-3.53-2.2-.1-4.4-.2-6.62-.31-.02-.08-.06-.28-.05-.25-.67.1-1.24.23-1.82.27-.59.04-1.18,0-1.77,0-.61,0-1.23,0-1.84.03-.52.02-1.04.06-1.61.1-.01-.04-.07-.23-.03-.1-.8,0-1.43.03-2.05,0-.75-.05-1.7-.5-2.21-.19-.87.52-1.55.18-2.32.1-.57-.06-1.25-.26-1.71-.04-.75.36-1.36.43-2.21.29-.81-.14-1.72.28-2.65.47-.16-.65-.85-.64-1.59-.52-.69.11-1.38.33-2.07.32-2.04-.05-4.07-.21-6.11-.26-.52-.01-1.05.39-1.56.34-.61-.06-1.2-.4-1.79-.61-.26-.48-.56-1.04-.86-1.6-.17-.14-.19-.39-.21-.65-.02-.27-.06-.54-.09-.82-1.09-.15-1.55-.79-1.35-1.32-.77-1.28-1.74-2.28-1.97-3.43-.23-1.21.43-2.46,1.62-3.45v-.68c.27.05.46.09.45.09.2-.56.31-1.06.55-1.5.29-.53.72-.98,1.02-1.51,1.03-1.76,2.03-3.53,3.05-5.29.32-.54.72-1.04,1.03-1.58.38-.67.7-1.39,1.07-2.07.26-.48.81-.91.83-1.39.08-1.38.76-2.39,1.56-3.42.34-.44.4-1.1.65-1.84.37-.44.88-1.1,1.43-1.72.26-.29-.25-.6.31-1.03,1.03-.78,1.8-1.94,2.07-3.3.05-.24.14-.55.32-.68.86-.62,1.16-1.56,1.54-2.47.23-.56.6-1.07.95-1.69,0,0-.03-.04-.05-.07.34-.51.6-.85.81-1.22.51-.9.97-1.83,1.49-2.73.39-.67.84-1.31,1.26-1.96.1.04.21.08.31.12-.15-.18-.3-.37-.5-.6.18-.07.32-.11.44-.17.15-.08.28-.19.44-.29-.13-.11-.22-.18-.3-.26-.07-.07-.12-.16-.03-.03,1.2-2.84,3.24-3.58,5.95-2.46.55-.73,1.3-.66,2.11.15.48-.25.94-.49,1.7-.88.17.88.37,1.67.47,2.48.09.76.06,1.53.13,2.29.13,1.35-.65,2.68.04,4.09.44.89.59,1.06,1.42.46.6-.44,1.27-.77,2.03-1.22-.05-.49.37-.6,1.64-.1-.02-.27-.03-.5-.05-.75.25.01.47.02.74.04-.12-.28-.2-.47-.22-.52.85-.27,1.7-.54,2.57-.81-.01-.05-.04-.17-.04-.21.74-.64,1.34-1.56,2.54-.6-.49-1.12.17-.79.56-.77-.11-.27-.19-.47-.25-.61,2.05-1.07,4.08-2.13,6.17-3.23,0,.02-.05-.18-.05-.18.47-.25.89-.46,1.29-.7,1.16-.67,2.3-1.36,3.47-2,.13-.07.39.11.47.13.38-.43.65-.94,1.07-1.16.87-.46,1.89-.62,2.62-1.36.15-.16.36-.27.55-.39.88-.52,1.78-1.02,2.65-1.57.94-.6,1.85-1.26,2.6-1.77.02,0,.03.02.05.03.02,0,.03-.02.05-.03.19-.15.39-.29.59-.43-.27-.15-.53-.31-.78-.49-.01,0-.02.02-.03.02-2.99-1.73-5.9-3.42-8.81-5.12-3.05-1.78-6.08-3.58-9.14-5.35-.46-.27-1.01-.38-1.46-.65-1.47-.88-2.92-1.81-4.39-2.71-.76-.47-1.53-.92-2.32-1.34-1.66-.9-3.33-1.79-5-2.66-.29-.15-.63-.23-.94-.34-.1.33-.29.65-.28.98.03,1.19.14,2.38.2,3.58.04.79.06,1.59.04,2.38-.01.5.03,1.16-.25,1.44-.3.29-1.03.41-1.44.26-.82-.29-1.61-.18-2.41-.14-.9.04-1.8.18-2.71.22-1.24.05-2.48.09-3.73.06-.97-.02-1.93-.17-3.01-.27-.01.04-.07.18-.09.25-.8,0-1.51-.06-2.21.01-1.53.15-3.04-.66-3.55-2.05-.2-.55-.25-1.17-.37-1.77-.91-.12-1.23-.74-1-1.57-.89-1.29-1.64-2.4-2.51-3.66-.58.02-2.77-3-3.54-5.41.2.03.53.14.56.09.72-1.3,2.34-1.25,3.26-2.16.94-.94,2.51-.71,3.26-2.06.57-1.01.68-1.12-.43-1.57-.58-.24-1.11-.59-1.89-1.01-.46.2-.75-.09-.87-1.29h-1.34c-.63-.53-1.28-1.08-2.06-1.74,0-.01-.1.17-.21.35-.46-.76-2.09-.39-1.7-2.05-.6.93-.76.23-.96-.13-.18.23-.29.37-.32.42-1.61-1.29-3.87-1.56-5.02-3.42-.14.1-.29.2-.47.33-.05-.31-.09-.55-.14-.88-.23.21-.4.36-.38.35-1.92-.87-3.67-1.8-5.08-3.28-.05.04-.22.15-.39.27-.03-.1-.06-.2-.09-.3-.28-.03-.64.03-.81-.12-.71-.6-1.45-1.11-2.29-1.54-1.35-.68-2.61-1.55-3.97-2.21-.99-.48-2.07-.76-3.28-1.19.14.56.25.8.24,1.04-.03,3.3-.09,6.6-.12,9.89-.03,3.31-.06,6.61-.06,9.92,0,.72.18,1.45.17,2.17-.02,2.65-.11,5.31-.12,7.96-.01,1.94.05,3.88.09,5.82,0,.24.02.62.13.67.21.08.52.01.76-.08,1.65-.68,2.79-2.27,4.65-2.59.13-.02.22-.19.34-.27.72-.49,1.45-.98,2.18-1.48.02.14.04.28.07.43.55.24,1.1.49,1.63.72-.32.5.17,2.22.88,2.68.14.09.23.28.3.44.49,1.14.7,2.42,1.74,3.29.27.22.56.57.6.89.14.98.76,1.67,1.28,2.43.38.56.69,1.16,1.08,1.82,0,0,.21-.04.16-.03,1.15,2.06,2.26,4.05,3.37,6.03-.09.06-.18.11-.26.17.2-.03.4-.05.63-.08v.91c1.05.78,1.62,1.79,1.69,3.1.05.81-.85,2.2-1.64,2.42.09.16.17.31.28.51-.29.06-.55.11-.88.18.68.87.11,1.35-.49,1.69-.74.42-.83.98-.7,1.36-.53.98-.95,1.74-1.26,2.31-.14.73-.12,1.36-.38,1.84-1.2,2.15-2.46,4.27-3.75,6.37-.19.31-.61.46-.87.65-.42.79-.83,1.57-1.35,2.55-.2.12-.63.37-1.08.64.45,1.16.15,1.85-.63,1.91-.53,1.24-1.02,2.38-1.53,3.56-.13,0-.37-.07-.6-.02-.76.18-1.51.45-2.27.58-.48.08-.99-.08-1.48-.05-.78.04-1.6.33-2.34.19-1.1-.21-2.14-.25-3.23.02-.41.1-.89-.1-1.51-.19-.05.01-.3.16-.56.16-1.64,0-3.29-.04-4.93-.06-.33,0-.65.02-.98.01-.67-.01-1.35-.08-2.02-.04-.63.04-1.53.49-1.84.22-.91-.78-1.68-.18-2.48-.03-.21.04-.37.4-.44.49-.47-.34-1.04-.75-1.83-1.32-.11-1.58-.24-3.49-.38-5.41,0-.03.01-.07.02-.1.11-.84.28-1.67.32-2.51.03-.67-.35-.82-.93-.51-.73.39-1.49.73-2.2,1.15-1.95,1.15-3.89,2.32-5.81,3.52-1.36.85-2.66,1.81-4.04,2.62-2.02,1.18-4.12,2.21-6.12,3.43-2.83,1.72-5.56,3.58-8.38,5.3-1.61.98-3.31,1.8-5.23,2.84,1.05.84,1.86,1.58,2.75,2.18.64.43,1.39.69,2.09,1.03.41.2.84.37,1.2.63.38.29.69.68.95.95.46.18.91.31,1.31.53.53.29,1.03.64,1.64,1.02,0,.02-.02.25-.05.52.3-.09.69-.29.76-.22.96,1.09,2.72.69,3.59,1.98.21.31.85.33,1.29.48,0,.06-.11.33-.04.38.77.57,1.84.5,2.58,1.24.36.35.95.45,1.42.71.67.38,1.31.79,2.03,1.23,0,.01-.08.2-.18.47.28-.05.5-.09.79-.14-.07.31-.13.53-.15.62.52-.03,1.02-.17,1.45-.04.37.11.65.51,1.04.85,0,.02-.01.06-.02.09,1.13.52,2.13.98,3.11,1.43-.02.25-.04.47-.07.75,1.17-.6,1.62-.48,1.67,0,.78.47,1.37.78,1.92,1.16.45.31,1.02.72,1.31.1.32-.71.37-1.59.4-2.39.03-1.01-.08-2.03-.14-3.1,0,0-.17-.05-.12-.04.06-1.16.11-2.21.18-3.52,1.66,0,3.39,0,5.11,0,2.91.02,5.83.05,8.74.08,1.74.02,3.37.21,4.05,2.24.21.64.7,1.19,1.07,1.81-.08.09-.22.26-.2.23.38.5.73.92,1.03,1.37.34.52.64,1.06.96,1.6.33.56.64,1.13.98,1.69.25.41.53.8.84,1.26,0,.01-.12.17-.07.1.38.61.7,1.02.91,1.48.35.75.43,1.97.97,2.21,1.1.5,1,1.45,1.4,2.22.24.46.4,1.08.79,1.31.76.45,1.05,1.05,1.36,1.85.29.76.81,1.69,1.97,1.58q-.66,1.11.15,2.1c.4.48,1.09.95,1.14,1.46.16,1.83,2.13,2.63,2.34,4.47.08.7,1.12,1.25,1.52,1.98.33.59.37,1.35.54,2.07-.3.46-.67,1.04-1.15,1.8-.16.14-.54.44-.93.77.33,1.03,0,1.7-.85,1.85-.44,2.9-1.92,4.5-5.08,3.99,0,0-.05-.21-.1-.44-.28.18-.55.35-.83.53-.13-.26-.22-.46-.24-.48-.52.14-.92.33-1.32.33-.63,0-1.26-.16-1.89-.17-2.17-.03-4.34-.01-6.51-.03-.51,0-1.02-.13-1.53-.11-.8.02-1.6.1-2.4.16-.73.06-1.53-.05-2.16.23-1.04.47-2.03.31-3.01.08-.96-.23-1.6-.07-1.88.99-.36-.77-1.98-1.21-2.75-.86-.18.08-.43.09-.63.06-1.32-.22-2.62-.51-3.96-.1-.24.07-.56.18-.75.09-.99-.5-1.98-.23-2.99-.11-.59.07-1.2.01-1.93.01,0,.03-.02.09-.03.11-1.4,0-2.68.02-3.97,0-.99-.02-1.98-.1-2.98-.16-.01-.11-.03-.22-.04-.34-.06.23-.11.46-.15.63-.32-.08-.67-.29-.9-.19-.86.37-1.73.32-2.55.05-1.46-.47-2.68-2.3-2.68-3.81-.9-.06-1.21-.74-.89-1.89-.45-.27-.89-.52-1.34-.79.34-1.12.71-1.49,1.72-1.88.5-.19.97-.46,1.43-.74.71-.42,1.35-.97,2.1-1.29.68-.3,1.27-.54,1.73-1.22.71-1.05.74-1.12-.48-1.6-.59-.23-1.1-.65-1.72-1.02-.03.02-.26.16-.27.15-.31-.45-.6-.93-.92-1.45-.03.02-.23.15-.43.28-.12-.19-.24-.37-.43-.67-.13.28-.23.49-.24.5-.73-.65-1.35-1.2-2.05-1.81-.03.03-.2.18-.4.35-.06-.27-.1-.48-.15-.7-.93.37-1.33.02-1.47-1.24-.19.15-.37.29-.58.45-.07-.31-.13-.53-.2-.84-.22.27-.38.45-.44.54-1.99-1.23-4.15-2.08-5.76-3.78-.1.11-.21.22-.24.25-1.81-.98-3.69-1.77-5.04-3.39-.09.06-.26.17-.43.29-.55-1.07-2.37-.49-2.5-1.92-.3.04-.6.19-.76.09-1.34-.78-2.61-1.68-3.98-2.39-.95-.49-2.02-.73-3.08-1.1.04.7.08,1.16.09,1.61.01,1.14,0,2.27.02,3.41,0,.33.14.66.11.98-.11,1.22-.37,2.45-.37,3.67,0,2.49.19,4.99.2,7.48.02,2.33-.16,4.67-.11,7,.05,2.21.31,4.41,0,6.61,0,.07,0,.15,0,.22.06,1.84.12,3.67.19,5.51.01.34.12.68.18,1.02.33-.08.71-.09,1-.25,1.48-.8,2.62-2.17,4.36-2.55.18-.04.29-.35.47-.44.54-.27,1.22-.82,1.64-.67.65.23,1.17.92.9,1.53.84,1.29,1.57,2.42,2.39,3.68-.12.02.08-.01.1-.01.17.46.25.86.45,1.18.57.94,1.23,1.83,1.77,2.78.41.7.7,1.47,1.08,2.27-.05.01.16-.05.4-.12.03.3-.04.68.11.83,1.24,1.2,2.22,2.45,1.14,4.26-.47.79-.98,1.55-1.54,2.43.29.59-.12,1.18-1.3,1.46-.03.53-.05,1.05-.06,1.28-.6.94-1.08,1.68-1.58,2.45.03.21.2.62.08.93-.25.67-.64,1.29-.99,1.92-.59,1.05-1.19,2.08-1.83,3.18-.18-.28-.24-.5-.39-.58-.45-.25-.94-.43-1.39-.68-.43-.25-.82-.57-1.24-.83-.93-.56-1.83-1.19-2.82-1.63-.69-.31-1.49-.35-2.25-.51-.05.59-.09,1.18-.15,1.77-.05.47-.11.93-.18,1.53.51.38.42.73-.47,1.49.22.5.39.9.56,1.29-.13.76-.28,1.57-.44,2.48,0,0,.19.06.33.11-.29.82.71,2.03-1.01,2.42.49.16.68.22.94.31-.18.2-.32.35-.5.55.23.08.42.15.54.19-.01,2.31.37,4.62-.41,6.85.24.04.48.08.66.11-.14.34-.36.63-.36.92,0,.86.1,1.73.12,2.59.01.97-.28,1.93,0,2.93.15.53.03,1.15-.02,1.72-.04.43-.15.86-.24,1.35.03.06.23.24.24.43.03,1.51-.05,3.03.04,4.54.07,1.1.35,2.19.54,3.29.63-.36,1.05-.59,1.47-.84,1.04-.62,2.08-1.24,3.12-1.87.21-.13.43-.26.65-.37,1.1-.53,2.25-.99,3.31-1.59,1.37-.78,2.65-1.71,4.01-2.51,1.71-1.01,3.47-1.92,5.19-2.92,1.98-1.15,3.93-2.34,5.91-3.5,1.05-.62,2.14-1.17,3.19-1.79,1.68-1,3.32-2.06,5.01-3.02.75-.43.74-.74.07-1.18-1.49-.96-3.39-1.22-4.62-2.64-.04-.05-.14-.05-.2-.08-.85-.4-1.7-.8-2.55-1.2.11-.09.21-.18.32-.27v-1.71c.64-.63,1.82-1.01,1.62-2.4-.01-.08.14-.19.23-.27,1.04-.85,1.75-1.91,2.13-3.2.09-.31.17-.71.39-.89.89-.72,1.25-1.7,1.63-2.71.18-.49.59-.9.92-1.39-.03-.04-.08-.12-.1-.15,1.37-2.02,2.01-4.34,3.76-5.91-.05-.06-.14-.15-.17-.18,1.04-3.18,2.82-4.98,6.27-3.61.36-.17.72-.32,1.05-.27.41.06.79.29,1.23.47.07-.15.16-.34.26-.53.15.16.3.31.46.48.15-.24.28-.46.25-.41h2.6c.71-.26,1.27-.63,1.83-.64,2.36-.05,4.72-.01,7.09.05.44.01.87.29,1.2.41h3.01c.14.06.57.24,1.04.44.63-.73,1.34-1.01,2.15-.08.17-.19.34-.38.52-.57.1.15.2.29.14.2,1.1-.1,2.01-.19,3-.28.04.1.13.54.25.55,1.03.09,1.32.88,1.67,1.62.21.43.24,1.09.57,1.3,1.1.68,1.12,2.02,1.95,2.85.5.5.78,1.22,1.12,1.86.21.4.36.83.64,1.5,0,0,.24.18.37.43.56,1.04,1.03,2.13,1.64,3.14.87,1.45,1.83,2.85,2.75,4.27.21.33.66.67.63.97-.16,1.44,1.04,1.82,1.62,2.42.06.73.11,1.3.16,1.95-.04.03-.14.14-.26.22-1.45.96-2.9,1.91-4.35,2.87-.06.04-.15.09-.2.08-1.1-.31-1.61.73-2.42,1.08-.11.05-.14.74,0,.84.78.57,1.59,1.13,2.46,1.55,1.85.89,3.66,1.82,5.38,2.96,1.86,1.23,3.87,2.23,5.84,3.3,1.29.7,2.63,1.32,3.92,2.03,3.22,1.78,6.27,3.87,9.7,5.29,1.73.72,3.25,1.95,5.02,3.05.23-1.72,1.07-3.18.29-4.79-.06-.12,0-.29,0-.44.01-.68-.04-1.37.05-2.04.06-.44.3-.86.46-1.28-.24-.96-.35-2-.39-3.04,0-.14.37-.29.4-.32-.8-2-.29-4.07-.61-6.01.15-.02.39-.05.7-.09-.24-.23-.42-.39-.64-.61.23-.14.41-.24.46-.27-.27-.56-.54-1.11-.8-1.66.18-.03.34-.07.33-.06v-4.34s.2-.05.42-.1c-.14-.21-.27-.39-.39-.58.25-.12.43-.2.79-.38-1.64-.41-.58-1.58-.96-2.3.19-.06.38-.12.38-.12-.2-.94-.37-1.76-.55-2.61.1-.02.29-.06.2-.04.16-.53.25-.86.36-1.21-.47-.38-1.08-.8-.53-1.39,0-.86-.05-1.54.02-2.21.06-.56.08-1.23-.57-1.16-.78.09-1.56.49-2.27.88-1.13.62-2.2,1.35-3.31,2.02-.74.45-1.49.9-2.25,1.36-.91-1.45-1.85-2.85-2.7-4.31-1.52-2.61-3.02-5.23-4.44-7.9-.54-1.02-1.32-2.11-.61-3.38.53-.96,1.1-1.9,1.68-2.84.04-.07.32.02.49.03-.09-.06-.19-.12-.28-.18,1.08-2,2.17-4,3.29-6.07-.03,0,.18.03.39.05-.09-.06-.17-.12-.26-.18.72-1.14,1.45-2.27,2.04-3.2.3-.69.41-1.26.73-1.65.7-.84,1.26-1.69,1.5-2.8.07-.32,0-1.01.74-1.23.6-.18.91-2.2.59-2.73,1.24,0,1.25-.01,1.67-1.15.23-.62.39-1.29.73-1.85.91-1.48,1.94-2.88,2.83-4.38.38-.64.56-1.42.75-2.16.15-.57.62-.12.73-.27.28-.37.43-.84.56-1.11h2.42c.18.09.61.3,1.08.53.76-.88,1.5-.97,2.32-.03-.08-1.45.62-.03.98-.42.82-.86,3.65.16,4.02,1.25.26.79.77,1.5,1.19,2.3-.03.04-.16.19-.16.19.39.51.76.89,1.01,1.33.25.45.29,1.02.55,1.46.94,1.56,1.97,3.06,2.9,4.62.45.75.7,1.62,1.14,2.39.34.61.84,1.12,1.24,1.7.47.69.79,1.53,1.39,2.07.73.65,1.18,1.37,1.44,2.26.29.97.63,1.86,2.12,1.35-.67.72-.29,2.41.42,2.94.16.12.31.3.38.49.5,1.25.83,2.59,1.93,3.51.19.16.41.41.42.63.03,1.06.76,1.71,1.32,2.48.36.5.64,1.06,1.04,1.72-.03,0,.2-.03.21-.03.17.48.25.91.46,1.26.55.94,1.18,1.84,1.72,2.79.39.68.7,1.4,1.09,2.18-.05.01.16-.03.14-.03,2.3,2.51,2.73,4.95-.16,7.2.38.79-.12,1.48-1.14,1.67-.05.56-.1,1.07-.15,1.71-.25,0-.68.12-.98-.02-1.18-.55-2.26-1.36-3.48-1.75-1.29-.41-1.92-1.85-3.48-1.84-1.1,0-1.24-.03-1.08,1.13.08.64.02,1.3.02,2.04-.02-.01.29.17.27.19-.26.52-.55,1.03-.85,1.56.81-.06.34.45.2.82.25.06.45.11.46.11-.18.88-.35,1.69-.54,2.61.01,0,.2.08.31.13-.22.83.72,1.97-.83,2.47,1.45.02.28.6.37.88.25.05.46.08.4.07v6.95s.02,0,.03.01c.04,2.1.36,4.13-.4,6.07.12.06.39.18.66.31-.23.26-.41.47-.65.75h.52c-.1.84-.3,1.68-.27,2.51.04,1.22.52,2.47.33,3.63-.28,1.67.08,3.1.55,4.57.5-.32.87-.59,1.27-.81.61-.33,1.26-.6,1.87-.95,2.12-1.23,4.23-2.5,6.35-3.72,2.71-1.55,5.43-3.07,8.14-4.63.72-.42,1.35-1,2.08-1.41,2.3-1.3,4.63-2.55,6.94-3.81.06-.04.11-.1.18-.13,1.55-.96,3.11-1.9,4.65-2.87.28-.18.5-.45.75-.67-.23-.24-.45-.51-.7-.73-1.02-.89-2.58-.71-3.54-1.83-.36-.42-1.08-.52-1.6-.83-.46-.27-1.07-.56-1.24-.99-.14-.36.11-1.09.44-1.38.75-.67,1.15-1.49,1.46-2.4.13-.38.23-.79.46-1.11.52-.73,1.2-1.34,1.38-2.29.07-.35.27-.68.45-.99.44-.78.88-1.56,1.38-2.31.21-.31.56-.52.85-.78.07-.07.14-.13.21-.2-.15-.19-.28-.35-.41-.51.29-.15.54-.29.79-.42-.1-.06-.21-.11-.31-.17.4-.72.69-1.54,1.23-2.13,1-1.1,3.61-1.3,4.81-.51.53-.74,1.14-.69,2.09.11.48-.21.91-.4,1.03-.46h2.98c.23-.12.61-.49.99-.5,1.82-.06,3.63-.03,5.49-.03-.08.23-.2.4-.19.58.04,1.28-.05,2.59.21,3.83.28,1.32-.69,2.59.11,3.94.51.87.63,1.04,1.47.43.57-.41,1.21-.71,2-1.16,0-.06.02-.28.05-.28.51-.04,1.02-.03,1.42-.03.22-.24.45-.5.74-.81,0-.02-.06-.2-.06-.18.85-.31,1.62-.6,2.5-.92,0,0-.03-.19-.07-.37.85-.01,1.33-1.61,2.43-.43,0-.34-.08-.64.01-.72.4-.36.85-.68,1.31-.98,1.05-.67,2.04-1.53,3.2-1.92,1.53-.51,2.75-1.37,3.93-2.37.18-.15.43-.25.65-.34.53-.22,1.08-.41,1.61-.62.4-.16.8-.34,1.34-.58.16-.2.38-.73.78-.93.63-.31,1.37-.4,2.06-.6.07-.02.08-.18.15-.24.38-.32.74-.67,1.16-.94.83-.54,1.7-1.03,2.53-1.56.37-.24.74-.49,1.1-.73.62-.57,1.31-1.06,2.05-1.45-.31-.16-.6-.34-.89-.54Z"/>
  </g>
</svg>