<?xml version="1.0" encoding="UTF-8"?>
<svg id="Layer_2" data-name="Layer 2" xmlns="http://www.w3.org/2000/svg" viewBox="0 0 204.33 218.38">
  <defs>
    <style>
      .cls-1 {
        fill: #fff;
        stroke-width: 0px;
      }
    </style>
  </defs>
  <g id="Layer_1-2" data-name="Layer 1">
    <g>
      <g id="_Radial_Repeat_" data-name="&amp;lt;Radial Repeat&amp;gt;">
        <g>
          <path class="cls-1" d="m122.88,203.45c-.13-.12-.28-.22-.38-.35-1.22-1.54-2.24-3.21-3.23-4.89-2.02-3.42-3.6-7.04-4.84-10.81-1.19-3.62-2.01-7.32-2.44-11.1-.33-2.94-.43-5.89-.3-8.85.19-4.21.85-8.34,1.92-12.41.78-2.94,1.78-5.8,2.94-8.61.81-1.96,1.9-3.78,2.98-5.6,2.37-4,5.16-7.7,8.35-11.08,3.3-3.48,6.96-6.53,11.02-9.09,2.27-1.43,4.61-2.72,7.05-3.82,4.26-1.92,8.66-3.4,13.26-4.26,2.38-.45,4.78-.7,7.19-.89,2.51-.21,5.03-.3,7.54-.17,2.4.12,4.77.41,7.14.83,4.89.87,9.56,2.41,14.02,4.59,3.24,1.59,6.28,3.49,9.1,5.75.06.05.11.11.13.23-.12-.07-.25-.14-.37-.22-3.07-1.98-6.34-3.54-9.76-4.82-3.72-1.4-7.54-2.37-11.46-2.97-3.3-.5-6.63-.72-9.97-.66-3.16.05-6.31.29-9.43.72-3.99.55-7.85,1.64-11.6,3.13-5.14,2.04-9.88,4.78-14.25,8.17-3.03,2.35-5.77,4.99-8.28,7.87-3.04,3.49-5.66,7.28-7.91,11.33-1.63,2.93-2.82,6.04-3.9,9.2-1.13,3.28-1.93,6.64-2.46,10.06-.58,3.74-.81,7.5-.64,11.29.2,4.63.94,9.18,2.26,13.62,1.29,4.31,3.04,8.41,5.36,12.27.32.53.64,1.06.97,1.58h.01Z"/>
          <path class="cls-1" d="m198.92,117.25c-.06-.04-.13-.07-.19-.11-3.74-2.55-7.8-4.44-12.08-5.88-4.28-1.44-8.68-2.3-13.18-2.67-3.59-.29-7.18-.24-10.77.09-2.17.2-4.34.41-6.47.86-1.99.42-3.96.97-5.89,1.61-4.3,1.42-8.39,3.32-12.27,5.67-2.91,1.76-5.65,3.77-8.22,6-2.82,2.44-5.4,5.11-7.74,8.01-2,2.47-3.84,5.06-5.45,7.81-.48.83-1.01,1.63-1.42,2.5-.8,1.7-1.58,3.41-2.29,5.14-1.28,3.15-2.24,6.41-2.98,9.73-1.11,4.96-1.54,9.99-1.31,15.06.3,6.67,1.73,13.09,4.34,19.25,1.19,2.8,2.58,5.5,4.3,8.01.06.09.12.19.09.35-.52-.69-1.06-1.37-1.55-2.09-2.58-3.73-4.64-7.74-6.24-11.98-1.44-3.83-2.44-7.77-3.03-11.82-.64-4.37-.71-8.75-.32-13.15.38-4.2,1.23-8.29,2.48-12.31.67-2.16,1.4-4.3,2.35-6.35.64-1.39,1.37-2.75,2.12-4.1,1.18-2.13,2.53-4.16,3.96-6.14,1.67-2.3,3.48-4.48,5.44-6.54,2.46-2.58,5.13-4.92,8.01-7.03,5.92-4.33,12.43-7.42,19.48-9.41,4.21-1.19,8.51-1.84,12.88-2.02,2.9-.12,5.79,0,8.67.35,3.48.42,6.9,1.1,10.25,2.16,1.92.61,3.81,1.31,5.66,2.13,2,.87,3.94,1.85,5.82,2.95,1.9,1.11,3.71,2.36,5.44,3.72.06.04.11.09.16.14-.01.02-.03.04-.04.06Z"/>
          <path class="cls-1" d="m102.86,161.04c-.04,1.14-.04,2.28,0,3.42,0,.33.02.65.04.98.05,1.3.15,2.58.3,3.86.09.76.19,1.52.31,2.27.3,1.93.7,3.84,1.19,5.74.21.77.46,1.53.68,2.3.06.2.06.42.09.63.01.06-.02.14.01.18.57.75.72,1.68,1.04,2.52,1.35,3.48,3,6.8,5.09,9.89.04.07.08.14.12.21,0,.01-.02.03-.05.09-.33-.42-.66-.82-.95-1.24-3.97-5.63-6.78-11.79-8.5-18.46-.05-.2-.1-.39-.14-.59-.16-.62-.3-1.25-.44-1.88-.22-1.07-.42-2.14-.58-3.22-.16-1.05-.29-2.11-.38-3.17-.03-.33-.06-.67-.08-1-.11-1.59-.16-3.19-.13-4.78h0c.01-1.69.1-3.35.28-5.03.23-2.25.58-4.48,1.06-6.68.93-4.23,2.25-8.33,4.03-12.28.36-.79.75-1.57,1.17-2.34.73-1.34,1.53-2.64,2.34-3.93.38-.59.76-1.18,1.16-1.76,1.06-1.57,2.18-3.09,3.4-4.55.14-.19.29-.38.45-.56.98-1.17,1.99-2.29,3.04-3.38.04.18.08.36.11.54.26,1.4.47,2.8.63,4.2-1.32,1.49-2.57,3.02-3.73,4.61-.96,1.29-1.86,2.61-2.7,3.98-.33.55-.68,1.09-1.01,1.64-.39.64-.77,1.3-1.11,1.97-.84,1.68-1.61,3.4-2.32,5.13-.76,1.86-1.42,3.75-1.97,5.67-.22.75-.43,1.51-.62,2.27,0,.06-.02.11-.05.17-.21.84-.4,1.69-.58,2.55-.48,2.28-.82,4.6-1.02,6.93-.09,1.03-.15,2.06-.17,3.1Z"/>
          <path class="cls-1" d="m193.79,111.41c-.18-.08-.3-.12-.4-.19-4.44-2.86-9.24-4.9-14.3-6.32-.51-.14-1.02-.28-1.54-.41-.73-.18-1.47-.35-2.21-.5-1.46-.31-2.93-.55-4.41-.74-.12-.01-.23-.03-.35-.04-1.61-.2-3.23-.34-4.85-.41-1.65-.08-3.3-.08-4.96-.01-1.75.07-3.5.27-5.25.38-1.72.11-3.43.35-5.1.75-1.99.48-3.99.99-5.95,1.62-1.8.57-3.56,1.24-5.28,2.01,0,0,0,.01-.01,0-1.42.62-2.79,1.31-4.16,2.05-.77.42-1.52.85-2.26,1.3h-.01c-1.71,1.01-3.37,2.11-4.96,3.28-.15-.03-.31-.06-.46-.09-1.4-.3-2.8-.64-4.17-1.04,1.39-1.11,2.82-2.16,4.3-3.13,1.66-1.11,3.39-2.14,5.17-3.07.44-.24.88-.47,1.33-.69,1.65-.82,3.33-1.56,5.04-2.21,0,0,0-.01.01,0,2.62-1.03,5.3-1.85,8.06-2.48,2.63-.61,5.3-.97,7.99-1.24,2.83-.28,5.66-.16,8.48-.01.53.02,1.05.05,1.58.08,1.6.08,3.18.26,4.75.52t.01,0c1.23.21,2.44.47,3.65.77,1.16.28,2.31.59,3.45.94.05.02.11.03.16.05.61.19,1.22.39,1.82.6,3.16,1.1,6.18,2.5,9.08,4.2,1.97,1.15,3.85,2.44,5.64,3.85.03.02.04.06.11.18Z"/>
          <path class="cls-1" d="m134.16,197.2c.96.62,1.91,1.23,2.86,1.86.16.1.28.27.41.41.19.04.44.04.63.14,2.44,1.21,4.97,2.2,7.59,2.95,2.13.61,4.3,1.09,6.5,1.39,2.42.33,4.85.5,7.29.45,4.84-.1,9.53-.99,14.08-2.6,4.42-1.57,8.5-3.78,12.31-6.51,1.61-1.15,3.13-2.42,4.69-3.63.15-.12.3-.22.54-.4,0,.3.03.47.02.64-.06,1.28-.15,2.55-.19,3.83-.01.37-.2.58-.48.77-1.83,1.25-3.63,2.55-5.5,3.73-3.31,2.08-6.82,3.77-10.53,5-3.14,1.04-6.35,1.76-9.65,2.06-2.6.24-5.19.23-7.78-.03-2.57-.26-5.09-.78-7.56-1.54-3.55-1.09-6.93-2.57-10.08-4.55-1.84-1.16-3.61-2.43-5.14-3.96Z"/>
          <path class="cls-1" d="m201.5,202.61c0,.27.03.43.02.58-.06,1.28-.14,2.55-.19,3.83-.01.33-.13.55-.4.75-2.29,1.75-4.69,3.33-7.21,4.72-2.81,1.55-5.73,2.84-8.78,3.81-4.7,1.5-9.52,2.22-14.46,2.04-3.29-.12-6.52-.6-9.7-1.46-4.13-1.12-8.03-2.79-11.72-4.96-2.94-1.73-5.69-3.71-8.17-6.05-.2-.19-.39-.39-.52-.66.45.34.91.67,1.35,1.02,2.82,2.16,5.85,3.96,9.07,5.46,4.39,2.04,8.99,3.32,13.8,3.81,4.57.47,9.1.15,13.57-.88,2.85-.66,5.61-1.58,8.3-2.74,4.57-1.98,8.8-4.54,12.76-7.55.64-.48,1.26-.98,1.89-1.47.09-.07.19-.13.38-.26Z"/>
          <path class="cls-1" d="m137.16,201.02c1.12.8,2.21,1.63,3.36,2.38,2.57,1.71,5.28,3.16,8.16,4.27,4.02,1.54,8.16,2.49,12.47,2.73,3.51.19,6.99-.07,10.42-.77,4.15-.85,8.11-2.28,11.89-4.18,3.74-1.88,7.26-4.11,10.58-6.66.73-.56,1.45-1.11,2.23-1.71.03.16.07.26.07.37-.07,1.32-.15,2.63-.2,3.95-.02.42-.15.7-.49.95-2.45,1.83-5,3.52-7.69,4.97-3.08,1.67-6.28,3.06-9.64,4.05-2.23.66-4.48,1.15-6.78,1.45-2.66.35-5.33.37-8.01.2-4.47-.29-8.75-1.38-12.88-3.08-2.96-1.22-5.76-2.75-8.39-4.59-1.65-1.16-3.25-2.39-4.69-3.81-.15-.15-.3-.31-.45-.47.02-.02.03-.04.05-.06Z"/>
          <path class="cls-1" d="m163.33,134.28c-.12.07-.25.14-.42.23.02-.1.01-.18.04-.2.11-.06.22-.09.33-.14.01.03.03.07.04.1Z"/>
          <path class="cls-1" d="m122.87,203.47c.08.1.16.2.24.3-.03.01-.05.03-.08.04-.05-.12-.1-.24-.14-.36,0,0-.01.01-.01.01Z"/>
        </g>
      </g>
      <g id="_Radial_Repeat_-2" data-name="&amp;lt;Radial Repeat&amp;gt;">
        <g>
          <path class="cls-1" d="m43.27,74.14c.17-.05.33-.13.5-.16,1.94-.28,3.9-.34,5.86-.35,3.97-.04,7.89.4,11.78,1.21,3.73.77,7.34,1.91,10.83,3.43,2.71,1.18,5.32,2.57,7.82,4.17,3.55,2.27,6.8,4.9,9.79,7.87,2.16,2.14,4.13,4.44,5.99,6.86,1.29,1.69,2.33,3.54,3.36,5.38,2.28,4.06,4.09,8.32,5.42,12.77,1.37,4.59,2.17,9.29,2.36,14.09.1,2.68.05,5.35-.22,8.02-.47,4.65-1.38,9.2-2.94,13.61-.8,2.28-1.78,4.49-2.82,6.67-1.08,2.28-2.26,4.5-3.62,6.62-1.3,2.01-2.74,3.93-4.29,5.76-3.2,3.8-6.86,7.08-10.98,9.85-2.99,2.01-6.16,3.7-9.53,5.01-.07.03-.15.04-.26,0,.12-.07.25-.14.37-.21,3.25-1.66,6.23-3.72,9.05-6.04,3.07-2.52,5.82-5.35,8.3-8.44,2.09-2.61,3.94-5.38,5.56-8.31,1.53-2.76,2.9-5.61,4.1-8.53,1.52-3.73,2.51-7.62,3.09-11.61.8-5.47.8-10.95.05-16.42-.52-3.79-1.44-7.5-2.68-11.11-1.5-4.38-3.48-8.54-5.85-12.52-1.72-2.88-3.82-5.46-6.01-7.98-2.28-2.61-4.78-4.99-7.48-7.16-2.95-2.38-6.1-4.45-9.45-6.2-4.11-2.14-8.42-3.78-12.93-4.85-4.37-1.04-8.81-1.57-13.3-1.49-.62.01-1.24.03-1.85.04v.02Z"/>
          <path class="cls-1" d="m79.91,183.09c.06-.04.13-.08.19-.11,4.08-1.96,7.75-4.53,11.14-7.52,3.39-2.99,6.33-6.36,8.9-10.08,2.05-2.97,3.79-6.1,5.31-9.37.91-1.98,1.81-3.96,2.49-6.03.63-1.94,1.14-3.91,1.55-5.91.92-4.44,1.32-8.93,1.22-13.46-.07-3.4-.44-6.77-1.08-10.12-.7-3.66-1.73-7.23-3.06-10.7-1.14-2.97-2.46-5.85-4.04-8.62-.47-.83-.91-1.69-1.45-2.48-1.07-1.54-2.16-3.07-3.31-4.55-2.09-2.69-4.43-5.14-6.94-7.44-3.75-3.44-7.88-6.33-12.39-8.67-5.93-3.08-12.21-5.05-18.84-5.87-3.02-.37-6.05-.51-9.09-.28-.11,0-.23,0-.35-.1.86-.1,1.72-.23,2.58-.3,4.52-.37,9.02-.15,13.5.59,4.04.67,7.95,1.77,11.75,3.29,4.11,1.63,7.94,3.76,11.55,6.3,3.45,2.42,6.57,5.21,9.42,8.3,1.53,1.66,3.02,3.36,4.32,5.21.89,1.26,1.69,2.57,2.49,3.88,1.26,2.09,2.34,4.27,3.33,6.5,1.15,2.6,2.14,5.25,2.94,7.98,1.01,3.42,1.7,6.9,2.08,10.45.79,7.29.21,14.48-1.59,21.58-1.08,4.24-2.66,8.29-4.69,12.16-1.35,2.57-2.9,5.02-4.64,7.33-2.11,2.8-4.4,5.43-6.99,7.8-1.49,1.36-3.04,2.64-4.67,3.84-1.76,1.29-3.57,2.48-5.47,3.56-1.91,1.09-3.9,2.03-5.94,2.85-.07.03-.13.05-.2.07-.01-.02-.02-.05-.03-.07Z"/>
          <path class="cls-1" d="m119.78,111.97c-.17-.05-.35-.11-.52-.17-1.34-.47-2.66-.99-3.96-1.56-.62-1.88-1.33-3.72-2.12-5.53-.64-1.46-1.34-2.91-2.1-4.32-.3-.56-.6-1.13-.9-1.69-.37-.67-.75-1.32-1.17-1.96-1.03-1.56-2.13-3.08-3.28-4.57-1.22-1.58-2.52-3.08-3.9-4.51-.01,0-.02-.02-.02-.02-.54-.57-1.1-1.13-1.66-1.68-.06-.04-.1-.09-.13-.13-.63-.6-1.26-1.19-1.91-1.77-1.74-1.57-3.57-3.01-5.49-4.35-.86-.6-1.73-1.17-2.61-1.71-.97-.6-1.95-1.17-2.95-1.71-.29-.16-.58-.31-.87-.46h-.01c-1.15-.6-2.3-1.15-3.48-1.67-.7-.3-1.4-.59-2.12-.86-1.82-.71-3.68-1.32-5.57-1.84-.77-.21-1.55-.37-2.33-.56-.2-.05-.4-.16-.59-.24-.06-.02-.11-.09-.16-.08-.93.12-1.81-.22-2.71-.36-3.68-.57-7.38-.8-11.1-.54-.08,0-.16.01-.24.01-.01,0-.02-.03-.06-.1.53-.07,1.04-.16,1.55-.2,6.86-.63,13.6.03,20.23,1.87.2.05.39.11.59.17.62.18,1.23.37,1.84.56,1.04.34,2.07.71,3.09,1.11.98.39,1.96.8,2.92,1.25h0c.31.14.6.28.91.43,1.43.7,2.83,1.45,4.19,2.27,0,0,0,.01.01.01,1.45.84,2.85,1.77,4.22,2.76,1.83,1.33,3.59,2.74,5.25,4.26,3.2,2.92,6.09,6.12,8.62,9.63.51.71.98,1.43,1.43,2.17.8,1.3,1.54,2.65,2.25,4.01.32.62.64,1.23.92,1.86t0,.01c.84,1.7,1.59,3.44,2.25,5.22h0c.1.23.18.46.26.68.52,1.42.99,2.86,1.41,4.31Z"/>
          <path class="cls-1" d="m122.07,130.87c-.01.5-.04,1.01-.07,1.51-.12,1.84-.32,3.67-.61,5.48h0c-.43,2.79-1.06,5.52-1.89,8.23-.79,2.58-1.81,5.07-2.92,7.53-1.17,2.6-2.69,4.98-4.23,7.35-.29.44-.57.89-.86,1.33-.87,1.34-1.81,2.61-2.83,3.83h-.01c-.78.98-1.62,1.91-2.49,2.81-.81.86-1.66,1.69-2.53,2.51-.04.04-.09.08-.13.12-.47.43-.94.86-1.42,1.27-2.53,2.19-5.26,4.11-8.18,5.77-1.98,1.13-4.04,2.11-6.16,2.95-.03.02-.07.01-.21.01.16-.11.26-.19.37-.25,4.69-2.41,8.85-5.55,12.62-9.23.38-.37.76-.75,1.12-1.13.53-.54,1.05-1.1,1.55-1.66.99-1.11,1.93-2.25,2.83-3.44.08-.09.16-.19.23-.29.98-1.3,1.91-2.64,2.78-4.01.89-1.39,1.72-2.81,2.48-4.27.82-1.56,1.51-3.17,2.29-4.75.77-1.54,1.41-3.13,1.9-4.78.58-1.97,1.14-3.96,1.58-5.96.41-1.86.71-3.73.91-5.62h0c.16-1.54.26-3.06.3-4.6.02-.87.03-1.74.01-2.61-.03-1.99-.15-3.97-.36-5.95.1-.12.21-.23.31-.35.96-1.07,1.95-2.1,2.98-3.09.27,1.76.46,3.52.56,5.29.13,1.99.16,3.99.08,6Z"/>
          <path class="cls-1" d="m43.04,87.03c-1.01.52-2.02,1.04-3.04,1.55-.17.08-.37.1-.56.15-.13.15-.25.36-.43.48-2.27,1.51-4.39,3.2-6.35,5.09-1.59,1.54-3.09,3.18-4.45,4.94-1.49,1.93-2.86,3.95-4.03,6.09-2.33,4.24-3.91,8.74-4.79,13.5-.85,4.61-.98,9.25-.52,13.91.19,1.97.53,3.92.8,5.88.03.19.04.37.08.66-.26-.14-.42-.21-.56-.3-1.07-.69-2.14-1.4-3.22-2.08-.32-.2-.4-.47-.43-.8-.16-2.21-.4-4.42-.48-6.63-.14-3.91.15-7.79.94-11.62.67-3.24,1.65-6.37,3.04-9.38,1.09-2.37,2.4-4.61,3.92-6.72,1.51-2.1,3.22-4.02,5.11-5.78,2.72-2.53,5.69-4.72,8.97-6.45,1.93-1.02,3.91-1.91,6-2.47Z"/>
          <path class="cls-1" d="m4.69,142.64c-.24-.13-.38-.19-.52-.28-1.08-.69-2.14-1.39-3.22-2.08-.28-.18-.41-.39-.45-.72-.37-2.86-.54-5.72-.49-8.61.06-3.21.41-6.38,1.09-9.51,1.05-4.82,2.84-9.35,5.46-13.55,1.75-2.79,3.78-5.35,6.11-7.67,3.03-3.01,6.43-5.56,10.15-7.67,2.96-1.68,6.05-3.07,9.32-4.05.26-.08.53-.15.83-.11-.52.22-1.04.45-1.56.67-3.28,1.36-6.35,3.08-9.26,5.12-3.96,2.78-7.37,6.13-10.2,10.05-2.69,3.72-4.68,7.8-6.02,12.2-.86,2.8-1.44,5.65-1.78,8.55-.57,4.95-.47,9.89.16,14.83.1.79.22,1.58.33,2.37.02.11.02.23.03.46Z"/>
          <path class="cls-1" d="m38.23,87.72c-1.25.57-2.51,1.11-3.74,1.72-2.76,1.37-5.38,2.99-7.78,4.93-3.34,2.71-6.24,5.82-8.6,9.44-1.92,2.95-3.43,6.08-4.54,9.41-1.34,4.02-2.08,8.16-2.32,12.39-.24,4.18-.07,8.34.48,12.49.12.91.24,1.81.37,2.79-.15-.05-.26-.07-.35-.12-1.11-.71-2.2-1.45-3.32-2.15-.35-.22-.53-.48-.58-.9-.36-3.04-.55-6.09-.46-9.15.09-3.5.49-6.96,1.31-10.38.55-2.26,1.25-4.46,2.13-6.6,1.03-2.48,2.34-4.8,3.83-7.04,2.49-3.73,5.57-6.89,9.1-9.61,2.54-1.96,5.26-3.62,8.17-4.97,1.83-.85,3.7-1.61,5.64-2.16.21-.06.42-.11.63-.16,0,.02.01.05.02.07Z"/>
          <path class="cls-1" d="m82.95,143.75c0-.14,0-.28,0-.48.08.07.15.1.15.13,0,.12-.03.24-.05.36-.04,0-.07,0-.11-.01Z"/>
          <path class="cls-1" d="m43.26,74.12c-.13.02-.25.03-.38.05,0-.03,0-.06,0-.09.13.02.25.04.38.05,0,0,0-.02,0-.02Z"/>
        </g>
      </g>
      <g id="_Radial_Repeat_-3" data-name="&amp;lt;Radial Repeat&amp;gt;">
        <g>
          <path class="cls-1" d="m195.06,69.85c-.04.17-.05.35-.11.51-.73,1.82-1.66,3.54-2.62,5.25-1.95,3.46-4.29,6.64-6.94,9.6-2.53,2.84-5.33,5.4-8.39,7.66-2.38,1.76-4.89,3.32-7.52,4.69-3.74,1.94-7.65,3.44-11.71,4.54-2.93.8-5.92,1.36-8.93,1.76-2.11.28-4.23.25-6.34.22-4.65-.05-9.25-.62-13.77-1.7-4.66-1.11-9.13-2.76-13.38-5-2.37-1.25-4.66-2.63-6.84-4.2-3.79-2.73-7.27-5.8-10.32-9.35-1.58-1.84-2.99-3.79-4.37-5.78-1.43-2.07-2.77-4.2-3.92-6.45-1.09-2.13-2.03-4.34-2.85-6.6-1.69-4.67-2.7-9.48-3.04-14.43-.25-3.6-.12-7.19.43-10.75.01-.08.04-.15.13-.23,0,.14,0,.29,0,.43-.19,3.65.11,7.26.7,10.86.65,3.92,1.72,7.72,3.16,11.41,1.22,3.11,2.69,6.1,4.41,8.97,1.62,2.71,3.4,5.32,5.34,7.81,2.47,3.18,5.35,5.98,8.51,8.48,4.34,3.43,9.08,6.17,14.2,8.25,3.55,1.45,7.21,2.5,10.96,3.24,4.54.89,9.14,1.26,13.77,1.19,3.35-.05,6.64-.58,9.92-1.22,3.4-.66,6.71-1.65,9.94-2.9,3.53-1.36,6.9-3.05,10.1-5.09,3.91-2.49,7.48-5.4,10.66-8.77,3.08-3.27,5.76-6.84,7.94-10.78.3-.54.59-1.08.89-1.63h-.02Z"/>
          <path class="cls-1" d="m82.39,47.1c0,.07,0,.15,0,.22-.34,4.51.05,8.98.94,13.4.89,4.43,2.34,8.67,4.28,12.75,1.55,3.26,3.39,6.34,5.46,9.28,1.26,1.78,2.52,3.55,3.98,5.17,1.37,1.52,2.82,2.94,4.34,4.3,3.39,3.02,7.07,5.61,11.04,7.79,2.98,1.64,6.09,3.01,9.3,4.12,3.52,1.22,7.12,2.12,10.8,2.7,3.14.49,6.3.79,9.48.81.96,0,1.92.06,2.87-.02,1.87-.15,3.74-.34,5.6-.59,3.37-.46,6.67-1.27,9.92-2.28,4.85-1.52,9.42-3.66,13.7-6.39,5.63-3.59,10.47-8.05,14.5-13.38,1.83-2.43,3.47-4.98,4.79-7.73.05-.1.11-.2.26-.25-.34.8-.66,1.6-1.03,2.39-1.94,4.1-4.38,7.89-7.26,11.39-2.6,3.16-5.51,6-8.72,8.53-3.47,2.74-7.23,4.99-11.23,6.85-3.82,1.77-7.8,3.08-11.9,4.01-2.2.5-4.42.94-6.67,1.14-1.53.14-3.07.18-4.61.21-2.44.04-4.87-.11-7.3-.36-2.83-.3-5.62-.78-8.38-1.44-3.47-.84-6.83-1.98-10.09-3.42-6.71-2.96-12.65-7.06-17.89-12.17-3.13-3.05-5.85-6.45-8.19-10.14-1.55-2.45-2.89-5.02-4.03-7.69-1.37-3.22-2.5-6.53-3.26-9.95-.43-1.97-.76-3.95-.99-5.96-.24-2.17-.36-4.34-.35-6.51.01-2.2.19-4.39.5-6.57,0-.07.02-.14.04-.21.02,0,.05,0,.07,0Z"/>
          <path class="cls-1" d="m116.63,114.81c-1.66-.64-3.28-1.36-4.86-2.16-1.79-.88-3.54-1.86-5.24-2.93-.42-.26-.84-.53-1.26-.81-1.54-1.02-3.02-2.11-4.45-3.26-2.19-1.76-4.24-3.68-6.17-5.75-1.84-1.98-3.49-4.11-5.06-6.3-1.67-2.31-2.98-4.83-4.27-7.35-.24-.46-.47-.93-.71-1.39-.73-1.43-1.36-2.89-1.91-4.38-.44-1.17-.83-2.36-1.18-3.56-.33-1.14-.63-2.29-.9-3.45-.01-.06-.03-.11-.04-.17-.14-.62-.27-1.24-.39-1.87-.63-3.29-.93-6.61-.91-9.97.01-2.28.19-4.55.52-6.8.01-.04.04-.07.1-.19.02.2.04.32.04.44-.26,5.27.37,10.45,1.67,15.55.13.51.27,1.02.42,1.53.21.73.43,1.45.67,2.17.47,1.41.99,2.81,1.57,4.19.04.11.08.22.13.33.63,1.49,1.32,2.96,2.07,4.39h0c.76,1.48,1.58,2.91,2.47,4.31.94,1.48,1.99,2.89,2.96,4.36.95,1.43,2.02,2.78,3.2,4.03,1.41,1.49,2.85,2.96,4.37,4.35,1.41,1.28,2.88,2.47,4.41,3.58,1.25.91,2.53,1.76,3.84,2.57.74.46,1.49.9,2.25,1.31,1.73.98,3.51,1.87,5.33,2.66.05.15.1.3.15.45.44,1.36.84,2.73,1.18,4.12Z"/>
          <path class="cls-1" d="m191.74,84.73c-.21.49-.39.98-.6,1.44-2.89,6.25-6.83,11.77-11.75,16.59-.14.14-.28.28-.43.42-.46.44-.93.88-1.41,1.31-.81.73-1.64,1.44-2.5,2.12-.83.67-1.67,1.3-2.54,1.92h-.01c-.27.19-.55.38-.83.57-1.32.89-2.66,1.72-4.04,2.5h-.01c-1.47.82-2.97,1.58-4.52,2.27-2.07.92-4.17,1.74-6.32,2.42-4.13,1.31-8.34,2.22-12.65,2.65-.86.09-1.73.13-2.59.15-1.53.05-3.06.01-4.59-.05-.7-.03-1.41-.07-2.11-.12-1.89-.14-3.77-.36-5.64-.67-.24-.04-.47-.08-.71-.12-1.49-.26-2.97-.58-4.43-.95.13-.12.26-.23.4-.35,1.08-.92,2.19-1.8,3.33-2.65,1.94.4,3.88.71,5.84.93h.01c1.59.18,3.19.29,4.79.34.64.02,1.28.05,1.92.06h0c.75.01,1.51.01,2.26-.03,1.88-.11,3.75-.3,5.6-.55,1.97-.27,3.9-.64,5.82-1.11.03,0,.05-.01.08-.02.83-.2,1.65-.41,2.47-.65.01,0,.02-.01.03-.01.82-.23,1.63-.48,2.44-.75,2.22-.73,4.39-1.59,6.51-2.59.94-.44,1.86-.9,2.77-1.4h.01c1.01-.53,2-1.1,2.97-1.7.28-.17.56-.34.83-.52,1.09-.69,2.16-1.43,3.19-2.19.61-.46,1.21-.92,1.8-1.41,1.52-1.22,2.98-2.52,4.38-3.9.56-.56,1.09-1.16,1.65-1.73.15-.16.34-.27.51-.4.04-.04.13-.05.14-.09.37-.87,1.1-1.46,1.67-2.17,2.34-2.91,4.39-5.99,6.02-9.35.04-.07.07-.14.11-.21.01-.01.04,0,.12,0Z"/>
          <path class="cls-1" d="m184.02,63.21c.06-1.14.11-2.27.18-3.41.01-.19.1-.37.15-.56-.06-.19-.18-.4-.2-.61-.17-2.72-.57-5.4-1.24-8.04-.54-2.15-1.21-4.27-2.05-6.32-.93-2.26-1.99-4.45-3.26-6.54-2.51-4.14-5.62-7.76-9.3-10.89-3.57-3.04-7.53-5.47-11.79-7.4-1.8-.81-3.66-1.5-5.49-2.25-.17-.07-.35-.15-.61-.27.25-.16.39-.26.54-.34,1.14-.58,2.28-1.15,3.41-1.75.33-.18.61-.12.91.03,2,.96,4.03,1.87,5.98,2.9,3.45,1.83,6.67,4.02,9.59,6.63,2.47,2.2,4.69,4.62,6.61,7.33,1.5,2.13,2.79,4.38,3.86,6.75,1.06,2.36,1.87,4.8,2.45,7.32.83,3.62,1.24,7.28,1.1,11-.08,2.18-.3,4.34-.86,6.44Z"/>
          <path class="cls-1" d="m155.03,2.18c.23-.14.36-.24.5-.31,1.14-.59,2.28-1.16,3.41-1.75.29-.15.54-.16.85-.03,2.66,1.11,5.23,2.39,7.7,3.88,2.74,1.66,5.32,3.54,7.69,5.7,3.65,3.32,6.68,7.13,9,11.5,1.54,2.91,2.75,5.95,3.59,9.13,1.09,4.14,1.6,8.35,1.57,12.63-.02,3.41-.37,6.78-1.16,10.1-.06.27-.14.53-.32.78.07-.56.13-1.12.2-1.68.46-3.52.51-7.04.19-10.58-.43-4.82-1.62-9.45-3.6-13.86-1.88-4.19-4.42-7.95-7.55-11.31-1.99-2.14-4.17-4.07-6.52-5.82-4-2.97-8.33-5.35-12.92-7.28-.74-.31-1.48-.6-2.22-.9-.11-.04-.21-.1-.42-.2Z"/>
          <path class="cls-1" d="m185.82,58.7c.13-1.37.3-2.73.39-4.1.19-3.08.1-6.15-.38-9.2-.67-4.25-1.92-8.32-3.87-12.16-1.59-3.14-3.55-6.02-5.88-8.64-2.81-3.17-6.03-5.88-9.57-8.2-3.5-2.3-7.19-4.23-11.06-5.83-.85-.35-1.69-.7-2.6-1.08.12-.11.19-.2.28-.24,1.17-.6,2.35-1.19,3.52-1.8.37-.19.68-.22,1.07-.05,2.81,1.21,5.54,2.57,8.15,4.17,2.99,1.83,5.79,3.91,8.33,6.33,1.68,1.6,3.24,3.31,4.65,5.15,1.63,2.13,2.99,4.43,4.18,6.84,1.98,4.02,3.18,8.27,3.77,12.69.42,3.17.5,6.37.22,9.56-.18,2.01-.45,4.01-.95,5.97-.05.21-.12.42-.18.62-.02,0-.05-.01-.07-.02Z"/>
          <path class="cls-1" d="m114.94,69.41c.12.07.24.14.41.24-.1.04-.16.08-.19.06-.1-.06-.19-.14-.29-.22.02-.03.04-.06.06-.09Z"/>
          <path class="cls-1" d="m195.08,69.85c.05-.12.1-.24.15-.36.02.02.05.03.07.05-.08.1-.16.2-.24.3,0,0,.02,0,.02,0Z"/>
        </g>
      </g>
    </g>
  </g>
</svg>