<?xml version="1.0" encoding="UTF-8"?>
<svg id="Layer_2" data-name="Layer 2" xmlns="http://www.w3.org/2000/svg" viewBox="0 0 57.94 53.29">
  <defs>
    <style>
      .cls-1 {
        fill: #fff;
        stroke-width: 0px;
      }
    </style>
  </defs>
  <g id="Layer_1-2" data-name="Layer 1">
    <path class="cls-1" d="m56.73,49.36c-.74-.66-1.49-1.31-2.23-1.96-.32-.28-.66-.55-.95-.86-.28-.31-.75-.36-.95-.75,0-.01-.03-.02-.04-.02-.65-.34-1.08-.95-1.65-1.39-.17-.13-.13-.28.02-.43.48-.48.96-.96,1.44-1.44.22-.22.4-.48.65-.65.66-.45,1.04-1.19,1.72-1.62.32-.2.55-.57.82-.86.25-.27.46-.6.76-.8.46-.31.74-.77,1.15-1.12.11-.1.23-.22.13-.4-.32.02-.63.04-.93.06-.9.07-1.8.17-2.71.24-.93.07-1.87.14-2.8.19-.64.04-1.27.04-1.91.07-.42.03-.83.09-1.25.14-.03,0-.05.06-.08.09-.34.31-.68.63-1.03.92-.22.19-.46.35-.69.52-.32-.21-2.08-2.06-2.19-2.43.33-.42.66-.85.99-1.28.18-.22.36-.44.54-.66.41-.5.82-1,1.23-1.5.81-.96,1.63-1.92,2.44-2.89.22-.26.46-.47.8-.6.72-.31,1.42-.66,2.13-1.01,1.04-.51,2.07-1.04,3.12-1.56.6-.3,1.21-.58,1.81-.88.24-.11.45-.25.68-.37,0-.03,0-.06-.01-.09-.16-.02-.32-.04-.48-.05-.49-.05-.98-.11-1.47-.16-.11-.01-.22-.03-.33-.03-.43-.01-.87.01-1.3-.03-.2-.02-.46,0-.6-.32.25-.32.49-.67.76-.99.52-.61,1.06-1.22,1.6-1.83.11-.13.25-.25.13-.49-.19,0-.4,0-.61,0-.24,0-.48-.03-.71-.04-.25-.01-.5-.01-.75-.03-.48-.04-.95-.11-1.43-.14-.36-.03-.74-.02-1.1-.05-1-.09-2-.19-2.99-.31-.69-.08-1.39.04-2.08-.13-.2-.05-.42.07-.5.26-.13.31-.38.51-.59.75-.29.35-.57.71-.84,1.07-.18.24-.35.48-.53.71s-.38.44-.59.66c-.16.18-.36.32-.5.5-.49.67-.99,1.33-1.58,1.91-.05.05-.1.11-.13.17-.11.15-.21.31-.35.5-.81-1.19-1.59-2.33-2.38-3.48.1-.14.18-.27.28-.41-.04-.06-.09-.13-.12-.21-.33-.91-.66-1.83-.99-2.75-.29-.78-.58-1.56-.87-2.35-.07-.2-.12-.42-.19-.71,1.52.08,2.96.16,4.39.23,1.43.07,2.85.25,4.35.27-1.81-2.5-3.56-4.93-5.33-7.37.11-.14.18-.27.28-.37.26-.28.53-.55.8-.82.07-.07.16-.12.23-.19.38-.33.78-.64,1.15-.98.25-.23.43-.56.7-.73.24-.15.43-.32.59-.53.41-.51,1.04-.79,1.39-1.34.02-.04.07-.06.11-.07.25-.05.38-.24.52-.41.07-.09.15-.22.24-.24.26-.04.37-.24.52-.4.17-.19.32-.4.59-.46.08-.02.13-.15.22-.25-.1-.05-.14-.09-.19-.1-.8-.18-1.6-.35-2.4-.52-1.41-.32-2.82-.64-4.22-.96-.86-.2-1.7-.4-2.56-.6-.43-.1-.85-.21-1.28-.29-.14-.03-.35-.05-.44.03-.32.31-.63.64-.89,1-.32.43-.64.58-1.17.45-.13-.04-.27-.09-.41-.11-1.42-.25-2.84-.5-4.26-.75-.27-.04-.53-.09-.8-.13-.61-.09-1.23-.17-1.84-.27-1.3-.21-2.6-.43-3.92-.65-.18.34-.46.33-.79.24-.35-.1-.72-.17-1.08-.24-1.46-.28-2.92-.55-4.39-.84-.77-.15-1.54-.32-2.32-.48-.22-.05-.43-.12-.65-.16-.1-.02-.21,0-.35,0,.02.09.02.15.04.19.4.96.78,1.91,1.19,2.86.35.82.74,1.62,1.1,2.44.43.98.83,1.98,1.25,2.97.09.21.06.37-.09.55-.46.53-.96,1.05-1.28,1.69-.03.06-.1.1-.14.16-.26.28-.52.56-.76.86-.41.51-.81,1.02-1.18,1.56-.26.39-.6.48-1.03.41-.03,0-.05-.01-.08-.01-.69-.08-1.38-.16-2.07-.22-.09-.01-.18.04-.28.06.04.14.07.26.12.36.34.78.68,1.55,1.03,2.32.3.71.6,1.43.91,2.14.24.56.48,1.12.71,1.68.24.56.38,1.16.74,1.66.09.12.14.28.19.43.09.26.03.38-.22.51-.21.11-.43.21-.64.33-.82.45-1.62.91-2.44,1.36-.73.4-1.46.79-2.2,1.19-.27.15-.54.31-.8.47-.16.1-.31.21-.22.44.22.63.44,1.26.66,1.88.18.5.36,1.01.53,1.52.29.9.58,1.8.87,2.7.27.84.55,1.68.84,2.55-1.89,1.13-3.78,2.21-5.63,3.37.09.04.15.04.22.04.75-.04,1.5-.08,2.25-.12,1.39-.06,2.78-.12,4.17-.18.38-.02.43.02.56.38.16.44.32.87.48,1.31.16.42.31.84.45,1.27.13.37.26.75.37,1.13.07.25.13.5.22.81-.18-.06-.34-.06-.38-.13-.11-.17-.3-.19-.43-.3-.49-.42-1.05-.35-1.62-.3-.38.03-.75.11-1.13.14-.71.05-1.41.06-2.12.12-1.13.09-2.26.2-3.38.3-1.22.1-2.43.19-3.65.29-.11,0-.21.06-.41.13,2.19,1.37,4.38,2.54,6.52,3.85-.07.07-.1.1-.14.12-1.03.44-2.06.88-3.09,1.32-.72.31-1.43.62-2.14.94-.09.04-.16.11-.23.16.52-.03,1.01-.11,1.5-.18,1.36-.19,2.72-.38,4.09-.55.67-.09,1.36-.09,2.03-.23.55-.12.99.01,1.44.29,1.06.64,2.13,1.25,3.2,1.87.09.05.22.05.33.04.49-.06.98-.13,1.48-.2,1.97-.29,3.93-.58,5.9-.88.06,0,.17-.02.2.02.32.29.67.14,1.01.07.78-.15,1.56-.32,2.34-.46.99-.18,1.98-.34,2.97-.5.75-.12,1.51-.23,2.27-.34.35-.05.7-.08,1.05-.12.18-.02.34,0,.45.17.3.47.62.94.94,1.41.12.18.24.35.36.52.33.47.67.94.99,1.4.7-.16,1.34-.3,1.99-.43.79-.16,1.59-.28,2.38-.42,1.72-.3,3.43-.63,5.15-.89.5-.08.94-.18,1.28-.57.01-.02.05-.01.1-.02.06.04.14.08.19.14.3.39.73.65,1,1.08.25.4.64.69.98,1.04.38.38.77.74,1.14,1.13.14.15.29.21.49.17.69-.16,1.38-.31,2.07-.47.45-.11.9-.23,1.36-.34.89-.22,1.79-.44,2.68-.67.34-.08.68-.17,1.03-.24.51-.1,1.04-.07,1.52-.32.07-.04.17-.04.25-.05.18-.03.36-.05.55-.09.15-.03.26-.11.27-.28.01-.11.05-.21.07-.33-.41-.38-.8-.77-1.2-1.13ZM24.22,30.87h-.27v-.04h.27v.04Zm2.21,1.53s-.06-.04-.09-.07c.03-.04.05-.06.07-.09.03.03.06.06.09.1-.02.02-.05.06-.07.06Zm6.29,2.1q.06-.18.3-.14c-.11.05-.19.09-.3.14Zm2.83-.36s-.06-.09-.05-.11c.02-.03.06-.05.1-.05.02,0,.04.05.06.08-.03.02-.06.04-.11.07Zm18.43,14.06c.06-.17.17-.08.26-.08-.09.03-.17.05-.26.08Zm.28-.05v-.03s-.01,0-.01,0c0,0,.01,0,.02,0h0s0,0,0,0v.03Z"/>
  </g>
</svg>