<?xml version="1.0" encoding="UTF-8"?>
<svg id="Layer_2" data-name="Layer 2" xmlns="http://www.w3.org/2000/svg" viewBox="0 0 186.48 188.25">
  <defs>
    <style>
      .cls-1 {
        fill: #fff;
        stroke-width: 0px;
      }
    </style>
  </defs>
  <g id="Layer_1-2" data-name="Layer 1">
    <path class="cls-1" d="m186.48,136.04c-.13-.15-.25-.35-.41-.49-.5-.43-1-.86-1.5-1.23-.4-.27-.78-.77-1.41-.29.05-.19.11-.4.22-.77-.27.1-.41.21-.56.24s-.37.04-.49-.05c-.59-.42-1.13-.87-1.66-1.29-.26.08-.44.17-.67.24.02-.23.01-.48,0-.72-.26.08-.53.12-.77.18.08-.25.13-.55.25-.97-.23.18-.36.32-.52.37-.14.06-.4.09-.52.02-.34-.26-.65-.56-.96-.84-.21.13-.37.24-.51.35-.12-.04-.23-.07-.35-.11.19-.2.38-.42.59-.6-.11-.06-.22-.09-.32-.12-.13.04-.29.14-.42.18-.15.03-.31-.03-.45-.02.03-.15.11-.26.14-.41.06-.11.11-.26.15-.38-.03-.04-.09-.08-.14-.1-.15.13-.22.31-.39.38-.11.05-.36.08-.4,0-.51-.57-.99-1.07-1.93-.57.16-.24.25-.52.36-.78-.25.27-.47.37-.64.39-.51.05-.83-.63-1.23-.88l-.04-.02c-.4-.46-.8-.88-1.4-.26-.03,0-.13-.01-.24-.05.14-.31.25-.57.45-1-.4.19-.63.37-1.06.57.12-.42.15-.68.25-.97q-.65.46-1.33-.09c-.21.13-.41.27-.63.42l-.12-.12.42-.78c-.33.07-.49.11-.66.13-.15.03-.35.05-.45-.02-.37-.22-.68-.5-1.02-.76-.41-.35-.81-.81-1.33-.14l-.15-.08c.09-.11.18-.23.24-.36.06-.11.07-.23.11-.35-.13-.01-.26-.03-.37-.01-.1.03-.18.18-.26.18-.12.02-.26-.03-.39-.02.03-.15.02-.29.07-.39.09-.17.23-.28.35-.41-.05-.05-.11-.09-.17-.14-.13.09-.25.22-.38.31-.13.04-.27.05-.42.07.03-.15-.01-.28.01-.43.05-.14.16-.29.26-.43-.06-.03-.13-.07-.18-.12-.11.16-.21.29-.31.38-.15.08-.34.17-.52.16-.34-.07-.68-.2-1.08-.31.04-.12.13-.34.21-.54-.04-.02-.09-.08-.14-.1-.25.11-.5.22-.73.36-.05-.05-.09-.08-.12-.12.1-.24.22-.51.37-.85-.18.04-.33.01-.41.05-.35.41-.65.36-.98-.04-.36-.44-.79-.75-1.34-.17-.01.07-.16,0-.37-.01.21-.35.4-.6.56-.84-.21-.06-.32.04-.45.08-.17.07-.34.14-.52.21.05-.19.07-.39.1-.59.05-.14.08-.25.16-.56-.38.31-.6.57-.79.58-.42.02-.84-.1-1.31-.18.1-.14.2-.33.43-.71-.32.1-.48.15-.67.18-.14.06-.36.16-.43.1-.28-.18-.54-.45-.82-.68-.32-.25-.64-.53-.99-.67-.14-.05-.38.2-.61.32l-.08-.04c.05.41.12.79-.04.98-.57.61-.28,1.12-.09,1.68.2.64.37,1.28-.03,1.93.2.08.37.17.57.3-.24.25-.43.45-.68.72.34.13.58.23.98.39-.75.25-.86.6-.57,1.12.12.28.27.6.21.87-.02.29-.3.51-.48.8.24.05.5.08.71.14-.1.14-.24.25-.34.39-1.58.07-3.09.13-4.69.19l-.11.21c-.35-.05-.63-.09-.9-.13.01-.02,0-.03,0-.05-.59-.02-1.27,0-.98-1.04-.19.2-.23.39-.37.53-.11.16-.34.33-.46.3-.49-.1-.97-.3-1.47-.49-.17.26-.31.48-.5.79-.05,0-.09,0-.12.02-.16-.36-.28-.64-.4-.92-.19.3-.32.5-.47.72-.1-.27-.2-.54-.38-.96-.15.27-.21.45-.35.6-.14.17-.42.43-.47.42-.48-.42-.78-.06-1.05.3-.09-.34-.15-.62-.25-.89-.07-.01-.15-.03-.21-.06-.16.29-.34.58-.56.94h-.02c-.1-.33-.16-.61-.26-.88-.24.3-.39.74-.62.75-.43.04-.92-.06-1.3-.24-.32-.12-.46-.05-.56.13-.17.02-.34.03-.51.05-.05-.16-.07-.33-.12-.63-.12.18-.22.31-.32.45-.07-.12-.15-.22-.25-.29.09-.06.15-.13.2-.17-.33-.23-.78-.31-.86-.51-.16-.52-.28-1.04-.69-1.29.01-.02,0-.05,0-.09-.03,0-.09,0-.12.02l-.15-.08c-.1-.02-.25,0-.37-.01.03-.06.06-.16.07-.23.12-.07.21-.13.31-.18.08-.09.2-.17.35-.25-.2-.08-.36-.14-.5-.18v-.03s-.04,0-.05.03c-.11-.06-.22-.09-.31-.14-.13-.01-.25-.08-.38-.1.16-.1.27-.21.37-.29.19-.11.35-.25.54-.41-.23-.02-.38.01-.51,0-.02-.01-.07-.01-.1-.02-.24-.1-.51-.22-.62-.41-.24-.4-.28-.99-.67-1.28,0-.03,0-.05,0-.11-.02.04-.04.03-.09.06-.13-.07-.3-.1-.51-.11.01-.07.03-.15.06-.21.18-.18.31-.32.4-.44-.14-.05-.32-.06-.46-.11-.22-.25-.46-.46-.68-.69-.16-.36-.3-.75-.37-1.12-.1-.43-.19-.75-.51-.81-.05-.05-.09-.08-.17-.14-.07.07-.12.12-.19.14-.04.03-.06.02-.13.04-.05,0-.15-.08-.25-.13.01-.07.04-.12.03-.2.11-.05.2-.08.27-.15.13-.09.26-.24.42-.37-.18-.02-.36-.03-.49-.1-.23-.07-.5-.18-.6-.35-.25-.65-.42-1.33-.66-2-.08-.15-.36-.19-.56-.27l-.04-.02c-.11-.14-.21-.27-.33-.39.2-.08.36-.16.5-.22,0-.05-.02-.12-.03-.2-.19,0-.36.02-.52-.04-.19-.1-.44-.18-.51-.35-.26-.57-.47-1.2-.65-1.81-.13-.31-.23-.48-.59-.42-.05-.05-.08-.1-.13-.15-.08-.04-.14-.1-.19-.15.07-.07.13-.15.2-.22.1-.08.19-.14.29-.25-.5-.08-1-.1-1.22-.6-.02-.12-.06-.25,0-.4-.49.06-1.15.28-.46-.55.02-.04.03-.15,0-.21-.37-.57-.87-1.06-1.4-1.53.05-.05.11-.1.18-.14l.02-.04c.17-.02.35-.05.5-.08,0,.21-.04.38-.05.54.04.02.12.04.19.05.1-.14.16-.29.3-.41.17-.12.37-.29.55-.27.64.07,1.27.19,1.9.34.32.06.52.04.64-.28.06-.02.16-.05.23-.07.06-.02.14-.06.23-.07l.09.29c.02.12.04.24.04.37.34-.39.61-.84,1.14-.77.14.05.25.08.36.19.21-.45.34-1.14.72-.13.03.04.1.11.18.12.87-.02,1.71-.27,2.61-.63-.19-.21-.32-.31-.34-.37,0-.14.04-.33.08-.5.17.2.33.39.48.61.05.05.07.12.08.2.15.48.5.67.99.58.17-.02.33-.07.5-.08,0,.03.02.06.03.1.14.75.29,1.48.41,2.11-.17.42-.41.72-.39.98.16.97.4,1.94.6,2.91.02.17.01.33,0,.49-.16-.06-.34-.13-.46-.19.07.93.11,1.92.18,2.96.31-.08.38.04.41.19.11,0,.17-.02.2-.08.36-.27.67-.59,1.02-.86.21-.19.52-.48.71-.43.72.12,1.03-.42,1.46-.76.44-.36.93-.64,1.42-1,0,0-.05-.11-.18-.37.86.35,1.3-.11,1.72-.59.25-.32.65-.81.91-.79.77.12,1.14-.42,1.6-.77.38-.26.75-.54,1.08-.8.27-.15.42-.23.57-.31.22-.1.45-.14.66-.27.4-.24.79-.52,1.22-.81q.05-.49.57-.45c.13.01.26-.03.35-.05.84-.55,1.62-1.16,2.49-1.58.95-.46,1.51-1.52,2.6-1.74.03,0,.11-.05.18-.04.09,0,.15-.13.22-.21.52-.37,1.03-.77,1.53-1.15.19-.11.4-.24.61-.38.14-.11.35-.11.53-.18.9-.41,1.47-1.29,2.51-1.52.55-.11.94-.74,1.45-1.09.43-.31.7-.9,1.4-.79.06.03.14-.17.34-.33-.29.03-.44.06-.56.08-.02-.06,0-.14,0-.19.6-.22,1.19-.42,1.75-.69.63-.31,1.24-.66,1.81-1.06.54-.41,1.04-.88,1.62-1.37.08.04.26.11.46.19.01-.07.05-.14.08-.2-.12-.17-.24-.37-.4-.51-.48-.42-1.01-.84-1.51-1.21-.39-.29-.78-.77-1.41-.29.05-.19.12-.42.22-.77-.25.11-.4.19-.56.24-.14,0-.36.02-.48-.07-.59-.42-1.13-.87-1.66-1.29-.27.1-.44.17-.67.24.02-.23.01-.48,0-.7-.25.06-.51.1-.76.16.08-.25.13-.55.24-.95-.23.18-.34.33-.52.37-.14.06-.39.06-.51,0-.34-.27-.65-.56-.96-.84-.21.13-.37.24-.51.35-.12-.04-.24-.05-.36-.08.2-.22.4-.44.6-.62-.11-.06-.23-.07-.32-.11-.14.06-.29.14-.42.18-.15.03-.32,0-.46,0,.05-.14.11-.26.14-.41.07-.13.11-.26.16-.4-.03-.04-.08-.04-.15-.08-.12.12-.21.29-.38.36-.11.05-.34.09-.42.02-.5-.59-.98-1.09-1.9-.58.12-.23.24-.49.33-.77-.25.27-.45.38-.64.39-.5.03-.8-.62-1.23-.88t-.03-.04c-.4-.46-.81-.86-1.41-.24-.03,0-.1-.02-.23-.07.12-.28.24-.55.45-1-.41.21-.63.37-1.05.6.1-.43.14-.71.23-.99q-.64.44-1.32-.11c-.22.15-.42.29-.63.42l-.14-.1.42-.78c-.3.06-.46.1-.65.11-.15.03-.35.05-.43-.01-.37-.22-.7-.51-1.04-.77-.41-.35-.81-.81-1.34-.12,0,0-.06-.03-.14-.1.09-.11.17-.21.23-.33s.07-.23.12-.37c-.13-.01-.26-.03-.37-.01-.1.03-.18.18-.26.18-.12.02-.27,0-.4,0,.04-.17.03-.31.07-.39.09-.17.24-.3.35-.41-.05-.05-.1-.11-.16-.16-.14.11-.26.24-.38.31-.13.04-.27.05-.4.09,0-.14-.01-.28,0-.44.05-.14.16-.29.26-.43-.07-.01-.13-.07-.18-.12-.11.16-.19.3-.31.38-.14.11-.33.17-.49.17-.37-.06-.71-.19-1.11-.3.04-.12.13-.34.22-.56-.04-.02-.09-.08-.11-.09-.27.1-.53.23-.76.35-.05-.05-.11-.06-.12-.12.1-.24.22-.51.37-.85-.18.04-.33.01-.42.07-.34.39-.64.33-.98-.04-.36-.44-.78-.77-1.34-.17-.02.04-.17-.04-.36-.03.21-.35.4-.6.56-.84-.22-.04-.32.04-.45.08-.18.09-.34.14-.52.21.05-.19.06-.37.11-.56.03-.15.06-.26.14-.57-.37.29-.59.55-.78.55-.43.04-.85-.08-1.32-.16.11-.16.21-.35.45-.73-.33.12-.49.17-.67.18-.14.06-.36.16-.42.13-.29-.21-.56-.46-.84-.69-.32-.25-.64-.53-.98-.69-.14-.05-.38.2-.61.32l-.08-.04c.05.41.11.81-.04.98-.57.61-.28,1.12-.1,1.7.2.64.37,1.28-.02,1.91.19.1.37.17.57.3-.24.25-.43.45-.68.72.34.13.57.25.97.41-.74.23-.86.6-.56,1.1.12.28.27.6.21.87-.03.31-.3.51-.49.82.26.03.5.08.72.12-.1.14-.23.28-.35.41-1.57.05-3.09.13-4.68.17l-.12.23c-.35-.05-.62-.11-.89-.15.01-.02,0-.03,0-.05-.59-.02-1.27,0-.98-1.04-.19.2-.25.41-.37.53-.11.16-.35.35-.47.32-.48-.12-.97-.3-1.46-.51-.17.26-.32.5-.51.81-.02-.01-.07-.01-.11,0-.16-.36-.28-.64-.4-.92-.2.33-.33.52-.48.74-.09-.29-.2-.54-.37-.98-.15.27-.21.45-.36.62-.14.17-.41.4-.46.4-.49-.4-.78-.06-1.05.3-.1-.32-.16-.6-.25-.89-.07-.01-.15-.03-.22-.04-.15.27-.34.58-.55.92h-.02c-.11-.31-.18-.59-.26-.88-.25.32-.39.74-.62.75-.43.04-.89-.05-1.32-.22-.31-.14-.46-.05-.56.13-.16,0-.33.01-.5.03-.05-.16-.07-.33-.13-.61-.12.18-.21.29-.31.43-.08-.1-.17-.2-.25-.29.09-.06.14-.11.2-.17-.35-.21-.78-.31-.86-.51-.16-.52-.28-1.04-.69-1.29.01-.02,0-.03,0-.05-.05,0-.11,0-.13-.01-.05,0-.08-.04-.16-.06-.1-.02-.23-.02-.35,0,.02-.1.04-.17.05-.24.12-.07.21-.13.33-.2.08-.09.2-.17.35-.25-.21-.06-.37-.12-.51-.16v-.02s-.04,0-.04,0c-.12-.04-.2-.08-.32-.12-.13-.01-.25-.08-.37-.12.16-.1.26-.18.37-.29.19-.11.34-.23.53-.39-.23-.02-.37-.01-.5-.02-.03,0-.07-.01-.1-.02-.24-.1-.51-.22-.63-.39-.23-.42-.28-.99-.67-1.28.02-.04.01-.07.02-.1l-.1.03c-.13-.07-.3-.1-.51-.11.01-.07.05-.14.06-.21.16-.16.3-.3.42-.43-.17-.04-.34-.07-.49-.1-.22-.25-.45-.48-.67-.71-.16-.36-.31-.73-.39-1.1-.08-.45-.18-.77-.5-.83-.06-.03-.09-.08-.16-.11-.07.07-.12.12-.19.14-.05,0-.07-.01-.14,0-.06.02-.14-.05-.25-.13,0-.05.04-.12.04-.17.09-.06.19-.11.25-.16.14-.11.27-.26.42-.37-.17-.04-.36-.03-.49-.1-.2-.08-.5-.18-.59-.37-.25-.65-.42-1.33-.67-1.98-.07-.17-.35-.21-.55-.29l-.04-.02c-.1-.11-.22-.25-.33-.39.2-.08.36-.16.5-.22,0-.05-.02-.12-.04-.18-.18-.02-.36.02-.51-.06-.2-.08-.44-.18-.51-.35-.26-.57-.47-1.2-.65-1.81-.13-.31-.24-.45-.56-.41-.05-.05-.11-.09-.17-.14-.07-.07-.12-.12-.19-.15.08-.09.14-.17.21-.24.1-.08.19-.14.32-.24-.52-.09-1.03-.09-1.25-.59,0-.14-.05-.27,0-.4-.49.06-1.15.28-.46-.55.02-.04.03-.15,0-.21-.46-.76-1.09-1.34-1.86-1.94-.08.25-.09.41-.14.47-.13.09-.31.13-.49.2.1-.24.18-.5.29-.74.03-.06.09-.11.14-.17.36-.37.33-.77.02-1.15-.02-.01,0-.03,0-.03.32.06.65.1.95.19.33.04.52.04.65-.3.09,0,.15-.03.21-.05.06-.02.16-.05.23-.07.03.1.07.17.09.29.03.1.04.24.08.36.32-.4.58-.83,1.12-.78.13.07.24.1.35.21.21-.45.34-1.14.72-.13.03.04.11.09.18.12.89-.04,1.71-.27,2.62-.65-.2-.19-.31-.27-.35-.35,0-.16.04-.33.09-.52.15.22.32.41.48.61.04.08.06.14.08.2.14.5.5.67.98.6.18-.04.33-.07.51-.1,0,.03,0,.09.02.12.14.75.29,1.48.42,2.09-.18.44-.42.75-.4,1,.15.97.4,1.94.6,2.92.03.15.01.33,0,.49-.16-.06-.34-.13-.46-.19.07.93.13,1.93.19,2.94.31-.08.38.04.4.21.11,0,.18-.04.2-.08.36-.27.7-.6,1.04-.88.2-.17.51-.46.71-.43.72.12,1.02-.4,1.46-.76.45-.33.92-.61,1.41-.97,0,0-.05-.11-.18-.37.86.35,1.3-.11,1.73-.61.25-.32.64-.79.89-.76.77.12,1.14-.42,1.6-.77.39-.28.75-.54,1.08-.8.29-.14.43-.25.58-.34.22-.1.44-.12.67-.24.38-.26.79-.52,1.22-.81q.02-.5.55-.46c.13.01.26-.03.36-.08.85-.52,1.61-1.14,2.5-1.55.93-.48,1.49-1.53,2.58-1.75.04-.03.11-.05.19-.06.09,0,.15-.13.22-.21.52-.37,1.02-.75,1.52-1.13.21-.13.41-.27.63-.37.13-.15.33-.12.52-.21.88-.39,1.46-1.27,2.5-1.5.55-.11.94-.74,1.46-1.11.42-.29.7-.9,1.38-.77.07.01.14-.17.35-.35-.29.03-.44.06-.57.1,0-.09,0-.14,0-.19.61-.24,1.19-.42,1.76-.71.63-.31,1.24-.66,1.81-1.06.55-.38,1.02-.86,1.61-1.35.08.04.26.11.46.19.01-.07.06-.16.09-.22-.13-.15-.23-.34-.41-.49-.48-.42-1.01-.84-1.5-1.23-.4-.27-.78-.77-1.39-.28.03-.2.09-.41.2-.78-.25.11-.41.21-.56.24-.15.03-.37.04-.49-.05-.59-.42-1.13-.87-1.66-1.29-.26.08-.44.17-.67.24.02-.23.01-.48,0-.72-.26.08-.53.12-.77.18.08-.25.13-.55.25-.97-.24.2-.34.33-.5.38s-.42.07-.54,0c-.34-.27-.62-.55-.96-.84-.21.13-.37.24-.51.35-.12-.04-.23-.07-.35-.11.21-.19.38-.42.59-.6-.11-.06-.22-.09-.32-.11-.13.04-.27.15-.42.18-.15.03-.31-.03-.45-.02.05-.14.11-.26.16-.4.04-.12.09-.27.15-.38-.05-.05-.09-.08-.16-.11-.13.15-.22.31-.39.38-.11.05-.34.09-.4,0-.49-.56-.99-1.07-1.91-.56.13-.25.25-.52.36-.78-.27.26-.47.37-.66.38-.51.05-.8-.62-1.23-.88-.02-.01,0-.03-.04-.02-.4-.46-.79-.85-1.4-.26-.03,0-.11,0-.24-.05.16-.29.25-.57.45-1-.41.21-.63.37-1.05.6.11-.46.14-.71.24-1.01q-.65.46-1.33-.09c-.21.13-.41.27-.63.42l-.12-.12.42-.78c-.31.08-.47.13-.66.13-.15.03-.33.07-.43-.01-.37-.22-.7-.51-1.04-.77-.41-.35-.81-.81-1.34-.12,0,0-.05-.05-.14-.1l.27-.34c.04-.12.05-.24.08-.36-.11,0-.26-.03-.37-.01-.1.03-.18.18-.26.18-.12.02-.26-.03-.39-.02.05-.14.04-.28.07-.39.09-.17.23-.28.35-.41-.05-.05-.11-.09-.15-.13-.15.08-.25.22-.4.3-.11.05-.27.05-.4.09,0-.16-.01-.28,0-.44.05-.14.18-.28.26-.43-.06-.03-.13-.07-.18-.12-.11.16-.19.3-.31.38-.13.09-.33.17-.49.17-.37-.06-.7-.21-1.11-.3.05-.14.14-.36.22-.56-.04-.02-.09-.08-.11-.09-.27.1-.52.21-.76.35-.05-.05-.09-.08-.12-.12.1-.24.22-.51.37-.85-.18.04-.33.01-.39.06-.35.41-.67.34-.98-.04-.38-.45-.81-.76-1.34-.17-.03.06-.18-.02-.39-.02.21-.35.4-.6.56-.84-.2-.03-.32.04-.45.08l-.52.21c.05-.19.07-.39.12-.58.03-.15.06-.26.14-.57-.38.31-.58.58-.79.58-.4.03-.84-.1-1.28-.17.08-.15.18-.34.41-.72-.32.1-.49.17-.67.18-.14.06-.36.16-.41.11-.3-.19-.57-.44-.84-.69-.32-.25-.64-.53-.99-.67-.14-.05-.38.2-.58.34l-.11-.06c.05.41.14.8-.04.98-.57.61-.28,1.12-.09,1.68.2.64.37,1.28-.03,1.93.2.08.37.17.59.31-.26.24-.45.44-.7.71.34.13.58.23.97.41-.74.23-.83.59-.56,1.1.12.28.29.62.23.88-.04.28-.32.5-.51.81.26.03.51.06.72.12-.1.14-.22.26-.35.41-1.57.05-3.09.13-4.68.17l-.11.21c-.35-.05-.63-.09-.9-.13.01-.02,0-.03,0-.05-.59-.02-1.27,0-.98-1.04-.19.2-.23.39-.37.53-.11.16-.35.35-.46.3-.49-.1-.97-.3-1.47-.49-.17.26-.31.48-.5.79-.03,0-.09,0-.12.02-.14-.34-.28-.64-.4-.92-.19.3-.32.5-.47.72-.1-.27-.2-.54-.36-.95-.17.26-.24.44-.37.59-.12.18-.42.43-.47.42-.48-.42-.78-.06-1.05.3-.09-.34-.17-.6-.25-.89-.05,0-.15-.03-.21-.06-.16.29-.34.58-.56.94-.12-.33-.19-.61-.29-.88-.25.32-.39.74-.6.76-.43.04-.91-.06-1.33-.25-.32-.12-.46-.05-.56.13-.17.02-.34.03-.51.05-.05-.16-.07-.33-.1-.62-.14.17-.24.3-.34.44-.08-.1-.14-.19-.25-.29.09-.06.15-.13.2-.17-.35-.21-.78-.31-.86-.51-.16-.52-.26-1.03-.69-1.29.01-.02,0-.05.01-.07-.05,0-.11,0-.14,0-.04-.02-.08-.04-.14-.05-.11-.06-.25-.03-.36-.03.01-.07.03-.15.05-.24.11-.05.21-.13.31-.18.08-.09.2-.17.35-.25-.2-.08-.36-.14-.5-.18-.02-.01-.04-.02-.05,0-.11-.06-.2-.08-.32-.12-.13-.01-.25-.08-.37-.12.16-.1.27-.21.37-.29.19-.11.34-.23.55-.38-.24-.05-.39-.02-.52-.04-.02-.01-.07-.01-.1-.02-.24-.1-.51-.22-.62-.41-.24-.4-.29-.97-.67-1.28.01-.02,0-.05.02-.1-.04.03-.08.04-.11.05-.13-.07-.3-.1-.51-.11.01-.07.05-.14.06-.21.16-.16.3-.3.42-.43-.16-.06-.34-.07-.48-.12-.23-.23-.46-.46-.68-.69-.16-.36-.28-.74-.37-1.12-.07-.42-.19-.75-.51-.81-.03-.04-.09-.08-.15-.13-.07.07-.12.12-.19.14v.02c-.06,0-.09-.01-.15,0-.05,0-.14-.05-.25-.13.01-.07.04-.12.05-.19.09-.06.18-.09.25-.16.13-.09.26-.24.42-.37-.18-.02-.36-.03-.47-.09-.23-.07-.53-.17-.6-.35-.27-.66-.44-1.34-.68-2.01-.08-.15-.36-.19-.56-.27l-.04-.02c-.09-.13-.21-.27-.33-.39.2-.08.38-.15.5-.22,0-.05-.02-.12-.03-.2-.19,0-.36.02-.52-.04-.2-.08-.44-.18-.51-.35-.26-.57-.47-1.2-.65-1.81-.11-.3-.21-.46-.56-.41-.05-.05-.1-.11-.16-.16-.06-.03-.14-.1-.19-.15.07-.07.13-.15.2-.22.1-.08.21-.13.32-.24-.52-.09-1.03-.09-1.24-.61-.02-.12-.04-.24,0-.41-.49.06-1.15.28-.46-.55.02-.04.03-.15,0-.21-.46-.76-1.09-1.34-1.86-1.94-.08.25-.09.41-.14.47-.13.09-.31.13-.48.2.1-.24.18-.5.29-.74.03-.06.09-.11.14-.17.36-.37.33-.77.02-1.15-.12-.12-.24-.26-.34-.37.02-.04.05-.05.07-.07.6-.52,1.16-1,1.63-1.43.46-.05.83.01,1.05-.14.76-.62,1.48-1.31,2.22-1.98.14-.11.29-.19.44-.28.02.17.04.37.03.5.79-.52,1.62-1.05,2.48-1.62-.23-.23-.16-.36-.03-.45-.06-.09-.11-.14-.19-.15-.4-.16-.84-.29-1.25-.45-.26-.11-.67-.22-.75-.43-.26-.68-.86-.67-1.37-.87-.54-.21-1.01-.49-1.57-.76,0,0-.07.13-.24.36-.1-.92-.73-1.06-1.36-1.19-.4-.05-1.03-.14-1.13-.41-.27-.71-.92-.76-1.44-.99-.44-.18-.85-.37-1.23-.52-.28-.18-.44-.24-.58-.34-.2-.13-.34-.32-.57-.44-.4-.21-.85-.43-1.29-.66q-.44.22-.69-.23c-.04-.13-.14-.24-.23-.28-.88-.47-1.8-.83-2.61-1.39-.89-.56-2.06-.54-2.81-1.37-.04-.02-.09-.08-.15-.13-.04-.08-.18-.07-.27-.09-.59-.26-1.19-.5-1.78-.76l-.63-.34c-.16-.06-.27-.25-.41-.35-.81-.57-1.85-.64-2.56-1.42-.37-.42-1.12-.44-1.68-.71-.47-.23-1.14-.15-1.37-.81-.02-.06-.22-.04-.48-.12.18.23.28.34.36.44-.05.05-.12.07-.16.1-.51-.41-.96-.84-1.48-1.17-.58-.39-1.19-.75-1.83-1.03-.63-.28-1.27-.46-1.98-.74,0-.09-.05-.27-.06-.49-.06.02-.15.03-.24.04-.07.18-.17.37-.21.59-.16.65-.24,1.3-.33,1.93-.03.47-.26,1.05.44,1.34-.17.07-.39.12-.76.21.21.17.39.23.48.36.1.11.22.3.2.43-.06.72-.19,1.41-.28,2.09.2.19.35.3.54.45-.22.1-.42.23-.63.37.18.18.36.38.53.58-.28.07-.54.15-.96.27.26.11.44.13.57.25.14.1.27.31.26.47-.03.41-.16.81-.22,1.23.21.11.38.2.56.27.02.12.06.25.08.36-.27-.09-.55-.13-.84-.2.03.1.07.23.08.31.1.11.26.17.37.28.1.11.14.29.21.41-.15.03-.29.03-.44.06-.12.02-.27.05-.41.05-.01.07-.01.13,0,.19.17.04.36.03.52.14.09.08.24.26.21.36-.26.7-.44,1.38.45,1.94-.28.01-.57.05-.85.08.36.08.56.22.66.38.29.42-.13,1.01-.15,1.49,0,.03-.02.04-.01.07-.16.56-.35,1.11.49,1.31.03.04.05.11.08.26-.33.01-.6.06-1.08.1.38.26.62.36,1.02.62-.42.13-.66.22-.97.29q.72.33.59,1.18c.23.12.44.24.68.34l-.04.17c-.25,0-.5.03-.89.04.21.22.33.34.43.5.1.11.22.25.2.38-.01.43-.08.85-.14,1.28-.1.54-.3,1.11.55,1.24,0,0-.01.07,0,.16-.15-.03-.3-.05-.44-.04-.12.02-.23.07-.36.08.05.11.11.25.19.35.07.07.22.04.28.12.08.1.11.25.18.37-.15.03-.27.1-.37.13-.19,0-.37-.06-.54-.1-.01.07-.01.13-.05.19.17.09.32.12.46.19.09.08.19.21.27.31-.14.06-.24.14-.38.2-.13.04-.33.01-.49,0,0,.09,0,.14-.03.2.2.03.36.03.49.1.15.08.33.2.39.34.13.37.18.72.29,1.13-.12.02-.35.05-.58.07,0,.05-.01.13-.03.15.23.18.46.35.69.48-.01.07-.01.13-.04.17-.28.01-.55.06-.92.1.11.14.17.28.24.32.52.09.63.39.46.86-.19.55-.24,1.06.52,1.25.06-.02.08.15.17.34-.41-.03-.7-.05-1.01-.08.07.23.21.27.3.35.17.14.3.24.44.34-.17.07-.36.16-.55.22-.15.03-.26.08-.57.16.45.16.78.2.9.4.23.34.34.78.49,1.21-.16,0-.37,0-.83-.01.25.24.39.34.5.48.11.09.31.22.29.32-.02.34-.1.7-.17,1.07-.07.39-.14.82-.1,1.19.02.12.37.22.58.34,0,.03,0,.05.02.12.31-.27.62-.51.86-.46.82.19,1.12-.32,1.51-.76.45-.49.9-.98,1.67-.95-.03-.2-.03-.4-.02-.66.35.11.61.17.97.25-.05-.35-.1-.62-.15-1.03.57.5.94.42,1.26-.08.17-.26.38-.55.64-.63.27-.1.61.03.95.05-.1-.27-.18-.47-.25-.7.17.04.34.07.51.11.86,1.32,1.66,2.61,2.53,3.97.05,0,.25,0,.25,0,.11.3.2.59.31.84t-.04.03c.26.52.63,1.09-.4,1.35.25.08.45.02.65.05.17.04.47.14.48.26.16.46.23.99.3,1.51.31.03.57.04.95.05,0,.03.04.08.06.09-.22.31-.41.56-.6.82.37.01.61.03.87.03-.21.24-.37.45-.65.81.3,0,.51-.05.7,0,.22.04.57.14.6.19-.12.64.32.71.78.77-.24.25-.46.46-.66.67.05.05.06.14.08.2.33-.01.65,0,1.08,0h.02c-.24.26-.44.48-.64.7.4.05.82-.02.96.13.27.36.39.83.46,1.27.05.35.17.49.44.45.06.14.15.27.24.4-.12.12-.25.22-.46.4.2.03.36.03.53.07-.06.11-.09.22-.13.34-.1-.02-.19-.05-.23-.07-.02.39.13.82-.02.99-.38.42-.79.77-.78,1.26-.02-.01-.03,0-.06.02.03.04.06.09.07.12,0,.05,0,.11,0,.14.02.12.12.23.17.33-.06.02-.16.05-.23.07l-.34-.18c-.12-.04-.24-.1-.39-.18.05.21.08.36.12.53h-.03s0,.04.03.05c.02.12.05.21.04.32.05.11.06.25.1.38-.17-.09-.31-.14-.44-.18-.19-.1-.37-.17-.61-.27.1.22.19.35.24.45,0,.03.02.06.03.1.03.26.06.55-.04.73-.22.42-.7.76-.77,1.24l-.1.03s.06.03.09.08c0,.14.06.3.15.48l-.19.06c-.23-.07-.42-.12-.59-.15.04.18.12.33.15.48-.1.3-.19.6-.25.92-.25.32-.5.63-.79.87-.34.33-.58.58-.44.93,0,.05-.03.06-.05.14.1.02.17.04.22.09.03.04.04.08.08.1.05.05.03.15,0,.3-.03,0-.1.03-.16.05l-.27-.15c-.16-.06-.35-.11-.53-.17.07.17.15.32.16.46.04.24.09.54-.02.69-.43.55-.93,1.04-1.39,1.58-.1.14,0,.41.03.61l.02.06c-.06.16-.11.32-.17.47-.18-.12-.31-.22-.45-.32-.04.03-.1.08-.15.13.08.15.19.29.21.46.03.2.07.47-.04.63-.38.5-.8,1-1.24,1.47-.22.26-.29.44-.06.72-.03.06-.04.12-.06.21-.01.07-.03.15-.04.22-.1-.02-.22-.04-.31-.08-.12-.04-.22-.09-.36-.14.17.49.42.93.1,1.38-.1.08-.2.17-.36.21.3.4.82.84-.23.69-.05,0-.13.04-.18.09-.33.61-.51,1.26-.64,1.95-.07-.01-.14-.05-.21-.06l-.04-.02c-.11-.14-.21-.27-.33-.39.18-.09.36-.16.5-.22-.02-.06-.04-.13-.05-.21-.17.02-.34.03-.52-.04-.17-.09-.42-.17-.51-.35-.24-.56-.47-1.2-.65-1.81-.11-.3-.21-.46-.56-.41-.05-.05-.1-.11-.16-.16-.06-.03-.11-.09-.17-.14.07-.07.11-.16.2-.22.08-.09.19-.14.29-.25-.5-.08-1.03-.09-1.24-.61-.02-.12-.04-.24,0-.41-.49.06-1.15.28-.46-.55.02-.04.03-.15,0-.21-.46-.76-1.09-1.34-1.86-1.94-.08.25-.09.41-.14.47-.13.09-.31.13-.48.2.1-.24.18-.5.29-.74.03-.06.09-.11.14-.17.36-.37.33-.77.02-1.15-.12-.12-.22-.25-.34-.37.04-.03.05-.05.09-.06.58-.53,1.14-1.01,1.61-1.44.47-.07.85.02,1.05-.14.76-.62,1.48-1.31,2.22-1.98.14-.11.29-.19.44-.28.04.18.04.37.05.51.79-.52,1.63-1.08,2.46-1.63-.21-.22-.16-.36-.02-.47-.04-.08-.1-.11-.18-.12-.42-.17-.84-.29-1.27-.46-.24-.1-.64-.21-.72-.41-.26-.68-.86-.67-1.39-.88-.52-.2-1.01-.49-1.55-.74,0,0-.09.11-.24.36-.1-.92-.73-1.06-1.39-1.2-.4-.05-1.03-.14-1.11-.4-.29-.72-.94-.77-1.47-1-.42-.17-.85-.37-1.23-.52-.26-.17-.42-.22-.58-.34-.2-.13-.34-.32-.54-.45-.43-.2-.86-.41-1.3-.64q-.44.22-.71-.24c-.02-.12-.12-.23-.23-.28-.86-.46-1.78-.82-2.58-1.38-.88-.58-2.06-.54-2.81-1.37-.06-.03-.11-.09-.15-.13-.06-.09-.2-.08-.3-.1-.57-.25-1.17-.49-1.76-.75l-.63-.34c-.18-.07-.27-.25-.43-.36-.81-.57-1.83-.62-2.54-1.41-.37-.42-1.14-.45-1.7-.72-.45-.21-1.12-.14-1.35-.8-.04-.08-.24-.05-.48-.12.15.22.26.33.36.44-.08.04-.12.07-.17.07-.5-.38-.95-.8-1.49-1.15-.58-.39-1.17-.73-1.81-1.02-.63-.28-1.29-.47-1.98-.74-.03-.1-.03-.29-.06-.49-.09,0-.17.02-.24.04-.07.18-.19.36-.23.58-.12.64-.24,1.3-.31,1.94-.03.47-.28,1.04.44,1.34-.19.06-.41.11-.78.2.23.18.39.23.5.38.08.1.21.27.18.42-.06.72-.19,1.41-.28,2.09.2.19.38.31.54.45-.22.1-.42.23-.63.37.2.19.36.38.55.59-.27.05-.56.13-.98.26.26.11.47.14.59.26.11.09.27.31.25.43-.04.44-.15.84-.24,1.25.21.11.4.21.56.27.04.13.06.25.1.38-.27-.09-.57-.14-.83-.22,0,.11.04.24.04.32.12.12.28.18.39.29.08.1.12.28.19.4-.13.04-.27.05-.42.07-.12.02-.29.03-.41.05-.01.07-.01.13-.02.18.19.05.38.04.52.14.11.09.26.27.21.36-.24.71-.44,1.38.47,1.95-.28.01-.57.05-.85.08.36.08.56.22.66.38.28.39-.13,1.01-.15,1.49-.01.02-.02.04,0,.05-.2.57-.35,1.11.48,1.33.03.04.05.11.07.23-.32.04-.61.08-1.09.12.38.26.64.37,1.04.64-.44.12-.68.21-.97.29q.71.3.57,1.17c.23.12.44.24.68.34l-.04.17c-.25,0-.49,0-.89.04.23.23.35.35.45.51.08.1.22.25.2.38-.01.43-.1.84-.16,1.26-.1.54-.3,1.11.56,1.22,0,0,0,.11-.02.18-.15-.03-.28-.04-.41-.03-.12.02-.25.06-.36.08.05.11.09.24.17.33.07.07.24.05.28.12.08.1.11.25.2.38-.15.03-.27.1-.39.12-.19,0-.37-.06-.52-.09-.03.06-.04.12-.05.19.15.08.32.12.46.19.09.08.17.2.27.31-.14.06-.24.14-.38.2-.15.03-.33.01-.51,0,0,.09,0,.14,0,.21.18.02.36.03.49.1.15.08.3.19.39.34.12.33.16.71.3,1.11-.15.03-.39.06-.61.08.02.06-.01.13,0,.16.21.17.44.34.67.47-.01.07-.01.13-.04.17-.26.03-.55.06-.92.1.11.14.17.28.26.33.52.09.63.39.46.86-.21.54-.26,1.05.52,1.25.06-.02.06.14.17.34-.41-.03-.72-.06-1.01-.08.08.2.21.27.3.35.15.13.28.23.44.34-.19.06-.38.15-.54.2s-.27.1-.58.18c.43.15.78.2.87.39.25.35.34.78.51,1.22-.18-.02-.39-.02-.85-.02.25.24.39.34.5.48.11.09.31.22.31.33-.02.34-.1.7-.19,1.06-.05.4-.14.82-.08,1.2.02.12.35.21.58.34,0,.03,0,.05,0,.11.33-.26.64-.49.86-.46.82.19,1.12-.32,1.51-.76.45-.49.92-.97,1.67-.95,0-.19-.03-.4,0-.65.33.09.59.15.95.24-.05-.35-.08-.61-.12-1.04.56.52.93.44,1.23-.07.19-.25.4-.54.66-.62.27-.1.59.02.93.04-.08-.26-.18-.47-.25-.7.17.04.36.08.53.12.84,1.31,1.66,2.61,2.5,3.96.05,0,.25,0,.25,0,.13.31.22.6.33.85t-.05,0c.27.55.62,1.11-.41,1.37.25.08.47.03.65.05.19.05.47.14.5.27.14.45.21.98.3,1.51.29.02.57.04.93.04.03.04.04.08.06.09-.22.31-.41.56-.6.82.39.02.63.04.87.03-.19.25-.35.46-.65.81.32,0,.51-.05.7,0,.22.04.57.14.6.19-.1.65.34.72.8.78-.26.24-.46.46-.68.66.05.05.06.14.08.2.33-.01.67,0,1.1.02-.22.26-.44.47-.64.69.4.05.84,0,.98.14.25.35.39.83.46,1.27.05.35.15.48.41.44.08.15.17.28.27.41-.12.12-.27.21-.48.39.2.03.38.04.55.08-.06.11-.11.21-.13.34-.12-.04-.19-.05-.25-.08-.02.39.13.82-.02.99-.38.42-.77.78-.78,1.26-.02-.01-.03,0-.04.03,0,.03.04.08.05.11.02.06,0,.11.03.15.02.12.1.22.17.34-.09,0-.16.05-.25.06l-.32-.17c-.12-.04-.24-.1-.39-.18.03.2.08.36.1.51t-.03,0s.03.04.03.04c.02.12.05.21.07.33.05.11.06.25.1.38-.17-.09-.31-.14-.44-.18-.19-.1-.37-.17-.61-.27.1.22.19.35.24.45,0,.03.02.06.03.1.03.26.06.55-.04.73-.25.41-.72.75-.77,1.24-.03,0-.06.02-.1.03.02.01.06.03.07.07,0,.14.06.3.17.49-.09,0-.15.03-.21.05-.21-.06-.42-.12-.57-.14.05.16.1.32.15.48-.1.3-.19.6-.27.91-.23.33-.5.63-.77.89-.36.32-.6.57-.44.93-.02.04-.05.05-.05.14.1.02.17.04.22.09.03.04.04.08.08.1.03.04.03.15.01.28-.06.02-.13.04-.17.07l-.27-.15c-.16-.06-.35-.11-.53-.17.07.17.15.32.16.46.04.24.09.54-.02.69-.43.55-.93,1.04-1.39,1.58-.1.14,0,.4.03.61-.01.02,0,.03,0,.05-.06.16-.12.32-.17.47-.18-.12-.31-.22-.43-.31-.04.03-.1.08-.15.13.08.15.19.29.21.46.03.2.07.47-.04.63-.38.5-.8,1-1.24,1.47-.22.26-.31.43-.08.71-.01.07-.04.12-.06.21-.01.07-.03.15-.04.22-.1-.02-.2-.03-.29-.07-.12-.04-.22-.09-.36-.14.17.49.42.93.1,1.38-.12.07-.22.15-.36.21.31.38.82.84-.24.65-.03,0-.14.06-.19.11-.42.78-.6,1.63-.73,2.58.25-.06.4-.14.46-.1.16.06.27.2.43.31-.27.05-.54.09-.79.12-.09,0-.15-.03-.22-.04-.5-.13-.83.09-1.01.57v.02c-.11-.32-.24-.63-.34-.96-.11-.3-.22-.44-.56-.41-.06-.03-.11-.09-.17-.14-.05-.05-.1-.11-.17-.14.04-.08.12-.18.21-.24.07-.07.19-.14.28-.23-.49-.1-1.02-.11-1.24-.61-.02-.12-.03-.26,0-.4-.49.06-1.15.28-.46-.55.02-.04.03-.15,0-.21-.46-.76-1.09-1.34-1.86-1.94-.08.25-.09.41-.14.47-.13.09-.31.13-.48.2.1-.24.18-.5.29-.74.03-.06.09-.11.14-.17.36-.37.33-.77.02-1.15-.11-.14-.22-.25-.33-.39.01-.02.04-.03.07-.07.59-.5,1.15-.98,1.62-1.41.47-.07.84,0,1.06-.16.76-.62,1.48-1.31,2.22-1.98.13-.09.28-.17.43-.25.02.17.05.35.06.49.76-.51,1.62-1.05,2.46-1.63-.23-.23-.17-.34-.03-.45-.04-.08-.11-.14-.17-.14-.42-.17-.84-.29-1.27-.46-.25-.08-.66-.19-.74-.39-.25-.7-.86-.67-1.39-.88-.51-.22-1-.51-1.55-.74,0,0-.08.09-.23.33-.14-.91-.74-1.04-1.4-1.18-.39-.07-1.02-.17-1.11-.4-.29-.72-.94-.77-1.47-1-.41-.19-.85-.37-1.23-.52-.26-.17-.43-.26-.57-.36-.2-.13-.34-.32-.55-.43-.42-.22-.85-.43-1.3-.64q-.46.21-.7-.26c-.03-.1-.13-.21-.23-.28-.87-.44-1.79-.79-2.6-1.36-.88-.58-2.08-.55-2.81-1.37-.06-.03-.11-.09-.13-.15-.06-.09-.2-.08-.3-.1-.59-.26-1.19-.5-1.76-.75-.22-.09-.42-.22-.63-.34-.19-.05-.27-.25-.43-.36-.81-.57-1.84-.6-2.55-1.39-.37-.41-1.13-.47-1.69-.74-.48-.2-1.12-.14-1.39-.79,0-.09-.21-.06-.47-.14.18.23.27.36.37.47-.06.02-.12.07-.17.07-.49-.4-.95-.8-1.48-1.17-.58-.39-1.19-.75-1.81-1.02-.63-.28-1.29-.47-2.02-.73,0-.11-.03-.29-.04-.48-.09,0-.16,0-.22.02-.1.19-.2.38-.24.6-.12.64-.23,1.28-.3,1.92-.07.48-.28,1.04.43,1.37-.18.04-.41.11-.77.18.23.18.38.26.48.36.09.13.22.3.19.45-.06.72-.19,1.41-.28,2.09.21.17.38.31.54.45-.22.1-.42.23-.62.35.19.21.35.4.54.61-.27.05-.56.13-.97.24.26.11.47.14.59.26.11.09.24.32.24.45-.04.44-.15.84-.24,1.25.21.11.38.2.56.27.02.12.07.23.11.35-.29-.07-.58-.12-.84-.2,0,.11.05.21.04.32.14.1.28.18.37.28.1.11.15.27.22.39-.13.04-.27.05-.42.07-.13.04-.29.03-.42.07-.03.06,0,.11,0,.16.18.07.37.06.51.16.09.08.26.27.23.34-.25.73-.45,1.41.46,1.97-.29-.02-.55.03-.84.06.36.08.56.22.66.38.27.41-.13,1.01-.15,1.49-.02.04-.03.06-.01.07-.2.57-.35,1.11.49,1.31.03.04.04.13.06.25-.31.02-.6.06-1.09.12.39.23.64.37,1.05.61-.44.12-.69.23-.97.29q.69.32.55,1.19c.24.1.45.21.68.34l-.03.15c-.26.03-.5.03-.89.04.22.25.34.37.44.53.08.1.22.25.2.38-.01.43-.1.84-.16,1.26-.1.54-.3,1.11.56,1.22,0,0,0,.09-.02.18-.15-.03-.26-.06-.4-.05-.15.03-.25.06-.38.1.05.11.09.24.17.34.07.07.24.05.28.12.08.1.12.23.19.35-.14.06-.26.13-.37.13-.19,0-.38-.04-.54-.1-.01.07-.03.15-.04.22.16.06.33.09.44.18.13.07.2.19.29.32-.13.04-.24.14-.38.2-.15.03-.33.01-.51,0,.02.06,0,.14,0,.21.18.02.36.03.47.09.18.07.32.2.41.35.12.33.17.69.28,1.09-.12.02-.35.05-.59.09,0,.05-.01.13,0,.16.21.17.45.32.67.47-.01.07,0,.11-.04.17-.26.03-.55.06-.91.08.1.16.17.28.26.33.51.11.6.4.46.86-.21.54-.27,1.07.52,1.25.04.02.07.17.14.34-.39-.02-.7-.05-.99-.07.08.2.18.26.3.35.16.11.28.23.44.34-.19.06-.37.13-.56.19-.13.04-.26.08-.57.16.44.18.79.23.9.4.25.35.34.78.51,1.22-.18-.02-.4,0-.86,0,.26.22.39.34.5.48.11.09.31.22.32.31-.05.35-.14.71-.19,1.06-.05.4-.14.82-.11,1.21.04.13.37.22.6.35v.11c.32-.26.65-.52.86-.46.82.19,1.13-.34,1.52-.78.45-.49.92-.97,1.66-.93-.02-.22-.02-.42,0-.65.33.09.59.15.95.24-.04-.37-.07-.63-.14-1.05.58.53.96.43,1.25-.06.19-.25.4-.54.66-.62.26-.13.59.02.94.01-.09-.24-.18-.47-.26-.68.18.02.37.06.54.1.83,1.33,1.66,2.61,2.49,3.98.05,0,.25,0,.25,0,.13.31.23.58.33.85-.02-.01-.03,0-.05,0,.28.53.63,1.09-.41,1.37.26.06.47.03.65.05s.48.12.48.26c.16.46.23.99.32,1.52.3,0,.59.02.93.04.04.02.05.05.06.09-.22.31-.41.56-.59.79.37.01.62.06.86.06-.18.23-.35.46-.64.79.3,0,.5-.03.69.02.22.04.57.14.6.19-.11.62.34.72.8.78-.25.22-.45.44-.67.64.04.08.06.14.07.23.33-.01.68-.01,1.1.02-.22.26-.43.45-.63.67.4.05.84,0,.97.16.25.35.4.81.44,1.26.08.36.18.47.44.45.09.13.18.26.28.39-.14.11-.27.21-.49.41.21,0,.38.04.54.05-.07.13-.1.24-.14.36-.1-.02-.18-.07-.23-.07-.02.39.13.82-.02.99-.37.39-.76.76-.77,1.24-.03,0-.04.03-.05.05,0,.03.04.08.05.11.03.04,0,.09.03.15.03.1.1.22.17.34-.09,0-.15.03-.25.06l-.32-.17c-.12-.04-.24-.1-.39-.18.04.18.08.36.1.51,0,0-.01.02-.03,0,.02.01.04.02.03.04.03.1.05.21.07.33.05.11.06.25.1.38-.17-.09-.31-.14-.44-.18-.19-.1-.37-.17-.61-.27.1.22.19.35.24.45l.03.1c.03.26.06.55-.04.73-.25.41-.72.75-.76,1.22-.03,0-.06.02-.11.05l.08.04c0,.16.04.32.17.49-.09,0-.16.05-.23.07-.21-.06-.42-.12-.57-.14.05.16.1.32.16.46-.1.3-.2.62-.28.93-.22.31-.5.63-.77.89-.35.3-.6.57-.45.89-.01.07-.04.08-.04.17.11,0,.17.04.22.09.04.02.05.05.08.1s.03.15.01.28c-.06.02-.13.04-.17.07l-.27-.15c-.16-.06-.35-.11-.53-.17.07.17.15.32.16.46.04.24.09.54-.02.69-.43.55-.93,1.04-1.39,1.58-.1.14,0,.4.03.61,0,0,0,.03,0,.05-.06.16-.12.32-.17.47-.18-.12-.3-.24-.43-.31-.04.03-.1.08-.15.13.08.15.19.29.21.46.03.2.07.47-.04.63-.38.5-.8,1-1.24,1.47-.21.24-.3.41-.07.69-.01.07-.05.14-.06.21-.01.07-.03.15-.04.22-.11,0-.2-.03-.3-.05-.12-.04-.22-.09-.36-.14.18.47.42.93.1,1.38-.12.07-.22.15-.35.19.3.4.81.86-.25.68-.05,0-.14.06-.19.11-.42.78-.62,1.61-.75,2.57.27-.05.42-.13.49-.11.13.07.26.22.4.32-.26.03-.51.1-.77.13-.07-.01-.15-.03-.22-.04-.5-.13-.83.09-1,.55-.06.16-.12.32-.17.47-.03,0-.07-.01-.1-.02-.73-.25-1.44-.5-2.04-.68-.29-.37-.42-.74-.66-.84-.92-.36-1.88-.63-2.82-.94-.16-.06-.29-.16-.44-.24.14-.11.28-.23.4-.3-.83-.42-1.72-.87-2.64-1.33-.08.31-.22.31-.38.26-.04.08-.06.16-.04.22.06.44.18.88.24,1.32.05.27.15.68,0,.84-.46.56-.15,1.08-.07,1.64.08.56.08,1.12.13,1.72,0,0,.13.01.41.03-.73.56-.54,1.17-.34,1.79.15.38.38.96.21,1.17-.49.61-.2,1.19-.13,1.77.05.46.1.92.16,1.33,0,.32,0,.49,0,.67-.02.23-.11.46-.1.7.02.47.06.95.09,1.45q.42.28.13.72c-.08.09-.12.23-.13.34.04.99.19,1.97.1,2.94-.05,1.05.57,2.06.23,3.12,0,.05-.01.13-.05.19-.04.08.03.2.06.3.07.63.16,1.27.23,1.9.02.22.02.47.02.71.04.18-.08.36-.1.54-.09.98.39,1.91.06,2.92-.17.53.17,1.2.22,1.82.05.51.44,1.05-.01,1.59-.05.05.07.23.13.47.11-.26.16-.4.21-.54.06.03.13.07.16.11-.09.63-.22,1.23-.26,1.86-.05.7-.05,1.41.02,2.09.07.68.23,1.34.37,2.09-.09.06-.23.18-.4.3.05.05.09.13.14.19.2-.03.42-.02.62-.1.62-.21,1.24-.45,1.83-.7.43-.2,1.04-.28.95-1.06.15.13.3.3.56.57.04-.28.02-.45.08-.61.05-.14.15-.33.29-.39.65-.3,1.31-.54,1.94-.8.06-.26.09-.47.13-.69.2.13.41.25.62.36.08-.25.16-.51.24-.76.19.21.4.41.71.7-.03-.29-.1-.46-.07-.63.03-.15.15-.38.27-.45.39-.17.8-.28,1.19-.42,0-.25,0-.44-.05-.62.1-.08.18-.18.27-.26.07.28.17.55.23.83.09-.06.16-.16.25-.22.03-.15,0-.32.05-.46s.17-.26.23-.39c.1.11.17.23.28.34.08.1.17.23.26.33.06-.02.11-.05.15-.08-.04-.18-.14-.34-.12-.53.01-.13.11-.35.19-.36.75-.14,1.44-.31,1.47-1.38.14.24.32.47.49.7-.11-.35-.09-.59,0-.76.21-.45.94-.39,1.36-.62.03,0,.05,0,.06-.02.58-.12,1.14-.26.9-1.08.02-.04.08-.09.18-.18.18.26.36.49.64.88.02-.45,0-.72.02-1.2.32.31.53.47.74.69q-.08-.77.74-1.09c-.03-.26-.03-.5-.05-.76l.16-.05c.13.21.27.41.47.74.1-.3.14-.47.23-.63.05-.14.11-.32.22-.37.38-.2.78-.34,1.19-.5.51-.19,1.11-.3.78-1.1,0,0,.08-.04.15-.08.06.14.1.27.17.39.08.1.18.18.26.27.08-.09.17-.21.2-.32.02-.1-.07-.23-.02-.31.04-.12.14-.22.21-.35.1.11.23.18.29.26.1.16.14.34.19.51.06-.02.13-.04.19-.06-.02-.17-.07-.33-.06-.49.01-.13.08-.25.13-.39.11.09.25.13.37.22.1.11.17.28.25.43.05-.05.12-.07.18-.09-.07-.17-.15-.32-.16-.46-.02-.17.01-.37.11-.51.23-.28.51-.51.81-.81.08.1.23.28.37.47.04-.03.11-.05.14-.06.04-.28.06-.56.06-.83.06-.02.11-.05.16-.05.15.22.33.45.54.75.07-.18.16-.29.15-.38-.17-.49.04-.73.52-.83.57-.1,1.05-.3.82-1.08-.03-.04.1-.14.22-.31.18.37.3.65.43.91.14-.17.14-.31.15-.43.03-.2.06-.37.08-.55.15.13.3.24.45.37.1.11.2.19.43.42-.07-.47-.2-.78-.1-.97.17-.37.5-.68.8-1.03.08.15.19.35.42.74.07-.34.11-.51.17-.67.03-.15.04-.38.12-.42.32-.15.68-.26,1.01-.38.38-.15.77-.29,1.09-.52.1-.08.01-.43,0-.67.01-.02.04-.03.09-.06-.38-.15-.76-.3-.83-.52-.24-.81-.84-.8-1.42-.92-.65-.16-1.29-.31-1.64-.98-.17.12-.34.23-.56.35-.09-.34-.16-.6-.27-.96-.28.23-.5.38-.83.64.16-.75-.1-1.03-.69-1.04-.31-.03-.67-.06-.87-.25-.23-.18-.28-.53-.45-.83-.17.21-.32.4-.46.56-.08-.15-.12-.33-.17-.49.72-1.4,1.44-2.74,2.17-4.16,0-.03-.11-.19-.11-.19.2-.27.4-.49.57-.72,0,.03.02.01.03.04.32-.5.64-1.09,1.39-.34-.08-.26-.21-.41-.28-.58-.07-.17-.13-.47-.03-.55.33-.36.74-.68,1.17-1.02-.15-.27-.28-.53-.46-.86l.03-.06c.41.03.71.08,1.02.11-.17-.34-.27-.55-.39-.78.3.05.57.09,1.02.17-.15-.27-.29-.42-.35-.62-.08-.2-.16-.57-.13-.61.6-.22.45-.65.27-1.07.33.09.61.17.9.24.03-.06.09-.11.14-.17-.17-.28-.34-.58-.52-.95.32.06.6.13.89.21-.15-.38-.43-.71-.35-.92.18-.39.51-.75.87-1.02.28-.23.34-.39.18-.58.08-.15.14-.31.2-.43.17.04.32.12.59.21-.08-.2-.16-.36-.21-.52.11,0,.25,0,.35-.05.03.1.06.19.06.25.36-.16.65-.52.88-.48.53.12,1.04.28,1.46.05l.06.03.07-.13s.08-.04.12-.07c.08-.09.14-.22.2-.32.05.05.1.11.16.16.02.12.03.26.04.37.02.12.03.26.04.43.15-.13.26-.24.38-.36v.03s.03-.04.03-.04c.1-.08.18-.14.27-.21.06-.11.19-.2.26-.29,0,.19.03.34.07.47.02.22.04.43.07.68.13-.2.21-.35.27-.45.03,0,.05-.05.07-.07.22-.15.45-.33.66-.32.49,0,1,.21,1.44.04.02.01.05.05.09.08,0-.05.01-.07,0-.11.12-.07.23-.23.34-.39.05.05.1.11.17.14.07.23.12.44.18.58.11-.1.21-.24.33-.36.3-.06.61-.13.93-.23.38.04.77.12,1.14.23.41.14.75.21.99-.04.03,0,.1-.03.17-.07-.03-.1-.05-.16-.04-.24.02-.04.03-.06.05-.14.02-.04.13-.09.24-.14.05.05.09.08.15.13,0,.11,0,.21,0,.3.05.16.09.34.11.55.13-.15.21-.29.33-.36.2-.17.44-.36.62-.35.7.1,1.36.29,2.05.42.18.02.36-.21.53-.34,0,0,.01-.02.04-.03.15-.03.32-.04.5-.08-.04.22-.04.38-.07.53.06.03.14.05.2.08.09-.17.15-.33.29-.44.16-.1.37-.29.57-.26.62.06,1.27.19,1.9.34.32.06.49.05.64-.28.06-.02.13-.04.2-.08.09,0,.15-.03.23-.07l.09.29c.04.13.04.24.06.39.32-.4.59-.85,1.14-.77.12.04.22.09.36.19.18-.44.33-1.12.69-.12.03.04.14.1.19.1.68-.01,1.35-.2,2.02-.44,0,.09.05.16.04.24.02.01,0,.03.03.04-.06.16-.14.31-.2.48-.15-.13-.3-.24-.43-.31-.04.03-.1.08-.15.13.08.15.19.29.21.46.03.2.07.47-.04.63-.38.5-.81,1-1.24,1.47-.21.24-.28.42-.07.69-.01.07-.03.15-.04.22-.03.06-.03.15-.04.22-.12-.04-.22-.04-.32-.06-.12-.04-.22-.09-.36-.14.18.47.42.93.11,1.36-.1.08-.2.17-.36.21.3.4.81.86-.23.69-.05,0-.15.03-.18.09-.44.77-.62,1.61-.75,2.57.25-.06.39-.12.46-.1.15.08.27.2.42.33-.26.03-.52.07-.79.12-.05,0-.13-.01-.19-.05-.53-.12-.83.09-1.03.56-.06.16-.09.33-.15.49-.04-.02-.06-.03-.1-.02-.73-.25-1.44-.5-2.04-.68-.29-.37-.42-.74-.66-.84-.92-.35-1.88-.63-2.82-.94-.16-.06-.29-.16-.44-.24.14-.11.28-.23.4-.3-.83-.42-1.72-.87-2.64-1.33-.08.31-.22.31-.38.26-.04.08-.06.16-.04.22.06.44.18.88.24,1.32.05.27.15.68,0,.84-.46.56-.15,1.08-.07,1.64s.06,1.11.13,1.72c0,0,.11,0,.39.02-.73.56-.54,1.17-.34,1.79.15.38.38.96.21,1.17-.49.61-.2,1.19-.13,1.77.05.46.1.92.16,1.33,0,.32,0,.49,0,.67-.02.23-.11.46-.1.7.02.47.06.95.09,1.45q.42.28.13.72c-.08.09-.12.23-.13.34.04.99.19,1.97.1,2.94-.05,1.05.57,2.06.23,3.12,0,.05-.01.13-.05.19-.04.08.03.2.06.3.07.63.16,1.27.23,1.9.02.22.02.47.02.71.04.18-.08.36-.1.54-.09.98.39,1.91.06,2.92-.17.53.17,1.2.22,1.82.05.51.44,1.05-.01,1.59-.05.05.07.23.13.47.11-.26.16-.4.21-.54.06.03.13.07.16.11-.09.63-.22,1.23-.26,1.86-.05.7-.05,1.41.02,2.09.07.68.23,1.34.37,2.09-.09.06-.23.18-.4.3.05.05.09.13.14.19.2-.03.42-.02.62-.1.62-.21,1.24-.45,1.83-.7.43-.2,1.04-.28.95-1.06.15.13.3.3.56.57.04-.28.02-.45.08-.61.05-.14.15-.33.29-.39.65-.3,1.31-.54,1.94-.8.06-.26.09-.47.13-.69.2.13.41.25.62.36.08-.25.16-.51.24-.76.19.21.4.41.71.7-.03-.29-.1-.46-.07-.63.03-.15.15-.38.27-.45.39-.17.8-.28,1.19-.42,0-.25,0-.44-.05-.62.1-.08.18-.18.27-.26.07.28.17.55.23.83.09-.06.16-.16.25-.22.03-.15,0-.32.05-.46s.17-.26.23-.39c.1.11.18.23.28.34.08.1.18.23.26.33.06-.02.11-.05.15-.08-.04-.18-.14-.34-.12-.53.01-.13.11-.35.19-.36.75-.14,1.44-.31,1.47-1.38.14.24.32.47.49.7-.11-.35-.09-.59,0-.76.21-.45.94-.39,1.36-.62.03,0,.05,0,.06-.02.58-.12,1.14-.26.9-1.08.02-.04.08-.09.18-.18.18.26.36.49.64.88.02-.45,0-.72.02-1.2.32.31.53.47.74.69q-.08-.77.74-1.09c-.03-.26-.03-.5-.05-.76l.16-.05c.13.21.27.41.47.74.1-.3.14-.47.23-.63.05-.14.12-.32.22-.37.38-.2.78-.34,1.19-.5.51-.19,1.11-.3.78-1.1,0,0,.08-.04.15-.08.06.14.1.27.17.39.08.1.18.18.26.27.08-.09.17-.21.2-.33.02-.1-.07-.23-.02-.31.04-.12.14-.22.21-.35.1.11.23.18.29.26.1.16.14.34.19.51.06-.02.13-.04.19-.06-.02-.17-.07-.33-.06-.49.01-.13.08-.25.13-.39.11.09.25.13.37.22.1.11.17.28.25.43.05-.05.12-.07.18-.09-.07-.17-.15-.32-.16-.46-.02-.17.01-.37.11-.51.23-.28.51-.51.81-.81.08.1.23.28.37.47.04-.03.11-.05.14-.06.04-.28.06-.56.06-.83.06-.02.11-.05.16-.05.15.22.33.45.54.75.07-.18.16-.29.15-.38-.17-.49.04-.73.52-.83.57-.1,1.05-.3.82-1.08-.03-.04.1-.14.22-.31.18.37.3.65.43.91.14-.17.14-.31.15-.43.05-.19.06-.37.1-.54.12.12.3.24.45.37.1.11.2.19.43.42-.07-.47-.2-.78-.1-.97.17-.37.5-.68.8-1.03.08.15.19.35.42.74.07-.34.11-.51.17-.67.03-.15.04-.38.12-.42.32-.15.68-.26,1.01-.38.38-.15.78-.29,1.09-.52.1-.08.01-.43,0-.67.01-.02.04-.03.09-.06-.38-.15-.76-.3-.83-.52-.24-.81-.84-.8-1.42-.92-.65-.16-1.29-.31-1.64-.98-.17.12-.34.23-.56.35-.09-.34-.17-.6-.27-.96-.28.23-.5.38-.83.64.16-.75-.1-1.03-.69-1.04-.31-.03-.67-.06-.87-.25-.23-.18-.28-.53-.45-.83-.17.21-.32.4-.46.56-.07-.17-.14-.34-.19-.51.74-1.39,1.44-2.74,2.19-4.15-.02-.06-.12-.23-.12-.23.2-.27.4-.49.56-.7.02.01.04.02.03.04.32-.5.64-1.09,1.39-.34-.08-.26-.21-.41-.28-.58s-.13-.47-.03-.56c.33-.36.74-.68,1.17-1.02-.14-.29-.26-.52-.44-.85l.04-.08c.38.04.69.07.99.12-.17-.34-.27-.55-.39-.78.3.05.57.09,1.02.17-.15-.27-.29-.42-.35-.62-.08-.2-.16-.57-.13-.61.6-.22.45-.65.27-1.07.33.09.61.17.9.24.03-.06.09-.11.14-.17-.17-.28-.31-.57-.52-.95v-.02c.34.09.62.17.89.23-.15-.38-.43-.71-.35-.92.18-.39.51-.75.87-1.02.28-.23.34-.39.19-.6.07-.13.15-.27.2-.43.16.06.32.12.58.23-.08-.2-.14-.34-.21-.52.14,0,.26-.03.37-.04.03.1.04.18.06.25.35-.19.65-.52.85-.49.55.13,1.06.29,1.46.05.02.01.05,0,.07.01l.06-.11s.1-.03.13-.09c.09-.06.13-.2.19-.3.07.07.12.12.18.18,0,.11.03.26.02.36.04.13.05.27.04.43.15-.13.27-.26.4-.35h.02s.01,0,.02-.03c.07-.07.15-.13.25-.22.08-.09.18-.18.27-.26,0,.19.04.32.07.47,0,.21.03.4.06.65.15-.19.2-.32.28-.42.02-.04.03-.06.07-.07.22-.15.45-.33.67-.34.46,0,.96.22,1.41.05.04.02.08.04.09.08.02-.04.01-.07.02-.1.13-.09.23-.23.33-.42.05.05.12.12.18.18.05.21.11.41.16.57.12-.12.24-.25.33-.36.32-.04.64-.14.93-.23.4.05.81.11,1.17.24.42.12.76.19.97-.05.06-.02.1-.03.17-.07-.03-.1-.04-.18-.04-.24.02-.04.07-.07.07-.13,0-.05.11-.1.24-.14.04.02.09.08.14.1h.02c-.04.13-.03.21,0,.31.02.17.08.36.11.55.1-.14.21-.29.31-.38.19-.14.42-.34.61-.32.7.1,1.38.3,2.08.41.15.03.35-.19.5-.33t.04-.03c.17-.02.35-.05.5-.08,0,.21-.04.38-.05.54.04.02.12.04.19.05.1-.14.16-.29.3-.41.17-.12.37-.29.55-.27.64.07,1.27.19,1.9.34.32.06.52.04.64-.28.08-.04.16-.05.23-.07.06-.02.14-.06.2-.08.05.11.08.2.11.3.02.12.02.22.04.37.34-.39.61-.84,1.15-.79.13.07.24.1.35.21.19-.46.34-1.14.72-.13.03.04.11.09.18.12.89-.04,1.69-.28,2.61-.63-.19-.21-.32-.31-.34-.37,0-.16.04-.33.09-.52.15.22.32.41.48.61.04.08.06.14.07.23.15.48.5.67.99.58,0,0,.02.01.03,0-.22.26-.42.53-.65.76-.22.26-.29.44-.07.69-.01.07-.03.15-.05.24-.03.06-.05.14-.04.22-.12-.04-.22-.04-.31-.08-.12-.04-.22-.09-.36-.14.17.49.42.93.1,1.38-.1.08-.2.17-.36.21.31.38.82.84-.22.67-.05,0-.16.05-.19.11-.44.77-.62,1.61-.75,2.57.25-.06.4-.14.46-.1.16.06.27.2.43.31-.27.05-.54.09-.79.12-.06.02-.13-.01-.2-.03-.52-.14-.83.09-1.03.56-.06.16-.09.33-.15.49-.04-.02-.06-.03-.1-.02-.73-.25-1.44-.5-2.04-.68-.29-.37-.41-.76-.66-.84-.91-.38-1.87-.65-2.81-.96-.16-.06-.29-.16-.44-.24.14-.11.28-.23.4-.3-.83-.42-1.72-.87-2.64-1.33-.08.31-.22.31-.38.26-.04.08-.06.16-.04.22.06.44.18.88.24,1.32.05.27.15.68,0,.84-.46.56-.15,1.08-.07,1.64.08.56.08,1.12.13,1.72,0,0,.13.01.41.03-.73.56-.54,1.17-.34,1.79.15.38.36.95.19,1.16-.49.61-.2,1.19-.13,1.77.05.46.09.94.14,1.35,0,.32,0,.49,0,.67-.02.23-.11.46-.1.7.02.47.06.95.09,1.45q.42.28.13.72c-.08.09-.12.23-.13.34.04.99.19,1.97.1,2.94-.05,1.05.57,2.06.23,3.12,0,.05-.01.13-.05.19-.04.08.03.2.06.3.07.63.16,1.27.23,1.9.02.22.02.47.02.71.04.18-.08.36-.1.54-.09.98.39,1.91.06,2.92-.17.53.17,1.2.22,1.82.05.51.44,1.05-.01,1.59-.05.05.07.23.13.47.11-.26.16-.4.21-.54.06.03.13.07.16.11-.09.63-.22,1.23-.26,1.86-.05.7-.05,1.41.02,2.09.07.68.23,1.34.37,2.09-.09.06-.23.18-.4.3.05.05.09.13.14.19.2-.03.42-.02.62-.1.62-.21,1.24-.45,1.83-.7.43-.2,1.04-.28.95-1.06.15.13.3.3.56.57.04-.28.02-.45.08-.61.05-.14.15-.33.29-.39.65-.3,1.31-.54,1.94-.8.06-.26.09-.47.13-.69.2.13.41.25.62.36.08-.25.16-.51.24-.76.19.21.4.41.71.7-.03-.29-.1-.46-.07-.63.03-.15.15-.38.27-.45.39-.17.8-.28,1.19-.42,0-.25,0-.44-.05-.62.1-.08.18-.18.27-.26.07.28.17.55.23.83.09-.06.16-.16.25-.22.03-.15,0-.32.05-.46s.17-.26.23-.39c.1.11.17.23.28.34.08.1.18.23.26.33.06-.02.11-.05.15-.08-.04-.18-.14-.34-.12-.53.01-.13.11-.35.19-.36.75-.14,1.44-.31,1.47-1.38.14.24.32.47.49.7-.11-.35-.09-.59,0-.76.21-.45.94-.39,1.36-.62.03,0,.05,0,.06-.02.58-.12,1.14-.26.9-1.08.02-.04.08-.09.18-.18.18.26.36.49.64.88.02-.45,0-.72.02-1.2.32.31.53.47.74.69q-.08-.77.74-1.09c-.03-.26-.03-.5-.05-.76l.16-.05c.13.21.27.41.47.74.1-.3.14-.47.23-.63.05-.14.12-.32.22-.37.38-.2.78-.34,1.19-.5.51-.19,1.11-.3.78-1.1,0,0,.08-.04.15-.08.06.14.1.27.17.39.08.1.18.18.26.27.08-.09.17-.21.2-.32.02-.1-.07-.23-.02-.31.04-.12.14-.22.21-.35.1.11.23.18.29.26.1.16.14.34.19.51l.19-.06c-.02-.17-.07-.33-.06-.49.01-.13.08-.25.13-.39.11.09.25.13.37.22.1.11.17.28.25.43.05-.05.12-.07.18-.09-.07-.17-.15-.32-.16-.46-.02-.17.01-.37.11-.51.23-.28.51-.51.81-.81.08.1.23.28.37.47.04-.03.11-.05.14-.06.04-.28.06-.56.06-.83.06-.02.11-.05.16-.05.15.22.33.45.54.75.07-.18.16-.29.15-.38-.17-.49.04-.73.52-.83.57-.1,1.07-.29.84-1.06-.03-.04.1-.14.22-.31.18.37.3.65.43.91.14-.17.14-.31.15-.43.03-.2.06-.37.08-.55.15.13.3.24.45.37.1.11.2.19.43.42-.07-.47-.2-.78-.1-.97.17-.37.5-.68.8-1.03.08.15.19.35.42.74.07-.34.11-.51.17-.67.03-.15.04-.38.12-.42.32-.15.68-.26,1.01-.38.38-.15.78-.29,1.09-.52.1-.08.01-.43,0-.67.01-.02.04-.03.09-.06-.38-.15-.76-.3-.83-.52-.24-.81-.84-.8-1.42-.92-.65-.16-1.29-.31-1.64-.98-.17.12-.34.23-.56.35-.09-.34-.16-.6-.27-.96-.28.23-.5.38-.83.64.16-.75-.1-1.03-.69-1.04-.31-.03-.67-.06-.87-.25-.23-.18-.28-.53-.45-.83-.17.21-.32.4-.46.56-.07-.17-.13-.37-.18-.53.74-1.39,1.44-2.74,2.19-4.15-.03-.04-.13-.21-.13-.21.2-.27.4-.49.56-.7l.04.02c.32-.5.64-1.09,1.39-.34-.08-.26-.21-.41-.28-.58-.07-.17-.13-.47-.03-.55.33-.36.74-.68,1.17-1.02-.15-.27-.26-.52-.45-.83l.04-.08c.38.04.69.07,1,.1-.17-.33-.27-.55-.39-.78.3.05.57.09,1.02.17-.15-.27-.29-.42-.35-.62-.08-.2-.16-.57-.13-.61.6-.22.45-.65.27-1.07.33.09.61.17.9.24.03-.06.09-.11.14-.17-.18-.26-.33-.55-.53-.93v-.02c.35.07.62.13.9.21-.15-.38-.43-.71-.35-.92.18-.39.51-.75.87-1.02.27-.21.33-.36.18-.58.08-.15.15-.27.2-.43.16.06.32.12.59.21-.09-.18-.14-.34-.22-.5.14,0,.26-.03.39-.06.02.12.04.18.06.25.33-.17.65-.52.84-.47.56.11,1.07.27,1.47.03l.06.03.06-.11s.11-.05.13-.09c.09-.06.13-.2.2-.32.06.09.12.12.18.18-.01.13.03.26.01.38.05.11.03.26.04.43.15-.13.27-.26.4-.35h.02s.01,0,.02-.03c.08-.09.16-.16.25-.22.08-.09.18-.18.28-.28,0,.19.03.34.06.49,0,.19.03.4.06.65.15-.19.21-.35.29-.44.01-.02.02-.04.07-.07.21-.13.45-.33.66-.32.46,0,.96.22,1.42.03.03.04.07.07.09.08.01-.02,0-.05.02-.1.12-.07.23-.23.32-.4.05.05.12.12.18.18.05.21.11.41.16.57.12-.12.24-.25.33-.36.33-.07.64-.14.94-.25.4.05.8.13,1.17.24.41.14.73.2.96-.03.06-.02.11-.05.18-.09-.03-.1-.05-.16-.02-.22h-.02c.02-.05.05-.06.06-.12.01-.07.11-.1.25-.16.03.04.08.1.12.12h.02c-.02.11-.03.21,0,.31.02.17.08.36.11.55.11-.16.21-.29.31-.38.19-.14.42-.34.61-.32.7.1,1.39.28,2.08.41.16,0,.35-.19.5-.33.03,0,.04-.03.04-.03.18-.04.35-.05.5-.08,0,.21-.04.38-.04.52.04.02.11.06.18.07.1-.14.17-.32.3-.41.15-.13.38-.31.56-.29.63.09,1.27.19,1.9.34.32.06.51.06.64-.28.06-.02.15-.03.21-.05.08-.04.14-.06.2-.08.06.09.09.18.11.3.03.1.02.22.05.35.34-.39.6-.82,1.14-.77.13.07.24.1.35.21.19-.46.34-1.14.72-.13.03.04.11.09.19.1.87-.02,1.71-.27,2.61-.63-.19-.21-.33-.29-.35-.35,0-.16.05-.35.09-.52.15.22.33.39.48.61.04.08.06.14.08.2.14.5.5.67.97.6.18-.04.33-.07.51-.1,0,.03.02.06.02.12.14.75.29,1.48.42,2.09-.18.44-.43.75-.4,1,.15.97.4,1.94.6,2.92.03.15.01.33,0,.49-.16-.06-.34-.13-.46-.19.07.93.11,1.92.19,2.94.29-.09.38.04.4.21.09,0,.18-.04.2-.08.36-.27.68-.61,1.04-.88.2-.17.49-.47.72-.43.72.12,1-.41,1.46-.76.44-.36.93-.64,1.41-.97,0,0-.05-.11-.17-.39.85.37,1.27-.1,1.72-.59.25-.32.65-.81.89-.76.77.12,1.14-.42,1.6-.77.37-.29.75-.54,1.08-.8.27-.15.43-.25.58-.34.22-.1.45-.14.65-.25.41-.27.8-.54,1.22-.81q.05-.49.58-.47c.12.04.25,0,.35-.05.82-.53,1.59-1.15,2.48-1.56.95-.46,1.51-1.52,2.6-1.74.04-.03.11-.05.17-.07.11,0,.17-.12.24-.2.52-.37,1.03-.77,1.53-1.15.19-.11.4-.24.61-.38.14-.11.34-.09.53-.18.88-.39,1.44-1.28,2.5-1.5.53-.12.95-.76,1.46-1.11.42-.29.7-.9,1.39-.77.07.01.15-.19.35-.35-.29.03-.44.06-.59.09.01-.07,0-.14.02-.18.59-.25,1.19-.42,1.76-.71.63-.31,1.24-.66,1.81-1.06.54-.41,1.02-.86,1.61-1.35.1.02.26.11.46.19.01-.07.06-.16.09-.22Zm-23.98-38.63c.06-.02.2.03.27.09.02.06-.03.2-.08.25-.22.21-.49.41-.83.69-.04-.59.24-.85.64-1.04Zm-24.44,15.63c.03-.06.21-.05.27,0,.03.04.05.21,0,.27-.21.24-.48.45-.73.66-.05-.05-.08-.1-.17-.14.2-.27.41-.56.64-.79Zm-1.9-2.96c.07.07.11.09.19.15-.2.22-.4.44-.57.67-.06-.03-.11-.06-.16-.11.18-.23.11-.67.54-.71Zm-1.48-25.23c.01-.07.07-.18.14-.22.37-.13.76-.21,1.12-.32.07.07.08.15.13.21-.4.19-.78.39-1.18.53-.06.02-.18-.12-.22-.2Zm4.93-29.26c.06-.02.23.02.27.09.03.04-.02.18-.07.23-.23.23-.49.41-.83.69-.04-.59.22-.83.62-1.02Zm-24.43,15.61s.2-.03.25.03c.06.03.06.19,0,.25-.22.26-.48.45-.74.68-.05-.05-.08-.1-.17-.14.2-.27.41-.56.65-.81Zm-1.91-2.94c.08.04.11.09.2.13-.21.24-.4.44-.58.69-.03-.04-.09-.08-.14-.1.16-.24.09-.68.52-.72ZM56.13,3.03c-.05-.05-.09-.18-.07-.28.02-.04.17-.07.25-.06.31.08.61.22,1.01.38-.5.33-.85.22-1.19-.04Zm2.76,30.37c-.32-.25-.57-.55-.86-.81.04-.08.1-.14.12-.23.37.28.73.5,1.06.75.04.08-.04.22-.05.3-.08.04-.21.05-.27,0Zm22.84-17.24c.01-.07.16-.16.22-.15.34.07.64.21.96.32-.02.04-.04.12-.03.2-.35-.05-.69-.07-1.03-.14-.07-.01-.12-.17-.12-.23Zm-1.46,3.35c0-.09,0-.16.02-.23.29.07.58.12.89.15-.03.06-.01.13-.05.19-.29-.02-.61.24-.86-.11Zm-49.18,20.59c-.05-.05-.09-.18-.05-.27.02-.04.17-.07.23-.07.31.08.61.22,1.03.39-.5.33-.86.19-1.21-.05Zm2.76,30.37c-.29-.26-.55-.54-.84-.8l.12-.23c.34.26.71.49,1.06.75.02.06-.04.22-.07.29-.05.05-.21.05-.27,0Zm22.84-17.24c.03-.06.16-.16.24-.14.34.07.62.2.94.31,0,.05-.01.13-.03.2-.33-.04-.69-.07-1.03-.14-.05,0-.12-.17-.12-.23Zm-1.46,3.35c.01-.07.03-.15.02-.23.31.08.58.12.89.15-.01.07-.01.13-.02.18-.3,0-.65.25-.89-.1ZM6.3,80.85c-.05-.05-.08-.2-.05-.27s.16-.1.23-.07c.31.08.62.2,1.02.36-.48.34-.85.22-1.2-.02Zm2.76,30.37c-.29-.26-.57-.55-.83-.82.01-.07.08-.15.11-.21.36.24.72.47,1.06.75.03.04-.03.2-.07.29-.08.04-.2.03-.27,0Zm22.86-17.26c.03-.06.16-.16.23-.12.32.06.62.2.95.29-.01.07-.03.15-.04.22-.33-.04-.69-.07-1.03-.14-.04-.02-.12-.17-.11-.25Zm-1.48,3.37c.02-.1.03-.15.03-.25.31.08.58.12.88.17,0,.05,0,.11-.02.18-.29-.02-.65.25-.89-.1ZM1.1,150.67c-.06.02-.21-.06-.23-.12-.1-.32-.14-.64-.21-.98.06-.02.13-.04.2-.08.13.31.28.64.38.96.02.06-.08.2-.14.22Zm3.43-.3c-.09-.29-.19-.56-.31-.84.06-.02.11-.05.17-.07.13.26.53.42.35.81-.08.04-.14.06-.22.1Zm-2.19,29.24c-.05,0-.16-.11-.18-.18-.08-.31-.12-.63-.18-1.07.54.26.61.62.57,1.06-.01.07-.12.18-.21.19Zm58.16-108.7c-.03-.1-.08-.2-.12-.28.13.07.22.14.33.23-.06.02-.15.03-.21.05Zm-33.15,90.7c.06.03.13.15.12.23-.07.39-.19.76-.29,1.14-.09,0-.16,0-.25,0,.04-.44.06-.86.12-1.29.03-.06.2-.08.29-.09Zm26.37-47.25c-.32-.25-.57-.55-.86-.81l.06-.11s.07-.07.08-.09c.36.24.72.47,1.05.72.04.08-.04.22-.08.31-.04.03-.18.04-.23-.02Zm-2,7.9c.04-.44.06-.86.12-1.29.03-.06.2-.08.29-.09.06.03.13.15.12.23-.07.39-.19.76-.29,1.14-.09,0-.16,0-.25,0Zm30.08-47.02c-.32-.25-.57-.55-.86-.81.04-.08.1-.14.11-.21.38.26.72.47,1.07.73.04.08-.04.22-.08.31-.04.03-.18.04-.23-.02Zm2.79-.27c.09,0,.15.03.24.05-.06.21-.03.41.02.63-.11-.25-.18-.47-.26-.68Zm2.39,5.33c-.07-.01-.17-.14-.22-.2,0-.09.06-.21.12-.23.39-.12.76-.21,1.15-.33.03.04.04.08.05.11.03.04.04.08.04.13-.39.17-.73.36-1.14.52Zm-28.04,61.64c.01-.13.04-.28.05-.4.05.05.1.11.14.19-.07.07-.13.15-.2.22Zm53.08-98.72c-.07-.01-.17-.14-.24-.21.01-.07.08-.2.14-.22.37-.13.76-.21,1.14-.31.05.05.07.12.11.19-.39.17-.77.37-1.15.54Zm-66.28,110.6c-.06.02-.21-.06-.23-.12-.1-.32-.14-.64-.21-.98.06-.02.13-.04.2-.08.13.31.28.64.38.96.02.06-.08.2-.14.22Zm3.43-.3c-.09-.29-.19-.56-.31-.84.06-.02.11-.05.17-.07.13.26.53.42.35.81-.08.04-.14.06-.22.1Zm-2.21,29.23c-.05,0-.16-.11-.18-.18-.08-.31-.12-.63-.18-1.07.54.26.61.62.57,1.06-.01.07-.12.18-.21.19Zm25.03-17.99c.06.03.13.15.12.23-.07.39-.19.76-.29,1.14-.09,0-.16,0-.25,0,.04-.44.06-.86.12-1.29.03-.06.2-.08.29-.09Zm27.81-37.76c-.05,0-.11,0-.15-.03.04-.44.06-.83.13-1.25.03-.06.2-.08.29-.09.06.03.13.15.12.23-.07.39-.19.76-.29,1.14-.05,0-.09,0-.11,0Zm5.62-.51c-.16-.16-.33-.23-.55-.29.25.03.5.08.72.12-.05.05-.12.12-.18.18Zm1.41-2.33c-.06.02-.18-.12-.22-.2.01-.07.08-.2.14-.22.37-.13.76-.21,1.12-.32.07.07.09.13.13.21-.4.19-.78.39-1.18.53Zm-13.39,30.74c-.06.02-.21-.06-.23-.12-.1-.32-.14-.64-.21-.98.06-.02.13-.04.2-.08.13.31.28.64.38.96.02.06-.08.2-.14.22Zm3.42-.28c-.09-.29-.18-.58-.3-.86.06-.02.11-.05.17-.07.12.28.53.42.34.83-.08.04-.14.06-.22.1Zm-2.21,29.23c-.05,0-.16-.11-.18-.18-.08-.31-.12-.63-.18-1.07.54.26.61.62.57,1.06-.01.07-.12.18-.21.19Zm25.03-17.99c.06.03.13.15.12.23-.07.39-.19.76-.29,1.14-.09,0-.16,0-.25,0,.04-.44.06-.86.12-1.29.03-.06.2-.08.29-.09Zm34.83-40.59c-.05,0-.17-.14-.22-.2.01-.07.08-.2.14-.22.37-.13.76-.21,1.13-.34.06.09.08.15.12.23-.39.17-.77.37-1.18.53Zm.88,25.86c-.05-.05-.09-.08-.16-.11.16-.24.11-.67.54-.71.06.03.11.09.2.13-.23.23-.4.44-.58.69Zm1.83,3.05c-.06-.03-.11-.09-.18-.12.2-.27.41-.56.65-.81.03-.06.2-.03.25.03.04.02.06.19,0,.25-.24.25-.48.45-.73.66Zm24.28-15.52c-.06-.6.22-.83.62-1.02.06-.02.21,0,.27.09,0,.03-.02.18-.07.23-.23.23-.49.41-.83.69Z"/>
  </g>
</svg>