<?xml version="1.0" encoding="UTF-8"?>
<svg id="Layer_2" data-name="Layer 2" xmlns="http://www.w3.org/2000/svg" viewBox="0 0 179.48 179.48">
  <defs>
    <style>
      .cls-1 {
        fill: #fff;
        stroke-width: 0px;
      }
    </style>
  </defs>
  <g id="Layer_1-2" data-name="Layer 1">
    <g>
      <path class="cls-1" d="m10.15,131.37c.39.35.78.73,1.26.86.3.06.69-.26,1.11-.45-.1.37-.18.69-.26,1.01.35-.12.53-.48.75-.5.29-.02.61.19.9.31.17.07.36.15.47.26.31.27.53.31.74-.08.05-.12.15-.19.27-.31.06.39.08.71.11,1.01.08-.02.15-.02.22-.02.15-.19.3-.37.56-.71,0,.54.01.88.03,1.4q.6-.88,1.73-.38c.68.29,0,.69.05,1.04.3-.17.65-.5.77-.41.59.35.99.07,1.49-.51.04.5.06.79.08,1.04.3-.1.54-.21.8-.31-.05.29-.09.61-.17,1.13.28-.26.45-.43.63-.51.18-.09.47-.21.64-.14.73.38,1.42.79,2.17,1.22.21-.83.53-.71,1.06-.27.48.4,1.09.63,1.65.91.07.03.2.03.27,0,.27-.17.52-.36.77-.51.02.29.04.57.06,1.06.43-.95.92-.67,1.45-.29.54.36,1.1.54,1.46-.24.02-.02.08-.02.29-.02-.1.34-.18.66-.19.81,2.38-2.37,4.88-4.83,7.41-7.29,0-.07-.04-.24-.04-.24.47-.31.87-.52,1.19-.81.93-.79,1.66-1.81,2.63-2.56.65-.53,1.15-1.21,1.76-1.88.4-.34.87-.72,1.28-1.11.35-.32.61-.9,1-.96.77-.14,1.09-.67,1.52-1.18.12-.12.32-.16.55-.29-.03.4-.03.64-.04.79.39-.09.79-.3.97-.18.7.41,1.31.94,2.14,0-.1.47-.16.74-.26,1.15.47-.21.75-.33,1.17-.52-.08.42-.13.68-.22,1.11.27-.21.37-.34.5-.38.22-.09.5-.17.71-.11.54.16,1.02.69,1.59.42.15-.05.28-.16.43-.31-.01.29-.03.47-.03.67.05.05.09.08.12.15.3-.17.57-.38.77-.31.54.16,1.07.44,1.53.79.49.35.88.56,1.26-.1.03-.07.23-.07.44-.11-.08.22-.13.34-.16.47l-.04.56c.15-.09.27-.21.42-.26.23-.07.5-.21.69-.13.63.31,1.2.71,1.83,1.02.14.07.4-.07.59-.16.2-.07.37-.17.74-.35-.21.46-.29.68-.41.9.07.03.12.08.17.13.15-.12.27-.27.42-.33.13-.04.27-.1.4-.11-.34.9-.57,1.84-.86,2.76-.05.15-.16.31-.25.46-.1-.13-.22-.28-.31-.4-.25.53-.51,1.07-.77,1.64.15.12.31.2.46.28.08.05.22.08.3.03.39-.12.74-.31,1.12-.44.23-.1.57-.24.74-.14.58.3.99-.06,1.46-.24s.97-.28,1.49-.41c0,0,0-.13-.04-.37.63.55,1.11.26,1.63-.04.32-.19.79-.46.99-.37.63.31,1.09-.03,1.58-.19.42-.12.82-.26,1.16-.37.29-.05.44-.11.61-.11.19-.02.42.01.62-.02.42-.09.82-.23,1.28-.35q.16-.41.6-.21c.1.03.24.06.32.05.87-.21,1.71-.49,2.57-.62,1.01-.11,1.82-.92,2.91-.69.08.02.17-.07.25-.09.55-.19,1.09-.37,1.63-.54.2-.07.44-.11.64-.14.17-.07.34,0,.51,0,.52-.06.99-.3,1.48-.46.35-.09.71-.14,1.09-.1.47.06,1.02-.37,1.56-.51.45-.12.85-.57,1.39-.27.07.03.22-.09.42-.19-.25-.05-.39-.08-.54-.09.03-.07.07-.1.08-.15.57-.04,1.15-.01,1.7-.07.62-.09,1.24-.22,1.85-.39.57-.18,1.14-.45,1.78-.7l.32.32.13-.14c-.05-.18-.09-.39-.19-.55-.29-.52-.6-1.02-.93-1.5-.26-.35-.42-.87-1.1-.64.1-.17.21-.32.4-.58-.24,0-.39.06-.52.02-.14-.03-.32-.08-.39-.18-.38-.53-.72-1.1-1.05-1.59-.25-.01-.44,0-.64,0,.06-.2.13-.41.21-.59-.24-.03-.47-.06-.71-.09.12-.15.2-.31.31-.49-.02-.05-.03-.1-.05-.18-.12.05-.22.09-.32.09-.07,0-.12-.02-.2-.03-.08-.02-.19-.05-.24-.13-.21-.3-.38-.64-.57-.99-.22.05-.37.11-.55.16-.09-.08-.17-.13-.26-.18.22-.12.45-.26.69-.36-.09-.08-.17-.13-.24-.2-.15.02-.29.05-.44.04-.12-.02-.24-.1-.37-.13.1-.1.17-.2.27-.31.08-.09.17-.2.23-.31l-.1-.1c-.13.07-.27.17-.42.19-.12.02-.34-.03-.37-.1-.23-.65-.52-1.21-1.46-1.06l.53-.55c-1.09.54-1.07-.51-1.44-.98-.02-.02-.03-.03-.02-.05-.23-.49-.45-.97-1.12-.59-.03,0-.08-.05-.19-.15.2-.2.37-.41.66-.72-.4.07-.66.13-1.08.18.21-.32.35-.53.48-.76q-.65.23-1.08-.46c-.22.05-.44.11-.67.18-.02-.05-.03-.1-.07-.13.15-.15.33-.31.58-.56-.27-.03-.44-.03-.59-.08-.14-.03-.3-.03-.37-.13-.24-.3-.43-.62-.64-.95-.26-.42-.47-.92-1.1-.51,0,0-.05-.05-.1-.13.1-.07.22-.12.3-.21s.13-.17.2-.27c-.12-.05-.22-.12-.32-.11-.08-.02-.18.09-.27.07-.12-.02-.22-.08-.34-.13.07-.1.1-.24.2-.31.1-.1.27-.17.38-.26-.02-.05-.03-.1-.07-.17-.15.05-.28.12-.44.14-.12.02-.22-.01-.34-.03.03-.14.05-.25.13-.37s.2-.2.32-.29c-.05-.05-.07-.1-.1-.13-.13.07-.25.19-.4.21-.13.04-.32.05-.46-.01-.27-.17-.54-.36-.85-.6.07-.07.2-.24.35-.39-.03-.03-.05-.08-.09-.12-.25.02-.49.06-.74.08-.03-.03-.05-.08-.07-.13l.58-.6c-.17-.03-.3-.1-.37-.06-.42.22-.66.09-.81-.33-.19-.45-.43-.82-.97-.58.05.08.1.17.15.25-.34.11-.6.18-.96.26.24.3.39.52.67.85-.74-.16-1.03.1-1.05.7,0,.3-.03.64-.19.88-.18.22-.54.28-.84.45.2.17.41.3.58.43-.37.17-.89.23-.95.43-.24.76-.4,1.57-.58,2.5-.46-.18-.78-.46-.32-1.18-.23.14-.33.31-.5.41-.15.09-.44.21-.54.14-.44-.26-.82-.6-1.26-.93-.25.22-.5.41-.82.67-.02-.42-.06-.76-.08-1.08-.3.24-.5.38-.7.55-.02-.29-.02-.59-.03-1.03-.23.21-.38.36-.55.46-.18.12-.54.28-.55.26-.36-.55-.74-.29-1.11-.05.03-.34.03-.64.04-.93-.05-.02-.12-.05-.19-.08-.25.22-.5.44-.83.72.01-.35,0-.62.02-.94-.33.24-.6.58-.82.53-.42-.08-.85-.33-1.2-.61-.32-.28-.49-.28-.69.09-.08.15-.28.22-.42.33.01-.19.03-.37.04-.56,0-.17.05-.35.08-.66-.42.29-.68.5-1.07.75.04-.46.06-.67.09-1.05-.23.14-.37.24-.5.31-.15.05-.3.04-.44.07.01-.15,0-.3.04-.46.03-.14.1-.27.15-.42-.07-.03-.12-.08-.17-.1l-.88.9-.65-.63-.53.55c0-.37-.04-.67-.05-1.08-.37.31-.57.48-.9.75.03-.51.04-.76.07-1.1-.42.26-.75.6-1,.55-.37-.06-.66-.41-1-.64l-.05-.05c-.29-.22-.51-.23-.69.13-.07.14-.18.25-.26.37-.05-.02-.1-.03-.15-.05.03-.3.06-.61.11-1-.37.17-.62.29-.95.47.03-.37.04-.62.07-.83-.4.14-.74.28-1.07.42.05-.25.08-.49.12-.81-.03,0-.08.02-.12.02-.12.02-.23.07-.35.12l-.02.02c-.17.1-.32.16-.49.16t-.03,0c-.22.09-.44.14-.67.14-.13,0-.24,0-.35.02-.08.05-.17.1-.25.19.02-.05,0-.1.01-.15.03-.34.04-.59.07-.83-.29.09-.38.26-.52.33-.17.07-.42.12-.56.06-.51-.23-.97-.54-1.51-.74-.39-.15-.83-.17-1.32-.29-.03-.07-.09-.29-.18-.64-.4.48-.68.67-1.23.27-.43-.31-1.15-.76-1.67.07-.02.02-.1-.03-.19-.08.03-.14.05-.29.1-.44.05-.15.15-.29.23-.44-.12-.02-.22-.01-.34-.03-.25.15-.48.29-.74.45-.02-.29-.07-.57-.11-.91l-.3.31c-.33.34-.68.97-1.02.97-.84-.02-1,.55-1.3,1.06-.36.58-.69,1.12-1.43,1.26.04.2.09.39.16.65-.37-.03-.64-.03-1.01-.05.12.35.21.6.37.99-.66-.38-1.01-.22-1.23.34-.1.27-.24.63-.48.76-.22.15-.61.11-.94.15.15.25.27.43.43.62-.42.02-.93-.07-1.06.1-.53.71-.94,1.48-1.49,2.38-.17.1-.58-.9-.89-.04.08.05.14.1.19.15.12.12.21.27.32.38-.19.02-.37,0-.54.04-.18.05-.4.11-.54.21-.47.48-.59,1.36-1.52,1.25-.07,0-.18.09-.23.17-.43.51-.83,1.05-1.28,1.58-.32.39-.64,1-1.01,1.04-.74.11-.97.52-1.28,1.04-.31.56-.57,1.24-1.38,1.25.14.47.48,1.07-.46.58-.03-.03-.13,0-.2.04-.63.61-1.06,1.36-1.51,2.23.29.01.42-.02.49.04.14.1.21.27.31.4-.27-.03-.54-.06-.79-.11-.07,0-.14-.07-.2-.1-.42-.28-.81-.16-1.11.22-.6.82-1.19,1.63-1.67,2.26-.44.17-.81.18-.97.38-.63.78-1.19,1.6-1.77,2.4-.1.14-.25.26-.38.36-.04-.17-.11-.34-.16-.49l-2.06,2.11c.65.4-.3.58-.33.95-.01.15-.25.29-.38.43.01-.19.03-.37.04-.56.02-.05.03-.14.06-.2-.05-.05-.1-.07-.17-.1-.55.66-1.11,1.34-1.69,2.08-1.26.2-1.49,1.84-2.77,2.36Zm81.9-8.3c.08-.02.19.08.22.15.02.05-.07.17-.13.2-.27.1-.52.19-.89.33.13-.51.43-.65.8-.68Zm-26.67,3.67l-.02-.02c-.03-.07-.05-.08-.07-.13.22-.15.28-.56.65-.46.03.07.09.12.12.18-.23.14-.45.26-.67.41l-.02.02Zm.66,3.14c-.03-.07-.09-.12-.12-.18.27-.17.53-.34.79-.5.05-.02.2.03.24.1.02.05-.03.2-.08.22-.27.14-.55.26-.82.36Zm11.29-25.09s-.09-.18-.09-.29c.02-.05.17-.14.22-.12.39.08.78.16,1.15.26.02.08,0,.17.02.25-.44-.03-.86-.04-1.3-.1Zm-37.17,1.74c-.39-.15-.8-.31-1.19-.49-.03-.03-.02-.22.03-.3.02-.05.18-.09.23-.07.34.2.68.43,1.02.63-.05.08-.07.17-.1.24Z"/>
      <path class="cls-1" d="m93.48,0c-.5.16-1.03.31-1.37.66-.21.23-.12.73-.16,1.18-.27-.27-.51-.5-.75-.73-.07.37.15.7.06.9-.13.26-.47.43-.72.62-.14.11-.31.23-.47.28-.38.13-.53.3-.3.68.08.1.09.22.13.38-.36-.15-.65-.29-.93-.41-.03.08-.06.14-.09.2.09.22.17.45.34.85-.47-.26-.76-.43-1.23-.67q.47.96-.54,1.69c-.59.44-.59-.35-.93-.48,0,.35.1.81-.03.87-.6.34-.56.83-.31,1.55-.46-.22-.72-.34-.94-.45-.06.31-.09.57-.13.85-.23-.18-.48-.38-.89-.71.08.37.14.6.13.81-.02.2-.05.51-.2.62-.69.44-1.4.84-2.14,1.27.61.59.35.82-.3,1.05-.58.21-1.09.63-1.61.97-.06.04-.13.16-.13.24.02.32.05.63.06.92-.26-.13-.52-.25-.95-.48.61.84.12,1.13-.47,1.4-.59.29-1.02.68-.53,1.39,0,.02-.03.08-.13.26-.24-.25-.48-.48-.61-.57.86,3.25,1.74,6.64,2.61,10.06.06.03.22.09.22.09.03.56.01,1.01.11,1.43.21,1.2.73,2.34.9,3.56.13.83.47,1.6.74,2.46.1.52.19,1.11.32,1.67.11.47.47.98.33,1.34-.26.74.04,1.28.26,1.91.05.16-.02.35-.02.62-.34-.23-.54-.34-.67-.43-.12.38-.14.83-.33.93-.71.4-1.47.66-1.06,1.86-.36-.32-.56-.51-.87-.8-.05.51-.09.82-.14,1.28-.33-.28-.52-.45-.85-.75.04.33.11.49.08.62-.03.23-.1.52-.26.67-.41.39-1.11.54-1.16,1.17-.03.16,0,.32.05.53-.24-.15-.39-.26-.57-.36-.07.02-.11.03-.19.03,0,.35.04.68-.11.82-.41.39-.92.7-1.45.93-.55.25-.93.48-.54,1.14.04.06-.06.24-.13.43-.15-.18-.23-.28-.33-.38l-.46-.32c0,.17.04.33.01.49-.06.24-.07.54-.23.66-.58.39-1.22.69-1.8,1.08-.12.08-.14.39-.16.59-.04.21-.03.41-.07.81-.29-.41-.44-.59-.57-.8-.06.04-.13.06-.2.08.03.19.1.37.07.52-.04.13-.04.28-.11.4-.61-.75-1.31-1.41-1.96-2.12-.11-.12-.18-.3-.27-.44.17-.02.36-.05.5-.07-.33-.48-.67-.97-1.04-1.49-.18.07-.32.17-.47.26-.09.05-.18.15-.18.25-.09.4-.1.79-.18,1.19-.03.26-.07.61-.25.71-.54.35-.44.89-.53,1.39s-.24.98-.4,1.5c0,0,.12.07.34.15-.79.27-.78.84-.78,1.43,0,.37,0,.91-.18,1.04-.58.39-.52.96-.63,1.46-.1.43-.18.84-.26,1.19-.1.27-.13.43-.21.58-.08.17-.22.36-.29.55-.13.41-.21.83-.33,1.28q.27.34-.12.63c-.08.07-.17.17-.2.25-.25.86-.43,1.73-.75,2.54-.41.93-.12,2.04-.85,2.86-.06.07-.02.18-.05.26-.11.58-.23,1.13-.34,1.68-.04.21-.13.43-.2.62-.02.18-.16.29-.25.44-.21.48-.24,1.01-.34,1.51-.1.35-.23.68-.46,1-.29.38-.19,1.07-.34,1.61-.12.45.06,1.02-.46,1.34-.06.04-.03.23-.04.46.17-.2.26-.3.35-.42.04.06.06.11.09.15-.25.52-.56,1-.79,1.51-.23.58-.43,1.19-.58,1.8-.13.58-.18,1.21-.29,1.89l-.44.12.05.18c.19.05.38.12.58.11.6,0,1.18-.01,1.77-.05.43-.05.96.08,1.11-.63.1.17.17.35.3.63.12-.21.15-.36.24-.46.1-.1.23-.24.35-.25.65-.06,1.32-.07,1.9-.11.14-.21.21-.38.31-.56.14.16.29.32.41.48.14-.19.29-.38.43-.57.07.18.17.32.27.52.05.01.1.02.19.05.01-.13.03-.23.08-.32.03-.06.07-.09.13-.16.06-.07.13-.14.23-.14.36-.03.74-.01,1.14,0,.06-.22.09-.37.14-.56.11-.03.2-.08.29-.13,0,.25,0,.52-.03.78.11-.03.2-.08.29-.11.06-.14.1-.27.18-.4.07-.09.2-.16.3-.26.04.14.09.25.13.38.03.11.09.25.15.35l.14-.04c0-.15-.02-.32.04-.46.04-.11.19-.28.27-.27.68.13,1.31.15,1.65-.74l.21.73c.08-1.21.97-.67,1.57-.76.02,0,.05-.01.05.01.53.05,1.07.1,1.07-.67.02-.03.09-.05.22-.09.08.28.17.52.29.93.14-.39.22-.63.38-1.02.17.35.28.56.42.8q.13-.68.94-.71c.06-.22.13-.43.18-.67.05.01.1.02.15,0,.06.21.1.44.2.79.16-.22.24-.37.36-.47.1-.1.18-.25.3-.26.38-.06.75-.06,1.14-.07.49-.01,1.03.06.99-.7,0,0,.07-.02.17-.02,0,.12,0,.25.03.36s.08.2.14.31c.1-.08.21-.13.26-.22.06-.07.02-.2.07-.27.07-.09.18-.15.28-.23.06.11.16.2.17.32.04.14.02.32.03.46.05.01.1.02.18.02.03-.16.04-.31.1-.45.04-.11.12-.18.19-.28.1.1.2.17.26.3s.08.28.09.42c.07-.02.12,0,.17-.02,0-.15-.04-.31.02-.45.04-.13.11-.3.24-.39.28-.15.59-.29.94-.44.03.09.11.29.16.5.05-.01.1,0,.14-.02.11-.23.19-.45.3-.68.05-.01.1,0,.15,0l.23.8c.11-.13.24-.22.24-.29.01-.47.25-.61.69-.54.49.06.93.04.98-.55-.1,0-.2,0-.29,0,.08-.34.15-.61.25-.96-.38.06-.64.08-1.07.15.51-.56.43-.94-.08-1.26-.26-.15-.54-.34-.67-.6-.1-.27.03-.6.03-.95-.25.09-.46.2-.66.29.03-.41.25-.89.1-1.04-.54-.59-1.16-1.13-1.88-1.75.38-.31.79-.45,1.18.31,0-.27-.1-.44-.11-.64,0-.17.04-.48.15-.54.45-.25.92-.41,1.43-.63-.07-.33-.11-.64-.17-1.04.38.19.69.33.97.47-.06-.38-.08-.62-.12-.88.26.13.52.27.9.49-.06-.3-.12-.51-.12-.71-.01-.22.03-.6.05-.61.66-.04.63-.5.6-.94.28.19.54.34.78.5.04-.04.1-.08.16-.12-.07-.33-.13-.65-.2-1.08.3.19.54.32.81.49-.04-.41-.2-.81-.05-.98.28-.33.71-.57,1.13-.74.41-.14.49-.29.26-.64-.09-.15-.05-.36-.07-.52.15.11.31.21.46.32.15.08.28.22.53.39-.04-.51-.09-.84-.12-1.3.37.27.55.39.86.6,0-.27-.02-.44-.02-.59.03-.16.12-.28.16-.41.12.09.26.15.37.27.1.1.19.22.29.34.06-.04.13-.06.17-.1l-.34-1.22.87-.25-.21-.73c.32.18.6.3.96.5-.08-.47-.13-.73-.2-1.16.42.28.64.41.91.61-.01-.49-.14-.95.02-1.15.24-.29.69-.37,1.06-.55l.07-.02c.33-.14.45-.33.23-.66-.08-.12-.13-.29-.19-.42.04-.04.08-.07.12-.11.25.18.5.36.81.59.03-.41.06-.68.07-1.06.31.21.52.35.68.48.08-.42.13-.78.17-1.14.2.17.38.31.64.51.02-.03.03-.08.04-.11.04-.11.06-.24.07-.37v-.02c-.01-.2.02-.35.1-.5t.02-.03c.03-.23.1-.45.21-.65.07-.12.12-.21.16-.32,0-.1,0-.2-.04-.31.04.04.09.05.12.09.28.19.49.33.68.48.07-.29-.03-.46-.02-.61.02-.18.1-.42.23-.51.45-.33.95-.57,1.39-.94.32-.26.57-.63.91-1,.08,0,.29.07.64.17-.21-.58-.24-.92.38-1.2.49-.21,1.24-.62.77-1.48,0-.02.08-.07.16-.12.1.1.23.18.33.3.11.12.18.27.27.42.07-.09.12-.18.19-.28,0-.29-.01-.57-.02-.86.26.13.53.22.84.36l-.12-.41c-.13-.46-.5-1.07-.33-1.37.44-.72.02-1.15-.27-1.66-.32-.6-.62-1.16-.38-1.87-.19-.07-.38-.12-.65-.19.21-.31.34-.54.55-.85-.37-.07-.63-.12-1.04-.18.66-.38.7-.77.32-1.23-.19-.22-.42-.53-.42-.8-.03-.27.21-.58.34-.89-.29,0-.51.02-.75.06.19-.38.53-.77.45-.97-.35-.82-.81-1.55-1.32-2.48,0-.2,1.07-.05.48-.75-.09.05-.15.07-.22.09-.16.05-.33.04-.49.09.08-.17.18-.32.23-.49.05-.19.11-.4.09-.57-.18-.64-.88-1.19-.32-1.94.03-.06.02-.2-.03-.29-.23-.63-.5-1.25-.73-1.9-.18-.47-.55-1.06-.39-1.4.27-.7.04-1.1-.26-1.63-.33-.55-.78-1.12-.39-1.82-.48-.11-1.17-.12-.27-.69.05-.01.07-.12.07-.19-.22-.85-.65-1.6-1.17-2.42-.15.24-.19.38-.28.4-.15.07-.33.04-.5.07.16-.22.32-.44.49-.63.03-.06.12-.08.19-.13.46-.23.54-.62.37-1.07-.41-.92-.82-1.85-1.12-2.58.07-.46.25-.79.15-1.03-.36-.94-.79-1.83-1.19-2.73-.07-.15-.1-.34-.12-.51.16.05.34.08.5.11l-.8-2.84c-.67.36-.35-.54-.66-.76-.12-.09-.13-.36-.18-.54.15.11.31.21.46.32.04.04.1.1.14.16.07-.02.11-.06.17-.1-.3-.81-.61-1.64-.95-2.5.46-1.19-.85-2.21-.66-3.58Zm-33.77,75.08c-.03.08-.16.12-.24.12-.05-.01-.11-.14-.11-.22.04-.28.09-.55.16-.94.37.36.34.7.19,1.03Zm10.16-24.93h.02c.08,0,.1,0,.15,0,.03.27.34.52.08.8-.08,0-.14.02-.22.01,0-.27,0-.52-.02-.79v-.02Zm-3.05-1c.08,0,.14-.02.22-.01.02.32.03.63.04.93-.01.05-.13.16-.2.16-.05-.01-.16-.13-.15-.18.01-.3.05-.61.1-.89Zm16.08,22.33s.2.02.29.07c.04.04.04.21,0,.25-.26.3-.53.59-.8.87-.08-.03-.15-.08-.23-.11.24-.37.46-.72.74-1.07Zm17.08-33.07c.32-.26.67-.53,1.02-.78.05-.01.2.09.25.18.04.04-.02.2-.06.24-.34.19-.71.37-1.05.57-.05-.09-.11-.14-.16-.2Z"/>
      <path class="cls-1" d="m165.59,137.85c.11-.51.24-1.04.12-1.52-.1-.3-.57-.46-.94-.73.37-.1.69-.19,1.01-.28-.28-.24-.68-.22-.81-.4-.16-.24-.14-.62-.18-.93-.03-.18-.05-.38,0-.54.08-.4,0-.61-.44-.6-.13.02-.24-.04-.4-.08.31-.24.57-.42.82-.6-.06-.06-.09-.12-.13-.18-.24-.04-.47-.07-.9-.13.46-.28.75-.45,1.19-.73q-1.06-.07-1.19-1.31c-.08-.73.6-.34.88-.56-.3-.17-.76-.32-.74-.46,0-.69-.44-.9-1.19-1.04.42-.29.65-.45.86-.59-.24-.21-.45-.36-.67-.54.27-.1.57-.22,1.06-.42-.36-.12-.59-.18-.76-.29-.17-.12-.41-.3-.44-.48-.04-.82-.03-1.63-.03-2.49-.82.23-.88-.1-.76-.78.11-.61,0-1.25-.04-1.88,0-.08-.07-.19-.14-.23-.28-.15-.57-.27-.83-.41.24-.16.48-.32.89-.59-1.03.11-1.04-.46-.97-1.11.04-.65-.08-1.23-.94-1.15-.02,0-.06-.06-.16-.24.34-.09.66-.18.8-.24-3.24-.87-6.62-1.81-10.01-2.77-.06.03-.19.15-.19.15-.5-.25-.88-.49-1.29-.62-1.15-.42-2.4-.54-3.53-1-.78-.3-1.62-.39-2.51-.59-.5-.18-1.06-.39-1.6-.56-.46-.14-1.09-.08-1.33-.39-.51-.6-1.12-.61-1.78-.72-.16-.04-.29-.2-.53-.33.36-.18.57-.3.71-.36-.27-.29-.65-.53-.64-.75,0-.81.16-1.61-1.08-1.85.46-.15.72-.23,1.12-.35-.41-.3-.66-.49-1.04-.76.4-.14.65-.23,1.08-.37-.31-.13-.48-.15-.58-.25-.18-.15-.4-.35-.45-.56-.13-.55.09-1.23-.43-1.59-.12-.1-.28-.17-.48-.22.25-.13.42-.21.6-.32.02-.07.03-.12.07-.18-.3-.17-.61-.3-.66-.51-.13-.55-.15-1.14-.08-1.72.05-.6.05-1.05-.72-1.04-.08,0-.18-.17-.31-.32.23-.04.36-.06.49-.1l.5-.24c-.15-.09-.31-.13-.43-.23-.18-.17-.43-.33-.45-.53-.04-.7.01-1.4-.03-2.1-.01-.15-.26-.31-.43-.43-.16-.14-.33-.23-.67-.47.5-.04.73-.08.98-.09,0-.08.01-.14.03-.21-.18-.07-.37-.09-.49-.2-.1-.1-.22-.18-.29-.3.95-.15,1.88-.43,2.82-.63.16-.03.35,0,.52-.02-.06.16-.13.33-.19.47.58-.05,1.18-.09,1.81-.15.02-.19.02-.36.01-.54,0-.1-.04-.23-.13-.28-.3-.27-.64-.48-.94-.76-.21-.15-.5-.37-.49-.57-.03-.65-.55-.83-.94-1.15s-.73-.7-1.1-1.09c0,0-.12.07-.3.22.16-.82-.34-1.09-.85-1.4-.32-.18-.8-.45-.81-.67-.04-.7-.57-.93-.95-1.28-.32-.3-.64-.58-.9-.82-.19-.22-.31-.33-.4-.47-.11-.15-.2-.37-.33-.53-.29-.32-.61-.6-.94-.93q-.43.06-.48-.42c-.02-.1-.06-.24-.12-.3-.62-.65-1.28-1.24-1.82-1.91-.6-.82-1.71-1.12-2.05-2.17-.03-.08-.14-.11-.2-.17-.44-.38-.86-.76-1.28-1.14-.16-.14-.31-.32-.44-.48-.14-.11-.17-.29-.26-.43-.31-.42-.75-.71-1.13-1.05-.25-.26-.48-.54-.63-.9-.18-.44-.83-.7-1.22-1.1-.33-.33-.92-.45-.93-1.07,0-.08-.18-.15-.37-.27.09.24.13.38.19.51-.08,0-.12,0-.17,0-.32-.48-.58-.98-.91-1.44-.39-.49-.81-.97-1.26-1.4-.44-.41-.96-.76-1.49-1.19l.11-.44-.18-.05c-.13.14-.29.27-.38.44-.3.51-.58,1.03-.84,1.56-.18.4-.55.79,0,1.28-.2,0-.39-.02-.7-.06.12.2.24.31.28.44.04.13.09.32.04.43-.27.59-.59,1.18-.85,1.7.11.23.22.38.33.55-.21.05-.42.09-.62.11.09.22.18.44.27.66-.19-.02-.36-.02-.58-.03-.03.04-.07.08-.13.14.1.08.18.15.24.23.03.06.05.11.07.19.03.08.05.19,0,.27-.16.33-.36.65-.57.99.16.16.28.27.41.4-.03.12-.03.21-.03.31-.21-.13-.45-.26-.66-.41-.03.12-.03.21-.05.31.09.12.19.22.25.36.05.11.03.25.07.39-.14-.04-.26-.04-.4-.08-.12-.03-.26-.04-.38-.05l-.04.14c.13.08.28.15.37.27.07.09.14.31.1.37-.45.52-.78,1.05-.19,1.8l-.74-.19c1.01.67.09,1.18-.12,1.74,0,.02-.01.05-.03.04-.31.44-.62.88.05,1.27.02.03,0,.1-.04.24-.28-.07-.54-.11-.95-.22.26.31.44.5.7.84-.39-.02-.63-.04-.9-.03q.52.45.15,1.17c.16.16.31.32.49.49-.03.04-.07.08-.08.13-.21-.05-.43-.13-.78-.22.11.25.19.39.23.55.04.13.13.28.07.39-.14.36-.32.68-.51,1.03-.23.43-.56.86.11,1.21,0,0-.02.07-.06.16-.11-.05-.21-.13-.33-.16s-.21-.03-.33-.04c.02.13.01.25.06.34.03.08.17.12.2.2.05.11.04.23.06.36-.12,0-.25.03-.36-.02-.14-.04-.28-.15-.42-.2-.03.04-.07.08-.11.14.12.1.25.19.34.31.07.09.1.2.14.31-.13.04-.24.09-.39.07s-.28-.07-.41-.13c-.02.07-.05.11-.06.16.13.08.29.12.38.24.1.1.21.25.22.4,0,.32-.04.65-.09,1.03-.09-.02-.31-.05-.51-.11-.01.05-.05.09-.06.13.14.21.29.39.44.6-.01.05-.05.09-.08.13l-.81-.21c.06.16.07.31.13.35.4.25.41.52.12.87-.3.39-.49.78-.02,1.13.05-.09.09-.17.14-.26.26.24.45.44.71.7.14-.36.25-.6.4-1,.23.72.6.84,1.14.56.26-.15.57-.3.86-.27.28.05.51.33.81.5.04-.26.05-.5.08-.72.33.23.64.66.85.61.78-.17,1.56-.44,2.45-.75.07.49,0,.91-.86.86.24.13.43.13.61.23.15.09.4.27.39.39,0,.51-.11,1-.17,1.55.32.11.61.23.99.37-.35.23-.63.43-.89.61.36.14.58.25.82.33-.24.16-.5.32-.87.54.29.1.5.15.68.25.2.1.51.33.5.35-.3.59.12.79.51.99-.31.14-.57.3-.82.43.01.05.02.13.02.2.32.11.63.21,1.04.36-.31.17-.54.3-.83.45.37.17.8.23.87.44.14.41.14.9.07,1.35-.08.42,0,.57.43.55.17,0,.33.13.49.2-.17.08-.34.16-.5.24-.14.09-.33.14-.61.26.46.22.77.34,1.19.55-.42.19-.61.29-.95.45.24.13.39.2.52.28.12.1.18.24.28.34-.14.06-.26.15-.42.19-.13.04-.28.05-.44.08,0,.08-.01.14,0,.2l1.22.31-.22.88.74.19c-.32.19-.56.37-.91.58.45.16.7.25,1.1.4-.45.23-.68.34-.98.49.43.23.89.35.98.59.13.35-.03.78-.06,1.19l-.02.07c-.04.36.06.55.45.53.15-.01.31.03.46.04.01.05.02.1.03.16-.28.13-.56.25-.91.41.33.23.56.39.88.59-.34.16-.56.27-.75.35.32.28.61.5.9.72-.24.09-.46.18-.76.3.02.03.06.06.07.09.07.09.18.17.28.24h.02c.17.1.29.2.38.35t.02.03c.18.15.34.31.46.51.07.12.12.2.2.3.09.05.17.09.29.12-.05.01-.09.05-.14.06-.31.14-.53.26-.75.35.22.2.42.2.54.29.14.11.32.3.33.45.06.55.01,1.11.11,1.68.07.41.26.8.41,1.28-.04.06-.2.22-.46.47.61.11.92.26.85.93-.06.53-.08,1.38.9,1.41.02,0,.02.1.02.2-.13.04-.27.1-.43.14-.16.03-.32.02-.5.02.05.11.1.2.14.31.26.14.5.27.76.41-.24.16-.46.35-.73.55l.42.11c.46.12,1.18.1,1.35.39.4.74.98.59,1.57.6.68.03,1.32.04,1.81.61.16-.13.29-.27.49-.47.16.34.3.57.46.9.24-.28.42-.48.67-.81,0,.76.31.99.9.89.28-.05.66-.1.9.03.24.11.4.47.6.74.14-.26.24-.46.32-.68.23.35.4.84.61.87.88.1,1.75.08,2.8.1.17.09-.49.96.41.79,0-.1.02-.17.04-.24.04-.16.13-.31.17-.47.11.15.19.32.3.45.14.13.29.3.45.36.65.16,1.47-.17,1.84.69.03.06.17.12.27.12.66.12,1.33.19,2.01.32.5.08,1.19.06,1.41.36.47.59.93.58,1.55.59.64,0,1.36-.12,1.77.57.34-.36.69-.96.73.11-.01.05.07.12.13.16.85.24,1.71.24,2.68.19-.13-.25-.23-.35-.21-.45.02-.17.13-.31.19-.47.11.25.22.5.3.74.03.06.01.15.02.23-.03.51.27.78.74.85,1,.11,2.01.22,2.79.32.37.29.56.61.82.65.99.15,1.98.23,2.96.34.17.02.35.09.5.15-.13.12-.24.26-.34.38l2.86.73c.02-.76.65-.03.98-.19.14-.06.38.07.56.12-.17.08-.34.16-.5.24-.05.01-.13.04-.21.05-.02.07,0,.12,0,.2.85.14,1.72.29,2.64.43.8.99,2.34.37,3.43,1.22Zm-48.14-66.78c-.06-.06-.02-.2.02-.27.03-.04.18-.03.24.01.22.18.43.35.73.6-.5.14-.77-.05-.99-.35Zm16.51,21.26v.02c-.05.06-.05.09-.09.13-.24-.11-.62.04-.73-.33.04-.06.06-.13.1-.2.24.13.45.26.69.37h.02Zm2.39-2.14c-.04.06-.06.13-.1.2-.28-.15-.56-.29-.82-.43-.04-.03-.07-.19-.03-.25.03-.04.19-.07.23-.04.25.16.5.35.73.53Zm-27.38,2.76s-.12.17-.2.22c-.05.01-.2-.08-.21-.13-.13-.38-.25-.75-.35-1.12.06-.06.14-.09.21-.14.19.39.4.76.56,1.18Zm20.1,31.32c.07.41.13.84.17,1.27-.01.05-.18.13-.28.13-.05.01-.17-.12-.18-.17,0-.39.03-.8.03-1.2.1,0,.18-.03.25-.03Z"/>
    </g>
  </g>
</svg>