<?xml version="1.0" encoding="UTF-8"?>
<svg id="Layer_2" data-name="Layer 2" xmlns="http://www.w3.org/2000/svg" viewBox="0 0 389.2 653.19">
  <defs>
    <style>
      .cls-1 {
        fill: #fff;
        stroke-width: 0px;
      }
    </style>
  </defs>
  <g id="Layer_1-2" data-name="Layer 1">
    <path class="cls-1" d="m194.74,394.94c-1.28-2.34-2.43-4.77-3.86-7.01-7.53-11.75-13.91-24.11-18.97-37.1-3.92-10.09-7.93-20.2-10.92-30.58-3.45-11.97-5.92-24.22-8.62-36.39-1.58-7.13-3.12-14.31-4.05-21.54-1.62-12.55-2.81-25.16-4.09-37.75-.62-6.11-1.09-12.24-1.55-18.36-.31-4.11-.65-8.23-.68-12.35-.1-11.81-.4-23.64.05-35.44.43-11.32,1.15-22.68,2.73-33.89,1.71-12.14,4.17-24.22,7.05-36.15,1.6-6.64,4.39-13.07,7.24-19.32,2.85-6.24,6.03-12.41,9.81-18.13,4.83-7.32,11.13-13.19,18.87-17.75,6.12-3.61,12.3-6.69,19.25-7.92,3.83-.68,7.79-.68,11.7-.9,2.77-.15,5.66-.66,8.3-.09,5.48,1.18,11,2.54,16.17,4.65,4.33,1.77,8.28,4.59,12.22,7.2,4.47,2.96,8.87,6.06,13.06,9.39,2.64,2.1,4.87,4.73,7.23,7.17,2.11,2.18,4.23,4.36,6.17,6.69,2.68,3.21,4.77,7.05,7.9,9.69,2.46,2.07,3.64,4.75,5.56,7.02,1.27,1.5,3.06,2.58,4.25,4.12,3.25,4.18,6.3,8.52,9.46,12.78,2.49,3.37,5.08,6.66,7.5,10.08,1.1,1.55,1.83,3.34,2.85,4.95,1.07,1.68,2.28,3.26,3.42,4.9,1.04,1.49,2.14,2.94,3.08,4.49,2.06,3.39,4.04,6.83,6.06,10.25.15.25.36.46.49.71,4.29,8.89,8.52,17.8,12.87,26.66,2.01,4.1,4.42,8.02,6.34,12.16,1.24,2.67,1.72,5.69,2.9,8.39,1.95,4.45,4.5,8.64,6.23,13.16,2.32,6.08,4.01,12.41,6.15,18.57,2.43,7.03,5.12,13.96,7.57,20.98,2.01,5.79,4.07,11.58,5.67,17.5,2.3,8.51,4.25,17.13,6.26,25.72.73,3.14,1.23,6.34,1.76,9.52.06.36-.32.79-1.26,1.38-1.02-2.48-2.18-4.91-3.03-7.44-4.71-14.02-9.34-28.06-14.02-42.09-1.31-3.91-2.64-7.82-4.09-11.68-1.59-4.2-3.21-8.4-5.03-12.5-3.74-8.43-7.41-16.89-11.51-25.15-3.37-6.78-7.27-13.29-11.03-19.87-2.99-5.24-5.9-10.56-9.25-15.57-3.35-5-6.96-9.87-10.89-14.43-7.06-8.2-14.21-16.34-21.74-24.1-11.8-12.15-26.07-21-40.67-29.36-6.12-3.5-12.61-3.12-19.07-2.25-7.61,1.02-14.74,3.86-20.76,8.6-4.18,3.29-8.18,7.1-11.33,11.36-4.24,5.73-7.87,11.96-11.21,18.28-2.35,4.44-3.78,9.37-5.62,14.08-.52,1.34-1.17,2.64-1.56,4.02-.44,1.57-.65,3.2-.96,4.8.27.14.55.27.82.41,3.43-2.21,6.62-5.06,10.35-6.51,7.09-2.75,14.46-4.77,21.77-6.92,2.27-.67,4.86-1.49,7.02-.99,5.36,1.23,11.05.57,16.18,3.26,2.5,1.31,5.53,1.58,8.25,2.51,4.57,1.56,9.41,2.73,13.54,5.09,3.44,1.96,7.03,3.65,10.37,5.71,4.03,2.49,7.6,5.71,11.41,8.56,2.58,1.93,5.42,3.54,7.8,5.69,3.2,2.89,6.06,6.16,9.08,9.25,1.57,1.61,3.25,3.12,4.74,4.79,3.45,3.86,6.96,7.68,10.19,11.73,2.87,3.61,5.66,7.34,7.96,11.32,1.41,2.42,2.3,4.89,4.54,6.98,2.11,1.97,2.92,5.29,4.41,7.96,1.1,1.97,2.46,3.79,3.55,5.76,1.34,2.41,2.49,4.93,3.76,7.38,1.64,3.16,3.55,6.2,4.96,9.46,2.6,6.07,4.86,12.28,7.38,18.39,2.35,5.7,5.27,11.19,7.18,17.03,3.71,11.3,6.89,22.77,10.3,34.17,1.15,3.84,2.51,7.63,3.44,11.53,1.47,6.13,2.6,12.35,3.99,18.5,1.75,7.74,3.95,15.4,5.32,23.21,1.26,7.14,1.64,14.43,2.47,21.65.35,3.03.94,6.04,1.23,9.08.46,4.83.74,9.69,1.13,14.53.27,3.34.76,6.66.85,10,.08,2.83-.28,5.67-.45,8.51-.04.67-.25,1.38-.11,2.01,1.47,6.59.1,13.17-.17,19.74-.23,5.6-1.32,11.17-1.99,16.75-.21,1.71-.13,3.46-.47,5.14-.37,1.81-1.07,3.55-1.95,5.32,2.41-85.02-14.98-164.58-63.67-236.37-2.03,3.23-.24,5.35.61,7.48,2.41,6.03,5.38,11.88,7.34,18.05,3.1,9.77,5.71,19.7,8.23,29.63,2.88,11.34,5.55,22.74,8.08,34.16,1.36,6.13,2.32,12.36,3.27,18.57.72,4.73.93,9.54,1.7,14.26.94,5.75,2.47,11.41,3.32,17.17.67,4.57.52,9.26,1.05,13.86.67,5.8,1.78,11.55,2.45,17.35.29,2.5-.25,5.1-.03,7.62.35,3.8,1.27,7.56,1.53,11.36.41,5.91.47,11.84.67,17.77.19,5.42.6,10.84.49,16.25-.15,7.44-.73,14.87-1.04,22.3-.12,2.96.56,6.06-.12,8.86-.96,3.93-.41,7.78-.66,11.65-.36,5.7-1.53,11.34-2.35,17.01-.56,3.86-.93,7.76-1.7,11.57-1.06,5.2-2.43,10.33-3.66,15.5-.87,3.7-1.55,7.45-2.62,11.09-1.12,3.81-2.59,7.52-3.96,11.26-.98,2.67-1.96,5.35-3.11,7.95-2.31,5.24-4.59,10.5-7.15,15.62-2.09,4.17-4.51,8.18-6.88,12.21-.87,1.48-1.95,2.86-3.05,4.18-4.01,4.84-8.17,9.56-12.1,14.46-7.74,9.66-17.55,16.82-28.02,23.07-13.14,7.84-26.97,13.34-42.82,13.24-9.26-.06-18.52.06-27.51-1.88-7.93-1.71-15.69-4.45-23.29-7.36-8.8-3.37-17.13-7.87-24.67-13.58-8.01-6.06-15.95-12.25-23.63-18.73-5.33-4.49-10.58-9.2-15.14-14.45-8.87-10.21-17.39-20.72-25.71-31.38-4.47-5.73-8.33-11.95-12.28-18.08-5.61-8.7-11.1-17.48-16.55-26.29-2.02-3.27-3.81-6.68-5.56-10.1-.33-.65.02-1.65.05-2.49.74.49,1.79.82,2.16,1.51,1.49,2.75,2.96,5.35,5.44,7.49,1.87,1.6,2.82,4.23,4.38,6.24,3.7,4.78,7.53,9.46,11.3,14.19,2.18,2.74,3.95,5.95,6.59,8.13,4.36,3.6,7.49,8.24,11.46,12.13,2.18,2.14,4.71,3.92,7.09,5.87.45.36.93.69,1.34,1.08,4.64,4.4,9.07,9.06,13.98,13.14,3.7,3.07,8.04,5.37,12.06,8.07,1.65,1.11,3.12,2.52,4.82,3.53,5.76,3.45,11.46,7.03,17.44,10.07,4.3,2.2,9.02,3.57,13.51,5.41,3.23,1.33,6.37,2.86,9.58,4.22.66.28,1.47.19,2.2.34,2.12.46,4.24.94,6.35,1.45.46.11.88.45,1.34.49,5.41.45,10.82.91,16.23,1.27,3.69.25,7.43.79,11.07.45,7.2-.68,14.78-.71,21.43-3.11,11.02-3.99,21.81-8.8,31.37-16.04,12.28-9.29,22.24-20.61,30.57-33.38,5.03-7.7,9.19-15.93,12.14-24.73,2.1-6.26,4.95-12.29,6.75-18.62,2.5-8.76,4.56-17.66,6.4-26.58,1.77-8.62,3.18-17.32,4.43-26.03.75-5.22.99-10.52,1.26-15.8.5-9.69.86-19.39,1.25-29.09.04-1.09-.11-2.19-.51-3.23-.78,4.37-1.46,8.76-2.35,13.1-.91,4.44-2.01,8.83-3.04,13.24-.09.37-.32.72-.34,1.1-.43,6.73-2.91,12.99-5,19.24-2.45,7.29-5.89,14.26-9.12,21.27-2.2,4.77-4.44,9.58-7.26,13.99-3.42,5.36-7.19,10.55-11.32,15.37-4.38,5.11-9.09,10.03-14.19,14.41-4.26,3.66-9.09,6.81-14.04,9.49-5.72,3.1-11.87,5.38-17.79,8.12-5.66,2.62-11.83,2.32-17.79,3.18-3.6.52-7.28.95-10.9.81-6-.24-11.98-.97-17.97-1.5-2.2-.19-4.49-.08-6.57-.68-9.12-2.63-18.29-5.18-27.23-8.34-5.57-1.97-10.96-4.65-16.08-7.6-11.99-6.92-22.98-15.17-33.11-24.7-10.61-9.99-20.35-20.74-29.06-32.33-7.42-9.88-13.85-20.51-20.62-30.86-9.65-14.76-17.31-30.6-24.68-46.55-5.11-11.05-9.7-22.35-14.41-33.58-1.67-3.98-2.92-8.12-4.55-12.12-.63-1.55-1.76-2.89-2.64-4.34-.29-.47-.87-1.11-.74-1.44,1.69-4.12-1.14-7.46-2.09-11.01-3.02-11.3-6.77-22.41-9.87-33.7-2.16-7.86-4.12-15.82-5.49-23.85-2.34-13.7-4.13-27.5-6.17-41.26-.36-2.46-.91-4.9-1.14-7.37-.83-9.17-1.84-18.33-2.26-27.52-.61-13.6-1.3-27.24-.99-40.84.36-16.03,1.68-32.06,5.42-47.74,2.36-9.88,4.59-19.81,7.54-29.52,4.29-14.13,10.53-27.52,18.74-39.75,5.8-8.64,12.54-16.75,19.64-24.37,5.16-5.54,11.58-9.92,17.5-14.75,2.15-1.76,4.47-3.31,6.71-4.96.27.26.54.52.81.78-1.79,2.74-3.6,5.46-5.37,8.21-5.43,8.42-10.82,16.86-14.5,26.27-1.76,4.5-4.13,8.77-6,13.23-1.33,3.18-2.29,6.51-3.38,9.78-1.4,4.17-2.93,8.3-4.1,12.54-.94,3.4-1.41,6.93-2.1,10.41-1.05,5.29-2.24,10.56-3.12,15.88-.72,4.34-1.05,8.75-1.61,13.12-.37,2.84-.85,5.67-1.26,8.5-.14.95-.29,1.91-.3,2.86-.06,7.47-.1,14.94-.12,22.41-.01,7.65-.1,15.31.07,22.96.07,3.25.87,6.48,1.09,9.73.31,4.45.31,8.93.61,13.39.15,2.28.74,4.53,1.03,6.81,1.1,8.73,1.83,17.52,3.33,26.18,1.61,9.26,3.72,18.44,5.99,27.56,2.97,11.92,6.25,23.78,9.53,35.62,2.25,8.13,4.56,16.26,7.2,24.27,1.5,4.53,3.88,8.76,5.59,13.24,2.66,6.98,5.01,14.09,7.67,21.07.73,1.92,2.29,3.51,3.11,5.4,1.79,4.13,3.21,8.42,5.04,12.53,1.09,2.45,2.76,4.64,4.01,7.03,1.37,2.63,2.5,5.39,3.84,8.03,1.23,2.43,2.61,4.79,3.94,7.16.8,1.42,1.63,2.83,2.46,4.24,2.02,3.43,4.06,6.84,6.06,10.28.96,1.66,1.78,3.4,2.76,5.05,1.16,1.95,2.42,3.83,3.62,5.75,1.12,1.78,2.17,3.59,3.34,5.34,1.05,1.58,2.22,3.07,3.31,4.63,1.91,2.74,3.66,5.59,5.72,8.21,2.66,3.39,5.56,6.58,8.34,9.87,2.43,2.89,4.76,5.87,7.26,8.69,1.28,1.45,2.87,2.63,4.31,3.94,1.85,1.69,3.74,3.33,5.53,5.09,2.5,2.47,4.76,5.21,7.42,7.48,2.7,2.31,5.76,4.2,8.66,6.27,2.45,1.75,4.84,3.58,7.35,5.23,2.09,1.37,4.27,2.65,6.51,3.76,3.69,1.83,7.37,3.73,11.22,5.16,5.6,2.07,11.29,3.92,17.03,5.54,4.19,1.18,8.49,2.22,12.81,2.68,9.61,1.02,19.17,1.08,28.82-.63,8-1.42,15.5-4.14,22.36-7.96,6.19-3.45,11.61-8.46,16.92-13.26,7.97-7.21,13.85-16.17,18.66-25.65,3.94-7.77,7.07-15.99,10.13-24.17,4.66-12.47,7.39-25.46,9.13-38.62,1.19-9.04,1.83-18.15,2.51-27.24.1-1.31-.96-2.72-1.68-4.58,2.5-3.09,1.35-7.41,1.02-11.48-.71-8.9-1.74-17.77-2.72-26.65-.17-1.51-.69-2.98-1.09-4.46-2.41-8.87-4.71-17.77-7.29-26.6-1.29-4.42-2.9-8.77-4.73-12.99-3.65-8.42-7.01-17.04-11.47-25.02-5.73-10.22-11.11-20.65-19.59-29.25-8.91-9.04-18.45-16.64-30.5-20.89-18.07-6.36-37.17-.97-48.76,13.03-5.4,6.52-9.06,13.78-11.15,21.95-1.05,4.12-2.97,8.07-3.65,12.23-.86,5.26-.96,10.67-1.19,16.02-.35,8.12-.89,16.25-.64,24.36.18,5.82,1.33,11.64,2.37,17.41,1.3,7.24,2.71,14.48,4.5,21.61,1.04,4.13,2.99,8.01,4.4,12.05,2.17,6.25,3.94,12.65,6.41,18.77,1.74,4.31,4.36,8.26,6.56,12.39.44.84.62,1.83,1.11,2.62,1.18,1.9,2.56,3.67,3.69,5.59,1.45,2.47,2.64,5.08,4.1,7.55.69,1.16,1.72,2.12,2.62,3.15.25.28.65.42.9.71,2.11,2.43,4.36,4.92,6.23,7.34,4.05,5.25,9.58,8.57,14.19,13,2.42,2.32,6.22,3.25,9.45,4.66,2.85,1.24,5.75,2.37,8.68,3.39,1.12.39,2.4.57,3.58.49,6.23-.4,12.62,1.58,18.7-.91,6.16-2.52,11.77-5.93,16.3-10.94,7.55-8.35,11.6-18.44,14.67-29.05.18-.63.36-1.25.63-2.18,1.72,1.12,2.21,2.28,1.82,4.17-1.08,5.22-1.79,10.52-2.97,15.72-1.12,4.93-2.47,9.83-4.07,14.63-1.47,4.39-3,8.86-5.25,12.87-2.5,4.45-5.56,8.68-8.93,12.51-2.93,3.33-6.53,6.12-10.05,8.88-5.12,4.01-11.32,5.61-17.51,7.01-6.54,1.48-13.07,3.33-19.71,3.94-6.32.59-12.77,0-19.14-.46-5.43-.4-11.01-.72-16.19-2.23-7.78-2.27-15.33-5.4-22.84-8.48-3.88-1.59-7.54-3.77-11.18-5.87-1.38-.8-2.46-2.12-3.68-3.2-6.67-5.92-13.6-11.57-19.91-17.85-5.35-5.33-10.23-11.19-14.84-17.19-3.38-4.39-6.15-9.28-8.9-14.11-5.08-8.92-10.49-17.71-14.75-27.01-5.39-11.77-10.19-23.85-14.46-36.06-3.79-10.85-6.83-21.99-9.63-33.14-2.63-10.49-4.84-21.12-6.6-31.79-1.39-8.42-1.99-16.99-2.62-25.51-.6-8.24-1.23-16.52-1.04-24.76.21-9.38,1.05-18.77,2.1-28.1,1-8.86,1.97-17.82,4.16-26.43,2.58-10.11,6-20.07,9.92-29.75,3.22-7.96,7.64-15.44,11.64-23.08,1.19-2.28,2.72-4.4,4.17-6.54.38-.56,1.06-.9,1.6-1.35.27.75.93,1.61.75,2.22-.7,2.38-1.73,4.66-2.51,7.02-1.33,4.03-2.63,8.06-3.81,12.13-1.28,4.41-2.51,8.85-3.57,13.31-.73,3.06-1.21,6.19-1.68,9.31-.76,5-1.4,10.02-2.15,15.03-.27,1.79-.93,3.53-1.04,5.32-.25,3.91-.27,7.83-.38,11.75-.27,9.16-.24,18.31-.09,27.48.18,10.84,2.15,21.35,3.19,32.02,1.07,11.06,3.23,21.87,6.3,32.56,3.3,11.51,6.11,23.16,9.36,34.69.89,3.16,2.63,6.08,3.94,9.12,1.86,4.32,3.66,8.66,5.54,12.97,1.25,2.86,2.56,5.7,3.89,8.53,2.2,4.67,4.39,9.34,6.68,13.96.48.96,1.43,1.68,2.06,2.58,1.09,1.55,2.22,3.1,3.09,4.77,1.26,2.42,1.65,5.38,4.47,6.78.3.15.47.6.65.94,2.12,4.08,4.51,7.9,7.76,11.28,3.1,3.22,5.35,7.25,8.29,10.65,2.58,2.98,5.53,5.65,8.43,8.33,3.24,2.98,6.63,5.79,9.9,8.74.7.63,1.07,1.63,1.76,2.26,2.55,2.33,5.18,4.57,7.78,6.84.18-.15.35-.29.53-.44Z"/>
  </g>
</svg>