<?xml version="1.0" encoding="UTF-8"?>
<svg id="Layer_2" data-name="Layer 2" xmlns="http://www.w3.org/2000/svg" viewBox="0 0 121.96 121.96">
  <defs>
    <style>
      .cls-1 {
        fill: #fff;
        stroke-width: 0px;
      }
    </style>
  </defs>
  <g id="Layer_1-2" data-name="Layer 1">
    <g>
      <g id="_Radial_Repeat_" data-name="&amp;lt;Radial Repeat&amp;gt;">
        <path class="cls-1" d="m88.1,84.67c.37-.24.72-.53,1.1-.77.22-.15.55-.42.76-.36.71.18,1.04-.32,1.52-.63.47-.31.99-.54,1.51-.84,0,0-.04-.12-.14-.39.81.43,1.29,0,1.77-.44.28-.29.71-.75.97-.68.75.19,1.16-.31,1.66-.62.4-.24.79-.48,1.14-.7.29-.13.44-.21.61-.27.22-.08.46-.09.68-.2.42-.21.84-.45,1.28-.69q.08-.5.6-.42c.12.03.26.02.36-.03.89-.45,1.71-1,2.63-1.32.98-.4,1.63-1.38,2.74-1.51.05-.02.12-.04.19-.04.1,0,.17-.11.25-.18.54-.33,1.09-.68,1.63-1,.2-.11.42-.21.64-.32.15-.11.36-.07.53-.14.93-.33,1.57-1.15,2.63-1.28.55-.06,1.02-.66,1.56-.96.44-.26.77-.84,1.45-.65.07.03.18-.16.38-.31-.29,0-.43.02-.58.04,0-.07,0-.14.04-.19.61-.18,1.21-.31,1.8-.54.66-.25,1.3-.54,1.89-.89.59-.35,1.12-.77,1.74-1.21.09.05.25.13.44.24.03-.07.08-.14.11-.21-.11-.17-.19-.37-.35-.52-.45-.48-.92-.94-1.4-1.37-.36-.31-.69-.83-1.36-.41.06-.19.14-.4.28-.75-.27.08-.42.17-.58.18-.14.02-.36,0-.47-.1-.55-.46-1.04-.97-1.54-1.43-.27.06-.46.12-.68.17.04-.24.05-.47.07-.71-.26.03-.53.06-.79.1.11-.26.2-.54.34-.93-.25.15-.37.29-.54.33-.15.04-.41.02-.52-.05-.32-.28-.58-.61-.88-.91-.22.11-.39.19-.54.3-.12-.05-.23-.09-.35-.14.23-.18.43-.38.65-.56-.09-.05-.21-.08-.3-.14-.15.04-.29.13-.44.14s-.31-.04-.45-.05c.06-.14.13-.25.19-.39.05-.12.13-.25.19-.37-.04-.05-.09-.08-.14-.1-.15.11-.25.27-.43.33-.12.04-.36.05-.4-.02-.44-.62-.89-1.17-1.86-.75.16-.23.29-.48.43-.74-.28.25-.5.33-.69.32-.5,0-.75-.69-1.14-.97-.02-.03-.02-.05-.04-.05-.35-.47-.71-.92-1.36-.37-.05,0-.12-.03-.23-.09.16-.28.29-.53.53-.95-.42.17-.66.3-1.1.48.14-.42.21-.68.32-.96q-.67.39-1.3-.22c-.22.13-.44.24-.67.37l-.11-.13c.13-.21.26-.41.47-.74-.31.03-.48.07-.67.06-.14.02-.34.03-.43-.05-.34-.26-.64-.56-.95-.87-.38-.38-.74-.88-1.32-.24,0,0-.07-.05-.14-.1.1-.11.2-.2.28-.32.05-.12.09-.23.14-.35-.12-.03-.26-.06-.38-.05-.1.02-.18.16-.27.15-.12.02-.26-.04-.4-.05.06-.14.06-.28.12-.37.11-.16.25-.27.38-.38-.04-.05-.09-.1-.13-.15-.15.09-.27.2-.42.26-.12.04-.26.03-.41.05.03-.14.02-.29.05-.43.06-.14.18-.28.29-.41-.07-.03-.11-.08-.16-.13-.13.14-.23.27-.35.34-.15.09-.34.15-.51.11-.35-.09-.68-.25-1.07-.4.05-.12.16-.32.27-.53-.05-.03-.09-.08-.11-.1-.27.08-.54.18-.78.29-.04-.05-.09-.08-.11-.13.13-.23.27-.49.45-.81-.19.01-.33-.02-.41.02-.38.36-.68.27-.97-.13-.33-.47-.71-.83-1.32-.29-.03.05-.17-.03-.38-.07.26-.32.46-.55.64-.77-.21-.06-.33,0-.46.04-.19.06-.36.1-.53.16.06-.19.09-.38.15-.56.06-.14.09-.26.2-.56-.4.26-.63.51-.84.5-.41,0-.83-.17-1.27-.29.1-.14.23-.32.49-.69-.34.08-.51.11-.68.13-.15.04-.37.12-.43.07-.27-.23-.52-.51-.77-.76-.29-.28-.59-.58-.93-.77-.12-.05-.39.17-.61.27-.02,0-.05-.03-.09-.05.02.41.05.81-.13.97-.63.56-.38,1.1-.24,1.68.13.65.26,1.3-.21,1.9.18.11.35.21.55.37-.28.22-.48.4-.75.65.32.16.56.3.93.48-.75.17-.89.52-.66,1.06.1.29.23.63.14.89-.06.28-.36.48-.57.75.26.06.49.12.7.18-.2.23-.53.45-.63.63-.05.04-.05.09-.06.14.07.86.28,1.73.48,2.75-.06.21-1.03-.28-.65.58.1-.02.15-.04.22-.03l.5.1c-.13.11-.25.22-.36.36-.1.16-.24.34-.25.53-.04.67.47,1.39-.28,1.94-.05.04-.08.19-.06.28.03.67.09,1.34.12,2.01.04.5.22,1.18-.02,1.48-.51.57-.37,1.03-.24,1.63.13.63.4,1.29-.2,1.85.42.24,1.09.47.05.74-.05,0-.1.09-.11.16-.08.88.11,1.72.39,2.65.2-.16.3-.29.37-.29.17-.01.33.07.5.1-.2.16-.42.31-.65.44-.07.04-.15.06-.22.06-.51.09-.72.43-.67.91.03.22.04.46.08.67.07.77.15,1.51.23,2.14-.22.42-.49.69-.49.95.06.98.22,1.97.33,2.95.01.17-.02.33-.03.5-.16-.08-.32-.16-.44-.24-.03.93-.07,1.93-.1,2.95.31-.05.38.07.39.24.1,0,.17-.01.22-.06Zm2.8-31.38c0-.07.08-.19.16-.21.39-.1.77-.15,1.16-.22.04.07.06.15.11.22-.41.14-.81.31-1.22.43-.07,0-.16-.15-.2-.23Zm26.81,15.18s-.04.19-.09.23c-.25.2-.52.37-.9.62.01-.6.31-.82.72-.96.07-.02.21.04.26.11Zm-28.24,10.75c.18-.23.16-.66.59-.66.07.05.11.1.18.15-.23.2-.43.4-.63.63-.04-.05-.09-.08-.14-.13Zm1.51,3.19c.23-.25.46-.52.71-.75.05-.04.22-.01.26.04.04.05.03.22-.02.26-.25.22-.52.4-.8.6-.04-.05-.09-.1-.16-.15Z"/>
        <path class="cls-1" d="m34.59,92.79c.23-.23.51-.61.65-.58.65.23.99-.13,1.36-.8.14.49.22.78.3,1.02.25-.18.47-.33.7-.48.03.29.04.6.08,1.13.23-.3.34-.51.51-.64s.42-.31.59-.25c.8.19,1.55.45,2.39.69.03-.86.36-.79.98-.49.53.29,1.19.38,1.81.54.07.03.19-.01.24-.06.23-.23.43-.45.64-.68.08.29.18.56.3,1.02.23-1.01.74-.84,1.35-.59.61.25,1.18.31,1.39-.56,0,0,.07-.02.24-.06,0,.36,0,.67,0,.84,1.84-2.85,3.73-5.77,5.67-8.73-.02-.05-.11-.22-.11-.22.38-.41.73-.7.99-1.04.75-.98,1.22-2.12,2.02-3.08.51-.64.85-1.43,1.3-2.19.31-.44.7-.89,1.04-1.37.26-.39.39-1,.74-1.15.73-.29.94-.9,1.26-1.48.08-.14.25-.25.48-.43.07.41.1.65.12.79.37-.15.7-.46.91-.4.63.2,1.21.5,1.72.03.15-.11.25-.27.39-.5,0,.31,0,.52-.02.76.02.12,0,.26,0,.43.3-.22.5-.38.75-.53.08-.09.2-.16.3-.24-.01.19,0,.33.02.48-.01.21,0,.41,0,.67.15-.18.23-.32.31-.41.03-.02.05-.04.08-.07.22-.13.47-.28.68-.27.69.06,1.42.66,2-.31.07.39.1.65.16.87.3-.24.56-.59.77-.57.57.06,1.16.21,1.67.43.56.25.98.37,1.21-.36.03-.07.22-.11.42-.19-.04.24-.07.35-.05.5.01.17.05.36.06.55.13-.14.23-.27.35-.34.2-.13.45-.31.64-.27.68.16,1.34.41,2.02.6.17.03.37-.17.54-.28.17-.11.33-.27.65-.51-.1.5-.16.73-.2.97.05.03.12.05.19.08.1-.14.18-.3.33-.39.17-.11.4-.26.59-.23.61.13,1.25.31,1.85.51.33.09.52.1.68-.25.05-.12.25-.15.39-.22.04.15.08.29.09.44.02.12,0,.24.03.38.41-.41.72-.91,1.4-.63-.03-.22-.04-.46-.08-.67-.04-.48.17-.83.67-.91.07,0,.14-.02.22-.06.22-.13.45-.28.65-.44-.17-.03-.33-.11-.5-.1-.07,0-.17.13-.37.29-.28-.92-.47-1.77-.39-2.65,0-.07.06-.16.11-.16,1.04-.27.36-.5-.05-.74.61-.56.33-1.22.2-1.85-.13-.6-.27-1.07.24-1.63.23-.3.06-.97.02-1.48-.03-.67-.09-1.34-.12-2.01-.02-.1.01-.24.06-.28.75-.55.24-1.27.28-1.94.01-.19.14-.37.25-.53.1-.14.23-.25.36-.36l-.5-.1c-.07,0-.12.02-.22.03-.38-.86.59-.37.65-.58-.2-1.01-.41-1.89-.48-2.75,0-.05,0-.1.06-.14-.59-.08-1.26-.12-.89-1.13-.2.18-.28.37-.41.5s-.38.31-.49.26c-.47-.15-.93-.39-1.42-.63-.21.27-.39.5-.65.84-.14-.41-.24-.73-.34-1.05-.23.3-.39.48-.54.68-.08-.29-.16-.56-.28-.99-.18.25-.26.44-.42.57-.15.16-.45.38-.5.38-.45-.46-.78-.14-1.09.2-.05-.34-.11-.63-.16-.92-.07,0-.14-.03-.21-.06-.18.28-.39.55-.65.89-.08-.34-.13-.63-.18-.92-.28.29-.47.69-.69.7-.43,0-.9-.15-1.29-.36-.39-.19-.56-.15-.68.27-.03.14-.21.27-.31.41-.04-.19-.07-.39-.09-.55-.04-.19-.03-.36-.06-.67-.36.38-.56.61-.89.97-.04-.46-.08-.7-.13-1.03-.2.18-.3.32-.43.4-.12.06-.29.1-.42.17-.01-.17-.05-.31-.04-.46-.02-.14.02-.31.05-.45-.07-.03-.14-.03-.21-.06-.21.35-.45.71-.66,1.08-.3-.18-.51-.32-.76-.47-.13.23-.26.41-.4.64-.1-.36-.18-.65-.3-1.04-.28.37-.44.59-.7.94-.03-.24-.07-.41-.11-.58-.01-.19-.03-.34-.07-.5-.35.31-.59.73-.86.76-.36,0-.75-.28-1.12-.45-.02,0-.05,0-.07-.03-.32-.16-.54-.1-.64.3-.03.14-.11.26-.17.4h-.17c-.03-.3-.06-.61-.11-.99-.32.24-.55.42-.85.67-.05-.38-.08-.63-.1-.82-.37.22-.64.42-.94.61-.03-.34-.06-.67-.1-1.2-.35.65-.71,1.15-1.46.82-.02,0-.16.21-.23.32-.1.11-.2.2-.36.38-.07-.39-.1-.67-.13-.96-.25.15-.31.34-.43.43-.15.11-.37.22-.54.18-.54-.1-1.08-.33-1.62-.41-.4-.07-.86,0-1.36.02-.02-.05-.15-.27-.3-.57-.29.53-.52.78-1.13.51-.49-.2-1.31-.51-1.65.43,0,.02-.07,0-.17,0-.01-.17-.03-.31,0-.48,0-.17.07-.31.1-.47-.1.02-.22.03-.31.05-.2.18-.43.38-.63.58-.08-.27-.18-.54-.31-.88-.08.16-.16.25-.21.37-.26.41-.47,1.09-.78,1.17-.84.17-.88.76-1.06,1.32-.2.63-.43,1.26-1.12,1.56.09.17.17.34.3.59-.36.05-.65.1-.99.18.2.32.33.52.57.89-.75-.24-1.05-.01-1.13.58-.04.31-.11.66-.31.84-.18.2-.54.25-.88.38.2.18.39.33.54.49-.39.12-.91.14-1,.35-.38.79-.6,1.64-.94,2.62-.15.13-.77-.76-.87.16.09.03.16.06.21.11.14.1.25.21.39.31-.17.04-.34.08-.51.14-.17.09-.37.19-.47.33-.34.58-.28,1.44-1.21,1.55-.07.02-.15.11-.2.2-.3.6-.57,1.23-.9,1.83-.22.44-.4,1.12-.77,1.24-.71.24-.83.71-1.03,1.3-.18.61-.27,1.32-1.09,1.51.26.42.73.93-.3.65-.05,0-.15.04-.2.08-.5.73-.76,1.55-.98,2.5.26-.03.41-.1.48-.07.14.08.25.23.38.36-.26,0-.53.04-.79.05-.07,0-.14-.03-.21-.06-.49-.17-.84.02-1.05.46-.41.91-.8,1.84-1.13,2.58-.4.24-.76.34-.89.57-.43.88-.8,1.81-1.21,2.72-.06.16-.18.3-.26.44-.11-.15-.2-.3-.28-.45-.48.78-1,1.64-1.56,2.53.7.23-.16.61-.1.97.04.15-.16.35-.27.51-.04-.19-.05-.36-.09-.55v-.24c-.06,0-.1-.03-.15-.03-.4.76-.81,1.55-1.21,2.36-1.22.5-1.06,2.16-2.2,2.92.46.24.95.53,1.42.56.29.02.62-.39.99-.68l-.06,1.07c.32-.22.44-.59.64-.65.27-.1.62.04.95.1.17,0,.38.05.52.15.35.19.59.18.71-.24.03-.12.11-.21.21-.35.12.37.22.66.33.95.07-.02.12-.04.19-.06.11-.21.19-.42.38-.81.14.51.21.85.35,1.36q.39-1,1.59-.74c.73.14.15.68.3,1Zm14.14-32.62s-.06-.19-.03-.29c0-.07.15-.13.22-.11.37.12.75.26,1.12.38-.03.09-.03.17-.04.26-.43-.07-.85-.15-1.27-.24Z"/>
      </g>
      <g id="_Radial_Repeat_-2" data-name="&amp;lt;Radial Repeat&amp;gt;">
        <path class="cls-1" d="m26.91,72.62c.02.44.1.89.12,1.33.02.27.09.69-.07.84-.51.52-.25,1.07-.22,1.63.03.56-.03,1.12-.02,1.72,0,0,.13.03.41.07-.78.49-.65,1.11-.5,1.75.11.39.29.99.11,1.18-.54.56-.31,1.16-.29,1.75,0,.46.02.92.03,1.33-.04.32-.04.49-.07.67-.04.23-.15.44-.17.69-.02.47-.03.95-.04,1.45q.39.31.06.73c-.09.09-.14.22-.16.32-.05.99.01,1.98-.17,2.94-.15,1.04.38,2.11-.06,3.13,0,.05-.03.13-.07.19-.05.08,0,.2.03.3.01.63.04,1.28.05,1.92,0,.22-.02.47-.04.71.02.18-.12.35-.15.53-.18.97.21,1.93-.21,2.91-.22.51.06,1.21.05,1.83,0,.52.34,1.08-.16,1.58-.06.05.05.23.08.48.14-.25.2-.38.25-.52.06.04.12.08.15.12-.15.62-.34,1.2-.43,1.83-.12.69-.18,1.4-.17,2.08,0,.69.11,1.35.18,2.11-.09.05-.24.15-.43.26.05.06.08.14.13.2.2,0,.42.02.63-.04.64-.15,1.27-.33,1.89-.53.45-.16,1.06-.18,1.04-.97.13.14.27.32.51.62.06-.27.06-.44.14-.6.06-.13.18-.31.32-.36.67-.24,1.36-.42,2.01-.62.08-.26.13-.46.19-.67.19.15.38.28.58.41.1-.25.21-.49.31-.74.17.22.37.44.64.76,0-.29-.06-.47-.01-.63.04-.15.18-.36.31-.42.4-.13.82-.2,1.23-.3.02-.24.03-.44,0-.62.11-.07.19-.16.3-.23.04.28.12.56.16.84.09-.05.18-.14.27-.19.04-.15.04-.32.1-.45s.19-.25.27-.36c.09.12.15.24.25.36.07.11.15.24.23.35.07-.01.11-.04.16-.07-.02-.18-.11-.36-.08-.53.03-.13.14-.34.22-.34.76-.07,1.46-.18,1.59-1.24.12.25.27.49.43.74-.07-.36-.04-.59.07-.75.26-.43.97-.3,1.41-.5.03,0,.05,0,.07-.01.59-.07,1.16-.15,1-1,.03-.04.09-.09.19-.16.16.28.31.52.55.94.06-.44.08-.72.13-1.2.29.34.49.52.67.76q0-.77.84-1.02c0-.26.02-.5.02-.76l.16-.03c.11.22.23.43.4.78.13-.28.18-.45.29-.61.06-.13.14-.3.26-.34.4-.17.8-.27,1.23-.39.52-.14,1.13-.2.87-1.02,0,0,.08-.03.16-.07.05.15.07.28.13.4.07.11.16.19.23.3.09-.09.18-.19.23-.31.03-.09-.05-.23,0-.31.05-.11.16-.21.24-.33.09.12.21.2.27.29.09.17.11.36.14.52.07-.01.13-.03.2-.04,0-.17-.03-.34-.02-.5.03-.13.1-.25.16-.38.11.1.24.16.34.26.09.12.15.3.21.45.06-.05.13-.06.19-.07-.05-.18-.12-.34-.12-.48,0-.17.04-.37.16-.5.26-.26.56-.46.88-.73.07.11.2.3.33.5.05-.03.11-.04.15-.05.06-.27.11-.56.14-.82.07-.01.11-.04.17-.03.13.23.29.47.47.8.08-.17.18-.28.18-.36-.12-.51.11-.73.6-.78.57-.05,1.08-.2.91-1-.03-.05.11-.13.25-.29.15.38.24.67.35.94.16-.15.16-.29.19-.42.05-.2.1-.36.13-.54.13.14.28.27.41.41.09.12.18.2.39.45-.03-.48-.13-.8-.01-.98.2-.35.56-.63.89-.96.07.16.16.36.35.77.1-.33.16-.5.23-.65.04-.15.08-.38.16-.41.34-.12.7-.2,1.04-.28.39-.11.8-.22,1.13-.42.11-.07.05-.42.07-.67.01-.02.05-.03.09-.05-.36-.18-.73-.37-.78-.6-.17-.82-.76-.87-1.33-1.05-.63-.21-1.26-.43-1.54-1.13-.18.11-.36.19-.59.29-.05-.35-.11-.61-.18-.98-.3.2-.53.33-.88.56.23-.73,0-1.03-.59-1.1-.3-.06-.66-.12-.84-.33-.21-.2-.23-.55-.37-.87-.18.19-.35.37-.51.52-.09-.29-.12-.68-.23-.86-.01-.07-.05-.09-.09-.12-.78-.37-1.64-.63-2.62-.96-.15-.16.76-.76-.18-.86-.03.09-.04.15-.08.21l-.33.38c-.03-.17-.07-.33-.13-.49-.09-.17-.18-.38-.34-.48-.56-.37-1.44-.29-1.54-1.21-.01-.07-.12-.16-.21-.2-.6-.31-1.21-.59-1.8-.9-.46-.22-1.13-.4-1.27-.75-.24-.73-.7-.84-1.29-1.02-.61-.2-1.32-.3-1.5-1.1-.41.24-.95.71-.67-.33.03-.04-.03-.13-.09-.17-.72-.5-1.55-.76-2.49-.98.03.25.1.41.06.47-.07.15-.22.25-.33.38-.03-.25-.06-.52-.06-.78,0-.09.02-.16.06-.22.18-.48-.02-.84-.46-1.04-.21-.08-.42-.19-.62-.27-.7-.32-1.38-.63-1.97-.87-.25-.39-.35-.77-.58-.9-.88-.44-1.81-.8-2.72-1.19-.15-.07-.28-.18-.42-.28.15-.1.3-.2.43-.26-.79-.49-1.64-1.02-2.51-1.57-.11.3-.25.29-.4.22-.05.08-.07.15-.06.22Zm25.78,18.12c.06.04.12.16.1.24-.11.38-.26.74-.39,1.11-.09,0-.16-.02-.24-.02.08-.43.13-.85.24-1.27.04-.06.21-.06.3-.06Zm-26.55,15.63c-.05,0-.15-.12-.16-.19-.05-.32-.06-.64-.09-1.08.51.31.55.68.47,1.11-.02.07-.14.17-.22.17Zm4.82-29.83c.11.27.49.47.28.84-.08.03-.15.05-.22.08-.06-.3-.14-.57-.23-.86.07-.01.11-.04.18-.05Zm-3.52-.29c.1.32.22.66.29.99.01.07-.1.19-.16.21-.07.01-.21-.08-.22-.14-.07-.33-.08-.65-.12-.99.07-.01.13-.03.21-.06Z"/>
        <path class="cls-1" d="m46.63,22.22c.08.31.27.75.18.86-.53.45-.38.92.02,1.58-.49-.12-.78-.2-1.03-.25.03.3.05.57.07.85-.26-.12-.54-.27-1.01-.5.14.35.27.55.3.76s.06.52-.08.63c-.56.6-1.16,1.12-1.79,1.73.73.45.51.7-.07,1.1-.52.31-.93.84-1.37,1.3-.06.05-.08.17-.07.24.08.31.18.6.27.89-.29-.08-.58-.12-1.03-.25.76.7.36,1.06-.16,1.46-.52.4-.85.86-.21,1.49,0,0-.02.07-.07.24-.31-.18-.58-.33-.72-.42,1.55,3.02,3.13,6.11,4.73,9.28.05,0,.24.02.24.02.16.53.24.98.4,1.38.48,1.14,1.23,2.12,1.66,3.29.29.76.81,1.45,1.25,2.22.22.49.42,1.05.67,1.58.21.42.67.84.63,1.21-.11.78.31,1.26.65,1.83.08.14.09.34.13.63-.39-.14-.62-.23-.75-.29-.06.39.05.83-.11.99-.49.45-1.04.8-.88,1.47.02.18.11.36.24.59-.27-.15-.45-.27-.65-.4-.11-.05-.23-.12-.37-.22.04.37.08.62.08.91.04.11.03.25.06.38-.16-.1-.29-.16-.42-.22-.18-.12-.35-.2-.58-.33.08.22.16.36.2.47,0,.03.01.07.02.1,0,.26,0,.55-.11.73-.4.56-1.28.9-.73,1.89-.37-.13-.62-.23-.83-.29.06.38.23.78.11.96-.33.46-.76.9-1.21,1.23-.49.36-.81.67-.3,1.23.05.06-.02.24-.04.46-.19-.15-.27-.24-.4-.3-.15-.07-.34-.14-.51-.22.05.18.12.34.11.48.01.24.04.54-.08.69-.48.51-1.03.95-1.52,1.45-.11.13-.04.4-.03.61,0,.2.07.42.12.82-.38-.33-.55-.51-.74-.66-.05.03-.11.07-.16.12.07.16.17.31.17.48,0,.2.03.48-.1.62-.42.46-.89.92-1.37,1.35-.24.24-.35.4-.13.71.07.11,0,.29-.01.45-.15-.04-.29-.08-.42-.14-.11-.05-.21-.11-.34-.17.15.55.43,1.08-.15,1.53.21.08.42.19.62.27.44.2.63.56.46,1.04-.04.06-.06.13-.06.22,0,.26.02.53.06.78.11-.13.26-.23.33-.38.04-.06-.03-.22-.06-.47.94.22,1.77.48,2.49.98.06.04.11.13.09.17-.29,1.04.25.57.67.33.18.81.89.9,1.5,1.1.59.19,1.06.3,1.29,1.02.14.35.82.54,1.27.75.6.31,1.21.59,1.8.9.09.03.2.13.21.2.1.92.98.85,1.54,1.21.16.1.25.31.34.48.07.16.1.32.13.49l.33-.38c.04-.06.05-.11.08-.21.93.1.02.7.18.86.98.33,1.84.58,2.62.96.04.03.08.05.09.12.37-.47.73-1.03,1.42-.21-.05-.26-.17-.43-.23-.61s-.08-.48.02-.56c.36-.33.8-.61,1.26-.91-.13-.32-.24-.59-.41-.98.43.08.75.15,1.08.23-.14-.35-.22-.57-.32-.81.29.08.56.14,1,.26-.13-.28-.25-.45-.29-.65-.06-.21-.1-.58-.08-.62.62-.16.51-.6.37-1.04.32.12.6.22.87.32.04-.06.1-.11.16-.15-.15-.3-.28-.61-.45-1.01.33.1.61.2.89.3-.11-.39-.36-.75-.26-.94.22-.37.58-.7.96-.94.36-.25.41-.41.11-.73-.11-.1-.13-.32-.2-.47.19.07.37.13.52.2.19.07.32.16.61.29-.15-.5-.25-.79-.4-1.26.42.19.64.28.96.4-.05-.26-.12-.42-.14-.57,0-.14.06-.3.06-.44.15.07.3.11.42.19.13.06.26.17.36.27.06-.05.1-.11.16-.15-.19-.36-.39-.74-.61-1.11.31-.17.53-.28.79-.42-.13-.23-.23-.43-.36-.67.36.1.66.17,1.05.26-.17-.43-.29-.68-.46-1.07.23.09.39.14.56.2.17.08.3.14.47.2-.1-.46-.34-.88-.23-1.12.18-.31.62-.51.95-.75.01-.02.03-.04.06-.05.3-.2.36-.42.06-.7-.11-.1-.17-.22-.26-.34l.09-.14c.26.12.55.25.91.4-.05-.4-.09-.69-.15-1.07.36.15.58.24.76.33,0-.43-.04-.77-.06-1.12.3.14.61.29,1.09.52-.39-.63-.64-1.19.02-1.67.01-.02-.1-.24-.16-.36-.05-.15-.07-.28-.15-.5.37.13.64.25.9.36,0-.29-.14-.44-.16-.59-.02-.18,0-.43.11-.56.36-.42.82-.77,1.16-1.2.26-.31.43-.74.67-1.19.05,0,.31,0,.64.02-.31-.52-.41-.84.13-1.23.41-.33,1.09-.88.45-1.64-.02-.01.04-.06.09-.14.15.07.28.13.41.24.14.09.23.21.36.32.03-.09.08-.21.11-.3-.05-.26-.12-.56-.19-.84.27.06.56.11.91.17-.1-.15-.14-.26-.21-.37-.23-.43-.71-.95-.62-1.27.28-.81-.22-1.14-.62-1.58-.45-.49-.88-1.01-.79-1.75-.19-.01-.38-.02-.66-.04.14-.34.23-.62.34-.95-.38,0-.61.02-1.06.05.58-.53.54-.9.07-1.27-.25-.19-.52-.43-.57-.69-.09-.26.05-.59.11-.95-.26.09-.48.17-.69.23.09-.4.34-.86.2-1.04-.49-.72-1.12-1.33-1.8-2.12-.04-.2,1.04-.28.29-.83-.07.07-.13.11-.2.13-.16.07-.3.11-.46.18.05-.17.1-.33.14-.51.01-.19.02-.42-.05-.57-.33-.59-1.11-.96-.74-1.83.02-.07-.02-.18-.07-.28-.37-.56-.78-1.11-1.14-1.69-.27-.41-.77-.91-.69-1.28.14-.73-.2-1.08-.61-1.54-.44-.46-1.01-.89-.76-1.7-.5.02-1.17.17-.41-.59.03-.04.04-.15.03-.21-.39-.8-.97-1.44-1.67-2.1-.1.24-.12.4-.18.45-.14.08-.32.1-.5.15.12-.23.23-.48.35-.71.04-.06.1-.11.16-.15.39-.34.4-.74.13-1.14-.58-.81-1.19-1.61-1.67-2.27,0-.46.09-.83-.05-1.06-.55-.82-1.17-1.6-1.75-2.41-.11-.13-.17-.31-.25-.45.18-.02.36-.02.53-.02-.44-.8-.91-1.69-1.42-2.62-.55.49-.45-.44-.79-.58-.15-.04-.22-.32-.31-.49.19.07.34.14.52.2l.2.13c.04-.06.09-.09.11-.13-.46-.73-.94-1.47-1.44-2.23.18-1.31-1.34-1.99-1.43-3.37-.44.28-.94.55-1.2.95-.16.24.03.73.09,1.2l-.9-.59c.03.39.29.68.25.88-.04.28-.34.52-.56.77-.09.14-.23.31-.39.37-.34.21-.45.42-.14.73.09.09.13.2.19.36-.38-.08-.68-.14-.99-.19-.02.07-.03.13-.05.2.13.2.27.38.51.74-.51-.14-.84-.24-1.35-.38q.67.84-.16,1.75c-.49.56-.66-.21-1.01-.24Zm21.18,28.56s.2.05.26.12c.06.04.04.2-.02.24-.29.27-.6.52-.89.78-.07-.07-.13-.11-.21-.16.28-.33.55-.66.85-.98Z"/>
      </g>
      <g id="_Radial_Repeat_-3" data-name="&amp;lt;Radial Repeat&amp;gt;">
        <path class="cls-1" d="m67.94,25.65c-.39-.2-.82-.36-1.22-.56-.25-.12-.64-.27-.69-.48-.19-.7-.8-.74-1.3-1-.5-.26-.96-.58-1.48-.88,0,0-.09.1-.27.32-.03-.92-.64-1.12-1.27-1.31-.39-.1-1-.24-1.08-.5-.21-.75-.85-.85-1.36-1.13-.41-.22-.81-.45-1.17-.64-.26-.19-.41-.28-.54-.39-.18-.15-.31-.35-.51-.49-.39-.26-.81-.5-1.24-.77q-.47.18-.66-.31c-.03-.12-.12-.23-.2-.3-.83-.54-1.72-.98-2.46-1.62-.83-.65-2.01-.72-2.68-1.62-.04-.03-.1-.09-.13-.15-.04-.09-.18-.1-.28-.13-.55-.31-1.13-.61-1.68-.91-.19-.12-.39-.26-.6-.39-.17-.07-.25-.28-.38-.39-.75-.64-1.78-.79-2.42-1.64-.33-.45-1.08-.55-1.61-.87-.45-.26-1.11-.24-1.29-.93-.01-.07-.22-.07-.46-.17.15.24.23.36.32.48-.06.03-.13.06-.18.06-.46-.44-.87-.89-1.36-1.29-.54-.45-1.12-.85-1.72-1.19-.6-.34-1.23-.58-1.92-.9,0-.11-.01-.29-.01-.5-.07.01-.16,0-.23.01-.1.18-.22.35-.28.56-.19.63-.35,1.27-.49,1.9-.08.47-.37,1.01.32,1.38-.19.04-.42.08-.79.13.2.19.35.28.45.42.09.12.18.31.15.46-.13.7-.32,1.39-.47,2.05.18.2.33.34.49.5-.22.09-.44.19-.65.3.16.21.32.43.48.64-.28.03-.56.1-.98.17.26.14.44.18.55.31.11.11.22.34.21.48-.08.42-.23.81-.35,1.21.2.14.36.24.53.32.01.13.04.25.05.37-.27-.11-.54-.18-.81-.29,0,.11.03.22.03.33.11.11.26.19.34.31s.12.29.18.42c-.15.02-.29.01-.44.03-.13.01-.29.01-.42.02-.02.06-.02.12-.02.17.17.07.36.08.5.2.1.09.22.29.18.36-.32.69-.57,1.35.28,1.99-.28-.02-.56-.01-.85,0,.35.12.53.27.62.44.25.44-.22.99-.28,1.47-.01.03-.03.04-.02.06-.23.54-.45,1.08.36,1.36.02.04.03.12.04.24-.32,0-.61.01-1.09.01.35.28.59.43.97.71-.44.09-.69.16-.99.2q.67.38.46,1.24c.22.13.43.27.65.39l-.05.16c-.24-.01-.49-.02-.87-.04.18.26.3.38.38.55.09.12.19.28.17.39-.05.43-.17.83-.28,1.26-.14.52-.39,1.08.45,1.27,0,0-.01.09-.02.17-.15-.03-.28-.07-.42-.08-.13.01-.24.04-.37.05.03.12.07.26.15.35.06.07.22.07.27.16.07.1.1.24.16.37-.15.02-.28.09-.38.09-.19-.01-.36-.08-.52-.14-.02.06-.04.13-.06.19.15.09.31.14.44.23.1.09.16.21.25.33-.14.04-.26.13-.39.17-.15.02-.33-.02-.5-.04.01.07-.01.14-.03.2.18.04.35.06.47.14.15.09.3.22.35.38.1.35.12.71.19,1.13-.13.01-.36.02-.6.03,0,.05-.02.12-.03.15.2.19.43.37.64.53-.02.06-.02.12-.05.16-.27,0-.55.01-.93.01.11.16.15.3.22.34.5.15.58.46.37.91-.24.52-.36,1.03.41,1.29.05,0,.05.16.13.36-.4-.06-.7-.13-.99-.17.05.21.17.29.27.37.15.14.27.27.41.38-.19.04-.37.11-.56.15-.15.02-.27.05-.59.11.43.21.76.29.85.48.2.35.27.8.39,1.25-.17-.02-.39-.04-.84-.08.23.26.35.38.45.52.11.11.29.26.28.34-.06.35-.18.7-.28,1.04-.1.39-.21.8-.2,1.19.01.13.34.26.54.39.01.02,0,.05,0,.11.34-.22.68-.45.91-.37.8.27,1.14-.23,1.58-.63.5-.44,1-.87,1.75-.77,0-.21.01-.4.04-.66.33.13.59.21.94.33-.02-.36-.02-.63-.04-1.04.52.56.9.51,1.25.04.2-.23.44-.51.7-.57.28-.09.6.07.94.12-.07-.26-.14-.49-.19-.7.3.06.65.23.86.23.06.02.11,0,.15-.02.71-.49,1.36-1.11,2.14-1.79.21-.05.28,1.03.83.28-.06-.07-.11-.11-.14-.17l-.16-.48c.16.05.32.11.49.13.19.01.42.03.59-.05.6-.3.97-1.1,1.82-.73.06.02.2-.02.28-.09.56-.36,1.12-.75,1.68-1.11.42-.29.92-.78,1.29-.73.75.16,1.08-.19,1.53-.61.48-.43.92-.99,1.7-.75,0-.48-.14-1.18.62-.42.02.04.13.04.19.01.8-.37,1.44-.96,2.1-1.66-.23-.1-.4-.12-.44-.18-.1-.14-.11-.32-.16-.48.23.1.48.21.7.34.07.04.13.1.16.16.33.39.74.4,1.13.13.17-.14.37-.27.54-.41.63-.45,1.23-.89,1.74-1.27.47-.02.84.08,1.07-.05.82-.54,1.6-1.17,2.4-1.76.14-.1.3-.15.45-.22.01.18.02.36.01.5.82-.44,1.7-.91,2.61-1.39-.2-.24-.13-.36.01-.46-.04-.09-.1-.14-.16-.16Zm-28.58,13.26c-.06.03-.2.02-.26-.03-.28-.29-.51-.6-.77-.89.04-.07.1-.13.14-.2.33.29.67.54.98.84.03.06-.05.21-.1.29Zm-.26-30.81s.18-.06.24-.04c.3.12.59.27.98.47-.52.29-.86.14-1.19-.15-.05-.05-.07-.2-.03-.28Zm23.43,19.09c-.29-.04-.65.19-.86-.18.01-.09.03-.15.04-.23.29.1.56.17.86.23-.02.06-.02.12-.04.18Zm2.01-2.9c-.33-.07-.68-.14-1-.24-.06-.02-.12-.18-.1-.25.02-.06.17-.14.23-.12.32.11.61.26.92.39-.02.06-.04.13-.05.21Z"/>
        <path class="cls-1" d="m101.73,67.93c-.31-.08-.79-.14-.83-.28-.13-.68-.61-.79-1.38-.78.35-.36.56-.58.73-.77-.28-.13-.52-.24-.77-.36.23-.17.5-.33.94-.63-.37-.05-.61-.04-.81-.13s-.48-.21-.51-.38c-.24-.79-.39-1.57-.6-2.42-.76.41-.86.09-.92-.61-.01-.61-.27-1.22-.44-1.83-.01-.07-.11-.16-.17-.18-.31-.08-.61-.15-.91-.21.21-.21.39-.44.73-.77-.99.31-1.1-.22-1.18-.87-.09-.65-.32-1.17-1.18-.93,0,0-.05-.05-.17-.18.31-.18.58-.34.72-.42-3.39-.17-6.86-.34-10.4-.54-.03.04-.14.2-.14.2-.54-.13-.97-.29-1.4-.34-1.23-.16-2.45,0-3.68-.21-.81-.13-1.66-.02-2.55-.03-.53-.05-1.12-.16-1.7-.21-.47-.03-1.07.16-1.36-.06-.62-.49-1.25-.36-1.91-.35-.16,0-.34-.1-.61-.2.32-.27.51-.42.63-.5-.31-.24-.75-.37-.8-.59-.14-.65-.17-1.3-.83-1.5-.17-.07-.36-.08-.63-.08.27-.16.46-.26.67-.36.1-.07.22-.14.37-.21-.34-.15-.58-.24-.83-.38-.12-.02-.23-.1-.36-.14.17-.09.29-.17.4-.26.19-.1.35-.2.57-.34-.23-.04-.39-.04-.51-.06-.03-.01-.06-.02-.1-.03-.22-.13-.48-.27-.58-.46-.29-.63-.14-1.56-1.27-1.58.3-.26.51-.42.67-.58-.36-.14-.79-.19-.88-.38-.23-.52-.4-1.11-.46-1.66-.06-.61-.17-1.03-.92-.87-.07.01-.2-.14-.37-.27.22-.09.34-.12.46-.2.14-.1.29-.22.45-.33-.18-.04-.35-.06-.47-.14-.21-.11-.49-.23-.55-.41-.2-.67-.31-1.36-.49-2.04-.05-.16-.33-.23-.51-.33-.18-.1-.39-.15-.77-.31.48-.16.71-.22.94-.31,0-.05-.01-.13-.02-.2-.17-.02-.35-.01-.5-.1-.18-.1-.43-.21-.49-.39-.19-.6-.35-1.24-.48-1.86-.09-.33-.17-.5-.55-.47-.13.01-.26-.14-.38-.23.11-.11.21-.21.33-.3.1-.07.2-.13.32-.21-.55-.15-1.15-.17-1.25-.89-.17.14-.37.27-.54.41-.39.28-.8.27-1.13-.13-.03-.06-.09-.12-.16-.16-.22-.13-.47-.24-.7-.34.05.16.06.34.16.48.03.06.2.09.44.18-.66.7-1.3,1.29-2.1,1.66-.06.03-.17.03-.19-.01-.76-.77-.62-.06-.62.42-.79-.24-1.22.32-1.7.75-.46.42-.79.77-1.53.61-.37-.05-.87.44-1.29.73-.56.36-1.12.75-1.68,1.11-.07.06-.21.11-.28.09-.85-.37-1.22.43-1.82.73-.17.09-.39.06-.59.05-.17-.02-.33-.07-.49-.13l.16.48c.03.06.07.1.14.17-.55.76-.62-.33-.83-.28-.78.68-1.43,1.3-2.14,1.79-.04.02-.09.04-.15.02.22.55.52,1.15-.53,1.33.26.08.46.06.64.11s.46.17.47.3c.11.48.13,1,.16,1.54.34.04.63.08,1.05.14-.29.33-.51.58-.73.82.37.05.61.1.86.13-.21.21-.4.42-.72.74.31.03.51.01.7.07.21.05.55.2.58.24-.17.62.27.75.71.84-.27.21-.49.41-.71.6.03.06.04.14.05.21.33.02.67.06,1.1.12-.26.23-.48.43-.7.62.39.1.83.06.95.24.21.37.32.85.33,1.3.03.44.15.56.58.46.14-.04.34.04.51.06-.15.13-.3.26-.44.35-.15.13-.3.2-.55.38.51.12.81.18,1.29.29-.37.27-.56.42-.83.63.26.08.43.11.56.17.12.07.23.2.35.28-.14.1-.24.2-.37.27-.12.09-.28.14-.42.18.01.07.04.14.05.21.4.01.84.03,1.27.03-.01.35-.02.6-.03.89.27,0,.49.02.76.02-.27.27-.48.48-.76.78.46.06.74.08,1.16.14-.19.15-.32.27-.45.38-.16.11-.28.19-.4.31.45.15.93.15,1.09.36.18.31.13.79.17,1.19.01.02.02.04.01.07.02.36.18.52.58.4.14-.04.28-.03.43-.05l.07.15c-.23.17-.49.35-.8.59.37.16.64.27,1,.4-.31.23-.5.38-.66.49.37.21.68.35,1,.51-.28.19-.55.38-.99.68.74-.02,1.35.04,1.44.85.01.02.26.03.39.04.15.03.28.07.51.12-.3.26-.53.43-.77.6.26.14.45.1.59.16.17.07.37.21.43.37.18.52.26,1.1.46,1.61.14.38.43.75.69,1.17-.03.04-.16.27-.34.54.61-.01.94.06,1,.72.08.52.21,1.38,1.19,1.21.02-.01.03.06.07.15-.14.1-.26.18-.42.23-.15.07-.3.1-.46.15.06.07.14.17.2.24.26.08.54.18.82.25-.19.2-.37.43-.61.7.18-.01.3.01.43,0,.49.02,1.18-.14,1.41.09.57.65,1.1.38,1.67.25.65-.14,1.31-.26,1.91.19.11-.16.21-.32.36-.55.22.29.42.51.65.77.18-.33.29-.54.49-.94.17.77.51.92,1.07.69.29-.12.63-.24.88-.15.27.05.49.34.77.57.05-.27.1-.5.15-.71.3.28.58.72.8.69.87-.07,1.71-.3,2.74-.49.19.06-.28,1.04.58.67-.02-.1-.03-.17-.01-.23.02-.17.05-.32.07-.49.12.13.23.26.37.37.16.11.35.22.52.24.67,0,1.38-.48,1.95.27.05.05.17.07.28.07.67-.04,1.35-.12,2.03-.14.49-.03,1.17-.21,1.46.04.57.49,1.03.36,1.64.24.62-.15,1.28-.43,1.85.19.23-.44.44-1.1.71-.06.02.04.11.11.17.13.88.06,1.73-.12,2.65-.4-.16-.21-.29-.31-.3-.38,0-.16.07-.33.12-.51.14.22.3.44.44.66.03.06.04.14.05.21.1.51.44.71.93.68.99-.1,1.99-.23,2.8-.31.41.22.67.49.94.49.98-.07,1.97-.22,2.96-.31.17-.03.35.01.51.01-.07.17-.16.32-.24.47.92.02,1.92.05,2.97.08-.15-.72.61-.17.89-.4.11-.11.38-.03.58-.02-.15.13-.29.22-.44.35l-.21.11c.03.06.03.12.05.16.86-.03,1.75-.08,2.65-.13,1.05.81,2.4-.16,3.63.44-.02-.52-.01-1.09-.23-1.51-.13-.26-.65-.34-1.09-.52l.96-.48c-.35-.17-.74-.08-.88-.22-.22-.18-.28-.55-.38-.87-.07-.15-.15-.35-.13-.52-.01-.39-.14-.6-.57-.49-.12.03-.23.01-.4-.01.26-.29.46-.52.66-.76-.05-.05-.1-.09-.15-.14-.23.01-.46.04-.89.08.37-.37.63-.61,1-.98q-1.07.16-1.44-1.01c-.25-.7.51-.47.71-.76Zm-35.32,4.07s-.14.15-.23.17c-.06.03-.19-.06-.2-.14-.09-.38-.15-.78-.24-1.16.1-.02.16-.05.24-.1.15.4.3.81.43,1.22Z"/>
      </g>
    </g>
  </g>
</svg>