<?xml version="1.0" encoding="UTF-8"?>
<svg id="Layer_2" data-name="Layer 2" xmlns="http://www.w3.org/2000/svg" viewBox="0 0 78.81 77.43">
  <defs>
    <style>
      .cls-1 {
        fill: #fff;
        stroke-width: 0px;
      }
    </style>
  </defs>
  <g id="Layer_1-2" data-name="Layer 1">
    <path class="cls-1" d="m55.75,68.92c.16-.12.28-.23.42-.33.52-.38,1.05-.77,1.58-1.15.19-.14.42-.23.6-.38.18-.15.29-.38.47-.53.27-.24.58-.45.86-.69.14-.12.25-.28.4-.4.26-.21.55-.39.8-.61.32-.29.62-.6.78-1.02.02-.06.06-.17.1-.18.46-.1.6-.55.92-.81.31-.26.59-.57.76-.97.08-.2.33-.32.48-.49.09-.1.14-.24.22-.36.21-.3.42-.59.63-.89.02-.03.05-.07.08-.09.4-.16.53-.57.76-.87.28-.37.44-.82.65-1.24.02-.04.04-.08.07-.1.34-.23.5-.57.64-.95.04-.12.15-.23.26-.31.43-.32.43-.88.7-1.28.1-.16.14-.36.23-.53.13-.24.3-.46.43-.7.12-.21.26-.43.34-.66.07-.21.12-.4.35-.49.04-.01.04-.11.06-.17.16-.46.33-.92.49-1.38.05-.13.09-.26.14-.38.1-.29.21-.57.31-.85,0-.02,0-.05.02-.06.4-.19.22-.54.23-.84,0-.1.11-.2.17-.3.04-.06.13-.09.14-.15.06-.27.1-.55.16-.82.04-.15.13-.29.18-.44.04-.1.08-.2.08-.31,0-.27-.13-.57.21-.76.03-.02.04-.09.05-.14.03-.15.06-.3.09-.44.03,0,.06-.01.09-.02-.07-.05-.13-.1-.15-.11.06-.21.05-.46.17-.58.28-.29.21-.61.17-.92-.04-.43.17-.74.35-1.08.04-.06.07-.16.05-.22-.19-.63-.12-1.22.21-1.8.08-.13.08-.33.04-.49-.09-.39-.04-.77,0-1.17.04-.39-.06-.8-.06-1.21,0-.28.07-.56.07-.84,0-.21-.07-.42-.07-.62,0-.46.05-.92.05-1.37,0-.6-.01-1.21-.04-1.81-.01-.24-.2-.54-.11-.71.19-.37.08-.71.03-1.06-.05-.33-.21-.64-.27-.97-.04-.23.02-.48.04-.72,0-.05.06-.11.04-.14-.24-.39-.13-.85-.26-1.26-.13-.42-.17-.87-.25-1.31-.01-.07-.06-.13-.09-.21.13-.13.28-.25,0-.4-.12-.07-.17-.27-.24-.4.07-.15.31-.24.05-.43-.09-.07-.02-.34-.06-.5-.03-.13-.12-.24-.16-.32-.1-.5-.19-.96-.29-1.42-.05-.24-.1-.48-.18-.71-.05-.15-.14-.28-.25-.41.08-.39-.02-.7-.34-.85.03-.06.05-.12.09-.19-.06-.05-.13-.1-.2-.15.14-.36-.06-.98-.38-1.23.05-.07.1-.14.15-.2-.43-.38-.59-.87-.69-1.41-.05-.26-.23-.51-.34-.76-.04-.08-.07-.17-.11-.26.02-.01.04-.03.06-.04-.1-.05-.19-.09-.31-.15.07-.08.13-.14.23-.24-.14-.03-.23-.05-.31-.06-.28-.73-.53-1.48-1.16-2.05.12-.06.17-.07.2-.1.05-.04.08-.09.12-.13-.05-.01-.12-.06-.15-.04-.19.08-.24,0-.3-.18-.04-.12-.15-.23-.25-.38.08-.12.01-.25-.2-.3.06-.1.1-.18.18-.32-.53.14-.44-.33-.62-.52-.08-.09-.16-.18-.24-.27-.06-.07-.15-.13-.19-.22-.17-.38-.32-.76-.49-1.14-.01-.03-.06-.09-.08-.08-.42.09-.41-.28-.52-.5-.07-.13-.13-.19-.27-.26-.17-.08-.25-.34-.37-.52-.07-.11-.15-.21-.18-.25-.08-.15-.11-.29-.18-.31-.27-.08-.53-.4-.53-.72-.35,0-.4-.29-.52-.53-.04-.09-.1-.22-.17-.23-.39-.04-.47-.32-.54-.63-.01-.05-.05-.12-.09-.14-.23-.12-.47-.22-.72-.34.05-.11.07-.17.08-.19-.26-.19-.49-.36-.72-.53-.2-.23-.33-.55-.7-.62-.05,0-.11-.08-.12-.13-.06-.2-.18-.25-.38-.29-.1-.02-.18-.19-.27-.29l.09-.08c.22.17.43.36.67.5.23.14.49.22.74.33.05.02.11.03.13.07.22.4.64.47,1,.63.28.13.5.36.76.54.21.15.42.32.64.45.41.24.65.67,1.02.96.4.31.74.69,1.11,1.02.26.23.59.39.85.64.41.4.81.81,1.21,1.21.3.3.61.59.91.89.08.08.13.2.2.29.13.16.27.32.4.47.07.08.14.16.21.25.08.09.13.26.22.28.43.12.49.53.71.82.29.4.62.76.91,1.16.22.31.4.65.59.97.02.03.01.09.04.12.28.29.56.58.83.88.08.08.17.15.22.25.17.34.32.7.48,1.04.01.03.01.07.03.08.52.5.61,1.23.97,1.81.09.15.26.25.34.4.18.36.32.74.5,1.1.09.19.22.36.34.54.04.06.1.11.12.17.16.46.31.92.46,1.37.08.23.16.45.24.68.14.41.28.83.42,1.24.03.08.07.17.13.23.28.25.33.41.21.72.27.33.36.7.4,1.1.02.19.05.41.16.55.17.21.17.42.12.63-.1.45.05.8.31,1.14.02.03.07.07.07.09-.14.55.25,1,.27,1.52.01.44.02.89.08,1.33.04.23.19.44.31.65.11.2.11.37-.05.49.05.11.14.23.11.28-.16.28.03.55.02.82-.01.36-.02.73,0,1.09,0,.28.02.57.34.7,0,.37,0,.74,0,1.1,0,.06.02.14-.01.18-.42.62-.24,1.31-.25,1.97,0,.66,0,1.32-.02,1.98,0,.28-.04.56-.06.83,0,.07,0,.17-.04.2-.34.25-.21.6-.23.92-.02.36.05.79-.13,1.06-.21.33-.19.64-.22.97-.03.39-.09.77-.38,1.07-.03.03,0,.11-.01.17-.03.32-.03.64-.09.95-.05.29-.14.58-.25.86-.17.46-.36.9-.54,1.36-.01.04-.06.08-.05.11.14.39-.2.62-.29.92-.06.19-.05.43-.15.59-.2.33-.28.72-.49,1.06-.29.46-.42,1.01-.65,1.51-.22.47-.48.91-.72,1.37-.06.11-.09.23-.17.33-.08.13-.13.29-.24.4-.25.26-.19.67-.53.9-.18.12-.25.41-.37.63-.18.31-.35.62-.55.92-.07.1-.19.16-.25.24-.07.13-.13.27-.22.39-.15.22-.32.42-.47.64-.11.15-.2.31-.29.47-.13.22-.31.43-.38.67-.11.36-.35.63-.61.82-.35.27-.55.61-.77.97-.01.02-.01.05-.03.05-.4.19-.57.59-.85.9-.27.31-.54.62-.82.92-.09.1-.23.16-.33.25-.23.22-.41.51-.67.66-.31.19-.44.53-.74.72-.34.2-.72.42-.93.74-.35.52-.98.65-1.36,1.1-.03.03-.08.05-.09.08-.17.52-.73.52-1.07.82-.04.04-.1.06-.15.09-.1.06-.2.12-.3.19-.02-.03-.04-.05-.06-.08-.16.19-.28.48-.48.54-.32.1-.53.34-.81.47-.25.12-.48.3-.71.45.01.02.02.05.03.07-.08-.02-.15-.04-.22-.05-.02,0-.03.01-.03.02-.1.41-.48.22-.72.33-.47.21-.92.48-1.41.61-.29.08-.34.35-.57.43-.37.14-.74.27-1.09.43-.24.12-.46.3-.69.43-.14.08-.29.15-.44.19-.13.04-.27.03-.41.04,0,.03,0,.06,0,.09-.08-.06-.15-.11-.23-.17-.13.49-.58.48-.92.62-.25.1-.5.2-.75.28-.31.09-.64.14-.95.23-.13.03-.24.11-.39.18-.2.04-.45.08-.69.16-.16.06-.39-.02-.47.24-.02.06-.24.07-.37.09-.25.04-.51.08-.78.12-.02.06-.05.13-.09.22-.18-.12-.35-.2-.4-.04-.31.06-.56.1-.8.14-.05,0-.09.07-.13.07-.44-.03-.83.14-1.24.26-.24.07-.49.12-.74.15-.11.02-.22-.02-.33-.04,0-.03-.01-.07-.02-.1-.05.07-.09.14-.15.23-.09-.08-.16-.14-.27-.23-.07.11-.14.22-.18.28-.17.03-.31.06-.49.1-.17-.18-.45-.15-.72-.09-.26.06-.52.14-.78.18-.16.02-.32-.02-.48-.04,0-.03-.01-.06-.02-.09-.04.07-.07.13-.07.14-.35,0-.67,0-.98,0-.19,0-.36.07-.57-.08-.12-.09-.41.07-.62.08-.28.02-.59.14-.84-.2-.17.47-.51.13-.77.21-.18.06-.4.02-.61.01-.08,0-.16-.05-.24-.09-.06-.02-.16-.09-.18-.07-.3.26-.67.06-.99.16-.03.01-.1,0-.11-.02-.17-.28-.45-.16-.69-.19-.15-.01-.29-.07-.44-.08-.09,0-.18.03-.28.05-.19-.35-.49-.02-.73-.1-.06-.02-.14.02-.2,0-.17-.04-.32-.12-.49-.15-.42-.08-.87-.08-1.26-.24-.33-.13-.64-.2-.98-.16,0,0-.03,0-.03,0-.19-.36-.53-.11-.79-.19-.28-.09-.56-.15-.84-.21-.27-.06-.54-.1-.8-.18-.09-.03-.15-.18-.22-.27-.33.12-.62.07-.87-.17-.04-.04-.12-.1-.15-.09-.22.1-.34.02-.44-.18-.02-.03-.09-.07-.13-.06-.3.05-.54-.05-.82-.15-.35-.12-.68-.34-1.08-.33-.11,0-.22-.1-.32-.16-.09-.05-.17-.1-.25-.15-.09-.05-.18-.11-.26-.16-.05-.03-.1-.11-.13-.11-.22.05-.34-.13-.5-.21-.26-.13-.55-.21-.82-.32-.07-.03-.12-.11-.18-.15-.09-.05-.19-.09-.28-.14-.26-.16-.51-.32-.76-.49-.04-.03-.05-.1-.09-.11-.32-.1-.64-.19-.97-.28-.38-.1-.74-.21-1.05-.48-.19-.17-.48-.23-.73-.33-.05-.02-.12-.02-.14-.05-.27-.46-.87-.45-1.18-.86-.05-.06-.19-.06-.3-.09.02-.06.03-.13.05-.2-.37-.12-.7-.3-.91-.64-.03-.04-.12-.04-.18-.07-.07-.03-.15-.05-.21-.09-.3-.2-.6-.41-.9-.62-.05-.03-.1-.07-.14-.11-.27-.28-.53-.57-.82-.83-.3-.27-.64-.5-.96-.74-.04-.03-.07-.07-.1-.11-.17-.21-.26-.47-.59-.56-.17-.05-.27-.35-.43-.51-.21-.21-.44-.39-.66-.59-.05-.05-.11-.09-.15-.15-.26-.41-.75-.64-.9-1.14-.01-.03-.08-.07-.12-.07-.3-.02-.35-.27-.46-.47-.07-.12-.15-.23-.25-.41,0,.01.02-.06.05-.14-.39-.04-.45-.39-.64-.61-.04-.05-.06-.17-.1-.18-.27-.02-.26-.27-.37-.43-.09-.13-.24-.22-.35-.35-.14-.17-.26-.35-.37-.54-.07-.12-.09-.27-.16-.39-.06-.11-.15-.19-.24-.31,0-.02.04-.08.07-.16-.6-.04-.41-.74-.8-.91-.01-.11,0-.27-.03-.27-.37-.08-.36-.44-.5-.68-.12-.22-.12-.48-.46-.59-.17-.05-.27-.38-.37-.6-.12-.27-.22-.56-.31-.85-.03-.1-.03-.21-.06-.31-.02-.06-.05-.15-.1-.17-.39-.12-.36-.49-.47-.77-.14-.35-.21-.78-.46-1.03-.19-.19-.17-.41-.27-.53-.4-.47-.37-1.09-.67-1.59-.16-.27-.24-.6-.31-.91-.06-.27,0-.58-.29-.77-.03-.02-.04-.1-.03-.14.11-.35-.03-.65-.24-.87-.22-.24-.11-.5-.16-.75-.04-.18-.04-.42-.15-.53-.23-.22-.18-.47-.21-.73-.03-.29-.03-.56-.17-.86-.27-.57-.31-1.22-.22-1.89-.29-.11-.29-.37-.29-.66,0-.51-.02-1.02-.04-1.53,0-.26.02-.52,0-.77-.04-.38-.13-.75-.19-1.12-.08-.49-.24-.97-.09-1.48.05-.16,0-.34.03-.51.02-.12.09-.23.11-.34.04-.19.07-.39.1-.58.03-.15.05-.31.06-.4-.02-.22-.04-.39-.04-.56.01-.42.04-.85.05-1.27,0-.07,0-.14-.02-.21-.16-.55.08-1.03.23-1.52.06-.21.12-.46.08-.67-.11-.58-.1-1.12.23-1.64.1-.16.05-.43.07-.65,0-.1,0-.25.04-.28.24-.15.21-.38.21-.6,0-.38-.03-.76.4-.97.04-.02.05-.15.04-.22-.02-.27-.11-.55.19-.73.04-.02.07-.09.06-.14-.05-.4.13-.73.28-1.08.09-.21.19-.4.28-.61.14-.33.27-.67.41-1,.06-.13.15-.23.23-.35.03-.05.09-.1.09-.15-.02-.36.26-.55.44-.8.26-.36.62-.66.81-1.04.15-.32.46-.48.59-.72.21-.39.57-.6.79-.97.2-.33.52-.63.94-.77.15-.05.24-.28.39-.38.5-.32.96-.71,1.54-.93.46-.17.97-.28,1.35-.65.08-.08.26-.03.38-.08.15-.05.29-.16.44-.2.18-.05.36-.05.54-.08.29-.05.58-.14.87-.17.5-.04,1.01-.06,1.51-.07.57,0,1.13,0,1.7.02.27.01.57-.07.79.2.03.03.13,0,.21,0,.32,0,.68-.13.94.2.03.04.11.04.17.04.25,0,.52-.04.68.23.01.02.06.04.08.03.5-.07.86.3,1.29.41.34.09.66.23.98.36.6.23,1.16.53,1.63.98.06.06.15.12.23.14.36.07.58.34.84.56.17.14.36.27.56.38.27.16.55.28.82.44.12.07.19.21.29.3.24.21.48.42.74.6.35.24.71.45.93.84.1.18.28.31.43.45.27.26.55.5.81.77.38.38.75.77,1.11,1.17.15.16.21.42.38.53.32.21.49.52.71.79.15.18.28.38.43.56.15.18.32.35.46.53.16.21.29.43.44.64.07.11.15.21.22.31.13.19.27.38.4.57.26.41.52.83.78,1.25.04.07.09.14.11.21.08.25.13.51.41.64.07.03.1.15.14.23.23.48.44.96.68,1.43.09.18.3.32.32.5.07.68.61,1.15.72,1.8.29.16.24.43.27.7.02.14.14.27.22.41.03.04.07.08.08.12.06.34.23.64.36.96.26.62.43,1.28.63,1.93.06.18.08.38.13.56.04.14.1.28.14.43.04.13.07.25.09.38.04.26.01.56.13.77.22.39.26.81.34,1.23,0,.05.01.11.04.15.33.52.24,1.1.25,1.66,0,.2-.02.39.18.54.1.08.12.29.13.45.01.27-.02.54-.02.82,0,.36,0,.72.03,1.08,0,.14.02.34.11.4.23.16.21.33.2.58-.02.42.06.84.1,1.26,0,.07.02.17-.02.21-.24.22-.08.5-.07.72.02.41.18.8-.02,1.21-.06.12-.04.31,0,.45.13.34-.1.58-.19.87-.08.27-.11.57-.11.85,0,.36.06.73.05,1.1-.01.31-.01.62-.24.91-.11.14-.07.41-.06.62.02.44-.11.82-.35,1.19-.1.16-.03.43-.07.64-.03.17-.11.32-.18.48-.01.04-.05.07-.06.1-.09.34-.17.69-.28,1.03-.11.35-.26.69-.39,1.04-.12.32-.19.67-.33.98-.2.44-.46.86-.69,1.29-.15.28-.29.56-.44.84-.11.2-.25.39-.37.59-.32.49-.74.88-1.18,1.28-.13.12-.18.34-.3.47-.27.27-.55.53-.85.76-.44.33-.88.67-1.29,1.02-.31.27-.77.31-.95.67-.33,0-.57.07-.83.25-.36.26-.79.42-1.21.58-.4.15-.83.27-1.25.37-.29.07-.6.08-.9.13-.26.04-.51.11-.76.14-.08.01-.16-.04-.27-.08-.04.23-.16.35-.41.2-.13.38-.08.43.28.45.47.01.93.05,1.4.1.22.03.44.15.66.17.21.01.42-.05.62-.1.48-.12.97-.09,1.46-.11.42-.02.84-.1,1.25-.18.28-.06.56-.17.84-.24.45-.12.91-.21,1.35-.34.23-.07.44-.2.65-.3.07-.03.15-.06.21-.1.19-.11.49-.06.57-.37.01-.04.14-.05.22-.08.48-.18.94-.38,1.31-.77.22-.23.56-.35.84-.52.07-.04.16-.05.21-.1.3-.33.59-.66.89-1,.04-.05.08-.11.14-.12.46-.12.61-.64,1.04-.8.13-.05.24-.29.28-.46.07-.34.44-.43.54-.79.09-.33.48-.59.74-.87.04-.04.1-.08.12-.13.24-.46.46-.92.71-1.37.23-.42.54-.81.7-1.25.13-.35.39-.65.38-1.08,0-.26.2-.53.32-.8.26-.58.57-1.13.61-1.79.01-.19.13-.37.2-.55.08-.25.17-.49.23-.74.1-.43.18-.86.28-1.28.03-.13.09-.24.13-.37.04-.1.09-.21.1-.31.03-.34.04-.68.06-1.02,0-.05.05-.12.09-.15.34-.19.26-.47.2-.76-.05-.24-.09-.46.03-.73.1-.24.05-.56,0-.84-.08-.44.04-.82.2-1.21.08-.2.1-.42.11-.64.02-.45.01-.91,0-1.37,0-.39-.04-.77-.05-1.16,0-.19.04-.38.04-.56,0-.1,0-.22-.05-.3-.37-.53-.19-1.19-.39-1.76-.07-.2.12-.48.1-.72-.03-.37-.14-.74-.21-1.11-.07-.32-.15-.65-.19-.97-.02-.17.05-.36.09-.58-.22-.34-.52-.7-.41-1.24.04-.19.03-.4-.18-.58-.1-.08-.08-.34-.07-.51.02-.43-.13-.78-.36-1.02-.04-.31,0-.6-.13-.78-.21-.32-.16-.66-.23-.98-.03-.14-.11-.26-.17-.4-.04-.1-.1-.21-.11-.31-.04-.33-.17-.59-.4-.83-.04-.05.04-.21.07-.34-.35-.02-.33-.35-.42-.6-.19-.49-.39-.98-.58-1.46-.03-.08-.04-.17-.07-.25-.08-.22-.18-.44-.25-.67-.05-.15-.07-.31-.12-.47-.03-.09-.08-.18-.14-.26-.08-.12-.19-.21-.25-.34-.21-.5-.28-1.1-.62-1.47-.42-.47-.56-1-.76-1.54-.04-.11-.12-.21-.22-.28-.02-.11.03-.27-.23-.3-.05,0-.12-.12-.14-.2-.14-.48-.32-.94-.64-1.33-.05-.06,0-.2,0-.28-.47-.27-.5-.8-.81-1.2-.14.03-.22-.07-.28-.27-.09-.27-.24-.52-.37-.78-.02-.03-.05-.08-.08-.08-.4-.02-.39-.38-.53-.62-.04-.07-.14-.12-.21-.17-.08-.06-.19-.1-.25-.18-.14-.19-.33-.38-.38-.6-.1-.4-.54-.53-.63-.92,0-.03-.06-.09-.08-.08-.28.04-.32-.19-.41-.37-.1-.19-.17-.38-.42-.48-.15-.05-.24-.29-.35-.45-.04-.06-.07-.15-.12-.16-.31-.08-.41-.36-.57-.58-.04-.06-.12-.1-.17-.14-.09-.07-.18-.14-.27-.21-.01-.01-.01-.04-.03-.05-.32-.24-.63-.48-.95-.73-.05-.04-.1-.06-.14-.1-.13-.15-.25-.3-.4-.48-.01.01.03-.03.06-.07,0-.01,0-.03-.01-.03-.21-.11-.43-.21-.64-.32-.1-.05-.21-.1-.27-.19-.08-.13-.13-.26-.32-.16-.02.01-.09-.01-.1-.04-.23-.35-.61-.45-.96-.62-.19-.09-.29-.37-.43-.57-.02.02-.03.05-.05.07-.13-.08-.27-.16-.4-.24-.05-.03-.1-.1-.14-.1-.34.05-.55-.19-.81-.32-.27-.14-.56-.23-.82-.36-.24-.12-.46-.27-.68-.4-.03-.02-.05-.07-.08-.09-.28-.11-.55-.23-.83-.33-.35-.12-.7-.24-1.05-.35-.15-.05-.31-.05-.46-.11-.12-.04-.21-.14-.32-.16-.29-.08-.58-.17-.87-.24-.15-.04-.3-.03-.45-.06-.17-.04-.33-.12-.5-.15-.2-.04-.4-.05-.6-.08-.06,0-.14.02-.18,0-.25-.2-.52-.05-.79-.05-.25,0-.52.13-.75-.1-.04-.04-.18.02-.29.04-.25-.19-1.12-.16-1.26.01-.3,0-.55-.02-.8,0-.26.02-.49.07-.76-.02-.14-.04-.43-.12-.65.07-.1.09-.32.11-.46.07-.13-.03-.23-.18-.36-.3,0,.06,0,.13-.02.19-.03.07-.07.18-.13.2-.38.12-.76.21-1.14.31-.02-.03-.04-.06-.06-.09.2-.16.39-.33.6-.47.4-.28.77-.65,1.22-.78.51-.15.82-.62,1.39-.67.33-.03.62-.4.96-.53.43-.17.84-.45,1.34-.41.06,0,.13,0,.18-.02.38-.14.74-.35,1.13-.42.55-.09,1.08-.35,1.66-.26.06.01.15-.02.19-.06.26-.25.51-.2.82.05.05-.08.11-.16.11-.17.41-.03.78-.05,1.14-.09.36-.04.73-.1,1.09-.16.31.38.87-.11,1.1.29.22-.04.38-.1.54-.1.3,0,.62-.12.9.13.09.08.27.05.41.07.29.04.59.09.88.14.03,0,.06.02.09.01.7-.12,1.29.15,1.85.51.02.02.06.04.08.03.35-.15.58.1.86.23.34.16.72.25,1.09.33.33.07.61.22.87.43.05.04.1.07.15.1.32.16.63.33.95.48.23.11.47.2.71.29.05.02.11.04.16.08.27.21.53.43.8.63.1.07.26.06.36.13.23.16.44.35.66.51.15.11.32.18.48.27.3.18.59.36.89.54.03.02.08.04.09.07.19.44.6.62.98.83.1.05.15.18.23.28.25.34.6.56.94.81.21.15.28.47.46.67.21.24.48.44.72.65.06.06.12.12.2.18.11.12.22.24.33.36.28.32.57.63.84.95.13.16.24.34.36.52.11.16.21.32.32.47.23.31.46.61.69.92.31.43.64.84.93,1.29.2.31.34.66.52.99.13.23.29.44.42.67.21.39.41.78.62,1.17.11.21.16.43.38.61.18.15.23.45.33.69.26.65.44,1.34.9,1.89.02.02.03.06.03.08.17.54.32,1.09.52,1.63.18.49.4.97.62,1.51-.27.23.11.39.22.55.16.25.16.48.14.75,0,.08,0,.22.03.25.3.15.26.42.25.66-.01.23.02.39.21.56.17.15.26.38.19.66-.05.21-.18.51.19.67.1.04.13.3.13.46.02.41.09.79.32,1.13.03.04.04.12.03.17-.12.6-.02,1.19.2,1.73.13.32.19.63.22.95.01.15-.03.3-.05.46.01.12.02.25.04.37.02.14.02.3.09.41.27.41.15.85.15,1.29,0,.65.06,1.29.09,1.94.01.26,0,.53,0,.79,0,.72,0,1.44,0,2.16,0,.66-.02,1.33-.01,1.99,0,.43-.04.83-.29,1.19-.02.02-.04.07-.03.08.3.55-.28,1.07-.06,1.62.02.04-.04.11-.06.16-.07.19-.21.39-.2.57.02.48,0,.93-.3,1.33-.03.04-.07.12-.05.17.18.51-.04.92-.33,1.32-.03.05-.03.13-.03.2.02.26,0,.51-.21.7-.04.03-.07.08-.08.13-.09.4-.16.81-.27,1.21-.07.24-.2.45-.3.68-.05.11-.08.23-.12.35-.1.31-.19.63-.3.94-.02.05-.1.07-.13.12-.07.11-.13.23-.18.36-.09.22-.16.44-.26.65-.1.21-.23.4-.33.61-.21.45-.38.92-.63,1.34-.49.84-1,1.66-1.54,2.47-.33.5-.82.91-1.08,1.44-.21.44-.67.56-.86.98-.05.12-.19.23-.31.27-.43.16-.5.69-.94.86-.17.07-.25.37-.42.49-.33.23-.47.69-.96.77-.18.03-.3.32-.47.47-.23.2-.47.38-.71.55-.17.12-.38.18-.55.29-.35.21-.67.47-1.03.66-.33.17-.69.26-1.03.39-.04.01-.09.03-.1.06-.15.44-.54.47-.91.55-.05.01-.12,0-.14.04-.18.28-.49.17-.73.26-.26.1-.51.25-.69.34-.23.04-.4.07-.58.09-.42.04-.83.07-1.25.12-.15.02-.3.1-.45.11-.32.03-.64.01-.95.06-.08.01-.14.18-.21.28.02.02.05.04.07.06-.07.02-.14.03-.19.06-.03.02-.06.08-.06.12,0,.02.05.07.08.07.34-.02.68-.06,1.09-.09.31.18.73.13,1.14.1.19-.01.42-.16.55-.1.36.17.57-.19.88-.17.31.02.64.03.93-.06.42-.12.86-.09,1.26-.32.15-.09.38-.04.57-.06.36-.04.71-.08,1.06-.16.13.07.27.22.4-.05.02-.04.1-.04.15-.06.11-.04.22-.09.41-.16,0,0,.08.03.16.07.06-.17.07-.41.34-.19.02.02.08.02.11,0,.12-.03.24-.07.41-.12.01-.23.26-.25.49-.34.39-.14.75-.34,1.13-.51.22-.1.45-.19.67-.32.38-.22.75-.46,1.12-.7.18-.12.34-.25.52-.37.28-.19.63-.29.81-.6,0,0,.01-.02.02-.02.56-.09.74-.68,1.2-.92.28-.15.52-.39.77-.6.06-.05.07-.17.13-.23.12-.13.25-.25.4-.35.11-.08.28-.11.37-.21.26-.26.57-.48.68-.87.03-.1.15-.18.24-.26.2-.18.42-.35.6-.55.16-.17.27-.39.42-.58.22-.3.45-.6.67-.89.03-.04.06-.1.1-.11.36-.12.33-.53.56-.75.27-.26.34-.65.64-.92.26-.23.4-.6.59-.9.06-.09.11-.18.17-.27.02-.02.07-.04.07-.06-.07-.4.31-.58.44-.88.2-.44.44-.85.67-1.28.08-.14.14-.29.21-.44.21-.44.4-.89.62-1.32.12-.25.31-.47.41-.73.12-.33.17-.69.27-1.03.03-.12.1-.23.14-.35.11-.28.22-.56.32-.84.02-.06,0-.15.03-.18.27-.24.22-.55.22-.85,0-.06.03-.15.06-.16.3-.04.22-.28.27-.46.1-.37.24-.73.36-1.09.02-.06,0-.14.01-.21.04-.28-.05-.58.19-.84.09-.09.05-.29.08-.44.02-.12.06-.25.1-.37.01-.05.06-.11.04-.14-.19-.32.07-.51.19-.76.09-.19.03-.45.04-.68.02-.44-.05-.89.25-1.29.09-.12.04-.35.04-.53,0-.64,0-1.28,0-1.92,0-.04,0-.08.02-.12.08-.18.15-.36.24-.53.04-.08.11-.14.19-.23-.06-.06-.12-.12-.17-.19.03,0,.06,0,.08,0-.02-.27-.04-.53-.05-.8,0-.21-.06-.45.01-.63.1-.27.05-.5,0-.76-.04-.22-.21-.48,0-.72.03-.03-.03-.14,0-.21,0-.14.04-.29.02-.42-.05-.27-.12-.54-.36-.73-.03-.02-.01-.1-.01-.15,0-.42,0-.84,0-1.26,0-.1.07-.19.08-.21-.04-.25-.06-.43-.09-.6-.09-.57-.19-1.14-.29-1.71-.03-.16-.07-.32-.1-.5.03-.18.06-.39.08-.61,0-.06-.02-.16-.07-.19-.26-.17-.26-.38-.23-.68.03-.33-.14-.68-.23-1.01-.02-.06-.11-.12-.11-.18.08-.63-.37-1.13-.4-1.73-.02-.28-.2-.54-.29-.82-.11-.35-.21-.7-.31-1.05-.1-.34-.22-.67-.31-1-.1-.39-.16-.8-.27-1.19-.1-.32-.24-.63-.38-.94-.03-.07-.14-.11-.24-.17.06-.08.12-.14.19-.23-.38-.15-.42-.48-.52-.81-.16-.51-.37-1.01-.57-1.51-.02-.06-.08-.12-.13-.16-.32-.24-.35-.4-.08-.68-.02-.03-.04-.09-.06-.09-.37-.02-.32-.33-.41-.56-.18-.46-.38-.91-.59-1.36-.04-.08-.16-.11-.26-.18.04-.08.07-.15.11-.23-.03.01-.06.03-.09.04-.14-.19-.27-.39-.41-.58-.18-.24-.24-.55-.48-.78-.19-.18-.27-.49-.39-.75-.08-.17-.39-.56-.49-.72-.17-.26-.29-.56-.43-.84-.06-.13-.13-.26-.22-.43,0-.02.03-.1.07-.23-.12.04-.19.06-.28.09-.03-.04-.07-.07-.1-.11-.21-.28-.27-.64-.61-.87-.24-.16-.32-.54-.48-.82-.01-.03-.03-.08-.04-.08-.3,0-.31-.32-.48-.45-.12-.09-.24-.19-.36-.29-.05-.04-.11-.08-.12-.13-.08-.32-.33-.5-.55-.72-.26-.26-.59-.5-.76-.79-.21-.35-.62-.48-.76-.86-.04-.11-.12-.2-.21-.32-.17-.02-.31-.06-.46-.29-.23-.35-.63-.58-.94-.87-.29-.27-.56-.55-.83-.83-.03-.04-.07-.13-.08-.12-.38.14-.46-.44-.82-.34-.02,0-.06,0-.08-.03-.28-.26-.55-.53-.88-.84-.15.03-.39.06-.45-.27,0-.03-.1-.05-.15-.07-.05-.01-.14,0-.14-.02-.1-.39-.51-.29-.75-.48-.23-.18-.6-.2-.82-.39-.35-.32-.84-.19-1.19-.52-.23-.21-.57-.29-.86-.44-.25-.13-.49-.28-.73-.41-.04-.02-.1-.04-.14-.03-.25.06-.36-.08-.43-.28-.33.04-.61,0-.89-.2-.15-.11-.4-.17-.59-.14-.34.04-.58-.22-.89-.24-.09,0-.19-.02-.26-.07-.14-.1-.26-.24-.41-.38,0,.11-.02.23-.03.45-.15-.13-.25-.22-.35-.32-.45.18-.74.13-.89-.16-.36.1-.71.06-1.03-.21-.04.09-.07.17-.11.24-.09-.06-.21-.18-.27-.15-.48.2-1-.07-1.51.11-.06-.04-.17-.11-.32-.22.27-.08.53-.12.76-.24.65-.33,1.43-.22,2.06-.63.19-.13.49-.07.74-.12.32-.06.64-.16.96-.21.16-.02.33.02.49.05.41.01.76-.29,1.22-.14.13.04.31-.09.47-.09.41,0,.83.03,1.24.03.19,0,.39-.08.58-.06.29.03.58.11.88.15.15.02.29.03.5.04.13.01.31.03.49.06.29.05.57.1.86.15.03,0,.06.02.09.02.81.01,1.57.27,2.34.47.3.08.57.23.86.32.17.05.36.03.52.09.33.12.64.27.96.4.31.13.62.24.92.38.3.14.58.31.87.45.27.14.54.27.82.4.34.17.68.34,1.04.49.21.09.33.24.48.39.19.2.48.3.72.45.51.32,1.05.61,1.47,1.05.1.1.24.15.35.24.13.11.24.26.38.37.2.16.4.39.63.44.35.07.44.36.65.55.04.04.07.1.11.13.23.19.48.35.68.56.31.33.57.71.88,1.04.32.34.67.64,1,.96.08.08.13.2.19.3.31.43.62.86.94,1.29.23.3.48.58.71.88.25.33.44.72.73,1,.43.41.51,1,.83,1.46.03.05.05.14.09.16.37.11.36.49.53.74.05.08.09.16.14.24.09.16.18.33.31.55.05.08.15.21.22.34.16.31.25.68.48.92.38.4.46.91.67,1.37.17.36.37.7.57,1.1-.11.23-.04.56.22.76.06.04.09.13.12.2.17.48.31.97.49,1.44.15.41.34.8.5,1.2.03.08.06.17.07.27.07.64.29,1.23.45,1.85.13.51.32,1.01.49,1.51.02.07.02.14.04.21.06.33.09.66.2.97.18.55.3,1.09.16,1.67-.03.11.14.26.21.4.06.14.15.28.16.42.03.41.02.81.04,1.22,0,.11.06.21.09.32.1.42.23.84.27,1.26.04.31-.07.64-.05.96.04.39.09.75.02,1.15-.07.42.05.86.08,1.29,0,.1-.04.2-.04.29-.02.2-.04.4-.03.6,0,.29.12.55.01.87-.09.28.06.64.04.95-.01.24.12.45-.02.73-.12.24-.03.57-.03.87,0,.41-.02.82-.03,1.23,0,.2.02.41-.19.55-.05.04-.05.17-.05.26,0,.35,0,.69,0,1.04,0,.24.02.46-.21.66-.11.09-.06.36-.09.55-.03.15-.09.3-.11.45-.02.08,0,.17,0,.26.03.23.04.44-.17.61-.07.05-.1.19-.09.29.02.37.02.73-.2,1.06-.1.14-.11.34-.15.52-.05.25-.07.5-.14.74-.19.64-.39,1.28-.6,1.91-.05.16-.16.29-.25.48.18.25-.09.45-.19.69-.05.12-.09.25-.12.37-.01.04,0,.1-.02.11-.36.19-.22.59-.38.86-.18.29-.33.6-.49.91-.02.04-.07.07-.06.1.07.41-.23.7-.36,1.04-.11.29-.35.54-.53.8-.02.03-.08.06-.07.09.03.24-.12.35-.25.53-.21.29-.32.65-.49.97-.1.18-.24.34-.35.52-.12.19-.21.41-.33.59-.29.41-.6.81-.88,1.21-.1.14-.17.31-.26.47-.15.27-.3.54-.47.8-.14.21-.31.41-.45.62-.2.31-.48.55-.71.82-.26.3-.54.6-.79.91-.3.37-.62.71-.94,1.07-.25.28-.49.57-.77.82-.18.16-.45.21-.65.35-.17.12-.33.29-.41.47-.14.3-.38.47-.65.63-.09.05-.13.17-.21.28-.06-.02-.14-.05-.15-.05-.17.17-.28.33-.44.43-.18.13-.44.11-.49.43-.02.1-.28.15-.42.25-.12.08-.23.2-.38.33-.02,0-.1-.05-.16-.08-.03.02-.07.03-.07.04.03.35-.28.45-.48.51-.21.07-.32.37-.59.25-.01,0-.05.08-.09.11-.07.05-.14.08-.22.1-.33.25-.67.5-1.02.76-.06-.05-.12-.1-.19-.16-.02.01-.06.02-.06.03-.02.4-.4.4-.64.51-.22.1-.41.22-.61.34-.43.24-.86.55-1.41.52-.22-.01-.45.05-.76.09-.16-.17-.32.13-.51.2-.32.13-.63.3-.96.42-.51.18-1.03.35-1.54.5-.52.16-1.05.3-1.57.45-.06.02-.1.1-.14.15.06.03.13.07.19.09.14.02.27.03.41.04,0,.03.01.06.02.09.05-.06.11-.13.17-.2.02.02.06.03.07.05.07.17.15.17.33.11.26-.09.55-.1.83-.15.34-.06.67-.12,1.01-.18.01-.03.02-.07.03-.1.04.08.08.17.12.25.01-.04.02-.07.04-.11.14-.03.28-.06.42-.1.46-.11.92-.29,1.39-.31.43-.02.83-.09,1.23-.24.22-.09.45-.16.68-.24.27-.09.55-.16.82-.26.14-.05.26-.18.39-.21.5-.1,1.01-.16,1.51-.26.36-.07.72-.17,1.07-.29.07-.02.1-.16.15-.24.13-.03.28-.05.49-.09.01,0,.08.06.16.11.03-.03.06-.05.07-.07.04-.06.06-.17.11-.19.45-.16.91-.29,1.35-.47.33-.14.63-.34.94-.52.32-.19.63-.4.95-.58.49-.27.99-.52,1.47-.79.09-.05.18-.15.21-.24.06-.22.17-.22.29-.13ZM13.93,34.58c.17-.06.3-.14.42-.12.3.05.59.13.88.23.2.07.38.22.59.27.37.09.71.18,1.04.4.49.31,1.1.41,1.5.88.04.05.13.04.19.08.23.14.47.28.68.44.14.11.22.28.35.4.11.1.26.16.37.26.29.27.7.42.85.83,0,.02.06.02.08.04.26.23.54.45.77.7.19.2.25.51.57.58.06.01.1.09.14.15.31.43.62.87.93,1.3.35.49.72.97,1.05,1.48.2.3.29.69.52.96.2.24.47.42.54.75.03.15.11.28.16.43.12.32.19.68.38.94.29.4.49.82.64,1.28.2.6.47,1.17.63,1.77.19.72.32,1.46.59,2.16.13.34.16.72.2,1.09.04.33-.03.67.25.95.05.05.05.17.06.26.02.65.05,1.29.05,1.94,0,1,0,2-.01,3,0,.21-.08.46-.21.62-.22.26-.25.51-.18.83.05.2-.01.45-.06.66-.07.33-.29.62-.25.99.02.17.01.4-.23.49-.04.01-.05.12-.05.19-.02.2.03.43-.06.59-.22.43-.5.83-.76,1.25-.13.21-.24.44-.38.64-.1.16-.23.3-.36.43-.08.09-.19.17-.28.26-.33.32-.65.64-.99.95-.13.12-.31.19-.45.3-.08.06-.13.18-.21.22-.28.14-.6.22-.85.4-.26.18-.51.29-.82.27-.04,0-.08.1-.13.15-.02.02-.05.03-.08.05-.07-.04-.14-.08-.2-.12-.12.1-.24.14-.36.16-.32.04-.66.01-.96.11-.43.14-.82,0-1.23-.03-.28-.02-.45-.34-.79-.18-.14.06-.42,0-.54-.11-.24-.23-.51-.11-.76-.16-.26-.05-.45-.3-.74-.25-.01,0-.05-.06-.06-.1-.09-.29-.32-.13-.49-.14-.05,0-.17.14-.15.17.08.17.17.42.3.46.36.1.62.33.9.54.22.17.45.33.7.46.25.14.55.2.79.36.4.26.78.51,1.28.46.06,0,.12.02.18.04.52.18,1.01.43,1.6.43.41,0,.81.08,1.23.03.21-.03.42.04.63.07.12,0,.25-.02.38-.03.31-.03.64-.01.94-.1.71-.2,1.41-.43,2.1-.7.32-.13.75-.13.9-.56.01-.03.09-.04.13-.07.43-.23.87-.43,1.17-.85.14-.19.33-.33.48-.5.23-.25.47-.48.65-.75.15-.21.29-.41.53-.53.05-.03.1-.08.12-.13.14-.27.26-.55.4-.82.03-.06.11-.1.14-.16.14-.26.28-.53.42-.8.04-.07.08-.13.11-.2.12-.28.26-.55.36-.84.11-.33.18-.68.27-1.02,0-.02.04-.05.07-.06.22-.09.2-.27.19-.47,0-.22-.03-.47.05-.66.17-.42.37-.82.34-1.29,0-.14-.03-.34.05-.41.22-.2.15-.45.18-.68.01-.13.04-.26.06-.39.01-.14.05-.29.02-.42-.06-.21-.1-.4.14-.53.05-.03.07-.11.09-.18.09-.29-.18-.64.16-.89.01,0,0-.04,0-.06-.04-.3-.09-.59-.13-.89,0-.07,0-.14,0-.21.01-.13.03-.26.04-.39-.03-.11.06-.21.05-.3-.03-.27-.11-.53-.13-.8-.02-.15.03-.31.05-.47.03-.11.05-.22.04-.32,0-.09-.03-.2-.08-.28-.23-.32-.38-.64-.24-1.05.02-.06-.02-.14-.02-.21,0-.37.02-.73.03-1.1,0-.06-.02-.17-.05-.18-.39-.15-.31-.47-.3-.77.01-.2.01-.41-.02-.61-.08-.49-.19-.99-.29-1.48,0-.04-.03-.08-.05-.11-.2-.34-.36-.7-.37-1.12,0-.16-.11-.32-.17-.49-.03-.07-.07-.15-.09-.22-.07-.23-.12-.47-.2-.69-.12-.35-.25-.69-.37-1.03-.06-.16-.06-.42-.17-.48-.31-.17-.28-.47-.38-.73-.09-.25-.22-.48-.31-.73-.11-.31-.2-.63-.31-.94-.01-.03-.06-.05-.09-.08-.1-.1-.23-.19-.3-.3-.18-.3-.34-.62-.5-.94-.05-.1-.08-.2-.14-.29-.13-.2-.26-.39-.4-.58-.22-.31-.15-.82-.63-.97-.05-.02-.08-.11-.12-.17-.12-.18-.23-.37-.35-.55-.11-.16-.26-.3-.37-.46-.17-.24-.31-.5-.47-.75-.02.01-.04.03-.06.04.03-.06.05-.12.06-.13-.13-.15-.23-.26-.33-.38-.12-.15-.21-.39-.35-.42-.24-.06-.29-.22-.39-.38-.08-.15-.16-.38-.28-.41-.34-.06-.38-.42-.65-.56-.25-.13-.25-.57-.64-.55-.02,0-.04-.06-.07-.09-.23-.18-.23-.61-.65-.59-.03,0-.07-.11-.12-.17-.05-.06-.1-.18-.15-.17-.27.01-.34-.21-.49-.36-.11-.11-.26-.2-.39-.29-.19-.13-.39-.25-.56-.39-.23-.18-.44-.39-.66-.58-.1-.08-.19-.17-.3-.23-.29-.18-.58-.35-.87-.52-.1-.06-.19-.13-.28-.18-.07-.04-.2-.04-.21-.09-.12-.38-.53-.2-.77-.4-.18-.15-.53-.11-.78-.29-.21-.15-.48-.23-.73-.31-.25-.08-.5-.13-.75-.2-.27-.08-.53-.2-.8-.26-.37-.09-.76-.19-1.14-.18-.3,0-.5-.3-.87-.14-.57.24-1.22-.08-1.84.07-.21.05-.44.04-.66.09-.33.07-.65.16-.98.23-.07.02-.16,0-.2.05-.38.35-.99.26-1.35.72-.19.25-.59.33-.9.49-.15.08-.33.13-.45.25-.23.24-.43.52-.65.78-.03.04-.06.09-.11.1-.4.13-.42.56-.64.84-.21.26-.36.56-.56.83-.16.23-.44.38-.43.71,0,.05-.05.1-.09.15-.1.14-.23.27-.29.42-.23.63-.62,1.18-.74,1.85,0,.05-.06.08-.08.13-.06.16-.13.33-.17.5-.04.14-.02.3-.07.44-.16.44-.31.87-.26,1.36.04.36.02.73-.18,1.06-.25.4-.21.85-.16,1.3.01.11.04.22.03.33-.01.26-.06.52-.07.78-.01.41-.02.82,0,1.23.02.51.07,1.02.1,1.57-.2.18-.12.44.02.67.16.24.45.43.21.78,0,.01,0,.04,0,.06.18.47,0,1.04.38,1.47.03.03.04.1.04.14-.03.42.06.8.23,1.19.23.54.35,1.13.52,1.69.03.11.1.2.14.3.03.09.05.19.08.28.04.17.08.35.13.52.04.13.09.25.14.37.13.38.22.77.39,1.13.19.41.46.8.68,1.2.07.12.11.26.17.39.24.46.49.91.71,1.38.12.25.15.56.3.79.25.4.55.77.84,1.15.12.15.28.27.37.43.41.71.86,1.37,1.46,1.94.19.18.34.41.5.61.18.22.34.45.52.67.09.1.19.19.29.29.07.08.12.17.2.24.23.18.53.29.64.6.02.05.08.09.13.12.44.3.9.57,1.31.89.52.41,1.01.87,1.64,1.14.33.14.63.34.96.47.42.17.86.29,1.29.43.24.08.46.19.7.23.17.03.39-.06.54,0,.39.15.71.18,1.16.04.52-.17,1.08-.25,1.58-.51.29-.15.55-.35.82-.55.13-.1.26-.22.36-.36.14-.22.25-.46.38-.69.03-.05.1-.07.13-.12.17-.26.35-.52.51-.79.02-.04-.02-.1,0-.15.05-.19.12-.37.18-.56.02-.07.05-.13.07-.2.11-.3.23-.61.34-.91.02-.04.04-.09.04-.14.03-.45-.14-.89,0-1.34.04-.13.03-.28.05-.42.06-.46-.13-.91-.04-1.39.06-.33-.07-.7-.1-1.05-.02-.21,0-.42,0-.55-.07-.11-.16-.2-.18-.3-.05-.28-.08-.56-.12-.9,0,0,.05-.08.08-.12-.16-.35-.31-.66-.46-.98,0-.02,0-.04,0-.06,0-.2.02-.4.03-.6,0-.04-.05-.11-.08-.11-.23-.04-.21-.19-.21-.37,0-.16,0-.41-.08-.46-.24-.14-.26-.34-.31-.56-.05-.22-.12-.43-.21-.63-.13-.31-.34-.59-.41-.91-.12-.55-.56-.83-.84-1.25-.08.05-.11.08-.15.1-.58.28-1.25.37-1.73.86-.09.09-.2.16-.31.21-.38.19-.8.29-1.11.62-.12.13-.31.23-.48.27-.41.1-.75.27-.99.62-.04.05-.1.09-.16.12-.48.22-.97.42-1.46.64-.16.07-.32.15-.48.23-.11.02-.19.07-.27.13-.07.05-.11.14-.18.18-.21.11-.43.21-.65.31-.21.09-.44-.01-.54-.21-.09-.17-.16-.38-.31-.48-.39-.27-.45-.72-.65-1.09-.2-.39-.34-.81-.52-1.22-.11-.25-.24-.48-.35-.73-.08-.19-.15-.38-.22-.57-.18-.49-.38-.98-.53-1.49-.16-.57-.27-1.15-.4-1.73,0-.03-.03-.06-.04-.08-.12-.4-.27-.79-.35-1.19-.05-.27,0-.56,0-.84.01,0,.02,0,.04,0-.02-.15-.03-.3-.05-.48-.28-.12-.27-.41-.31-.7-.07-.62.17-1.17.29-1.75.04-.2.07-.41.1-.61,0-.02,0-.04-.02-.06-.14-.31-.11-.57.19-.79.06-.04.09-.14.1-.21.03-.36.2-.64.43-.89,0-.11.01-.23.08-.3.31-.34.51-.8.98-.97.03-.01.05-.06.06-.1.07-.22.23-.26.43-.26.12,0,.23-.06.35-.09.17-.05.35-.1.52-.15.12-.04.25-.07.37-.11.37-.14.74-.17,1.07-.03Z"/>
  </g>
</svg>