<?xml version="1.0" encoding="UTF-8"?>
<svg id="Layer_2" data-name="Layer 2" xmlns="http://www.w3.org/2000/svg" viewBox="0 0 1566.53 1566.53">
  <defs>
    <style>
      .cls-1 {
        fill: #fff;
        stroke-width: 0px;
      }
    </style>
  </defs>
  <g id="Layer_1-2" data-name="Layer 1">
    <g>
      <g>
        <path class="cls-1" d="m1160.6,1513.64c51.13-60.67,102.26-121.33,153.38-182-89.97,29.88-179.94,59.76-269.91,89.64,132.17-125.45,264.34-250.89,396.51-376.34-241.47,126.52-482.95,253.04-724.42,379.56,130.49-187.77,260.98-375.54,391.47-563.31"/>
        <path class="cls-1" d="m559.25,1292.5c51.13-60.67,102.26-121.33,153.38-182-89.97,29.88-179.94,59.76-269.91,89.64,132.17-125.45,264.34-250.89,396.51-376.34-241.47,126.52-482.95,253.04-724.42,379.56,130.49-187.77,260.98-375.54,391.47-563.31"/>
      </g>
      <g>
        <path class="cls-1" d="m533.63,1566.53c79.05-6.74,158.1-13.49,237.15-20.23-84.75-42.49-169.49-84.98-254.24-127.46,182.16,4.75,364.32,9.51,546.49,14.26-260.21-81.28-520.42-162.57-780.63-243.85,225.04-40.5,450.09-81,675.13-121.51"/>
        <path class="cls-1" d="m264.78,984.94c79.05-6.74,158.1-13.49,237.15-20.23-84.75-42.49-169.49-84.98-254.24-127.46,182.16,4.75,364.32,9.51,546.49,14.26-260.21-81.28-520.42-162.57-780.63-243.85,225.04-40.5,450.09-81,675.13-121.51"/>
      </g>
      <g>
        <path class="cls-1" d="m52.89,1160.6c60.67,51.13,121.33,102.26,182,153.38-29.88-89.97-59.76-179.94-89.64-269.91,125.45,132.17,250.89,264.34,376.34,396.51-126.52-241.47-253.04-482.95-379.56-724.42,187.77,130.49,375.54,260.98,563.31,391.47"/>
        <path class="cls-1" d="m274.03,559.25c60.67,51.13,121.33,102.26,182,153.38-29.88-89.97-59.76-179.94-89.64-269.91,125.45,132.17,250.89,264.34,376.34,396.51-126.52-241.47-253.04-482.95-379.56-724.42,187.77,130.49,375.54,260.98,563.31,391.47"/>
      </g>
      <g>
        <path class="cls-1" d="m0,533.63c6.74,79.05,13.49,158.1,20.23,237.15,42.49-84.75,84.98-169.49,127.46-254.24-4.75,182.16-9.51,364.32-14.26,546.49,81.28-260.21,162.57-520.42,243.85-780.63,40.5,225.04,81,450.09,121.51,675.13"/>
        <path class="cls-1" d="m581.59,264.78c6.74,79.05,13.49,158.1,20.23,237.15,42.49-84.75,84.98-169.49,127.46-254.24-4.75,182.16-9.51,364.32-14.26,546.49,81.28-260.21,162.57-520.42,243.85-780.63,40.5,225.04,81,450.09,121.51,675.13"/>
      </g>
      <g>
        <path class="cls-1" d="m405.93,52.89c-51.13,60.67-102.26,121.33-153.38,182,89.97-29.88,179.94-59.76,269.91-89.64-132.17,125.45-264.34,250.89-396.51,376.34,241.47-126.52,482.95-253.04,724.42-379.56-130.49,187.77-260.98,375.54-391.47,563.31"/>
        <path class="cls-1" d="m1007.29,274.03c-51.13,60.67-102.26,121.33-153.38,182,89.97-29.88,179.94-59.76,269.91-89.64-132.17,125.45-264.34,250.89-396.51,376.34,241.47-126.52,482.95-253.04,724.42-379.56-130.49,187.77-260.98,375.54-391.47,563.31"/>
      </g>
      <g>
        <path class="cls-1" d="m1032.9,0c-79.05,6.74-158.1,13.49-237.15,20.23,84.75,42.49,169.49,84.98,254.24,127.46-182.16-4.75-364.32-9.51-546.49-14.26,260.21,81.28,520.42,162.57,780.63,243.85-225.04,40.5-450.09,81-675.13,121.51"/>
        <path class="cls-1" d="m1301.75,581.59c-79.05,6.74-158.1,13.49-237.15,20.23,84.75,42.49,169.49,84.98,254.24,127.46-182.16-4.75-364.32-9.51-546.49-14.26,260.21,81.28,520.42,162.57,780.63,243.85-225.04,40.5-450.09,81-675.13,121.51"/>
      </g>
      <g>
        <path class="cls-1" d="m1513.64,405.93c-60.67-51.13-121.33-102.26-182-153.38,29.88,89.97,59.76,179.94,89.64,269.91-125.45-132.17-250.89-264.34-376.34-396.51,126.52,241.47,253.04,482.95,379.56,724.42-187.77-130.49-375.54-260.98-563.31-391.47"/>
        <path class="cls-1" d="m1292.5,1007.29c-60.67-51.13-121.33-102.26-182-153.38,29.88,89.97,59.76,179.94,89.64,269.91-125.45-132.17-250.89-264.34-376.34-396.51,126.52,241.47,253.04,482.95,379.56,724.42-187.77-130.49-375.54-260.98-563.31-391.47"/>
      </g>
      <g>
        <path class="cls-1" d="m1566.54,1032.9c-6.74-79.05-13.49-158.1-20.23-237.15-42.49,84.75-84.98,169.49-127.46,254.24,4.75-182.16,9.51-364.32,14.26-546.49-81.28,260.21-162.57,520.42-243.85,780.63-40.5-225.04-81-450.09-121.51-675.13"/>
        <path class="cls-1" d="m984.94,1301.75c-6.74-79.05-13.49-158.1-20.23-237.15-42.49,84.75-84.98,169.49-127.46,254.24,4.75-182.16,9.51-364.32,14.26-546.49-81.28,260.21-162.57,520.42-243.85,780.63-40.5-225.04-81-450.09-121.51-675.13"/>
      </g>
    </g>
  </g>
</svg>