<?xml version="1.0" encoding="UTF-8"?>
<svg id="Layer_2" data-name="Layer 2" xmlns="http://www.w3.org/2000/svg" viewBox="0 0 90 90">
  <defs>
    <style>
      .cls-1 {
        fill: #fff;
        stroke-width: 0px;
      }
    </style>
  </defs>
  <g id="Layer_1-2" data-name="Layer 1">
    <g>
      <path class="cls-1" d="m25.89,62.16c-.01,2.04-.43,4.06.46,6.08.55,1.25.8,2.72.84,4.09.04,1.41.48,2.57,1.14,3.76.74,1.33,1.73,2.69,1.9,4.12.23,1.84,1.37,2.89,2.36,4.15.19.24.33.52.6.94-.22.01-.39.03-.55.05.33.52.59,1.08.79,1.67,6.86.97,13.76,1.73,20.62,2.72.42.06.82.15,1.2.26.79-1.17.75-1.3-.79-1.83-1.43-.49-2.95-.99-4.16-1.86-2.03-1.47-3.86-3.22-5.75-4.88-1.14-1.01-2.27-2.03-3.31-3.13-.56-.59-.98-1.33-1.4-2.05-1.1-1.9-2.02-3.92-3.3-5.69-.67-.94-1.11-1.83-1.4-2.92-.46-1.71-.99-3.44-1.77-5.02-.49-1-.67-1.88-.54-2.94.07-.6-.06-1.25-.18-1.85-.46-2.2-1.64-4.36-.35-6.67.15-.26,0-.67.03-1.01.19-2.18.23-4.52,2.53-5.64,2.06-1,4.27-1.7,6.63-.93.28.09.57.24.79.43,1,.88,1.99,1.78,2.97,2.69,1.71,1.58,2.34,3.59,2.35,5.86,0,.38.29.75.44,1.13.47-.2,1.11-.27,1.37-.62,1.87-2.53,3.85-4.91,6.69-6.43.81-.43,1.17-1.64.66-2.4-.6-.89-1.39-1.65-2.13-2.44-.44-.47-1.1-.81-1.37-1.36-.88-1.79-2.33-2.94-3.92-4.04-1.13-.78-2.28-1.16-3.55-.84-1.92.48-3.82,1.03-5.28,2.56-.55.58-1.37,1.01-2.14,1.29-2.35.83-3.86,2.75-5.55,4.33-1.38,1.29-2.05,3.29-3.33,4.73-1.47,1.66-1.86,3.7-2.6,5.64-.86,2.23-1.62,4.45-.97,6.89.09.35-.06.76-.06,1.14Z"/>
      <path class="cls-1" d="m19.36,43.62c-1.45,1.43-3.17,2.57-3.97,4.63-.5,1.28-1.35,2.49-2.3,3.49-.97,1.03-1.48,2.16-1.85,3.47-.42,1.46-.68,3.12-1.57,4.26-1.14,1.46-1.08,3.01-1.27,4.6-.04.3-.13.6-.24,1.09-.16-.15-.3-.25-.42-.35-.14.6-.35,1.18-.62,1.74,4.16,5.54,8.5,10.95,12.65,16.5.26.34.47.69.67,1.03,1.38-.27,1.45-.39.74-1.85-.66-1.36-1.39-2.78-1.62-4.25-.4-2.47-.46-5-.61-7.51-.09-1.52-.16-3.04-.13-4.56.02-.82.25-1.64.46-2.43.56-2.12,1.34-4.2,1.69-6.35.19-1.14.51-2.08,1.07-3.05.88-1.54,1.73-3.13,2.3-4.8.36-1.05.86-1.8,1.7-2.46.48-.37.84-.92,1.18-1.44,1.23-1.89,1.92-4.24,4.46-4.97.29-.08.48-.47.74-.69,1.67-1.4,3.36-3.03,5.78-2.19,2.16.75,4.22,1.82,5.34,4.03.13.27.24.57.26.87.09,1.33.15,2.67.2,4,.09,2.33-.88,4.19-2.48,5.81-.27.27-.33.74-.49,1.11.47.19.97.6,1.41.53,3.11-.47,6.19-.75,9.27.19.87.27,1.99-.33,2.16-1.23.21-1.05.18-2.15.22-3.23.02-.64-.21-1.35,0-1.93.65-1.89.43-3.72.09-5.63-.24-1.35-.79-2.43-1.92-3.1-1.7-1.02-3.43-1.98-5.55-1.92-.81.02-1.68-.25-2.42-.6-2.24-1.08-4.67-.78-6.99-.86-1.88-.06-3.78.88-5.7.99-2.22.13-3.93,1.3-5.83,2.14-2.19.97-4.29,2-5.56,4.19-.18.31-.58.49-.85.76Z"/>
      <path class="cls-1" d="m27.84,25.89c-2.04-.01-4.06-.43-6.08.46-1.25.55-2.72.8-4.09.84-1.41.04-2.57.48-3.76,1.14-1.33.74-2.69,1.73-4.12,1.9-1.84.23-2.89,1.37-4.15,2.36-.24.19-.52.33-.94.6-.01-.22-.03-.39-.05-.55-.52.33-1.08.59-1.67.79-.97,6.86-1.73,13.76-2.72,20.62-.06.42-.15.82-.26,1.2,1.17.79,1.3.75,1.83-.79.49-1.43.99-2.95,1.86-4.16,1.47-2.03,3.22-3.86,4.88-5.75,1.01-1.14,2.03-2.27,3.13-3.31.59-.56,1.33-.98,2.05-1.4,1.9-1.1,3.92-2.02,5.69-3.3.94-.67,1.83-1.11,2.92-1.4,1.71-.46,3.44-.99,5.02-1.77,1-.49,1.88-.67,2.94-.54.6.07,1.25-.06,1.85-.18,2.2-.46,4.36-1.64,6.67-.35.26.15.67,0,1.01.03,2.18.19,4.52.23,5.64,2.53,1,2.06,1.7,4.27.93,6.63-.09.28-.24.57-.43.79-.88,1-1.78,1.99-2.69,2.97-1.58,1.71-3.59,2.34-5.86,2.35-.38,0-.75.29-1.13.44.2.47.27,1.11.62,1.37,2.53,1.87,4.91,3.85,6.43,6.69.43.81,1.64,1.17,2.4.66.89-.6,1.65-1.39,2.44-2.13.47-.44.81-1.1,1.36-1.37,1.79-.88,2.94-2.33,4.04-3.92.78-1.13,1.16-2.28.84-3.55-.48-1.92-1.03-3.82-2.56-5.28-.58-.55-1.01-1.37-1.29-2.14-.83-2.35-2.75-3.86-4.33-5.55-1.29-1.38-3.29-2.05-4.73-3.33-1.66-1.47-3.7-1.86-5.64-2.6-2.23-.86-4.45-1.62-6.89-.97-.35.09-.76-.06-1.14-.06Z"/>
      <path class="cls-1" d="m46.38,19.36c-1.43-1.45-2.57-3.17-4.63-3.97-1.28-.5-2.49-1.35-3.49-2.3-1.03-.97-2.16-1.48-3.47-1.85-1.46-.42-3.12-.68-4.26-1.57-1.46-1.14-3.01-1.08-4.6-1.27-.3-.04-.6-.13-1.09-.24.15-.16.25-.3.35-.42-.6-.14-1.18-.35-1.74-.62-5.54,4.16-10.95,8.5-16.5,12.65-.34.26-.69.47-1.03.67.27,1.38.39,1.45,1.85.74,1.36-.66,2.78-1.39,4.25-1.62,2.47-.4,5-.46,7.51-.61,1.52-.09,3.04-.16,4.56-.13.82.02,1.64.25,2.43.46,2.12.56,4.2,1.34,6.35,1.69,1.14.19,2.08.51,3.05,1.07,1.54.88,3.13,1.73,4.8,2.3,1.05.36,1.8.86,2.46,1.7.37.48.92.84,1.44,1.18,1.89,1.23,4.24,1.92,4.97,4.46.08.29.47.48.69.74,1.4,1.67,3.03,3.36,2.19,5.78-.75,2.16-1.82,4.22-4.03,5.34-.27.13-.57.24-.87.26-1.33.09-2.67.15-4,.2-2.33.09-4.19-.88-5.81-2.48-.27-.27-.74-.33-1.11-.49-.19.47-.6.97-.53,1.41.47,3.11.75,6.19-.19,9.27-.27.87.33,1.99,1.23,2.16,1.05.21,2.15.18,3.23.22.64.02,1.35-.21,1.93,0,1.89.65,3.72.43,5.63.09,1.35-.24,2.43-.79,3.1-1.92,1.02-1.7,1.98-3.43,1.92-5.55-.02-.81.25-1.68.6-2.42,1.08-2.24.78-4.67.86-6.99.06-1.88-.88-3.78-.99-5.7-.13-2.22-1.3-3.93-2.14-5.83-.97-2.19-2-4.29-4.19-5.56-.31-.18-.49-.58-.76-.85Z"/>
      <path class="cls-1" d="m64.11,27.84c.01-2.04.43-4.06-.46-6.08-.55-1.25-.8-2.72-.84-4.09-.04-1.41-.48-2.57-1.14-3.76-.74-1.33-1.73-2.69-1.9-4.12-.23-1.84-1.37-2.89-2.36-4.15-.19-.24-.33-.52-.6-.94.22-.01.39-.03.55-.05-.33-.52-.59-1.08-.79-1.67-6.86-.97-13.76-1.73-20.62-2.72-.42-.06-.82-.15-1.2-.26-.79,1.17-.75,1.3.79,1.83,1.43.49,2.95.99,4.16,1.86,2.03,1.47,3.86,3.22,5.75,4.88,1.14,1.01,2.27,2.03,3.31,3.13.56.59.98,1.33,1.4,2.05,1.1,1.9,2.02,3.92,3.3,5.69.67.94,1.11,1.83,1.4,2.92.46,1.71.99,3.44,1.77,5.02.49,1,.67,1.88.54,2.94-.07.6.06,1.25.18,1.85.46,2.2,1.64,4.36.35,6.67-.15.26,0,.67-.03,1.01-.19,2.18-.23,4.52-2.53,5.64-2.06,1-4.27,1.7-6.63.93-.28-.09-.57-.24-.79-.43-1-.88-1.99-1.78-2.97-2.69-1.71-1.58-2.34-3.59-2.35-5.86,0-.38-.29-.75-.44-1.13-.47.2-1.11.27-1.37.62-1.87,2.53-3.85,4.91-6.69,6.43-.81.43-1.17,1.64-.66,2.4.6.89,1.39,1.65,2.13,2.44.44.47,1.1.81,1.37,1.36.88,1.79,2.33,2.94,3.92,4.04,1.13.78,2.28,1.16,3.55.84,1.92-.48,3.82-1.03,5.28-2.56.55-.58,1.37-1.01,2.14-1.29,2.35-.83,3.86-2.75,5.55-4.33,1.38-1.29,2.05-3.29,3.33-4.73,1.47-1.66,1.86-3.7,2.6-5.64.86-2.23,1.62-4.45.97-6.89-.09-.35.06-.76.06-1.14Z"/>
      <path class="cls-1" d="m70.65,46.38c1.45-1.43,3.17-2.57,3.97-4.63.5-1.28,1.35-2.49,2.3-3.49.97-1.03,1.48-2.16,1.85-3.47.42-1.46.68-3.12,1.57-4.26,1.14-1.46,1.08-3.01,1.27-4.6.04-.3.13-.6.24-1.09.16.15.3.25.42.35.14-.6.35-1.18.62-1.74-4.16-5.54-8.5-10.95-12.65-16.5-.26-.34-.47-.69-.67-1.03-1.38.27-1.45.39-.74,1.85.66,1.36,1.39,2.78,1.62,4.25.4,2.47.46,5,.61,7.51.09,1.52.16,3.04.13,4.56-.02.82-.25,1.64-.46,2.43-.56,2.12-1.34,4.2-1.69,6.35-.19,1.14-.51,2.08-1.07,3.05-.88,1.54-1.73,3.13-2.3,4.8-.36,1.05-.86,1.8-1.7,2.46-.48.37-.84.92-1.18,1.44-1.23,1.89-1.92,4.24-4.46,4.97-.29.08-.48.47-.74.69-1.67,1.4-3.36,3.03-5.78,2.19-2.16-.75-4.22-1.82-5.34-4.03-.13-.27-.24-.57-.26-.87-.09-1.33-.15-2.67-.2-4-.09-2.33.88-4.19,2.48-5.81.27-.27.33-.74.49-1.11-.47-.19-.97-.6-1.41-.53-3.11.47-6.19.75-9.27-.19-.87-.27-1.99.33-2.16,1.23-.21,1.05-.18,2.15-.22,3.23-.02.64.21,1.35,0,1.93-.65,1.89-.43,3.72-.09,5.63.24,1.35.79,2.43,1.92,3.1,1.7,1.02,3.43,1.98,5.55,1.92.81-.02,1.68.25,2.42.6,2.24,1.08,4.67.78,6.99.86,1.88.06,3.78-.88,5.7-.99,2.22-.13,3.93-1.3,5.83-2.14,2.19-.97,4.29-2,5.56-4.19.18-.31.58-.49.85-.76Z"/>
      <path class="cls-1" d="m62.16,64.11c2.04.01,4.06.43,6.08-.46,1.25-.55,2.72-.8,4.09-.84,1.41-.04,2.57-.48,3.76-1.14,1.33-.74,2.69-1.73,4.12-1.9,1.84-.23,2.89-1.37,4.15-2.36.24-.19.52-.33.94-.6.01.22.03.39.05.55.52-.33,1.08-.59,1.67-.79.97-6.86,1.73-13.76,2.72-20.62.06-.42.15-.82.26-1.2-1.17-.79-1.3-.75-1.83.79-.49,1.43-.99,2.95-1.86,4.16-1.47,2.03-3.22,3.86-4.88,5.75-1.01,1.14-2.03,2.27-3.13,3.31-.59.56-1.33.98-2.05,1.4-1.9,1.1-3.92,2.02-5.69,3.3-.94.67-1.83,1.11-2.92,1.4-1.71.46-3.44.99-5.02,1.77-1,.49-1.88.67-2.94.54-.6-.07-1.25.06-1.85.18-2.2.46-4.36,1.64-6.67.35-.26-.15-.67,0-1.01-.03-2.18-.19-4.52-.23-5.64-2.53-1-2.06-1.7-4.27-.93-6.63.09-.28.24-.57.43-.79.88-1,1.78-1.99,2.69-2.97,1.58-1.71,3.59-2.34,5.86-2.35.38,0,.75-.29,1.13-.44-.2-.47-.27-1.11-.62-1.37-2.53-1.87-4.91-3.85-6.43-6.69-.43-.81-1.64-1.17-2.4-.66-.89.6-1.65,1.39-2.44,2.13-.47.44-.81,1.1-1.36,1.37-1.79.88-2.94,2.33-4.04,3.92-.78,1.13-1.16,2.28-.84,3.55.48,1.92,1.03,3.82,2.56,5.28.58.55,1.01,1.37,1.29,2.14.83,2.35,2.75,3.86,4.33,5.55,1.29,1.38,3.29,2.05,4.73,3.33,1.66,1.47,3.7,1.86,5.64,2.6,2.23.86,4.45,1.62,6.89.97.35-.09.76.06,1.14.06Z"/>
      <path class="cls-1" d="m43.62,70.65c1.43,1.45,2.57,3.17,4.63,3.97,1.28.5,2.49,1.35,3.49,2.3,1.03.97,2.16,1.48,3.47,1.85,1.46.42,3.12.68,4.26,1.57,1.46,1.14,3.01,1.08,4.6,1.27.3.04.6.13,1.09.24-.15.16-.25.3-.35.42.6.14,1.18.35,1.74.62,5.54-4.16,10.95-8.5,16.5-12.65.34-.26.69-.47,1.03-.67-.27-1.38-.39-1.45-1.85-.74-1.36.66-2.78,1.39-4.25,1.62-2.47.4-5,.46-7.51.61-1.52.09-3.04.16-4.56.13-.82-.02-1.64-.25-2.43-.46-2.12-.56-4.2-1.34-6.35-1.69-1.14-.19-2.08-.51-3.05-1.07-1.54-.88-3.13-1.73-4.8-2.3-1.05-.36-1.8-.86-2.46-1.7-.37-.48-.92-.84-1.44-1.18-1.89-1.23-4.24-1.92-4.97-4.46-.08-.29-.47-.48-.69-.74-1.4-1.67-3.03-3.36-2.19-5.78.75-2.16,1.82-4.22,4.03-5.34.27-.13.57-.24.87-.26,1.33-.09,2.67-.15,4-.2,2.33-.09,4.19.88,5.81,2.48.27.27.74.33,1.11.49.19-.47.6-.97.53-1.41-.47-3.11-.75-6.19.19-9.27.27-.87-.33-1.99-1.23-2.16-1.05-.21-2.15-.18-3.23-.22-.64-.02-1.35.21-1.93,0-1.89-.65-3.72-.43-5.63-.09-1.35.24-2.43.79-3.1,1.92-1.02,1.7-1.98,3.43-1.92,5.55.02.81-.25,1.68-.6,2.42-1.08,2.24-.78,4.67-.86,6.99-.06,1.88.88,3.78.99,5.7.13,2.22,1.3,3.93,2.14,5.83.97,2.19,2,4.29,4.19,5.56.31.18.49.58.76.85Z"/>
    </g>
  </g>
</svg>