<?xml version="1.0" encoding="UTF-8"?>
<svg id="Layer_2" data-name="Layer 2" xmlns="http://www.w3.org/2000/svg" viewBox="0 0 84.96 84.96">
  <defs>
    <style>
      .cls-1 {
        fill: #fff;
        stroke-width: 0px;
      }
    </style>
  </defs>
  <g id="Layer_1-2" data-name="Layer 1">
    <g>
      <g id="_Radial_Repeat_" data-name="&amp;lt;Radial Repeat&amp;gt;">
        <path class="cls-1" d="m32.31,64.22c.32.43.58.78.93,1.27l2.84-1.65c.39.53.67.91,1,1.35.99-.5,1.92-.97,2.87-1.46.36.45.63.79,1.02,1.28l1.54-.89c.54.01,1.08-.02,1.6-.11.77.86.94.71,1.96-.3-.03-.07-.06-.14-.09-.21.8-.31,1.58-.72,2.33-1.24.38-.26.75-.54,1.12-.82,1.43-.61,2.72-1.32,3.98-2.21l.16.27,4.39-2.55c-.2-.54-.36-.99-.57-1.55l5.72-3.32c-.22-.55-.39-.98-.52-1.31.58-1.32,3.63-.93,2-3.42.44-.32.82-.6,1.2-.88-.21-.52-.39-.96-.57-1.4l1.15-.66,2.38,4.09c-.39.34-.75.65-1.21,1.04l1.58,2.72c-1.27.57-1.49,1.41-.73,2.46-.45.35-.82.63-1.19.92.2.52.37.96.53,1.38-.41.32-.76.6-1.18.93,1.12,1.38.17,1.94-.92,2.47-.42.2-.79.5-1.16.74.25.56.43.95.67,1.49l-4.24,2.46c.21.6.37,1.05.53,1.53-.78.51-1.51.95-.73,2,.7.94.94,2.59,2.69,1.3.36.44.66.81.97,1.18.51-.2.94-.38,1.36-.54.36.43.66.79,1.05,1.26l2.78-1.61c.38.51.67.89.97,1.29.5-.19.95-.35,1.48-.55.21.43.39.81.6,1.24l-4.23,2.45c.23.6.4,1.04.6,1.56-.44.21-.81.39-1.17.56-.35-.46-.61-.8-.88-1.16-.5.2-.94.38-1.42.57-.62-.94-1.19-1.82-1.86-2.84l-2.78,1.61c-.39-.48-.66-.83-.99-1.24-1.08.89-1.85.46-2.38-.6-.54.2-.99.36-1.43.52-.31-.41-.56-.76-.85-1.15-.49.21-.93.39-1.45.61-.49-1.37-1.42-1.26-2.42-.68-.32-.43-.58-.78-.93-1.26l-2.77,1.61c-.39-.49-.69-.86-.99-1.24-.51.19-.95.36-1.41.53-.33-.42-.62-.8-.95-1.22-.49.18-.93.35-1.36.52-.37-.4-.68-.75-1.01-1.12-.5.24-.93.44-1.38.65-.33-.45-.61-.84-.92-1.26-.48.16-.93.32-1.39.47-.35-.4-.66-.75-.98-1.13-.5.21-.93.4-1.41.6-.33-.42-.62-.79-.91-1.17-.52.2-.96.37-1.47.56-.45-1.27-1.28-1.32-2.25-.72l-1.48-2.55,2.6-1.51Z"/>
        <g id="WNsNV2">
          <path class="cls-1" d="m14.54,47.6c.44-.32.79-.57,1.27-.92l2.21,2.43c.53-.38.92-.66,1.36-.99.79.78,1.54,1.51,2.29,2.26.48-.32.84-.56,1.36-.91l1.2,1.32c.52.15,1.02.35,1.49.59.99-.59,1.11-.39,1.78.88-.05.06-.1.12-.15.18.67.54,1.28,1.17,1.84,1.89.28.37.55.74.82,1.12,1.17,1.02,2.19,2.08,3.12,3.32l.23-.21,3.41,3.76c-.35.45-.64.83-1.01,1.3l4.45,4.9c-.37.45-.67.82-.9,1.09.15,1.43,3.17,1.98.87,3.87.32.44.6.82.88,1.2-.36.43-.66.79-.97,1.16l.89.98,3.51-3.18c-.27-.44-.52-.84-.84-1.35l2.33-2.12c-1.04-.93-.99-1.8.05-2.56-.32-.47-.59-.85-.86-1.24.35-.43.64-.8.93-1.16-.29-.43-.54-.8-.84-1.24,1.49-.98.75-1.79-.13-2.63-.34-.32-.6-.72-.88-1.06.41-.45.69-.78,1.09-1.22l-3.29-3.63c.38-.51.67-.89.97-1.3-.59-.72-1.15-1.37-.09-2.13.95-.68,1.68-2.18,2.96-.42.48-.31.88-.57,1.28-.83.42.35.79.65,1.13.93.47-.3.87-.55,1.38-.88l2.16,2.38c.52-.37.91-.65,1.32-.94.42.33.8.62,1.24.97.33-.35.62-.65.95-1l-3.29-3.62c.4-.5.7-.87,1.05-1.31-.35-.33-.66-.62-.94-.89-.47.33-.83.58-1.19.84-.42-.35-.78-.65-1.18-.97-.87.71-1.69,1.37-2.64,2.14l-2.16-2.38c-.52.34-.88.59-1.32.88-.76-1.17-1.62-1-2.45-.16-.46-.35-.83-.64-1.2-.93-.42.3-.77.56-1.16.84-.41-.35-.77-.66-1.19-1.02-.89,1.16-1.73.77-2.51-.09-.43.31-.79.57-1.26.92l-2.15-2.37c-.52.35-.91.61-1.32.88-.42-.34-.8-.63-1.18-.93-.44.3-.83.57-1.27.88-.41-.32-.78-.62-1.14-.9-.47.27-.88.51-1.3.76-.4-.38-.75-.7-1.12-1.04-.45.33-.84.62-1.26.93-.41-.3-.79-.58-1.18-.87-.45.27-.85.52-1.28.77-.41-.35-.77-.66-1.16-1-.44.3-.83.57-1.22.84-.43-.34-.81-.64-1.23-.98-.81,1.07-1.62.87-2.37,0l-2.19,1.98,2.02,2.22Z"/>
        </g>
      </g>
      <g id="_Radial_Repeat_-2" data-name="&amp;lt;Radial Repeat&amp;gt;">
        <path class="cls-1" d="m28.74,22.81c-.54.06-.97.11-1.56.17v3.29c-.64.07-1.12.13-1.66.19-.06,1.11-.12,2.15-.18,3.21-.57.09-1,.15-1.62.25v1.78c-.28.46-.51.95-.7,1.44-1.13.24-1.09.46-.73,1.85.08.01.15.02.23.03-.13.85-.16,1.73-.09,2.63.04.46.09.92.15,1.38-.18,1.54-.22,3.02-.07,4.56h-.31s.01,5.08.01,5.08c.56.1,1.03.18,1.62.28v6.62c.6.08,1.06.15,1.41.2.85,1.16-1.01,3.6,1.96,3.45.06.54.11,1.01.16,1.48.56.08,1.03.14,1.5.21v1.32s-4.73.01-4.73.01c-.1-.51-.18-.98-.29-1.57h-3.15c.14-1.38-.48-1.99-1.76-1.86-.08-.56-.14-1.03-.2-1.49-.55-.09-1.02-.16-1.46-.23-.07-.52-.14-.95-.21-1.49-1.75.28-1.76-.82-1.67-2.03.03-.46-.04-.94-.06-1.38-.61-.06-1.04-.11-1.63-.17v-4.9c-.64-.12-1.1-.21-1.61-.3-.05-.93-.07-1.79-1.37-1.63-1.16.14-2.71-.48-2.47,1.68-.56.09-1.03.17-1.51.25-.08.54-.15,1.01-.21,1.45-.55.09-1.01.17-1.62.28v3.21c-.62.08-1.1.13-1.6.19-.09.53-.17,1-.26,1.55-.48-.03-.89-.07-1.38-.1v-4.89c-.65-.1-1.12-.17-1.67-.26.04-.48.07-.9.1-1.29.57-.07,1-.13,1.45-.18.08-.54.14-1,.22-1.52,1.12-.06,2.17-.12,3.39-.19v-3.22c.61-.09,1.04-.16,1.57-.24-.23-1.38.53-1.83,1.71-1.77.1-.57.18-1.03.27-1.5.51-.06.94-.11,1.42-.16.07-.53.13-1,.2-1.56,1.44.26,1.8-.6,1.79-1.75.53-.06.97-.11,1.55-.17v-3.21c.61-.09,1.08-.16,1.56-.23.09-.53.16-1.01.24-1.48.53-.07,1-.14,1.53-.21.08-.51.16-.98.24-1.44.53-.12.99-.22,1.47-.32.05-.55.08-1.02.13-1.53.56-.06,1.04-.11,1.55-.16.1-.5.19-.96.28-1.44.51-.1.98-.19,1.47-.29.06-.53.12-1.01.18-1.52.52-.07.99-.14,1.47-.21.09-.55.16-1.02.25-1.55,1.32.25,1.79-.45,1.75-1.59h2.95s0,3,0,3Z"/>
        <g id="WNsNV2-2" data-name="WNsNV2">
          <path class="cls-1" d="m52.01,15.72c.06.54.1.97.16,1.57l-3.21.7c.07.65.12,1.13.17,1.67-1.07.3-2.08.57-3.1.86.04.57.07,1.01.11,1.63l-1.74.38c-.39.38-.81.71-1.26,1,0,1.15-.22,1.16-1.65,1.1-.03-.07-.05-.14-.08-.21-.8.31-1.65.53-2.55.65-.46.06-.92.11-1.38.15-1.47.51-2.9.86-4.43,1.05l.07.31-4.96,1.07c-.22-.53-.4-.97-.62-1.52l-6.47,1.4c-.21-.55-.37-.99-.5-1.32-1.32-.58-3.3,1.76-3.79-1.18-.54.06-1.01.11-1.48.16-.19-.53-.36-.97-.52-1.42l-1.29.28,1,4.63c.52-.02.99-.03,1.59-.05l.67,3.08c1.33-.43,2.05.04,2.2,1.32.56-.05,1.04-.08,1.5-.12.2.52.37.96.54,1.38.52-.04.96-.07,1.5-.11.1,1.77,1.18,1.55,2.34,1.2.45-.13.92-.16,1.36-.23.19.58.33.99.51,1.55l4.79-1.04c.25.59.44,1.02.64,1.49.92-.15,1.76-.31,1.89.99.12,1.17,1.05,2.55-1.11,2.77.03.57.05,1.04.08,1.53-.51.19-.95.36-1.37.52.03.56.05,1.03.07,1.64l-3.14.68c.06.63.11,1.11.15,1.61-.5.2-.94.38-1.46.59.14.46.25.86.39,1.32l4.78-1.03c.23.6.4,1.04.61,1.56.46-.14.86-.26,1.24-.37-.05-.57-.09-1.01-.13-1.45.51-.19.95-.36,1.43-.54-.18-1.11-.34-2.15-.54-3.36l3.14-.68c-.04-.62-.07-1.06-.1-1.59,1.39-.07,1.67-.91,1.36-2.05.53-.22.97-.4,1.4-.58-.05-.51-.1-.94-.15-1.42.51-.18.95-.34,1.48-.53-.56-1.35.2-1.89,1.33-2.13-.06-.53-.1-.97-.16-1.55l3.13-.68c-.04-.62-.07-1.1-.11-1.58.5-.2.95-.38,1.4-.55-.04-.53-.08-1.01-.12-1.54.48-.19.92-.37,1.36-.54,0-.54,0-1.02,0-1.51.53-.16.98-.3,1.46-.45-.06-.56-.12-1.03-.17-1.55.46-.2.9-.39,1.35-.59-.01-.52-.02-1-.03-1.5.51-.18.96-.33,1.45-.51-.04-.53-.08-1-.11-1.48.51-.2.96-.38,1.46-.57-.52-1.24.06-1.84,1.18-2.05l-.62-2.89-2.94.64Z"/>
        </g>
      </g>
      <g id="_Radial_Repeat_-3" data-name="&amp;lt;Radial Repeat&amp;gt;">
        <path class="cls-1" d="m66.39,40.42c.22-.49.39-.89.63-1.44l-2.85-1.64c.26-.6.45-1.04.67-1.54-.93-.61-1.81-1.18-2.7-1.76.21-.53.37-.94.6-1.52l-1.54-.89c-.26-.48-.56-.92-.89-1.33.36-1.1.15-1.17-1.24-1.55-.05.06-.09.12-.14.18-.67-.54-1.42-1-2.24-1.4-.42-.2-.84-.38-1.27-.56-1.24-.93-2.51-1.7-3.91-2.34l.16-.27-4.4-2.53c-.37.44-.67.81-1.06,1.26l-5.74-3.29c-.36.46-.66.83-.88,1.11-1.43.15-2.61-2.68-3.97-.02-.5-.22-.93-.41-1.36-.6-.34.44-.63.82-.93,1.2l-1.15-.66,2.36-4.11c.49.17.94.33,1.5.53l1.57-2.73c1.13.82,1.97.58,2.49-.59.52.22.96.39,1.39.57.35-.43.65-.8.93-1.15.49.19.89.36,1.4.56.64-1.66,1.59-1.12,2.6-.43.38.26.83.43,1.23.64.36-.49.61-.85.96-1.32l4.25,2.44c.42-.48.73-.84,1.06-1.23.83.42,1.58.83,2.1-.37.46-1.08,1.77-2.11-.22-2.98.2-.53.37-.98.54-1.43-.43-.34-.8-.63-1.15-.91.19-.52.36-.97.57-1.54l-2.78-1.6c.25-.58.44-1.02.64-1.49-.41-.34-.78-.64-1.21-1.01.27-.4.5-.74.78-1.14l4.24,2.44c.4-.5.7-.87,1.05-1.31.4.27.74.51,1.07.73-.22.53-.39.93-.56,1.35.43.34.8.63,1.2.95-.51,1-.98,1.94-1.53,3.03l2.79,1.6c-.23.58-.39.98-.58,1.48,1.31.49,1.32,1.37.68,2.36.44.37.8.68,1.16.98-.21.47-.38.87-.57,1.31.43.32.81.61,1.25.95-.94,1.11-.38,1.86.62,2.43-.21.49-.39.89-.63,1.43l2.78,1.6c-.23.58-.4,1.02-.58,1.48.42.34.79.65,1.16.95-.2.49-.38.94-.59,1.43.4.33.77.63,1.13.92-.17.52-.31.97-.46,1.44.45.31.85.58,1.26.87-.23.51-.42.95-.64,1.43.38.33.74.65,1.11.97-.17.5-.32.95-.48,1.42.43.32.81.61,1.23.92-.2.49-.38.93-.56,1.37.43.35.8.65,1.22.99-.87,1.02-.51,1.77.51,2.31l-1.47,2.56-2.6-1.5Z"/>
        <g id="WNsNV2-3" data-name="WNsNV2">
          <path class="cls-1" d="m60.89,64.12c-.49-.22-.89-.4-1.44-.64l1-3.13c-.6-.27-1.03-.46-1.53-.69.28-1.07.54-2.09.81-3.12-.51-.25-.91-.45-1.47-.72l.54-1.7c-.13-.53-.21-1.06-.24-1.59-1-.57-.9-.77-.13-1.98.08.01.15.03.23.04.13-.85.37-1.7.71-2.54.17-.43.37-.85.56-1.27.29-1.53.71-2.94,1.31-4.36l-.3-.1,1.55-4.83c.57.08,1.04.14,1.63.22l2.02-6.3c.58.1,1.04.17,1.4.23,1.16-.85.13-3.74,2.91-2.69.22-.5.41-.93.6-1.36.55.1,1.02.18,1.49.26l.4-1.26-4.51-1.45c-.24.46-.47.87-.75,1.4l-3-.96c-.29,1.37-1.06,1.75-2.24,1.24-.24.51-.44.94-.64,1.36-.55-.08-1.02-.15-1.46-.22-.23.47-.42.87-.66,1.35-1.59-.8-1.93.24-2.21,1.43-.11.45-.32.88-.48,1.3-.6-.12-1.02-.21-1.6-.33l-1.5,4.67c-.63-.08-1.1-.13-1.61-.19-.33.87-.61,1.68-1.8,1.14-1.07-.48-2.73-.36-1.84-2.35-.51-.26-.93-.48-1.36-.69.09-.54.17-1,.24-1.45-.49-.26-.91-.47-1.46-.76l.98-3.06c-.58-.26-1.01-.46-1.47-.67.07-.53.14-1,.22-1.56-.47-.11-.87-.21-1.34-.32l-1.49,4.66c-.64-.1-1.11-.17-1.66-.26-.11.47-.21.88-.3,1.26.52.24.92.43,1.32.61-.09.54-.17,1-.25,1.51,1.05.4,2.03.78,3.17,1.21l-.98,3.06c.56.27.95.47,1.43.7-.64,1.24-.05,1.9,1.09,2.2-.08.57-.14,1.04-.2,1.51.47.21.87.39,1.3.58-.1.53-.18.99-.29,1.54,1.45.19,1.53,1.12,1.18,2.21.49.22.89.4,1.43.64l-.98,3.05c.56.28.99.49,1.42.7-.08.54-.15,1.01-.22,1.49.48.23.91.43,1.4.66-.08.52-.14.98-.21,1.44.47.27.88.51,1.31.75-.12.54-.23,1-.34,1.49.51.22.95.42,1.43.63-.06.5-.11.98-.17,1.46.46.25.88.48,1.31.72-.1.53-.19,1-.29,1.51.48.23.91.43,1.34.64-.08.55-.15,1.02-.23,1.55,1.33.17,1.57.97,1.18,2.05l2.81.9.92-2.86Z"/>
        </g>
      </g>
    </g>
  </g>
</svg>