<?xml version="1.0" encoding="UTF-8"?>
<svg id="Layer_2" data-name="Layer 2" xmlns="http://www.w3.org/2000/svg" viewBox="0 0 100.27 100.27">
  <defs>
    <style>
      .cls-1 {
        fill: #fff;
        stroke-width: 0px;
      }
    </style>
  </defs>
  <g id="Layer_1-2" data-name="Layer 1">
    <g>
      <path class="cls-1" d="m73.48,97.63c-.32-.23-.64-.46-.97-.68-.9-.58-1.8-1.14-2.69-1.73-.34-.23-.64-.52-.98-.76-1.51-1.08-2.89-2.44-4.56-3.16-3.29-1.42-6.8-1.42-10.27-.58-1.07.26-2.13.67-3.1,1.19-1.9,1.01-2.43,2.62-1.85,4.67.23.82.18,1.73.17,2.59,0,.13-.52.41-.71.35-1.88-.63-3.74-1.32-5.6-1.99-.14-.05-.33-.11-.39-.22-1.21-2.18-3.69-2.44-5.57-3.56-1.83-1.08-2.14-1.96-.89-3.7,1.79-2.49,4.18-4.18,6.82-5.6.47-.25.94-.52,1.38-.82,2.61-1.81,5.47-1.8,8.37-1.02,2.62.7,5.23,1.44,7.78,2.36,1.27.46,2.37,1.37,3.56,2.04,1.22.68,2.33,1.46,2.86,2.83.05.13.18.25.29.34,1.63,1.42,3.34,2.76,4.86,4.3.78.79,1.21,1.93,1.79,2.91-.1.08-.2.16-.3.24Z"/>
      <path class="cls-1" d="m33.05,100.23c-.07-.39-.12-.78-.21-1.17-.22-1.04-.47-2.08-.68-3.13-.08-.4-.09-.82-.15-1.23-.3-1.83-.32-3.77-.99-5.46-1.32-3.33-3.81-5.81-6.85-7.67-.94-.57-1.98-1.03-3.03-1.35-2.06-.63-3.57.13-4.61,2-.42.74-1.1,1.35-1.72,1.95-.09.09-.66-.08-.75-.26-.88-1.77-1.71-3.58-2.55-5.37-.06-.14-.15-.31-.12-.43.68-2.4-.88-4.34-1.42-6.46-.53-2.05-.12-2.9,1.99-3.25,3.03-.5,5.91,0,8.78.86.51.15,1.03.3,1.56.39,3.13.56,5.14,2.59,6.64,5.2,1.36,2.35,2.68,4.72,3.83,7.17.57,1.22.71,2.64,1.08,3.96.38,1.35.61,2.68.02,4.03-.06.13-.05.3-.04.45.15,2.16.41,4.32.4,6.47,0,1.11-.51,2.22-.79,3.33-.13-.01-.25-.03-.38-.04Z"/>
      <path class="cls-1" d="m2.64,73.48c.23-.32.46-.64.68-.97.58-.9,1.14-1.8,1.73-2.69.23-.34.52-.64.76-.98,1.08-1.51,2.44-2.89,3.16-4.56,1.42-3.29,1.42-6.8.58-10.27-.26-1.07-.67-2.13-1.19-3.1-1.01-1.9-2.62-2.43-4.67-1.85-.82.23-1.73.18-2.59.17-.13,0-.41-.52-.35-.71.63-1.88,1.32-3.74,1.99-5.6.05-.14.11-.33.22-.39,2.18-1.21,2.44-3.69,3.56-5.57,1.08-1.83,1.96-2.14,3.7-.89,2.49,1.79,4.18,4.18,5.6,6.82.25.47.52.94.82,1.38,1.81,2.61,1.8,5.47,1.02,8.37-.7,2.62-1.44,5.23-2.36,7.78-.46,1.27-1.37,2.37-2.04,3.56-.68,1.22-1.46,2.33-2.83,2.86-.13.05-.25.18-.34.29-1.42,1.63-2.76,3.34-4.3,4.86-.79.78-1.93,1.21-2.91,1.79-.08-.1-.16-.2-.24-.3Z"/>
      <path class="cls-1" d="m.04,33.05c.39-.07.78-.12,1.17-.21,1.04-.22,2.08-.47,3.13-.68.4-.08.82-.09,1.23-.15,1.83-.3,3.77-.32,5.46-.99,3.33-1.32,5.81-3.81,7.67-6.85.57-.94,1.03-1.98,1.35-3.03.63-2.06-.13-3.57-2-4.61-.74-.42-1.35-1.1-1.95-1.72-.09-.09.08-.66.26-.75,1.77-.88,3.58-1.71,5.37-2.55.14-.06.31-.15.43-.12,2.4.68,4.34-.88,6.46-1.42,2.05-.53,2.9-.12,3.25,1.99.5,3.03,0,5.91-.86,8.78-.15.51-.3,1.03-.39,1.56-.56,3.13-2.59,5.14-5.2,6.64-2.35,1.36-4.72,2.68-7.17,3.83-1.22.57-2.64.71-3.96,1.08-1.35.38-2.68.61-4.03.02-.13-.06-.3-.05-.45-.04-2.16.15-4.32.41-6.47.4-1.11,0-2.22-.51-3.33-.79.01-.13.03-.25.04-.38Z"/>
      <path class="cls-1" d="m26.8,2.64c.32.23.64.46.97.68.9.58,1.8,1.14,2.69,1.73.34.23.64.52.98.76,1.51,1.08,2.89,2.44,4.56,3.16,3.29,1.42,6.8,1.42,10.27.58,1.07-.26,2.13-.67,3.1-1.19,1.9-1.01,2.43-2.62,1.85-4.67-.23-.82-.18-1.73-.17-2.59,0-.13.52-.41.71-.35,1.88.63,3.74,1.32,5.6,1.99.14.05.33.11.39.22,1.21,2.18,3.69,2.44,5.57,3.56,1.83,1.08,2.14,1.96.89,3.7-1.79,2.49-4.18,4.18-6.82,5.6-.47.25-.94.52-1.38.82-2.61,1.81-5.47,1.8-8.37,1.02-2.62-.7-5.23-1.44-7.78-2.36-1.27-.46-2.37-1.37-3.56-2.04-1.22-.68-2.33-1.46-2.86-2.83-.05-.13-.18-.25-.29-.34-1.63-1.42-3.34-2.76-4.86-4.3-.78-.79-1.21-1.93-1.79-2.91.1-.08.2-.16.3-.24Z"/>
      <path class="cls-1" d="m67.22.04c.07.39.12.78.21,1.17.22,1.04.47,2.08.68,3.13.08.4.09.82.15,1.23.3,1.83.32,3.77.99,5.46,1.32,3.33,3.81,5.81,6.85,7.67.94.57,1.98,1.03,3.03,1.35,2.06.63,3.57-.13,4.61-2,.42-.74,1.1-1.35,1.72-1.95.09-.09.66.08.75.26.88,1.77,1.71,3.58,2.55,5.37.06.14.15.31.12.43-.68,2.4.88,4.34,1.42,6.46.53,2.05.12,2.9-1.99,3.25-3.03.5-5.91,0-8.78-.86-.51-.15-1.03-.3-1.56-.39-3.13-.56-5.14-2.59-6.64-5.2-1.36-2.35-2.68-4.72-3.83-7.17-.57-1.22-.71-2.64-1.08-3.96-.38-1.35-.61-2.68-.02-4.03.06-.13.05-.3.04-.45-.15-2.16-.41-4.32-.4-6.47,0-1.11.51-2.22.79-3.33.13.01.25.03.38.04Z"/>
      <path class="cls-1" d="m97.64,26.8c-.23.32-.46.64-.68.97-.58.9-1.14,1.8-1.73,2.69-.23.34-.52.64-.76.98-1.08,1.51-2.44,2.89-3.16,4.56-1.42,3.29-1.42,6.8-.58,10.27.26,1.07.67,2.13,1.19,3.1,1.01,1.9,2.62,2.43,4.67,1.85.82-.23,1.73-.18,2.59-.17.13,0,.41.52.35.71-.63,1.88-1.32,3.74-1.99,5.6-.05.14-.11.33-.22.39-2.18,1.21-2.44,3.69-3.56,5.57-1.08,1.83-1.96,2.14-3.7.89-2.49-1.79-4.18-4.18-5.6-6.82-.25-.47-.52-.94-.82-1.38-1.81-2.61-1.8-5.47-1.02-8.37.7-2.62,1.44-5.23,2.36-7.78.46-1.27,1.37-2.37,2.04-3.56.68-1.22,1.46-2.33,2.83-2.86.13-.05.25-.18.34-.29,1.42-1.63,2.76-3.34,4.3-4.86.79-.78,1.93-1.21,2.91-1.79.08.1.16.2.24.3Z"/>
      <path class="cls-1" d="m100.23,67.22c-.39.07-.78.12-1.17.21-1.04.22-2.08.47-3.13.68-.4.08-.82.09-1.23.15-1.83.3-3.77.32-5.46.99-3.33,1.32-5.81,3.81-7.67,6.85-.57.94-1.03,1.98-1.35,3.03-.63,2.06.13,3.57,2,4.61.74.42,1.35,1.1,1.95,1.72.09.09-.08.66-.26.75-1.77.88-3.58,1.71-5.37,2.55-.14.06-.31.15-.43.12-2.4-.68-4.34.88-6.46,1.42-2.05.53-2.9.12-3.25-1.99-.5-3.03,0-5.91.86-8.78.15-.51.3-1.03.39-1.56.56-3.13,2.59-5.14,5.2-6.64,2.35-1.36,4.72-2.68,7.17-3.83,1.22-.57,2.64-.71,3.96-1.08,1.35-.38,2.68-.61,4.03-.02.13.06.3.05.45.04,2.16-.15,4.32-.41,6.47-.4,1.11,0,2.22.51,3.33.79-.01.13-.03.25-.04.38Z"/>
    </g>
  </g>
</svg>