<?xml version="1.0" encoding="UTF-8"?>
<svg id="Layer_2" data-name="Layer 2" xmlns="http://www.w3.org/2000/svg" viewBox="0 0 308.89 536.32">
  <defs>
    <style>
      .cls-1 {
        fill: #fff;
        stroke-width: 0px;
      }
    </style>
  </defs>
  <g id="Layer_1-2" data-name="Layer 1">
    <g>
      <path class="cls-1" d="m285.4,360.24c.69,1.32-.41,1.7-.66,2.64-.97,3.61-1.85,6.21-3.11,9.72-.68,1.89-1.16,3.99-1.86,6.29-5.54,18.36-9.36,37.31-13.5,56.15-1.88,8.57-4.02,17.82-5.68,26.88-.8,4.33-.5,9.7-3.35,13.34-1.5,1.91-2.9,2.19-4.82,3.34-2.33,1.4-3.5,2.07-5.78,3.15-7.11,3.39-14.13,6.46-21.2,9.89-11.31,5.49-23.04,10.64-34.84,15.67-3.1,1.32-7.28,2.22-10.21,3.79-2.22,1.2-4.06,2.57-6.49,3.63-6.02,2.63-13.51,5.08-19.3,7.85s-11.19,6.64-17.61,9.19c-3.85,1.53-13.96,5.09-17.66,4.46-.64-.11-.99-.75-1.56-.78-.26-.01,0,.8-.76.84-4.54.21-13.2-5.22-17.2-7.68-7.66-4.71-13.65-10.39-20.79-15.69-14.98-11.12-29.86-23.03-45.51-33.46-.61-.41-3.01-2.69-3.34-2.86-.53-.27-1.31-.08-1.55-.21-.05-.03.46-.57-.16-1.15-.87-.81-3.04-1.74-4.1-2.55-5.27-4.02-16.19-11.01-19.15-16.19-3.38-5.93-2.34-14.58-2.7-21.08-.38-6.82-.71-13.16-1.07-19.8-.08-1.44-1.62-4.04-.02-4.68-1.59-1.48-.05-3.34-.13-5.12-.13-2.83-.52-5.89-.66-8.85-.14-2.96-.48-5.89-.62-8.76-.02-.48.79-6.12.98-6.38.27-.38.83-.23,1.2-.24-.21-.59-.4-1.21-.09-1.82.39-.77,2.58-3.75,3.23-4.17.3-.19.77-.22,1.13-.23l-.77-.97.38-.4c1.1-.42,2.9-1.04,3.86-1.57,2.23-1.26,1.55-1.04,4.24-1.98,18.76-6.59,47.26-5.46,67.87-5.55,5.23-.02,12.05-.66,17.22.24.93.16.72.93,1.4.95.76.02,2-.16,2.93-.2,3.05-.12,7.28.25,10.39.85.46.09,2.56.18,2.83.29.32.13.67.9.95.91.2,0,.85-.82,1.35-.95.66-.17,1.21.3,1.7.24.24-.03.26-.52.43-.63.29-.18.77-.13.88-.25.27-.31.69-2.63,1.48-2.63h11.07c-.51,2.04-.88,4.1-1.44,6.14-.21.79-.84,1.32-1.07,1.99-.49,1.45.14,3.57,1.14,4.7.25.29,2.11,2.14,2.25,2.22.17.1,1.77.92,1.93.99.59.26,1.83.73,2.42.67,2.44-.24,3.06-7.21,3.55-8.99.25-.9,1.07-2.09,1.38-3.22.4-1.47-.07-3.35,1.18-4.81.35-.21,7.58-.24,8.2-.09.41.1.44.9.83,1.18.81.58,2.31.87,2.94,1.38,3.84,3.09,8.37,6.49,13.09,9.5,2.13,1.36,5.47,2.79,7.31,4.26,1.47,1.17.17.78,2.11,1.44,2.2.76,1.13,1.22,1.55,1.49.1.07,2.1.12,2.37.41.37.4.26,1.09.45,1.25.14.13,2.45,1.12,3.3,1.6,1.73.97,4.61,2.08,5.89,2.83.09.05.53,1.16,1.24,1.66,4.12,2.91,9.57,5.51,13.93,8.23,1.05.66,2.99,2.47,4.05,3.11.64.39,1.87.15,2.4,1.3l.39-.77c1.09,1.35,2.44,2.92,3.89,3.89,1.89,1.26,4.8,1.49,6.21,3.49,1.06-.69.74-2.99,2.52-2.32-.15-3.25-.06-6-2.91-8.16-.83-.63-2.93-1.35-3.22-1.62-.09-.08.31-.63-.05-.92-.09-.07-1.06-.41-1.87-.95-7.22-4.85-14.45-9.36-21.89-14.16s-15.57-9.54-23.25-14.82c-1.66-1.14-3.15-2.68-5.07-3.48,1.53.04,3.4-.58,4.85-.58,2.99.01,5.73,3,8.17,4.65,1.6,1.09,4.21,3.18,5.42,3.92.41.25,2.48.62,3.11,1.12,3.32,2.59,3.15,2.08,6.5,3.93.59.33,1.76,1.9,2.43,2.32,3.22,2.05,6.72,4.15,9.96,5.97,2.99,1.67,5.75,3.18,8.54,5.02,3.25,2.14,6.04,4.87,9.88,5.97,2.66-2.01,2.71-6.26.2-8.62-.76-.71-2.47-1.28-2.64-1.47-1.39-1.58-.97-.85-2.87-1.97-3.35-1.97-7.14-5.21-10.48-7.39-.91-.6-2.89-1.07-3.49-1.6-.68-.6.74-.11-1.67-1.4s-3.99-2.09-5.37-3.74c-.3-.35-1.81-.49-2.24-.76-.32-.2-.46-.82-.82-1.06-2.42-1.58-5.01-2.93-7.34-4.71-.16-.88.38-.53.96-.58,1.52-.11,4.5-.11,5.75.76.44.3.5.96.84,1.22.44.34.98-.05,1.38.16.89.48,1.92,3.31,3.89,2.14v1.17s.78-.4.78-.4l.07,1.08c1.76.85,4.25,1.81,5.88,2.79.42.25.49,1,1.03,1.34.63.4,2.13-.33,1.18,1l4.55,2.12c3.74,2.3,7.19,5.42,11.27,7.12.44.18,1.95.77,2.25.74.72-.08,2.48-3.24,2.71-3.96.04-.12.4-2.41.39-2.54-.18-2.35-4.41-6.03-6.8-5.41.3-2.19-.68-1.46-1.37-1.93-2.16-1.48-4.64-3.31-6.71-4.66-1.44-.94-3.92-1.3-4.74-3.12h6.99l-.39.77c.36.01.86,0,1.13.23,1.93,1.55,3.77,2.62,5.96,4.07.53.35.5,1.22,1.86.94v1.38c2.05-1.15,2.77,1.74,5.05,1.02,2.09-.65,3.57-6.86,1.94-8.79l5.03-.24.75.43c.25,1.12-1.35,2.09-1.4,2.21-.29.63-.39,4.41-.48,5.14s-.8,1.13-.96,1.73c-2.58,9.5-5.51,20.04-7.79,29.76-2.35,10.03-3.76,20.45-6.19,30.32-.6,2.42-1.4,3.18-.9,6.13s1.74,2.55,3.6,3.78c1.15.77,1.69,1.09,2.87,1.79,2.11,1.24,3.75,3.46,6.27,1.83-.12-2.39.88-4.59,1.38-6.71,4.14-17.85,7.07-36.05,12-53.07,1-3.44,3.06-7.99,3.96-11.71.13-.55-.35-1.57-.07-2.27s1.12-.98,1.3-1.62c.41-1.39.35-3.83.97-5.63.14-.4.81-2.22.91-2.28.68-.39,3.5-.76,3.91.21.64,1.51-2.82,8.22-3.24,10.3-.24,1.19.11,2.84-.33,4.1-.48,1.35-2.25,3.72-2.71,5.2s-.94,4.03-1.44,5.99c-4.26,16.73-7.52,34.03-10.9,50.84-.51,2.53-.76,5.71-1.48,8.23-1.39,4.82-2.61,5.99-7.52,5.26-.59-.09-1-.62-1.63-.71-28.86-4.38-58.6-6.59-87.82-2.41-7.84,1.12-21.16,3.75-27.32,8.81-3.65,3-4.07,7.88-4.31,12.39-.18,3.24-.28,7.7-.18,10.91.03,1.06.77,1.98.61,3.49-.31,2.96-3.84,2.8-3.73-.8.03-.95,1.03-1.82.94-2.27-.07-.42-.96-.69-1.11-1.62-.8-4.95-.49-16.35,1.64-20.86.97-2.05,4.93-6.52,6.91-7.47,6.76-3.26,14.29-3.75,21.56-4.84,6.55-.98,13.5-2.18,20.2-2.95,2.52-.29,2.21.56,3.48.55.81,0,2.31-1.07,3.53-1.1.97-.02,4.13.21,4.23,1.13,5.72-2.56,13.51-.14,19.76-.39.75,1.9,1.23-.3,2.36-.36,3.22-.16,8.29.98,11.69,1.17,3.43.18,7.34.09,10.69.17,1.16.03,5.58.94,5.34-.79-.02-.15-1.98-1.96-2.12-2.04-1.15-.64-2.29-.1-2.4-.16-.09-.05-.16-.72-.71-1.01-3.21-1.75-5.98-.56-8.85-.86-18.92-1.94-36.7-3.02-55.57-1.33-12.98,1.16-26.25,3.05-37.78-3.98-4.16-2.54-8.27-6.93-12.14-9.58-2.06-1.41-4.53-2.15-6.93-4-11.79-9.08-23.04-17.63-35.22-26.18-.45-.31-2.07-.68-2.45-1.25-.07-.11-.13-2.48-.27-2.66-.46-.57-1.64.12-1.54-1.57.08-1.38,2.03-4.8,3.04-5.65,1.15-.98,6.17-1.7,7.78-1.56.53.04.99.67,1.54.58,1.33-.21,2.06-1.1,4.63-.99,4.9.21,9.81-.24,14.86-.12,2.43.06,5.41,1.15,7.4.02l.35.75c.48-.28,1.01-.38,1.57-.38,8.53,0,16.22,1.2,24.53,1.51,3.08.11,6.09.05,9.1.07.39-2.95-4.45-4.31-6.81-4.85-1.84-.42-4.2.16-5.06.04-.38-.05-.62-.66-.95-.76-2.84-.88-7.84-1.03-11.13-1.17-1.71-.07-3.44-1.22-4.8.13v-1.16c-2.76.26-5.55-.63-8.36-.78-13.3-.7-26.89-1.35-40.03-.02-12.15,1.23-36.47.8-42.85,12.31-1.44,2.59-1.63,9.98-1.55,13.2.08,3.41,1.92,17.91.98,19.78-.33.66-2.24,1.43-2.08,3.1.04.39,2.41,2.3,2.73,3.77.16.76-.22,1.39-.13,2.04,1.03,8.1.42,21.23,6.76,26.87,1.09.97,4.05,2.31,4.72,2.86,1.64,1.35,3.83,3.65,5.63,4.86.77.52,3.04,1.14,3.38,1.5,2.9,3.01,6.95,5.5,10.38,8.03,11.03,8.12,21.88,15.94,32.46,23.85,2.35,1.76,5.65,4.6,8.58,6.61,6.89,4.72,14.28,10.01,20.85,15.78.7.62,2.05,1.04,2.41,1.38.44.41.3,1.13.46,1.27.19.17,2.13.07,3.03.67.53.35.59.97,1.11,1.32.89.61,2.58.72,3.3,1.16.49.3.58,1.37,1.28,1.5.42.08,1.03-.35,1.51-.31,6.68.62,11.49-1.7,17.18-4.58,15.57-7.88,32.51-14.06,48.75-21.19,4.89-2.14,11.79-6.63,16.26-8.21,1.09-.38,3.72-.73,4.66-1.24.66-.36.97-1.22,1.72-1.52,1.17-.47,3.45-.28,4.99-1.04,4.31-2.13,8.19-4.46,12.72-6.25,1.2-.48,1.38-.83,1.62-.94.41-.18,2.87-.14,3.04-.28.41-.34.21-1.09.63-1.42.58-.45,3.08-.96,3.99-1.36,1.16-.51,2.79-1.59,3.82-2.12,3.16-1.61,8.62-3.15,11.38-5.57,2.56-2.26,2.5-4.77,3.03-7.85,1.51-8.83,2.78-18.19,4.91-27.13,3.12-13.12,6.59-26.41,9.5-39.69.48-2.16.63-1.43,1.11-2.79.34-.97.22-2.67.52-3.75,2.36-8.54,4.97-16.9,7.92-25.1.44-1.23.07-3.5,2.33-3.5h7.96Zm-125.73,11.88c-1.57-.97-3.79-2.96-5.59-3.83-.58-.28-3.51-.99-3.9-.85-3.36,3.97-.95,7.01,2.39,9.66,1.13.89,2.87,2.29,4.23,2.18l.14,1.18c1.58.32,2.89,1.03,4.14,2.1,2.93,2.51,5.17,3.75,8.23,5.77,1.54,1.02,3.13.93,3.02,3.37,1.99-.78,2.52.2,4.26.8l-.38.75c2.29-.56,2.84,1.55,4.31,2.53,8.78,5.87,17.78,10.92,26.2,17.28.54.41,3.47,1.9,3.6,2.06.21.25,0,.84.11,1.03.02.04.58-.24,1-.05,2.11.92,10.6,8.15,12.37,5.93.93-1.51,2.35-5.07,1.6-6.82-.28-.65-2.12-2.35-2.77-2.92-4.15-3.64-8.66-5.49-12.75-8.2-16.64-11.03-33.42-21.65-50.22-31.98Zm-5.69,9.6c-.37-.22-.98-.09-1.4-.34-1.73-1.05-3.22-2.85-5.41-2.43-.9,1.53-1.45,4.57-.76,6.25.24.59,5.33,4.31,6.31,4.97.56.37,1.21.26,1.63.52.33.2.91,1.3.99,1.33.6.24,1.25-.38,1.42-.25.09.06.14.65.47.86,2.64,1.76,5.93,3.67,8.09,5.53.5.43,1.35.45,1.51.65.47.56-.7,1.15,1.47,1.02,2.94,2.74,6.89,4.49,10.07,6.64.93.63,1.78,2.07,2.7,2.75,1.78,1.32,6.6,2.83,8.18,4.23.66.58.73,1.58,1.06,1.87s1.63.44,2.36.94c7.1,4.86,14.75,9.62,22.03,14.86,1.36.98,3.03.45,4.06,2.12l.78-.73c.66,1.82,2.04.2,2.43-1.07.66-2.16.14-3.15-1.29-4.75-3.07-3.44-12.86-8.71-17.39-11.74-7.23-4.82-13.99-10.26-21.26-14.42-5.99-3.43-11.7-8.07-17.66-11.92-1.89-1.22-5.28-2.22-6.45-4.25l-1.12.35c.21-1.81-1.18-1.38-2.11-1.99-.39-.26-.49-.86-.72-1.01Zm-67.13,2.23c-.09-.07-1.28.64-1.81.68-2.5.21-5.28-1.95-6.71,2.02,1.82-.39,1.74,1.67,2.01,1.89s1-.09,1.4.14c.2.11,2.63,2.4,3.46,2.99,4.44,3.12,9.12,7.02,13.69,9.97.67.43,1.13,1.27,1.95,1.57l1.18-.62,1.56,2.55,2.72-.99c-1.44,2.98.09,2.99,2.18,4.42,9.38,6.45,19.42,14.29,28.88,21.05,4.36,3.12,5.51,4.81,11.5,4.4.45-.03,2.55-1.14,2.73-1.5-.18-2.07-1.78-2.19-2.75-3.11-8.9-8.41-23.83-17.17-34.2-24.87-2.05-1.52-4.06-4.38-6.74-4.71v-.92c-2.87-1.48-1.45,1.19-2.19,2.91h-1.35c.28-1.2,1.69-2.46.4-3.31l.38-.39.98.19.19-.77c-1.23.3-1.34-.87-1.83-1.19-2.07-1.34-6.69-3.41-8.3-5.22-.29-.32-.02-1.02-.33-1.19-.59-.32-1.17.17-1.6,0-1.18-.44-5.78-3.97-6.99-5.03-.3-.26-.34-.91-.4-.96Zm-11.1,5.68c-1.69-1.48-3.98-3.46-6.08-4.61-1.51-.82-2.35-.93-4-.34-.16.06-2.44,1.24-2.52,1.36-.53.69-.11,2.68.31,3.34,1.82,2.9,5.29,4.03,7.7,5.82,1.02.76.64,1.94,2.49,1.6l.06,1.08c1.6-.32,2.97,2.33,4.04,3.16.68.53,4.01,1.99,4.3,2.29.74.75.38,1.52.63,1.92.09.15,2.4.57,3.23,1.23,1.12.88,1.24,2.06,1.77,2.51.5.42,2.35.85,3.19,1.39,2.71,1.72,4.83,3.97,7.56,5.54s6.14,5.08,8.79,7.13c2.36,1.81,4.79,3.72,7.05,4.76,3.19,1.46,5.85,4.05,9.72,5.52.67.25,1.51.72,1.61.74,1.03.2,7.33.37,7.9-.39-.21-.6-.21-1.75-.5-2.21-.15-.24-3.88-3.16-4.46-3.59-3.99-2.98-8-5.36-12.1-8.4-.91-.67-2.18-2.31-2.86-2.77-.36-.25-1.09-.03-1.46-.29-.41-.3-.25-1.11-.45-1.29-.16-.14-1.44-.18-2.24-.68-2.03-1.26-4.75-3.7-6.82-5.24-4.57-3.39-9.27-6.69-14.14-10.34-1.17-.88-2.54-2.85-4.31-2.87l.4-1.16c-2.32,0-4.04-2.66-6.25-3.32-.07-1.75-.23-.49-1.15-.79-.15-.05-1.16-.86-1.41-1.08Zm34.33-1.7c-.83-.52-1.91-1.13-2.81-1.66-2.1-1.25-5.29-1.5-7.78-1.57-.83-.02-1.66.24-2.43.49l-.45,2.21c.46.07.95.13,1.36.4,13.24,8.58,25.92,18.84,38.68,27.77,2.38,1.67,4.58,3.7,6.7,5.15,2.64,1.81,2.12.86,4.65,3.51.39.41,2.24.63,2.64,1.15.25.33.3,1.26.36,1.3.08.06.94-.66,1.93-.21.72.33,2.41,2.61,3.31,3.31,1.03.8,4.8,3.29,5.86,3.46,1.75.28,7.81.26,7.02-2.42-.5-1.71-1.25-1.22-2.17-2.06-5.15-4.71-11.55-8.44-17.38-12.56-3.49-2.46-7.24-5.5-11.05-7.95-4.27-2.75-8.8-6.04-12.88-8.9-4.92-3.44-10.74-8.43-15.54-11.44Zm25.61,5.48c-3.43-2.21-8.91-6.29-12.68-7-2.18-.41-8.13-.13-4.68,2.79,2.98,2.52,6.52,4.19,9.38,6.57,1.27,1.05.68.84,1.27,1.39,1.02.96,5.06,2.81,6.64,3.9,5.02,3.49,9.41,7.36,14.55,10.74,1.54,1.01.64.57,1.59,1.46.36.34,1.4.36,1.75.99l.38-.78c.45.47.95.87,1.37,1.36,3.8,4.39,12.2,8.81,17.28,12.23.88.59,1.92,2.06,2.52,2.47,1.37.92,4.73,1.13,4.67,3.75l9.3-.4-.58-2.31c-4.45-2.68-8.24-6.32-12.43-9.33-7.07-5.08-14.67-9.6-21.62-14.51-1.86-1.32-3.22-3.35-5.38-3.77l.37-.73c-.54-.12-1.07-.28-1.51-.63-3.21-2.52-6.78-4.79-10.14-6.94-.71-.45-1.4-.84-2.05-1.26Zm10.5-3.12c-2.8-1.77-4.85-1.71-8.03-1.29l.76,2.15c2.76,1.86,5.28,4.09,7.98,6.01s6.21,3.96,9.01,5.94c.31.22.36.84.89,1.18,1.1.71,2.68.43,3.9.26-2.57,2.36-.85,1.41.12,1.97,1.91,1.08,3.54,3.11,5.12,4.25,6.34,4.59,13.27,8.58,19.82,12.82.7.45,1.22,1.49,1.99,1.89.67.35,1.82.35,2.01.52.18.16.05.87.47,1.26.58.55,3.29,1.6,4.07,2.15,1.17.82,3.78,3.36,4.77,3.89,1.38.74,7.67,1.42,8.45.03.17-2.67-1.17-1.9-2.36-2.72-16.85-11.6-34.07-23.02-50.88-34.59-2.62-1.81-5.54-4.08-8.09-5.7Z"/>
      <path class="cls-1" d="m123.19,364.08l1.89-6.83c2.7-9.75,4.59-20.78,7.84-30.26.73-2.14,2.71-5.04,3.37-7.12,1.59-4.97,2.52-8.13,4.52-12.9.69-1.65,1.96-4.94.92-6.51-1.26-1.9-9.81-3.11-7.69-7.67,1.69-.39,1.91-1.4,4-.88,1.3.32,4.42,2,5.94,2.07.15,0,2.22-.83,2.81-.71,1.07-1.63,1.49-3.68,2.31-5.35.9-1.83,1.85-3.78,2.78-5.69,2.65-5.48,6.92-12.46,10.14-17.44,1.17-1.81,2.4-1.36,1.94-4.6-.71-5.09-4.24-9.73-6.01-14.41-.22-.59-.32-2.82-.4-2.94-1.49-2.18-1.52-2.86-2.48-5.23-5.05-12.5-12.18-24.64-16.57-37.5-.13-.39.22-1,.15-1.11-.26-.41-1.41-.34-1.99-2.08s-1.79-3.86-2.19-5.58c-.3-1.27.73-2.45-1.19-2.12-.06-.03.4-.9.23-1.35-.35-.95-2.13-3-2.18-3.19-1.01-4.08-1.28-4.84-3.08-8.53-.29-.59-.01-1.21-.06-1.25-.22-.16-.84,0-1.29-.42-.33-.31-.29-2.21-.4-2.53-.25-.71-.75-2.01-1.07-2.65-1.59-3.24-3.26-6.22-4.64-9.38-.8-1.83-1.49-4-2.24-5.88-.99-1.76-2.89-.2-3.64-.26-2.58-.22-1.69-.55-4.43.06-12.48,2.78-31.91-5.5-42.45-11.63l.33-.71c-1.67-.02-2.1-2.61-2.27-2.79-.05-.05-.86.45-1.34.41-1.44-.12-.99-1.41-1.34-1.78-.55-.58-1.5-.56-2.02-1.13-.71-.77-.43-.53-1.55-1.54-7.93-7.15-14.66-20.22-17.03-30.37-3.12-13.37-2.07-26.96,3.27-39.41,11.45-26.68,39.59-42.42,68.97-38.66,7.9,1.01,17,3.92,23.67,7.79,1.06.62,2.3.16,1.97,1.73,2.89.41,6.59,3.96,9.12,6.23,15.93,14.32,25.21,37.37,20.65,59.38-1.08,5.19-2.59,12.09-5.2,17.14-4.22,8.16-12.31,16.88-19.53,22.28-4.25,3.18-10.22,6.94-15.73,8.98-1.17.43-2.73.22-2.85.31-.15.11-.19.66-.45.82-.34.22-1.07-.05-1.35.62-.52,1.28.4,3.16.78,4.29.13.38-.22.97-.13,1.1,1.93,3.05,2.35,4.56,3.89,7.56,5.31,10.35,10.3,22.16,15.14,33.42,4.13,9.61,8.93,19.86,13.33,29.59,3.78,8.35,7.03,17.29,11.56,25.48.19.34-.11.87.47,1.15,2.65-1.11,4.2-3.14,6.53-4.77.82-.57,3.14-1.95,4.01-2.17,5.19-1.33,11.7-1.19,16.72,1.06,8.42,3.76,16.29,8.05,24.31,12.88,4.8,2.89,10.31,5.66,15.31,8.69,2.58,1.56,5.69,3.69,8.74,5.44,10.38,5.97,20.74,11.26,30.57,18.11,2.11,1.47,6.84,2.76,9.47,4.33,3.34,1.99,6.81,5.32,9.83,7.74,3.3,2.64,5.82,3.42,7.65,7.9,1.69,4.15-.34,8.96-1.77,12.79-.49,1.32-.8,2.38-1.51,3.88-.79,1.69-1.26,4.24-1.62,4.95-.22.43-1.59,2.13-2.29,3.38-2.92,5.17-5.66,11.16-8.04,17.01-.73,1.79-.97,4.24-2.12,5.65h-9.52c-.15-.98.98-1.25,1.31-1.93.55-1.14.76-2.6,1.06-3.68,1.04-3.81,2.64-7.06,4.12-10.71,3.16-7.77,6.53-13.81,10.62-21.15,1.79-3.2,2.87-7.55-2.45-7.11-3.91.32-3.88,4.33-7.06,5.72.08,1.9-3.43,4.52-3.91,5.46-.33.64-.18,1.55-.46,2.23-.2.49-1.12.84-1.57,1.6-.58.98-1.29,3.13-1.87,3.95-.27.38-1.17-.08-1.32.61-.13.59.32,1.22.15,1.72s-1.45,2.19-1.82,3.1c-2.37,5.84-4.87,11.82-7.55,17.48-1.32,2.79-1.85,3.57-5.18,3.1-.19-1.21.71-1.8,1.04-2.64,1.5-3.8,2.75-7.07,4.47-10.69.72-1.5,1.15-3.97,2.64-4.74l-.78-1.35c2.04-.33,2.3-4.94,3.1-5.95.39-.48.86-.17,1.09-.32.1-.06.1-1.78.31-2.24,1.39-3.04,3.49-5.09,5.22-7.6,1.93-2.8,3.65-6.43,5.41-8.96,1.57-2.25,6.37-5.73,2.92-8.36-1.33-1.01-5.48-3.66-7.09-4.16-2.28-.71-3.62-.06-5.59,1.08-3.44,1.99-4.54,4.24-6.53,7.16-3.65,5.38-7.96,12.24-10.85,18.33-.54,1.14-1,3.54-1.58,4.53-.28.48-1,.04-1.2.51s-.05,1.59-.3,2.34c-1.95,5.86-4.95,11.71-6.87,17.42-.39,1.17-.58,5.69-2.32,6.03-.67.13-3.84.11-4.37-.11-.62-.26-2.46-2.62-3-3.02-1.53-1.13-4.37-2.23-5.93-3.24-12.32-7.97-24.83-16.14-37.67-23.9-3.77-2.28-8.61-5.42-12.83-8.19-.59-.39-3.72-1.84-3.9-2.06-.23-.27,0-.93-.09-1.05-.06-.08-1.19.36-2.03-.07s-.84-1.15-1.34-1.51c-.75-.53-6.03-2.75-6.74-2.49-1.84.69-3.2,4.84-2.93,6.6.04.27,3.06,3.33,3.53,3.68,1.5,1.12,3.37,2.01,5.17,3.37.43.33,1.36.38,1.55.61.24.28,0,.98.08,1.06.12.14.92-.38,1.31-.31.54.09.89,1.01,1.42,1.27s1.32.1,1.53.22c.04.02-.38.59-.02.94.67.64,3.76,1.85,4.88,2.53,2.09,1.27,4.05,2.83,6.21,4.27,10.42,6.9,20.99,13.18,31.26,20.03.55.37,1.24,1.13,1.57,1.73-1.68-.04-3.45.15-5.09-.23-2.49-.58-4.84-2.7-6.8-3.97-9.52-6.16-19.05-12.34-28.39-18.35-.74-.48-2.51-.78-3.23-1.36-.38-.3-.02-.84-.35-1.12s-6.55-4.14-7.44-4.66c-1.17-.67-2.65-.11-2.31-1.77-2.57.3-4.74-3.15-7.74-1.54l.38.75-1.13.04c-1.5,6.04.89,6.3,4.8,9.3,3.04,2.33,6.64,5.31,9.95,7.16,1.89,1.05,3.5,2.64,5.67,4.03,1.72,1.11,4.55,2.16,5.88,3.23.08.07-.37.87.26,1.1l1.75-.37.18,1.19c1.71.45,3.54,2.52,5.06,3.48,1.93,1.22,4.32,1.89,6.03,3.49-2.5-.03-4.54.96-6.89-.27-.47-.24-.51-.76-.77-.91-9.82-5.6-19.54-12.05-29.33-18.26-.41-.26-1.8-1.39-2.12-1.54-.84-.4-3.24-.41-3.81.39-.13.19-1.48,4.06-1.52,4.36-.12.83.66,1.29.24,2.18.47.21.93.42,1.29.82,2.2,2.44,11.67,9.46,14.83,11.28,1.33.76,2.9.36,3.99,2.14.03,1-5.06.6-6.04.22-.76-.29-1.17-.95-1.84-1.3-.37-.2-.99.12-1.02.07-1.11-2.01-1.35-1.35-3.04-2.45s-4.95-3.83-6.69-4.66c-.23-.11-3.14-.67-3.3-.63l-.26,1.13-1.13.29-.56,4.07c.93,1.43,2.32,3.15,4.08,3.45.11.14-.51.77-.58.77h-9.13c-.17-1.37.34-2.7.82-3.96.33-.89.82-1.98,1.19-3.16,5.04-15.84,9.44-32.24,15.67-47.66,1.2-2.96,2.79-6.87,4.2-9.42,3.94-7.16,7.15-14.54,11.78-21.26,3.93-5.71,8.64-11.93,14.32-17.13.34-.31,2.43-1.27,2.53-1.83.39-2.03-.5-1.95-1.52-2.69-.27-.2-.36-.69-.54-.79-1.93-1.08-7.35-.58-9.43.23-2.9,1.14-5.31,4.3-7.65,6.49-1.62,1.52-2.6,2.32-4.14,4.69-6.11,9.4-11.37,19.18-16.42,29.39-.17.34,0,.93-.12,1.06-.41.42-1.21.26-1.35.39-.06.06.25,1.02.03,1.72-.63,2.02-1.88,4.31-2.68,6.33-6.43,16.16-11.97,33.7-16.56,50.79-.63,2.35-.42,5.3-2.35,7.19h-9.91Zm14.52-320.71c-23.47-15.45-58.24-11.12-75.43,11.31-4.05,5.29-10.09,14.94-11.19,21.47-.37,2.22-.73,3.99-1.16,6.02-.2.93-.38,4.61-.4,5.84-.18,8.66,2.39,20.34,6.52,28.26.55,1.05,1.69,1.59,2.24,2.88.36.85.05,1.56.1,1.63.07.11,1.54.94,2.08,1.6,1.61,2,1.13,2.17,3.3,4.07,1.17,1.03,1.74,2.39,2.87,3.57,1.44,1.5,3.54,2.27,5.46,3.63,1.52,1.08,2.53,3.61,4.85,2.73l.38,1.74c1.94.4,3.67,1.58,5.42,2.33,5.71,2.44,12.14,4.24,18.8,5.16,2.86.39,3.42.31,6.16-.02,6.24-.75,12.2-1.14,17.99-3.19,2.53-.9,2.9-1.65,4.58-2.79.43-.29,1.95-.46,2.61-.77,6.53-3.14,15.39-10.59,19.58-16.48,2.29-3.22,3.77-5.52,5.1-8.93.34-.86,2.81-5.65,2.8-5.99-.01-.24-.56-.55-.57-.78,0-.31,1.8-4.51,2.07-5.64,1.99-8.51.94-21.83-2.34-29.94-3.48-8.6-7.68-14.95-14.31-21.63-.56-.57-1.74-.07-1.48-1.61l-.93-.02c-.51-1.63-3.4-3.34-5.1-4.46Zm124.01,251.33c-3.69-1.75-8.26-4.58-11.88-6.66-14.1-8.1-27.68-17.22-41.87-24.88-1.61-.87-3.45-1.74-5.32-1.68-.96.03-3.98.67-4.51,1.43-.77,1.09-.16,2.71.79,3.47,4.85,3.87,10.61,6.5,15.65,9.88,2.16,1.45,4.2,2.81,6.71,4.28,13.19,7.79,26.27,15.84,39.44,23.42,1.01.58,3.01.31,3.11,1.84l.39-.77.59.8c1.98-.15,2.59-1.53,4.01-2.41-.78-1.44.18-.94.44-1.38,1.87-3.09-3.91-4.32-5.47-5.77-.31-.29-.13-.67.03-.96-1.41.51-1.73-.43-2.11-.61Zm-48.14-15.19c-5.01-2.95-11.16-7-16.19-9.58-4.1-2.1-5.88-1.96-8.42,2.03-.34.54-.38,1.25-.77,1.78.02.15.95,1.37,1.17,1.61,2.02,2.16,7.48,5.44,10.16,7.13,5.51,3.49,11.27,6.54,16.82,10,1.7,1.06,3.32,2.5,4.54,3.22,5.44,3.25,11.25,6.13,16.72,9.3,4.95,2.87,9.94,7.41,14.96,9.85,1.02.5,4.47,1.88,5.41,1.99,2.19.27,2.09-1.63,2.75-2.7.47-.76,1.79-2.01,1.83-3.17,0-.17-.3-2.29-.37-2.39-.62-.85-5.69-3.36-7.08-4.35-.56-.39-1.32-1.59-1.73-1.73-.51-.18-1.21.4-1.97,0-.4-.21-3.12-2.54-3.99-3.08-11.09-6.82-22.53-13.29-33.82-19.93Zm-.27,14.25c-.86-.19-1.75-.35-2.54-.77-6.89-3.66-13.45-8.51-20.03-12.22-.66-.37-4.92-2.49-5.21-2.46-.35.04-.6.68-.95.82s-.82-.16-1.16.05c-.61.39-2.71,3.8-2.93,4.64-.93,3.51,1.1,3.59,3.5,5.27,4.5,3.15,10.25,6.63,15.21,9.66.71.43,2.82.99,3.17,1.28.07.06-.33.72.22,1.12.93.67,3.75,1.45,4.78,2.06,1.75,1.05,4.04,2.82,5.95,4.02,8.52,5.34,16.7,10.93,25.74,15.27.55.26,2.8,2.98,3.63,3.46,1.99,1.16,5.09,2.68,7.23,3.58.48.2.47,1.12,2.06.38,1.68-.79,1.6-1.65,2.3-3.2.18-.41-.13-.87-.05-1.03.24-.53,1.68-.99,1.64-3-.06-3.02-4.35-4.52-6.39-5.85-8.98-5.87-18.52-11.75-27.46-17.2-1.97-1.2-3.97-2.74-5.6-3.73-.68-.41-2.62-1.08-3.49-1.39l.39-.76Zm2.97,19.18c-9.44-5.88-18.85-11.28-28.57-17.09-2.03-1.21-4.39-3.29-6.53-4.34-1.98-.97-3.34-1.61-5.01.29-.45.51-.18,1.15-.53,1.36s-1.06.13-1.16.22c-.04.03.32.58.24.87-.31,1.02-.92,1.35-.63,2.79.03.13,1.19,2.32,1.28,2.42.28.29,1.93.71,2.56,1.13,9.81,6.54,20.22,12.91,30,19.72,1.2.84,3.71,2.17,5,2.18v1.56c1.22-.64,1.33.27,1.94.51,1.63.64,3.6,1.72,5.27,2.58.94.48,2.57,2.81,2.97,3.02,2.45,1.31,4.46,2.29,7.12,4.01.71.46,2.71.94,3.18,1.26.33.23,1.75,2.25,2.17,2.49,1.18.69,3.82.32,4.17,2.84,1.31-1.35,1.36-.02,2.71.62.78.37,1.36.28,2.06.53.1.04.68,1.33,1.81.59.15-.1,2.15-2.57,2.26-2.83s1.17-4.06,1.19-4.28c.02-.42.05-.74-.28-1.07-.62-.91-1.57-.74-1.91-1.01-.07-.05.32-.6-.22-1.11-1.15-1.07-4.66-2.5-6.25-3.49-.61-.38-1.49-1.56-1.86-1.79-.34-.21-2.4-.62-2.64-.78-.58-.37-.62-1.24-1.25-1.45-.48-.16-1.12.22-1.36.06-.41-.27-1.6-1.85-2.46-2.42-4.77-3.15-10.33-6.33-15.26-9.4Zm-10.42,9.27c-5.29-4.11-14.81-8.93-20.94-12.66-2.82-1.71-8.09-5.86-10.73-6.79-.33-.11-3.05-.55-3.18-.46.03,1.6-2.07,2.48-2.51,3.47-.16.35.08.97-.11,1.47-.39,1.01-.89,1.97-1.19,3.01l.24.4c1.7.58,3.19,3.14,4.35,3.86.78.48,1.55.2,1.82.34.33.17,1.78,1.95,2.45,2.36,1.52.92,3.51,1.19,5.22,2.55.88.71.86,1.72,1.05,1.87.23.19,4.24,1.91,5.39,2.58,6.81,4.03,13.43,8.65,19.98,12.67,1.76,1.08.67.69,1.05,1.09.27.29,1.62.34,2.22.68,7.32,4.21,14.6,9.99,21.82,14.31,2.44,1.46,5.04,2.68,7.55,4.13,2.91-.79,2.32-3.03,3.06-4.52.54-1.09.35.11.77-1.71.11-.49.58-.87.62-1.38.05-.77-.58-2.96-1.13-3.52-.44-.44-1.04-.4-1.45-.7-1.41-1.06-4.28-2.14-5.04-3.12-.22-.29-.08-.89-.17-.99s-1.56.23-2.5-.41c-4.58-3.14-9.21-6.33-13.6-8.94-4.78-2.84-10.86-6.37-15.03-9.61Z"/>
      <path class="cls-1" d="m11.31,238.18l.57-1.95c.63-.95,1.47.13,2.15.25,3.47.62,3.95.58,7.34,2.33,1.92.99,2.88,1.06,4.42,1.8.94.45,1.43,1.55,2.25,2.02,1.03.59,2.32.52,3.3.97,2.98,1.38,4.61,3.48,6.97,5.47,1.03.87,3.24,1.29,2.25,3.77-2.09,5.22-12.28-1.77-14.99-3.08-4.5-2.18-10.06-3.91-13.68-7.31l-.98.22"/>
      <path class="cls-1" d="m116.59,283.26l2.32-.78c0,.32-.11.83.08,1.06.17.21,4.26,1.9,4.94,2.27.73.4.98,1.55,1.97.94.24,2.43.24,4.22-2.56,4.65-1.46.23-6.96-2.85-8.75-3.64-3.62-1.6-7.28-3.57-10.76-5.25-1.75-.85-6.1-1.62-6.88-3.52-1.63-3.96,1.61-4.75,4.74-3.57s6.36,3.17,9.34,4.64c1.71.85,5.51.61,5.55,3.2Z"/>
      <path class="cls-1" d="m62.51,258.08c.82-.17,3.95.89,4.95,1.28,3.3,1.29,6.76,3.34,9.94,5.01,1.94,1.02,7.67,2.3,5.92,5.68-2.05,3.96-6.96-.22-9.46-1.31-4.02-1.75-8.99-3.31-13.03-5.68-.96-.56-1.48-1.23-2.05-2.16,0-.6,3.01-2.68,3.73-2.83Z"/>
      <path class="cls-1" d="m215.27,348.92c.12-.45-.05-2.15.96-1.94.9.19.56,2.6-.96,1.94Z"/>
      <path class="cls-1" d="m145.72,358.25c-.39,2.6-.85,2.58-1.94.39l1.94-.39Z"/>
      <path class="cls-1" d="m228.86,60.23c.18,2.07-1.74,2.05-1.55,0h1.55Z"/>
      <polygon class="cls-1" points="282.47 421.59 281.92 422.34 280.54 420.81 282.47 421.59"/>
      <polygon class="cls-1" points="308.89 148.04 307.9 148.46 307.34 149.2 308.89 148.04"/>
      <rect class="cls-1" x="257.61" y="516.01" width=".77" height="1.55"/>
      <path class="cls-1" d="m195.06,387c.59.59-1.16,1.66-1.16.58,0-.26.93-.8,1.16-.58Z"/>
      <polygon class="cls-1" points="231.97 147.65 231.2 147.65 230.82 146.68 231.39 146.1 231.97 147.65"/>
      <rect class="cls-1" x="292.58" y="0" width="1.16" height=".77"/>
      <path class="cls-1" d="m129.36,70.75c.19.13,1.39,3.83,1.47,4.44.62,4.99-.12,11.51.8,16.63.05.27-.31.78-.28,1.17.11,1.17,3.41,1,4.28,1.64.34.25.76,2.46.66,2.98-.41,2.35-1.75,1.83-3.34,2.88-2.93,1.94-1.3,5.23-2.34,6.6-.97,1.27-6.03,1.19-6.83-.24-.91-1.62.12-5.73-2.51-6.76-.36-.14-.88.16-1.28.05-2.82-.73-7.38.14-10.59.14-2.98,0-4.38-1.07-4.79-4.16-.53-4.04,1.5-4.67,3.45-7.32,2.13-2.9,2.84-3.47,5.03-5.85.65-.71,1.22-2.57,1.8-3.25.54-.63,1.38-.62,1.72-1,.97-1.06,2.77-4.33,4.06-5.65.19-.2,2.63-2.27,2.81-2.31,1.76-.37,4.05.38,5.89.02Zm-13.71,18.45c-.66.89-1.78,1.67-2.06,3.08.02.27.77.99,1.05,1.12.24.11,4.93.63,5.24.57,4.12-.84,3.29-2.96,3.13-6.37-.01-.22.41-.54.39-.74-.02-.27-1.2-3.8-1.37-3.92-.56-.4-1.97.79-2.36,1.17-1.26,1.21-2.93,3.6-4.04,5.09Z"/>
      <path class="cls-1" d="m87.52,76.64l-.28.71c-1.98-.98-2.26-.16-3.17,1.45s-.94,2.83-.13,4.57c1.15.46,2.48-.09,3.64.25.91.27,1.91,2.61,3.02,1.69.6-3.1,4.23-1.88,6.29-.9,1.02.49,3.49,3.03,4.17,3.98.34.48,2.48,4.13,2.58,4.47.19.61.1,4.96-.07,5.64-.59,2.32-1.58,1.71-1.67,1.82-.75.88-1.86,3.74-2.55,4.62-1.73,2.21-7.45,3.83-10.15,3.87-1.42.02-6.89-.98-8.09-1.62-.47-.25-5.25-3.99-5.56-4.35-.69-.8-1.88-3.5-.89-4.34.71-.6,3.13-1.15,4.05-.98.3.06,4.82,3.24,5.01,3.48.42.52.22,1.14.26,1.19.12.12.9-.34,1.31-.28.45.07.87.53,1.26.56,2.05.13,4.85-.18,6.56-1.44,1.48-1.09,1.42-2.39,2.71-3.49-.62-2.49-.44-5.07-2.54-6.79-.81-.66-3.4-1.77-4.44-1.78-4.21-.05-7.08,3.2-11.49,1.78-1.05-.34-1.87-2.54-1.87-3.54,0-.6,1.52-4.9,1.71-5.83.35-1.68,1.05-8.3,1.89-9.13.67-.66,1.58-.62,2.08-1.52,3.34.19,6.68-.13,10.03-.03,2.79.08,2.89.47,5.84.02,2.17-.33,3.72.47,4.25,2.52,1.26,4.85-7.93,3.37-10.48,3.41-1.09.01-2.06.63-3.25-.01Z"/>
      <path class="cls-1" d="m97.55,121.23c-.37,1.12-1.12.57-1.94.38v-.77s1.94.39,1.94.39Z"/>
      <path class="cls-1" d="m193.9,277.04c-.59-.59,1.16-1.66,1.16-.58,0,.26-.93.8-1.16.58Z"/>
      <polygon class="cls-1" points="194.28 272.77 193.51 272.18 194.1 271.21 194.28 272.77"/>
    </g>
  </g>
</svg>