<?xml version="1.0" encoding="UTF-8"?>
<svg id="Layer_2" data-name="Layer 2" xmlns="http://www.w3.org/2000/svg" viewBox="0 0 103.4 84.04">
  <defs>
    <style>
      .cls-1 {
        fill: #fff;
        stroke-width: 0px;
      }
    </style>
  </defs>
  <g id="Layer_1-2" data-name="Layer 1">
    <g>
      <path class="cls-1" d="m21.4,56.47s-.09-.07-.1-.13c-.02-.1.11-.19.24-.17.08,0,.13.06.14.14.02.1-.08.17-.28.16Z"/>
      <path class="cls-1" d="m18.16,54.23s.01.08,0,.11c0,.02-.04.02-.07.04,0-.04-.02-.07-.02-.11,0-.01.04-.02.08-.04Z"/>
      <polygon class="cls-1" points="13.44 44.28 13.44 44.25 13.47 44.26 13.44 44.28"/>
      <path class="cls-1" d="m15.96,45.61s.02.02.01.03c0,0-.02.01-.03.02,0-.02-.01-.03-.02-.05.01,0,.02,0,.03,0Z"/>
      <path class="cls-1" d="m19.52,48.38s-.03.01-.04.02c0,0,0-.02,0-.03.01,0,.03,0,.05.01Z"/>
      <path class="cls-1" d="m8.63,48.85s-.05.03-.07.02c-.02,0-.02-.04-.03-.06.02,0,.05-.03.06-.02.02.01.02.04.03.06Z"/>
      <path class="cls-1" d="m23.24,55.67s-.02,0-.03-.01c0-.01,0-.03.02-.03,0,0,.02,0,.03.01,0,.01-.01.02-.02.03Z"/>
      <path class="cls-1" d="m49.79,67.25c1.28.7,2.35.41,3.66-.25,3.45-1.72,7.04-3.19,10.6-4.67,2.84-1.18,5.74-2.21,8.58-3.37,1.62-.67,3.18-1.48,4.78-2.21,2.62-1.2,5.24-2.41,7.88-3.56,2.32-1.01,4.68-1.93,7.02-2.92,1.13-.48,2.06-.21,2.83.69,2.33,2.74,4.66,5.48,6.98,8.22.34.4.65.83.94,1.27.5.77.47,1.55-.2,2.13-.52.44-1.15.8-1.78,1.07-3.3,1.42-6.62,2.81-9.94,4.21-.24.1-.53.14-.73.3-1.83,1.49-4.17,1.76-6.24,2.67-2,.88-4.09,1.55-6.13,2.35-1.7.67-3.4,1.37-5.06,2.13-2.31,1.06-4.54,2.29-6.88,3.27-3.23,1.35-6.54,2.54-9.81,3.81-.65.25-1.3.53-1.91.87-.94.53-1.92.85-3.13.77-.37-.39-.75-.86-1.21-1.25-.45-.38-.87-.77-1.62-.52-.89.3-1.71-.12-2.44-.68-.42-.32-.8-.71-1.26-.95-.81-.43-1.51-1.05-2.61-.86-.72.13-1.55-.19-2.16-.79-.63-.62-.89-1.29-.51-2.13.16.03.33.09.48.06.13-.02.25-.13.37-.21-.17-.14-.33-.28-.5-.41-.1.21-.2.41-.3.62-.58.14-1.17.24-1.73.43-1.3.46-2.43.55-3.35-.79-.48-.7-1.39-.59-2.16-.65-1.41-.11-2.42-.74-2.89-2.29.56-.05,1.07-.01,1.53-.15.39-.12.72-.44,1.08-.68.14-.01.29-.02.43-.03-.16.03-.32.05-.48.08.68-.35,1.36-.69,2.02-1.03.34-.8-.7-1.69.24-2.43.76.03.07,1.44,1.1,1.22l-.05-.06c.04.15.06.32.14.45.31.52.44.52.78-.02.08-.13.13-.28.2-.43,0,0-.05.05-.05.05.31.03.63.06.95.09.14.08.26.17.41.23.06.03.14-.02.21-.03-.08-.09-.14-.25-.23-.26-.14-.01-.3.07-.45.11.07-.42.14-.83.21-1.25,0,0-.04.06-.04.06l1.19-.43-.05-.05c.12.45.34.9.82.43.95-.95.94-1.3.19-2.66l-.02.05c.26-.32.53-.64.86-1.04.41.09.88.2,1.37.31.48-.46.97-.91,1.45-1.37,0,0-.02-.06-.02-.06.38.36.76.58,1.14,0l-.02.06c1.01.07.93.76.82,1.52.48-.1.93-.3,1.37-.27.4.02.91.18,1.14.47.56.69,1.14.82,1.91.45.06-.03.23.2.36.32-.17.28-.35.55-.51.81q.74.71,1.71.81c-.47-.62-.86-1.14-1.26-1.66Zm-9.15,2.99c-.21.1-.44.19-.63.32-.03.02.07.24.13.36,0,.01.19-.02.21-.06.1-.22.18-.45.25-.69.13-.25.27-.51.4-.76-.08-.02-.17-.04-.25-.06-.03.3-.07.59-.1.89Zm.76.69c.29-.06.58-.11.87-.17l-.09-.26c-.24.16-.49.32-.72.49-.07.15-.16.3-.21.46,0,.03.09.09.14.14,0-.22,0-.44.01-.66Zm8.21,6.98c-.22-.13-.43-.28-.65-.39-.05-.03-.15.02-.22.04.06.12.1.33.17.34.25.02.51-.02.76-.04-.04.41-.08.82-.12,1.23-.22.16-.44.32-.65.48.09.08.19.17.28.25.1-.26.21-.52.31-.79.4-.02.8-.04,1.19-.06-.05.34-.11.68-.16,1.02-.14.24-.28.48-.42.72.07.02.14.04.21.07.05-.28.11-.56.16-.85,1.14-.39,1.15-.38.84-1.25-.23.12-.47.23-.7.35-.33-.38-.67-.75-1.01-1.12Zm-3.34-4.12l.65,1.04c-1.04.24-.67,1.14-.81,1.81-1.12-.55-1.9.19-3.01.63.85.14,1.46.17,2.02.36.25.09.4.49.61.76,0,.13-.02.27-.03.4,0-.15-.02-.31-.02-.46,1.51-.14,1.83-1.35,2.22-2.49.34.02.68.05,1.02.07.12.1.23.21.35.29.02.01.11-.06.16-.1-.19-.05-.38-.09-.57-.14.14-.3.27-.6.38-.86.69.09,1.27.17,1.85.25-.19.63-.39,1.25-.58,1.87.19.11.39.29.47.25.79-.41,1.1-1.26.75-2.07-.04-.08-.45,0-.69.02.08-.29.16-.59.25-.89-.03-.08-.08-.15-.09-.24,0-.06.03-.12.05-.18,0,.15.01.3.02.44-.7-.23-1.41-.45-2.04-.66-.5.36-.91.65-1.31.94-.34-.73-.85-1.17-1.71-1,.04-.39.07-.79.11-1.18.74-.04,1.47-.12,2.07-.63.56.36,1.12.71,1.74,1.11.5-.69.92-1.27,1.68-2.31-.78.33-1.05.41-1.3.56-.34.19-.62.24-.86-.15.2-.43.53-.86-.09-1.23-.16-.19-.3-.4-.49-.56-.1-.09-.28-.11-.43-.12-.05,0-.16.14-.15.15.12.17.22.41.38.47.22.08.49.02.74.03.03.44.07.89.1,1.33-.63-.07-1.12.09-1.27.79-.56.15-.9-.16-1.32-.5-.83-.66.17-1.46-.4-2.26-.36-.17-.87-.41-1.43-.68-.24.38-.41.66-.59.94l.04-.05c-.3.34-.43.68-.11,1.09.25.33.48.67.72,1.01-.24.18-.49.35-.73.53.24.16.49.32.73.48-.08.29-.16.57-.23.87,0,.18.02.37,0,.08.04.27,0,.07-.02-.13.4.11.79.21,1.2.32Zm-7.14-.88c-.4-.08-.79-.15-1.19-.23-.24-.17-.39-.58-1.06-.17.53.06.82.09,1.11.13-.02.38-.05.76-.07,1.14-.49.16-.99.45-1.35-.23-.3-.56-.74-.96-1.51-.87.17.72.34,1.42.5,2.09h1.99c.12-.38.22-.71.32-1.04.37,0,.74,0,1.1.01.05.56-.77,1.01-.22,1.65q.91-.63,1.22-1.68c.72.18,1.43.36,2.15.54.07.23.12.47.23.69.06.12.22.25.34.26.09,0,.27-.18.27-.28,0-.13-.1-.31-.21-.38-.21-.12-.45-.17-.68-.24.02-.35.03-.7.05-1.06.15-.06.33-.08.45-.18.11-.09.21-.25.2-.38,0-.08-.24-.24-.31-.21-.11.06-.21.21-.25.34-.05.15-.03.32-.03.48-.32-.06-.68-.07-.96-.21-.75-.37-1.07-.07-1.18.66-.37.01-.74.02-1.11.04.07-.31.13-.62.18-.95,0-.08.03-.15.02-.23,0-.06-.05-.11-.07-.16.03.15.06.3.09.45Zm3.57-4.54c.06.25.13.51.19.76.1-.06.2-.11.3-.17-.18-.18-.36-.36-.54-.54.13-.55.42-.92,1.01-1,.09.14.17.3.28.43.02.02.14-.03.21-.05-.18-.11-.36-.22-.54-.32-.16-.28-.32-.56-.52-.92-.39.18-.68.35-.98.46-.35.13-.72.21-1.2.34.57.64.97,1.22,1.8,1.02Zm-5.88,7.83c-.13-.07-.28-.21-.4-.19-.13.02-.22.2-.33.31.13.07.28.22.39.2.13-.03.23-.21.35-.32Zm14.31,5.68l.16-.12-.16-.07v.19Zm-4.24-1.71c-.04-.07-.08-.14-.12-.21-.1.08-.21.15-.29.25-.02.03.06.13.1.2.1-.08.21-.17.31-.25Zm-2.91-1.84h.22c-.05-.08-.09-.18-.15-.25-.01-.01-.12.06-.18.1.04.05.07.1.11.15Zm-9.76-4.41c-.16-.04-.3-.09-.44-.09-.05,0-.11.11-.16.17.12.08.24.21.36.22.07,0,.16-.19.24-.29Zm11.99-6.65c-.08.1-.16.21-.23.32,0,0,.11.09.17.14l.25-.31c-.06-.05-.12-.09-.18-.14Zm-5.32,8.13l-.1-.2-.1.2h.19Zm-8.7-.83c-.14-.04-.22-.07-.31-.1.02.06.03.12.05.18.07-.02.13-.04.26-.08Z"/>
      <path class="cls-1" d="m50.6,49.43c-.11-1.24-1.24-1.78-2.15-2.81,1.31-.16,2.07.49,3.09.86,1.24-.55,2.66-1.03,3.93-1.76,2.67-1.54,5.47-2.79,8.39-3.65,2.28-.67,4.42-1.62,6.57-2.57,2.96-1.31,5.95-2.54,8.93-3.8.4-.17.84-.27,1.26-.39.76-.23,1.38.02,1.89.58.71.78,1.41,1.57,2.09,2.37,2.1,2.47,4.2,4.94,6.29,7.42.22.26.38.58.53.82-.19.89-.85,1.16-1.5,1.43-2.83,1.19-5.63,2.44-8.48,3.56-2.77,1.09-5.6,2.02-8.39,3.09-1.39.53-2.72,1.21-4.08,1.8-2.57,1.12-5.22,2.08-7.7,3.38-2.18,1.14-4.5,1.88-6.72,2.9-1.07.49-2.19.56-3.35.44-.63-.07-.87-.53-1.13-.98l-.06.05c.29-.29.78-.55.83-.87.04-.28-.38-.71-.69-.92-.34-.22-.79-.27-1.19-.39l.05.05c-.03-.39-.05-.78-.08-1.16.24.07.47.12.7.2q.89.28,1.42-.65c.19-.23.37-.47.56-.7-.19-.11-.37-.22-.56-.34-.15-.33-.3-.65-.45-.98.18-.17.38-.33.52-.52.05-.07-.05-.25-.08-.37-.12.07-.31.13-.34.23-.06.23-.04.49-.05.73-1.12.44-1.83,1.16-1.68,2.47-.5.23-1.01.46-1.1,1.11l.07-.06c-.46.38-.91.77-1.4,1.11-.1.07-.35.03-.46-.05-.11-.08-.24-.36-.19-.41.86-1.06-.54-1.43-.64-2.18.4-.24.8-.48,1.2-.73.08.3.14.62.25.91.02.04.27,0,.42-.02.02,0,.05-.18.01-.21-.23-.21-.47-.41-.72-.61q-.82-.33-1.11.71c-.37-.03-.75-.06-1.12-.09l.07.06c0-.75-.53-.96-1.12-1.12l.06.06c-.19-.99.56-1.52,1.07-2.17l-.06.05c.37.16.74.32,1.11.49-.14.11-.3.2-.4.34-.05.06.03.22.06.33.05-.07.12-.13.15-.21.06-.16.1-.34.15-.51.36,0,.72.02,1.08.03.35.4.71.56,1.06,0,.36-.18.71-.36,1.07-.53.18.24.36.48.53.72.16-.23.32-.46.48-.69.4-.35.62-.7,0-1.05-.16-.26-.33-.51-.49-.77,1.82.1,2.07-.01,2.52-1.14.35-.88-.06-2.12-.97-2.89l.06.02Zm-2.33,7.85c-.03-.07-.05-.17-.1-.2-.05-.02-.14.03-.21.05.06.11.12.21.18.32.05-.06.09-.12.14-.17Zm7.49-7.19c-.11.07-.23.14-.33.23-.01,0,.07.13.11.2.12-.08.24-.16.36-.24-.05-.06-.09-.12-.14-.18Z"/>
      <path class="cls-1" d="m42.95,38.28c-1.14.15-.92-.71-1.02-1.45-1.26,0-2.25-.59-2.95-1.66l-.07.04q1.69-.77,3.2-.6c.63.77,1.25,1.55,1.92,2.29.08.09.46-.1.7-.16.32.9,1,1.01,1.81.82,0,.17,0,.34,0,.5,0-.16,0-.31,0-.47-.62-.27-1.23-.54-1.85-.81.03-.37.06-.74.09-1.11l-.05.07c.43-.26.6-.65.58-1.14l-.06.08c.38-.19.75-.37,1.13-.56l-.07-.04c-.05.66-.09,1.32-.14,2.03.4.32.85.68,1.25.99.62-.36,1.13-.66,1.63-.96-.16.66-.32,1.32-.47,1.92.5.75,1,1.34,1.89,1.37.12.1.23.23.37.3.06.03.17-.04.26-.06-.07-.04-.13-.09-.21-.11-.16-.04-.32-.06-.48-.09.04-.39.08-.78.12-1.17.17-.03.37-.01.48-.11.1-.09.11-.3.12-.46,0-.05-.14-.17-.17-.16-.14.07-.31.15-.36.27-.06.14-.01.34-.01.51-.53-.22-1.17-.37-.86-1.19.28-.74-.32-.79-.74-.98,0-.35.01-.7.02-1.05l-.06.06c.33.02.66.03.99.04.13.09.26.18.39.26.02.01.1-.07.15-.11-.2-.03-.4-.06-.6-.09.03-.67-.23-1.12-.94-1.22l.06.07c-.19-.38-.37-.75-.56-1.13,0,0-.03.08-.03.08,1.07-.51,1.74.65,2.84.88-.68-.99-1.21-1.76-1.74-2.53l-.05.06c.77.03,1.01-.48,1.12-1.12l-.04.06c.71-.61,0-1.31.14-2.07.86-.93,2.06-1.53,3.27-1.99,3.52-1.32,6.79-3.23,10.42-4.29.58-.17,1.12-.5,1.66-.78,1.55-.83,1.55-.83,3.63-.76,1.23,1.78,3.03,3.18,4.28,5.13,1.17,1.83,2.8,3.36,4.2,5.04.78.93.61,1.86-.52,2.28-.97.36-1.86,1.01-2.99.92-.42-.03-.88.1-1.27.28-4.14,1.89-8.22,3.91-12.4,5.68-2.88,1.22-5.73,2.61-8.88,3.09-.35-.34-.66-.63-.98-.93-.17-.85-.76-1.33-1.5-1.68-.14-.08-.27-.17-.41-.24-.02-.01-.09.08-.14.12.2.02.41.04.61.06q.18,1.35,1.5,1.69c-.2.29-.41.58-.69.98-1.46-1.02-2.99-1.62-3.05-3.72-.63.61-1.13,1.09-1.67,1.61-.61-.22-1.17-.42-1.77-.63.09-.61.16-1.1.23-1.59-.48-.13-.9-.24-1.32-.36,0,0,.04,0,.04,0Zm-2.09-2.51c.02-.07.05-.14.07-.21-.08.05-.17.1-.25.15.06.02.12.04.18.06Z"/>
      <path class="cls-1" d="m43.54,8.9c.84-1.37,1.53-2.87,3.1-3.63.09-.02.16-.04.24-.06.06-.01.13-.03.19-.04-.16.04-.32.07-.48.11.55-.69,1.01-1.46,1.66-2.03.63-.56,1.16-1.21,2-1.61.6-.28.33-1.77,1.71-1.63,3.1,2.49,5.34,5.87,7.96,8.89,2.55,2.94,5.29,5.77,7.33,9.18-.4,1.07-1.46,1.19-2.31,1.53-2.26.92-4.56,1.75-6.85,2.62-1.47.56-2.93,1.15-4.41,1.69-.57.21-1.18.3-1.69.42-.98-.37-1.47-1.11-1.97-1.83.21-.24.42-.47.63-.7-.24-.08-.47-.17-.71-.25.01-.4.02-.8.03-1.2.25-.18.51-.36.76-.53-.27-.12-.54-.24-.81-.36.03-.41.06-.81.1-1.22.55.14,1.09.28,1.67.43-.03-.75-.52-.97-1.03-1.06-.48-.09-.47.38-.57.69-.33-.03-.67-.06-1.01-.09-.23-.34-.45-.68-.67-1.03.25-.19.5-.37.75-.56-.25-.15-.49-.29-.74-.44q-.43-1-1.19-.57c-.3.17-.6.35-.89.53.03-.32.06-.64.08-.96.08-.14.15-.29.23-.43-.07,0-.14,0-.21,0,.01.16.02.32.04.48q-1.17.19-1.05,1.57c-.15.06-.31.13-.46.19.14-.08.27-.16.41-.24l1.01-.69c.17.39.35.78.52,1.17-1.28.62-1.29.65-.54,1.56,1.03.67,1.04.67,1.53-.56.41-.03.83-.06,1.24-.08-.21.75.36.97.84,1.25.02.33.04.67.06,1-.34-.02-.67-.04-1.01-.05-.11-.12-.21-.24-.34-.34-.02-.02-.12.06-.18.1.19.06.38.12.57.19-.03.66.37.99.92,1.21l.08,1.06c-.85.86-1.8.93-2.76.25-.23-.16-.26-.59-.39-.9l-.06.05c.29-.14.59-.29,1.03-.5-.38-.61-.68-1.1-.93-1.5-.34,0-.54-.06-.67.01-.54.27-1.06.57-1.59.86l.05.05c-.41-.06-.82-.2-1.22-.16-1.17.09-2.2-.25-3.1-.95-.21-.17-.23-.59-.34-.89.87-.86.51-1.66-.15-2.4q1.05-1.51,2.44-1.27c.45-.71,1.51-1.09,1.27-2.27.16,0,.31-.02.47-.03-.06-.1-.12-.2-.18-.31-.08.13-.17.26-.25.39-.55-.19-1.1-.39-1.65-.58.54,0,1.11.05.85-1.02-.32.43-.56.75-.8,1.07-.84,1-1.65,2.02-2.53,2.98-.76.83-.5,1.59,0,2.38-.27.01-.54.03-.81.05.04.11.07.21.11.32.22-.14.44-.27.66-.41.21.39.43.78.64,1.17-1.29.89-2.42.74-3.5-.58,1.3-2.17,2.61-4.37,4.27-6.36.44-.53.74-1.18,1.18-1.72.43-.52.97-.96,1.46-1.44.19.17.37.38.58.52.12.08.31.07.46.06.05,0,.15-.17.14-.18-.15-.16-.3-.38-.48-.42-.24-.05-.51.05-.76.08Zm4.42,1.44c-.8.66-.8.72,0,1.04-.2.71-.4,1.41-.61,2.12.61.64,1.24,1.16,2.19.98.1.62.35,1.09,1.07,1.12.23.73.91,1.22.81.84-.09-.32-.56-.53-.87-.79.03-.33.05-.67.08-1.01.1-.13.21-.26.3-.4.01-.02-.08-.11-.12-.17-.04.21-.08.42-.12.63-.4-.05-.8-.11-1.2-.16-.18-.35-.37-.7-.55-1.05.71-.1,1.07-.48.97-1.22.16-.02.33-.03.49-.07.07-.02.15-.08.19-.14.04-.05.02-.14.03-.21-.13.03-.28.03-.37.1-.12.1-.2.26-.29.4-.34.23-.68.46-1.02.69-.23-1.13.57-1.84,1.09-2.67.4-.08.8-.16,1.32-.26-.29-1.21-.57-2.35-.85-3.49.23-.1.46-.18.67-.31.02-.02-.09-.27-.16-.4-.01-.02-.21,0-.23.05-.09.24-.15.48-.22.72-.57.26-1.28.47-.63,1.28.31.39.36.71.22,1.19-.12.4-.04.86-.05,1.29-.37-.02-.75-.03-1.12-.05-.09-.13-.15-.29-.26-.4-.47-.48-.55-.44-.77.36Zm1.91-6.08c.24-.02.49-.02.72-.08.05-.01.03-.27.04-.41-.08,0-.2-.03-.24,0-.19.16-.35.35-.51.55,0,.13.02.25,0,0,.01.24,0,.1,0-.05Zm-1.2,3.19c-.65-.13-1.11.09-1.32.75-.53.19-.91.52-1.03,1.09-.67.52-1.07,1.16-1.08,2.15q1.01-.95,1.03-2.2c.77.04,1.09-.34,1.04-1.08.66.14,1-.34,1.36-.75-.01-.18-.02-.36-.03-.54,0,0-.01,0-.02,0,.02.2.04.39.05.59Zm-5.64,11.24c-.39.03-.78.06-1.2.09.14.64.51.83,1.04.56.12-.06.07-.45.11-.68.24,0,.5.01.73-.04.11-.02.17-.2.26-.31-.12-.02-.28-.1-.36-.05-.21.11-.39.28-.58.43Zm16.01.11c-.13-.08-.27-.24-.38-.22-.11.01-.19.21-.28.33.13.08.27.24.38.23.11-.01.19-.21.28-.33Zm-13.23-5.95c-.2.19-.41.32-.54.51-.05.08.08.28.12.42.18-.15.39-.27.53-.45.05-.07-.06-.27-.12-.48Zm-3.62,4.36c.07-.08.13-.16.2-.24-.21-.2-.43-.4-.64-.6-.08.11-.23.3-.22.31.21.19.44.36.66.53Zm1.52-1.06c-.1-.08-.19-.16-.29-.23-.01,0-.14.11-.13.15.03.13.1.24.15.36.09-.1.18-.19.27-.29Zm17.36,2.16c.03-.06.06-.11.1-.17-.06-.03-.13-.09-.17-.07-.05.02-.07.11-.1.16.06.03.11.05.17.08Zm-9.06,2.76v.17s.17-.08.17-.08l-.17-.09Zm-6.95-1.85l-.1.15.16.03-.06-.18Z"/>
      <path class="cls-1" d="m1.57,63.35c-.4-.16-.81-.29-1.2-.48-.13-.07-.19-.28-.37-.55,3.42-3.57,5.62-8.15,9.14-11.7.95.04,1.36.71,1.74,1.39.06.11,0,.36-.1.48-.09.11-.32.23-.44.19-.4-.14-.76-.39-1.16-.53-.31-.11-.74.34-.62.63.1.24.29.43.42.66.23.41.2.81-.04,1.32-.56-.13-1.05-.24-1.71-.39-1.44,1.4-2.53,3.1-3.13,5.12-.81.4-1.63.79-1.68,2.09.5-.05.89-.09,1.27-.13.03.16.07.32.11.48-.05-.14-.1-.29-.15-.43.13-.69.26-1.37.39-2.06.53-.15,1-.08,1.48.22.35.22.8.28,1.21.4,0,0-.05-.06-.05-.06,0,.37,0,.75,0,1.12l.05-.07c-.58.08-1.16.16-1.74.23-.59,1.84-.56,1.91.92,2.17h-.02c-.07.41-.11.83-.22,1.22-.04.13-.24.22-.49.43-1.13-.69-2.26-1.54-3.67-1.79.01-.13.03-.26.04-.31v.36Z"/>
      <path class="cls-1" d="m45.31,47.81c-.48.3-.82.67-.45,1.26.36.57.81.67,1.5.39.21-.09.43-.17.81-.33-.11.73-.2,1.29-.29,1.86-.2.14-.4.28-.59.43-.05.04-.04.15-.06.23.14,0,.36.04.39-.02.1-.22.14-.46.21-.7l3.24-.4-.05-.06c.14.52.28,1.05.43,1.63h-1.47c-.16-.27-.32-.54-.48-.81-.3.21-.65.38-.9.65-.14.15-.12.46-.17.69-.54.35-1.09.71-1.63,1.06-.28-.61-.56-1.22-.84-1.83.04-.47.76-1.02-.14-1.4-.17-.18-.32-.38-.51-.53-.07-.06-.25.02-.37.04.07.12.11.32.21.35.23.07.48.07.73.09-.34.51-.99.85-.95,1.76.46-.15.77-.25,1.07-.34-.06.62-.12,1.24-.18,1.85-.51.41-.57.98-.58,1.58l.06-.05c-.73.35-1.45.71-2.18,1.06l.06.05c-.02-.33-.12-.7-.03-1,.22-.72-.07-1.13-.69-1.4v.05c.26-.53.64-.76,1.26-.57.14.04.36-.17.68-.35-.69-.61-1.25-1.11-1.72-1.54.2-.82.35-1.47.51-2.12l-.06.06c.23-.09.51-.12.69-.27.35-.31.21-.59-.18-.75-.15-.06-.33-.07-.5-.1l.05.07c-.13-1.13.92-1.16,1.51-1.62l-.06.04c.7.1,1.43.15,1.66,1.02l.06-.06Zm-2.4,3.1c0,.11-.02.22-.03.34.04-.05.12-.1.12-.16,0-.06-.06-.12-.1-.18Z"/>
      <path class="cls-1" d="m5.93,63.43c.51.07,1.15-.03,1.49.25.89.72,1.59.18,2.31-.14,1.79.57,2.51,2.65,4.32,2.99.86-.46.19-.99.23-1.46.09-.98.47-1.63,1.47-1.83l-.06-.05q.56.87,1.21.45c.28-.18.57-.34.85-.52l-.05-.06c-.37.71-.35,1.68-1.29,2.05-.17-.03-.33-.07-.49-.09-.03,0-.08.08-.12.12.22-.02.44-.05.66-.07q-.58,1.65-1.94,3.09c-1.34.11-2.41-.99-3.83-1.12-1.29-.12-2.5-1.07-3.87-1.71,0-.66.23-1.62-.92-1.9,0,0,.02,0,.02,0Z"/>
      <path class="cls-1" d="m46.84,27.28c.37,0,.73,0,1.1,0l-.05-.06c.15.6.47,1.03,1.12,1.12l-.06-.04c0,.36,0,.72,0,1.08l.07-.05c-.71.11-.78.56-.57,1.13l.04-.08c-.64.42-1.2.89-1.02,2,.43-.37.73-.63,1.03-.89l-.05-.04c0,.55,0,1.1,0,1.65,0,0,.03-.08.03-.08-.4.75-.38.8.56,1.13,0,0-.06-.07-.06-.07,0,.37,0,.75,0,1.12,0,0,.06-.06.06-.06-.9-.36-1.8-.71-2.7-1.07,0,0,.07.04.07.04-.72-.41-.8-.38-1.13.56l.06-.08c-.53.21-.57.67-.58,1.14,0,0,.05-.07.05-.07-.66-.18-1.42-.2-1.65-1.05q1.09-.43.94-1.68c.15-.02.3-.05.39-.07-.07.02-.21.06-.34.1-.14-.16-.44-.38-.41-.48.33-.89.71-1.77,1.08-2.64l-.06.06c.69-.05.98-.5,1.12-1.11,0,0-.06.06-.06.06.76-.29,1.15-.82,1.11-1.65l-.05.06Zm-.96,4.01c-.07.01-.2.02-.21.04,0,.13,0,.25.02.38.07-.01.2-.02.21-.04,0-.13,0-.25-.02-.38Z"/>
      <path class="cls-1" d="m44.19,58.4v.85c-2.36.2-4.58.17-5.97-2.2.69-.96.52-2.36,1.29-3.41,0,0-.06.05-.06.05.29-.15.57-.4.88,0-.13.44-.27.89-.45,1.47.8.42,1.53.79,2.26,1.17,0,0-.06-.05-.06-.05.03.71.5.99,1.11,1.11,0,0-.06-.06-.06-.06.37.37.75.75,1.12,1.12l-.07-.06Zm-3.25-.4c.15.07.3.15.45.21.03.01.09-.07.14-.11-.22-.01-.43-.03-.65-.04-.1-.12-.18-.26-.29-.34-.06-.04-.18,0-.28.02.07.03.14.05.21.08.14.06.27.13.42.19Z"/>
      <path class="cls-1" d="m17.75,63.12c.34-.54.68-1.07,1.02-1.6,0,0-.05-.05-.05-.05.32.61.64,1.22,1.03,1.97-.37.73-.79,1.55-1.28,2.5.37.18.65.32.94.45,0,0-.05-.07-.05-.07.18.36.36.73.54,1.09.18.36.35.72.53,1.08l.02-.06c-.56.35-.64.92-.69,1.5,0,0,.09-.09.09-.09-.77.16-.98-.59-1.53-.92-.18.15-.37.32-.56.47-.13.11-.28.21-.52.39-.25-.08-.59-.15-.89-.3-.3-.15-.56-.37-.82-.54.3-1.02.85-.2,1.32-.31,1.26-1.39.14-3.63,1.89-4.97-.47-.28-.76-.44-1.04-.61,0,0,.05.06.05.06Z"/>
      <path class="cls-1" d="m35.74,64.22c-.58.14-.94.49-1.05,1.08l.06-.03c-.9-.36-1.8-.72-2.69-1.07l.06.03q.59-1.77-.91-4.03c.86.09,1.76,0,2.12.69.56,1.09.75.08,1.31-.16.71.34,1.56.74,2.4,1.14v-.03c-.6.28-1.2.56-1.79.84-.06-.16-.1-.32-.17-.46-.03-.05-.14-.05-.21-.08-.01.13-.08.35-.03.37.13.08.31.08.47.11.13.55.26,1.1.39,1.65,0,0,.05-.05.05-.05Zm-1.77-.56c.06-.06.12-.11.18-.16-.12-.07-.24-.15-.37-.19-.04-.01-.11.1-.17.15.12.07.25.14.35.2Z"/>
      <path class="cls-1" d="m37.41,49.99c-.08-.4-.16-.8-.22-1.12h-1.99s.06.06.06.06c.53-.57,1.05-1.14,1.67-1.8.99.63,1.98,1.04,3.19.84.63-.11,1.35.29,2.02.46,0,0-.05-.07-.05-.07,0,.37,0,.75,0,1.12l.06-.06c-.3-.05-.61-.09-.92-.13-.15-.05-.29-.12-.43-.17-.06-.02-.14.02-.21.03.09.08.17.22.26.22.15,0,.3-.08.44-.13-.3,1.15-.64,2.27-1.84,2.83l.07.04c.11-.49.22-.98.33-1.48-.53-.7-1.6.25-2.02-.69.16-.05.34-.06.46-.15.09-.07.08-.25.12-.39-.12.04-.29.05-.36.14-.1.12-.12.3-.17.46,0,0-.26,0-.26,0l-.26-.07s.05.05.05.05Z"/>
      <path class="cls-1" d="m41.07,25.68c-.09-.24-.18-.48-.32-.85.55-.31,1.09-.7,1.69-.92.39-.15.6.23.68.61-.02.13-.04.25-.07.38,0-.15.01-.29.02-.44.39.05.85-.02,1.16.17.41.25.7.7,1.03,1.05-.16.8-.9.28-1.22.61-.35.36-.62.8-1.01,1.31.19.38.42.82.64,1.26l.05-.06c-.34.19-.69.38-1.03.58l.05.05c-.2-.77-.61-1.18-1.47-.9-.23.07-.5.01-.75.01l-.02.08c.52-.64,1.04-1.27,1.65-2.03-.44-.38-.79-.68-1.14-.98l.06.06Z"/>
      <path class="cls-1" d="m34.23,23.5c-.38-.19-.75-.39-1.34-.69.63-.67,1.13-1.21,1.62-1.72,1.04.17,1.98.3,2.9.49.6.12,1.22.25,1.49.91,0,0,.06-.03.06-.03-.61.39-1.11.85-1.1,1.65l.05-.06c-.7-.45-1.45-.84-2.1-1.36-.88-.71-.91-.75-1.42.13-.12.22-.16.49-.23.74l.06-.05Z"/>
      <path class="cls-1" d="m40.49,28.63s.02-.08.02-.08c-.89,1.66-.2,3.11.57,4.56-.71-.48-1.41-1-2.15-1.44-.5-.3-1.07-.5-1.6-.74l.05.05c.79-1.07.92-2.62,2.45-3.36.22.34.44.67.66,1.01Z"/>
      <path class="cls-1" d="m19.41,66.39c.12-1.18.95-.61,1.53-.63.45-.19.35-.51.23-.84-.32-.84.31-1.21.83-1.74.37.21.74.41,1.09.6q-.38,1.45.37,2.65c-.31.13-.6.25-.89.38l.05.07c-.11-.12-.26-.36-.31-.34-1.02.41-1.95-.3-2.93-.22l.05.07Z"/>
      <path class="cls-1" d="m24.15,69.03c.38.03.76.06,1.14.09l-.05-.06c-.22.55-.45,1.11-.74,1.82,1.18.71,1.98,1.99,3.43,2.43l-.05-.05c-.77.8-1.55.45-2.29-.02-.84-.54-1.65-1.13-2.54-1.75.02-.26.05-.6.09-.93,0,0-.06.04-.06.04.63-.38,1.15-.83,1.11-1.65l-.03.07Z"/>
      <path class="cls-1" d="m43.66,46.81c-1.81-.99-1.81-1.02-.57-2.85,1,.26,2.01.5,2.31,1.84-.57.34-1.46.28-1.8,1.05,0,0,.06-.04.06-.04Z"/>
      <path class="cls-1" d="m15.01,46.39c-.65-.19-1,.06-.94.74.03.3.19.59.35,1.04-.44-.04-.82.02-.89-.1-.35-.57-.73-1.16-.87-1.79-.07-.3.32-.76.59-1.08.34-.4.38-.37,2.49-.11-.28.48-.53.91-.78,1.34l.06-.03Z"/>
      <path class="cls-1" d="m41.01,25.62v1.19c-.95-.14-1.93-.58-2.52.64-.94-.88-1.69-1.57-2.46-2.29.66-.57.87.09,1.21.22.4.14.76.38,1.09.55q1.13-.59,2.74-.25s-.06-.06-.06-.06Z"/>
      <path class="cls-1" d="m25.72,37.79c-1.3.18-1.48,1.18-1.6,2.21,0,0,.06-.06.06-.06-1.16-.57-.14-1.44-.21-2.2-.47.1-.86.18-1.29.28-.13-.83.58-.97,1.04-1.43.82.1,1.6.32,1.95,1.26l.06-.06Z"/>
      <path class="cls-1" d="m40.44,46.32c-.39.31-.78.61-1.29,1.02-.34-.93.53-1.27.65-1.86.13-.64.29-1.28.43-1.89q1.07.68.69,1.6c-.17.4-.35.79-.53,1.18,0,0,.06-.05.06-.05Z"/>
      <path class="cls-1" d="m23.12,59.98c-.34.04-.68.09-1.01.13-.07-.22-.21-.42-.16-.51.39-.68.79-1.35,1.26-1.98.24-.32.62-.53,1.04-.88-.05.72-.09,1.21-.13,1.71,0,0,.07-.06.07-.06-.77.28-1.11.85-1.11,1.65l.05-.06Z"/>
      <path class="cls-1" d="m29.91,63.75c-.64.06-.95.47-1.09,1.05l.05-.05c-.96,0-1.08-.92-1.69-1.41.26-.41.48-.76.65-1.03.79.15,1.49.28,2.19.41,0,0-.05-.05-.05-.05l-.1,1.13.05-.05Z"/>
      <path class="cls-1" d="m6.75,60.04c.2-.93.7-1.66,1.57-2.47.22,1.03-.47,1.84.2,2.62.23.27-.32.7-.76.83,0,0,.06.06.06.06-.18-.56-.43-1.06-1.12-1.11l.05.06Z"/>
      <path class="cls-1" d="m34.71,42.61c-.9,2.34-1.1,2.41-3.38,1.32l.04.04c.21-.15.44-.46.61-.42,1.11.22,1.8-.79,2.79-.89l-.06-.05Z"/>
      <path class="cls-1" d="m26.29,42.57c-.07-.06-.16-.1-.19-.17-.42-.81-1.06-1.25-2.11-1.05.08-.58.13-.99.18-1.41,0,0-.06.06-.06.06.95-.46,1.56.19,2.32.76-.06.58-.13,1.22-.2,1.87l.06-.06Z"/>
      <path class="cls-1" d="m32.54,67.97c-.36-.04-.72-.09-1.07-.13l.06.05c.02-.35.04-.69.06-1.04,0,0-.06.06-.06.06.23-.11.52-.16.67-.33.45-.52.96-.54,1.56-.35.31.1.66.1.99.14l-.05-.02c0,.35,0,.71,0,1.06,0,0,.05-.06.05-.06-.25-.04-.51-.06-.76-.12-.95-.22-.95-.22-1.5.77,0,0,.06-.05.06-.05Z"/>
      <path class="cls-1" d="m33.61,55.26c-.42-.38-.85-.75-1.24-1.1.33-.74.8-.04,1.24-.38.26-.35.6-.82.94-1.29l-.05-.03c.33.66.37,1.26-.2,1.84-.29.3-.5.67-.74,1.02l.05-.05Z"/>
      <path class="cls-1" d="m34.16,23.56q.56.5.19,1.59c-.59-.24-1.18-.47-2.32-.93.77-.1.96-.19,1.11-.14.6.23,1.01.16,1.09-.58,0,0-.06.05-.06.05Z"/>
      <path class="cls-1" d="m30.27,29.06c-.28-.09-.56-.18-.84-.26,0,0,.06.06.06.06-.4-.95-1.45-.22-2.14-.87.33-.3.64-.57.98-.87.65.32,1.25.62,1.9.94v1.03h.04Z"/>
      <path class="cls-1" d="m23.53,51.13c.52-.28,1.04-.57,1.51-.83.38.25.68.54,1.04.66.25.08.67-.23.65.52-1.06-.1-2.15.37-3.15-.41,0,0-.06.06-.06.06Z"/>
      <path class="cls-1" d="m19.85,69.86s-.09.09-.09.09c1.1-.01,1.53.7,2.02,1.75q-1.51-.75-1.93-1.84Z"/>
      <path class="cls-1" d="m35.8,69.52c-.18-.35-.38-.71-.55-1.07-.17-.36-.33-.72-.49-1.09,0,0-.05.06-.05.06.36,0,.73.01,1.09.02,0,0-.05-.05-.05-.05.53.72,1.07,1.45,1.6,2.17,0,0,.04-.06.04-.06-.55,0-1.1,0-1.65,0,0,0,.06.02.06.02Z"/>
      <path class="cls-1" d="m47.94,27.28c.05-.24.09-.48.18-.91.33.09.64.11.89.25,1.12.62,1.11.78-.06,1.68,0,0,.06.04.06.04-.07-.67-.47-1.02-1.12-1.12l.05.06Z"/>
      <path class="cls-1" d="m31.04,32c.1-.39.2-.79.32-1.27.8.12,1.45.22,2.16.33-.61.4-1.14.75-1.67,1.1l.05-.03c-.31-.06-.62-.13-.93-.19,0,0,.06.06.06.06Z"/>
      <path class="cls-1" d="m37.52,55.9c-.52.3-1.05.61-1.63.95-.17-.91.4-1.19.85-1.51.1-.07.35-.04.47.03.12.07.16.26.31.53Z"/>
      <path class="cls-1" d="m26.19,59.36c.21-.24.44-.7.62-.68.63.08,1.1.51,1.16,1.16.01.16-.47.36-.73.55,0,0,.05.06.05.06-.11-.65-.63-.89-1.14-1.15l.04.06Z"/>
      <path class="cls-1" d="m29.99,61.55c-.29-.16-.57-.31-.85-.46.17-.74.15-1.45,1.05-1.76-.1.83-.18,1.56-.27,2.28l.06-.06Z"/>
      <path class="cls-1" d="m20.95,37.72c-.37,1.16-.76,1.64-1.42,1.96q.2-.89,1.42-1.96Z"/>
      <path class="cls-1" d="m37.93,32.52c-1.11-.01-1.4-1.16-2.19-1.75.55.07,1.09.13,1.64.2,0,0-.05-.05-.05-.05.18.55.36,1.09.54,1.64l.07-.04Z"/>
      <path class="cls-1" d="m28.88,30.99c-.63.39-1.26.79-1.89,1.18-.07-.06-.13-.12-.2-.17.36-.52.72-1.04,1.16-1.68.38.32.63.53.88.74l.05-.07Z"/>
      <path class="cls-1" d="m48.94,29.38c.72.08,1.4.23,1.61,1.07,0,0,.04-.06.04-.06-.59.15-1.04.44-1.12,1.12,0,0,.05-.06.05-.06-.37,0-.73,0-1.1,0,0,0,.05.04.05.04,0-.37,0-.74,0-1.11,0,0-.04.08-.04.08.55-.19.6-.65.57-1.13l-.07.05Z"/>
      <path class="cls-1" d="m35.2,48.87c-.02.25,0,.52-.07.75-.14.42-.46.46-.81.24-.62-.39-.53-1.01-.49-1.62l-.05.04c.49.21.98.43,1.48.64,0,0-.06-.06-.06-.06Z"/>
      <path class="cls-1" d="m7.76,62.15c.45-.24.9-.47,1.33-.7.6.45.29.77-.06,1.05-.6.48-.94.11-1.21-.41,0,0-.06.05-.06.06Z"/>
      <path class="cls-1" d="m38.37,37.39c.49.08,1,.13,1.48.27.34.1.47.71.2.83-.19.09-.54.12-.66.01-.36-.34-.65-.77-.97-1.16l-.05.05Z"/>
      <path class="cls-1" d="m44.78,28.86c-.1-.48-.21-.95-.33-1.5.55-.03.96-.06,1.37-.08l-.04-.06c0,.55,0,1.1,0,1.65,0,0,.06-.06.06-.06-.37,0-.74,0-1.12,0l.05.05Z"/>
      <path class="cls-1" d="m33.7,33.75c-.15.22-.18.31-.24.35-.33.2-.27.87-.87.72-.06-.02-.14-.12-.14-.19-.03-.52.31-.73.75-.84.08-.02.17-.02.5-.04Z"/>
      <path class="cls-1" d="m18.82,54.76c-.14.1-.27.22-.42.31-.69.4-.69.4-.92-.49l-.05.02q.97-.66,1.34.22s.05-.05.05-.05Z"/>
      <path class="cls-1" d="m25.82,63.25c-.06-.16-.11-.33-.18-.49q-.38-.84.52-1.25s-.05-.04-.05-.04c.56.71.25,1.24-.34,1.72,0,0,.06.06.06.06Z"/>
      <path class="cls-1" d="m23.65,44.71c-.38-.11-.76-.22-1.34-.38.68-.5,1.04-.1,1.34.38Z"/>
      <path class="cls-1" d="m29.43,34.16c-.44-.41-.87-.82-1.63-1.54,1.25.13,1.5.79,1.63,1.54Z"/>
      <path class="cls-1" d="m38.53,53.74q-.28-1.16.97-1.63s-.07-.04-.07-.04c0,.55,0,1.09,0,1.64,0,0,.06-.05.06-.05-.34.01-.68.02-1.02.04,0,0,.05.05.05.05Z"/>
      <path class="cls-1" d="m28.83,31.06c.47-.22.71-.56.58-1.1l-.05.06c.37.12.98.1.82.68-.09.33-.54.57-.83.85-.15-.19-.3-.37-.46-.56,0,0-.05.07-.05.07Z"/>
      <path class="cls-1" d="m15.87,61.18c-.62.52-.72,1.54-1.73,1.94q.61-1.6,1.78-1.9l-.05-.04Z"/>
      <path class="cls-1" d="m24.82,32.2c.09-.3.14-.64.29-.9.1-.18.36-.26.55-.39.04.22.18.47.11.64-.13.29-.38.53-.58.8-.13-.05-.25-.09-.38-.14Z"/>
      <path class="cls-1" d="m34.77,42.66c.03-.59.07-1.19.1-1.78l-.05.04c1.1.57,1.06,1.22-.11,1.68,0,0,.06.06.06.06Z"/>
      <path class="cls-1" d="m28.94,38.3c-.38.16-.76.55-1.17.15-.09-.09,0-.58.11-.64.52-.24.78.14,1,.54l.05-.05Z"/>
      <path class="cls-1" d="m37.9,34.08c-.43-.07-.83-.16-.48-.74.17-.28.34-.55.51-.82,0,0-.07.04-.07.04.38-.02.64.13.5.54-.12.37-.34.7-.52,1.04l.05-.06Z"/>
      <path class="cls-1" d="m39.35,63.26c-.35.15-.7.29-1.44.61.44-.59.57-.92.81-1.05.45-.25.51.17.58.48l.05-.04Z"/>
      <path class="cls-1" d="m27.39,67.34q-.77-.64-.06-1.68c0,.71,0,1.23,0,1.75,0,0,.06-.06.06-.06Z"/>
      <path class="cls-1" d="m35.79,67.44c.04-.51.29-.8.84-.72.43.06.85.13,1.28.19l-.03-.06c-.61.57-1.4.44-2.14.53l.05.05Z"/>
      <path class="cls-1" d="m29.49,69.42c-.34.19-.68.38-1.04.58-.24-.66,0-1.02.6-1.08.11-.01.26.35.39.55,0,0,.05-.05.05-.05Z"/>
      <path class="cls-1" d="m23.13,70.57c-.93-.54-.93-.63-.02-1.54l-.05-.06c0,.55,0,1.1,0,1.65l.06-.04Z"/>
      <path class="cls-1" d="m27.31,68.47c-.03.26-.02.53-.1.78-.04.14-.2.3-.34.32-.11.02-.35-.12-.36-.21-.02-.13.08-.33.19-.42.2-.17.45-.28.67-.41l-.06-.06Z"/>
      <path class="cls-1" d="m39.3,63.31c.48.06,1.04-.3,1.42.25.25.37-.57.21-1.36-.3,0,0-.06.05-.06.05Z"/>
      <path class="cls-1" d="m49,61.03c-1.13.13-1.14.12-1.04-1.05,0,0-.07.06-.07.06.37,0,.74,0,1.12,0l-.05-.05c0,.37,0,.74,0,1.11l.05-.06Z"/>
      <path class="cls-1" d="m25.24,58.49c-.12.68-.54,1.14-1.1,1.49l.05.07c0-.55,0-1.1,0-1.66,0,0-.07.06-.07.06.39.03.79.06,1.18.1l-.05-.05Z"/>
      <path class="cls-1" d="m22.76,56.66c-.15-.05-.22-.08-.3-.1.12-.2.23-.41.36-.6,0-.01.14.06.21.09-.09.21-.18.41-.27.62Z"/>
      <path class="cls-1" d="m32.02,40.42c-.03.17-.02.36-.11.49-.08.12-.28.23-.4.21-.1-.02-.25-.24-.24-.36.01-.12.17-.29.3-.33.15-.05.33.02.5.04,0,0-.05-.05-.05-.05Z"/>
      <path class="cls-1" d="m26.23,42.63c.29-.08.58-.17.92-.27-.02.85-.57.89-1.03,1.04,0,0,.02.06.02.06.05-.3.11-.59.16-.89,0,0-.06.06-.06.06Z"/>
      <path class="cls-1" d="m29.08,52.56c.17.36.3.54.34.74.01.06-.23.23-.36.23-.13,0-.37-.19-.36-.24.05-.2.18-.38.38-.73Z"/>
      <path class="cls-1" d="m30.09,44.25c-.17.28-.32.55-.5.82-.03.04-.21.05-.21.04-.04-.11-.11-.32-.07-.34.27-.18.56-.32.84-.48,0,0-.05-.04-.05-.04Z"/>
      <path class="cls-1" d="m36.95,44.51c.33.57.44.78.56.98-.13.04-.25.07-.38.11-.04-.22-.07-.44-.18-1.08Z"/>
      <path class="cls-1" d="m14.95,46.42c.55.03,1.17-.07,1.45.74-.82.23-.83-.76-1.39-.78,0,0-.06.03-.06.03Z"/>
      <path class="cls-1" d="m19.42,47.34c-.07.03-.14.1-.2.09-.07,0-.12-.09-.18-.13.1-.05.21-.11.31-.16.03.07.05.14.08.21Z"/>
      <path class="cls-1" d="m31.94,49.83c-.13-.07-.26-.15-.39-.22.11-.11.22-.22.34-.31.02-.02.19.1.19.14-.02.13-.08.26-.13.38Z"/>
      <path class="cls-1" d="m37.36,49.94c-.2.33-.39.66-.7,1.16-.27-1,.32-.98.75-1.11,0,0-.05-.05-.05-.05Z"/>
      <path class="cls-1" d="m32.2,46.32c.1-.2.2-.4.29-.61.17.21.34.43.51.64l.05-.05c-.3,0-.61-.01-.91-.02l.05.04Z"/>
      <path class="cls-1" d="m26.18,46.17c.32-.28.19-1,.9-.93.08.74-.62.61-.94.88l.05.05Z"/>
      <path class="cls-1" d="m34.56,52.49c.26-.18.52-.37.8-.51.07-.04.23.11.35.17-.08.12-.15.33-.24.34-.32.03-.64,0-.96-.03,0,0,.05.03.05.03Z"/>
      <path class="cls-1" d="m31.54,52.11c-.09.21-.18.42-.28.63-.09-.09-.18-.19-.27-.28.2-.1.4-.2.6-.3l-.05-.05Z"/>
      <path class="cls-1" d="m13.11,53.8c-.08-.11-.17-.22-.25-.33.13-.07.27-.2.4-.2.08,0,.17.19.25.29-.13.08-.26.16-.4.24Z"/>
      <path class="cls-1" d="m15.14,53.47c.05.13.11.26.16.39-.08.03-.16.08-.23.07-.07-.01-.13-.09-.2-.14.09-.11.18-.21.26-.32Z"/>
      <path class="cls-1" d="m28.89,38.35c.23.1.47.2.69.32.04.02.05.23.03.24-.14.06-.41.14-.42.11-.11-.22-.17-.47-.24-.72,0,0-.05.05-.05.05Z"/>
      <path class="cls-1" d="m25.66,37.85c.23.07.47.12.69.22.05.02,0,.25-.02.38-.08-.01-.19,0-.23-.05-.14-.2-.26-.41-.38-.61,0,0-.06.06-.06.06Z"/>
      <path class="cls-1" d="m38.42,37.33c-.32-.23-.64-.46-1.12-.81,1.07-.23.92.46,1.07.86,0,0,.05-.05.05-.05Z"/>
      <path class="cls-1" d="m15.06,58.06c.17.01.35-.01.5.06.06.03.04.24.06.37-.08-.02-.19,0-.23-.06-.11-.13-.19-.28-.29-.42,0,0-.04.05-.04.05Z"/>
      <path class="cls-1" d="m38.99,35.17c-.54-.19-1.04-.41-1.09-1.09,0,0-.05.06-.05.06.68.03,1,.43,1.07,1.07l.07-.04Z"/>
      <path class="cls-1" d="m19.27,59.58c-.29-.27-.58-.53-.95-.87,1.19-.31.91.41.9.91l.06-.04Z"/>
      <path class="cls-1" d="m30.99,31.95c-.04.24-.04.5-.13.73-.04.11-.25.15-.39.22-.03-.2-.16-.48-.07-.57.15-.17.43-.22.66-.32,0,0-.06-.06-.06-.06Z"/>
      <path class="cls-1" d="m19.21,59.63c.17-.02.36-.09.52-.05.22.06.42.2.62.3-.17.18-.33.37-.49.56,0,0,.06.06.06.06-.21-.31-.43-.61-.65-.91,0,0-.06.05-.06.05Z"/>
      <path class="cls-1" d="m24.14,59.98c-.13.31-.19.75-.65.61-.17-.05-.25-.4-.37-.61,0,0-.05.06-.05.06.37,0,.74,0,1.12,0l-.05-.07Z"/>
      <path class="cls-1" d="m7.81,62.09c-.82.11-1.03-.4-1.07-1.07,0,0-.05.07-.05.07.37,0,.75,0,1.12,0,0,0-.06-.06-.06-.06,0,.37,0,.75,0,1.12,0,0,.06-.06.06-.06Z"/>
      <path class="cls-1" d="m50.08,62.12c-.64-.08-1-.44-1.08-1.08,0,0-.05.06-.05.06.74-.03,1.12.31,1.06,1.07l.06-.05Z"/>
      <path class="cls-1" d="m19.92,61.62c.24.07.49.14.72.23.04.01.06.21.03.23-.13.08-.28.12-.43.18l-.27-.69-.06.06Z"/>
      <path class="cls-1" d="m43.67,28.86c.37,0,.74,0,1.11,0,0,0-.05-.05-.05-.05,0,.37,0,.74,0,1.11l.06-.06c-.63-.08-1.04-.39-1.07-1.07l-.05.06Z"/>
      <path class="cls-1" d="m29.4,29.97c-.75-.71-.74-.74.09-1.11,0,0-.06-.06-.06-.06-.03.41-.05.81-.08,1.22,0,0,.05-.05.05-.05Z"/>
      <path class="cls-1" d="m26.65,29.42c.04-.06.09-.12.13-.17.1.08.2.16.28.25,0,.01-.08.11-.12.17-.1-.08-.19-.16-.29-.25Z"/>
      <path class="cls-1" d="m24.86,63.04c.32.07.64.14.96.21,0,0-.06-.06-.06-.06-.04.16-.03.35-.13.46-.13.16-.33.26-.5.39-.1-.18-.23-.36-.28-.56-.04-.15.03-.32.06-.48l-.05.03Z"/>
      <path class="cls-1" d="m12.94,64c.07.03.13.06.2.09-.07.09-.15.17-.22.26-.03-.06-.1-.13-.09-.19,0-.06.08-.11.12-.16Z"/>
      <path class="cls-1" d="m31.6,65.87c-.25-.68-.02-1.21.52-1.65,0,0-.06-.03-.06-.03-.18.54-.35,1.08-.53,1.62l.07.06Z"/>
      <path class="cls-1" d="m34.21,27.81c-.08.1-.17.2-.26.3-.03-.06-.1-.15-.08-.18.06-.11.16-.2.24-.3.03.06.06.12.1.18Z"/>
      <path class="cls-1" d="m36.58,27.96c-.15-.19-.33-.37-.45-.59-.03-.06.12-.22.18-.34.06.05.17.1.18.16.03.24.04.49.05.74l.03.02Z"/>
      <path class="cls-1" d="m28.81,64.81c.73.06,1.37.26,1.66,1.03,0,0,.06-.06.06-.06-.9.22-1.28-.41-1.67-1.02,0,0-.05.05-.05.05Z"/>
      <path class="cls-1" d="m29.35,66.93c-.32.16-.63.33-.95.49,0,0,.06.06.06.06,0-.16-.06-.34-.02-.49.05-.21.13-.55.26-.58.42-.11.53.24.6.57,0,0,.05-.04.05-.04Z"/>
      <path class="cls-1" d="m30.57,66.94c-.01-.39-.02-.77-.03-1.16,0,0-.06.06-.06.06.38.01.75.02,1.13.03,0,0-.07-.06-.07-.06,0,.37,0,.73,0,1.1,0,0,.06-.06.06-.06-.35.02-.7.03-1.06.05l.04.04Z"/>
      <path class="cls-1" d="m38.91,22.49q1.04.77.04,1.56s.03.06.03.06c0-.55,0-1.1-.01-1.65l-.06.03Z"/>
      <path class="cls-1" d="m46.93,21.92c-.17,0-.38.06-.52-.02-.19-.11-.35-.29-.47-.48-.03-.04.23-.35.27-.34.21.09.42.21.56.38.1.12.07.34.1.51,0,0,.06-.06.06-.06Z"/>
      <path class="cls-1" d="m27.37,68.53c0-.4,0-.79.02-1.19,0,0-.06.06-.06.06.38.03.75.05,1.13.08,0,0-.06-.06-.05-.06-.07.66-.47.97-1.1,1.05,0,0,.06.06.06.06Z"/>
      <path class="cls-1" d="m22.01,67.94c-.46,1.2-.49,1.21-1.56.51,0,0-.02.06-.02.06.55-.18,1.09-.36,1.64-.54l-.06-.02Z"/>
      <path class="cls-1" d="m29.44,69.47c.2.16.43.3.59.49.09.1.09.29.14.44-.19-.07-.48-.09-.55-.23-.12-.21-.09-.5-.13-.76,0,0-.05.05-.05.05Z"/>
      <path class="cls-1" d="m27.35,71.48c-.11.22-.19.35-.26.49-.16-.15-.35-.27-.46-.45-.04-.06.12-.25.19-.38.18.12.35.23.52.34Z"/>
      <path class="cls-1" d="m27.93,73.32c-.01-.24-.1-.51-.01-.72.07-.17.32-.26.51-.38.02-.01.16.1.16.13-.03.15-.06.32-.16.43-.16.18-.36.33-.54.49,0,0,.05.05.05.05Z"/>
      <path class="cls-1" d="m35.26,70.61c.18-.36.35-.73.53-1.09,0,0-.06-.02-.06-.02.18.37.37.74.55,1.11,0,0,.05-.05.05-.05-.37,0-.75,0-1.12,0l.05.06Z"/>
      <path class="cls-1" d="m32.48,68.02c.16,0,.34-.03.48.02.11.04.18.19.27.3-.06.04-.13.1-.19.1-.07,0-.15-.05-.2-.1-.11-.12-.2-.25-.3-.38,0,0-.06.06-.06.06Z"/>
      <path class="cls-1" d="m31.47,67.84c-.02.24-.01.49-.07.72-.01.04-.26.03-.39.05,0-.08-.05-.19-.02-.23.17-.17.36-.33.54-.49,0,0-.06-.06-.06-.06Z"/>
      <path class="cls-1" d="m25.3,69.12c.02-.25.02-.5.08-.73.01-.05.24-.05.37-.08,0,.08.05.19.01.23-.16.19-.34.35-.52.53,0,0,.06.06.06.06Z"/>
      <path class="cls-1" d="m23.12,69.03c.37-.74.45-.74,1.04,0,0,0,.03-.07.03-.07-.37,0-.75,0-1.12,0l.05.06Z"/>
      <path class="cls-1" d="m44.71,20.84c0,.17.02.36-.04.5-.05.11-.23.15-.35.23,0-.15-.05-.33.02-.43.09-.12.28-.17.43-.25,0,0-.05-.05-.05-.05Z"/>
      <path class="cls-1" d="m37.9,66.91c.52-.65,1.04-.25,1.57,0,0,0,.02-.05.02-.05-.54,0-1.07,0-1.61,0l.03.06Z"/>
      <path class="cls-1" d="m38.95,24.05c-.11.12-.21.25-.33.36-.52.46-.69.19-.71-.36,0,0-.05.06-.05.06.37,0,.74,0,1.12,0,0,0-.03-.06-.03-.06Z"/>
      <path class="cls-1" d="m45.82,27.28c.15-.37.33-.74.81-.61.12.03.14.4.21.61,0,0,.05-.06.05-.06-.37,0-.74,0-1.11,0l.04.06Z"/>
      <path class="cls-1" d="m35.69,64.27c.2.08.41.17.2.08.17.15,0,0-.15-.14,0,0-.05.05-.05.05Z"/>
      <path class="cls-1" d="m37.04,61.87v.73s-.03,0-.05,0c.01-.25.03-.5.04-.76,0,0,.01.03.01.03Z"/>
      <path class="cls-1" d="m31.22,61.84c.09.13.19.26.28.38.05.06.1.12.16.19-.08-.06-.2-.1-.24-.18-.08-.14-.11-.3-.17-.44,0,0-.03.05-.03.05Z"/>
      <path class="cls-1" d="m24.92,63.01c-.36,0-.72,0-1.07,0,.02-.12.05-.24.07-.37.31.14.62.27.94.4,0,0,.06-.03.06-.03Z"/>
      <path class="cls-1" d="m15.75,63.24c.04-.24.06-.49.11-.73.01-.05.19-.12.2-.11.08.11.23.33.2.36-.17.17-.38.29-.58.43,0,0,.06.05.06.05Z"/>
      <path class="cls-1" d="m29.93,61.61c.42.08.85.17,1.28.24,0,0,.03-.05.04-.06-.43.29-.86.59-1.29.89,0,0,.05.05.05.05,0-.39-.01-.79-.02-1.18,0,0-.06.06-.06.06Z"/>
      <path class="cls-1" d="m27.24,60.39c-.03.73-.29,1.2-1.13,1.09,0,0,.05.04.05.04.38-.36.76-.71,1.13-1.06,0,0-.05-.06-.05-.06Z"/>
      <path class="cls-1" d="m19.98,61.56c-.42-.03-.83-.06-1.25-.09,0,0,.05.05.05.05.38-.34.77-.68,1.15-1.03,0,0-.06-.06-.06-.06.02.39.04.79.06,1.18,0,0,.06-.06.06-.06Z"/>
      <path class="cls-1" d="m15.92,61.21c-.11-.22-.24-.43-.3-.66-.02-.06.2-.18.31-.27.05.06.14.14.13.19-.05.24-.13.47-.2.7,0,0,.06.04.06.04Z"/>
      <path class="cls-1" d="m26.15,59.3c-.05.34-.1.68-.15,1.02-.11-.04-.21-.07-.32-.11.17-.28.34-.57.51-.86,0,0-.04-.06-.04-.06Z"/>
      <path class="cls-1" d="m31.87,32.17l.89-.11c0,.09,0,.17-.01.26-.27-.06-.54-.13-.82-.18,0,0-.06.04-.06.04Z"/>
      <path class="cls-1" d="m25.3,58.54c0-.16-.03-.34.03-.48.03-.08.22-.09.33-.13-.02.08-.01.18-.06.23-.11.12-.24.21-.36.32,0,0,.06.05.06.05Z"/>
      <path class="cls-1" d="m20.43,56.85c-.04.16-.05.35-.14.48-.04.06-.23.01-.35.01.03-.08.04-.19.1-.22.14-.09.3-.15.45-.22l-.05-.05Z"/>
      <path class="cls-1" d="m15.1,58c-.08-.16-.17-.31-.24-.47-.03-.08-.03-.17-.04-.26.08.08.21.15.23.24.04.17.01.35,0,.53,0,0,.04-.05.04-.05Z"/>
      <path class="cls-1" d="m20.48,56.91c.03-.17.03-.36.1-.51.06-.11.23-.16.34-.24-.02.15.01.33-.07.43-.1.13-.29.18-.44.27,0,0,.05.05.05.05Z"/>
      <path class="cls-1" d="m32.07,40.47c.13-.18.25-.35.38-.53.07.09.13.19.2.28-.21.06-.42.13-.63.19,0,0,.05.05.05.05Z"/>
      <path class="cls-1" d="m33.56,55.31c.15.04.32.05.45.12.07.04.09.18.13.27-.07-.04-.15-.06-.2-.11-.12-.1-.22-.22-.33-.33,0,0-.05.05-.05.05Z"/>
      <path class="cls-1" d="m11.34,54.93c.19.14.39.28.58.41-.19.08-.39.15-.58.23v.05c.01-.25.01-.5.02-.75v.05Z"/>
      <path class="cls-1" d="m22.49,42.08c-.16-.15-.32-.3-.48-.45.12-.06.24-.12.36-.18.03.23.05.45.08.68l.05-.05Z"/>
      <path class="cls-1" d="m17.71,42.12s-.13-.08-.14-.13c0-.06.05-.12.08-.19.08.07.16.14.24.22-.06.03-.13.07-.19.1Z"/>
      <path class="cls-1" d="m38.48,53.69c-.12.1-.24.22-.37.31-.52.36-.73.21-.67-.4,0,0-.05.06-.05.06.38.03.76.05,1.14.08,0,0-.05-.05-.05-.05Z"/>
      <path class="cls-1" d="m36.15,53.54c-.01.28-.02.57-.03.85-.11-.04-.23-.07-.34-.11.14-.23.28-.46.43-.69l-.05-.05Z"/>
      <path class="cls-1" d="m22.44,42.13c.24.03.49.04.71.12.07.02.07.23.1.36-.08-.01-.17,0-.22-.04-.19-.15-.36-.33-.54-.49,0,0-.05.05-.05.05Z"/>
      <path class="cls-1" d="m30.52,43.12c.06-.16.1-.33.17-.48.03-.07.12-.11.19-.16.01.12.08.29.03.35-.11.11-.29.16-.44.24l.05.06Z"/>
      <path class="cls-1" d="m38.8,42.42c-.1.08-.2.16-.3.24-.04-.06-.13-.17-.11-.18.09-.09.2-.17.3-.25.04.06.08.13.11.19Z"/>
      <path class="cls-1" d="m36.2,53.59c.42-.43.84-.67,1.19.07,0,0,.05-.06.05-.06-.43-.02-.86-.04-1.29-.06,0,0,.05.05.05.05Z"/>
      <path class="cls-1" d="m30.47,43.06c-.13.39-.26.79-.38,1.19,0,0,.05.04.06.04-.15-.45-.31-.9-.46-1.35h-.05c.3.06.59.12.89.18,0,0-.05-.06-.05-.06Z"/>
      <path class="cls-1" d="m26.12,43.4v.87c-.07,0-.15-.02-.22-.02.08-.26.17-.52.24-.79,0,0-.02-.06-.02-.06Z"/>
      <path class="cls-1" d="m31.59,52.16c.01-.15,0-.32.06-.45.05-.1.2-.15.31-.22,0,.13.03.3-.03.38-.08.11-.25.16-.38.24,0,0,.05.05.05.05Z"/>
      <polygon class="cls-1" points="47.88 45.76 47.73 45.65 47.9 45.58 47.88 45.76"/>
      <path class="cls-1" d="m23.59,51.07c-.16-.05-.34-.07-.46-.17-.09-.07-.1-.25-.15-.37.15-.03.29-.06.44-.1.04.23.08.46.11.7,0,0,.06-.06.06-.06Z"/>
      <path class="cls-1" d="m21.88,46.63c.14-.07.27-.15.41-.21.07-.03.15-.02.23-.03-.07.08-.12.23-.2.24-.15.02-.3-.03-.45-.05v.05Z"/>
      <path class="cls-1" d="m32.15,46.28c-.18.12-.36.24-.2.14-.17.07.04-.01.25-.09,0,0-.05-.04-.05-.04Z"/>
      <path class="cls-1" d="m33.01,46.35c.23.02.47.02.7.07.06.01.07.21.1.33-.07,0-.17.04-.22,0-.18-.14-.35-.3-.53-.46,0,0-.06.05-.06.05Z"/>
      <path class="cls-1" d="m40.39,46.37c.25.03.51.03.74.11.1.03.15.23.22.36-.13.01-.3.08-.37.02-.2-.15-.35-.36-.53-.54,0,0-.06.05-.06.05Z"/>
      <path class="cls-1" d="m45.25,47.86c.19.11.39.22.58.32-.09.08-.19.17-.28.25-.08-.21-.16-.42-.24-.63,0,0-.06.05-.06.05Z"/>
      <path class="cls-1" d="m43.15,64.81c.36-.36.73-.34,1.1,0,0,0,.02-.06.02-.06-.38,0-.76,0-1.14,0l.02.06Z"/>
      <path class="cls-1" d="m30.53,66.9c-.38.48-.78.21-1.18.03,0,0-.05.05-.05.05.42-.01.84-.02,1.27-.04,0,0-.04-.04-.04-.04Z"/>
      <path class="cls-1" d="m22.56,66.81c-.18.38-.37.75-.55,1.13,0,0,.06.02.06.02.18-.36.36-.72.54-1.08l-.05-.07Z"/>
      <polygon class="cls-1" points="25.27 66.01 25.47 66.13 25.24 66.2 25.27 66.01"/>
      <path class="cls-1" d="m34.69,65.3c.42.35.45.7,0,1.06,0,0,.05.02.05.02,0-.37,0-.74,0-1.11l-.06.03Z"/>
      <path class="cls-1" d="m29.86,63.81l.59.13c-.06.04-.15.13-.17.11-.13-.09-.25-.2-.38-.3,0,0-.05.06-.05.06Z"/>
      <path class="cls-1" d="m21.26,58.65c0,.06,0,.14-.03.16-.05.03-.12.03-.19.04.01-.09.03-.18.04-.27.06.02.12.05.17.07Z"/>
      <path class="cls-1" d="m28.6,58.76c-.03-.12-.05-.19-.06-.25.06-.01.11-.03.17-.04-.03.08-.06.16-.11.29Z"/>
      <polygon class="cls-1" points="18.99 56.59 18.79 56.66 18.81 56.47 18.99 56.59"/>
      <path class="cls-1" d="m11.34,55.58s.02.04.02.06c0,0-.02-.06-.02-.06Z"/>
      <path class="cls-1" d="m18.77,54.81c.18.05.36.09.54.14-.05.03-.14.1-.16.09-.12-.08-.22-.19-.33-.28,0,0-.05.06-.05.06Z"/>
      <path class="cls-1" d="m17.49,54.57c-.13.01-.25.03-.27.03,0,0,.11,0,.22,0,0,0,.05-.03.05-.03Z"/>
      <path class="cls-1" d="m11.36,54.88s0,.03,0,.05c0,0,0-.05,0-.05Z"/>
      <path class="cls-1" d="m50.06,50.54c.18-.37.36-.74.54-1.11,0,0-.06-.02-.06-.02-.04.43-.04.88-.54,1.08l.05.06Z"/>
      <polygon class="cls-1" points="27.48 49.97 27.57 49.83 27.62 49.99 27.48 49.97"/>
      <path class="cls-1" d="m33.83,48.25c-.17,0-.33.02-.5.03.15,0,.29.01.44.02,0,0,.05-.04.05-.04Z"/>
      <path class="cls-1" d="m21.87,46.58c.02.13.05.25.07.38-.02-.11-.03-.21-.05-.32,0,0-.02-.05-.02-.05Z"/>
      <path class="cls-1" d="m26.14,46.13c0,.15-.01.3-.02.45-.02-.06-.06-.12-.04-.17.02-.08.08-.15.11-.23,0,0-.05-.05-.05-.05Z"/>
      <polygon class="cls-1" points="23.95 46.89 23.77 46.88 23.86 46.71 23.95 46.89"/>
      <path class="cls-1" d="m31.33,43.93c.02.21.03.42.05.63-.04-.04-.13-.09-.12-.12.03-.15.08-.3.12-.46,0,0-.04-.05-.04-.05Z"/>
      <path class="cls-1" d="m29.69,42.94c-.13,0-.26.02-.03,0-.25.02-.14.01-.03,0,0,0,.06,0,.06,0Z"/>
      <path class="cls-1" d="m34.87,40.88c-.14,0-.28,0-.42,0,.12.02.24.04.37.06,0,0,.05-.05.05-.05Z"/>
      <path class="cls-1" d="m42.95,38.28s-.04,0-.04,0c0,.2,0,.4,0,.6-.04-.06-.12-.13-.11-.19.03-.14.09-.27.14-.41Z"/>
      <path class="cls-1" d="m30.22,29.07c.19-.05.38-.09.16-.04.26-.03.08,0-.11.02,0,0-.05.02-.05.02Z"/>
      <path class="cls-1" d="m36.55,27.93c.16.02.32.03.49.05-.15,0-.3-.02-.45-.03,0,0-.04-.02-.04-.02Z"/>
      <polygon class="cls-1" points="29.68 25.82 29.62 25.63 29.79 25.66 29.68 25.82"/>
      <path class="cls-1" d="m37.88,66.86c.54,0,1.07,0,1.61,0,.75,1.36.76,1.7-.19,2.66-.48.48-.7.02-.82-.43,0-.13.02-.26.03-.38,0,.14.01.29.02.43l-1.19.43c-.53-.72-1.07-1.45-1.6-2.17.73-.1,1.52.04,2.14-.53Z"/>
      <path class="cls-1" d="m44.67,69.59c.18-.28.35-.56.59-.94.56.27,1.07.51,1.43.68.57.8-.43,1.6.4,2.26.42.34.76.65,1.32.5,0,0-.04-.06-.04-.06-.59.52-1.32.6-2.06.64,0,0,.06.05.06.05-.12-.62-.49-.99-1.11-1.11l.06.05c-.24-.34-.47-.68-.72-1.01-.32-.41-.19-.76.11-1.1.11.11.21.23.33.32.05.04.15,0,.23,0-.05-.11-.07-.28-.14-.3-.14-.04-.31,0-.46.02Z"/>
      <path class="cls-1" d="m45.71,78.37c-.2-.26-.34-.66-.6-.75-.56-.19-1.17-.22-2.02-.36,1.12-.44,1.89-1.17,3.01-.63.14-.67-.23-1.58.81-1.81l-.08-.05c-.01.75.46,1.03,1.11,1.12l-.06-.06c-.4,1.14-.72,2.34-2.22,2.49l.04.05Z"/>
      <path class="cls-1" d="m49.65,71.25c.23.39.51.33.85.14.25-.14.52-.23,1.3-.56-.76,1.04-1.18,1.62-1.68,2.31-.62-.4-1.18-.76-1.74-1.11,0,0,.04.06.04.06.16-.7.64-.86,1.27-.79l-.05-.05Z"/>
      <path class="cls-1" d="m37.86,73.72c-.1.33-.2.65-.32,1.04h-1.99c-.16-.67-.33-1.37-.5-2.09.76-.09,1.21.31,1.51.87.37.68.86.4,1.35.24,0,0-.05-.05-.05-.05Z"/>
      <path class="cls-1" d="m48.91,75.91c-.34-.02-.68-.05-1.02-.07,0,0,.06.06.06.06,0-.37,0-.74,0-1.12l-.03.06c.4-.29.81-.58,1.31-.94.63.2,1.34.43,2.04.66l.03-.02c-.08.29-.16.59-.25.88,0,0,.05-.06.05-.06-.58-.08-1.16-.16-1.85-.25-.11.25-.25.55-.38.86,0,0,.05-.06.05-.06Z"/>
      <path class="cls-1" d="m51.05,75.42c.24,0,.66-.1.69-.02.36.81.05,1.66-.75,2.07-.08.04-.28-.14-.47-.25.19-.62.38-1.24.58-1.87,0,0-.05.06-.05.06Z"/>
      <path class="cls-1" d="m43.66,67.41c-.59.08-.88.45-1.01,1l.05-.05c-.83.2-1.23-.38-1.8-1.02.48-.13.85-.21,1.2-.34.3-.11.59-.27.98-.46.2.36.36.64.52.92l.05-.05Z"/>
      <path class="cls-1" d="m42.1,73.24c-.02.35-.03.7-.05,1.05,0,0,.06-.05.06-.05-.72-.18-1.43-.36-2.15-.54l.05.05c.11-.73.43-1.03,1.18-.66.29.14.64.14.96.21,0,0-.06-.06-.06-.06Z"/>
      <path class="cls-1" d="m39.96,73.7q-.31,1.05-1.22,1.68c-.55-.64.27-1.09.22-1.65,0,0-.06.06-.06.06.37-.01.74-.02,1.11-.04,0,0-.05-.06-.05-.06Z"/>
      <path class="cls-1" d="m49.79,67.25c.4.52.79,1.04,1.26,1.66q-.96-.1-1.71-.81c.17-.26.34-.53.51-.81,0,0-.07-.04-.07-.04Z"/>
      <path class="cls-1" d="m50.52,79.98c.05-.34.11-.68.16-1.01,0,0-.06.06-.06.06.23-.12.47-.23.7-.35.31.87.29.86-.84,1.25l.04.06Z"/>
      <path class="cls-1" d="m42.05,74.29c.23.08.47.13.68.24.11.06.22.25.21.38,0,.1-.18.29-.27.28-.12-.01-.28-.14-.34-.26-.11-.21-.16-.46-.23-.69,0,0-.06.05-.06.05Z"/>
      <path class="cls-1" d="m36.29,70.61c-.18-.37-.37-.74-.55-1.11.55,0,1.1,0,1.65,0-.07.42-.14.83-.21,1.25l.05-.05c-.31-.03-.63-.06-.94-.09Z"/>
      <path class="cls-1" d="m49.59,69.96c-.25,0-.52.06-.74-.03-.17-.06-.27-.3-.38-.47,0-.01.11-.16.15-.15.15.02.33.03.43.12.19.16.33.37.49.57,0,0,.05-.04.05-.04Z"/>
      <path class="cls-1" d="m35.21,70.55c.37,0,.75,0,1.12,0-.07.14-.12.29-.2.43-.34.53-.47.54-.78.02-.08-.13-.09-.3-.14-.45Z"/>
      <path class="cls-1" d="m45.32,72.65c-.24-.16-.49-.32-.73-.48.24-.18.49-.35.73-.53,0,0-.06-.05-.06-.05,0,.37,0,.74,0,1.12l.06-.07Z"/>
      <path class="cls-1" d="m42.16,73.3c0-.16-.01-.33.03-.48.04-.13.14-.29.25-.34.06-.03.3.13.31.21,0,.13-.1.29-.2.38-.12.1-.3.12-.45.18,0,0,.06.06.06.06Z"/>
      <path class="cls-1" d="m37.94,72.67c.4.08.79.15,1.19.23l-.03-.05c-.07.31-.13.62-.2.94,0,0,.06-.06.06-.06-.37,0-.74,0-1.1-.01,0,0,.05.05.05.05.02-.38.05-.76.07-1.14l-.04.05Z"/>
      <path class="cls-1" d="m45.08,73.51c.08-.29.16-.57.24-.86,0,0-.06.07-.06.07.37,0,.74,0,1.12,0,0,0-.06-.05-.06-.05-.04.39-.07.79-.1,1.18,0,0,.06-.05.06-.05-.4-.11-.79-.21-1.19-.32v.04Z"/>
      <path class="cls-1" d="m46.92,74.83c-.22-.35-.43-.69-.65-1.04,0,0-.06.05-.06.05.86-.17,1.37.27,1.71,1,0,0,.03-.06.03-.06-.37,0-.74,0-1.11,0l.08.05Z"/>
      <path class="cls-1" d="m36.83,76.2c-.11.11-.21.29-.35.32-.11.02-.26-.13-.39-.2.11-.11.21-.29.33-.31.12-.02.27.12.4.19Z"/>
      <path class="cls-1" d="m39.48,76.92c.1-.21.2-.41.3-.62.17.14.33.28.5.41-.12.07-.24.19-.37.21-.16.02-.32-.04-.48-.06,0,0,.05.06.05.06Z"/>
      <path class="cls-1" d="m49.49,79.02c-.1.26-.21.52-.31.79-.09-.08-.19-.17-.28-.25.22-.16.44-.32.65-.48,0,0-.06-.06-.06-.06Z"/>
      <path class="cls-1" d="m49.62,77.9c.33.38.67.75,1,1.13,0,0,.06-.06.06-.06-.4.02-.79.04-1.19.06,0,0,.06.06.06.06.04-.41.08-.82.12-1.23,0,0-.05.05-.05.05Z"/>
      <path class="cls-1" d="m43.98,78.33s-.07-.1-.11-.15c.06-.03.17-.11.18-.1.06.07.1.16.15.25-.07,0-.15,0-.22,0Z"/>
      <path class="cls-1" d="m49.67,77.85c-.25.02-.51.06-.76.04-.07,0-.11-.22-.17-.34.07-.02.17-.07.22-.04.22.12.43.26.65.39,0,0,.06-.05.06-.05Z"/>
      <path class="cls-1" d="m34.22,73.92c-.08.11-.17.3-.24.29-.13-.01-.24-.14-.36-.22.05-.06.11-.17.16-.17.14,0,.28.06.44.09Z"/>
      <path class="cls-1" d="m37.98,72.63c-.29-.03-.58-.07-1.11-.13.68-.4.82,0,1.07.17,0,0,.05-.05.05-.05Z"/>
      <path class="cls-1" d="m41.45,70.97c.24-.16.49-.32.73-.48l.09.26c-.29.06-.58.11-.87.17,0,0,.05.05.05.05Z"/>
      <path class="cls-1" d="m40.61,70.18c-.08.23-.16.46-.26.68-.02.05-.2.08-.21.06-.06-.12-.15-.34-.13-.36.2-.13.42-.22.63-.32l-.04-.06Z"/>
      <path class="cls-1" d="m40.65,70.24c.03-.3.07-.59.1-.89.08.02.17.04.25.06-.13.25-.27.51-.4.77,0,0,.04.06.04.06Z"/>
      <path class="cls-1" d="m42.65,68.41c.18.18.36.36.54.54-.1.06-.2.11-.3.17-.06-.25-.13-.51-.19-.76,0,0-.05.05-.05.05Z"/>
      <path class="cls-1" d="m43.6,67.47c.18.11.36.22.54.32-.07.02-.19.07-.21.05-.11-.13-.19-.28-.28-.43,0,0-.06.06-.06.06Z"/>
      <path class="cls-1" d="m46.21,67.27c.06.05.12.1.18.14l-.25.31c-.06-.05-.17-.13-.17-.14.07-.11.15-.21.23-.32Z"/>
      <path class="cls-1" d="m45.67,78.32c0,.15.02.31.02.46,0-.13.02-.27.02-.41,0,0-.04-.06-.04-.06Z"/>
      <path class="cls-1" d="m48.86,75.97c.19.05.38.09.57.14-.06.03-.14.11-.16.1-.13-.09-.24-.19-.35-.29,0,0-.05.06-.05.06Z"/>
      <polygon class="cls-1" points="40.88 75.4 40.69 75.4 40.79 75.2 40.88 75.4"/>
      <path class="cls-1" d="m32.19,74.57c-.13.04-.19.06-.26.08-.02-.06-.03-.12-.05-.18.09.03.17.06.31.1Z"/>
      <path class="cls-1" d="m45.07,73.47c.03.2.05.4.02.13.01.29,0,.11,0-.08,0,0,0-.05,0-.05Z"/>
      <path class="cls-1" d="m51.27,74.56c0-.15-.01-.3-.02-.44-.02.06-.06.12-.05.18.01.08.06.16.09.24,0,0-.02.03-.02.03Z"/>
      <path class="cls-1" d="m31.91,72.85c.16-.03.32-.05.48-.08-.14,0-.28.02-.43.03,0,0-.05.05-.05.05Z"/>
      <path class="cls-1" d="m39.13,72.9c-.03-.15-.06-.3-.09-.45.03.05.07.11.07.16,0,.07-.01.15-.02.23,0,0,.04.05.04.05Z"/>
      <path class="cls-1" d="m41.4,70.92c0,.22,0,.44-.01.66-.05-.05-.15-.11-.14-.14.06-.16.14-.31.21-.46,0,0-.05-.05-.05-.05Z"/>
      <path class="cls-1" d="m37.18,70.75c.15-.04.3-.12.45-.11.08,0,.15.17.23.26-.07.01-.16.05-.21.03-.14-.06-.27-.16-.41-.23,0,0-.05.05-.05.05Z"/>
      <path class="cls-1" d="m49.69,71.29c-.03-.44-.07-.89-.1-1.33,0,0-.05.04-.05.04.62.37.29.8.1,1.24,0,0,.05.05.05.05Z"/>
      <path class="cls-1" d="m43.13,64.75c.38,0,.76,0,1.14,0-.38.58-.76.36-1.14,0Z"/>
      <path class="cls-1" d="m50.01,50.48c.5-.2.49-.65.54-1.08.91.78,1.32,2.01.97,2.89-.45,1.13-.7,1.24-2.52,1.14,0,0,0,0,0,0,0-.46,0-.92,0-1.37,0,0-.04.06-.04.06h1.47c-.15-.58-.29-1.11-.43-1.63Z"/>
      <path class="cls-1" d="m44.2,55.28c.01-.59.08-1.17.58-1.58l-.06-.06c.1.38.13.89.67.76.2-.05.3-.49.45-.76,0,0-.05.06-.05.06.54-.35,1.09-.71,1.63-1.06,0,0-.05-.05-.05-.05q-.03,1.44,1.11,1.63s-.05-.05-.05-.05c0,.37,0,.74,0,1.11l.05-.07c-.36.18-.71.36-1.07.53l.03.05c-.08-.14-.14-.31-.25-.42-.16-.16-.36-.29-.55-.43-.11.2-.22.4-.31.61-.03.07,0,.16,0,.24l.03-.06c-.36,0-.72-.02-1.08-.03l.04.04c-.37-.16-.74-.32-1.11-.49Z"/>
      <path class="cls-1" d="m50.62,56.41c.15.33.3.65.44.98l.06-.05c-.16.06-.33.09-.47.18-.58.37-.58.55-.02.82.15.07.32.08.49.12,0,0-.06-.03-.06-.03q-.54.93-1.42.65c-.23-.07-.47-.13-.7-.2,0,0,.06.05.06.05-.15-1.31.56-2.03,1.68-2.47l-.05-.06Z"/>
      <path class="cls-1" d="m50.02,62.16c.05-.76-.32-1.1-1.06-1.07,0-.37,0-.74,0-1.11.4.12.86.17,1.19.39.32.21.73.64.69.92-.04.32-.53.58-.83.87Z"/>
      <path class="cls-1" d="m43.2,57.4c-.62-.12-1.08-.4-1.11-1.11.73-.35,1.45-.71,2.18-1.06-.51.65-1.25,1.18-1.07,2.17Z"/>
      <path class="cls-1" d="m49.48,55.26c-.16.23-.32.46-.48.69-.18-.24-.36-.48-.53-.72,0,0-.05.07-.05.07.37,0,.74,0,1.11,0,0,0-.06-.03-.06-.03Z"/>
      <path class="cls-1" d="m46.43,57.78c.24.2.48.4.71.62.04.03,0,.21-.01.21-.14.02-.4.07-.42.02-.11-.29-.17-.6-.25-.91,0,0-.04.06-.04.06Z"/>
      <path class="cls-1" d="m49.01,60.04c-.37,0-.74,0-1.12,0,.09-.64.6-.87,1.1-1.11,0,0-.06-.05-.06-.06.02.39.05.77.07,1.16Z"/>
      <path class="cls-1" d="m51.07,57.39c.19.11.37.22.56.34-.19.23-.37.47-.56.7,0,0,.06.03.06.03,0-.37,0-.75,0-1.12l-.06.05Z"/>
      <path class="cls-1" d="m46.47,57.72c-.4.24-.8.48-1.2.73,0,0,.05.05.05.05q.3-1.04,1.11-.71s.04-.06.04-.06Z"/>
      <path class="cls-1" d="m44.26,58.46c-.37-.37-.75-.75-1.12-1.12.58.16,1.12.37,1.12,1.12Z"/>
      <path class="cls-1" d="m48.27,57.28c-.05.06-.09.12-.14.17-.06-.11-.12-.21-.18-.32.07-.02.16-.08.21-.05.05.02.07.13.1.2Z"/>
      <path class="cls-1" d="m45.26,55.72c-.05.17-.09.34-.15.51-.03.08-.1.14-.15.21-.02-.11-.1-.27-.06-.33.1-.14.26-.23.4-.34,0,0-.04-.04-.04-.04Z"/>
      <path class="cls-1" d="m50.67,56.46c.01-.24-.01-.5.05-.73.02-.1.22-.15.34-.23.03.13.13.3.08.37-.14.2-.34.35-.52.52,0,0,.05.06.05.06Z"/>
      <path class="cls-1" d="m49.01,53.43s0,0,0,0c.16.26.33.51.49.77l.05-.03c-.37,0-.74,0-1.11,0,0,0,.05.05.05.05-.03-.4-.03-.78.53-.8Z"/>
      <path class="cls-1" d="m55.76,50.09c.05.06.09.12.14.18-.12.08-.24.16-.36.24-.04-.07-.12-.19-.11-.2.1-.09.22-.15.33-.23Z"/>
      <path class="cls-1" d="m47.4,55.75c-.35.56-.71.4-1.06,0,0,0-.03.06-.03.06.37,0,.75,0,1.12,0,0,0-.03-.05-.03-.05Z"/>
      <path class="cls-1" d="m49.48,54.2c.62.35.4.7,0,1.05,0,0,.06.03.06.03,0-.37,0-.74,0-1.11l-.05.03Z"/>
      <path class="cls-1" d="m38.92,35.22c-.07-.65-.39-1.04-1.07-1.07.18-.35.39-.68.52-1.04.13-.41-.12-.55-.5-.54-.18-.55-.36-1.09-.54-1.64.54.24,1.1.44,1.6.74.74.44,1.44.96,2.15,1.44,0,0-.07-.06-.07-.06.38.19.76.38,1.14.57l-.07-.05c0,.37,0,.74,0,1.11l.04-.06q-1.51-.17-3.2.6Z"/>
      <path class="cls-1" d="m46.31,34.09c.9.36,1.8.71,2.7,1.07,0,.35-.01.7-.02,1.05,0,0,.06-.05.06-.05-.51.3-1.01.59-1.64.96-.39-.31-.85-.67-1.25-.99.05-.71.1-1.37.14-2.03Z"/>
      <path class="cls-1" d="m48.43,31.45c.37,0,.73,0,1.1,0,.53.77,1.06,1.54,1.74,2.53-1.1-.23-1.77-1.39-2.84-.88,0-.55,0-1.1,0-1.65Z"/>
      <path class="cls-1" d="m50.54,38.32c-.04.39-.08.78-.12,1.17l.05-.04c-.89-.03-1.39-.62-1.89-1.38.15-.6.3-1.26.47-1.92,0,0-.06.05-.06.05.42.19,1.03.24.74.98-.31.82.32.97.86,1.19l-.05-.05Z"/>
      <path class="cls-1" d="m43.13,34.63c.23.85.99.87,1.65,1.05-.03.37-.06.74-.09,1.11l.05-.05c-.24.06-.62.24-.7.16-.67-.73-1.29-1.52-1.92-2.29,0,0-.04.06-.04.06.37,0,.74,0,1.12,0l-.07-.05Z"/>
      <path class="cls-1" d="m51.17,41.99q-1.32-.34-1.5-1.69l-.05.05c.74.35,1.32.84,1.5,1.69,0,0,.06-.05.06-.05Z"/>
      <path class="cls-1" d="m44.7,36.79c.62.27,1.23.54,1.85.81v-.04c-.8.2-1.48.08-1.8-.81,0,0-.05.05-.05.05Z"/>
      <path class="cls-1" d="m50.59,38.37c0-.17-.05-.36.01-.51.05-.12.23-.2.36-.27.03-.01.17.11.17.16-.01.16-.02.37-.12.46-.11.1-.32.08-.48.11,0,0,.05.05.05.05Z"/>
      <path class="cls-1" d="m48.96,35.21c0-.37,0-.75,0-1.12.71.1.96.56.94,1.22l.05-.05c-.33-.02-.66-.03-.99-.05Z"/>
      <path class="cls-1" d="m49.48,31.51c.07-.67.53-.96,1.12-1.12-.11.64-.34,1.15-1.12,1.12Z"/>
      <path class="cls-1" d="m49.02,34.15c-.94-.34-.96-.38-.56-1.13.19.38.37.75.56,1.13Z"/>
      <path class="cls-1" d="m45.25,34.68c.33-.93.41-.97,1.13-.56-.38.19-.75.37-1.13.56Z"/>
      <path class="cls-1" d="m50.42,39.49c.16.03.32.05.48.09.07.02.14.07.21.11-.09.02-.2.09-.26.06-.14-.08-.25-.2-.37-.3,0,0-.06.04-.06.04Z"/>
      <path class="cls-1" d="m49.67,40.31c-.2-.02-.41-.04-.61-.06.05-.04.12-.13.14-.12.14.07.27.16.41.24,0,0,.05-.06.05-.06Z"/>
      <path class="cls-1" d="m46.54,37.6c0,.16,0,.31,0,.47,0-.17,0-.33,0-.5,0,0,0,.04,0,.04Z"/>
      <path class="cls-1" d="m49.89,35.31c.2.03.4.06.6.09-.05.04-.13.12-.15.11-.14-.07-.26-.17-.39-.26,0,0-.05.06-.05.06Z"/>
      <path class="cls-1" d="m40.85,35.77c-.06-.02-.12-.04-.18-.06.08-.05.17-.1.25-.15-.02.07-.05.14-.07.21Z"/>
      <path class="cls-1" d="m44.73,35.75c0-.47.05-.93.58-1.14.03.49-.14.88-.58,1.14Z"/>
      <path class="cls-1" d="m42.05,12.41c.55.19,1.1.39,1.65.58l-.04-.05c.24,1.18-.82,1.56-1.27,2.27q-1.39-.24-2.44,1.27c.66.74,1.02,1.54.15,2.4,0,0,.06.05.07.05-.21-.39-.42-.78-.64-1.17l.05.05c-.51-.79-.76-1.55,0-2.38.88-.96,1.69-1.99,2.53-2.98,0,0-.05-.05-.05-.05Z"/>
      <path class="cls-1" d="m48.94,13.5c.18.35.37.7.55,1.05,0,0,.06-.06.06-.06-.95.19-1.58-.34-2.19-.98.2-.71.4-1.41.61-2.12,0,0-.06.05-.06.05.37-.37.74-.74,1.12-1.12,0,0-.03.06-.03.06.37.02.75.03,1.12.05,0,0-.06-.06-.06-.06-.53.82-1.32,1.53-1.09,2.67l.06-.08c-.22.1-.44.19-.66.29.22.1.44.2.66.3,0,0-.07-.05-.07-.05Z"/>
      <path class="cls-1" d="m50.51,6.61c.28,1.14.56,2.29.85,3.49-.52.1-.92.18-1.32.26,0,0,.06.06.07.06.01-.43-.06-.88.05-1.28.14-.47.08-.8-.22-1.19-.64-.81.07-1.03.63-1.28l-.06-.06Z"/>
      <path class="cls-1" d="m46.9,17.24c-.17-.39-.35-.78-.52-1.17,0,0-.05.07-.05.07.3-.18.59-.36.89-.53q.76-.43,1.19.57s.06-.05.06-.05c-.76.03-1.15.64-1.64,1.08l.06.04Z"/>
      <path class="cls-1" d="m46.26,9.23q-.02,1.25-1.03,2.2c.01-.99.42-1.63,1.08-2.15l-.06-.06Z"/>
      <path class="cls-1" d="m50.08,18.3c.11-.3.09-.77.57-.69.51.09,1,.3,1.03,1.06-.58-.15-1.12-.29-1.67-.43,0,0,.06.06.06.06Z"/>
      <path class="cls-1" d="m59.04,18.81c-.09.12-.18.32-.28.33-.12.01-.26-.14-.38-.23.09-.12.18-.31.28-.33.12-.01.25.14.38.22Z"/>
      <path class="cls-1" d="m42.97,18.66c-.03.24.02.63-.1.69-.53.27-.9.08-1.04-.56.41-.03.81-.06,1.2-.09,0,0-.06-.04-.06-.04Z"/>
      <path class="cls-1" d="m45.43,16.81q-.12-1.38,1.05-1.58l-.06-.05c-.03.32-.06.64-.09.96,0,0,.05-.07.06-.07-.34.23-.67.46-1.01.69l.05.05Z"/>
      <path class="cls-1" d="m45.81,12.85c.06.22.17.41.12.48-.14.18-.35.3-.53.45-.05-.14-.18-.34-.12-.42.12-.19.33-.33.54-.51Z"/>
      <path class="cls-1" d="m42.19,17.21c-.23-.17-.45-.34-.66-.53-.01,0,.14-.2.22-.31.21.2.43.4.64.6-.07.08-.13.16-.2.24Z"/>
      <path class="cls-1" d="m49.94,21.55c.24.08.47.17.71.25-.21.23-.42.47-.63.7,0,0,.06.05.06.05-.03-.35-.05-.71-.08-1.07,0,0-.06.06-.06.06Z"/>
      <path class="cls-1" d="m49.03,20.35c.34.02.67.04,1.01.06,0,0-.06-.05-.06-.05-.01.4-.02.8-.03,1.2,0,0,.06-.06.06-.05-.55-.22-.95-.54-.92-1.2,0,0-.05.06-.05.06Z"/>
      <path class="cls-1" d="m50.03,20.41c-.02-.33-.04-.67-.05-1,0,0-.06.06-.06.06.27.12.54.24.81.36-.25.18-.51.36-.76.53,0,0,.06.05.06.05Z"/>
      <path class="cls-1" d="m49.08,18.2c.33.03.67.06,1,.1,0,0-.06-.06-.06-.06-.03.41-.06.81-.1,1.22,0,0,.06-.06.05-.05-.48-.28-1.06-.5-.84-1.25l-.05.05Z"/>
      <path class="cls-1" d="m47.89,18.24c-.49,1.23-.5,1.23-1.53.56,0,0-.06.03-.06.03.55-.18,1.1-.36,1.66-.54l-.06-.05Z"/>
      <path class="cls-1" d="m46.36,18.8c-.75-.91-.74-.94.54-1.56,0,0-.06-.04-.06-.04-.18.54-.36,1.09-.54,1.63,0,0,.06-.03.06-.03Z"/>
      <path class="cls-1" d="m48.42,16.18c.25.15.49.29.74.44-.25.19-.5.37-.75.56,0,0,.08.05.08.05,0-.37,0-.74,0-1.1,0,0-.06.05-.06.05Z"/>
      <path class="cls-1" d="m50.56,15.66c.3.26.78.47.87.79.1.37-.58-.11-.81-.84l-.06.05Z"/>
      <path class="cls-1" d="m50.62,15.6c-.72-.03-.97-.5-1.07-1.12,0,0-.06.06-.06.06.4.05.8.11,1.2.16,0,0-.06-.05-.06-.05-.03.33-.05.67-.08,1,0,0,.06-.05.06-.05Z"/>
      <path class="cls-1" d="m49.96,12.34c.1-.13.17-.29.3-.39.09-.07.24-.07.37-.1,0,.07,0,.16-.03.21-.04.06-.12.12-.19.14-.16.04-.33.05-.49.08,0,0,.05.06.05.06Z"/>
      <path class="cls-1" d="m42.1,12.46c.24-.32.48-.64.8-1.07.26,1.08-.32,1.03-.85,1.02,0,0,.05.05.05.05Z"/>
      <path class="cls-1" d="m43.54,8.9c.26-.03.53-.13.76-.08.19.04.33.27.48.42,0,0-.09.18-.14.18-.16,0-.35.02-.46-.06-.21-.14-.39-.34-.58-.52,0,0-.06.05-.06.05Z"/>
      <path class="cls-1" d="m46.32,9.29c.13-.57.5-.9,1.03-1.09,0,0-.05-.05-.05-.05.06.75-.27,1.13-1.03,1.08,0,0,.06.06.06.06Z"/>
      <path class="cls-1" d="m48.67,7.42c-.38.4-.71.87-1.37.73,0,0,.05.05.05.05.21-.65.66-.88,1.32-.75v-.03Z"/>
      <path class="cls-1" d="m50.57,6.67c.07-.24.13-.49.22-.72.02-.04.21-.07.23-.05.07.13.18.39.16.4-.21.13-.44.21-.67.31,0,0,.06.06.06.06Z"/>
      <path class="cls-1" d="m49.86,4.31c.17-.18.34-.37.52-.53.05-.04.16,0,.24,0-.01.14,0,.4-.04.41-.23.06-.48.06-.72.08v.05Z"/>
      <path class="cls-1" d="m47.96,10.34c.22-.8.3-.84.77-.36.11.11.18.26.26.4,0,0,.03-.06.03-.06-.37,0-.75,0-1.12,0l.05.03Z"/>
      <path class="cls-1" d="m47.96,11.39c-.8-.32-.8-.39,0-1.04,0,0-.05-.03-.05-.03,0,.37,0,.75,0,1.12l.06-.05Z"/>
      <path class="cls-1" d="m48.95,13.03c.34-.23.68-.46,1.02-.69,0,0-.05-.06-.05-.07.1.74-.27,1.12-.97,1.22,0,0,.07.05.07.05,0-.2,0-.39,0-.59,0,0-.06.08-.06.08Z"/>
      <path class="cls-1" d="m43.71,16.15c-.09.1-.18.19-.27.29-.05-.12-.12-.24-.15-.36,0-.04.12-.16.13-.15.1.06.2.15.29.23Z"/>
      <path class="cls-1" d="m49.13,18.15c-.41.03-.83.06-1.24.08,0,0,.06.05.06.05.17-.35.35-.71.52-1.06,0,0-.08-.05-.08-.05.22.34.45.69.67,1.03,0,0,.06-.05.06-.05Z"/>
      <path class="cls-1" d="m39.53,17.77c-.22.14-.44.27-.66.41-.04-.11-.07-.21-.11-.32.27-.02.54-.03.81-.05,0,0-.04-.05-.04-.05Z"/>
      <path class="cls-1" d="m43.03,18.7c.19-.15.37-.32.58-.43.09-.05.24.03.36.05-.09.11-.16.28-.26.31-.23.05-.48.03-.73.04,0,0,.05.03.05.03Z"/>
      <path class="cls-1" d="m61.07,18.31c-.06-.03-.11-.05-.17-.08.03-.06.05-.14.1-.16.04-.02.11.05.17.07-.03.06-.06.11-.1.17Z"/>
      <polygon class="cls-1" points="52.01 21.07 52.18 21.17 52 21.24 52.01 21.07"/>
      <path class="cls-1" d="m49.07,20.29c-.19-.06-.38-.12-.57-.19.06-.04.16-.12.18-.1.12.1.22.23.34.34,0,0,.05-.06.05-.06Z"/>
      <polygon class="cls-1" points="45.06 19.22 45.11 19.4 44.95 19.38 45.06 19.22"/>
      <path class="cls-1" d="m45.37,16.76c-.14.08-.27.16-.41.24.15-.07.3-.13.46-.19,0,0-.05-.05-.05-.05Z"/>
      <path class="cls-1" d="m46.47,15.23c-.01-.16-.02-.32-.04-.48.07,0,.14,0,.21,0-.08.14-.16.28-.23.43,0,0,.06.05.06.05Z"/>
      <path class="cls-1" d="m50.69,14.71c.04-.21.08-.42.12-.63.04.06.13.15.12.17-.09.14-.2.27-.3.4,0,0,.06.06.06.06Z"/>
      <path class="cls-1" d="m43.7,12.99c.08-.13.17-.26.25-.39.06.1.12.2.18.31-.16,0-.31.02-.47.03,0,0,.04.05.04.05Z"/>
      <path class="cls-1" d="m48.67,7.46c-.02-.2-.04-.39-.05-.59,0,0,.01,0,.02,0,.01.18.02.36.04.55,0,0,0,.04,0,.04Z"/>
      <path class="cls-1" d="m46.59,5.28c.16-.04.32-.07.48-.11-.06.01-.13.03-.19.04-.08.02-.16.04-.24.06,0,0-.05,0-.05,0Z"/>
      <path class="cls-1" d="m49.86,4.27c0,.15.02.3,0,.05.02.26.01.14,0,0,0,0,0-.05,0-.05Z"/>
      <path class="cls-1" d="m4.05,59.42c-.13.69-.26,1.37-.39,2.06l.04-.05c-.39.04-.77.08-1.27.14.05-1.29.86-1.69,1.68-2.09,0,0-.06-.06-.06-.06Z"/>
      <path class="cls-1" d="m7.81,61.09c-.37,0-.75,0-1.12,0,0-.37,0-.75,0-1.12.69.06.93.55,1.12,1.11Z"/>
      <path class="cls-1" d="m1.57,63.35v-.36s-.03.18-.04.31c0,0,.04.05.04.05Z"/>
      <path class="cls-1" d="m3.66,61.47c.05.14.1.29.15.43-.04-.16-.07-.32-.11-.48,0,0-.04.04-.04.04Z"/>
      <path class="cls-1" d="m39.45,53.71c0-.55,0-1.09,0-1.64,1.2-.56,1.54-1.68,1.84-2.83,0,0-.05.04-.05.04.3.05.61.09.91.14-.16.65-.31,1.3-.51,2.12.48.43,1.04.92,1.72,1.54-.32.17-.54.39-.68.35-.62-.18-1,.04-1.26.58.02.12.03.24.01.06.01.16,0,.03,0-.11.62.28.91.68.69,1.4-.09.3.02.66.03,1-.73-.38-1.46-.76-2.26-1.17.18-.58.31-1.03.45-1.47-.31-.39-.59-.14-.88,0Z"/>
      <path class="cls-1" d="m44.97,51.85c-.3.1-.61.2-1.07.35-.03-.91.62-1.26.95-1.76l-.05.05c.9.38.17.93.13,1.41,0,0,.03-.04.03-.04Z"/>
      <path class="cls-1" d="m47.42,52.65c.05-.24.03-.54.17-.69.25-.27.59-.44.9-.65.16.27.32.54.48.81,0,0,.04-.06.04-.06-.55.18-1.09.36-1.64.54l.05.05Z"/>
      <path class="cls-1" d="m44.78,53.7c.06-.61.12-1.23.18-1.85,0,0-.03.04-.03.03.29.6.57,1.21.85,1.82,0,0,.05-.06.05-.06-.37,0-.75,0-1.12,0,0,0,.06.06.06.06Z"/>
      <path class="cls-1" d="m42.08,49.48c0-.37,0-.75,0-1.12.17.03.35.04.5.1.39.16.53.44.18.75-.17.15-.45.19-.69.27Z"/>
      <path class="cls-1" d="m46.82,50.94c-.06.24-.1.48-.21.7-.03.06-.26.02-.39.02.02-.08.01-.19.06-.23.19-.16.39-.29.59-.43,0,0-.05-.05-.05-.05Z"/>
      <path class="cls-1" d="m44.85,50.43c-.24-.02-.5-.02-.73-.09-.1-.03-.14-.23-.21-.35.13-.02.3-.09.37-.04.19.15.34.35.51.53,0,0,.05-.05.05-.05Z"/>
      <path class="cls-1" d="m42.91,50.91c.04.06.1.12.1.18,0,.06-.08.11-.12.16,0-.11.02-.22.03-.34Z"/>
      <path class="cls-1" d="m16.46,65.07c-.22.02-.44.05-.66.07.04-.04.08-.13.12-.12.16.02.32.06.49.09,0,0,.05-.04.05-.04Z"/>
      <path class="cls-1" d="m43.72,28.8c.03.68.44.99,1.07,1.07-.37.88-.75,1.75-1.08,2.64-.04.1.26.32.41.48l-.05-.04q.15,1.25-.93,1.68s.07.05.07.05c.09-.83-.43-1.06-1.12-1.12,0,0,.07.05.07.05l-1.14-.57s.07.06.07.06c-.77-1.45-1.46-2.9-.57-4.56.25,0,.52.06.75-.01.86-.28,1.26.13,1.47.9-.12.08-.24.16-.36.23l.31-.29c.34-.19.69-.38,1.03-.58Z"/>
      <path class="cls-1" d="m48.48,30.38c0,.37,0,.74,0,1.11-.3.26-.6.52-1.03.89-.17-1.11.38-1.58,1.02-2Z"/>
      <path class="cls-1" d="m45.79,27.22c.37,0,.74,0,1.11,0,.04.83-.35,1.36-1.11,1.65,0-.55,0-1.1,0-1.65Z"/>
      <path class="cls-1" d="m45.89,31.3c.01.13.03.25.02.38,0,.02-.13.03-.21.04,0-.13-.03-.25-.02-.38,0-.02.13-.03.21-.04Z"/>
      <path class="cls-1" d="m44.73,29.93c0-.37,0-.74,0-1.11.37,0,.74,0,1.12,0-.14.61-.43,1.06-1.12,1.11Z"/>
      <path class="cls-1" d="m47.89,27.22c.65.1,1.05.44,1.12,1.12-.65-.09-.97-.52-1.12-1.12Z"/>
      <path class="cls-1" d="m49.01,29.33c.03.49-.02.94-.57,1.13-.2-.58-.14-1.02.57-1.13Z"/>
      <path class="cls-1" d="m44.12,32.99c.13-.04.27-.08.34-.1-.09.02-.24.04-.39.07,0,0,.05.04.05.04Z"/>
      <path class="cls-1" d="m40.93,58.01c-.14-.07-.27-.14-.41-.2-.07-.03-.14-.06-.21-.08.09,0,.22-.06.28-.02.12.09.2.23.29.34l.05-.05Z"/>
      <path class="cls-1" d="m40.88,58.05c.22.01.43.03.65.04-.05.04-.11.12-.14.11-.15-.06-.3-.14-.45-.2,0,0-.05.05-.05.05Z"/>
      <path class="cls-1" d="m22.61,66.88c-.18.36-.36.72-.54,1.08-.55.18-1.09.36-1.64.54-.18-.36-.35-.72-.53-1.08-.18-.36-.36-.73-.54-1.09.99-.08,1.91.62,2.93.22.05-.02.2.22.31.34Z"/>
      <path class="cls-1" d="m34.75,65.27c0,.37,0,.74,0,1.11-.33-.04-.68-.04-.99-.14-.6-.19-1.11-.18-1.56.35-.15.17-.44.22-.67.33,0-.37,0-.73,0-1.1.18-.54.35-1.08.53-1.62.9.36,1.8.72,2.69,1.07Z"/>
      <path class="cls-1" d="m33.97,63.66c-.11-.06-.23-.13-.35-.2.06-.05.13-.17.17-.15.13.04.25.12.37.19-.06.05-.12.1-.18.16Z"/>
      <path class="cls-1" d="m35.3,62.61c-.16-.03-.34-.03-.47-.11-.05-.03.02-.24.03-.37.07.02.19.03.21.08.08.14.12.31.17.46,0,0,.05-.06.05-.06Z"/>
      <path class="cls-1" d="m37.88,50c.05-.16.07-.34.17-.46.07-.09.23-.09.36-.14-.04.13-.03.32-.12.39-.12.1-.3.11-.46.15,0,0,.06.06.06.06Z"/>
      <path class="cls-1" d="m41.28,49.24c-.15.05-.3.13-.44.13-.09,0-.17-.14-.26-.22.07-.01.15-.05.21-.03.15.04.28.11.43.17,0,0,.05-.04.05-.04Z"/>
      <path class="cls-1" d="m43.06,24.46c0,.15-.01.29-.02.44.02-.13.05-.25.07-.38,0,0-.05-.05-.05-.05Z"/>
      <path class="cls-1" d="m38.98,24.11c-.37,0-.74,0-1.12,0,0-.8.49-1.26,1.1-1.65,0,.55,0,1.1.01,1.65Z"/>
      <path class="cls-1" d="m23.07,68.97c.37,0,.75,0,1.12,0,.03.82-.48,1.28-1.11,1.65,0-.55,0-1.1,0-1.65Z"/>
      <path class="cls-1" d="m24.18,60.04c-.37,0-.74,0-1.12,0,0-.8.34-1.37,1.11-1.65,0,.55,0,1.1,0,1.66Z"/>
      <path class="cls-1" d="m38.53,69.13c0-.14-.01-.29-.02-.43-.01.13-.02.25-.03.38,0,0,.05.05.05.05Z"/>
      <path class="cls-1" d="m46.37,72.71c-.37,0-.74,0-1.12,0,0-.37,0-.74,0-1.12.62.12.99.49,1.11,1.11Z"/>
      <path class="cls-1" d="m44.67,69.59c.16-.01.32-.06.46-.02.07.02.1.2.14.3-.08,0-.18.03-.23,0-.12-.09-.22-.21-.33-.32,0,0-.04.05-.04.05Z"/>
      <path class="cls-1" d="m46.84,74.78c.37,0,.74,0,1.11,0,0,.37,0,.74,0,1.12-.66-.09-1.12-.36-1.11-1.12Z"/>
      <path class="cls-1" d="m47.37,52.59c.55-.18,1.09-.36,1.64-.54,0,.46,0,.92,0,1.37-.55.02-.55.4-.53.8q-1.14-.19-1.11-1.63Z"/>
      <path class="cls-1" d="m44.72,53.64c.37,0,.75,0,1.12,0-.15.26-.25.71-.45.76-.54.13-.57-.38-.67-.76Z"/>
      <path class="cls-1" d="m49.53,54.17c0,.37,0,.74,0,1.11-.37,0-.74,0-1.11,0,0-.37,0-.74,0-1.11.37,0,.74,0,1.11,0Z"/>
      <path class="cls-1" d="m47.43,55.81c-.37,0-.75,0-1.12,0,0-.08-.02-.18,0-.24.09-.21.21-.41.31-.61.19.14.39.26.55.43.11.11.17.28.25.42Z"/>
      <path class="cls-1" d="m51.12,57.34c0,.37,0,.75,0,1.12-.16-.04-.34-.05-.49-.12-.56-.27-.56-.46.02-.82.14-.09.31-.12.47-.18Z"/>
      <path class="cls-1" d="m42.09,33.56c.69.06,1.21.28,1.12,1.12-.37,0-.74,0-1.12,0,0-.37,0-.74,0-1.11Z"/>
      <path class="cls-1" d="m41.02,33.04l1.14.57c-.38-.19-.76-.38-1.14-.57Z"/>
      <path class="cls-1" d="m47.91,11.43c0-.37,0-.75,0-1.12.37,0,.75,0,1.12,0-.37.37-.74.74-1.12,1.12Z"/>
      <path class="cls-1" d="m49.01,12.95c0,.2,0,.39,0,.59-.22-.1-.44-.2-.66-.3.22-.1.44-.19.66-.29Z"/>
      <path class="cls-1" d="m48.48,17.23c-.17.35-.35.71-.52,1.06-.55.18-1.1.36-1.66.54.18-.54.36-1.09.54-1.63.49-.44.88-1.04,1.64-1.08,0,.37,0,.74,0,1.1Z"/>
      <path class="cls-1" d="m41.42,53.94c.01.14.02.27,0,.11.02.18,0,.07-.01-.06,0,0,0-.05,0-.05Z"/>
      <path class="cls-1" d="m42.68,29.37l-.31.29c.12-.08.24-.16.36-.23,0,0-.05-.05-.05-.05Z"/>
    </g>
  </g>
</svg>