<?xml version="1.0" encoding="UTF-8"?>
<svg id="Layer_2" data-name="Layer 2" xmlns="http://www.w3.org/2000/svg" viewBox="0 0 177.76 177.76">
  <defs>
    <style>
      .cls-1 {
        fill: #fff;
        stroke-width: 0px;
      }
    </style>
  </defs>
  <g id="Layer_1-2" data-name="Layer 1">
    <g>
      <path class="cls-1" d="m105.48,107.97q.44-1.15,1.5-.93c-.35-.39-.59-.64-.94-1.04.43.06.66.1.89.13.06-.05.1-.08.16-.13-.19-.25-.38-.49-.61-.79.17-.01.29-.03.4.01.42.13.56-.06.59-.46-.01-.17.08-.37.16-.51.13-.31.2-.68.43-.85.16-.13.53-.02.9-.17l-.93-.54c.45-.16.97-.21,1.12-.46.24-.41.26-.98.31-1.5-1.27.53-2.56-.51-3.65.23-.9-.11-1.78-.2-2.64-.28-.02.04-.03.09-.06.16l.21.12c.14.14.27.24.42.38-.19,0-.47.06-.57-.06-.27-.24-1.06.27-.87-.45-1.05-.03-2.06-.06-2.97-.09.08.15.15.31.22.48-.16,0-.34.02-.51-.02-.98-.15-1.96-.36-2.94-.48-.27-.02-.55.23-.96.43-.8-.13-1.8-.32-2.78-.47-.49-.06-.84.12-.97.63-.01.07-.03.15-.07.21-.15.22-.32.42-.47.63-.03-.18-.1-.36-.09-.52.02-.07.15-.16.32-.37-.91-.33-1.74-.56-2.62-.55-.06.02-.15.08-.18.12-.34,1.02-.5.34-.71-.11-.61.58-1.25.27-1.86.08-.6-.15-1.06-.31-1.65.15-.3.24-.97.02-1.46-.04-.68-.06-1.36-.18-2.02-.26-.11,0-.22,0-.28.06-.61.72-1.29.19-1.96.16-.17.01-.37.12-.54.21-.15.11-.27.23-.39.35-.01-.17-.03-.32-.05-.49-.02-.07,0-.14.02-.23-.83-.42-.42.58-.61.64-1.01-.25-1.84-.54-2.7-.65-.22-.04-.52.39-.84.64-.04-.22-.07-.45-.11-.72-.29.22-.53.49-.8.53-.26.07-.59-.07-.87-.2-.54-.26-.89-.13-1.1.63-.18-.41-.27-.62-.43-.96-.25.24-.45.45-.69.73-.14-.24-.23-.41-.33-.57-.62.41-1.27.26-1.91.08-.57-.16-1.08-.46-1.68.16-.24.22-.92.02-1.41.01-.13-.02-.25,0-.43-.03.22.29.39.52.56.74-.28.06-.57.14-.83.21-.07.07-.15.16-.22.23.16.06.3.09.45.18.16.06.27.15.4.26-.05.08-.06.16-.08.14-.97-.23-1.16.63-1.26,1.14-.1.66-.44.71-1.04.66.16.29.28.52.31.56-.29.41-.6.75-.76,1.13-.23.5-.34,1.07-.55,1.58-.06.16-.27.28-.45.35-.14.06-.33,0-.59.12.22.18.45.37.73.64-.24.03-.37.06-.52.09-.14,0-.38,0-.4.02-.13.8-.75.83-1.49.77.42.32.68.53.95.74-.33.14-.65.26-1.03.45.15.12.34.28.63.53-.37.12-.64.21-1.02.35.29.25.54.45.76.63l-.08.14c-.15-.03-.29-.03-.42-.08-.39-.14-.56,0-.6.37,0,.03,0,.05-.01.07-.07.4-.04.88-.24,1.18-.17.2-.65.18-1.11.3.12.12.23.22.39.33.12.12.24.25.42.41-.43.03-.71.03-1.17.07.26.31.46.54.71.82-.27-.02-.49,0-.76-.02,0,.3-.01.54-.02.9-.43-.03-.86-.03-1.27-.04-.02.07-.05.14-.07.21.14.05.29.11.4.21.12.07.22.18.36.29-.12.07-.25.19-.37.26-.14.06-.31.07-.57.14.25.23.44.39.79.68-.48.08-.79.12-1.3.21.24.2.39.28.53.42.13.1.27.24.42.38-.17.01-.38.08-.51.03-.42-.13-.54-.01-.6.42-.04.45-.17.92-.41,1.28-.13.17-.56.12-.96.19.21.2.42.41.67.66-.43.03-.77.05-1.1.05-.02.07-.03.15-.07.21.21.2.42.41.68.64-.45.07-.9.17-.76.8-.02.04-.37.17-.59.21-.2.05-.4.02-.71.03.3.34.48.55.68.78-.26.02-.49.05-.87.08.21.26.42.52.69.86-.43.03-.72.05-1.06.08-.06.54-.12,1.06-.25,1.53-.02.13-.3.24-.49.27s-.38,0-.64.07c1.04.24.71.82.45,1.36-.21-.01-.57.14-.88.18.07-.21.14-.44.23-.69-.34.02-.67.16-.94.06-.26-.07-.48-.36-.67-.61-.32-.49-.69-.56-1.25-.03.05-.41.06-.68.1-1.04-.36.1-.62.17-.96.27-.02-.26-.02-.45,0-.66-.75.06-1.22-.4-1.7-.87-.41-.43-.72-.94-1.54-.72-.23.06-.55-.18-.88-.43,0,.05,0,.09,0,.11-.21.13-.55.23-.57.36-.03.39.06.8.13,1.2.08.35.17.7.22,1.06,0,.09-.18.22-.3.32-.1.13-.23.25-.48.49.45-.02.67-.02.85-.04-.14.44-.23.88-.46,1.22-.11.19-.44.24-.88.43.32.07.43.11.58.14.19.05.37.13.55.18-.15.11-.27.23-.43.36-.1.08-.22.15-.29.36.29-.03.59-.07,1-.11-.09.2-.1.36-.15.35-.78.21-.69.73-.48,1.26.18.46.08.76-.43.88-.08.04-.13.17-.24.33.37.02.66.05.92.07.03.04.03.1.04.16-.22.15-.46.31-.67.49,0,.03.03.1.02.15.23.02.47.05.59.07-.1.41-.14.77-.26,1.12-.06.16-.22.29-.37.36-.12.07-.29.08-.48.11.02.07.04.13.02.2.17-.01.35-.04.5-.01.14.05.25.14.38.19-.09.11-.16.24-.26.32-.13.09-.3.13-.45.21.02.07.04.13.05.2.16-.04.34-.11.53-.11.11,0,.23.08.38.11-.07.12-.1.27-.18.36-.05.08-.21.07-.28.14-.08.09-.13.23-.17.34.13.02.24.06.37.08.14,0,.27-.04.42-.06,0,.09.01.17.01.17-.85.14-.63.71-.52,1.24.08.43.17.84.2,1.27.01.12-.1.27-.19.38-.1.17-.22.29-.42.53.38,0,.63,0,.87,0l.04.16c-.23.11-.44.24-.67.36q.16.86-.53,1.21c.3.06.55.15.98.26-.4.26-.64.4-1.01.66.48.03.77.06,1.08.07-.02.13-.03.2-.06.24-.83.24-.64.78-.44,1.34-.01.02,0,.03.02.07.02.48.46,1.06.19,1.48-.1.17-.28.3-.64.4.29.03.57.06.85.05-.89.59-.67,1.26-.39,1.97.04.08-.1.27-.2.35-.15.11-.34.11-.51.17,0,.05,0,.11.01.17.13.02.29.03.41.05.15.03.29.03.43.06-.07.12-.11.29-.21.4s-.25.19-.36.29c0,.11-.05.22-.05.33.27-.09.55-.15.83-.24-.02.13-.06.24-.08.37-.17.06-.34.16-.55.29.09.41.22.81.28,1.23,0,.14-.13.37-.24.47-.12.12-.31.15-.57.28.41.1.69.18.97.23-.17.2-.34.41-.52.61.21.12.41.24.63.34-.17.15-.33.28-.52.47.11.67.26,1.36.35,2.07.02.15-.08.34-.18.45-.1.13-.26.21-.47.39.37.08.59.12.78.17-.71.33-.46.89-.4,1.36.1.64.22,1.28.38,1.92.04.22.16.39.24.58.07.02.16,0,.23.02.01-.21.03-.39.04-.5.71-.28,1.35-.49,1.97-.79.62-.31,1.21-.68,1.78-1.09.51-.36.95-.8,1.44-1.21.05,0,.12.04.18.07-.09.11-.18.22-.35.46.24-.08.45-.07.47-.14.22-.67.88-.62,1.34-.85.55-.29,1.3-.35,1.66-.78.69-.81,1.73-.9,2.51-1.5.15-.11.23-.31.41-.37.21-.13.42-.25.62-.36.57-.28,1.16-.54,1.73-.82.1-.03.24-.03.28-.11.04-.06.09-.11.14-.14.71-.85,1.9-.86,2.76-1.46.78-.59,1.69-.98,2.55-1.47.09-.06.18-.17.22-.29q.22-.48.68-.27c.44-.24.87-.46,1.28-.69.21-.13.35-.32.54-.46.15-.11.3-.19.57-.36.37-.17.79-.37,1.21-.57.53-.25,1.17-.32,1.43-1.05.09-.25.7-.36,1.1-.44.64-.15,1.26-.32,1.34-1.23.17.23.25.33.25.33.54-.27,1.02-.57,1.53-.8.51-.23,1.12-.23,1.36-.92.07-.21.47-.34.72-.44.41-.18.84-.31,1.25-.49.06-.02.12-.07.17-.15-.13-.1-.2-.23.02-.46-.88-.53-1.73-1.05-2.52-1.54,0,.14-.02.32-.04.5-.14-.08-.3-.15-.43-.25-.76-.63-1.5-1.31-2.29-1.9-.22-.15-.59-.07-1.06-.12-.48-.41-1.06-.88-1.66-1.37.14-.72.74-.7,1.3-.82-.11-.09-.22-.15-.31-.23-.11-.09-.21-.2-.31-.32.13-.09.27-.23.4-.21.38.05.48-.11.58-.44.16-.62.36-1.25.59-1.83.07-.18.33-.28.51-.36.15-.08.33-.06.51-.07.02-.07.03-.15.03-.2-.22-.1-.45-.18-.92-.36.38-.14.6-.18.78-.26.19-.09.47-.14.53-.3.22-.67.37-1.35.61-2.01.07-.18.36-.29.58-.38.12-.07.29-.08.48-.11-.15-.12-.29-.25-.43-.36-.11-.09-.23-.13-.45-.23.18-.12.31-.26.39-.24.74.2.87-.22.97-.82.1-.55.29-1.12.56-1.63.11-.19.54-.21.91-.33-.15-.17-.35-.34-.64-.61,1.13.05,1.03-.89,1.36-1.5.11-.19.37-.31.6-.42.03,0,.07-.02.1-.03.02-.13-.02-.26-.04-.41-.11-.09-.22-.18-.39-.28.13-.04.25-.1.37-.12,0-.09-.02-.2-.01-.31.11-.05.31-.15.51-.26-.21-.12-.39-.23-.65-.4.27.02.46.02.63-.05.67-.16.74-.81.92-1.45.07-.21.51-.31.83-.54-.11-.09-.29-.25-.6-.54.27-.09.46-.18.62-.17.66.05,1.28.21,1.92-.24.31-.21.9.02,1.37.02.59-.02,1.18-.09,1.71-.11.88.04,1.73.2,2.54.12,1.24-.14,2.45.09,3.68,0,.43-.03.86-.16,1.41-.26,0,0,.1.17.13.21,3.54,0,7.02.03,10.41.06-.14-.08-.4-.26-.7-.46.12-.12.18-.17.18-.17.85.3,1.11-.21,1.23-.86.12-.64.26-1.17,1.23-.8-.32-.35-.49-.58-.69-.81.3-.05.6-.09.92-.16.07-.02.17-.1.18-.17.21-.6.5-1.2.54-1.8.09-.69.22-1,.95-.55.26-.84.46-1.61.74-2.38.04-.17.33-.28.53-.35s.44-.05.82-.08c-.42-.32-.68-.5-.9-.68.25-.1.5-.21.79-.32-.16-.2-.36-.43-.69-.81.77.06,1.25-.02,1.42-.7.05-.14.53-.16.85-.23-.19-.3-.95-.11-.67-.8Zm-37.48,37.54c.33-.09.68-.13,1.01-.19,0,.09.02.15.04.22-.32.12-.61.25-.94.34-.06.02-.21-.07-.23-.13-.02-.07.05-.22.11-.24Zm-1.7-3.07c.23-.36.58-.1.87-.13.02.07.01.12.03.18-.3.05-.58.1-.88.18,0-.09-.02-.15-.03-.24Zm-21.5-12.88c-.33.28-.68.51-1.03.78-.04-.08-.09-.13-.13-.21.27-.28.52-.58.82-.85.06-.05.2-.05.26-.02.04.08.11.23.08.29Zm-2.07,30.18c.35-.27.7-.4,1.2-.08-.41.18-.7.31-1.01.41-.06.02-.21-.01-.24-.06-.04-.08,0-.22.05-.27Zm27.89-55.88c-.08-.05-.14-.08-.24-.11.11-.38.19-.77.3-1.15.02-.07.15-.16.21-.13.09.03.24.16.22.18-.15.41-.32.8-.5,1.2Z"/>
      <path class="cls-1" d="m64.04,93.71q.77.96.05,1.76c.52-.11.85-.19,1.37-.3-.27.35-.42.52-.55.71.02.07.02.13.03.2.31-.04.61-.08,1-.14-.08.15-.12.26-.21.34-.32.3-.22.52.1.74.15.08.28.25.37.39.21.26.49.51.52.8.03.2-.25.47-.3.86l.93-.54c-.09.46-.3.95-.16,1.19.24.41.72.71,1.14,1.02.17-1.37,1.73-1.96,1.62-3.28.54-.73,1.06-1.44,1.57-2.14-.02-.04-.07-.07-.1-.13l-.21.12c-.19.05-.35.12-.53.17.1-.17.19-.44.33-.47.35-.12.3-1.05.82-.53.55-.9,1.08-1.75,1.56-2.53-.17-.01-.34-.02-.53-.05.09-.13.15-.31.27-.43.63-.77,1.29-1.52,1.89-2.3.15-.22.07-.59.11-1.05.52-.63,1.17-1.4,1.8-2.17.3-.39.31-.79-.06-1.15-.06-.05-.11-.1-.15-.16-.11-.24-.2-.49-.31-.73.17.06.36.1.49.18.06.05.07.21.16.46.74-.62,1.36-1.22,1.79-2,.02-.06.01-.17-.01-.21-.71-.8-.05-.61.45-.56-.2-.82.4-1.22.86-1.65.43-.44.8-.76.7-1.5-.06-.38.47-.85.77-1.24.39-.56.83-1.09,1.24-1.62.06-.09.11-.2.09-.27-.32-.89.48-1.21.84-1.78.08-.15.08-.38.08-.57-.02-.18-.06-.35-.11-.52.15.08.3.13.45.21.07.02.12.07.19.14.78-.51-.3-.65-.24-.85.72-.75,1.38-1.32,1.92-2.02.15-.17-.07-.65-.14-1.05.21.07.43.17.68.27-.04-.36-.16-.71-.06-.96.07-.26.35-.48.61-.66.49-.34.55-.71,0-1.27.44.05.68.08,1.05.11-.08-.34-.17-.62-.28-.96.28,0,.47,0,.66,0-.05-.74.42-1.23.89-1.7.42-.41.94-.71.71-1.54-.07-.32.44-.81.69-1.23.08-.1.13-.21.23-.36-.36.04-.65.07-.92.12.09-.27.17-.57.24-.83-.03-.09-.07-.21-.09-.3-.13.1-.23.22-.38.3-.13.1-.27.16-.42.22-.05-.08-.1-.13-.08-.14.68-.72.04-1.32-.36-1.66-.52-.42-.4-.73-.05-1.23-.33,0-.59-.02-.64-.01-.21-.46-.35-.9-.6-1.22-.32-.45-.76-.83-1.09-1.27-.1-.13-.11-.38-.08-.56.02-.15.16-.29.19-.58-.27.1-.54.2-.92.31.09-.22.13-.35.18-.49.07-.12.19-.33.18-.35-.63-.52-.34-1.07.08-1.67-.49.2-.8.33-1.11.45.04-.35.1-.69.12-1.12-.18.07-.41.15-.77.28.08-.38.14-.66.21-1.06-.37.13-.66.24-.93.34l-.08-.14c.1-.11.17-.23.28-.33.31-.26.27-.49-.02-.7-.03,0-.04-.03-.06-.05-.31-.26-.74-.48-.9-.8-.09-.25.17-.65.3-1.11-.17.04-.3.09-.48.17-.17.04-.34.08-.57.16.19-.39.32-.63.52-1.05-.4.07-.7.13-1.07.2.15-.22.25-.42.4-.64-.26-.16-.47-.28-.76-.47.23-.36.46-.73.67-1.08-.06-.05-.09-.11-.15-.16-.11.09-.24.2-.38.25-.12.07-.27.1-.43.16,0-.14-.04-.31-.04-.45.02-.15.1-.3.17-.57-.32.11-.55.18-.98.35.17-.46.29-.74.47-1.23-.29.11-.44.2-.63.25-.16.06-.35.12-.53.17.08-.15.12-.37.23-.46.32-.3.28-.47-.07-.73-.37-.25-.71-.61-.9-.99-.09-.2.18-.54.32-.93-.28.08-.57.16-.9.25.19-.39.34-.69.51-.98-.06-.05-.11-.1-.15-.16-.28.08-.57.16-.89.27.17-.43.3-.86-.31-1.06-.02-.04.04-.41.11-.62.05-.2.18-.35.32-.63-.44.09-.72.14-1.01.2.11-.23.21-.45.37-.79-.33.05-.66.1-1.09.16.19-.39.31-.65.46-.96-.44-.33-.86-.63-1.2-.98-.1-.08-.06-.38,0-.56s.19-.33.26-.59c-.73.78-1.07.2-1.41-.29.12-.18.17-.57.28-.85.15.16.31.34.48.55.15-.31.19-.66.42-.85.19-.19.55-.24.86-.28.58-.04.83-.32.65-1.06.34.25.56.39.85.61.1-.36.17-.62.24-.96.23.11.4.21.58.33.32-.68.96-.86,1.6-1.04.58-.14,1.18-.16,1.39-.97.06-.23.44-.39.81-.55-.04-.03-.08-.04-.09-.06,0-.25.07-.59-.03-.67-.32-.23-.73-.35-1.11-.49-.34-.11-.7-.2-1.02-.34-.08-.04-.1-.27-.13-.42-.06-.16-.11-.32-.19-.66-.21.4-.32.6-.39.75-.31-.34-.65-.64-.83-1.01-.11-.19.01-.5.07-.98-.22.24-.31.32-.41.43-.14.14-.29.25-.44.39-.02-.18-.06-.35-.1-.55-.02-.13-.02-.27-.16-.43-.12.26-.23.55-.4.92-.13-.17-.26-.26-.23-.31.21-.78-.28-.96-.85-1.05-.48-.08-.7-.31-.55-.81,0-.09-.09-.2-.16-.37-.21.31-.37.55-.52.77-.05,0-.1-.03-.16-.04-.02-.27-.04-.55-.09-.83-.03,0-.1-.03-.14-.06-.14.19-.28.38-.35.48-.31-.29-.6-.51-.84-.78-.1-.13-.14-.33-.13-.5,0-.14.08-.29.14-.47-.07-.02-.13-.03-.19-.08-.08.15-.14.33-.24.44-.11.09-.25.14-.36.24-.05-.14-.12-.26-.14-.39,0-.16.03-.32.04-.49-.07-.02-.13-.03-.2-.05-.04.16-.08.35-.17.51-.06.09-.18.16-.28.27-.07-.12-.18-.22-.22-.34-.05-.08.04-.22.01-.31-.04-.12-.13-.23-.21-.32-.08.1-.17.18-.25.28-.07.12-.1.25-.16.39-.08-.04-.15-.08-.15-.08.3-.81-.3-.9-.81-1.07-.41-.15-.82-.27-1.2-.46-.11-.05-.18-.22-.24-.36-.1-.16-.14-.33-.25-.63-.19.33-.32.54-.45.75l-.16-.04c.02-.26.01-.5.03-.76q-.83-.29-.78-1.06c-.2.23-.4.4-.71.72-.03-.48-.02-.76-.06-1.2-.26.4-.43.63-.61.9-.1-.08-.16-.13-.18-.17.21-.83-.36-.95-.94-1.05-.01-.02-.03,0-.07-.02-.43-.22-1.15-.13-1.38-.58-.1-.16-.12-.4-.02-.76-.17.23-.33.47-.47.71-.06-1.06-.76-1.21-1.51-1.33-.09,0-.18-.22-.2-.35-.02-.18.07-.35.11-.53-.04-.03-.09-.06-.15-.08-.08.1-.17.23-.25.34-.1.11-.17.23-.27.35-.07-.12-.2-.24-.25-.38s-.04-.31-.07-.45c-.09-.06-.17-.15-.26-.21-.06.28-.15.55-.21.83-.1-.08-.18-.17-.28-.25.03-.18.03-.38.03-.62-.4-.12-.81-.22-1.21-.37-.12-.07-.25-.29-.28-.44-.04-.17.02-.34.05-.63-.29.31-.5.51-.68.72-.09-.25-.18-.5-.27-.75-.21.12-.41.24-.61.38-.05-.22-.08-.42-.15-.68-.63-.24-1.31-.45-1.97-.73-.14-.06-.25-.24-.3-.38-.06-.16-.05-.33-.1-.6-.25.28-.4.45-.54.59.07-.78-.54-.84-.98-1.03-.6-.23-1.22-.45-1.85-.63-.21-.07-.42-.06-.62-.08-.05.06-.09.13-.14.19.18.12.32.23.41.28-.11.75-.26,1.41-.3,2.1-.04.69-.02,1.39.05,2.09.06.63.21,1.23.33,1.85-.03.04-.09.08-.15.12-.05-.14-.1-.27-.22-.53-.05.25-.17.43-.11.48.47.53.1,1.07.06,1.59-.03.62-.35,1.3-.16,1.82.36,1-.08,1.95.04,2.92.02.18.15.35.12.54,0,.25,0,.49,0,.72-.05.63-.11,1.28-.16,1.91-.03.1-.09.22-.05.3.04.06.05.14.05.19.38,1.04-.2,2.07-.12,3.12.12.97,0,1.95,0,2.95,0,.11.06.24.14.33q.3.43-.11.72c-.01.5-.04.98-.04,1.45,0,.25.1.46.13.7.02.18.01.35.03.67-.04.41-.07.87-.11,1.33-.05.58-.31,1.17.19,1.76.17.2-.04.79-.17,1.17-.19.63-.35,1.25.4,1.78-.29.03-.41.05-.41.05-.04.6-.01,1.16-.08,1.72-.06.56-.36,1.09.12,1.64.15.16.06.57.02.84-.05.44-.15.88-.2,1.32-.02.06,0,.14.05.22.16-.06.3-.06.39.24.9-.49,1.78-.97,2.59-1.42-.12-.07-.27-.18-.41-.28.14-.08.28-.19.43-.25.93-.34,1.88-.65,2.79-1.03.24-.11.35-.48.63-.86.6-.21,1.29-.47,2.01-.75.55.48.24.99.06,1.53.14-.05.24-.11.35-.15.14-.05.28-.08.43-.11,0,.16.06.35-.02.45-.24.3-.14.47.09.72.45.45.9.94,1.29,1.43.12.15.08.42.06.63-.01.17-.12.32-.2.47.06.05.11.1.16.13.19-.14.38-.3.77-.61-.07.4-.14.61-.16.81-.02.2-.11.48,0,.61.47.53.99,1,1.44,1.53.12.15.07.45.04.69,0,.14-.08.29-.14.47.18-.07.37-.13.52-.19.14-.05.23-.13.42-.27.01.21.07.4.02.46-.54.53-.25.86.23,1.25.43.36.83.81,1.14,1.3.11.19-.08.57-.17.95.22-.05.47-.14.85-.24-.6.95.25,1.34.62,1.93.11.19.08.48.07.73,0,.03-.02.07-.03.1.1.08.23.11.37.17.14-.05.27-.1.44-.2-.03.13-.04.27-.08.38.08.04.19.08.28.14-.01.12-.02.34-.03.57.21-.12.39-.23.67-.36-.15.22-.24.39-.27.57-.19.66.33,1.05.8,1.52.15.16.02.6.05.99.14-.05.37-.13.76-.25-.06.28-.08.49-.17.62-.37.55-.82,1-.76,1.79.02.37-.47.76-.7,1.17-.28.52-.51,1.07-.76,1.54-.48.74-1.04,1.4-1.37,2.14-.5,1.14-1.3,2.08-1.84,3.19-.19.39-.29.83-.48,1.35,0,0-.19,0-.25,0-1.78,3.07-3.54,6.07-5.26,8.99.14-.08.42-.22.75-.38.04.17.06.24.06.24-.68.59-.37,1.07.12,1.5.5.43.88.81.08,1.47.46-.1.75-.13,1.04-.19-.11.28-.22.57-.32.87-.02.07,0,.19.06.24.41.48.79,1.03,1.29,1.37.55.43.76.69,0,1.1.59.65,1.16,1.2,1.69,1.83.12.12.08.42.04.64s-.18.41-.34.75c.49-.2.77-.34,1.04-.44-.04.27-.07.54-.12.84.25-.04.55-.1,1.05-.19-.43.63-.61,1.09-.11,1.58.09.11-.13.54-.23.85.35-.01.57-.77,1.02-.18Zm-13.77-51.23c-.09.33-.23.65-.35.97-.08-.04-.14-.06-.21-.07.05-.33.09-.66.17-.98.02-.06.16-.15.23-.13.07.02.17.15.15.21Zm3.5.06c.19.38-.2.56-.32.82-.07-.02-.11-.05-.17-.06.11-.28.2-.56.28-.85.08.04.14.06.22.09Zm21.9-12.18c-.08-.42-.11-.85-.16-1.28.09,0,.16,0,.25,0,.11.38.24.74.33,1.13.02.07-.05.2-.11.23-.09,0-.26-.02-.29-.08Zm-25.1-16.88c.06.43,0,.8-.53,1.08.05-.44.08-.76.15-1.08.02-.06.12-.18.17-.18.09,0,.2.11.21.18Zm34.44,52.1c.08-.05.14-.08.22-.15.27.28.57.55.84.83.06.05.07.21,0,.25-.07.07-.26.12-.27.1-.28-.34-.53-.68-.79-1.03Z"/>
      <path class="cls-1" d="m97.11,64.95q-1.21.19-1.55-.83c-.17.5-.26.83-.43,1.33-.17-.4-.24-.62-.33-.83-.07-.02-.12-.05-.19-.07-.12.29-.24.57-.38.93-.1-.14-.17-.24-.19-.36-.1-.43-.33-.45-.69-.29-.14.1-.36.12-.52.12-.33.05-.69.17-.95.05-.19-.07-.29-.45-.6-.69v1.07c-.36-.31-.67-.74-.95-.74-.48,0-.98.26-1.45.48,1.1.83.84,2.48,2.03,3.05.36.83.72,1.64,1.07,2.43.05,0,.1-.02.17-.02v-.24c.05-.19.07-.36.12-.55.1.17.29.38.24.52-.07.36.76.79.05.98.5.93.98,1.81,1.41,2.62.1-.14.19-.29.31-.43.07.14.19.29.24.45.36.93.67,1.88,1.05,2.79.12.24.48.36.86.62.29.76.62,1.71.98,2.64.19.45.52.67,1.02.52.07-.02.14-.05.21-.05.26.02.52.07.79.09-.14.12-.26.26-.4.33-.07.02-.21-.05-.48-.09.17.95.38,1.79.84,2.55.05.05.14.1.19.1,1.05-.22.55.26.26.67.81.24.86.95,1,1.57.17.6.26,1.07.95,1.36.36.14.5.83.69,1.29.29.62.53,1.26.79,1.88.05.1.12.19.19.21.93.17.81,1.02,1.12,1.62.1.14.29.26.45.36.17.07.33.12.5.17-.14.1-.26.19-.4.29-.05.05-.12.07-.21.1.05.93.71.07.86.21.29,1,.45,1.86.79,2.67.07.21.6.26.98.4-.17.14-.36.29-.57.45.33.14.69.21.86.43.19.19.24.55.26.86.05.6.33.83,1.1.64-.26.36-.4.55-.62.86.33.1.62.17.98.24-.14.24-.24.41-.33.57.67.33.86.98,1.03,1.62.14.57.14,1.17.98,1.38.31.09.48.79.72,1.21.05.12.12.21.19.38.14-.33.26-.6.36-.86.19.21.41.43.6.62.1.02.21.05.31.07-.02-.17-.07-.31-.07-.48-.02-.17,0-.31.02-.48.1,0,.17-.02.17,0,.29.95,1.12.69,1.62.52.62-.24.83.02,1.1.57.17-.29.31-.5.33-.55.5.05.95.14,1.36.09.55-.05,1.1-.24,1.64-.31.17-.02.38.09.52.21.12.1.17.29.41.45.05-.29.09-.57.19-.95.14.19.24.29.33.4.07.12.19.33.21.33.76-.29,1.1.24,1.41.9.07-.52.12-.86.17-1.19.29.21.55.43.91.67.02-.19.07-.43.14-.81.29.26.5.45.81.71.07-.38.12-.69.17-.98h.17c.05.14.12.26.14.4.07.4.29.48.62.33.02-.02.05-.02.07-.02.38-.14.79-.41,1.14-.38.26.05.48.48.81.81.05-.17.07-.31.09-.5.05-.17.1-.33.14-.57.24.36.38.6.64.98.14-.38.24-.67.36-1.02.12.24.24.43.36.67.26-.14.48-.26.79-.43.19.38.41.76.6,1.12.07-.02.14-.02.21-.05-.02-.14-.05-.31-.02-.45,0-.14.05-.29.07-.45.12.07.29.12.41.19.12.1.21.24.41.43.07-.33.12-.57.19-1.02.31.38.5.62.83,1.02.05-.31.05-.48.09-.67.02-.17.07-.36.12-.55.1.14.26.29.29.43.1.43.26.48.67.31.4-.19.88-.31,1.31-.29.21.02.38.43.64.74.07-.29.14-.57.24-.91.24.36.43.64.6.93.07-.02.14-.05.21-.05.07-.29.14-.57.21-.91.29.36.6.69,1.07.26.05,0,.33.24.48.4.14.14.21.33.38.6.14-.43.24-.69.33-.98.14.21.29.4.5.71.12-.31.24-.62.4-1.02.24.36.41.6.6.88.5-.21.98-.43,1.45-.55.12-.05.36.14.48.29s.19.33.38.52c-.31-1.02.36-1.02.95-1.07.1.19.41.43.6.67-.21.05-.45.1-.71.14.19.29.48.5.52.79.07.26-.07.6-.19.88-.26.52-.14.88.6,1.1-.38.17-.62.29-.95.43.26.26.45.45.72.69-.21.14-.38.24-.57.33.43.62.26,1.26.1,1.91-.17.57-.45,1.1.14,1.69.17.17.12.57.07.98.05-.02.07-.05.1-.05.21.12.48.36.6.31.36-.17.67-.45.98-.72.26-.24.52-.5.81-.72.07-.05.29.05.43.09.17.02.33.07.67.17-.24-.38-.36-.57-.45-.71.45-.1.88-.24,1.29-.22.21,0,.43.26.81.55-.1-.31-.12-.43-.17-.57-.05-.19-.07-.38-.12-.57.17.07.33.12.52.19.12.05.24.12.45.07-.17-.24-.36-.48-.6-.81.21-.02.36-.1.38-.05.57.57.98.24,1.33-.22.31-.38.62-.45.98-.07.07.05.21.02.41.05-.17-.33-.29-.6-.41-.83.02-.05.07-.07.12-.12.24.12.5.24.76.33.02-.02.07-.07.12-.1-.1-.21-.19-.43-.24-.55.4-.12.74-.26,1.1-.33.17-.02.36.05.5.14.12.07.21.21.33.36.05-.05.1-.1.17-.12-.1-.14-.21-.29-.26-.43-.02-.14,0-.29-.02-.43.14.02.29.02.41.07.14.07.26.19.41.29.05-.05.1-.1.14-.14-.12-.12-.26-.24-.36-.4-.05-.1-.05-.24-.1-.38.14,0,.29-.05.4-.02.1,0,.17.14.26.17.12.02.26,0,.38-.02-.05-.12-.07-.24-.12-.36-.07-.12-.17-.21-.26-.33.07-.05.14-.1.14-.1.55.67.93.19,1.33-.17.33-.29.64-.57,1-.81.1-.07.29-.05.43-.02.19,0,.36.05.67.09-.19-.33-.31-.55-.43-.76l.12-.12c.21.14.43.26.64.4q.67-.57,1.31-.14c-.1-.29-.14-.55-.26-.98.43.21.67.36,1.07.55-.21-.43-.33-.69-.48-.98.12-.05.19-.07.24-.07.62.59,1,.17,1.38-.29.02,0,.02-.02.05-.05.4-.26.69-.93,1.19-.91.19,0,.41.09.67.36-.12-.26-.24-.52-.38-.76.95.48,1.43-.05,1.91-.65.05-.07.29-.05.4,0,.17.07.26.24.41.36.05-.02.1-.05.14-.1-.05-.12-.12-.26-.17-.38-.05-.14-.12-.26-.17-.4.14,0,.31-.05.45-.02s.29.12.43.17c.1-.05.21-.07.31-.12-.21-.19-.41-.4-.62-.59.12-.05.24-.07.36-.12.14.12.31.21.52.33.31-.29.59-.6.93-.86.12-.07.38-.07.52-.02.17.05.29.19.52.36-.12-.4-.19-.69-.29-.95.26.05.52.09.79.14,0-.24,0-.48-.02-.71.21.07.41.14.67.21.52-.43,1.05-.91,1.62-1.34.12-.1.33-.1.48-.07.17.02.31.12.57.21-.12-.36-.19-.57-.24-.76.64.45,1-.05,1.38-.33.5-.41,1-.83,1.48-1.29.17-.14.26-.33.38-.5-.02-.07-.07-.14-.1-.21-.19.1-.36.17-.45.21-.6-.48-1.1-.93-1.67-1.31-.57-.38-1.19-.71-1.84-1-.57-.26-1.17-.43-1.76-.64-.02-.05-.02-.12-.02-.19.14.02.29.05.57.07-.19-.17-.29-.36-.36-.33-.69.14-.98-.45-1.41-.74-.52-.33-.95-.95-1.5-1.05-1.05-.19-1.64-1.05-2.55-1.43-.17-.07-.38-.05-.52-.17-.21-.12-.43-.24-.62-.36-.52-.36-1.05-.74-1.57-1.09-.07-.07-.14-.19-.24-.19-.07,0-.14-.02-.19-.05-1.1-.19-1.69-1.21-2.65-1.66-.91-.38-1.69-.97-2.55-1.47-.1-.05-.24-.07-.36-.05q-.52.05-.57-.45c-.43-.26-.83-.52-1.24-.76-.21-.12-.45-.14-.67-.24-.17-.07-.31-.17-.6-.31-.33-.24-.72-.5-1.1-.76-.48-.33-.86-.86-1.62-.71-.26.05-.67-.43-.93-.74-.45-.48-.91-.93-1.74-.55.12-.26.17-.38.17-.38-.5-.33-1-.59-1.45-.93-.45-.33-.76-.86-1.48-.71-.21.05-.52-.24-.74-.4-.36-.26-.69-.57-1.05-.83-.05-.05-.12-.07-.21-.07-.02.17-.1.29-.4.21-.02,1.02-.05,2.03-.07,2.95.12-.07.29-.14.45-.21,0,.17.02.33,0,.5-.17.98-.38,1.95-.5,2.93-.02.26.24.55.43.98-.12.62-.24,1.36-.36,2.12-.69.24-.98-.28-1.36-.71-.02.14-.02.26-.05.38-.02.14-.07.29-.12.43-.14-.07-.33-.12-.38-.24-.14-.36-.33-.36-.67-.29-.62.17-1.26.31-1.88.41-.19.02-.41-.14-.57-.26-.14-.1-.21-.26-.31-.4-.07.02-.14.05-.19.07.02.24.07.48.14.98-.31-.26-.45-.43-.62-.55-.17-.12-.36-.33-.52-.31-.69.14-1.36.36-2.05.48-.19.02-.43-.17-.62-.31-.12-.07-.21-.21-.33-.36-.02.19-.07.38-.09.55-.02.14,0,.26.02.5-.19-.1-.38-.14-.41-.21-.19-.74-.62-.64-1.19-.43-.52.19-1.12.31-1.69.34-.21,0-.45-.36-.74-.62-.07.21-.12.48-.21.86-.53-1-1.29-.45-1.98-.43-.21,0-.45-.17-.67-.31-.02-.02-.05-.05-.07-.07-.12.05-.21.14-.33.24-.02.14-.05.29-.05.48-.1-.1-.21-.17-.29-.26-.07.05-.17.12-.26.17-.1-.07-.29-.19-.48-.31,0,.24,0,.45-.02.76-.12-.24-.21-.4-.36-.52-.48-.5-1.07-.24-1.72-.07-.21.05-.52-.29-.88-.45-.02.14-.07.38-.17.79-.21-.19-.38-.31-.45-.45-.29-.6-.45-1.21-1.17-1.55-.33-.17-.43-.79-.67-1.19-.31-.5-.67-.98-.95-1.43-.41-.79-.69-1.6-1.17-2.26-.74-1-1.15-2.17-1.84-3.19-.24-.36-.57-.67-.93-1.09,0,0,.1-.17.12-.21-1.77-3.07-3.48-6.09-5.16-9.05,0,.17-.02.48-.05.83-.17-.05-.24-.07-.24-.07-.17-.88-.74-.86-1.36-.64-.62.21-1.14.36-1.31-.67-.14.45-.26.71-.36,1-.19-.24-.38-.48-.6-.71-.05-.05-.17-.1-.24-.07-.62.12-1.29.17-1.83.43-.64.26-.98.31-.95-.55-.86.19-1.62.41-2.43.55-.17.05-.41-.14-.57-.29s-.26-.36-.48-.67c-.07.52-.09.83-.14,1.12-.21-.17-.43-.33-.67-.52-.1.24-.19.52-.36,1-.33-.69-.64-1.07-1.31-.88-.14.02-.41-.38-.62-.62-.17.31.38.88-.36.98Zm51.26,13.69c-.24-.24-.45-.52-.67-.79.07-.05.12-.1.17-.14.26.21.52.4.76.64.05.05.05.21,0,.26-.05.05-.21.07-.26.02Zm-1.81,3c-.43-.02-.38-.45-.55-.69.05-.05.1-.07.14-.12.19.24.38.45.6.67-.07.05-.12.1-.19.14Zm-.4,25.06c.41.14.79.33,1.19.5-.05.07-.07.14-.12.21-.38-.09-.76-.17-1.14-.28-.07-.02-.14-.14-.14-.21.05-.07.14-.21.21-.21Zm27.17-13.3c-.41-.17-.69-.4-.67-1,.36.26.62.45.86.67.05.05.1.19.07.24-.05.07-.19.12-.26.1Zm-62.34,3.78c0,.1,0,.17.02.26-.38.1-.76.22-1.14.31-.07.02-.21-.05-.21-.12-.02-.1.02-.29.05-.29.43-.07.86-.12,1.29-.17Z"/>
    </g>
  </g>
</svg>