<?xml version="1.0" encoding="UTF-8"?>
<svg id="Layer_2" data-name="Layer 2" xmlns="http://www.w3.org/2000/svg" viewBox="0 0 209.78 164.31">
  <defs>
    <style>
      .cls-1 {
        fill: #fff;
        stroke-width: 0px;
      }
    </style>
  </defs>
  <g id="Layer_1-2" data-name="Layer 1">
    <g>
      <path class="cls-1" d="m66.34,92.79c-1.22-3.7-2.87-7.28-4.07-11-6.45-20.03-12.94-44.3-25.37-61.67-2.65-3.7-12.92-13.37-12.63-17.18C24.5.58,26.53-.11,28.71.01c3.65.21,13.09,1.91,16.28,3.4,4.49,2.1,4.23,5.01,7.11,7.51,3.36,2.92,9.69,3.53,9.98,9.91.16,3.46-2.23,5.75-2.41,7.87-.56,6.43,16.13,21.86,19.44,28.46,5.32,10.63,3.31,18.11,13.07,27.44,6.08,5.81,13.41,9.87,18.96,16.38,6.09,7.15,4.75,6.49,12.51,12.48,2.77,2.14,4.53,5.26,6.91,7.75l2.1-1.37c-.85-3.92-1.15-8.01-.85-12.02.95-12.83.52-26.48,2.12-39.21.93-7.43,7.47-17.09,10.4-24.12,2.77-6.65,14.53-39.94,20.81-41.17,6.72-1.32,5.12,10.28,7.19,13.95-.06,1.65-3.91,11.65-4.95,13.22-1.51,2.29-4.12,2.71-5.15,5.2-2.58,6.26.07,16.37-1.19,23.8-.79,4.66-2.66,8.29-4.2,12.6.32.4,7.34-5.32,8.33-5.88,6-3.35,17.12-.61,23.27,2.3l1.97-1.25c-.19-2.02-.99-3.88-.91-5.95.28-7.47,3.56-18.31,3.52-24.14-.03-4.66-3.48-10.98-4.08-15.73-.51-4.05,1.95-18.39,7.27-16.81,6.99,2.07,5.42,7.26,6.87,12.15.74,2.49,3.35,4.49,3.72,6.67.65,3.86-1.86,8.86-1.66,12.75.28,5.48,3.73,13.53,4.25,19.95,1.46,18.22-1.29,31.26-8.78,47.21-4.48,9.54-1.8,15.94-4.84,24.47-6.98,19.6-33.03,32.74-52.48,35.21-11.88,1.51-19.35,2.52-30.73-2.32-12.36-5.25-34.78-17.2-44.92-25.76-10.05-8.48-9.96-13.24-16.46-22.33-1.75-2.45-6.75-5.5-7.51-7.15-.98-2.15-.31-4.56-1.01-6.75-.52-1.63-2.41-2.89-3.24-4.52C27.65,71.05,24.89,43.05,7.21,22.21c-2.2-2.59-5.68-3.45-6.84-7.82-2.73-10.28,10.21-5.54,15.43-3.35,7.2,3.02,7.17,7.45,11.81,11.46,4.03,3.49,9.82,3.49,9.47,11.26-.13,2.96-2.07,3.75-2.49,5.4-.57,2.24,2.43,7.57,3.78,9.63,5.22,7.97,14.14,12.16,18.04,22.47,2.76,7.29,1.66,18.06,9.91,21.54Zm116.37,48.27l-4.29-2.16c1.77-1.9,4.05-1.02,6.52-2.08,10.33-4.45,7.9-17.92,9.37-25.97,1.17-6.44,5.89-10.81,7.97-16.16,5.3-13.63,6.5-43.21-1.3-55.88l2.42-9.78-4.3,1.72c.62-4.47-.64-7.9-1.74-12.06l-3.43,7.37c4.7,10.33-.01,18.86-.87,29.26-1.13,13.75-1.3,31.14-6.69,44.16-1.16,2.79-4.48,3.73-5.75,5.45-1.94,2.63-1.78,7.81-7.39,6.83-1.03-3.31,2.63-2.62,3.32-4.89,1.33-4.39-4.61-4-7.6-5.92-1.84-1.18-5.29-6.73-6.5-6.42-4.43,3.75-1.86,7.27-2.28,12.39-.12,1.49-1.18,7.38-2.9,7.42-2.72.06.72-10.11-.42-11.19h-3.46c-.08-4.6,1.87-8.7,1.79-13.36-.09-4.91-2.99-12.37-2.7-16.35.22-2.97,4.02-8.06,4.99-12.31,1.99-8.77-.33-18.5,1.47-26.11,1.09-4.61,4.23-4.23,6.04-6.88,1.12-1.63,1.43-4.77,3-6.49l.06-1.21-3.3-1.27c.42-2.96,2.79-6.96,3.04-9.65.08-.86-.33-3.51-1.89-2.87l-6.46,9.06,3.86,1.27c2.12,4.73-5.19,2.73-7.24,5.69-3.14,8.51-6.57,16.94-10.01,25.33-6.43,15.67-8.79,20.85-10.67,38.46-.79,7.44,1.54,14.61,2.49,21.89l-2.57-.86c-.78,3.94,1.01,7.96.93,11.63-.16,7.53-7.37,13.11-6.99,21.12h-2.56c-.72-.67,1.4-7.67-1.28-6.88-7.89,5.65-11.44,9.12-6.64,18.67,6.29,12.51,13.67,8.83,24.82,7.27,14.02-1.96,15.32-2.85,27.33-9.73,1.11-.64,13.98-6.15,11.79-8.46Zm16.38-127.56c.11-2.79-.18-5.08-3.03-5.98l-3.86,9.43c2.41-1.58,3.44-4.1,6.89-3.45Zm-12.18,67.11l.11-3.33c-3.41,2.38-7.03-.84-8.9-.68-.34.03-6.31,1.8-6.61,1.97-1.31.78-1.83,4.21-3.06,5.56s-4.12,1.62-4.62,3.2c-1.18,3.74,6.33,11.47,9.63,12.55,3.91,1.28,10.51,1.87,10.1-3.65-2.35,2.87-7.29-3.08-6.02-4.31l2.48-.07c-.89-2.74,1.66-3.51,1.79-4,.43-1.58-.27-4.18.82-5.72.81-1.14,3.81-.87,4.27-1.53Zm-74.01,30.28c1.54-1.47-6.32-10.15-7.74-11.65-5.48-5.81-17.51-12.92-21.06-18.58-3.89-6.2-4.29-15.45-7.25-22.05-3.93-8.76-19.82-20.44-20.03-30.05-.08-3.86,3.27-5.26.45-8.99-1.44-1.91-3.65-2.08-5.15-3.46-3.65-3.35-5.04-6.62-9.88-9.08-4.26-2.16-9.01-3.47-13.82-2.98-1.03.93,11.24,15.02,12.61,17.12,12.88,19.7,18.32,44.04,26.37,65.85,6.25,16.94,17.1,19.1,30.56,28.91,4.88-1.88,9.43-5.42,14.93-5.03Zm-18.97,35.33c-2.48-6.77-3.06-13.78-1.49-20.88.58-2.6,3.37-5.6,1.96-8.42-1.34-2.67-23.93-14.96-28.92-19.38-12.55-11.11-7.79-17.29-13.92-29.18-4.78-9.28-15.2-13.92-18.98-24.1-2.71-7.29.35-6,1.01-10.58.79-5.42-6.02-7-9.17-10.14-2.53-2.52-3.39-5.76-6.92-8.16-1.84-1.25-13.06-5.48-14.07-4.45-.31,5.7,5.15,7.72,8.29,11.95,5.03,6.79,13.63,23.51,16.72,31.55,3.59,9.35,5.57,21.4,9.44,30.21,1.77,4.02,5.78,8.44,7.34,12.48.86,2.23.73,6.62,1.22,7.36,1.04,1.58,5.05,3.69,6.96,6.02,2.89,3.52,4.01,7.87,6.55,11.55,7.58,10.98,21.68,19.44,33.98,24.19Z"/>
      <path class="cls-1" d="m182.7,141.06c2.2,2.31-10.67,7.82-11.79,8.46-12.01,6.88-13.31,7.77-27.33,9.73-11.16,1.56-18.54,5.24-24.82-7.27-4.8-9.55-1.25-13.03,6.64-18.67,2.68-.79.56,6.21,1.28,6.89h2.56c-.39-8.01,6.82-13.59,6.99-21.12.08-3.67-1.72-7.69-.93-11.63l2.57.86c-.95-7.28-3.28-14.44-2.49-21.89,1.87-17.6,4.23-22.78,10.67-38.46,3.44-8.39,6.87-16.82,10.01-25.33,2.05-2.96,9.36-.96,7.24-5.69l-3.86-1.27,6.46-9.06c1.56-.64,1.97,2.01,1.89,2.87-.26,2.69-2.62,6.69-3.04,9.65l3.3,1.27-.06,1.21c-1.57,1.72-1.89,4.86-3,6.49-1.82,2.65-4.95,2.27-6.04,6.88-1.8,7.61.51,17.34-1.47,26.11-.96,4.25-4.77,9.34-4.99,12.31-.29,3.99,2.62,11.45,2.7,16.35s-1.87,8.76-1.79,13.37h3.46c1.14,1.08-2.3,11.25.42,11.19,1.72-.04,2.78-5.93,2.9-7.42.42-5.11-2.16-8.64,2.28-12.39,1.2-.31,4.66,5.24,6.5,6.42,2.99,1.92,8.93,1.52,7.6,5.92-.69,2.27-4.35,1.58-3.32,4.89,5.61.99,5.44-4.2,7.39-6.83,1.27-1.72,4.59-2.66,5.75-5.45,5.39-13.02,5.56-30.4,6.69-44.16.86-10.4,5.56-18.92.87-29.26l3.43-7.37c1.1,4.16,2.36,7.59,1.74,12.06l4.3-1.72-2.42,9.78c7.79,12.67,6.59,42.25,1.3,55.88-2.08,5.35-6.8,9.72-7.97,16.16-1.47,8.05.96,21.51-9.37,25.97-2.47,1.06-4.75.19-6.52,2.08l4.29,2.16Zm-13.78-4.32c2.66-1.08,9.22-16.48,8.61-17.23l-2.11,1.72-6.5,15.51Zm-5.2-2.15c-1.54-1.81-3.62-2.4-5.03-4.43-1.83-2.64-2.79-12.83-5.71-12.37-1.77.28-.36,5.01-.17,6.19.96,5.87,3,15.22,10.91,10.61Zm-21.53-1.29c-4.71.07-5.56,11.17-3.84,13.73,2.73,4.07,10.66,3.81,15.05,4.36-1.72-3.32-6.61-2.43-9.42-3.93-5.05-2.72-1.61-9.65-1.79-14.15Zm4.31-55.16c.87-2.34-2.07-3.51-2.24-4.7-.21-1.43,1.91-4.36-1.62-4.77-3.23,3.74-1.13,9.17,3.86,9.47Z"/>
      <path class="cls-1" d="m93.92,146.22c-12.3-4.74-26.41-13.2-33.98-24.19-2.54-3.68-3.66-8.03-6.55-11.55-1.91-2.33-5.91-4.44-6.96-6.02-.49-.74-.36-5.13-1.22-7.36-1.56-4.04-5.57-8.45-7.34-12.48-3.87-8.81-5.84-20.86-9.44-30.21-3.09-8.03-11.68-24.75-16.72-31.55-3.14-4.23-8.61-6.25-8.29-11.95,1.01-1.03,12.23,3.2,14.07,4.45,3.53,2.4,4.39,5.64,6.92,8.16,3.15,3.15,9.96,4.73,9.17,10.14-.67,4.58-3.73,3.29-1.01,10.58,3.79,10.18,14.2,14.82,18.98,24.1,6.13,11.88,1.37,18.06,13.92,29.18,4.99,4.42,27.58,16.71,28.92,19.38,1.41,2.82-1.38,5.81-1.96,8.42-1.57,7.1-1,14.11,1.49,20.88Zm-5.17-15.51c1.14-1.25-5.1-9.2-6.44-10.35-1.07-.92-11.56-7.76-12.55-8.13-1.43-.54-2.78-.59-4.27-.46,3.43,5.02,11.05,6.96,15.43,10.85.98.87,6.55,9.51,7.84,8.1Zm-38.79-38.78c.56-.52-5.87-10.34-6.64-11.88-2.44-4.85-4.47-10.04-6.2-15.19-5.42-3.24-.1,8.36,1.01,10.89,1.45,3.3,6.23,12.49,8.52,14.75,1.14,1.12,1.14,1.87,3.31,1.42Z"/>
      <path class="cls-1" d="m112.89,110.88c-5.51-.4-10.05,3.15-14.93,5.03-13.46-9.82-24.31-11.98-30.56-28.91-8.04-21.81-13.49-46.15-26.37-65.85-1.37-2.1-13.64-16.19-12.61-17.12,4.8-.49,9.56.82,13.82,2.98,4.84,2.46,6.24,5.73,9.88,9.08,1.5,1.38,3.71,1.56,5.15,3.46,2.81,3.73-.54,5.13-.45,8.99.21,9.61,16.09,21.29,20.03,30.05,2.96,6.6,3.36,15.86,7.25,22.05,3.55,5.66,15.58,12.78,21.06,18.58,1.42,1.51,9.28,10.19,7.74,11.65Zm-38.79-31.03l-12.49-30.14c-1.93,1.26-.88,1.79-.72,3.27.82,7.41,5.78,19.07,10.44,24.91.81,1.02.98,2.36,2.77,1.96Z"/>
      <path class="cls-1" d="m186.9,80.61c-.46.66-3.46.39-4.27,1.53-1.1,1.55-.39,4.14-.82,5.72-.13.49-2.68,1.26-1.79,4l-2.48.07c-1.27,1.22,3.67,7.18,6.02,4.31.41,5.51-6.19,4.92-10.1,3.65-3.29-1.08-10.81-8.8-9.63-12.55.5-1.58,3.36-1.83,4.62-3.2s1.75-4.78,3.06-5.56c.3-.18,6.26-1.94,6.61-1.97,1.86-.17,5.48,3.06,8.9.68l-.11,3.33Zm-11.95-.74c-.33,5.87,3.48,6.37,6.89,2.14.93-2.24-5.74-2.32-6.89-2.14Z"/>
      <path class="cls-1" d="m199.08,13.5c-3.45-.65-4.47,1.87-6.89,3.45l3.86-9.43c2.85.9,3.14,3.18,3.03,5.98Z"/>
      <path class="cls-1" d="m142.19,133.3c.18,4.5-3.26,11.44,1.79,14.15,2.8,1.51,7.7.61,9.42,3.93-4.4-.55-12.32-.29-15.05-4.36-1.72-2.56-.87-13.65,3.84-13.73Z"/>
      <path class="cls-1" d="m163.72,134.59c-7.91,4.61-9.95-4.74-10.91-10.61-.19-1.18-1.6-5.91.17-6.19,2.93-.46,3.88,9.73,5.71,12.37,1.41,2.03,3.49,2.62,5.03,4.43Z"/>
      <path class="cls-1" d="m146.5,78.14c-4.99-.3-7.09-5.73-3.86-9.47,3.53.42,1.41,3.34,1.62,4.77.17,1.19,3.11,2.35,2.24,4.7Z"/>
      <path class="cls-1" d="m168.92,136.74l6.5-15.51,2.11-1.72c.62.75-5.94,16.15-8.61,17.23Z"/>
      <path class="cls-1" d="m49.96,91.92c-2.17.44-2.17-.3-3.31-1.42-2.3-2.26-7.07-11.45-8.52-14.75-1.11-2.54-6.43-14.14-1.01-10.89,1.74,5.15,3.76,10.34,6.2,15.19.77,1.53,7.2,11.36,6.64,11.88Z"/>
      <path class="cls-1" d="m88.75,130.71c-1.29,1.41-6.86-7.23-7.84-8.1-4.38-3.89-12-5.83-15.43-10.85,1.49-.13,2.84-.08,4.27.46.99.37,11.49,7.22,12.55,8.13,1.34,1.15,7.58,9.11,6.44,10.35Z"/>
      <path class="cls-1" d="m74.1,79.86c-1.79.4-1.96-.94-2.77-1.96-4.66-5.84-9.63-17.5-10.44-24.91-.16-1.48-1.21-2.02.72-3.27l12.49,30.14Z"/>
      <path class="cls-1" d="m174.94,79.87c1.15-.18,7.82-.1,6.89,2.14-3.41,4.23-7.22,3.73-6.89-2.14Z"/>
    </g>
  </g>
</svg>