<?xml version="1.0" encoding="UTF-8"?>
<svg id="Layer_2" data-name="Layer 2" xmlns="http://www.w3.org/2000/svg" viewBox="0 0 84.5 84.5">
  <defs>
    <style>
      .cls-1 {
        fill: #fff;
        stroke-width: 0px;
      }
    </style>
  </defs>
  <g id="Layer_1-2" data-name="Layer 1">
    <g>
      <g id="_Radial_Repeat_" data-name="&amp;lt;Radial Repeat&amp;gt;">
        <g id="WNsNV2">
          <path class="cls-1" d="m19.97,9.72l-.72,3.12,3.17.73c.19-.55.35-1,.56-1.61l3.47.8c.23-.67.4-1.16.6-1.72,1.19.2,2.3.39,3.44.59.22-.58.4-1.02.65-1.65l1.88.43c.56-.19,1.12-.32,1.69-.4.52-1.14.75-1.04,2.12-.33,0,.09-.01.17-.02.25.93.06,1.86.24,2.81.54.48.15.95.32,1.42.49,1.67.18,3.24.5,4.83,1.02l.08-.33,5.36,1.23c-.03.62-.06,1.14-.09,1.78l6.99,1.6c-.05.64-.09,1.14-.12,1.53,1.02,1.18,4.05-.2,3.17,2.9.56.19,1.04.36,1.52.52-.05.61-.1,1.12-.14,1.64l1.4.32,1.15-5c-.52-.22-.99-.43-1.58-.68l.76-3.33c-.51-.06-.91-.2-1.18-.4h0s-1.4-.32-1.4-.32c.05-.52.09-1.03.15-1.63-.48-.17-.97-.33-1.52-.52.88-3.1-2.15-1.73-3.17-2.9.03-.39.07-.89.12-1.53l-6.99-1.6c.03-.64.06-1.16.09-1.78l-5.36-1.23-.08.33c-1.59-.52-3.16-.84-4.83-1.01-.47-.17-.94-.34-1.42-.49-.94-.29-1.88-.48-2.81-.54,0-.08.01-.17.02-.25-.2-.11-.38-.2-.54-.27-.2.53-.37.95-.54,1.38-.58-.04-1.1-.07-1.63-.1-.2.54-.38,1.03-.59,1.57-.56-.03-1.08-.07-1.58-.1-.25.53-.46,1-.69,1.48-.59-.09-1.1-.16-1.64-.23-.19.58-.36,1.07-.54,1.6-.55-.02-1.07-.03-1.59-.05-.23.52-.44.99-.66,1.48-.58-.06-1.09-.11-1.65-.17-.2.53-.39,1.02-.57,1.5-.6-.04-1.11-.07-1.7-.11-.06,1.46-.9,1.78-2.1,1.47Z"/>
        </g>
        <g id="WNsNV2-2" data-name="WNsNV2">
          <path class="cls-1" d="m57.46,6.9l-3.15-.54-.55,3.21c.56.16,1.01.29,1.64.47l-.61,3.51c.68.2,1.18.34,1.75.51-.14,1.2-.27,2.32-.4,3.46.59.19,1.04.34,1.68.56l-.33,1.9c.22.54.38,1.1.49,1.67,1.16.46,1.08.69.44,2.1-.09,0-.17,0-.25,0-.01.93-.14,1.87-.38,2.83-.12.49-.26.97-.41,1.45-.09,1.68-.32,3.26-.75,4.88l.33.06-.94,5.42c-.62,0-1.14,0-1.78,0l-1.22,7.06c-.64-.01-1.15-.03-1.53-.03-1.12,1.09.42,4.03-2.72,3.32-.16.57-.3,1.06-.44,1.55-.61-.02-1.12-.03-1.64-.05l-.24,1.41,5.06.87c.19-.53.37-1.01.59-1.62l3.36.58c.04-.52.15-.91.33-1.2h0s.24-1.41.24-1.41c.52.02,1.03.03,1.64.06.14-.49.28-.98.44-1.55,3.15.71,1.61-2.24,2.72-3.32.39,0,.9.02,1.53.04l1.22-7.07c.64,0,1.16,0,1.78,0l.94-5.42-.33-.06c.43-1.62.66-3.2.75-4.88.15-.48.29-.96.41-1.45.24-.96.37-1.9.38-2.83.08,0,.17,0,.25,0,.09-.21.18-.39.24-.55-.54-.18-.97-.32-1.41-.46,0-.59,0-1.1.01-1.63-.55-.17-1.05-.33-1.6-.5,0-.57,0-1.08.01-1.58-.55-.22-1.02-.41-1.52-.61.05-.59.1-1.11.14-1.65-.58-.16-1.08-.31-1.63-.46-.01-.55-.03-1.07-.04-1.59-.53-.2-1.01-.38-1.52-.57.03-.58.05-1.1.08-1.66-.54-.17-1.04-.33-1.53-.49,0-.6,0-1.12.02-1.7-1.46.02-1.83-.8-1.58-2.02Z"/>
        </g>
      </g>
      <g id="_Radial_Repeat_-2" data-name="&amp;lt;Radial Repeat&amp;gt;">
        <g id="WNsNV2-3" data-name="WNsNV2">
          <path class="cls-1" d="m81.56,39.22l-2.34-2.18-2.22,2.38c.38.44.69.8,1.12,1.29l-2.43,2.61c.46.54.8.93,1.19,1.38-.77.93-1.49,1.8-2.23,2.68.39.48.68.86,1.1,1.38l-1.32,1.41c-.11.58-.28,1.13-.5,1.67.72,1.02.53,1.16-.78,2-.07-.05-.14-.09-.21-.14-.52.77-1.14,1.49-1.87,2.16-.37.34-.75.66-1.14.99-.99,1.36-2.05,2.56-3.29,3.67l.25.23-3.75,4.03c-.52-.33-.96-.62-1.5-.97l-4.88,5.25c-.53-.36-.95-.65-1.26-.87-1.53.3-1.85,3.61-4.1,1.29-.44.39-.83.72-1.21,1.06-.5-.35-.92-.64-1.35-.94l-.98,1.05,3.76,3.5c.45-.33.86-.64,1.38-1.03l2.5,2.32c.31-.41.62-.69.94-.82h0s.98-1.05.98-1.05c.42.3.85.59,1.34.94.39-.33.77-.67,1.22-1.06,2.25,2.31,2.57-.99,4.1-1.29.32.22.74.51,1.26.87l4.88-5.25c.54.35.98.63,1.5.97l3.75-4.03-.25-.23c1.24-1.12,2.3-2.32,3.29-3.68.39-.32.77-.65,1.14-.99.73-.67,1.35-1.39,1.87-2.16.07.05.14.1.2.14.19-.12.36-.23.5-.33-.35-.44-.64-.79-.93-1.15.32-.49.61-.92.9-1.36-.37-.44-.7-.85-1.06-1.29.31-.47.59-.9.87-1.32-.34-.48-.63-.9-.94-1.34.37-.47.69-.88,1.02-1.3-.4-.46-.74-.85-1.12-1.27.29-.47.56-.91.84-1.36-.34-.46-.64-.87-.96-1.31.34-.47.65-.89.97-1.35-.36-.44-.69-.84-1.01-1.24.33-.5.62-.93.95-1.42-1.23-.78-1.09-1.67-.22-2.55Z"/>
        </g>
        <g id="WNsNV2-4" data-name="WNsNV2">
          <path class="cls-1" d="m65.25,73.1l2.05-2.46-2.5-2.08c-.42.41-.76.73-1.23,1.18l-2.74-2.28c-.51.49-.88.85-1.31,1.26-.97-.72-1.88-1.39-2.8-2.08-.46.41-.82.73-1.32,1.18l-1.48-1.24c-.58-.08-1.15-.22-1.69-.41-.98.78-1.13.59-2.04-.67.04-.07.09-.14.13-.21-.8-.47-1.55-1.06-2.26-1.75-.36-.35-.7-.71-1.05-1.08-1.41-.92-2.66-1.91-3.85-3.09l-.22.26-4.23-3.52c.31-.54.56-.99.89-1.55l-5.51-4.59c.33-.55.6-.98.8-1.31-.38-1.51-3.7-1.65-1.52-4.02-.41-.42-.77-.79-1.12-1.15.32-.52.59-.95.87-1.39l-1.1-.92-3.29,3.94c.36.43.69.83,1.1,1.32l-2.18,2.62c.43.29.72.58.87.89h0s1.1.91,1.1.91c-.28.44-.55.88-.87,1.39.36.37.71.73,1.12,1.16-2.19,2.37,1.13,2.51,1.52,4.02-.2.33-.47.76-.8,1.31l5.51,4.59c-.32.56-.58,1.01-.88,1.55l4.23,3.52.22-.26c1.19,1.18,2.44,2.17,3.85,3.09.34.37.69.73,1.05,1.08.71.69,1.46,1.27,2.26,1.75-.04.07-.09.14-.13.21.13.19.25.35.36.48.42-.38.76-.68,1.1-.99.51.3.95.56,1.41.82.42-.39.81-.74,1.23-1.13.49.29.93.54,1.36.8.46-.36.87-.68,1.29-1.01.49.34.91.64,1.36.95.43-.43.81-.79,1.21-1.18.48.26.94.51,1.4.76.44-.36.84-.68,1.26-1.03.49.32.92.6,1.4.9.42-.38.8-.73,1.19-1.08.51.3.96.57,1.47.87.71-1.27,1.61-1.18,2.54-.36Z"/>
        </g>
      </g>
      <g id="_Radial_Repeat_-3" data-name="&amp;lt;Radial Repeat&amp;gt;">
        <g id="WNsNV2-5" data-name="WNsNV2">
          <path class="cls-1" d="m25.22,77.81l3.06-.94-.96-3.11c-.57.11-1.04.2-1.68.32l-1.05-3.41c-.7.13-1.21.23-1.79.34-.42-1.13-.81-2.19-1.21-3.27-.61.09-1.08.16-1.75.26l-.57-1.85c-.44-.39-.84-.81-1.19-1.26-1.24.12-1.27-.13-1.34-1.68.08-.04.15-.07.22-.11-.41-.83-.72-1.74-.94-2.7-.11-.49-.2-.98-.29-1.48-.68-1.54-1.19-3.05-1.53-4.69l-.32.1-1.61-5.26c.55-.28,1.01-.52,1.59-.81l-2.1-6.85c.57-.28,1.04-.49,1.38-.66.51-1.47-2.2-3.4.93-4.19-.11-.58-.21-1.08-.31-1.58.55-.26,1.02-.48,1.49-.69l-.42-1.37-4.91,1.51c.06.56.12,1.07.2,1.71l-3.26,1c.2.48.28.88.25,1.22h0s.42,1.37.42,1.37c-.47.22-.94.44-1.49.69.1.5.2,1,.31,1.58-3.13.79-.42,2.72-.93,4.19-.35.17-.81.38-1.39.66l2.1,6.85c-.57.29-1.04.53-1.59.81l1.61,5.26.32-.1c.35,1.64.86,3.15,1.54,4.69.09.5.18.99.29,1.48.22.96.53,1.86.94,2.7-.08.04-.15.07-.23.11,0,.23.02.43.04.6.56-.09,1.01-.15,1.46-.22.26.52.49.99.73,1.46.57-.1,1.08-.18,1.65-.28.25.51.48.96.7,1.41.59-.05,1.1-.1,1.63-.14.22.55.41,1.03.62,1.54.6-.12,1.11-.22,1.66-.33.26.48.5.94.76,1.4.56-.06,1.08-.11,1.61-.17.24.53.45,1,.68,1.52.56-.09,1.07-.17,1.58-.26.26.54.5,1,.75,1.53,1.29-.68,1.99-.11,2.32,1.09Z"/>
        </g>
        <g id="WNsNV2-6" data-name="WNsNV2">
          <path class="cls-1" d="m4.03,46.75l1.1,3,3.06-1.12c-.14-.57-.25-1.02-.41-1.66l3.34-1.23c-.17-.69-.3-1.19-.44-1.77,1.11-.48,2.14-.93,3.2-1.39-.13-.61-.22-1.07-.36-1.73l1.81-.67c.36-.46.76-.88,1.2-1.26-.19-1.23.06-1.28,1.6-1.43.04.07.08.15.12.22.81-.46,1.69-.81,2.64-1.08.48-.14.97-.25,1.46-.37,1.5-.76,2.98-1.35,4.6-1.79l-.12-.32,5.16-1.9c.31.53.58.98.9,1.54l6.73-2.47c.31.56.55,1.01.74,1.34,1.5.43,3.28-2.38,4.24.7.57-.15,1.07-.27,1.56-.39.29.54.53.99.77,1.45l1.35-.5-1.77-4.82c-.55.1-1.06.18-1.7.29l-1.18-3.2c-.46.23-.87.33-1.21.31h0s-1.35.5-1.35.5c-.24-.46-.49-.91-.77-1.45-.5.12-.99.25-1.56.4-.96-3.08-2.74-.27-4.24-.7-.19-.34-.43-.79-.73-1.35l-6.73,2.48c-.32-.56-.58-1.01-.9-1.54l-5.16,1.9.12.32c-1.62.44-3.1,1.03-4.6,1.79-.49.11-.98.23-1.46.37-.95.27-1.83.63-2.64,1.08-.04-.08-.08-.15-.12-.22-.23.02-.43.04-.6.07.12.55.21,1,.3,1.45-.51.29-.96.55-1.42.81.13.56.24,1.07.37,1.63-.49.28-.94.53-1.37.78.08.58.16,1.09.23,1.62-.54.25-1.01.47-1.5.7.15.59.28,1.09.42,1.64-.47.29-.91.55-1.36.83.09.56.17,1.07.26,1.6-.52.27-.98.5-1.48.76.12.56.23,1.06.34,1.57-.52.29-.97.55-1.48.84.75,1.25.22,1.98-.96,2.38Z"/>
        </g>
      </g>
    </g>
  </g>
</svg>