<?xml version="1.0" encoding="UTF-8"?>
<svg id="Layer_2" data-name="Layer 2" xmlns="http://www.w3.org/2000/svg" viewBox="0 0 803.2 222.81">
  <defs>
    <style>
      .cls-1 {
        fill: #fff;
        stroke-width: 0px;
      }
    </style>
  </defs>
  <g id="Layer_1-2" data-name="Layer 1">
    <g>
      <path class="cls-1" d="m238.1,127.3l.75-.38-.75-1.12c.06-.54.74-.92.75-1.51.29.03.79.66,1.16.66.74,0-.19-1.76,1.1-1.41l-1.51,3.37c-.03.66.93.39,1.52.39-.23.36-.68,1.16-.75,1.51-.61-.11-1.47.34-2.08-.2-.3-.41-.13-.89-.18-1.31Z"/>
      <path class="cls-1" d="m238.86,124.29c-.5-.04-1.01.03-1.51,0,.19-.48.96-1.31.75-1.5h-1.5s.38-.77.38-.77l1.88,2.27Z"/>
      <path class="cls-1" d="m240.36,97.93c-.36.13-1.03-.08-1.51,0,.07-.06-.04-1.06,1.12-.75l.38.75Z"/>
      <path class="cls-1" d="m237.35,124.29v1.51c-1.94-.73-.04-1.4,0-1.51Z"/>
      <path class="cls-1" d="m235.84,83.61c.51.24.98.56,1.51.75.04.24-.03.51,0,.75-2.31-.35-.99-.48-1.51-1.51Z"/>
      <path class="cls-1" d="m240.36,128.81c.46.08,1.02-.06,1.51,0,.24.27-1.14,1.82-1.51,2.25-.04-.65-.12-1.7,0-2.26Z"/>
      <path class="cls-1" d="m240.36,97.93c.46-.16,1.34-.98,1.51-.75.26.87-.53,2.27-1.51,2.26.06-.49-.04-1.01,0-1.51Z"/>
      <path class="cls-1" d="m243.38,126.55l-.39.75c-.62.04-1.25,0-1.87,0,.34-.53.54-1.14,1.13-1.49l1.13.74Z"/>
      <path class="cls-1" d="m234.33,82.11c.22.08.53-.08.75,0,.28.48.5,1.01.75,1.51-.25-.12-1.01.17-1.33-.16-.42-.43-.07-1.06-.17-1.34Z"/>
      <path class="cls-1" d="m232.83,87.38c.62-.21,2.01-1.8,2.25-1.51.23,1.02-.3,1.49-.75,2.26-.54-.22-.92.16-1.51-.75Z"/>
      <path class="cls-1" d="m238.1,127.3l-4.53.76-.74,1.5,1.52-3.76,2.63,1.5.37-1.5h.75c-.05.47-.06,1.03,0,1.51Z"/>
      <path class="cls-1" d="m238.86,91.9l-2.27,2.25h-1.49s.38-2.99.38-2.99c-3,2.55-3.83.94-2.32-2.1.22-.45,1.03-.66,1.18-.93,1.2.49,2.84.4,3.77.75l-1.5,1.13c.91,1.4,2.55-.36,2.26,1.89Z"/>
      <path class="cls-1" d="m269.75,125.04c-.19.42.41,1.57-.75,1.51l.75-1.51Z"/>
      <path class="cls-1" d="m261.46,127.3l3.01-.76-2.26-1.12,2.26-1.13.82,2.57-1.56,1.19h3.76s-.75,2.27-.75,2.27c-1.53-.67-4.41-1.19-4.78-1.43-.77-.49-.39-1.47-.49-1.58Z"/>
      <path class="cls-1" d="m226.8,130.32c1.29-.83.14-1.95,3.77-.73-.02.48-.8,1.32-.75,1.49l-1.13-.74c-.61.3-.78,1.11-1.13,1.49-.75-.58-.6-1.33-.75-1.51Z"/>
      <path class="cls-1" d="m223.79,97.93v1.13c.09.27.66.24.75.38-.16.43.38,1.53-.37,1.5l-1.88-2.64c-.07-.79,1.29-.18,1.5-.37Z"/>
      <path class="cls-1" d="m259.95,126.55c-.1.97.15,2.09,0,3.01-.56-.33-1.12-.52-1.49-1.13.18-.67,1.38-1.49,1.49-1.89Z"/>
      <path class="cls-1" d="m259.95,126.55c.22-.78-.16-2.1,0-3.01h.74s.76,3.76.76,3.76c-.11-.12-1.44-.84-1.51-.75Z"/>
      <path class="cls-1" d="m223.03,116c.41-.15.9-.78,1.36-.57l.9,1.32-2.26,4.52c.22-1.77.84-3.56,0-5.27Z"/>
      <path class="cls-1" d="m259.95,129.56c.39.23,1.52-.42,1.51.38.03.62-1.07.44-1.51.38.04-.25-.04-.51,0-.75Z"/>
      <path class="cls-1" d="m225.29,123.54c-.14.19.12,1.07,0,1.5h-1.5c.04-.73.86-1.32,1.51-1.5Z"/>
      <path class="cls-1" d="m699.38,141.78c2.31-1.31,6-1.22,8.34-.14.82.38.08,2.11,2.05,1.47-.9-.79-1.28-3.16-1.69-3.57-1.33-1.29-4.2.96-3.58-1.69l8.19.85,1.22,2.93,1.96-.46.69-2.56c10.84,1.46,9.83,20.56-1.84,18.8-4.17-.63-4.21-.54-8.33-.67-7.77-.26-9.38-8.82-7.01-14.95Zm1.35,8.13c-.21,1.56.35,2.93,1.87,3.47l4.16-1.99c-1.21-2.75-3.72-1.59-6.02-1.49Zm4.52-4.54l-2.99,1.9,6.01,1.88-.74-3.02,1.49-.36c-1.49-2.29-2.98-4.26-6.03-3.05l-.73,1.91,3,.74Z"/>
      <path class="cls-1" d="m223.79,125.04h1.5c.12-.44-.14-1.32,0-1.51.39-.11,1.03.05,1.51,0l.38,2.25,1.13-1.13,2.26,2.27-2.26.38,1.13,1.48,1.84-2.56,2.3.32c.67-3.22-3.21-.2-3.76-.76l.7-2.19c-1.99.07-4.75-4.14-1.57-2.41,1.03-3.9,2.54-.62,5.18-.08,1.75.36,7.18-.15,7.65.31.18.18,0,1.19.38,1.8,1.39,2.19.62,1.23,1.22,3.34l-1.13-.74c-.58.35-.79.96-1.13,1.49-.59,0-1.55.28-1.52-.39l1.51-3.37c-1.28-.35-.36,1.41-1.1,1.41-.37,0-.86-.63-1.16-.66l-1.88-2.27-.38.75h1.5c.2.2-.56,1.03-.75,1.51-.04.1-1.94.77,0,1.51l-.37,1.5-2.63-1.5-1.52,3.76.74-1.5,4.53-.76c.05.41-.12.9.18,1.31.61.54,1.48.09,2.08.2-.12.56-.04,1.61,0,2.26-.39.47-.72,1.43-1.31,1.52-2.02.33-6.84-1.96-7.36.75-.25-.98-1.85-2.13-1.88-2.27-.04-.17.73-1.01.75-1.49-3.63-1.21-2.47-.09-3.77.73-.11-.12,0-.6-.43-.67l-1.83.68c-.17-1.6-.29-3.78-.76-5.28Zm6.04-4.52c-.25,1.1.32,1.57,1.12,2.24l1.13-1.12-2.25-1.13Zm1.51,8.29v1.5h.74v-1.5h-.74Zm3.77,0v1.5h.74v-1.5h-.74Zm3,.76h-1.5v.74h1.5v-.74Z"/>
      <path class="cls-1" d="m229.81,131.07v1.51c-.58-.46-2.06-.6-2.26-.75.35-.38.52-1.19,1.13-1.49l1.13.74Z"/>
      <path class="cls-1" d="m223.79,97.93h1.51c.25.19-.6,1.07-.75,1.51-.1-.14-.66-.1-.75-.38v-1.13Z"/>
      <path class="cls-1" d="m237.35,124.29c.5.03,1.01-.04,1.51,0-.01.58-.7.97-.75,1.51h-.75v-1.51Z"/>
      <path class="cls-1" d="m226.8,130.32c.16.17,0,.93.75,1.51-.7.75-.68,1.91-2.26,1.5l-.76-2.24c.79-.09,1.59-.34,2.26-.77Z"/>
      <path class="cls-1" d="m223.03,116c-.45-.92-1.83-.42-1.5-1.5l1.54-.4-1.93-3.37c-3.42.58,1.09,1.96,1.13,2.99l-2.24,1.52c-.38-3.21-1.88-5.76-.77-9.03l-1.49,1.5c.58-3.06-1.75-6.51-2.67-9.75-1.23-4.31-1.9-9.23-3.35-13.59,3.76,2.04,5.29-.96,8.28,1.51.02,1.53-1.91-.12-3.2.15-.99.2-3.68,1.79-2.81,2.86l2.67-1.55c2.06.62,2.6,2.49,2.61,4.56l1.88-3,1.51,2.25.38-2.25,2.26.76-1.52,3.75-1.12-1.51-1.12,1.51-.38-1.5-2.25,2.27-1.89-.77c.75-1.16,1.02-4.11-.75-4.5l.67,3.44-1.48.78.81,4.06,1.49-2.25c-.16,1.61.33,1.68,1.9,1.52l.75-1.54c.71-.02-.17,2.38,1.88,1.52v-2.26s2.26,0,2.26,0c.06,1.1.07,2.99-.75,3.76-.21.2-1.57-.42-1.5.37l1.88,2.64c.75.03.22-1.07.37-1.5.55.8,1.18,1.54,2.25,1.52l-1.5,1.87,1.51-.37-.75,2.26,2.25-1.49c1.43,1.78-.92,3.57-.74,3.75,1.34,1.41,1.62-1.59,1.87-1.51l13.15,5.65-.7,1.9-1.81-.76c-.74,1.9-1.62,1.09-3.46,1.51l.75-2.25-6.78-.75,5.27,1.5v2.26c-2.31.7-3.14-1.45-3.34-1.43-1.37.11-1.97,1.29-4.18.3-3.32-1.49-1.37-4.41-1.53-7.15l-2.25,3.01.63-5.5-4.4-5.79,1.49,9.03c-1.61-.22-.81-3.52-1.69-4.33-.41-.38-2.07-.4-2.82-.94l.02,1.48c2.06.11,2.92,3.48,2.24,5.29l3.76-2.26c-1.45,4.06,3.1,6.52,1.51,10.54l-.9-1.32c-.46-.21-.95.41-1.36.57Zm-7.54-25.61h-1.5s1.13,1.5,1.13,1.5l.37-1.5Zm4.52,9.78c-.77-2.26-2.34-1.34-2.25.76l2.25-.76Zm3.78,12.82v1.5h.74v-1.5h-.74Zm5.27-3.02h-1.51s1.5,2.26,1.5,2.26v-2.26c2.3.45,2.31-1.96.01-1.5v1.5Zm6.02-.75h-1.5v.74h1.5v-.74Z"/>
      <path class="cls-1" d="m240.36,131.07c.36-.43,1.75-1.98,1.51-2.25-.49-.07-1.04.08-1.51,0,.07-.35.52-1.14.75-1.51.62,0,1.25.03,1.87,0l.39-.75c.52,1.84,1.98,3.72,1.51,6.02h-4.53c-.04-.5.03-1,0-1.5Z"/>
      <path class="cls-1" d="m238.1,125.8l.75,1.12-.75.38c-.06-.47-.05-1.03,0-1.51Z"/>
      <path class="cls-1" d="m223.03,116c.85,1.71.22,3.5,0,5.27l2.26-4.52,2.27,1.87-2.26,1.52c3.39,1.39.95,2.13,0,3.39-.65.18-1.47.77-1.51,1.51-.74-2.39-2.56-5.15-2.82-7.94.39-1.32,1.48-.88,2.07-1.1Z"/>
      <path class="cls-1" d="m240.36,99.43c.97,0,1.77-1.39,1.51-2.26,1.04,2.95,1.52,3.18-2.26,3.76-.32-.21.71-1.16.75-1.5Z"/>
      <path class="cls-1" d="m235.09,82.11c-.22-.08-.53.08-.75,0-.83-2.33-1.59-1.86-3.39-3.76-1.18,3.69-3.62.13,0-.8,2.59.6,3.13,2.81,4.15,4.56Z"/>
      <path class="cls-1" d="m232.83,87.38c-.78-1.23-.71-3.24,0-4.51l-4.79-.02-1.23,1.52.23-2.26h-1.74s0-2.25,0-2.25h2.26s.38,2.24.38,2.24l1.88-1.49.38,1.52.75-1.51c.93,1.11,2.26,1.09,3.4,1.5.1.29-.25.92.17,1.34.33.33,1.08.04,1.33.16.52,1.03-.8,1.15,1.51,1.51.09.69-.86,2.21.75,3.77-.92-.36-2.57-.26-3.77-.75.44-.77.98-1.24.75-2.26-.24-.29-1.63,1.3-2.25,1.51Z"/>
      <path class="cls-1" d="m237.35,84.37c-.53-.19-1-.52-1.51-.75-.25-.5-.47-1.02-.75-1.51,1.55.54,1.9.03,2.26,2.26Z"/>
      <path class="cls-1" d="m238.1,88.89c1.56.61,5.07,2.65,6.21,3.74,2.25,2.17,4.55,5.21-.18,6.04l1.55-1.15-1.57-4.11-1.49,1.5-.38-2.26-1.88,1.51v-3.02s-1.51.76-1.51.76c.3-2.25-1.35-.48-2.26-1.89l1.5-1.13Z"/>
      <path class="cls-1" d="m240.36,97.93c-.04.5.06,1.02,0,1.51l-1.51-1.51c.47-.08,1.15.13,1.51,0Z"/>
      <path class="cls-1" d="m238.86,97.93c-.44.41-.61,1.53-1.23,1.53l-2.12-.78.33-2.25-1.49,1.14,3.76,2.63-1.1,1.31c-3.94-1.06-7.78-.83-10.95-3.96l2.64-1.88,1.87,2.26,1.15-2.26,1.12,1.5v-2.26s2.27.76,2.27.76l-.76-2.25-6.02,1.5,1.13-2.25,1.88,1.5-2.52-2.26c-.23.75-1.76,1.54-1.81,1.66-.14.39,1.55,3.84-.55,2.87s.79-3.55-1.89-3.01l2.25-.75-.75-6.01,1.23,1.54c.88.19,4.53-.45,5.55-.79.58.92.97.53,1.51.75-.16.27-.96.48-1.18.93-1.51,3.04-.68,4.65,2.32,2.1l-.38,2.99h1.49s2.27-2.25,2.27-2.25l-1.51,4.51c.79-.39,2.42-.02,2.88-.22.32-.14-.33-1.61.88-1.27,0,.83.5,1.51.76,2.25-.16-.23-1.05.59-1.51.75l-.38-.75c-1.16-.31-1.06.69-1.12.75Zm-6.79-9.04l-4.51.37c1.11,1.69,4.85,2.58,4.51-.37Zm-.74,9.04l.37,1.5,1.13-1.5h-1.5Z"/>
      <path class="cls-1" d="m237.35,84.37c.43.15,1.53-.39,1.51.38.03.62-1.08.44-1.51.38-.03-.25.04-.51,0-.75Z"/>
      <path class="cls-1" d="m233.58,103.2l12,.05c-.33.79,1.67,5.17,1.96,5.26,3.99,1.28,2.69-2.65.35-3.81v3.01s-1.51-4.51-1.51-4.51l4.52.75-.75,2.25,1.87-1.49,2.65,3.74c-3.32.51-3.81,3.29-4.14,6.04l-7.16-2.26,3.76-1.12-6.02-4.53,1.5-1.12c-2.65.71-3.33,2.48-6.27.75-.91-.53.3-2.22-2.76-.76v-2.26Zm18.83,3.01l-1.5,1.5h1.5s0-1.5,0-1.5Z"/>
      <path class="cls-1" d="m267.49,128.06c1.09,1.26.94,1.44-.75,2.26l.75-2.26Z"/>
      <path class="cls-1" d="m262.21,114.5c-1.04-.18-4.06-.92-4.73-.75-.49.12-.96,2.27-2.81,1.51,1.01,2.28,4.24,4.75.02,5.26-.81-1.94-3.01-6.6-1.58-8.51.54-.72,1.45-.43,1.56-.52l.76,3.01h.74s0-3,0-3h-1.5c.13-.11-.38-1.33.46-1.49,1.65-.32,4.04,1.53,5.56,1.12l-7.53-8.66c2.27-.18,3.39,3,4.9,3.75,2.27,1.12-1.1-3.36,1.88-2.25-1.8,2.33,1.84,1.2,1.49,3.76l-2.99-.37,4.49,3.77-2.24,1.14v1.5s1.49-.76,1.49-.76c.02.5,0,1.01,0,1.51,1.36.24,4.66.2,5.27,1.5-4.5-1.16-5.46,3.35-6.77,6.79l3.75-.39-1.89-.38-.36-2.24,3.39,2.26,1.13-2.27.07,2.17,2.19.83-2.98.38c.13.36.75.95.72,1.14-.09.5-1.05,1.14-.81,2.47.13.72,1.17.84,1.56,1.3h-3.76s1.56-1.2,1.56-1.2l-.82-2.57-2.26,1.13,2.26,1.12-3.01.76-.76-3.76h-.74c-.17.91.21,2.23,0,3.01-.11.39-1.31,1.22-1.49,1.89.37.6.93.8,1.49,1.13-.04.24.04.51,0,.75-1.01-.14-1.96-.74-3.01-.75l1.5,3h-3.76c-.8-1.53,2.38-5.15-.76-4.52.22,2.91-.03,3.07-2.44,3.97-1.1.41-1.48,1.24-1.32-.57,4.1-4.11,6.54-6.63,9.45-11.64,1.29-2.23,2.67-1.36,2.6-5.32Zm-3.02,10.55h-1.5v.74h1.5v-.74Z"/>
      <path class="cls-1" d="m266.73,124.29c1.13.75,2.22-.05,3.01,0-.1.2.1.54,0,.75l-.75,1.51c-.06-.1-1.42-.16-1.9-.72l-.37-1.54Z"/>
      <path class="cls-1" d="m217.76,82.12l4.58-.38,2.2-1.89-1.52,4.12,2.27,1.88c-1.48-.61-2.59,3.58-3.76,2.27-.79-.89,1.85-2.66,1.5-3l-2.25,1.49-1.55-1.88,1.53-2.62-2.64,1.5-.37-1.49Z"/>
      <path class="cls-1" d="m449.08,124.29l4.51.75c-.81-1.3-1.93-.57-1.13-2.94,1.83-5.44,2.27,2.88,2.64,4.45h-6.02s0-2.25,0-2.25Z"/>
      <path class="cls-1" d="m467.15,121.28c-2.17.59-2.74-3.77-1.11-4.52l1.11,4.52Z"/>
      <path class="cls-1" d="m251.67,97.93c1.53-1.2,5.88,4.59,6.02,6.02-1.15.26-.53-.99-1.27-1.53-.34-.25-6.19-3.35-4.74-4.49Z"/>
      <path class="cls-1" d="m248.64,97.17v3.02c1.78-1.05,2.98-.36,3.77,1.49-2.94-.33-4.42-1.93-7.53-.75l3.76-3.76Z"/>
      <path class="cls-1" d="m642.7,150.65c.63.76-1.8,4.32-3,4.52-.49-2.59.68-3.77,3-4.52Z"/>
      <path class="cls-1" d="m457.37,119.77c1.7.46,1.6,2.33,1.49,3.76h-1.5s0-3.76,0-3.76Z"/>
      <path class="cls-1" d="m712.03,134.08c1.71.45,1.57,2.36,1.49,3.77-2.12-.92-2.14-1.78-1.49-3.77Z"/>
      <path class="cls-1" d="m440.04,121.28l4.51,5.27-2.83-.38.44-.99c-2.2-.56-2.37-1.76-2.12-3.89Z"/>
      <path class="cls-1" d="m228.31,100.94c1.63.82,1.97,2.72,4.07,1.53l.44,2.23c-.57.63-5.17-1.97-4.51-3.76Z"/>
      <path class="cls-1" d="m229.5,84.81c.45-.46.09-1.28.69-1.2,1.73,2.23.94,3.45-1.88,2.26-.26-1.1.67-.53,1.19-1.06Z"/>
      <rect class="cls-1" x="250.16" y="126.55" width="1.5" height="2.25"/>
      <polygon class="cls-1" points="218.52 132.58 220.77 132.95 218.52 134.84 218.52 132.58"/>
      <polygon class="cls-1" points="452.08 117.51 452.08 118.63 450.58 119.77 449.82 117.52 452.08 117.51"/>
      <polygon class="cls-1" points="425.71 125.8 425.71 127.3 422.7 127.3 422.7 126.56 425.71 125.8"/>
      <polygon class="cls-1" points="460.38 118.26 462.63 120.52 460.38 120.52 460.38 118.26"/>
      <path class="cls-1" d="m431.74,123.54l-5.26,3.76c-1.24-1.29,4.2-4.01,5.26-3.76Z"/>
      <polygon class="cls-1" points="266.73 119.01 263.72 118.64 265.59 117.51 266.73 119.01"/>
      <path class="cls-1" d="m239.62,85.87l2.25,2.25c-1.37.26-2.5-.83-2.25-2.25Z"/>
      <polygon class="cls-1" points="465.65 113.75 464.88 116 464.15 116 463.39 113.75 465.65 113.75"/>
      <polygon class="cls-1" points="435.5 122.78 435.5 125.04 434 125.04 434.01 123.92 435.5 122.78"/>
      <path class="cls-1" d="m438.52,115.26c-.37,1.45-1.67,1.7-3.01,1.49-.78-.36,2.03-1.8,3.01-1.49Z"/>
      <path class="cls-1" d="m245.46,90.62c.66.33,2.47,2.26.55,2.78l-2.63-2.27c-.17-1.3,1.4-.86,2.08-.51Z"/>
      <polygon class="cls-1" points="263.73 108.47 264.46 108.48 265.23 110.72 263.72 110.73 263.73 108.47"/>
      <path class="cls-1" d="m265.99,110.73c1.61.1.81,1.74.91,1.88.47.71,1.9-.13,1.34,1.88-1.52-.55-2.54-2.11-2.25-3.77Z"/>
      <path class="cls-1" d="m431.74,127.3c-.94.5-2.63-1.21-2.26-1.49.94-.5,2.63,1.21,2.26,1.49Z"/>
      <rect class="cls-1" x="207.21" y="132.58" width="3.01" height=".74"/>
      <polygon class="cls-1" points="445.31 125.04 447.56 125.81 447.56 126.54 445.31 126.55 445.31 125.04"/>
      <path class="cls-1" d="m461.12,125.05c.37.29-1.32,1.99-2.26,1.49-.37-.29,1.32-1.99,2.26-1.49Z"/>
      <path class="cls-1" d="m708.27,134.84c.29-.37,1.99,1.32,1.49,2.26-.29.37-1.99-1.32-1.49-2.26Z"/>
      <polygon class="cls-1" points="458.12 116.76 459.61 117.13 458.12 118.26 458.12 116.76"/>
      <polygon class="cls-1" points="445.31 119.78 446.43 121.28 447.56 119.78 447.56 122.78 445.31 119.78"/>
      <polygon class="cls-1" points="464.9 125.04 466.4 126.54 464.9 126.55 464.9 125.04"/>
      <path class="cls-1" d="m470.92,88.89l-6.02,2.25c.9-1.66,4.34-2.03,6.02-2.25Z"/>
      <rect class="cls-1" x="438.53" y="121.28" width=".74" height="2.25"/>
      <rect class="cls-1" x="432.5" y="125.8" width="2.25" height=".74"/>
      <rect class="cls-1" x="414.41" y="127.31" width="2.25" height=".74"/>
      <polygon class="cls-1" points="248.65 93.41 248.64 94.91 247.15 93.78 248.65 93.41"/>
      <polygon class="cls-1" points="247.9 131.83 249.4 132.2 247.9 133.33 247.9 131.83"/>
      <polygon class="cls-1" points="624.63 145.39 626.13 145.75 624.63 146.89 624.63 145.39"/>
      <polygon class="cls-1" points="348.87 163.46 350.37 164.96 348.86 164.96 348.87 163.46"/>
      <rect class="cls-1" x="262.22" y="106.97" width=".74" height="2.25"/>
      <rect class="cls-1" x="269" y="119.77" width=".74" height="1.5"/>
      <rect class="cls-1" x="244.14" y="114.5" width=".74" height="1.5"/>
      <rect class="cls-1" x="638.2" y="145.39" width=".74" height="1.5"/>
      <rect class="cls-1" x="452.84" y="116.76" width="1.5" height=".74"/>
      <rect class="cls-1" x="456.61" y="125.05" width=".74" height="1.5"/>
      <rect class="cls-1" x="420.45" y="126.55" width=".74" height="1.5"/>
      <rect class="cls-1" x="716.55" y="137.1" width="1.5" height=".74"/>
      <rect class="cls-1" x="474.7" y="114.5" width=".74" height="1.5"/>
      <rect class="cls-1" x="433.25" y="116.76" width="1.5" height=".74"/>
      <rect class="cls-1" x="223.04" y="103.96" width="1.5" height=".74"/>
      <rect class="cls-1" x="223.04" y="131.83" width=".74" height="1.5"/>
      <rect class="cls-1" x="435.51" y="125.8" width="1.5" height=".74"/>
      <rect class="cls-1" x="436.27" y="131.83" width=".74" height="1.5"/>
      <rect class="cls-1" x="436.27" y="129.57" width=".74" height="1.5"/>
      <rect class="cls-1" x="470.93" y="114.5" width=".74" height="1.5"/>
      <rect class="cls-1" x="468.66" y="125.05" width="1.5" height=".74"/>
      <rect class="cls-1" x="437.78" y="125.05" width=".74" height="1.5"/>
      <rect class="cls-1" x="439.28" y="125.05" width=".74" height="1.5"/>
      <rect class="cls-1" x="440.04" y="115.25" width=".74" height="1.5"/>
      <rect class="cls-1" x="442.3" y="122.03" width=".74" height="1.5"/>
      <rect class="cls-1" x="458.12" y="115.26" width="1.5" height=".74"/>
      <path class="cls-1" d="m239.6,170.99l1.52-2.25c-1.02,2.5,1.12,5.47-1.84,7.27l-7.21-.51.38-1.51c-1.52.39-1.91,1.41-3.76,1.58-6.1.57-14.74-.48-21.1-.4s-15.14,1.26-21.1.78c-1.01-.08-1.83.5-2.63-.83,5.35-3.22,10.08-.59,16-1.32,5.33-.66,15.69-6.41,18.24-6.48,1.07-.03,2.42.69,3.77.69,4.78,0,9.57-.08,14.35-.04l3.38,3.02Z"/>
      <path class="cls-1" d="m249.03,154.42c1.59.03,4.59-1.1,5.65,1.5-.5.62-13.84.13-15.43,0-.91-.08-4.04-.28-4.15-1.5,4.64.06,9.3-.08,13.94,0Z"/>
      <path class="cls-1" d="m204.95,161.95c-.82-.39-2.7-.9-3.01-2.25l2.9.88c.34.44,0,1.14.11,1.37,1.81.86,2.4.68,3.7,1.14.76.27,1.43,1.31,2.33,1.58,1.43.43,3.17-1,3.77,1.04-1.83.5-8.76-1.23-9.67-2.39-.36-.45-.01-1.14-.12-1.36Z"/>
      <path class="cls-1" d="m258.44,150.66c-.09,3.52-3.16,1.7-5.27,1.49l5.27-1.49Z"/>
      <path class="cls-1" d="m226.81,150.65l6.02.76-4.79.69-.48,2.32,5.67-.74.36,1.48c-3.79,1-7.79.62-6.77-4.51Z"/>
      <path class="cls-1" d="m225.3,154.42c2.72.62.58,5.06-.76,3.76l.76-3.76Z"/>
      <path class="cls-1" d="m252.41,150.65v1.5c-1.57.32-2.61,1.34-3.76-.37l3.76-1.13Z"/>
      <path class="cls-1" d="m337.56,163.45l-6.78-1.49c1.95.48,5.73-.72,6.78,1.49Z"/>
      <rect class="cls-1" x="236.6" y="151.42" width="3.76" height=".74"/>
      <rect class="cls-1" x="250.91" y="159.7" width="3.01" height=".74"/>
      <rect class="cls-1" x="244.89" y="151.42" width="3.01" height=".74"/>
      <rect class="cls-1" x="550.79" y="167.23" width="1.5" height="1.5"/>
      <polygon class="cls-1" points="223.04 159.7 224.54 160.07 223.04 161.2 223.04 159.7"/>
      <polygon class="cls-1" points="632.16 167.98 632.15 169.49 630.66 168.35 632.16 167.98"/>
      <rect class="cls-1" x="322.49" y="161.21" width="1.5" height=".74"/>
      <rect class="cls-1" x="584.7" y="153.67" width=".74" height="1.5"/>
      <rect class="cls-1" x="328.52" y="161.96" width="1.5" height=".74"/>
      <rect class="cls-1" x="519.9" y="143.88" width="1.5" height=".74"/>
      <rect class="cls-1" x="599.01" y="164.97" width="1.5" height=".74"/>
      <rect class="cls-1" x="256.94" y="156.69" width="1.5" height=".74"/>
      <rect class="cls-1" x="253.18" y="157.44" width=".74" height="1.5"/>
      <rect class="cls-1" x="246.4" y="164.22" width=".74" height="1.5"/>
      <rect class="cls-1" x="234.34" y="150.66" width=".74" height="1.5"/>
      <rect class="cls-1" x="403.11" y="161.96" width="1.5" height=".74"/>
      <rect class="cls-1" x="226.05" y="148.4" width="1.5" height=".74"/>
      <rect class="cls-1" x="476.2" y="157.44" width="1.5" height=".74"/>
      <path class="cls-1" d="m705.24,145.37l-3-.74.73-1.91c3.05-1.21,4.55.76,6.03,3.05l-1.49.36.74,3.02-6.01-1.88,2.99-1.9Z"/>
      <path class="cls-1" d="m700.72,149.91c2.3-.11,4.81-1.27,6.02,1.49l-4.16,1.99c-1.52-.55-2.08-1.92-1.87-3.47Z"/>
      <path class="cls-1" d="m229.82,120.52l2.25,1.13-1.13,1.12c-.81-.67-1.37-1.14-1.12-2.24Z"/>
      <rect class="cls-1" x="236.6" y="129.57" width="1.5" height=".74"/>
      <rect class="cls-1" x="235.1" y="128.81" width=".74" height="1.5"/>
      <rect class="cls-1" x="231.33" y="128.81" width=".74" height="1.5"/>
      <path class="cls-1" d="m220.02,100.18l-2.25.76c-.08-2.1,1.48-3.02,2.25-.76Z"/>
      <polygon class="cls-1" points="215.49 90.4 215.12 91.9 213.99 90.4 215.49 90.4"/>
      <path class="cls-1" d="m232.07,88.89c.34,2.95-3.4,2.06-4.51.37l4.51-.37Z"/>
      <polygon class="cls-1" points="231.32 97.93 232.83 97.93 231.69 99.43 231.32 97.93"/>
      <polygon class="cls-1" points="252.41 106.21 252.41 107.71 250.91 107.71 252.41 106.21"/>
      <rect class="cls-1" x="257.7" y="125.05" width="1.5" height=".74"/>
      <path class="cls-1" d="m229.06,109.98v-1.5c2.3-.46,2.3,1.95,0,1.5v2.26s-1.51-2.25-1.51-2.25h1.51Z"/>
      <rect class="cls-1" x="233.58" y="109.23" width="1.5" height=".74"/>
      <g>
        <path class="cls-1" d="m738.4,67.79c1.52,1.6-5.36,3.35-5.66,4.52l-1.12-1.5v2.26s-2.94-.69-2.94-.69c-1.04,3.2-8.24,4.97-11.39,4.44,1.17-1.82,1.86-.67,2.26-3.01.69.36.35,1.68,1.72,1.43,1.58-.3,4.12-1.92,4.42-3.63l2.14.69-.75-2.25,3.77,1.49-.37-1.53,7.91-2.23Z"/>
        <path class="cls-1" d="m622.37,96.42l.75,1.51c.13.96-.08,2.03,0,3.01l-2.27-2.63c-.34-1.25,1.21-1.44,1.53-1.88Z"/>
        <path class="cls-1" d="m719.56,73.82c.12-.69-.09-1.53,0-2.26l1.79.75c1.35-1.74,2.4-1.37,1.22-3.75,2.74.31,6.93,1.41,7.57-2.25l3.34,1.5,1.14-1.5-1.49-2.27c2.5,2.09,6.75-1.57,6.77,2.26h-3.01c-.2.97.93.93,1.5,1.51l-7.91,2.23.37,1.53-3.77-1.49.75,2.25-2.14-.69c-.3,1.71-2.84,3.33-4.42,3.63-1.37.26-1.03-1.06-1.72-1.43Z"/>
        <path class="cls-1" d="m622.37,96.42c1.05-.05.66.81.75,1.51l-.75-1.51Z"/>
        <path class="cls-1" d="m642.71,41.44c-1.89,2.52-4.25,11.91-7.89,11.33l-.85-1.59c-4.32-.36-4.84,4.3-8.58,4.56,2.37-8.97,7.96-13.72,17.33-14.3Zm-4.52,3.01c-.62-.62-7.4,2.99-6.77,5.27,3.31-.38,6.52-1.41,6.77-5.27Z"/>
        <path class="cls-1" d="m642.86,48.35c1.39-.88,7.33-.11,8.89-2.79,1.26-2.58-6.1,1.07-6.77.38.49-7.16,7.85-7.96,13.55-9.03-.87,4.21-7.67,2.08-9.79,5.65l6.77-.38c.22,7.77-7.86,6.75-13.17,9.04-1.01-.24.34-2.77.51-2.88Z"/>
        <path class="cls-1" d="m596.74,55.75c-1.2,2.52-4.26,10.82-7.11,10.59-.44-.04.1-2.57-3.48-1.23-2.72,1.02-2.6,4.78-5.98,4.19,2.15-8.1,8.63-12.24,16.57-13.55Zm-4.52,3.01c-.9-.89-5.68,3.17-6.02,4.51,2.92,0,5.98-1.16,6.02-4.51Z"/>
        <path class="cls-1" d="m600.74,54.47c.58-.42,3.95-1.27,4.28-.98l1.14,3.76c1.85-2.71,1.91-5.75,5.65-6.78-.78,2.17-4.73,14.16-8.25,11.27l-1.53-5.24c-1.66,3.01-2.71,8.08-6.79,8.27,1.56-2.12,3.72-9,5.5-10.31Z"/>
        <path class="cls-1" d="m578.66,61.77l-2.18,5.76,1.44,1.38c-.62.35-.54,1.38-.97,1.7-1.12.85-11.67,4.03-12.6,3.2,1.56-7.22,7.33-10.97,14.31-12.05Zm-3.01,3.02c-3.85-.64-7.19,3.23-7.53,6.77,4.14.28,5.93-3.8,7.53-6.77Z"/>
        <path class="cls-1" d="m735.38,9.03c-3.46.66-6.92-.68-10.13-.78-3.71-.12-5.8,2.53-8.7-2.97,6.39-1.45,14.23-1.92,18.83,3.75Z"/>
        <path class="cls-1" d="m614.08,49.73l13.56-3.77c-.65,2.72-4.67,2.26-5.84,3.2-1.29,1.03-2.81,6.82-3.92,8.31-.7.94-3.4,2.38-3.06.16.23-1.55,3.63-6.53,3.02-7.15-1.51-.06-4.24,2.19-3.76-.75Z"/>
        <path class="cls-1" d="m708.25,6.78c-.26,4.76-2.62,7.92-7.53,8.28,2.14-3.74,2.15-8.11,7.53-8.28Z"/>
        <path class="cls-1" d="m715.79,10.54l-6.02,1.51,2.64-6.02c1.29-.29,3.83,4.01,3.38,4.51Z"/>
        <path class="cls-1" d="m610.04,96.12c.31-.28.34-.8.28-1.2,3,3.63,5-2.68,8.27.37l-1.52,1.87-2.23-1.5-2.29,3.76-4.51-1.51c.13-.97,1.3-1.17,1.99-1.8Z"/>
        <path class="cls-1" d="m570.38,84.37c3.56-.52,4.42.38,5.23,3.68-4.61,2.69-4.69.54-5.23-3.68Z"/>
        <path class="cls-1" d="m525.17,103.96c-.88.72,2.68.53,1.49,2.25l-2.3-1.24,1.93-7.03c4.25,4.06,1.17,4.14-1.12,6.02Z"/>
        <polygon class="cls-1" points="608.8 73.07 611.81 73.06 611.43 71.57 613.17 75.1 609.93 78.34 608.8 73.07"/>
        <path class="cls-1" d="m511.76,101.86c2.75-1.57,2.53,1.6,3.99,1.35.76-.13-.25-2.23,1.88-1.52l.46,3.8-3.46,1.48.64-2.56-2.15-1.2v4.52s-2.24-.01-2.24-.01c-.6-1.56-.66-4.97.88-5.85Z"/>
        <path class="cls-1" d="m595.99,77.59c.28,3.11.33,5.06-3,6.02l.35-5.29,2.65-.73Z"/>
        <path class="cls-1" d="m630.65,67.8l-.83,3.31,1.58,1.2c-8.44,2.72-3.07-6.66-.75-4.51Z"/>
        <path class="cls-1" d="m657.14,63.37c1.63-.55,4.1-6.4,5.19-3.61l1.48-.25-2.25.76-.82,4.49h-3.34s-.26-1.38-.26-1.38Z"/>
        <path class="cls-1" d="m523.66,124.28l-2.25-1.51,1.87-.77.7,1.47c2.57-1.64,6.18.22,7.97,2.32-3.03,1.17-4.55-2.28-5.65-2.27-.67.01-.11,1.28-.85,1.49-1.31.36-5.39-.48-6.86-.51-1.71-.03-4.19,2.51-6.23-1.71l11.3,1.49Z"/>
        <polygon class="cls-1" points="568.78 85.96 569.3 89.66 565.86 90.4 565.1 85.88 568.78 85.96"/>
        <path class="cls-1" d="m590.71,78.34l-1.15,5.29-2.61.74c-.42-3.9-.11-5.11,3.76-6.02Z"/>
        <polygon class="cls-1" points="618.59 70.81 618.24 75.34 615.59 76.08 615.94 71.54 618.59 70.81"/>
        <rect class="cls-1" x="700.72" width="18.84" height=".75"/>
        <path class="cls-1" d="m579.41,82.86c.14,1.35.39,5.74-1.87,5.27-2.19-1.77-1.59-6.01,1.87-5.27Z"/>
        <path class="cls-1" d="m764.78,33.9c2.78.24,3.85,1.54,3.76,4.52h-3.77s.01-4.52.01-4.52Z"/>
        <path class="cls-1" d="m634.43,70.8c-.84-.57-1.41-5.48,1.86-4.51,2.62.78.58,6.17-1.86,4.51Z"/>
        <path class="cls-1" d="m718.81,48.95l-3.76.77c-.25-2.22-.04-3.93,1.88-5.25l1.89,4.49Z"/>
        <path class="cls-1" d="m725.47,47.35l-2.9.86c-1.06-6.08,3.64-7.57,2.9-.86Z"/>
        <polygon class="cls-1" points="582.5 80.66 585.44 80.6 583.93 86.63 581.71 85.84 582.5 80.66"/>
        <polygon class="cls-1" points="696.2 50.47 696.13 54.91 693.19 54.99 693.55 51.21 696.2 50.47"/>
        <path class="cls-1" d="m598.25,76.08h3.01c.23,6.99-3.23,7.17-3.01,0Z"/>
        <path class="cls-1" d="m621.61,74.57c.52-1.14-.65-5.77,1.87-5.26,1.97.39,1.77,6.56-1.87,5.26Z"/>
        <path class="cls-1" d="m521.85,99.85c.47-.48-.04-1.43,1.05-1.16v6.02s-3.05-1.22-3.05-1.22c-.48-2.39.86-2.47,2-3.64Z"/>
        <path class="cls-1" d="m741.41,39.93c.23,1.91.24,5.19-2.63,4.51-2.2-.52.36-5.93,2.63-4.51Z"/>
        <path class="cls-1" d="m700.73,48.21c3.39-.06,2.88,2,3.76,4.51h-3.77s0-4.51,0-4.51Z"/>
        <path class="cls-1" d="m504.84,106.97c2.01.32.89-1.14,1.18-1.5,2.94-3.57,5.34,5.32-1.2,2.99l.02-1.49Z"/>
        <path class="cls-1" d="m648.74,63.28c-.66,1.36-.81,2.41,0,3.74l-3.76.77c-.37-2.68.82-4.83,3.76-4.51Z"/>
        <path class="cls-1" d="m537.97,95.66l.76,3.77c-5.06,1.71-5.92-3.56-.76-3.77Z"/>
        <polygon class="cls-1" points="710.52 46.71 710.52 51.23 708.33 51.16 707.55 47.93 710.52 46.71"/>
        <path class="cls-1" d="m562.83,87.38l.44,4.54-3.44.73c.85-1.87.71-4.46,3.01-5.27Z"/>
        <polygon class="cls-1" points="504.07 106.23 502.19 110.72 500.31 105.47 504.07 106.23"/>
        <path class="cls-1" d="m675.86,60.26l-2.31-.45c-2.09-5.67,3.39-5.2,2.31.45Z"/>
        <path class="cls-1" d="m758.74,36.16c1.49,5.29-4.29,5.54-2.94,1.2.41-1.32,1.79-1.33,2.94-1.2Z"/>
        <path class="cls-1" d="m759.15,41.83c.31-.24.36-.93.48-.97.82-.27,1.94,1.74,2.49-.95l1.89.02-.64,1.42,1.4.46-6.79,1.12c-.23-1,.52-.61,1.16-1.1Z"/>
        <path class="cls-1" d="m606.34,76.7l-1.31.5,1.5,1.88-2.25.76c-.05-2.6-1.59-4.33,1.12-6.01l.93,2.87Z"/>
        <path class="cls-1" d="m603.53,34.64l-3.39-1.52-.75,1.53-1.89-3c3.04-1.5,4.4.63,6.03,3Z"/>
        <path class="cls-1" d="m747.44,37.67c1.8-1.33,2.85,3.54,2.25,4.51-2.98,1.59-2.97-3.99-2.25-4.51Z"/>
        <path class="cls-1" d="m494.27,108.47l-1.87,4.51c-1.98-.44-.52-5.24,1.87-4.51Z"/>
        <path class="cls-1" d="m487.5,109.98h2.25c-.39,1.15,1.42,3.88-.38,4.51-2.87,1.01-1.25-2.98-1.87-4.51Z"/>
        <polygon class="cls-1" points="482.98 111.49 485.1 112.76 485.24 116 482.92 115.54 482.98 111.49"/>
        <path class="cls-1" d="m666.82,57.25l2.06,1.22-.93,4.03c-1.88-1.56-1.93-3.12-1.12-5.25Z"/>
        <path class="cls-1" d="m543.26,93.41c1.43-.46,1.97.8,2.29,1.87,1.46,4.87-4.18,2.11-2.29-1.87Z"/>
        <polygon class="cls-1" points="730.87 45.95 731.99 41.45 733.85 44.83 730.87 45.95"/>
        <path class="cls-1" d="m528.94,100.18c2.73,2.08.44-2.26,1.59-3.7l2.17-.06-.08,4.07,2.34.82c-2.52,3.24-2.52-1.09-3.39-1.11-.84,1.1-3,2.86-2.63-.02Z"/>
        <path class="cls-1" d="m531.19,81.36l-4.51,2.64,3-.38v2.26s-3.3-.73-3.3-.73l-1.96,2.23c.59-3.84,2.74-6.15,6.77-6.02Z"/>
        <path class="cls-1" d="m532.71,82.11h3.76s-1.5-1.88-1.5-1.88l3.01-1.13c-.77.88-.55,3.33-.85,3.66-.18.19-5.69,1.79-4.42-.65Z"/>
        <polygon class="cls-1" points="496.53 80.61 471.68 88.88 483.34 84.35 496.53 80.61"/>
        <polygon class="cls-1" points="679.63 55 683.39 53.49 681.89 54.23 681.88 56.49 684.15 56.87 681.14 58.76 679.63 55"/>
        <path class="cls-1" d="m496.71,107.84l1.35-.5-1.51-1.12c3.49.28,2.84,2.74,2.25,5.27-2.36.57-1.68-2.37-2.08-3.65Z"/>
        <path class="cls-1" d="m641.8,66.94l-1.35-6.67c4.19.2-.38,8.07,3.01,8.65-1.92,2.52-1.36-.4-3.01-1.51l1.35-.48Z"/>
        <path class="cls-1" d="m668.34,79.85c1.54,2.6,4.98-.64,4.52,2.26l-5.27.75.76-3.01Z"/>
        <polygon class="cls-1" points="687.91 54.98 686.41 52.73 689.41 56.13 686.78 55.74 687.91 54.98"/>
        <path class="cls-1" d="m521.4,85.13l-1.5-.75,5.26-1.51c.09,1.19-1.55.91-2.29,1.84-1.04,1.3-1.3,3.06-2.61,4.18l1.13-3.76Z"/>
        <path class="cls-1" d="m692.43,1.51c.18,1.08-1.31,1.03-2.1,1.27-3.66,1.14-7.71,1.63-11.46,2.48l13.55-3.75Z"/>
        <polygon class="cls-1" points="753.47 42.17 757.23 43.31 752.71 45.19 753.47 42.17"/>
        <path class="cls-1" d="m751.2,43.69v2.26c-2.45-1.43-3.49,1.22-4.51-1.89l4.51-.37Z"/>
        <path class="cls-1" d="m553.8,73.82c.03,1.65.42,3.93-1.5,4.52l-.42-3.77,1.91-.74Z"/>
        <path class="cls-1" d="m740.66,63.29l3.76-1.52-.87,2.89c-1.48.24-3.41.84-2.88-1.37Z"/>
        <path class="cls-1" d="m629.16,33.15h1.49c.57,4.94-3.37,4.59-1.49,0Z"/>
        <path class="cls-1" d="m504.83,90.4l-1.52-.38,2.26-1.13-.75,4.53h-4.51c.75-2.91,3.81-.82,4.52-3.02Z"/>
        <path class="cls-1" d="m592.98,45.95c.65.66-1.84,4.33-2.25,3.76-.19-1.87-.07-3.97,2.25-3.76Z"/>
        <path class="cls-1" d="m706.75,53.49c-.45,1.65-1.35,2.56-3.01,3.01-.35-2.28.65-3.36,3.01-3.01Z"/>
        <path class="cls-1" d="m553.05,92.66l.87,1.33c1.02-.75,2.48.68,2.89,1.67l-3,1.51-.76-4.51Z"/>
        <polygon class="cls-1" points="675.86 6.03 651.56 14.5 623.12 25.6 655.33 12.24 675.86 6.03"/>
        <path class="cls-1" d="m608.8,39.92l-.76,3.76h-1.49c-.3-1.73.67-3.14,2.25-3.76Z"/>
        <path class="cls-1" d="m541.74,77.59l-1.51,3.76,2.26.75-3.76.76c-.44-.46,1.78-5.1,3-5.27Z"/>
        <path class="cls-1" d="m624.62,34.65c-.08.82.19,1.88-.03,2.6-.8,2.66-3.83-.65.03-2.6Z"/>
        <path class="cls-1" d="m614.07,39.17l-.76,3.01h-1.49c-.29-1.81.35-3.19,2.25-3.01Z"/>
        <polygon class="cls-1" points="580.92 77.59 579.04 80.6 577.17 79.08 580.92 77.59"/>
        <polygon class="cls-1" points="705.25 78.34 708.26 78.35 707.4 80.49 705.25 80.6 705.25 78.34"/>
        <path class="cls-1" d="m583.18,48.96c.28,1.7-.67,3.16-2.25,3.77-.28-1.7.67-3.16,2.25-3.77Z"/>
        <path class="cls-1" d="m603.53,42.19c-.74,1.26-.64,3.29-2.25,3.76-.19-1.87-.07-3.98,2.25-3.76Z"/>
        <path class="cls-1" d="m683.39,60.26v1.5c-1.43.12-2.85.14-3.76-1.13l3.76-.37Z"/>
        <polygon class="cls-1" points="571.88 48.97 539.49 64.77 554.8 56.36 571.88 48.97"/>
        <polygon class="cls-1" points="662.29 65.54 662.29 67.04 658.53 67.03 658.54 66.3 662.29 65.54"/>
        <path class="cls-1" d="m597.49,43.69c.08,1.4.22,3.31-1.49,3.77-.08-1.4-.22-3.31,1.49-3.77Z"/>
        <path class="cls-1" d="m620.86,26.37c-4.5,3.67-11.15,5.32-16.57,7.52l16.57-7.52Z"/>
        <path class="cls-1" d="m697.71,45.95c3.28-.44,1.88,4.05,0,3v-3Z"/>
        <path class="cls-1" d="m550.78,76.08l.77,2.25-3.01.76c-.71-.92,1.98-3.32,2.25-3.01Z"/>
        <path class="cls-1" d="m586.2,48.21h1.5c.3,3.89-3.03,3.71-1.5,0Z"/>
        <polygon class="cls-1" points="543.26 88.89 546.26 88.89 545.51 91.14 543.63 90.4 543.26 88.89"/>
        <path class="cls-1" d="m774.56,28.63v1.5s-3.76,0-3.76,0c.45-1.7,2.33-1.61,3.76-1.5Z"/>
        <path class="cls-1" d="m618.59,36.91c.08,1.4.22,3.31-1.49,3.77-.08-1.4-.22-3.31,1.49-3.77Z"/>
        <polygon class="cls-1" points="538.73 64.79 526.68 70.05 533.69 66.15 538.73 64.79"/>
        <polygon class="cls-1" points="639.69 61.78 638.55 63.27 637.44 63.27 636.68 61.02 639.69 61.78"/>
        <path class="cls-1" d="m508.59,76.84l-11.29,3.75c-.18-1.1,1.31-1,2.1-1.27,2.94-.99,6.13-1.95,9.19-2.48Z"/>
        <polygon class="cls-1" points="736.14 45.2 737.64 45.2 737.64 48.2 736.14 48.21 736.14 45.2"/>
        <rect class="cls-1" x="694.7" y=".76" width="5.27" height=".74"/>
        <polygon class="cls-1" points="523.66 71.57 517.27 74.59 509.35 76.83 523.66 71.57"/>
        <path class="cls-1" d="m470.93,110.73l1.12,1.5,1.51-1.5.75,1.51c.3-2.1,3.97-2.54,3.38,0-2.48-.94-6.26,3.07-6.77-1.5Z"/>
        <path class="cls-1" d="m514.63,86.63l3.76,1.13c-.99,1.6-2.2.3-3.77.37v-1.5Z"/>
        <path class="cls-1" d="m680.39,24.86h.74s-.11,2.52-.11,2.52c-.45,1-1.06,1.46-2.15,1.24l1.52-3.75Z"/>
        <polygon class="cls-1" points="522.16 94.91 524.41 94.91 523.65 97.92 522.92 97.92 522.16 94.91"/>
        <polygon class="cls-1" points="574.15 79.1 575.65 79.1 574.89 82.11 573.41 80.98 574.15 79.1"/>
        <polygon class="cls-1" points="684.16 58.76 686.41 59.88 685.27 61.01 684.15 61.01 684.16 58.76"/>
        <polygon class="cls-1" points="554.56 88.13 556.81 89.26 555.67 90.39 554.56 90.39 554.56 88.13"/>
        <path class="cls-1" d="m564.34,82.87c.96.45-2.72,1.84-3.76,1.49-.96-.45,2.72-1.84,3.76-1.49Z"/>
        <path class="cls-1" d="m540.23,89.64v3.76s-.74,0-.74,0c-.04-1.6-1.34-3.2.74-3.76Z"/>
        <polygon class="cls-1" points="517.64 96.42 518.75 96.43 519.89 97.92 517.64 98.68 517.64 96.42"/>
        <path class="cls-1" d="m730.87,46.7c.61.36,3.73,1.92,3,2.25-1.72.27-3.21-.31-3-2.25Z"/>
        <polygon class="cls-1" points="499.55 103.2 499.55 104.7 496.54 103.94 496.54 103.21 499.55 103.2"/>
        <polygon class="cls-1" points="593.73 38.42 584.21 43.58 574.9 47.45 593.73 38.42"/>
        <polygon class="cls-1" points="507.85 88.89 508.51 92.3 506.34 92.65 507.85 88.89"/>
        <polygon class="cls-1" points="586.21 96.42 587.7 96.79 586.94 98.68 585.45 98.67 586.21 96.42"/>
        <path class="cls-1" d="m742.91,10.56c.11.11-.04.49,0,.74-1.34.2-2.64-.04-3.01-1.49.59-.08,2.84.58,3.01.76Z"/>
        <path class="cls-1" d="m502.56,123.54c.78.36-2.03,1.8-3.01,1.49.37-1.45,1.67-1.7,3.01-1.49Z"/>
        <path class="cls-1" d="m577.9,98.68c.31.98-1.13,3.79-1.49,3.01-.2-1.34.04-2.64,1.49-3.01Z"/>
        <path class="cls-1" d="m767.78,29.38l-2.25,2.25c-.26-1.37.83-2.5,2.25-2.25Z"/>
        <polygon class="cls-1" points="626.14 75.33 628.39 75.33 628.39 76.07 626.14 76.83 626.14 75.33"/>
        <path class="cls-1" d="m620.86,76.84c.37.29-1.32,1.99-2.26,1.49-.37-.29,1.32-1.99,2.26-1.49Z"/>
        <polygon class="cls-1" points="616.35 66.29 618.59 67.05 618.59 67.79 616.34 67.79 616.35 66.29"/>
        <path class="cls-1" d="m727.86,47.46c.29-.37,1.99,1.32,1.49,2.26-.29.37-1.99-1.32-1.49-2.26Z"/>
        <polygon class="cls-1" points="495.02 114.5 495.03 116 492.77 116 492.78 115.26 495.02 114.5"/>
        <polygon class="cls-1" points="495.03 104.71 495.02 106.96 494.29 106.96 493.52 104.71 495.03 104.71"/>
        <polygon class="cls-1" points="487.49 106.21 487.49 107.71 485.24 107.71 485.24 106.97 487.49 106.21"/>
        <path class="cls-1" d="m733.87,35.4c.5.94-1.21,2.63-1.49,2.26-.5-.94,1.21-2.63,1.49-2.26Z"/>
        <polygon class="cls-1" points="593.73 73.82 593.73 75.32 591.48 75.32 591.48 74.58 593.73 73.82"/>
        <rect class="cls-1" x="638.95" y="64.79" width="1.5" height="1.5"/>
        <rect class="cls-1" x="641.21" y="70.81" width="1.5" height="1.5"/>
        <path class="cls-1" d="m738.41,45.2c.29-.37,1.99,1.32,1.49,2.26-.29.37-1.99-1.32-1.49-2.26Z"/>
        <polygon class="cls-1" points="479.9 112.95 479.21 110.74 480.7 112.64 478.46 113.74 479.9 112.95"/>
        <path class="cls-1" d="m646.48,69.3c.29-.37,1.99,1.32,1.49,2.26-.29.37-1.99-1.32-1.49-2.26Z"/>
        <path class="cls-1" d="m652.5,84.37c.37.29-1.32,1.99-2.26,1.49-.37-.29,1.32-1.99,2.26-1.49Z"/>
        <polygon class="cls-1" points="508.6 123.54 510.1 123.54 509.34 125.79 508.6 125.79 508.6 123.54"/>
        <rect class="cls-1" x="653.26" y="64.79" width="1.5" height="1.5"/>
        <path class="cls-1" d="m742.17,44.45c2.29-.61,3.44-1.98,3,1.49h-3s0-1.49,0-1.49Z"/>
        <path class="cls-1" d="m513.86,100.19v.74c-1.24.59-5.56-1.02-4.51-1.49l4.51.76Z"/>
        <path class="cls-1" d="m662.3,81.36c.37.29-1.32,1.99-2.26,1.49-.37-.29,1.32-1.99,2.26-1.49Z"/>
        <rect class="cls-1" x="665.32" y="86.63" width="1.5" height="1.5"/>
        <rect class="cls-1" x="513.12" y="89.65" width="3.01" height=".74"/>
        <polygon class="cls-1" points="669.84 51.22 671.32 52.35 670.21 53.48 669.84 51.22"/>
        <path class="cls-1" d="m768.53,17.33c.17,1.4-1.52.56-2.3.41-1.25-.23-4.63-.77-5.23-1.92l7.53,1.51Z"/>
        <polygon class="cls-1" points="675.11 61.02 675.85 61.02 676.61 63.27 675.11 63.27 675.11 61.02"/>
        <rect class="cls-1" x="675.11" y="28.63" width="1.5" height="1.5"/>
        <polygon class="cls-1" points="760.24 15.07 757.95 15.49 751.96 13.57 760.24 15.07"/>
        <rect class="cls-1" x="680.39" y="14.32" width="1.5" height="1.5"/>
        <rect class="cls-1" x="553.05" y="86.63" width=".74" height="3.01"/>
        <path class="cls-1" d="m709.02,65.53c.29-.37,1.99,1.32,1.49,2.26-.29.37-1.99-1.32-1.49-2.26Z"/>
        <polygon class="cls-1" points="716.55 40.68 718.05 40.68 717.29 42.93 716.56 42.93 716.55 40.68"/>
        <polygon class="cls-1" points="779.08 20.35 779.08 21.08 778.04 21.02 774.57 20.33 774.57 19.59 779.08 20.35"/>
        <path class="cls-1" d="m773.05,18.84c1.29,1.02-3.14.18-3.76-.02v-.74c.4-.19,3.43.5,3.76.76Z"/>
        <polygon class="cls-1" points="761.76 30.13 763.26 30.5 761.76 31.64 761.76 30.13"/>
        <path class="cls-1" d="m747.45,34.65l2.81-.32,2.45-1.93c1.01,2.57-7.57,5.05-5.26,2.25Z"/>
        <rect class="cls-1" x="728.61" y="58.76" width=".74" height="2.25"/>
        <rect class="cls-1" x="711.28" y="51.98" width="2.25" height=".74"/>
        <rect class="cls-1" x="481.48" y="109.23" width=".74" height="2.25"/>
        <polygon class="cls-1" points="702.23 67.8 702.22 69.3 700.73 68.17 702.23 67.8"/>
        <rect class="cls-1" x="694.7" y="70.81" width=".74" height="2.25"/>
        <rect class="cls-1" x="693.2" y="56.5" width=".74" height="2.25"/>
        <polygon class="cls-1" points="488.25 106.22 489.75 106.58 488.26 107.72 488.25 106.22"/>
        <polygon class="cls-1" points="678.13 61.02 679.63 62.51 678.13 62.52 678.13 61.02"/>
        <polygon class="cls-1" points="674.35 79.1 674.35 80.6 672.85 79.47 674.35 79.1"/>
        <path class="cls-1" d="m668.76,63.72c.49-.43.13-1.42.69-1.2l1.13,1.49-3.01.76v-.73c.44.08.85-.03,1.18-.32Z"/>
        <polygon class="cls-1" points="663.81 64.79 665.31 65.15 663.81 66.29 663.81 64.79"/>
        <rect class="cls-1" x="658.54" y="73.82" width=".74" height="2.25"/>
        <rect class="cls-1" x="654.02" y="59.51" width=".74" height="2.25"/>
        <polygon class="cls-1" points="654.01 67.8 655.51 68.17 654.02 69.3 654.01 67.8"/>
        <polygon class="cls-1" points="651.74 68.55 651.75 70.05 650.24 70.05 651.74 68.55"/>
        <polygon class="cls-1" points="646.48 84.37 647.98 85.87 646.48 85.87 646.48 84.37"/>
        <polygon class="cls-1" points="504.08 100.94 505.58 102.44 504.08 102.44 504.08 100.94"/>
        <polygon class="cls-1" points="507.84 100.94 507.83 102.44 506.34 101.31 507.84 100.94"/>
        <rect class="cls-1" x="638.2" y="69.3" width=".74" height="2.25"/>
        <polygon class="cls-1" points="634.42 81.36 635.92 81.73 634.43 82.86 634.42 81.36"/>
        <polygon class="cls-1" points="629.15 63.28 630.65 63.65 629.15 64.78 629.15 63.28"/>
        <polygon class="cls-1" points="618.59 100.19 618.59 101.69 617.09 100.56 618.59 100.19"/>
        <rect class="cls-1" x="614.08" y="69.31" width="2.25" height=".74"/>
        <polygon class="cls-1" points="612.56 79.09 612.57 80.6 611.06 80.59 612.56 79.09"/>
        <polygon class="cls-1" points="611.81 67.79 611.81 69.3 610.31 69.29 611.81 67.79"/>
        <polygon class="cls-1" points="520.64 106.21 520.64 107.71 519.14 107.71 520.64 106.21"/>
        <path class="cls-1" d="m592.98,85.13c.11-.14,1.8-.21,2.51-.72s.09-1.81,1.25-1.54l-3.39,3.76-.37-1.49Z"/>
        <rect class="cls-1" x="589.22" y="85.88" width="2.25" height=".74"/>
        <rect class="cls-1" x="585.45" y="76.09" width="2.25" height=".74"/>
        <polygon class="cls-1" points="580.16 97.17 580.17 98.67 578.66 98.67 580.16 97.17"/>
        <polygon class="cls-1" points="556.06 103.96 556.05 105.46 554.56 104.32 556.06 103.96"/>
        <polygon class="cls-1" points="550.78 124.29 550.78 125.79 549.28 125.79 550.78 124.29"/>
        <rect class="cls-1" x="544.77" y="98.68" width=".74" height="2.25"/>
        <rect class="cls-1" x="539.49" y="99.44" width=".74" height="2.25"/>
        <rect class="cls-1" x="537.23" y="123.54" width="1.5" height=".74"/>
        <path class="cls-1" d="m546.28,76.09c1.66.01-.68,4.62-1.51,4.51l1.51-4.51Z"/>
        <rect class="cls-1" x="546.27" y="119.77" width=".74" height="1.5"/>
        <rect class="cls-1" x="532.71" y="93.41" width=".74" height="1.5"/>
        <rect class="cls-1" x="549.29" y="104.71" width=".74" height="1.5"/>
        <rect class="cls-1" x="553.05" y="90.4" width=".74" height="1.5"/>
        <rect class="cls-1" x="557.58" y="124.29" width=".74" height="1.5"/>
        <rect class="cls-1" x="558.33" y="122.03" width=".74" height="1.5"/>
        <rect class="cls-1" x="529.7" y="102.45" width=".74" height="1.5"/>
        <rect class="cls-1" x="559.83" y="121.28" width="1.5" height=".74"/>
        <rect class="cls-1" x="559.83" y="103.21" width="1.5" height=".74"/>
        <rect class="cls-1" x="564.36" y="125.8" width=".74" height="1.5"/>
        <rect class="cls-1" x="567.37" y="91.9" width=".74" height="1.5"/>
        <rect class="cls-1" x="568.88" y="82.11" width=".74" height="1.5"/>
        <rect class="cls-1" x="527.44" y="94.92" width=".74" height="1.5"/>
        <rect class="cls-1" x="581.68" y="78.35" width="1.5" height=".74"/>
        <rect class="cls-1" x="582.44" y="97.18" width="1.5" height=".74"/>
        <rect class="cls-1" x="582.44" y="88.14" width=".74" height="1.5"/>
        <rect class="cls-1" x="525.18" y="112.24" width=".74" height="1.5"/>
        <rect class="cls-1" x="595.25" y="91.15" width=".74" height="1.5"/>
        <rect class="cls-1" x="596" y="73.07" width="1.5" height=".74"/>
        <rect class="cls-1" x="597.51" y="92.66" width=".74" height="1.5"/>
        <rect class="cls-1" x="518.4" y="114.5" width=".74" height="1.5"/>
        <rect class="cls-1" x="601.28" y="82.11" width=".74" height="1.5"/>
        <rect class="cls-1" x="516.88" y="85.13" width="1.5" height=".74"/>
        <rect class="cls-1" x="516.89" y="99.44" width=".74" height="1.5"/>
        <rect class="cls-1" x="515.38" y="97.18" width=".74" height="1.5"/>
        <rect class="cls-1" x="605.04" y="88.89" width="1.5" height=".74"/>
        <rect class="cls-1" x="608.06" y="79.1" width=".74" height="1.5"/>
        <path class="cls-1" d="m619.35,85.13c.85.39-2.08,1.67-3,1.49-.85-.39,2.08-1.67,3-1.49Z"/>
        <rect class="cls-1" x="617.09" y="87.39" width="1.5" height=".74"/>
        <rect class="cls-1" x="510.86" y="88.89" width=".74" height="1.5"/>
        <rect class="cls-1" x="623.12" y="84.37" width="1.5" height=".74"/>
        <rect class="cls-1" x="623.88" y="86.63" width=".74" height="1.5"/>
        <rect class="cls-1" x="510.86" y="123.54" width=".74" height="1.5"/>
        <rect class="cls-1" x="631.41" y="62.53" width=".74" height="1.5"/>
        <rect class="cls-1" x="632.17" y="73.82" width=".74" height="1.5"/>
        <rect class="cls-1" x="633.67" y="62.53" width=".74" height="1.5"/>
        <rect class="cls-1" x="636.69" y="85.88" width=".74" height="1.5"/>
        <rect class="cls-1" x="639.7" y="68.55" width=".74" height="1.5"/>
        <rect class="cls-1" x="504.08" y="110.73" width=".74" height="1.5"/>
        <rect class="cls-1" x="645.73" y="59.51" width=".74" height="1.5"/>
        <rect class="cls-1" x="647.23" y="59.52" width="1.5" height=".74"/>
        <rect class="cls-1" x="501.82" y="101.7" width=".74" height="1.5"/>
        <rect class="cls-1" x="653.26" y="84.37" width="1.5" height=".74"/>
        <rect class="cls-1" x="500.31" y="103.2" width=".74" height="1.5"/>
        <path class="cls-1" d="m501.81,113c.1.1-.04.49,0,.74-1.14-.2-3.21-.4-3-1.49.25-.12,2.89.65,3,.76Z"/>
        <rect class="cls-1" x="498.05" y="123.54" width=".74" height="1.5"/>
        <rect class="cls-1" x="659.29" y="87.38" width=".74" height="1.5"/>
        <rect class="cls-1" x="659.29" y="57.26" width="1.5" height=".74"/>
        <rect class="cls-1" x="664.57" y="82.11" width=".74" height="1.5"/>
        <rect class="cls-1" x="664.57" y="55.75" width=".74" height="1.5"/>
        <rect class="cls-1" x="671.35" y="28.63" width=".74" height="1.5"/>
        <rect class="cls-1" x="490.51" y="106.22" width="1.5" height=".74"/>
        <rect class="cls-1" x="672.85" y="62.53" width="1.5" height=".74"/>
        <rect class="cls-1" x="673.61" y="29.38" width=".74" height="1.5"/>
        <rect class="cls-1" x="674.36" y="73.82" width=".74" height="1.5"/>
        <rect class="cls-1" x="676.62" y="76.84" width=".74" height="1.5"/>
        <rect class="cls-1" x="676.62" y="5.28" width="1.5" height=".74"/>
        <rect class="cls-1" x="677.38" y="70.81" width=".74" height="1.5"/>
        <rect class="cls-1" x="677.38" y="27.87" width=".74" height="1.5"/>
        <rect class="cls-1" x="678.13" y="58.01" width=".74" height="1.5"/>
        <rect class="cls-1" x="681.14" y="22.6" width=".74" height="1.5"/>
        <rect class="cls-1" x="688.68" y="74.58" width=".74" height="1.5"/>
        <rect class="cls-1" x="690.94" y="57.25" width=".74" height="1.5"/>
        <rect class="cls-1" x="693.95" y="44.45" width=".74" height="1.5"/>
        <rect class="cls-1" x="485.24" y="124.29" width=".74" height="1.5"/>
        <rect class="cls-1" x="696.21" y="44.45" width=".74" height="1.5"/>
        <rect class="cls-1" x="698.47" y="43.69" width=".74" height="1.5"/>
        <rect class="cls-1" x="702.24" y="43.69" width=".74" height="1.5"/>
        <rect class="cls-1" x="703.75" y="42.19" width=".74" height="1.5"/>
        <rect class="cls-1" x="708.27" y="52.73" width=".74" height="1.5"/>
        <rect class="cls-1" x="708.27" y="42.94" width=".74" height="1.5"/>
        <rect class="cls-1" x="712.79" y="48.21" width=".74" height="1.5"/>
        <rect class="cls-1" x="712.79" y="45.95" width=".74" height="1.5"/>
        <rect class="cls-1" x="716.55" y="50.48" width="1.5" height=".74"/>
        <rect class="cls-1" x="719.57" y="38.42" width=".74" height="1.5"/>
        <rect class="cls-1" x="720.32" y="45.2" width=".74" height="1.5"/>
        <rect class="cls-1" x="724.84" y="40.68" width="1.5" height=".74"/>
        <rect class="cls-1" x="726.35" y="59.51" width=".74" height="1.5"/>
        <rect class="cls-1" x="731.62" y="64.79" width=".74" height="1.5"/>
        <rect class="cls-1" x="735.39" y="58.01" width=".74" height="1.5"/>
        <rect class="cls-1" x="742.17" y="33.9" width="1.5" height=".74"/>
        <rect class="cls-1" x="745.94" y="33.15" width=".74" height="1.5"/>
        <rect class="cls-1" x="747.45" y="32.39" width=".74" height="1.5"/>
        <rect class="cls-1" x="761.01" y="32.39" width=".74" height="1.5"/>
        <rect class="cls-1" x="761.76" y="37.67" width=".74" height="1.5"/>
        <rect class="cls-1" x="763.27" y="32.4" width="1.5" height=".74"/>
        <rect class="cls-1" x="779.84" y="21.1" width="1.5" height=".74"/>
        <path class="cls-1" d="m704.98,109.69c.69-.38,2.24-2.2,2.52-2.39,1.03-.69,2.65,1.5,2.28-1.08l1.12,1.51c.51-2.44,2.61-2.16,1.24-.12,3.06.56,1.02,2.99,2.14,5.38l-.87-1.33c-1.06,1.06-3.3-2.25-4.31-1.6-.52.33-1.33,4.75-2.73.68-1.35.63-.86,3.84-2.89,3.68-.79-.06-3.02-1.42-2.76-2.54.36-1.51,2.98-1.48,4.26-2.19Z"/>
        <path class="cls-1" d="m580.93,108.47h5.27s-1.5-2.25-1.5-2.25c1.64-.45,2.62,1.23,3.98,1.3,2.63.13,5.88-2.42,8.84-2.05l-.77,1.49c1.35.42,1.73-1.06,2.84-1.38,1.17-.34,2.56.57,3.25.26,1.19-.54,1.15-3.41,4.46-2.64.48,2.84-4.83,3.07-5.27,4.14l1.5,1.12h-3.77s.37-1.51.37-1.51c-1.69.93-5.26-.1-4.9,2.26-1.27.31-.48-1.05-.84-1.33-1.58-1.24-11.63,2.85-12.35,2.75-.65-.08-1.37-1.4-1.11-2.17Z"/>
        <path class="cls-1" d="m629.9,100.19c-1.23-.37-3.39-3.02-4.51-.01l1.49,2.27-1.12-1.5c-1.15,1.51-.97,2.79-3.39,2.25,2.62-3.2,4.26-9.58,9.03-5.26l.75-1.5v3.76s2.27.75,2.27.75c-1.56.11-3.06-.3-4.52-.75l.75,2.26-2.25-.76v-1.49s1.51,0,1.51,0Z"/>
        <path class="cls-1" d="m667.39,93.82c.2-.09.04-.91.53-1.03.24-.06,1.27.63,2.09.46,1.92-.39,3.67-1.74,5.84-1.34-2.23,2.96-7.31,1.5-10.18,3.75-1.37-2.02,1.09-1.56,1.71-1.84Z"/>
        <path class="cls-1" d="m749.07,60.43c.16-.11,4.34-.45,3.64.95-2.21,1.69-2.29,2.76-5.26,2.64-.3-.48,1.42-3.45,1.63-3.6Z"/>
        <path class="cls-1" d="m782.86,28.62l2.25,3.01-1.49-1.5c-.03,1.75-.73,4.91-2.26,6.02l1.51-7.53Z"/>
        <path class="cls-1" d="m572.63,111.49l-3.76,2.25c-.29-3.25,1.23-3.26,3.76-2.25Z"/>
        <polygon class="cls-1" points="709.78 112.24 711.27 112.68 712.03 114.49 708.63 115.99 707.51 114.51 709.78 112.24"/>
        <path class="cls-1" d="m574.15,108.48l3,5.26c-2.58.11-2.86-3.44-3-5.26Z"/>
        <path class="cls-1" d="m663.05,94.16c1.4.15,1.74-.52,1.51,1.5l-3.77.75c.69-1.44,1.45-1.01,2.26-2.25-.48-.05-1.56.32-1.5-.37l2.26-1.13c.22.14-.52,1.15-.75,1.5Z"/>
        <path class="cls-1" d="m566.62,110.73h.74s.75,4.52.75,4.52c-1.91-.58-1.54-2.87-1.49-4.52Z"/>
        <path class="cls-1" d="m578.66,125.05c-.45,1.7-2.36,1.61-3.76,1.49-.93-.44,2.72-1.88,3.76-1.49Z"/>
        <path class="cls-1" d="m756.48,59.51v1.5s-3.01,0-3.01,0c.4-1.5,1.6-1.69,3.01-1.5Z"/>
        <path class="cls-1" d="m679.64,89.64l3.76.37c-.9,1.27-2.32,1.25-3.76,1.13v-1.5Z"/>
        <path class="cls-1" d="m684.91,87.38h.74l.74,1.88c-1.72,2.09-2.49.28-1.48-1.88Z"/>
        <path class="cls-1" d="m678.87,90.4v1.49s-2.25.76-2.25.76c-.26-1.37.83-2.5,2.25-2.26Z"/>
        <polygon class="cls-1" points="766.27 54.24 767.03 56.49 764.77 56.49 764.78 55.38 766.27 54.24"/>
        <polygon class="cls-1" points="651 96.41 652.42 97.06 653.25 95.67 653.25 97.92 651 97.92 651 96.41"/>
        <polygon class="cls-1" points="644.97 97.93 643.85 99.41 641.96 98.67 641.96 97.93 644.97 97.93"/>
        <polygon class="cls-1" points="690.92 87.39 689.41 89.14 687.17 88.51 690.92 87.39"/>
        <polygon class="cls-1" points="658.53 91.15 658.53 92.65 657.41 92.64 656.27 91.52 658.53 91.15"/>
        <path class="cls-1" d="m781.35,45.95c.29-.37,1.99,1.32,1.49,2.26-.29.37-1.99-1.32-1.49-2.26Z"/>
        <path class="cls-1" d="m638.93,100.94c.5.94-1.21,2.63-1.49,2.26-.5-.94,1.21-2.63,1.49-2.26Z"/>
        <polygon class="cls-1" points="577.17 109.23 577.9 109.23 577.91 111.48 576.4 111.48 577.17 109.23"/>
        <rect class="cls-1" x="769.3" y="51.23" width=".74" height="2.25"/>
        <polygon class="cls-1" points="761.76 54.24 763.26 54.24 763.26 57.24 762.52 57.24 761.76 54.24"/>
        <polygon class="cls-1" points="672.85 87.38 674.35 87.75 672.85 88.89 672.85 87.38"/>
        <polygon class="cls-1" points="658.52 95.67 658.53 97.17 657.02 97.16 658.52 95.67"/>
        <rect class="cls-1" x="563.6" y="111.49" width=".74" height="1.5"/>
        <rect class="cls-1" x="578.67" y="109.98" width=".74" height="1.5"/>
        <rect class="cls-1" x="582.44" y="106.97" width="1.5" height=".74"/>
        <rect class="cls-1" x="591.48" y="103.96" width="1.5" height=".74"/>
        <rect class="cls-1" x="607.3" y="106.22" width=".74" height="1.5"/>
        <rect class="cls-1" x="640.46" y="95.67" width=".74" height="1.5"/>
        <rect class="cls-1" x="642.72" y="92.66" width=".74" height="1.5"/>
        <rect class="cls-1" x="644.22" y="94.16" width=".74" height="1.5"/>
        <rect class="cls-1" x="645.73" y="97.93" width="1.5" height=".74"/>
        <rect class="cls-1" x="654.02" y="96.42" width=".74" height="1.5"/>
        <rect class="cls-1" x="657.03" y="93.41" width="1.5" height=".74"/>
        <rect class="cls-1" x="660.05" y="93.41" width=".74" height="1.5"/>
        <rect class="cls-1" x="699.98" y="80.61" width="1.5" height=".74"/>
        <rect class="cls-1" x="709.02" y="128.82" width="1.5" height=".74"/>
        <rect class="cls-1" x="712.03" y="119.78" width="1.5" height=".74"/>
        <rect class="cls-1" x="724.09" y="106.22" width=".74" height="1.5"/>
        <rect class="cls-1" x="738.41" y="97.18" width=".74" height="1.5"/>
        <rect class="cls-1" x="749.71" y="66.29" width=".74" height="1.5"/>
        <path class="cls-1" d="m767.79,51.98c.1-.1.49.04.74,0-.2,1.14-.4,3.21-1.49,3-.12-.25.65-2.89.76-3Z"/>
        <rect class="cls-1" x="768.54" y="48.97" width=".74" height="1.5"/>
        <rect class="cls-1" x="778.33" y="46.71" width="1.5" height=".74"/>
        <rect class="cls-1" x="787.38" y="30.89" width=".74" height="1.5"/>
        <path class="cls-1" d="m638.18,44.45c-.25,3.85-3.46,4.89-6.77,5.27-.63-2.27,6.15-5.89,6.77-5.27Z"/>
        <g>
          <path class="cls-1" d="m271.25,123.54l2.26,1.5c-1.08.43-1.8-.7-2.26-.75v-.75Z"/>
          <path class="cls-1" d="m266.73,124.29l.37,1.54c.47.56,1.84.62,1.9.72.2.34-.14,1.63,0,2.26l2.25-1.14-4.04,3.35c-.31-.04-.34-.64-.48-.7,1.7-.82,1.84-1,.75-2.26-.4-.46-1.43-.58-1.56-1.3-.24-1.33.72-1.97.81-2.47Z"/>
          <path class="cls-1" d="m271.25,124.29v1.5s-1.51-.75-1.51-.75c.1-.21-.1-.56,0-.75.5.03,1.01-.05,1.51,0Z"/>
          <path class="cls-1" d="m777.58,33.14c-.06-.59-.3-2.14.37-2.26l2.63,3.76-.76-6.03c-.31-.49-5.55,3.02-4.5.39,1.91-1.06,5.03-2.77,6.4-.39l.86-1.55c4.83.79,11.31-1.06,15.75,1.51,5.84,3.39,5.52,8.57,3.71,14.33-5.27,16.82-32.42,36.93-46.45,46.05-7.76,5.04-14.49,9.68-22.68,14.44-6.08,3.54-8.35,1.3-7.42,11.01l-9.4,3.82.45,4.54h-3.76s3.76,3.4,3.76,3.4l-3.76,1.88,3.76-.75,1.51,8.29c-2.27.54-.94-.44-1.07-1.23-.19-1.14-.25-5.28-1.58-5.54-2.52.1-1.72,2.52-3,3.75-2.16-.39-5.84-5.4-6.59-5.75-.8-.38-6.63.29-6.58-1.4,2.2-1.62,4.63-3.51,7.47-3.43l-.31-4.54c-.3-.51-3.63-.34-4.27-.23-11.8,1.95-29.71,9.82-42.1,13.47-16.05,4.73-32.33,8.8-48.44,13.34l-1.28.98,1.44,1.45-.69,1.92c3.68-.89,8.28,4.17,10.98,4.53s6.71-2.68,7.86-.01l-4.94,2.25.58,2.15,11.52,4.66c2.38.33-.24-4.97,3.39-4.53l-.76,6.77c5.16-1.4,3.03,5.48,6.03,4.15-2.38-3.89-3.16-8.78-1.87-13.19.36-1.24,2.97-5.61,2.62-6.02l-3.01-.75c1.43-1.3,3.58.84,3.75.74.09-.06-.17-1.1.36-1.34.24-.11,4.74-.27,5.32-.21,12.14,1.36,12.31,25.89,5.58,32.77-3.57,3.66-20.82,7.88-25.9,7.17-1.6-.22-2.67-1.51-4.48-1.45-5.16.19-12.61,4.18-18.88,2.96-1.59-.31-2.47-1.72-3.95-2.07-2.12-.51-4.76.13-7.01-.91l3.76-3.75-9.04-.77c.34-3.86,6.55-4.02,6.02-8.28l-19.2-3.02c-1.52.14-11.28,10.44-14,12.38-2.4,1.7-7.19,4.83-9.74,4.58,2.97-1.94,1.32-3.93,1.65-5.87.22-1.3,1.64-2.08,1.35-3.55l-13.04,8.99c-2.98,8.04-9.38-.33-12.58-1.84-4.96-2.34-9.64,9.04-3.8,10.15.32-2.45,2.71-3.13,4.92-3.04,8.64.33,7,16.83-2.07,14.98-1.14-.23-3.87-3.24-4.32-.99-.3,1.53,3.11,2.91,4.11,4.16,3.7,4.62,1.63,12.14-4.7,12.6-3.12.22-2.56-1.32-3.73-2.06-3.12-1.98-1.95.38-3.37.97-12.09,5.03-13.08-16.71-1.36-13.8,1.28-1.46-4.48-7.9-.73-12.41.55-.67,6.64-3.4,5.24-4.92-4.22,3.33-8.48,6.98-14.3,6.77l.73-9.79c-3.06,2.65-15.58,12.86-19.15,12.01s2.23-10.41,1.82-12.76c-1.06-.99-16.73,3.33-19.58.75l.4,4.56c-.66,1.3-14.3-.77-5.7,6.37-2.79,3.99-9.14.69-9.03,7.15,2.69.03,2.16-3.32,4.93-3.77,3.42-.56,5.09,1.15,6.75,3.78,1.44.36,1.47-2.17,3.31-2.69,12.95-3.65,9.56,22.95-2.94,11.73,0,7.88-7.09,10.52-10.93,3.02-2.28,2.81-4.26,6.17-8.33,3.8-6.83-3.96-2.91-19.91,5.69-13.6l-2.14-4.76c1.3-1.67,2.19-3.52,2.76-5.55.32-1.15,1.59-1.2-.24-2.48l-10.3,11.19-3.63-.66c.19,7.09-3.62,14.48-10.93,8.31-2.54,7.79-6.53,10.23-12.07,3.01h-1.1c-1.6,5.99-10.24,4.35-10.57-1.52-11.01,15.08-19.11-14.51-2.26-11.3l-4.98-7.59c-9.94,2.49-19.83,4.7-29.98,6.16-28.18,4.06-56.15-.62-84.51-.15l-.74-1.46c-.9.28-1.77.74-2.76.6-16.13-2.24-32.73-2.18-49.06-3.71l-1.22-1.09c1.48-3.29-1.1-3.63-1.55-7.06,2.12.1,4.87-.04,5.65,2.25l2.64-3.76c-1.85-.05-4.71,1-6.36.76-1.93-.27-2.76-3.16-5.97-2.31l-.48,1.53-1.23-1.52c-35.98-2.06-72.03-4.97-108.01-6.01-.6-2.57,2.28-1.1,3.97-1.67,10.29-3.44,19.34-2.7,30.27-2.88,5.19-.08,10.29.64,15.48.03.56-2.96-5.13-1.44-6.11-2.7l1.59-8.59-19.58-.76c.77-4.71,8.01-4.93,8.29-9.78l-3.76-.77,2.25-1.49-4.52.74.38-1.51c-2.57,1.24-6.92,2.31-4.9-1.5-6.01,1.42-13.07-.38-19.21-.75-31.72-1.91-63.23-4.76-94.92-6.79-6.08-.39-12.7-2.41-18.8-1.45-2.28.36-4.09,2.2-6.24,2.8-.71.2-2.67.74-2.46-.58,6.02-1.48,11.63-5.99,18.05-5.29l.03-2.26c4.22,1.78,3.05-.03,4.69-.99,4.13-2.4,6.33-2.31,11.13-2.02.13,1.6-1.07,4.08.34,5.27,1.33,1.13,11.53.34,14.36.39,16.87.26,35.12.55,52.87.62,1.09,0,1.52,1,3.08.8,3.86-.49,3.4-3.06,6.19-4.82l-1.5,4.52c6.86-.77,13.81-.89,20.63.05l.79-1.51c2.34,1.07,5.04,2.19,6.08-.8,1.22,3.93,3.62.08,4.53,3.05,6.1-2.36,13.53-.32,20.21-1.51l1.26-4.55h17.33c-.2,2.02-2.58,2.57-3.21,3.92-2.32,4.93,4.73,7.88,2.45,13.4l-2.5-4.53c.51-2.32-1.01-2.3-1.64.03-.53.2-.8-.04-1.16-.38-1.71-1.59.49-2.13-4.49-1.14l1.52,4.12-1.81,1.09.3,2.31c1.38.23.41-1.37.87-2.1.71-1.13,5.75-.68,4.4,2.11l3-1.51-.02,1.48c-1.17,1.26-2.71.83-2.84.94-.41.35-.56,1.55-1.22,2.14-2.5,2.26-9.92,7.46-9.51,10.86.21,1.77,2.63,2.31,1.91,4.92l2.64-.76c-2.05-2.03-.42-4.12-.75-6.77,1.96,1.16,2.35,4.13,1.51,6.02l.75-1.5c4.75,3.62,5.31-2.42,10.54-1.51.29-3.37-2.46-5.74-.75-9.03,1.28-.19.55,1.34,1.18,2.23.4.57,1.42.62,1.63.94.09.14-.15,1.78.96,2.84l.75-2.25c1.12.02,2.48,4.21,3.76,3.01,1.61-1.51-1.93-1.23-1.5-2.25,1.59.57,3.37-.59,3.02,1.49h.73c-.22-2.05,1.96-1.71,3.07-2.64.58-.48.06-1.47.25-1.67,1.06-1.11,4.55-3.14,4.74-3.55.44-.96-.69-6.49-.53-8.3,1-10.79,10.6-16.55,20.57-11.54,1.97.99,2.67,2.92,5.44,3.67,2.52.68,4.99-.8,7.5.73l.43-1.55,1.11,1.5c2.85-2.47,9.98,1.87,12.06-2.26.68-.01-.02,1.07.93,1.5,2.77,1.25,16.07-.94,20.17-1.1,2.43-.1,7.88,2.28,9.03-1.15l.73,1.43c4.71-.59,9.51-.03,14.25-.18,3.5-.11,8.6-1.17,12.11-1.21,2.16-.02,3.84,2.02,4.51-.72l2.61.59.45-1.42c.39,2.01,3.34,1.92,5.28,1.95,5.11.07,10.45-1.15,15.33-1.51,1.72-.13,8.47.54,9.41.22,2.06-.7.75-3.63,1.62-5.18,1.39-2.47,13.31-.96,16.21-1.5l-.36-1.49h-2.65s9.03-3.02,9.03-3.02c-.37,1.72-4.65,1.53-5.17,2.37-.42.67.22,2.29-.19,2.79-.3.38-4.25.28-5.05,2.89-1.33,4.35,2.97,6.65,4.04,9.63.59,1.63-1.39,3.78,1.08,3.42-.9,2.96-5.51-1.31-4.51,3l1.87-1.51,2.64,1.89-8.42,6.28c-4.75-1-9.7-.94-14.51-1.43-1.07-.11-2.03-.95-3.05-1.05-3.37-.31-6.84-.38-10.17.35-.14,1.09,1.98,1.36,2.7,1.43,7.32.76,14.81,1.27,22.16,1.58-1.89,2.76-6.27,8.08-1.51,10.16,5.1-3.67,4.68.26,9.04,1.88l-2.25-3.76c3.14,1.02,5.59-1.14,7.15-3.76l.38,2.27,2.25-.77-1.5-1.49h4.52s.74,1.5.74,1.5c-.87-1.61.09-3.75,0-4.82-.06-.7-2.39-.03-1.5-1.95,2.25-.14,3.07,1.41,4.14,3.01-.21-2.37,4-.85,3.39,0l-3.01.77,1.15,1.5,3.36-.76-1.5-4.51c1.96-.6,1.79,2.06,2.79,2.28,2.15.48,5.47-.84,7.76-.79l-.36-1.49c-2.81,2.12-2.66-.66-3.02-.78-3.05-1.01-.94,2-2.63,2.27l-.77-3.76-1.49,1.5c-.12-1.44-.22-3.3,1.49-3.76l.17,1.35,2.16-.26.71,1.91h1.49s.38-1.51.38-1.51l.38,2.27,4.15-3.02,1.51.76c-.58-5.18-2.09-11.26.33-16.24,3.04-6.26,10.96-8.05,16.83-4.7,1.79,1.02,1.98,2.72,3.25,3.53,2.73,1.73,8.62.19,11.99.15,17.99-.2,35.94-.04,53.87-1.19,2.12-1.25.36-7.03,4.91-7.9,4.96-.95,4.33,2.26,5.97,2.3,2.21.06,4.58-.68,4.57-3.09,2.76-.24,3.89,2.7,4.72,3.01,2.98,1.1,14.87.32,18.7.11,2.32-.13,3.08,1.88,4.45-1.61.79,3.09,5.09,1.01,7.56,1.12.59.02,1.26,1.14,2.23,1.18.2,0,1.66-2.12,3.03-2.27l1.14,2.24.81-1.42,2.88.74c1.36,1.51-4.14,7.45-5.46,8.72-.84.8-3.85,1.41-3.13,2.53,2.82-.56,5.76-2.93,7.52-5.27,1.65,1.21,1.79,1.85,1.14,3.75.7-.69,7.93-1.06,6.78-2.25l-2.26-1.51c1.76-.07,4.11.85,3.77-1.5l1.86.94.4,1.31.75-2.26,3.76.76-1.5-3.01,3.75,2.26,1.5-3.01,1.51,2.25.15-1.29c1.9,1.15,2.68-2.33,2.89-3.98l2.22.8-.73,1.46c3.47-.83,6.18-1.03,8.68-3.76l1.11,1.5,1.14-3-.38,2.25h2.26s.07-2.17.07-2.17l4.46-.85c.36-1.96-.3-1.16-1.07-1.56-5.09-2.65-10.86-3.41-16.26-5.21,1.2-2.34,3.87-2.75,6.02-1.5v-2.26c-.38-.45-7.29,2.65-9.41,2.08-.46-.12-.31-1.19-.88-1.31-2.73-.57-6.31-.36-9.29-1.53-.52-3.57,1.84-2.53,3.94-3.21.81-.26,1.77-1.49,2.07-1.3.15.09.36,2.3,2.27,2.25l-.75-2.25,2.25.75-.75-2.25c.22-.2,3.78.71,4.77.51.84-.17,1.61-1.51,2-1.26.1.06-.16,1.14.37,1.35.33.13,6.02-.92,7.02-1.12,2.99-.59,2.58-.35,4.74-.57,1.78-.18,3.82-6.6,5.27.31l7.17-2.19c-1.34-3.72.69-3.37,1.83-6.07,1.69.27-.41,3.29,2.63,2.27.26-.09.27-1.34.85-1.49,1.3-.33,3.9,1.34,5.54-.79l-.47,2.34c-1.89.12-4.16.44-4.03,2.94,1.86-1.02,3.4-1.02,5.26,0l-.43-3.01,2.69-1.5-1.5,3.76c.92.06,2.06-.32,2.88.19.43.26-.35,1.64.88,1.32l-.79-5.56,3.05-1.97c1.09,2.79-2.8,2.5-2.25,4.13.53,1.55,3.64.42,4.51,0,1.94-.92-.96-1.2-1.18-2.59l1.57-2.29,1.23,4.42,2.91.1c-.19,2.38-2.54,1.7-2.26,4.51l6.03-.75-3.76-.75.76-3,1.12,2.26h2.63s.76-2.26.76-2.26l-.75,3.76,6.02-.75c.72-2.13-1.72-1.3-2.11-2.69-.05-.17-.14-3.44-.1-3.62.06-.3,2.56-1.08,1.47-3.48l3.01.76c.17.14-1.17,1.78-1.51,2.25s-1.87.64-1.53,1.88l2.27,2.63c-.07-.97.14-2.05,0-3.01l3.01-1.52-1.49-1.49,2.3.41.72-1.92,2.24,2.26c.15-.74-.7-3.68,1.13-3,2.9,1.08-.16,1.3-.36,2.24l2.62,2.28,1.89-.77-1.5-3c3.1,1.25,1.96,3.75,1.93,6.28-.01,1.05-1.4,1.43,1.08,1.25v-3.77s3.01-.74,3.01-.74c-1.89.85-4.57-2.88-3.76-3.77,1.45-1.6,1.26,2.64,3.01,1.5l-.37-2.26,1.51-.02,1.11,1.53c-.08-2.55,1.87-1.56,2.12-1.74.98-.71.82-3.64,2.41-.53l-1.51.37.82,1.84,1.36-.57.83,1.38,1.9-4.51-.38,3.01,2.97-.02.04-2.24,3.3.81c.8-2.7,3.36-.7,5.75-1.55l-.77,1.49h1.5s1.15-2.25,1.15-2.25l1.5,1.51.37-1.51h3.02s0,1.5,0,1.5l1.5-1.13-1.5-.37.76-2.25.75,1.5,4.14-2.77c.48.65,2.54,1.15,2.64,1.26.14.15-.11,1.08,0,1.51l1.5-1.14-1.5-.37c-.53-1.61.85-2.03,1.88-1.51s.65,2.4,1.88,2.26l-.37-3.77,2.64,3.01-.75-3.76c.68.3,4.21.71,4.4.59.59-.39.83-3.47,3.14-1.71.38,2.08-1.25.09-1.89,1.12-.89,1.43,2.44,1.82,3.39,1.5l.02-2.25,2.18.74,1.59-3.74.74,4.51c.39-2.68.95-4.54,3.73-4.51l.79,2.25.36-2.88,4.16-.88-1.51,1.88,1.53.85c.75,4-1.78,2.31-3.78,3.06s-4.72,2-5.66,4l.38-.76-1.13-1.48c-.91,0-3.28,4.26-1.14,4.5l.37-1.34c3.47,1.51,5.57-3.17,6.52-3.87.49-.36,2.19.82,3.2.75.51-.04.43-1.36,1.4-1.78,2.84-1.22,8.3-2.1,10.69-3.47.83-.48.28-1.26.43-1.58.5.02,1.01,0,1.5,0v-2.26c-1.41.13-1.15,1.55-1.5,2.26-1.98-.1-3.92-1.21-4.89,1.5l-1.13-3.76,2.24,1.5c1.45-3.4,4.44-5.79,8.3-3.76-.4,2.33-1.09,1.19-2.26,3.01,3.14.52,10.34-1.24,11.39-4.44l2.93.69v-2.26s1.13,1.5,1.13,1.5c.3-1.16,7.18-2.92,5.66-4.52.39.4.73.92.77,1.5h.73c.5-3.03,5.76-3.93,8.29-3.01l-3-4.88,6.4-4.15,1.12,1.5v-2.27s2.21.72,2.21.72l.81-1.46.12,2.88,2.75.75,2.41-2.88-2.67.08-.72,2.17c-3.56-3,3.43-5.62,5.28-7.53l.36,1.68c-.19.98,2.17.64,2.26.57,1.54-1.17-2.61-2.17-2.25-3l2.28.34.83-2.51,4.1.57c.89-2.43,3.28-2.21,5.6-2.16l-.76,3.75c.48-4.99,4.44-5.14,8.58-6.02l1.22,1.5c-.6-4.58,8.28-2.99,7.54-7.52-7.03,1-14.48,1.36-21.47,2.65-.8.15-1.5,1.33-1.87,1.1-.09-.06.08-1.06-.17-1.2-.56-.32-1.86.64-2.1-1.03,2.5-.09,3.26-.2,5.27-1.53-2.06-2.28-2.95-8.06,1.51-7.51l-1.5.74.2,5.88c.3.35,1.05.06,1.3.15-.2.37-.99,1.35-.75,1.5l2.26-1.13c.06-.76-1.1-.22-1.5-.37.29-.54,1.68-3.07,1.88-3.02l.45,1.45,2.55-.69,1.89,2.26c.19-.62-1.42-4.14-1.63-4.37-.4-.45-1.26-.04-1.38-.15.09.92,2.06,1.73-.74,1.5l-1.51-3.76c1,.47,1.31,1.39,2.25,2.26ZM155.97,153.67l-3,.76v.74s3.01,0,3.01,0v-1.5Zm0-3.76h-1.5v.74h1.5v-.74Zm2.33,1.55l.31,1.45,2.18-1.47-.3-2.28c-1.56.08.07,2.65-2.19,2.31Zm3.7,3.71c1.65-1.1,1.05-2.67,3-2.26l2.28,5.27,3-1.51c.18-1.37-1.54-.52-2.45-.92-2.77-1.22-3.03-4.78.19-3.59-.05-6.05-2.78-5.51-2.24,0-2.17-.77-3.58,1.17-4.53,1.51-.13.05-1.41-1.33-2.25.38l2.01,1.81c.86.24.83-.57.98-.68Zm1.5-6.02h-1.5s.76,2.25.76,2.25h.74s0-2.25,0-2.25Zm2.26,7.54h-2.25v.74h2.25v-.74Zm2.27-12.06v1.5h.74v-1.5h-.74Zm3.01,7.53l2.25,3.01.76-3.01-1.88,1.51-1.12-1.51Zm68.55,18.83l-3.38-3.02c-4.78-.04-9.57.04-14.35.04-1.36,0-2.7-.72-3.77-.69-2.55.08-12.91,5.82-18.24,6.48-5.92.73-10.66-1.9-16,1.32.8,1.33,1.63.75,2.63.83,5.95.48,14.74-.71,21.1-.78s15,.97,21.1.4c1.85-.17,2.24-1.19,3.76-1.58l-.38,1.51,7.21.51c2.96-1.81.82-4.78,1.84-7.27l-1.52,2.25Zm-42.19-5.26h-2.25v.74h2.25v-.74Zm-1.5-4.53c-.2,1.4,0,2.61,1.49,3.01.2-1.4,0-2.61-1.49-3.01Zm9.03.75c-.11-.23.23-.93-.11-1.37l-2.9-.88c.31,1.35,2.19,1.86,3.01,2.25.11.22-.23.91.12,1.36.91,1.16,7.84,2.9,9.67,2.39-.59-2.04-2.34-.61-3.77-1.04-.9-.27-1.56-1.31-2.33-1.58-1.31-.46-1.9-.27-3.7-1.14Zm18.09-2.26v1.5s1.5-1.13,1.5-1.13l-1.5-.37Zm2.26-5.28l-.76,3.76c1.34,1.3,3.48-3.14.76-3.76Zm2.25-6.02h-1.5v.74h1.5v-.74Zm-.74,2.25c-1.01,5.13,2.98,5.51,6.77,4.51l-.36-1.48-5.67.74.48-2.32,4.79-.69-6.02-.76Zm7.54,0v1.5h.74v-1.5h-.74Zm14.68,3.76c-4.64-.08-9.3.06-13.94,0,.12,1.22,3.24,1.42,4.15,1.5,1.59.13,14.94.62,15.43,0-1.06-2.6-4.06-1.47-5.65-1.5Zm-8.67-3.01h-3.76v.74h3.76v-.74Zm0,42.18l-1.5.37,1.5,1.13v-1.5Zm-.74-3.77v1.5h.74v-1.5h-.74Zm1.51,0v2.25h.74v-2.25h-.74Zm2.25-21.09h-1.5v.74h1.5v-.74Zm-.74,18.82l.75,4.53h1.49c-.54-2.79,5.08,1.08,3.78-3.76l2.64,1.5c.93-3.17,5.48.69,8.66-1.52v-1.5s-5.27,1.13-5.27,1.13l6.02-4.15c-1.3,4.99,2.7,7.48,2.27,12.05l-3.02.75c2.25-.12,3.48-.99,5.25.75-.27-2.56,2.63-1.34,3.41-1.68.4-.17.39-1.02.94-1.26,3.92-1.73,8.27-2.96,12.01-5.23l1.73,1.39-4.52,1.53c-1.33,3.09,4.98-.6,5.16-.88.43-.7.02-2.03.12-2.9l1.39.64,1.24-2.13,1.88,4.17,2.64-1.92,1.88,2.25-.75-5.27-3.39,3.01c-1.47-2.19,1.54-3.28,3.03-4.31l1.12.9.76-1.85.75,3.01,1.16-1.55,2.59.79-1.49-1.87c.49-.92,4.97-4.27,4.4-1.64-.3,1.39-1.81,3.17.86,2.76v-3.76s3.77.37,3.77.37l-2.25-1.12,6.35-.03c1.81,4.34,1.46-1.69,3.84.78l-.41,3.01c-2.85-1.79-3.8.01-6.77-.75l1.14,3.76-.39-.75c-.4-1.19,4.02-3.22,3.02.76l2.25-1.51-.74,3.01,3.76-2.26c.18-1.94-2.86,1.4-2.24-1.1.4-1.63,1.37-2.22,3.01-1.91-1.37-2.07-.03-1.08,1.13-2.25,1.18,1.13-1.01,1.95-1.07,3.33-.05,1.16.98,2.8.7,4.19l1.13-4.51c1.54-.54.99,1.65,1.48,1.51,2.25-.63,3.36-5.01,7.17-3.77.4.28-4.54,7.43-3.39,9.03,3.66-4.23,10.62-6.43,12.43-12.04-1.24-.33-.34,1.31-1.23,1.52-.99.24-2.24-.13-3.29-.02l-.38,3.01.38-2.25c-2.55,1.55-9.03-2.36-10.55-.75-.18.19.38,1.04.34,1.42-.43,4.05-4.21,1.59-1.84-2.17l-29.7-2.3-.44-2.97-2.25,2.25.76-3.76c2.71,2.79,3.88-.52,6.01-2.26l.75,2.25,2.87-3.38-1.03-1.88,2.32-2.26,1.49,2.25,4.91-4.89-.75-1.52,5.27-1.12-3.01-1.51,2.26-3c-8.25,1.28-16.28-1.22-24.49-1.5-3.12-.11-10.79.07-13.59.7-1.33.3-2.21-.68-1.85,1.54h10.54c.62.54-2.06,3.93-2.64,4.51-.77.78-9.58,7.65-10.18,7.9-3.29,1.4-6.66-.53-9.99-.24l-5.82,5.54c-.3,1.78.73,1,1.81,1,2.21,0,11.59-1.62,8.56,3.73-.15.26-4.12,4.07-4.39,4.22-1.64.92-5.27,1.82-7.11,2.92-.55.33-.4.78-.38,1.3l-1.12-2.26-1.59,2.24-2.22-.62-.47,1.18-1.36-.54Zm5.26-36.14h-3.01v.74h3.01v-.74Zm-1.5,12.8v1.5h.74v-1.5h-.74Zm6.01-13.56l-3.76,1.13c1.15,1.71,2.19.69,3.76.37v-1.5Zm1.51,9.05h-3.01v.74h3.01v-.74Zm-.74-2.26v1.5h.74v-1.5h-.74Zm5.26-6.78l-5.27,1.49c2.11.21,5.17,2.03,5.27-1.49Zm0,6.03h-1.5v.74h1.5v-.74Zm15.83,36.91v1.5s1.5-1.13,1.5-1.13l-1.5-.37Zm11.29-41.43h-1.5v.74h1.5v-.74Zm.01,38.41v1.5h.74v-1.5h-.74Zm12.8-2.26h-1.5v.74h1.5v-.74Zm3.01-.76l-1.5,1.5h1.5s0-1.5,0-1.5Zm.02-35.4v1.5h.74v-1.5h-.74Zm3.76,37.67c-1.37-.26-2.5.83-2.25,2.25l2.25-2.25Zm-.75-3.02v1.5s1.5,0,1.5,0l-1.5-1.5Zm12.8-25.62c-1.04-1.98-4.9-.79-6.78-1.49,1.02,2.13,4.85,1.37,6.78,1.49Zm-6.02,30.14v1.5h.74v-1.5h-.74Zm9.03-4.52h-1.5v.74h1.5v-.74Zm1.52,0v1.5h.74v-1.5h-.74Zm2.25-25.61h-1.5v.74h1.5v-.74Zm3.77,30.88h-1.5v.74h1.5v-.74Zm2.26-30.13h-1.5v.74h1.5v-.74Zm7.54,1.49c-1.05-2.22-4.83-1.02-6.78-1.49l6.78,1.49Zm-5.27,26.38v2.25h.74v-2.25h-.74Zm3.01-42.93c-.94-.5-2.63,1.21-2.26,1.49.94.5,2.63-1.21,2.26-1.49Zm5.27,39.16c-.05-.51.31-1.53-.37-1.5l-4.14,4.14c2.49,2.6,3.09-1.27,4.52-2.63.05.49-.04,1.01,0,1.51.91-.13,6.52-3.34,5.26-4.51s-2.03,1.84-2.4,2.1c-.15.1-1.8-.11-2.87.91Zm-4.51-41.43v2.25h.74v-2.25h-.74Zm3,30.88c-1.57.61-2.52,2.07-2.25,3.77,1.57-.61,2.52-2.07,2.25-3.77Zm.76,14.32h-1.5v.74h1.5v-.74Zm-.56-47.3c-.68,1.1.05,3.69-.18,5.11l1.46-2.65,1.52.38c-.43-2.2,1.88-5.12-.72-6.02.66,2.34-1.76,2.66-2.08,3.18Zm.58,32.23v1.5h.74v-1.5h-.74Zm3.75-3.77c-1.5.4-1.69,1.61-1.49,3.01,1.5-.4,1.69-1.61,1.49-3.01Zm-.74-27.11l1.5.73v2.28s3.02-1.5,3.02-1.5l.75,2.25c.3-2.42.23-3.11-2.19-3.71l-.8,1.44-2.27-1.5Zm2.26,42.19c-.13.96-.24,1.94,1.07,1.45.53-.2,3.23-1.53,3.45-2.2l-4.52.75Zm3.77-36.17v2.26s3.01-.76,3.01-.76v-1.49s-3.01,0-3.01,0Zm1.5-6.02l-1.5.37,1.5,1.13v-1.5Zm.01,2.26v1.5s1.5,0,1.5,0l-1.5-1.5Zm.75,37.67v1.5h.74v-1.5h-.74Zm2.25-42.93h-1.5v.74h1.5v-.74Zm-.74,42.93l.74,5.26c.52-1.5,1.35-4.57-.74-5.26Zm1.5-37.66h-1.5v.74h1.5v-.74Zm.75-2.27l-1.5,1.5h1.5s0-1.5,0-1.5Zm2.27,40.68v3.01s.74,0,.74,0l.76-3h-1.5Zm7.75.98l-1.72,7.31,6.01-7.92-2.52-1.13c-.24.59-1.73,1.63-1.78,1.74Zm22.39-31.11c-.5.94,1.21,2.63,1.49,2.26.5-.94-1.21-2.63-1.49-2.26Zm6.77,7.53c.24-.21-3.56-4.6-4.52-3.75.36.94,3.63,4.54,4.52,3.75Zm7.53,7.55h-2.25v.74h2.25v-.74Zm3.01-7.53h-1.5v.74h1.5v-.74Zm.75,43.69h-1.5v.74h1.5v-.74Zm7.55,6.02v1.5h.74v-1.5h-.74Zm2.26-11.3l-.45,3.01,5.7,3.01-.5-2.28c-3.66.19-2.68-2.1-4.76-3.75Zm9.04,10.55v1.5h.74v-1.5h-.74Zm15.07-9.05l-3.01-8.71c-1.22-.77-7.74.82-8.59,2.67l-1.13,4.06,5.57,5.74c2.21-2.26,3.55-4.46,7.16-3.76Zm22.59-4.51h-1.11s-1.14,1.5-1.14,1.5h2.26s0-1.5,0-1.5Zm15.82-39.92h-1.5v.74h1.5v-.74Zm39.18,56.5h-1.5v.74h1.5v-.74Zm2.27-3.77c-.5.94,1.21,2.63,1.49,2.26.5-.94-1.21-2.63-1.49-2.26Zm2.25-66.28h-1.5v.74h1.5v-.74Zm4.52,51.98h-1.5v.74h1.5v-.74Zm1.51,18.08h-1.5v.74h1.5v-.74Zm2.27-3.02v2.25s1.5,0,1.5,0l-.76-2.25h-.74Zm15.06-32.39c-18.64-2.35-3.09,10.45-.76,8.27-1.37-3.3-1.61-5.25.76-8.27Zm-8.28,18.07v2.25h.74v-2.25h-.74Zm14.31-29.38v1.5h1.5v-1.5h-1.5Zm12.81-55.74v1.5h.74v-1.5h-.74Zm3.01-.75c-.05,1.65-.42,3.93,1.49,4.52l-.75-4.51h-.74Zm6.02.76c-2.52-1.01-4.05-1-3.76,2.25l3.76-2.25Zm1.52-3.02c.14,1.83.42,5.37,3,5.26l-3-5.26Zm4.51,16.58c-1.05-.38-4.69,1.06-3.76,1.49,1.41.12,3.31.21,3.76-1.49Zm-1.5-15.82l-.76,2.25h1.5s0-2.25,0-2.25h-.74Zm1.51.75v1.5h.74v-1.5h-.74Zm2.26-1.51c-.26.78.46,2.09,1.11,2.17.72.09,10.77-4,12.35-2.75.35.28-.43,1.64.84,1.33-.36-2.36,3.21-1.34,4.9-2.26l-.37,1.51h3.77s-1.5-1.12-1.5-1.12c.44-1.08,5.75-1.3,5.27-4.14-3.31-.77-3.27,2.1-4.46,2.64-.69.31-2.08-.6-3.25-.26-1.11.32-1.49,1.8-2.84,1.38l.77-1.49c-2.96-.36-6.21,2.19-8.84,2.05-1.36-.07-2.34-1.75-3.98-1.3l1.5,2.25h-5.27Zm3-1.5h-1.5v.74h1.5v-.74Zm.76,46.7v1.5h.74v-1.5h-.74Zm8.28-49.71h-1.5v.74h1.5v-.74Zm7.53,61.01h-1.5v.74h1.5v-.74Zm6.79-58.76v1.5h.74v-1.5h-.74Zm22.6-6.03c1.46.44,2.97.86,4.52.75l-2.25-.75v-3.76s-.77,1.5-.77,1.5c-4.77-4.32-6.42,2.07-9.03,5.26,2.43.54,2.24-.74,3.39-2.25l1.12,1.5-1.49-2.27c1.12-3.01,3.29-.36,4.51.01h-1.5s0,1.5,0,1.5l2.25.76-.75-2.26Zm2.26,67.8l-1.5.37,1.5,1.13v-1.5Zm6.78-67.04c-.29-.37-1.99,1.32-1.49,2.26.29.37,1.99-1.32,1.49-2.26Zm-.74,79.1v1.5h.74v-1.5h-.74Zm2.26-84.37v1.5h.74v-1.5h-.74Zm2.25,84.37l-1.5.37,1.5,1.13v-1.5Zm2.26-82.1h-3.01s0,.74,0,.74l1.89.74,1.12-1.48Zm-2.25-5.28v1.5h.74v-1.5h-.74Zm1.51,1.51v1.5h.74v-1.5h-.74Zm3,3.77h-1.5v.74h1.5v-.74Zm3.01,73.82h-1.5v.74h1.5v-.74Zm1.5.75l-1.5,1.5h1.5s0-1.5,0-1.5Zm-.74-76.09v1.51s2.25,0,2.25,0v-2.25s-.83,1.39-.83,1.39l-1.42-.64Zm4.51,76.85h-1.5v.74h1.5v-.74Zm-1.5-76.84v1.5h.74v-1.5h-.74Zm4.51-5.27l-2.25.37,1.14,1.13h1.11s0-1.5,0-1.5Zm0,4.52l-1.5,1.5h1.5s0-1.5,0-1.5Zm0-2.25h-1.5v.74h1.5v-.74Zm1.52,0v1.5h.74v-1.5h-.74Zm3.01.75c-.81,1.24-1.57.81-2.26,2.25l3.77-.75c.23-2.02-.11-1.35-1.51-1.5.23-.35.97-1.36.75-1.5l-2.26,1.13c-.05.69,1.02.32,1.5.37Zm4.34-.34c-.62.29-3.08-.17-1.71,1.84,2.87-2.25,7.94-.79,10.18-3.75-2.18-.4-3.93.95-5.84,1.34-.83.17-1.85-.52-2.09-.46-.49.12-.33.94-.53,1.03Zm5.46-6.43v1.5s1.5-1.13,1.5-1.13l-1.5-.37Zm6.02,3.01c-1.42-.24-2.5.88-2.25,2.26l2.25-.76v-1.49Zm.76-.76v1.5c1.43.12,2.86.14,3.76-1.13l-3.76-.37Zm5.28-2.26c-1.01,2.17-.24,3.97,1.48,1.88l-.74-1.88h-.74Zm6.01,0l-3.76,1.12,2.24.63,1.51-1.75Zm10.55-6.78h-1.5v.74h1.5v-.74Zm3.51,29.08c-1.28.7-3.9.67-4.26,2.19-.26,1.12,1.97,2.49,2.76,2.54,2.03.15,1.54-3.05,2.89-3.68,1.39,4.07,2.21-.35,2.73-.68,1.01-.65,3.25,2.66,4.31,1.6l.87,1.33c-1.13-2.39.92-4.82-2.14-5.38,1.37-2.04-.73-2.32-1.24.12l-1.12-1.51c.38,2.58-1.25.39-2.28,1.08-.28.19-1.83,2.01-2.52,2.39Zm4.8,2.56l-2.28,2.27,1.13,1.47,3.4-1.5-.77-1.81-1.48-.44Zm.73,16.57h-1.5v.74h1.5v-.74Zm3.01-9.04h-1.5v.74h1.5v-.74Zm10.56-13.56v1.5h.74v-1.5h-.74Zm14.32-9.04v1.5h.74v-1.5h-.74Zm10.67-36.74c-.21.14-1.92,3.12-1.63,3.6,2.97.12,3.06-.95,5.26-2.64.7-1.4-3.48-1.06-3.64-.95Zm.64,5.86v1.5h.74v-1.5h-.74Zm6.77-6.78c-1.41-.19-2.61,0-3.01,1.5h3.01s0-1.5,0-1.5Zm5.28-5.27l.76,3h.74s0-3,0-3h-1.5Zm4.51,0l-1.49,1.14v1.11s2.25,0,2.25,0l-.76-2.25Zm1.52-2.25c-.11.11-.87,2.75-.76,3,1.09.21,1.3-1.86,1.49-3-.24.04-.64-.1-.74,0Zm.75-3.01v1.5h.74v-1.5h-.74Zm.75,2.26v2.25h.74v-2.25h-.74Zm10.54-4.52h-1.5v.74h1.5v-.74Zm1.52-.76c-.5.94,1.21,2.63,1.49,2.26.5-.94-1.21-2.63-1.49-2.26Zm1.51-17.33l-1.51,7.53c1.53-1.11,2.23-4.27,2.26-6.02l1.49,1.5-2.25-3.01Zm4.52,2.26v1.5h.74v-1.5h-.74Z"/>
          <path class="cls-1" d="m271.25,123.54v.75c-.49-.05-1.01.03-1.51,0,.38-.75,1.43-.65,1.51-.75Z"/>
          <path class="cls-1" d="m259.95,130.32c.44.06,1.54.24,1.51-.38,0-.8-1.12-.15-1.51-.38.15-.93-.1-2.05,0-3.01.06-.09,1.4.64,1.51.75.1.11-.28,1.09.49,1.58.38.24,3.25.76,4.78,1.43.13.06.17.66.48.7l4.04-3.35-2.25,1.14c-.14-.63.19-1.92,0-2.26,1.16.06.56-1.08.75-1.51l1.5.75v-1.5c.47.05,1.18,1.18,2.27.75l-2.26-1.5c.53-.76.34-2.4,1.49-2.25,2.16,3.29,3.68,5.63,2.28,9.78l1.51-3.76c2.67.8,5.07,2.51,2.63,5.25-.39-.44-.88-1.05-1.49-1.1-4.77-.36-11.24.2-15.9,1.05l-.64-1.38-1.93.68c-.28-.19.68-1.04.75-1.5Zm12.81-3.76v3.01s.74,0,.74,0l.76-3h-1.5Z"/>
          <polygon class="cls-1" points="383.52 145.38 383.52 152.92 381.32 152.86 380.62 146.63 383.52 145.38"/>
          <polygon class="cls-1" points="269 113.75 286.32 130.33 285.19 131.81 283.32 130.32 282.56 131.82 282.91 129.53 270.14 116.77 269 113.75"/>
          <path class="cls-1" d="m385.02,137.1c.88,1-1.33,6.59-3.76,6.02-.62-.69,1.36-6.76,3.76-6.02Z"/>
          <polygon class="cls-1" points="461.67 91.64 461.89 90.4 463.38 91.89 387.29 117.5 389.36 116.2 461.67 91.64"/>
          <polygon class="cls-1" points="376.74 120.53 385.02 118.27 377.11 122.02 376.74 120.53"/>
          <path class="cls-1" d="m310.44,129.57l3.76,1.12c-1.08,2.13-5,.16-3.76-1.12Z"/>
          <polygon class="cls-1" points="388.04 127.31 391.05 127.31 391.05 128.05 388.05 129.56 388.04 127.31"/>
          <path class="cls-1" d="m302.9,130.32v.74c-1.74-.22-3.45,1.27-4.51-.37l4.51-.37Z"/>
          <path class="cls-1" d="m388.79,132.58c-.54,1.23-1.65,2.49-3.01,2.24.54-1.23,1.65-2.49,3.01-2.24Z"/>
          <polygon class="cls-1" points="293.85 130.32 293.85 131.82 292.74 131.82 291.6 130.69 293.85 130.32"/>
          <rect class="cls-1" x="381.26" y="128.06" width="3.01" height=".74"/>
          <polygon class="cls-1" points="359.41 129.57 361.67 129.57 361.66 130.31 359.42 131.07 359.41 129.57"/>
          <polygon class="cls-1" points="413.65 126.55 413.65 128.06 412.15 126.92 413.65 126.55"/>
          <rect class="cls-1" x="365.44" y="143.88" width=".74" height="2.25"/>
          <polygon class="cls-1" points="362.43 128.81 363.93 129.18 362.43 130.32 362.43 128.81"/>
          <polygon class="cls-1" points="339.07 128.81 340.57 129.18 339.07 130.32 339.07 128.81"/>
          <polygon class="cls-1" points="333.04 128.81 334.54 130.31 333.04 130.31 333.04 128.81"/>
          <rect class="cls-1" x="330.78" y="128.81" width=".74" height="2.25"/>
          <rect class="cls-1" x="323.25" y="129.57" width="2.25" height=".74"/>
          <rect class="cls-1" x="294.62" y="130.32" width=".74" height="1.5"/>
          <rect class="cls-1" x="296.12" y="130.32" width="1.5" height=".74"/>
          <rect class="cls-1" x="288.59" y="130.32" width=".74" height="1.5"/>
          <rect class="cls-1" x="303.66" y="130.32" width="1.5" height=".74"/>
          <rect class="cls-1" x="305.92" y="130.32" width="1.5" height=".74"/>
          <rect class="cls-1" x="277.29" y="134.09" width=".74" height="1.5"/>
          <rect class="cls-1" x="315.72" y="129.57" width=".74" height="1.5"/>
          <rect class="cls-1" x="319.48" y="129.57" width=".74" height="1.5"/>
          <rect class="cls-1" x="351.88" y="128.82" width="1.5" height=".74"/>
          <path class="cls-1" d="m367.69,124.3c.85.39-2.08,1.67-3,1.49-.85-.39,2.08-1.67,3-1.49Z"/>
          <rect class="cls-1" x="369.96" y="122.79" width=".74" height="1.5"/>
          <rect class="cls-1" x="370.72" y="153.67" width=".74" height="1.5"/>
          <rect class="cls-1" x="409.14" y="127.31" width="1.5" height=".74"/>
          <path class="cls-1" d="m242.63,187.56l1.36.54.47-1.18,2.22.62,1.59-2.24,1.12,2.26c-.01-.52-.17-.98.38-1.3,1.84-1.09,5.47-2,7.11-2.92.27-.15,4.24-3.95,4.39-4.22,3.04-5.35-6.34-3.72-8.56-3.73-1.08,0-2.11.78-1.81-1l5.82-5.54c3.33-.29,6.69,1.64,9.99.24.59-.25,9.4-7.12,10.18-7.9.58-.58,3.26-3.98,2.64-4.51h-10.54c-.37-2.23.52-1.25,1.85-1.55,2.8-.63,10.47-.81,13.59-.7,8.22.28,16.24,2.78,24.49,1.5l-2.26,3,3.01,1.51-5.27,1.12.75,1.52-4.91,4.89-1.49-2.25-2.32,2.26,1.03,1.88-2.87,3.38-.75-2.25c-2.13,1.74-3.3,5.05-6.01,2.26l-.76,3.76,2.25-2.25.44,2.97,29.7,2.3c-2.36,3.76,1.41,6.22,1.84,2.17.04-.38-.53-1.23-.34-1.42,1.52-1.61,8.01,2.3,10.55.75l-.38,2.25.38-3.01c1.05-.11,2.31.25,3.29.02.88-.21-.01-1.85,1.23-1.52-1.81,5.61-8.77,7.81-12.43,12.04-1.15-1.6,3.79-8.75,3.39-9.03-3.81-1.24-4.92,3.14-7.17,3.77-.49.14.06-2.04-1.48-1.51l-1.13,4.51c.28-1.39-.75-3.03-.7-4.19.07-1.39,2.25-2.2,1.07-3.33-1.16,1.17-2.5.18-1.13,2.25-1.64-.31-2.6.27-3.01,1.91-.62,2.5,2.42-.83,2.24,1.1l-3.76,2.26.74-3.01-2.25,1.51c1-3.99-3.42-1.95-3.02-.76l.39.75-1.14-3.76c2.97.76,3.92-1.05,6.77.75l.41-3.01c-2.39-2.47-2.03,3.56-3.84-.78l-6.35.03,2.25,1.12-3.75-.37v3.76c-2.68.41-1.17-1.37-.88-2.76.57-2.63-3.91.73-4.4,1.64l1.49,1.87-2.59-.79-1.16,1.55-.75-3.01-.76,1.85-1.12-.9c-1.49,1.03-4.5,2.13-3.03,4.31l3.39-3.01.75,5.27-1.88-2.25-2.64,1.92-1.88-4.17-1.24,2.13-1.39-.64c-.1.87.31,2.2-.12,2.9-.17.28-6.49,3.98-5.16.88l4.52-1.53-1.73-1.39c-3.75,2.27-8.09,3.5-12.01,5.23-.55.24-.54,1.09-.94,1.26-.78.34-3.68-.88-3.41,1.68-1.77-1.74-3.01-.87-5.25-.75l3.02-.75c.43-4.57-3.57-7.06-2.27-12.05l-6.02,4.15,5.26-1.13v1.5c-3.17,2.2-7.72-1.66-8.65,1.52l-2.64-1.5c1.31,4.84-4.31.97-3.78,3.75h-1.49s-.75-4.51-.75-4.51Zm20.34-3.76v1.5h.74v-1.5h-.74Zm3.01-9.79v1.5h.74v-1.5h-.74Zm2.25,15.81l-1.48,1.13,1.12,1.13.37-2.26Zm0-5.27h-1.5v.74h1.5v-.74Zm.01-11.3l-.76,2.25h1.5s0-2.25,0-2.25h-.74Zm.75,13.56v2.25h.74v-2.25h-.74Zm0-5.27v1.5h.74v-1.5h-.74Zm1.54-1.44l1.08,4.44c1.55-.96.22-2.94,1.05-4.06.75-1.02,2.55.27,2.35-1.19l-4.47.81Zm1.46-9.1h-1.5v.74h1.5v-.74Zm0-2.26h-1.5v.74h1.5v-.74Zm.01,18.07v3.01h.74v-3.01h-.74Zm3-2.26l-1.5.37,1.5,1.13v-1.5Zm.77-3.77v3.76s1.5,0,1.5,0l-.76-3.76h-.74Zm1.5-2.26v1.5h1.5v-1.5h-1.5Zm3.76-1.51l-2.25.37,1.14,1.13h1.11s0-1.5,0-1.5Zm2.25,2.25l-2.24.76v.73s3,1.52,3,1.52l-.76-3.01Zm-1.49-3.76v1.5h.74v-1.5h-.74Zm2.25,8.29h-1.5v.74h1.5v-.74Zm2.26-9.04h-1.5v.74h1.5v-.74Zm15.82-11.3h-1.5v.74h1.5v-.74Z"/>
          <path class="cls-1" d="m339.25,142.53c.32-.52,2.74-.84,2.08-3.18,2.61.9.29,3.81.72,6.02l-1.52-.38-1.46,2.65c.23-1.42-.5-4.01.18-5.11Z"/>
          <path class="cls-1" d="m317.21,161.19c-1.93-.12-5.76.64-6.78-1.49,1.88.71,5.74-.49,6.78,1.49Z"/>
          <path class="cls-1" d="m394.07,161.95c-.89.78-4.16-2.81-4.52-3.75.96-.85,4.76,3.54,4.52,3.75Z"/>
          <polygon class="cls-1" points="348.86 149.9 351.87 149.9 351.87 151.4 348.86 152.16 348.86 149.9"/>
          <path class="cls-1" d="m342.84,143.88l2.27,1.5.8-1.44c2.42.6,2.49,1.29,2.19,3.71l-.75-2.25-3.01,1.5v-2.28s-1.51-.73-1.51-.73Z"/>
          <path class="cls-1" d="m387.29,154.42c.29-.37,1.99,1.32,1.49,2.26-.29.37-1.99-1.32-1.49-2.26Z"/>
          <path class="cls-1" d="m335.3,146.9c.37.29-1.32,1.99-2.26,1.49-.37-.29,1.32-1.99,2.26-1.49Z"/>
          <polygon class="cls-1" points="354.88 143.88 354.88 145.38 353.38 145.37 354.88 143.88"/>
          <polygon class="cls-1" points="350.37 146.13 351.87 147.63 350.37 147.64 350.37 146.13"/>
          <polygon class="cls-1" points="350.36 143.88 350.36 145.38 348.86 144.25 350.36 143.88"/>
          <rect class="cls-1" x="336.06" y="144.63" width=".74" height="2.25"/>
          <rect class="cls-1" x="301.4" y="152.16" width=".74" height="1.5"/>
          <rect class="cls-1" x="284.07" y="152.17" width="1.5" height=".74"/>
          <rect class="cls-1" x="351.88" y="140.87" width="1.5" height=".74"/>
          <rect class="cls-1" x="352.63" y="146.14" width="1.5" height=".74"/>
          <polygon class="cls-1" points="272.76 126.55 274.27 126.56 273.51 129.56 272.77 129.56 272.76 126.55"/>
        </g>
        <path class="cls-1" d="m592.22,58.76c-.04,3.35-3.1,4.51-6.02,4.51.35-1.34,5.13-5.4,6.02-4.51Z"/>
        <path class="cls-1" d="m575.65,64.79c-1.6,2.97-3.39,7.05-7.53,6.77.34-3.54,3.68-7.41,7.53-6.77Z"/>
      </g>
      <rect class="cls-1" x="223.79" y="112.99" width=".74" height="1.5"/>
      <rect class="cls-1" x="300.64" y="163.47" width="1.5" height=".74"/>
    </g>
  </g>
</svg>