<?xml version="1.0" encoding="UTF-8"?>
<svg id="Layer_2" data-name="Layer 2" xmlns="http://www.w3.org/2000/svg" viewBox="0 0 88.92 88.92">
  <defs>
    <style>
      .cls-1 {
        fill: #fff;
        stroke-width: 0px;
      }
    </style>
  </defs>
  <g id="Layer_1-2" data-name="Layer 1">
    <g>
      <path class="cls-1" d="m13.42,49.95c.35-.45.63-.81,1.03-1.31l2.95,1.84c.43-.55.74-.94,1.1-1.4,1.03.56,2,1.09,2.99,1.63.39-.46.69-.82,1.12-1.32l1.6,1c.57,0,1.14.06,1.69.16.84-.88,1.02-.72,2.07.37l-.1.22c.84.35,1.65.82,2.42,1.38.39.29.78.59,1.16.9,1.45.68,2.76,1.44,4.04,2.39-.12.01-.23.03-.35.05.02.51.04.95.06,1.37.6.09,1.06.16,1.53.24.06.57.12,1.07.18,1.61,1.02.09,1.99.17,3.07.27-.09.23-.19.46-.29.72l.77.48-.07,2.25c.64.12,1.1.2,1.66.3-.29,1.45.5,1.95,1.75,1.92.09.6.16,1.1.24,1.59.54.08.99.14,1.49.21.06.57.1,1.06.16,1.65.67-.1,1.12.02,1.4.3-.01.01-.02.03-.03.04.06.05.12.09.18.14.24.35.31.86.29,1.43.16.02.32.05.47.07-.12.27-.23.53-.35.79l1.19.74.29-.47-.08,2.5c.65.12,1.15.21,1.65.3.07.57.14,1.07.21,1.58.56.09,1.06.18,1.61.27.07.55.14,1.04.2,1.53.56.14,1.05.26,1.55.38.03.58.05,1.09.08,1.62.59.08,1.09.15,1.64.22.09.53.17,1.03.25,1.53.54.12,1.03.23,1.54.35.05.57.1,1.07.15,1.62.55.09,1.05.18,1.55.26.08.58.14,1.08.21,1.65,1.4-.22,1.87.53,1.8,1.74l3.12.1.1-3.18c-.57-.08-1.02-.15-1.65-.23l.11-3.48c-.69-.1-1.19-.17-1.76-.25-.03-1.17-.06-2.28-.08-3.4-.59-.11-1.05-.19-1.7-.31l.06-1.88c-.28-.5-.52-1.02-.7-1.55-1.18-.29-1.13-.52-.71-1.98.08,0,.16-.02.24-.03-.11-.9-.12-1.84-.01-2.79.05-.49.13-.97.2-1.46-.14-1.59-.13-3.11.05-4.69.07.09.14.19.22.28.43-.27.8-.51,1.15-.74-.22-.57-.39-1-.56-1.44.46-.34.86-.64,1.31-.96-.44-.93-.84-1.81-1.3-2.79.25-.04.49-.07.77-.11l.03-.9,1.99-1.06c-.22-.62-.38-1.05-.57-1.59,1.4-.47,1.44-1.41.79-2.48.48-.38.87-.69,1.26-1-.2-.5-.37-.93-.56-1.4.46-.33.87-.62,1.35-.96-.42-.53-.54-.98-.44-1.36.02,0,.03,0,.05,0,0-.08.02-.15.03-.23.19-.38.59-.7,1.1-.96-.06-.15-.12-.3-.18-.45.3-.03.58-.06.86-.09l.05-1.4-.56-.02,2.21-1.18c-.23-.62-.39-1.09-.57-1.58.45-.35.85-.66,1.26-.97-.2-.53-.38-1-.57-1.53.44-.34.84-.64,1.22-.94-.16-.55-.3-1.04-.44-1.53.49-.32.91-.59,1.36-.88-.23-.55-.42-1.02-.63-1.53.41-.34.8-.66,1.2-.99-.16-.53-.31-1.01-.47-1.51.46-.33.88-.62,1.33-.93-.19-.53-.37-1-.55-1.47.47-.36.87-.66,1.32-1.01-.89-1.11-.48-1.89.61-2.43l-1.47-2.76-2.8,1.5c.21.53.39.96.62,1.55l-3.07,1.64c.26.65.44,1.11.66,1.65-1,.61-1.95,1.19-2.91,1.77.21.57.36,1.01.58,1.63l-1.66.89c-.29.5-.62.96-.99,1.38.34,1.17.12,1.24-1.36,1.6-.05-.06-.1-.13-.15-.19-.72.55-1.53,1.02-2.41,1.4-.45.2-.9.38-1.36.55-1.31.92-2.63,1.67-4.09,2.3.04-.11.09-.21.14-.32-.45-.23-.85-.44-1.22-.63-.38.47-.67.83-.97,1.2-.53-.23-.98-.43-1.49-.65-.59.84-1.15,1.64-1.76,2.52-.15-.19-.31-.39-.48-.61l-.8.43-1.91-1.19c-.43.5-.73.85-1.09,1.28-1.11-.98-1.94-.54-2.54.55-.57-.23-1.03-.41-1.5-.59-.34.43-.62.79-.93,1.19-.52-.24-.98-.44-1.51-.69-.25.63-.58.96-.96,1.07,0-.02-.02-.03-.03-.05-.07.03-.14.06-.21.09-.43.03-.9-.16-1.39-.47-.1.13-.2.25-.3.38-.17-.24-.34-.47-.51-.7l-1.23.66.26.49-2.13-1.32c-.43.51-.75.89-1.09,1.28-.53-.22-1-.41-1.47-.61-.36.43-.68.83-1.04,1.26-.51-.21-.97-.4-1.42-.59-.4.41-.75.77-1.11,1.15-.52-.27-.97-.49-1.44-.74-.36.47-.67.87-1.01,1.31-.5-.19-.97-.36-1.46-.55-.38.41-.72.77-1.08,1.16-.52-.24-.97-.45-1.47-.68-.36.43-.68.82-1,1.2-.54-.22-1.01-.42-1.54-.64-.51,1.33-1.4,1.36-2.41.69l-1.65,2.65,2.7,1.68Zm45.05,11.6c.07.09.14.18.2.27h-.21s0-.27,0-.27Zm-6.09-22.66l.1.19-.24.13c.05-.11.09-.21.13-.32Zm1.05,9.91c0,.05-.02.1-.03.15-.07-.01-.14-.02-.2-.03l.23-.12Zm-3.86,8.72v.26s-.08-.06-.13-.1c.05-.06.09-.11.13-.16Zm-5.7-7.63c.02.07.05.13.08.19l-.22-.14s.09-.04.14-.05Zm-8.09,5.74l.22.14c-.11.01-.23.03-.34.04l.11-.18Z"/>
      <path class="cls-1" d="m18.63,26.4c.57-.07,1.02-.12,1.66-.2l.79,3.39c.69-.08,1.19-.14,1.77-.21.33,1.13.64,2.19.96,3.27.61-.05,1.07-.09,1.72-.14l.43,1.84c.4.41.76.85,1.08,1.31,1.22-.03,1.23.21,1.2,1.73l-.23.09c.34.84.59,1.74.73,2.69.07.48.13.97.18,1.46.55,1.5.93,2.98,1.16,4.55-.09-.07-.19-.14-.28-.22-.34.38-.64.7-.92,1.01.36.49.63.86.91,1.25-.36.45-.67.84-1.01,1.27.66.79,1.29,1.53,1.98,2.36-.22.1-.46.19-.71.3l.21.88-1.64,1.54c.37.54.64.92.96,1.39-1.23.82-1.03,1.73-.12,2.6-.36.49-.66.89-.96,1.29.33.43.6.8.91,1.21-.36.44-.68.82-1.06,1.28.55.4.77.81.78,1.2-.02,0-.03,0-.05,0,0,.08.02.15.03.23-.08.42-.39.82-.81,1.22.1.13.19.26.29.38-.28.11-.54.21-.81.31l.32,1.37.54-.13-1.83,1.71c.38.54.66.96.96,1.38-.35.46-.66.86-.97,1.26.33.46.62.87.95,1.33-.34.44-.64.84-.94,1.22.3.49.55.92.82,1.37-.39.43-.73.81-1.09,1.2.36.47.67.88,1,1.32-.31.43-.6.85-.9,1.26.3.47.56.89.84,1.34-.36.44-.69.82-1.04,1.25.33.46.62.87.91,1.28-.36.46-.67.86-1.02,1.32,1.15.84.95,1.7.04,2.5l2.14,2.28,2.32-2.17c-.34-.46-.62-.82-1-1.33l2.54-2.38c-.41-.56-.72-.96-1.07-1.43.81-.85,1.57-1.65,2.35-2.47-.34-.5-.61-.88-.98-1.42l1.38-1.29c.15-.55.35-1.08.6-1.59-.63-1.04-.43-1.17.9-1.9.06.05.12.1.19.15.56-.72,1.22-1.38,1.96-1.98.38-.31.78-.6,1.18-.89,1.03-1.23,2.11-2.29,3.35-3.28-.02.11-.03.23-.05.35.5.11.93.2,1.34.29.25-.56.43-.98.63-1.41.57.09,1.06.16,1.6.24.35-.97.68-1.88,1.05-2.89.2.15.4.3.62.46l.66-.62,2.16.65c.28-.59.48-1.01.72-1.52,1.32.65,2.01.02,2.31-1.19.61.07,1.11.13,1.6.19.21-.5.39-.92.59-1.39.56.09,1.05.18,1.64.27.08-.67.31-1.07.65-1.28.01.01.02.02.04.04.06-.05.12-.09.18-.14.4-.14.91-.07,1.46.09.07-.15.13-.3.19-.44.23.19.45.36.67.54l1.02-.96-.38-.41,2.4.73c.28-.6.5-1.05.71-1.52.57.08,1.07.14,1.58.21.23-.51.44-.97.68-1.49.55.07,1.04.14,1.53.2.28-.5.52-.94.77-1.39.57.12,1.07.23,1.59.34.23-.55.42-1.02.64-1.52.53.05,1.04.1,1.55.15.26-.49.5-.94.74-1.4.56.1,1.06.18,1.6.28.23-.51.45-.97.65-1.43.58.08,1.08.15,1.65.22.15-1.41,1-1.67,2.15-1.29l.91-2.99-3.04-.92c-.22.53-.4.95-.65,1.53l-3.33-1.01c-.27.64-.47,1.1-.7,1.64-1.14-.28-2.22-.54-3.31-.8-.26.55-.46.97-.74,1.56l-1.8-.55c-.56.15-1.11.24-1.67.28-.58,1.07-.8.96-2.09.17.01-.08.02-.16.03-.24-.9-.12-1.8-.36-2.7-.71-.46-.18-.91-.37-1.35-.57-1.57-.28-3.04-.68-4.51-1.27.11-.04.21-.09.33-.13-.16-.49-.29-.91-.42-1.3-.61.06-1.06.11-1.53.16-.21-.54-.39-1-.59-1.51-1.01.18-1.97.35-3.03.54.03-.25.06-.5.09-.77l-.86-.26-.51-2.19c-.65.05-1.12.09-1.68.14-.1-1.48-.99-1.76-2.19-1.41-.24-.56-.44-1.02-.64-1.48-.54.07-1,.12-1.5.18-.2-.53-.38-1-.58-1.56-.62.27-1.09.27-1.43.08,0-.02.01-.03.02-.05-.07-.03-.14-.06-.21-.09-.32-.28-.52-.75-.65-1.31-.16.02-.32.04-.47.06.05-.29.09-.57.13-.85l-1.34-.41-.16.53-.57-2.44c-.66.06-1.16.1-1.67.14-.22-.53-.42-1-.61-1.47-.56.05-1.07.1-1.63.16-.21-.51-.4-.97-.59-1.42-.58,0-1.08.02-1.6.03-.18-.56-.33-1.03-.5-1.54-.59.08-1.09.14-1.64.21-.22-.49-.43-.95-.64-1.42-.55.02-1.06.04-1.58.06-.2-.54-.37-1.01-.56-1.52-.56.05-1.06.1-1.56.14-.22-.54-.42-1.01-.63-1.54-1.3.57-1.95-.02-2.19-1.22l-3.04.71.72,3.1Zm23.65,40.05c-.02.11-.03.22-.05.34l-.15-.16.2-.18Zm11.72-20.33l-.06.21-.26-.08c.11-.04.21-.08.32-.13Zm-6.26,7.75s-.08.06-.13.09c-.04-.06-.08-.11-.12-.16l.25.08Zm-8.89,3.44l-.19.18c0-.05,0-.1-.01-.15.07,0,.14-.02.2-.02Zm1.36-9.43c-.03.06-.06.13-.08.19l-.06-.25s.09.04.14.06Zm-9.78-1.66l.06.26c-.09-.07-.18-.14-.27-.21l.21-.05Z"/>
      <path class="cls-1" d="m38.97,13.42c.45.35.81.63,1.31,1.03l-1.84,2.95c.55.43.94.74,1.4,1.1-.56,1.03-1.09,2-1.63,2.99.46.39.82.69,1.32,1.12l-1,1.6c0,.57-.06,1.14-.16,1.69.88.84.72,1.02-.37,2.07l-.22-.1c-.35.84-.82,1.65-1.38,2.42-.29.39-.59.78-.9,1.16-.68,1.45-1.44,2.76-2.39,4.04-.01-.12-.03-.23-.05-.35-.51.02-.95.04-1.37.06-.09.6-.16,1.06-.24,1.53-.57.06-1.07.12-1.61.18-.09,1.02-.17,1.99-.27,3.07-.23-.09-.46-.19-.72-.29l-.48.77-2.25-.07c-.12.64-.2,1.1-.3,1.66-1.45-.29-1.95.5-1.92,1.75-.6.09-1.1.16-1.59.24-.08.54-.14.99-.21,1.49-.57.06-1.06.1-1.65.16.1.67-.02,1.12-.3,1.4-.01-.01-.03-.02-.04-.03-.05.06-.09.12-.14.18-.35.24-.86.31-1.43.29-.02.16-.05.32-.07.47-.27-.12-.53-.23-.79-.35l-.74,1.19.47.29-2.5-.08c-.12.65-.21,1.15-.3,1.65-.57.07-1.07.14-1.58.21-.09.56-.18,1.06-.27,1.61-.55.07-1.04.14-1.53.2-.14.56-.26,1.05-.38,1.55-.58.03-1.09.05-1.62.08-.08.59-.15,1.09-.22,1.64-.53.09-1.03.17-1.53.25-.12.54-.23,1.03-.35,1.54-.57.05-1.07.1-1.62.15-.09.55-.18,1.05-.26,1.55-.58.08-1.08.14-1.65.21.22,1.4-.53,1.87-1.74,1.8l-.1,3.12,3.18.1c.08-.57.15-1.02.23-1.65l3.48.11c.1-.69.17-1.19.25-1.76,1.17-.03,2.28-.06,3.4-.08.11-.59.19-1.05.31-1.7l1.88.06c.5-.28,1.02-.52,1.55-.7.29-1.18.52-1.13,1.98-.71,0,.08.02.16.03.24.9-.11,1.84-.12,2.79-.01.49.05.97.13,1.46.2,1.59-.14,3.11-.13,4.69.05-.09.07-.19.14-.28.22.27.43.51.8.74,1.15.57-.22,1-.39,1.44-.56.34.46.64.86.96,1.31.93-.44,1.81-.84,2.79-1.3.04.25.07.49.11.77l.9.03,1.06,1.99c.62-.22,1.05-.38,1.59-.57.47,1.4,1.41,1.44,2.48.79.38.48.69.87,1,1.26.5-.2.93-.37,1.4-.56.33.46.62.87.96,1.35.53-.42.98-.54,1.36-.44,0,.02,0,.03,0,.05.08,0,.15.02.23.03.38.19.7.59.96,1.1.15-.06.3-.12.45-.18.03.3.06.58.09.86l1.4.05.02-.56,1.18,2.21c.62-.23,1.09-.39,1.58-.57.35.45.66.85.97,1.26.53-.2,1-.38,1.53-.57.34.44.64.84.94,1.22.55-.16,1.04-.3,1.53-.44.32.49.59.91.88,1.36.55-.23,1.02-.42,1.53-.63.34.41.66.8.99,1.2.53-.16,1.01-.31,1.51-.47.33.46.62.88.93,1.33.53-.19,1-.37,1.47-.55.36.47.66.87,1.01,1.32,1.11-.89,1.89-.48,2.43.61l2.76-1.47-1.5-2.8c-.53.21-.96.39-1.55.62l-1.64-3.07c-.65.26-1.11.44-1.65.66-.61-1-1.19-1.95-1.77-2.91-.57.21-1.01.36-1.63.58l-.89-1.66c-.5-.29-.96-.62-1.38-.99-1.17.34-1.24.12-1.6-1.36.06-.05.13-.1.19-.15-.55-.72-1.02-1.53-1.4-2.41-.2-.45-.38-.9-.55-1.36-.92-1.31-1.67-2.63-2.3-4.09.11.04.21.09.32.14.23-.45.44-.85.63-1.22-.47-.38-.83-.67-1.2-.97.23-.53.43-.98.65-1.49-.84-.59-1.64-1.15-2.52-1.76.19-.15.39-.31.61-.48l-.43-.8,1.19-1.91c-.5-.43-.85-.73-1.28-1.09.98-1.11.54-1.94-.55-2.54.23-.57.41-1.03.59-1.5-.43-.34-.79-.62-1.19-.93.24-.52.44-.98.69-1.51-.63-.25-.96-.58-1.07-.96.02,0,.03-.02.05-.03-.03-.07-.06-.14-.09-.21-.03-.43.16-.9.47-1.39-.13-.1-.25-.2-.38-.3.24-.17.47-.34.7-.51l-.66-1.23-.49.26,1.32-2.13c-.51-.43-.89-.75-1.28-1.09.22-.53.41-1,.61-1.47-.43-.36-.83-.68-1.26-1.04.21-.51.4-.97.59-1.42-.41-.4-.77-.75-1.15-1.11.27-.52.49-.97.74-1.44-.47-.36-.87-.67-1.31-1.01.19-.5.36-.97.55-1.46-.41-.38-.77-.72-1.16-1.08.24-.52.45-.97.68-1.47-.43-.36-.82-.68-1.2-1,.22-.54.42-1.01.64-1.54-1.33-.51-1.36-1.4-.69-2.41l-2.65-1.65-1.68,2.7Zm-11.6,45.05c-.09.07-.18.14-.27.2v-.21s.27,0,.27,0Zm22.66-6.09l-.19.1-.13-.24c.11.05.21.09.32.13Zm-9.91,1.05c-.05,0-.1-.02-.15-.03.01-.07.02-.14.03-.2l.12.23Zm-8.72-3.86h-.26s.06-.08.1-.13c.06.05.11.09.16.13Zm7.63-5.7c-.07.02-.13.05-.19.08l.14-.22s.04.09.05.14Zm-5.74-8.09l-.14.22c-.01-.11-.03-.23-.04-.34l.18.11Z"/>
      <path class="cls-1" d="m62.53,18.63c.07.57.12,1.02.2,1.66l-3.39.79c.08.69.14,1.19.21,1.77-1.13.33-2.19.64-3.27.96.05.61.09,1.07.14,1.72l-1.84.43c-.41.4-.85.76-1.31,1.08.03,1.22-.21,1.23-1.73,1.2l-.09-.23c-.84.34-1.74.59-2.69.73-.48.07-.97.13-1.46.18-1.5.55-2.98.93-4.55,1.16.07-.09.14-.19.22-.28-.38-.34-.7-.64-1.01-.92-.49.36-.86.63-1.25.91-.45-.36-.84-.67-1.27-1.01-.79.66-1.53,1.29-2.36,1.98-.1-.22-.19-.46-.3-.71l-.88.21-1.54-1.64c-.54.37-.92.64-1.39.96-.82-1.23-1.73-1.03-2.6-.12-.49-.36-.89-.66-1.29-.96-.43.33-.8.6-1.21.91-.44-.36-.82-.68-1.28-1.06-.4.55-.81.77-1.2.78,0-.02,0-.03,0-.05-.08,0-.15.02-.23.03-.42-.08-.82-.39-1.22-.81-.13.1-.26.19-.38.29-.11-.28-.21-.54-.31-.81l-1.37.32.13.54-1.71-1.83c-.54.38-.96.66-1.38.96-.46-.35-.86-.66-1.26-.97-.46.33-.87.62-1.33.95-.44-.34-.84-.64-1.22-.94-.49.3-.92.55-1.37.82-.43-.39-.81-.73-1.2-1.09-.47.36-.88.67-1.32,1-.43-.31-.85-.6-1.26-.9-.47.3-.89.56-1.34.84-.44-.36-.82-.69-1.25-1.04-.46.33-.87.62-1.28.91-.46-.36-.86-.67-1.32-1.02-.84,1.15-1.7.95-2.5.04L0,28.5l2.17,2.32c.46-.34.82-.62,1.33-1l2.38,2.54c.56-.41.96-.72,1.43-1.07.85.81,1.65,1.57,2.47,2.35.5-.34.88-.61,1.42-.98l1.29,1.38c.55.15,1.08.35,1.59.6,1.04-.63,1.17-.43,1.9.9-.05.06-.1.12-.15.19.72.56,1.38,1.22,1.98,1.96.31.38.6.78.89,1.18,1.23,1.03,2.29,2.11,3.28,3.35-.11-.02-.23-.03-.35-.05-.11.5-.2.93-.29,1.34.56.25.98.43,1.41.63-.09.57-.16,1.06-.24,1.6.97.35,1.88.68,2.89,1.05-.15.2-.3.4-.46.62l.62.66-.65,2.16c.59.28,1.01.48,1.52.72-.65,1.32-.02,2.01,1.19,2.31-.07.61-.13,1.11-.19,1.6.5.21.92.39,1.39.59-.09.56-.18,1.05-.27,1.64.67.08,1.07.31,1.28.65-.01.01-.02.02-.04.04.05.06.09.12.14.18.14.4.07.91-.09,1.46.15.07.3.13.44.19-.19.23-.36.45-.54.67l.96,1.02.41-.38-.73,2.4c.6.28,1.05.5,1.52.71-.08.57-.14,1.07-.21,1.58.51.23.97.44,1.49.68-.07.55-.14,1.04-.2,1.53.5.28.94.52,1.39.77-.12.57-.23,1.07-.34,1.59.55.23,1.02.42,1.52.64-.05.53-.1,1.04-.15,1.55.49.26.94.5,1.4.74-.1.56-.18,1.06-.28,1.6.51.23.97.45,1.43.65-.08.58-.15,1.08-.22,1.65,1.41.15,1.67,1,1.29,2.15l2.99.91.92-3.04c-.53-.22-.95-.4-1.53-.65l1.01-3.33c-.64-.27-1.1-.47-1.64-.7.28-1.14.54-2.22.8-3.31-.55-.26-.97-.46-1.56-.74l.55-1.8c-.15-.56-.24-1.11-.28-1.67-1.07-.58-.96-.8-.17-2.09.08.01.16.02.24.03.12-.9.36-1.8.71-2.7.18-.46.37-.91.57-1.35.28-1.57.68-3.04,1.27-4.51.04.11.09.21.13.33.49-.16.91-.29,1.3-.42-.06-.61-.11-1.06-.16-1.53.54-.21,1-.39,1.51-.59-.18-1.01-.35-1.97-.54-3.03.25.03.5.06.77.09l.26-.86,2.19-.51c-.05-.65-.09-1.12-.14-1.68,1.48-.1,1.76-.99,1.41-2.19.56-.24,1.02-.44,1.48-.64-.07-.54-.12-1-.18-1.5.53-.2,1-.38,1.56-.58-.27-.62-.27-1.09-.08-1.43.02,0,.03.01.05.02.03-.07.06-.14.09-.21.28-.32.75-.52,1.31-.65-.02-.16-.04-.32-.06-.47.29.05.57.09.85.13l.41-1.34-.53-.16,2.44-.57c-.06-.66-.1-1.16-.14-1.67.53-.22,1-.42,1.47-.61-.05-.56-.1-1.07-.16-1.63.51-.21.97-.4,1.42-.59,0-.58-.02-1.08-.03-1.6.56-.18,1.03-.33,1.54-.5-.08-.59-.14-1.09-.21-1.64.49-.22.95-.43,1.42-.64-.02-.55-.04-1.06-.06-1.58.54-.2,1.01-.37,1.52-.56-.05-.56-.1-1.06-.14-1.56.54-.22,1.01-.42,1.54-.63-.57-1.3.02-1.95,1.22-2.19l-.71-3.04-3.1.72Zm-40.05,23.65c-.11-.02-.22-.03-.34-.05l.16-.15.18.2Zm20.33,11.72l-.21-.06.08-.26c.04.11.08.21.13.32Zm-7.75-6.26s-.06-.08-.09-.13c.06-.04.11-.08.16-.12l-.08.25Zm-3.44-8.89l-.18-.19c.05,0,.1,0,.15-.01,0,.07.02.14.02.2Zm9.43,1.36c-.06-.03-.13-.06-.19-.08l.25-.06s-.04.09-.06.14Zm1.66-9.78l-.26.06c.07-.09.14-.18.21-.27l.05.21Z"/>
      <path class="cls-1" d="m75.51,38.97c-.35.45-.63.81-1.03,1.31l-2.95-1.84c-.43.55-.74.94-1.1,1.4-1.03-.56-2-1.09-2.99-1.63-.39.46-.69.82-1.12,1.32l-1.6-1c-.57,0-1.14-.06-1.69-.16-.84.88-1.02.72-2.07-.37l.1-.22c-.84-.35-1.65-.82-2.42-1.38-.39-.29-.78-.59-1.16-.9-1.45-.68-2.76-1.44-4.04-2.39.12-.01.23-.03.35-.05-.02-.51-.04-.95-.06-1.37-.6-.09-1.06-.16-1.53-.24-.06-.57-.12-1.07-.18-1.61-1.02-.09-1.99-.17-3.07-.27.09-.23.19-.46.29-.72l-.77-.48.07-2.25c-.64-.12-1.1-.2-1.66-.3.29-1.45-.5-1.95-1.75-1.92-.09-.6-.16-1.1-.24-1.59-.54-.08-.99-.14-1.49-.21-.06-.57-.1-1.06-.16-1.65-.67.1-1.12-.02-1.4-.3.01-.01.02-.03.03-.04-.06-.05-.12-.09-.18-.14-.24-.35-.31-.86-.29-1.43-.16-.02-.32-.05-.47-.07.12-.27.23-.53.35-.79l-1.19-.74-.29.47.08-2.5c-.65-.12-1.15-.21-1.65-.3-.07-.57-.14-1.07-.21-1.58-.56-.09-1.06-.18-1.61-.27-.07-.55-.14-1.04-.2-1.53-.56-.14-1.05-.26-1.55-.38-.03-.58-.05-1.09-.08-1.62-.59-.08-1.09-.15-1.64-.22-.09-.53-.17-1.03-.25-1.53-.54-.12-1.03-.23-1.54-.35-.05-.57-.1-1.07-.15-1.62-.55-.09-1.05-.18-1.55-.26-.08-.58-.14-1.08-.21-1.65-1.4.22-1.87-.53-1.8-1.74l-3.12-.1-.1,3.18c.57.08,1.02.15,1.65.23l-.11,3.48c.69.1,1.19.17,1.76.25.03,1.17.06,2.28.08,3.4.59.11,1.05.19,1.7.31l-.06,1.88c.28.5.52,1.02.7,1.55,1.18.29,1.13.52.71,1.98-.08,0-.16.02-.24.03.11.9.12,1.84.01,2.79-.05.49-.13.97-.2,1.46.14,1.59.13,3.11-.05,4.69-.07-.09-.14-.19-.22-.28-.43.27-.8.51-1.15.74.22.57.39,1,.56,1.44-.46.34-.86.64-1.31.96.44.93.84,1.81,1.3,2.79-.25.04-.49.07-.77.11l-.03.9-1.99,1.06c.22.62.38,1.05.57,1.59-1.4.47-1.44,1.41-.79,2.48-.48.38-.87.69-1.26,1,.2.5.37.93.56,1.4-.46.33-.87.62-1.35.96.42.53.54.98.44,1.36-.02,0-.03,0-.05,0,0,.08-.02.15-.03.23-.19.38-.59.7-1.1.96.06.15.12.3.18.45-.3.03-.58.06-.86.09l-.05,1.4.56.02-2.21,1.18c.23.62.39,1.09.57,1.58-.45.35-.85.66-1.26.97.2.53.38,1,.57,1.53-.44.34-.84.64-1.22.94.16.55.3,1.04.44,1.53-.49.32-.91.59-1.36.88.23.55.42,1.02.63,1.53-.41.34-.8.66-1.2.99.16.53.31,1.01.47,1.51-.46.33-.88.62-1.33.93.19.53.37,1,.55,1.47-.47.36-.87.66-1.32,1.01.89,1.11.48,1.89-.61,2.43l1.47,2.76,2.8-1.5c-.21-.53-.39-.96-.62-1.55l3.07-1.64c-.26-.65-.44-1.11-.66-1.65,1-.61,1.95-1.19,2.91-1.77-.21-.57-.36-1.01-.58-1.63l1.66-.89c.29-.5.62-.96.99-1.38-.34-1.17-.12-1.24,1.36-1.6.05.06.1.13.15.19.72-.55,1.53-1.02,2.41-1.4.45-.2.9-.38,1.36-.55,1.31-.92,2.63-1.67,4.09-2.3-.04.11-.09.21-.14.32.45.23.85.44,1.22.63.38-.47.67-.83.97-1.2.53.23.98.43,1.49.65.59-.84,1.15-1.64,1.76-2.52.15.19.31.39.48.61l.8-.43,1.91,1.19c.43-.5.73-.85,1.09-1.28,1.11.98,1.94.54,2.54-.55.57.23,1.03.41,1.5.59.34-.43.62-.79.93-1.19.52.24.98.44,1.51.69.25-.63.58-.96.96-1.07,0,.02.02.03.03.05.07-.03.14-.06.21-.09.43-.03.9.16,1.39.47.1-.13.2-.25.3-.38.17.24.34.47.51.7l1.23-.66-.26-.49,2.13,1.32c.43-.51.75-.89,1.09-1.28.53.22,1,.41,1.47.61.36-.43.68-.83,1.04-1.26.51.21.97.4,1.42.59.4-.41.75-.77,1.11-1.15.52.27.97.49,1.44.74.36-.47.67-.87,1.01-1.31.5.19.97.36,1.46.55.38-.41.72-.77,1.08-1.16.52.24.97.45,1.47.68.36-.43.68-.82,1-1.2.54.22,1.01.42,1.54.64.51-1.33,1.4-1.36,2.41-.69l1.65-2.65-2.7-1.68Zm-45.05-11.6c-.07-.09-.14-.18-.2-.27h.21s0,.27,0,.27Zm6.09,22.66l-.1-.19.24-.13c-.05.11-.09.21-.13.32Zm-1.05-9.91c0-.05.02-.1.03-.15.07.01.14.02.2.03l-.23.12Zm3.86-8.72v-.26s.08.06.13.1c-.05.06-.09.11-.13.16Zm5.7,7.63c-.02-.07-.05-.13-.08-.19l.22.14s-.09.04-.14.05Zm8.09-5.74l-.22-.14c.11-.01.23-.03.34-.04l-.11.18Z"/>
      <path class="cls-1" d="m70.3,62.53c-.57.07-1.02.12-1.66.2l-.79-3.39c-.69.08-1.19.14-1.77.21-.33-1.13-.64-2.19-.96-3.27-.61.05-1.07.09-1.72.14l-.43-1.84c-.4-.41-.76-.85-1.08-1.31-1.22.03-1.23-.21-1.2-1.73l.23-.09c-.34-.84-.59-1.74-.73-2.69-.07-.48-.13-.97-.18-1.46-.55-1.5-.93-2.98-1.16-4.55.09.07.19.14.28.22.34-.38.64-.7.92-1.01-.36-.49-.63-.86-.91-1.25.36-.45.67-.84,1.01-1.27-.66-.79-1.29-1.53-1.98-2.36.22-.1.46-.19.71-.3l-.21-.88,1.64-1.54c-.37-.54-.64-.92-.96-1.39,1.23-.82,1.03-1.73.12-2.6.36-.49.66-.89.96-1.29-.33-.43-.6-.8-.91-1.21.36-.44.68-.82,1.06-1.28-.55-.4-.77-.81-.78-1.2.02,0,.03,0,.05,0,0-.08-.02-.15-.03-.23.08-.42.39-.82.81-1.22-.1-.13-.19-.26-.29-.38.28-.11.54-.21.81-.31l-.32-1.37-.54.13,1.83-1.71c-.38-.54-.66-.96-.96-1.38.35-.46.66-.86.97-1.26-.33-.46-.62-.87-.95-1.33.34-.44.64-.84.94-1.22-.3-.49-.55-.92-.82-1.37.39-.43.73-.81,1.09-1.2-.36-.47-.67-.88-1-1.32.31-.43.6-.85.9-1.26-.3-.47-.56-.89-.84-1.34.36-.44.69-.82,1.04-1.25-.33-.46-.62-.87-.91-1.28.36-.46.67-.86,1.02-1.32-1.15-.84-.95-1.7-.04-2.5L60.42,0l-2.32,2.17c.34.46.62.82,1,1.33l-2.54,2.38c.41.56.72.96,1.07,1.43-.81.85-1.57,1.65-2.35,2.47.34.5.61.88.98,1.42l-1.38,1.29c-.15.55-.35,1.08-.6,1.59.63,1.04.43,1.17-.9,1.9-.06-.05-.12-.1-.19-.15-.56.72-1.22,1.38-1.96,1.98-.38.31-.78.6-1.18.89-1.03,1.23-2.11,2.29-3.35,3.28.02-.11.03-.23.05-.35-.5-.11-.93-.2-1.34-.29-.25.56-.43.98-.63,1.41-.57-.09-1.06-.16-1.6-.24-.35.97-.68,1.88-1.05,2.89-.2-.15-.4-.3-.62-.46l-.66.62-2.16-.65c-.28.59-.48,1.01-.72,1.52-1.32-.65-2.01-.02-2.31,1.19-.61-.07-1.11-.13-1.6-.19-.21.5-.39.92-.59,1.39-.56-.09-1.05-.18-1.64-.27-.08.67-.31,1.07-.65,1.28-.01-.01-.02-.02-.04-.04-.06.05-.12.09-.18.14-.4.14-.91.07-1.46-.09-.07.15-.13.3-.19.44-.23-.19-.45-.36-.67-.54l-1.02.96.38.41-2.4-.73c-.28.6-.5,1.05-.71,1.52-.57-.08-1.07-.14-1.58-.21-.23.51-.44.97-.68,1.49-.55-.07-1.04-.14-1.53-.2-.28.5-.52.94-.77,1.39-.57-.12-1.07-.23-1.59-.34-.23.55-.42,1.02-.64,1.52-.53-.05-1.04-.1-1.55-.15-.26.49-.5.94-.74,1.4-.56-.1-1.06-.18-1.6-.28-.23.51-.45.97-.65,1.43-.58-.08-1.08-.15-1.65-.22-.15,1.41-1,1.67-2.15,1.29l-.91,2.99,3.04.92c.22-.53.4-.95.65-1.53l3.33,1.01c.27-.64.47-1.1.7-1.64,1.14.28,2.22.54,3.31.8.26-.55.46-.97.74-1.56l1.8.55c.56-.15,1.11-.24,1.67-.28.58-1.07.8-.96,2.09-.17-.01.08-.02.16-.03.24.9.12,1.8.36,2.7.71.46.18.91.37,1.35.57,1.57.28,3.04.68,4.51,1.27-.11.04-.21.09-.33.13.16.49.29.91.42,1.3.61-.06,1.06-.11,1.53-.16.21.54.39,1,.59,1.51,1.01-.18,1.97-.35,3.03-.54-.03.25-.06.5-.09.77l.86.26.51,2.19c.65-.05,1.12-.09,1.68-.14.1,1.48.99,1.76,2.19,1.41.24.56.44,1.02.64,1.48.54-.07,1-.12,1.5-.18.2.53.38,1,.58,1.56.62-.27,1.09-.27,1.43-.08,0,.02-.01.03-.02.05.07.03.14.06.21.09.32.28.52.75.65,1.31.16-.02.32-.04.47-.06-.05.29-.09.57-.13.85l1.34.41.16-.53.57,2.44c.66-.06,1.16-.1,1.67-.14.22.53.42,1,.61,1.47.56-.05,1.07-.1,1.63-.16.21.51.4.97.59,1.42.58,0,1.08-.02,1.6-.03.18.56.33,1.03.5,1.54.59-.08,1.09-.14,1.64-.21.22.49.43.95.64,1.42.55-.02,1.06-.04,1.58-.06.2.54.37,1.01.56,1.52.56-.05,1.06-.1,1.56-.14.22.54.42,1.01.63,1.54,1.3-.57,1.95.02,2.19,1.22l3.04-.71-.72-3.1Zm-23.65-40.05c.02-.11.03-.22.05-.34l.15.16-.2.18Zm-11.72,20.33l.06-.21.26.08c-.11.04-.21.08-.32.13Zm6.26-7.75s.08-.06.13-.09c.04.06.08.11.12.16l-.25-.08Zm8.89-3.44l.19-.18c0,.05,0,.1.01.15-.07,0-.14.02-.2.02Zm-1.36,9.43c.03-.06.06-.13.08-.19l.06.25s-.09-.04-.14-.06Zm9.78,1.66l-.06-.26c.09.07.18.14.27.21l-.21.05Z"/>
      <path class="cls-1" d="m49.95,75.51c-.45-.35-.81-.63-1.31-1.03l1.84-2.95c-.55-.43-.94-.74-1.4-1.1.56-1.03,1.09-2,1.63-2.99-.46-.39-.82-.69-1.32-1.12l1-1.6c0-.57.06-1.14.16-1.69-.88-.84-.72-1.02.37-2.07l.22.1c.35-.84.82-1.65,1.38-2.42.29-.39.59-.78.9-1.16.68-1.45,1.44-2.76,2.39-4.04.01.12.03.23.05.35.51-.02.95-.04,1.37-.06.09-.6.16-1.06.24-1.53.57-.06,1.07-.12,1.61-.18.09-1.02.17-1.99.27-3.07.23.09.46.19.72.29l.48-.77,2.25.07c.12-.64.2-1.1.3-1.66,1.45.29,1.95-.5,1.92-1.75.6-.09,1.1-.16,1.59-.24.08-.54.14-.99.21-1.49.57-.06,1.06-.1,1.65-.16-.1-.67.02-1.12.3-1.4.01.01.03.02.04.03.05-.06.09-.12.14-.18.35-.24.86-.31,1.43-.29.02-.16.05-.32.07-.47.27.12.53.23.79.35l.74-1.19-.47-.29,2.5.08c.12-.65.21-1.15.3-1.65.57-.07,1.07-.14,1.58-.21.09-.56.18-1.06.27-1.61.55-.07,1.04-.14,1.53-.2.14-.56.26-1.05.38-1.55.58-.03,1.09-.05,1.62-.08.08-.59.15-1.09.22-1.64.53-.09,1.03-.17,1.53-.25.12-.54.23-1.03.35-1.54.57-.05,1.07-.1,1.62-.15.09-.55.18-1.05.26-1.55.58-.08,1.08-.14,1.65-.21-.22-1.4.53-1.87,1.74-1.8l.1-3.12-3.18-.1c-.08.57-.15,1.02-.23,1.65l-3.48-.11c-.1.69-.17,1.19-.25,1.76-1.17.03-2.28.06-3.4.08-.11.59-.19,1.05-.31,1.7l-1.88-.06c-.5.28-1.02.52-1.55.7-.29,1.18-.52,1.13-1.98.71,0-.08-.02-.16-.03-.24-.9.11-1.84.12-2.79.01-.49-.05-.97-.13-1.46-.2-1.59.14-3.11.13-4.69-.05.09-.07.19-.14.28-.22-.27-.43-.51-.8-.74-1.15-.57.22-1,.39-1.44.56-.34-.46-.64-.86-.96-1.31-.93.44-1.81.84-2.79,1.3-.04-.25-.07-.49-.11-.77l-.9-.03-1.06-1.99c-.62.22-1.05.38-1.59.57-.47-1.4-1.41-1.44-2.48-.79-.38-.48-.69-.87-1-1.26-.5.2-.93.37-1.4.56-.33-.46-.62-.87-.96-1.35-.53.42-.98.54-1.36.44,0-.02,0-.03,0-.05-.08,0-.15-.02-.23-.03-.38-.19-.7-.59-.96-1.1-.15.06-.3.12-.45.18-.03-.3-.06-.58-.09-.86l-1.4-.05-.02.56-1.18-2.21c-.62.23-1.09.39-1.58.57-.35-.45-.66-.85-.97-1.26-.53.2-1,.38-1.53.57-.34-.44-.64-.84-.94-1.22-.55.16-1.04.3-1.53.44-.32-.49-.59-.91-.88-1.36-.55.23-1.02.42-1.53.63-.34-.41-.66-.8-.99-1.2-.53.16-1.01.31-1.51.47-.33-.46-.62-.88-.93-1.33-.53.19-1,.37-1.47.55-.36-.47-.66-.87-1.01-1.32-1.11.89-1.89.48-2.43-.61l-2.76,1.47,1.5,2.8c.53-.21.96-.39,1.55-.62l1.64,3.07c.65-.26,1.11-.44,1.65-.66.61,1,1.19,1.95,1.77,2.91.57-.21,1.01-.36,1.63-.58l.89,1.66c.5.29.96.62,1.38.99,1.17-.34,1.24-.12,1.6,1.36-.06.05-.13.1-.19.15.55.72,1.02,1.53,1.4,2.41.2.45.38.9.55,1.36.92,1.31,1.67,2.63,2.3,4.09-.11-.04-.21-.09-.32-.14-.23.45-.44.85-.63,1.22.47.38.83.67,1.2.97-.23.53-.43.98-.65,1.49.84.59,1.64,1.15,2.52,1.76-.19.15-.39.31-.61.48l.43.8-1.19,1.91c.5.43.85.73,1.28,1.09-.98,1.11-.54,1.94.55,2.54-.23.57-.41,1.03-.59,1.5.43.34.79.62,1.19.93-.24.52-.44.98-.69,1.51.63.25.96.58,1.07.96-.02,0-.03.02-.05.03.03.07.06.14.09.21.03.43-.16.9-.47,1.39.13.1.25.2.38.3-.24.17-.47.34-.7.51l.66,1.23.49-.26-1.32,2.13c.51.43.89.75,1.28,1.09-.22.53-.41,1-.61,1.47.43.36.83.68,1.26,1.04-.21.51-.4.97-.59,1.42.41.4.77.75,1.15,1.11-.27.52-.49.97-.74,1.44.47.36.87.67,1.31,1.01-.19.5-.36.97-.55,1.46.41.38.77.72,1.16,1.08-.24.52-.45.97-.68,1.47.43.36.82.68,1.2,1-.22.54-.42,1.01-.64,1.54,1.33.51,1.36,1.4.69,2.41l2.65,1.65,1.68-2.7Zm11.6-45.05c.09-.07.18-.14.27-.2v.21s-.27,0-.27,0Zm-22.66,6.09l.19-.1.13.24c-.11-.05-.21-.09-.32-.13Zm9.91-1.05c.05,0,.1.02.15.03-.01.07-.02.14-.03.2l-.12-.23Zm8.72,3.86h.26s-.06.08-.1.13c-.06-.05-.11-.09-.16-.13Zm-7.63,5.7c.07-.02.13-.05.19-.08l-.14.22s-.04-.09-.05-.14Zm5.74,8.09l.14-.22c.01.11.03.23.04.34l-.18-.11Z"/>
      <path class="cls-1" d="m26.4,70.3c-.07-.57-.12-1.02-.2-1.66l3.39-.79c-.08-.69-.14-1.19-.21-1.77,1.13-.33,2.19-.64,3.27-.96-.05-.61-.09-1.07-.14-1.72l1.84-.43c.41-.4.85-.76,1.31-1.08-.03-1.22.21-1.23,1.73-1.2l.09.23c.84-.34,1.74-.59,2.69-.73.48-.07.97-.13,1.46-.18,1.5-.55,2.98-.93,4.55-1.16-.07.09-.14.19-.22.28.38.34.7.64,1.01.92.49-.36.86-.63,1.25-.91.45.36.84.67,1.27,1.01.79-.66,1.53-1.29,2.36-1.98.1.22.19.46.3.71l.88-.21,1.54,1.64c.54-.37.92-.64,1.39-.96.82,1.23,1.73,1.03,2.6.12.49.36.89.66,1.29.96.43-.33.8-.6,1.21-.91.44.36.82.68,1.28,1.06.4-.55.81-.77,1.2-.78,0,.02,0,.03,0,.05.08,0,.15-.02.23-.03.42.08.82.39,1.22.81.13-.1.26-.19.38-.29.11.28.21.54.31.81l1.37-.32-.13-.54,1.71,1.83c.54-.38.96-.66,1.38-.96.46.35.86.66,1.26.97.46-.33.87-.62,1.33-.95.44.34.84.64,1.22.94.49-.3.92-.55,1.37-.82.43.39.81.73,1.2,1.09.47-.36.88-.67,1.32-1,.43.31.85.6,1.26.9.47-.3.89-.56,1.34-.84.44.36.82.69,1.25,1.04.46-.33.87-.62,1.28-.91.46.36.86.67,1.32,1.02.84-1.15,1.7-.95,2.5-.04l2.28-2.14-2.17-2.32c-.46.34-.82.62-1.33,1l-2.38-2.54c-.56.41-.96.72-1.43,1.07-.85-.81-1.65-1.57-2.47-2.35-.5.34-.88.61-1.42.98l-1.29-1.38c-.55-.15-1.08-.35-1.59-.6-1.04.63-1.17.43-1.9-.9.05-.06.1-.12.15-.19-.72-.56-1.38-1.22-1.98-1.96-.31-.38-.6-.78-.89-1.18-1.23-1.03-2.29-2.11-3.28-3.35.11.02.23.03.35.05.11-.5.2-.93.29-1.34-.56-.25-.98-.43-1.41-.63.09-.57.16-1.06.24-1.6-.97-.35-1.88-.68-2.89-1.05.15-.2.3-.4.46-.62l-.62-.66.65-2.16c-.59-.28-1.01-.48-1.52-.72.65-1.32.02-2.01-1.19-2.31.07-.61.13-1.11.19-1.6-.5-.21-.92-.39-1.39-.59.09-.56.18-1.05.27-1.64-.67-.08-1.07-.31-1.28-.65.01-.01.02-.02.04-.04-.05-.06-.09-.12-.14-.18-.14-.4-.07-.91.09-1.46-.15-.07-.3-.13-.44-.19.19-.23.36-.45.54-.67l-.96-1.02-.41.38.73-2.4c-.6-.28-1.05-.5-1.52-.71.08-.57.14-1.07.21-1.58-.51-.23-.97-.44-1.49-.68.07-.55.14-1.04.2-1.53-.5-.28-.94-.52-1.39-.77.12-.57.23-1.07.34-1.59-.55-.23-1.02-.42-1.52-.64.05-.53.1-1.04.15-1.55-.49-.26-.94-.5-1.4-.74.1-.56.18-1.06.28-1.6-.51-.23-.97-.45-1.43-.65.08-.58.15-1.08.22-1.65-1.41-.15-1.67-1-1.29-2.15l-2.99-.91-.92,3.04c.53.22.95.4,1.53.65l-1.01,3.33c.64.27,1.1.47,1.64.7-.28,1.14-.54,2.22-.8,3.31.55.26.97.46,1.56.74l-.55,1.8c.15.56.24,1.11.28,1.67,1.07.58.96.8.17,2.09-.08-.01-.16-.02-.24-.03-.12.9-.36,1.8-.71,2.7-.18.46-.37.91-.57,1.35-.28,1.57-.68,3.04-1.27,4.51-.04-.11-.09-.21-.13-.33-.49.16-.91.29-1.3.42.06.61.11,1.06.16,1.53-.54.21-1,.39-1.51.59.18,1.01.35,1.97.54,3.03-.25-.03-.5-.06-.77-.09l-.26.86-2.19.51c.05.65.09,1.12.14,1.68-1.48.1-1.76.99-1.41,2.19-.56.24-1.02.44-1.48.64.07.54.12,1,.18,1.5-.53.2-1,.38-1.56.58.27.62.27,1.09.08,1.43-.02,0-.03-.01-.05-.02-.03.07-.06.14-.09.21-.28.32-.75.52-1.31.65.02.16.04.32.06.47-.29-.05-.57-.09-.85-.13l-.41,1.34.53.16-2.44.57c.06.66.1,1.16.14,1.67-.53.22-1,.42-1.47.61.05.56.1,1.07.16,1.63-.51.21-.97.4-1.42.59,0,.58.02,1.08.03,1.6-.56.18-1.03.33-1.54.5.08.59.14,1.09.21,1.64-.49.22-.95.43-1.42.64.02.55.04,1.06.06,1.58-.54.2-1.01.37-1.52.56.05.56.1,1.06.14,1.56-.54.22-1.01.42-1.54.63.57,1.3-.02,1.95-1.22,2.19l.71,3.04,3.1-.72Zm40.05-23.65c.11.02.22.03.34.05l-.16.15-.18-.2Zm-20.33-11.72l.21.06-.08.26c-.04-.11-.08-.21-.13-.32Zm7.75,6.26s.06.08.09.13c-.06.04-.11.08-.16.12l.08-.25Zm3.44,8.89l.18.19c-.05,0-.1,0-.15.01,0-.07-.02-.14-.02-.2Zm-9.43-1.36c.06.03.13.06.19.08l-.25.06s.04-.09.06-.14Zm-1.66,9.78l.26-.06c-.07.09-.14.18-.21.27l-.05-.21Z"/>
    </g>
  </g>
</svg>