<?xml version="1.0" encoding="UTF-8"?>
<svg id="Layer_2" data-name="Layer 2" xmlns="http://www.w3.org/2000/svg" viewBox="0 0 93.16 93.16">
  <defs>
    <style>
      .cls-1 {
        fill: #fff;
        stroke-width: 0px;
      }
    </style>
  </defs>
  <g id="Layer_1-2" data-name="Layer 1">
    <g>
      <g id="_Radial_Repeat_" data-name="&amp;lt;Radial Repeat&amp;gt;">
        <g>
          <g id="WNsNV2">
            <path class="cls-1" d="m31.92,39.6l2.89-.7.72,2.94c-.51.19-.92.34-1.49.54l.78,3.22c-.62.23-1.07.39-1.59.58.2,1.1.4,2.13.59,3.19-.53.22-.94.39-1.52.62l.42,1.74c-.17.52-.28,1.05-.35,1.58-1.05.5-.96.7-.28,1.98.08,0,.16-.01.23-.02.07.86.25,1.73.53,2.6.14.44.31.88.47,1.31.19,1.55.5,3,1,4.47l-.31.07,1.21,4.96c.57-.03,1.06-.07,1.65-.11l1.58,6.47c.59-.05,1.06-.1,1.42-.13,1.11.94-.14,3.76,2.73,2.91.18.52.35.96.5,1.41.56-.06,1.04-.1,1.52-.15l.32,1.29-4.63,1.13c-.21-.48-.41-.91-.65-1.46l-3.08.75c-.07-.48-.19-.84-.39-1.09h0s-.32-1.3-.32-1.3c-.48.05-.96.1-1.52.16-.16-.45-.32-.89-.5-1.41-2.87.86-1.63-1.97-2.73-2.91-.36.03-.83.08-1.42.13l-1.58-6.47c-.6.04-1.08.07-1.65.11l-1.21-4.96.3-.07c-.5-1.47-.81-2.92-1-4.47-.17-.44-.33-.87-.47-1.31-.28-.87-.47-1.74-.53-2.6-.08,0-.15.02-.23.02-.1-.19-.19-.35-.26-.5.49-.2.88-.36,1.27-.52-.04-.54-.08-1.02-.11-1.51.5-.19.95-.37,1.45-.56-.04-.52-.07-1-.11-1.46.49-.24.92-.44,1.37-.66-.09-.55-.16-1.02-.24-1.52.53-.19.99-.35,1.48-.53-.02-.51-.04-.99-.06-1.48.48-.22.91-.42,1.37-.63-.06-.54-.12-1.01-.18-1.53.49-.2.94-.37,1.38-.55-.04-.55-.08-1.03-.12-1.58,1.35-.07,1.64-.86,1.34-1.97Z"/>
          </g>
          <g id="WNsNV2-2" data-name="WNsNV2">
            <path class="cls-1" d="m26.87,35.39l2.78,1.05-1.07,2.83c-.53-.13-.95-.24-1.53-.39l-1.17,3.1c-.64-.16-1.1-.28-1.64-.42-.45,1.02-.88,1.98-1.31,2.96-.56-.12-.99-.21-1.61-.35l-.63,1.68c-.43.33-.82.7-1.18,1.1-1.15-.18-1.19.04-1.34,1.48.07.04.14.08.2.11-.43.75-.77,1.57-1.03,2.45-.13.45-.24.9-.35,1.35-.72,1.39-1.28,2.76-1.7,4.26l-.3-.11-1.8,4.78c.49.3.91.54,1.43.85l-2.35,6.23c.52.29.93.52,1.24.69.38,1.4-2.24,3.03.61,3.94-.14.53-.26.99-.38,1.45.5.27.92.5,1.34.73l-.47,1.25-4.46-1.68c.09-.51.18-.98.29-1.58l-2.97-1.12c.21-.43.31-.8.3-1.12h0s.47-1.24.47-1.24c-.42-.23-.84-.46-1.34-.73.12-.46.24-.92.38-1.45-2.85-.91-.23-2.55-.61-3.94-.31-.18-.73-.4-1.25-.69l2.35-6.23c-.51-.3-.93-.55-1.42-.84l1.8-4.78.29.11c.42-1.5.98-2.87,1.7-4.26.11-.46.22-.91.35-1.35.26-.88.6-1.7,1.03-2.45-.07-.04-.14-.07-.2-.11.02-.21.04-.4.07-.56.51.11.92.2,1.34.29.27-.47.51-.89.76-1.31.52.12.99.23,1.51.35.26-.45.5-.87.74-1.27.54.08,1.01.15,1.5.23.24-.5.44-.93.66-1.39.55.15,1.01.27,1.52.4.27-.43.52-.84.78-1.26.52.09.99.17,1.48.25.25-.48.47-.91.72-1.37.52.12.98.22,1.45.33.28-.48.52-.9.79-1.37,1.16.7,1.84.22,2.22-.87Z"/>
          </g>
        </g>
      </g>
      <g id="_Radial_Repeat_-2" data-name="&amp;lt;Radial Repeat&amp;gt;">
        <g>
          <g id="WNsNV2-3" data-name="WNsNV2">
            <path class="cls-1" d="m59.96,37.38l-.83,2.85-2.9-.85c.09-.53.17-.96.28-1.56l-3.18-.93c.11-.65.2-1.12.29-1.67-1.05-.37-2.04-.72-3.05-1.08.08-.57.14-1.01.22-1.63l-1.72-.5c-.37-.4-.76-.77-1.19-1.09.09-1.16-.13-1.18-1.57-1.23-.03.07-.07.14-.1.21-.78-.37-1.62-.65-2.52-.84-.46-.1-.91-.17-1.37-.25-1.44-.61-2.85-1.07-4.38-1.37l.09-.3-4.9-1.43c-.26.51-.47.95-.74,1.49l-6.39-1.87c-.25.54-.45.97-.6,1.29-1.36.49-3.19-2-3.88.91-.54-.1-1.01-.18-1.47-.27-.23.52-.43.95-.63,1.39l-1.28-.37,1.34-4.58c.52.05.99.1,1.59.17l.89-3.04c.44.18.82.25,1.14.21h0s1.28.38,1.28.38c.2-.44.39-.88.62-1.39.47.08.93.17,1.47.27.69-2.91,2.52-.43,3.88-.91.15-.33.35-.76.6-1.3l6.39,1.87c.26-.54.48-.97.73-1.48l4.9,1.43-.09.3c1.52.3,2.94.76,4.37,1.37.46.07.92.15,1.38.25.9.19,1.74.47,2.52.84.03-.07.06-.14.1-.21.21,0,.4.01.56.03-.07.52-.13.94-.19,1.36.49.24.92.44,1.36.66-.08.53-.15,1.01-.24,1.54.47.23.9.44,1.32.64-.04.54-.08,1.02-.11,1.51.52.2.96.37,1.44.56-.1.55-.19,1.03-.29,1.55.45.24.88.46,1.31.68-.05.53-.09,1-.14,1.5.5.21.94.4,1.42.61-.08.53-.15,1-.22,1.47.5.24.93.45,1.43.68-.61,1.21-.08,1.85,1.04,2.14Z"/>
          </g>
          <g id="WNsNV2-4" data-name="WNsNV2">
            <path class="cls-1" d="m66.13,35.11l-2.3,1.88-1.92-2.34c.38-.39.68-.7,1.11-1.13l-2.1-2.56c.46-.47.8-.81,1.18-1.21-.66-.9-1.28-1.75-1.91-2.62.39-.43.68-.75,1.1-1.22l-1.14-1.39c-.07-.54-.2-1.07-.37-1.57.73-.9.56-1.05-.61-1.9-.07.04-.13.08-.2.12-.43-.75-.97-1.45-1.61-2.11-.32-.34-.66-.66-1-.98-.84-1.32-1.75-2.49-2.84-3.6l.24-.2-3.24-3.95c-.5.28-.92.52-1.45.81l-4.22-5.15c-.51.3-.91.55-1.22.73-1.4-.37-1.5-3.45-3.72-1.44-.39-.39-.73-.72-1.06-1.05-.48.3-.89.54-1.3.79l-.84-1.03,3.69-3.02c.4.34.76.64,1.22,1.04L44.1,0c.27.4.54.67.82.82h0s.84,1.03.84,1.03c.41-.25.82-.5,1.3-.8.34.33.68.67,1.06,1.05,2.22-2.01,2.32,1.07,3.72,1.44.31-.18.71-.43,1.22-.73l4.22,5.15c.52-.29.94-.53,1.44-.81l3.24,3.95-.24.2c1.09,1.11,2,2.28,2.84,3.6.34.32.67.64,1,.98.63.66,1.17,1.37,1.61,2.11.07-.04.13-.08.2-.12.17.12.32.24.45.34-.35.39-.64.7-.92,1.02.27.47.51.89.76,1.31-.37.39-.69.74-1.06,1.13.26.46.5.87.73,1.27-.34.43-.64.8-.95,1.19.32.46.59.85.87,1.27-.4.4-.74.74-1.11,1.11.24.45.47.87.7,1.31-.34.41-.64.77-.96,1.16.29.46.55.86.83,1.3-.36.39-.69.74-1.01,1.09.28.48.52.9.79,1.37-1.19.65-1.11,1.48-.35,2.36Z"/>
          </g>
        </g>
      </g>
      <g id="_Radial_Repeat_-3" data-name="&amp;lt;Radial Repeat&amp;gt;">
        <g>
          <g id="WNsNV2-5" data-name="WNsNV2">
            <path class="cls-1" d="m47.86,62.77l-2.05-2.15,2.19-2.09c.42.35.75.63,1.21,1.02l2.39-2.29c.51.42.87.73,1.3,1.09.85-.73,1.65-1.41,2.47-2.1.45.35.8.62,1.3,1.01l1.3-1.24c.53-.11,1.05-.28,1.54-.48.95.66,1.09.48,1.85-.75-.04-.07-.09-.13-.13-.19.71-.49,1.37-1.08,1.98-1.76.31-.35.61-.7.9-1.07,1.25-.94,2.35-1.93,3.37-3.11l.22.23,3.69-3.53c-.32-.48-.58-.88-.92-1.38l4.81-4.6c-.34-.48-.62-.87-.82-1.16.26-1.43,3.33-1.76,1.15-3.82.35-.42.66-.78.97-1.14-.33-.46-.61-.85-.89-1.24l.96-.92,3.29,3.45c-.31.42-.59.81-.94,1.3l2.19,2.29c-.38.29-.63.59-.75.88h0s-.96.92-.96.92c.28.39.56.78.89,1.24-.31.36-.61.72-.97,1.14,2.18,2.06-.89,2.4-1.15,3.82.21.29.48.68.82,1.16l-4.82,4.6c.33.5.6.9.92,1.38l-3.69,3.53-.22-.23c-1.02,1.17-2.12,2.17-3.37,3.1-.29.36-.59.72-.9,1.07-.61.68-1.27,1.27-1.98,1.76.05.06.09.13.14.19-.11.18-.21.34-.3.47-.41-.32-.75-.58-1.08-.84-.45.31-.85.58-1.25.85-.42-.34-.79-.64-1.21-.97-.43.3-.83.56-1.21.83-.45-.31-.85-.58-1.26-.85-.43.35-.8.65-1.2.97-.43-.37-.8-.68-1.2-1.02-.43.27-.83.53-1.25.79-.43-.31-.82-.58-1.23-.87-.43.33-.82.61-1.24.92-.42-.33-.79-.63-1.17-.93-.46.31-.85.59-1.3.9-.74-1.13-1.56-.99-2.38-.17Z"/>
          </g>
          <g id="WNsNV2-6" data-name="WNsNV2">
            <path class="cls-1" d="m46.74,69.25l-.48-2.93,2.98-.49c.15.52.26.94.43,1.53l3.27-.54c.18.64.31,1.1.46,1.63,1.11-.12,2.16-.23,3.22-.34.17.55.31.97.5,1.57l1.77-.29c.5.21,1.02.36,1.55.47.42,1.08.63,1.01,1.95.43,0-.08,0-.16,0-.23.86,0,1.74-.12,2.63-.33.45-.11.9-.24,1.35-.37,1.56-.07,3.03-.27,4.54-.66l.05.31,5.04-.83c0-.58.01-1.06.02-1.66l6.57-1.08c0-.59-.02-1.07-.02-1.42,1.02-1.03,3.74.42,3.11-2.5.53-.14.99-.27,1.44-.4-.01-.57-.02-1.04-.04-1.52l1.31-.22.77,4.7c-.49.18-.94.34-1.51.54l.51,3.13c-.48.03-.85.13-1.12.3h0s-1.31.21-1.31.21c.01.48.02.96.04,1.52-.46.13-.92.25-1.44.4.63,2.93-2.09,1.48-3.11,2.5,0,.36.01.83.02,1.43l-6.57,1.08c0,.6-.01,1.08-.02,1.65l-5.04.83-.05-.31c-1.51.39-2.98.59-4.54.66-.45.13-.89.26-1.35.37-.89.22-1.77.33-2.63.33,0,.08,0,.16,0,.23-.19.09-.36.16-.52.22-.16-.5-.29-.9-.42-1.31-.54,0-1.03,0-1.51,0-.16-.51-.3-.97-.45-1.49-.53,0-1,0-1.47,0-.2-.51-.37-.95-.55-1.41-.55.04-1.03.08-1.54.12-.15-.54-.28-1.01-.41-1.52-.51-.02-.99-.03-1.48-.05-.18-.49-.35-.94-.52-1.41-.54.02-1.02.04-1.54.06-.16-.51-.3-.97-.44-1.42-.55,0-1.04,0-1.58,0,.03-1.35-.73-1.7-1.86-1.48Z"/>
          </g>
        </g>
      </g>
    </g>
  </g>
</svg>