<?xml version="1.0" encoding="UTF-8"?>
<svg id="Layer_2" data-name="Layer 2" xmlns="http://www.w3.org/2000/svg" viewBox="0 0 69.11 125.23">
  <defs>
    <style>
      .cls-1 {
        fill: #fff;
        stroke-width: 0px;
      }
    </style>
  </defs>
  <g id="Layer_1-2" data-name="Layer 1">
    <path class="cls-1" d="m30.27,12.23c-.43.51-.97.27-1.21,1.21-.05.18,0,.37-.04.52-.04.13-.25.22-.31.4-.07.21,0,.43-.12.66-.15.31-.65.53-.77.91-.15.45-.08,1.25-.59,1.52-.35.18-1.61-.29-1.35.59.14.47,1.75.99,2.19,1.18.77.35,1.2.79,2.11.84.4.02.76-.08,1.12-.07.63.02,1.77.31,2.33.62,1.74.96,2.49,3.36,2.55,5.25.01.44-.09.85-.06,1.26.04.52.29,1.13.39,1.64.1.46.08,1.01.23,1.45s.31.4.45-.03c.49-1.42.05-2.88.79-4.33.54-1.05,1.14-1.34,2.23-1.71s1.81-.23,2.74-.91c.98-.72,1.67-1.33,2.73-1.98.43-.26.91-.78.77-1.31-.2-.79-.87-.55-1.51-.74-.39-.11-.71-.33-.93-.69-.31-.5-.62-1.48-.94-2.08-.29-.56-.71-.97-.84-1.69-.16-.89.12-2.04-.15-2.81-.25-.71-.68-.98-.57-1.88.04-.31.24-.61.31-.88.18-.7.18-1.28.51-1.95.17-.34.48-.66.64-.98.23-.47.19-.9.51-1.38.35-.53,1.9-1.83,2.49-2.08.67-.27,1.03-.2,1.67-.29.46-.07,1.17-.35,1.63-.41.2-.03,1.08-.09,1.24-.06.36.07,1.2.66,1.7.83.44.15,1.15.22,1.49.4.18.1.53.52.88.73,1.23.72,1.77,1.25,2.43,2.56,1.18,2.36.01,4.87-.06,7.36-.03,1.02.37,2.15-.22,3.01-.54.79-.75.64-1.47.99-.6.29-.7.53-.63,1.2.11,1.12,1.6,1.14,2.39,1.4.84.27,1.63.69,2.46.98,1.64.57,3.87.92,5.05,2.18,1.4,1.49,2.57,5.63,2.74,7.66.31,3.77.8,7.54,1.12,11.31.22,2.5.53,5.01.56,7.51s.25,4.85,0,7.23c-.23,2.09-.54,4.29-.63,6.4-.06,1.49.21,2.48.35,3.87.16,1.62-.14,2.42-.47,3.94-.09.42-.15,1.53-.43,1.81-.15.15-.55.1-.8.25-.24.15-.26.37-.44.54-.27.26-.72.29-1,.47-.23.15-.47.64-.8.64-.24,0-.19-.18-.18-.36.04-.49.51-1.48.49-1.84-.02-.2-.21-.19-.38-.18-.11.45-.61,1.11-.67,1.52-.21,1.35-.25,2.79-.36,4.15-.17,2.25-.33,4.5-.64,6.73-.24,1.76-.88,4.1-.76,5.84.12,1.93.62,4,.7,5.97.1,2.28-.42,5.3-.86,7.57-.73,3.74-2.96,7.14-3.34,10.92-.12,1.18.21,2.34.13,3.5-.05.74-.44,1.81-.43,2.46,0,.36.22.71.27,1.07.07.51-.06.91-.1,1.4-.02.28.15.7-.09.98-.23.25-1.8.18-2.22.17-1.28-.03-2.74-.06-4-.14-.21-.01-.47-.07-.67-.11-.09-.12-.09-1.26-.04-1.45.04-.14.26-.4.34-.58.23-.57.31-1.25.55-1.84.41-1.03,1.47-2.5,1.49-3.57,0-.25-.08-.46-.08-.7,0-.27.23-1.03-.06-1.19-.08-.04-.62-.11-.72-.09-.2.04-.3.25-.45.33-.11.06-.8.41-.85.42-.18.04-.36-.16-.6-.12s-.55.41-.95.47c-.35.05-.52-.14-.75-.12-.3.02-.81.33-1.13.35-.22.01-.45-.06-.61-.21-.11-.1-.14-.27-.21-.33-.18-.15-.31.02-.45-.35-.47-1.25,1.01-1.84,1.7-2.47,1.36-1.23,3.21-3.86,3.93-5.55.12-.27.19-.42.17-.74-.05-.98-1.22-2.59-1.83-3.37-2.63-3.38-4.84-7.14-6.55-11.08-1.14-2.62-1.35-3.73-1.75-6.54-.47-3.38-1.06-6.71-1.4-10.13-.27-2.73-.25-5.35-.35-8.08-.12-2.92.13-6.46-.45-9.24-.34-1.62-.97-3.05-1.23-4.74-.07-.43-.17-.86-.22-1.29h-.33c-.04.29-.13.57-.16.87-.17,2.36-.01,5.07,0,7.45.02,2.56-.12,3.99-.79,6.45-.1.36-.42.93-.46,1.23-.02.14.12.33.13.54.01.18-.04.73-.11.88s-.43.37-.55.64c-.18.38-.07.65-.36,1.04-.41.53-1.19.5-1.35,1.25-.7,3.28-1.7,6.58-2.25,9.9-.43,2.58-.5,5.24-.43,7.86.05,1.97.74,3.73.63,5.69-.19,3.44-.99,6.82-2.21,10.01-.8,2.11-.34,3.24-.61,5.23-.06.48-.43,1.17-.57,1.68-.66,2.5.18,4.82-.69,7.18-.24.65-.58.58-.98.91-.13.11-.21.34-.4.44-.16.08-.32.07-.49.14-.19.09-.22.28-.38.39-.31.22-.6.13-.92.21-.2.05-.42.23-.6.25-.24.02-.41-.15-.62-.14-.19,0-.33.16-.5.2-.51.12-1.35-.03-1.44-.66-.09-.69-.13-2.19.02-2.86.49-2.17,1.6-4.14,1.88-6.34.03-.22-.02-.46,0-.69.11-.83.48-1.68.55-2.47.12-1.39-.29-3.25-.42-4.7-.15-1.72-.41-3.57-.49-5.27-.15-3.02.64-5.95.85-8.93.13-1.93-.5-2.7-.93-4.41-.77-3.02-.14-6.53-.47-9.65-.21-1.98-.51-3.67-1.18-5.56-.2-.41-.49-.39-.78-.55-.88-.49-1.18-.76-1.13.57.08,2.25.49,4.39.28,6.67-.26,2.91-1.26,5.23-1.86,7.97-.8,3.65.48,5.3.67,8.61.11,1.92-.55,3.77-.42,5.48.18,2.47,1.19,5.2,1.47,7.73.14,1.26-.69,2.6-1.2,3.7-.44.95-.35,1.73-1.71,1.69-.46-.01-.44-.26-.72-.3-.14-.02-.23.05-.42.01-.45-.1-.35-.23-.54-.45-.22-.26-.85-.64-1.13-.98-.11-.14-.44-.73-.45-.89-.03-.26.17-.52.2-.77.06-.44-.03-.95,0-1.4.19-2.4,1.52-4.31.17-6.63-.75-1.29-1.8-2.55-2.57-3.82s-.89-2.85-.83-4.37c.07-1.88.51-3.59.14-5.47-.16-.82-.5-1.61-.67-2.42-.75-3.47-1.11-8.23-.98-11.77.08-2.19.5-4.36.54-6.54.03-1.81-.55-3.42-.64-5.2-.07-1.36-.02-2.79.07-4.14.11-1.62.21-2.64.07-4.29-.18-2.2-.17-3.57,0-5.76.22-2.81-.86-6.12-1.4-8.92-.07-.36.08-1.25-.55-.93-.12.41-.21.83-.34,1.23-.53,1.66-1.41,3.39-1.29,5.18.1,1.41.3,2.77.21,4.22-.16,2.89-1.15,5.8-.36,8.64.16.58.28,1.14.58,1.67.64,1.14,1.1,1.37,1.47,2.81s.17,1.62-.06,2.98c-.04.22.02,1.06-.26,1.07-.18,0-.32-.17-.45-.2-.45-.1-.93.8-1.4.88-.25.05-1.2.05-1.43-.01-.26-.08-.54-.6-.73-.81-.61-.65-1.36-1.22-1.71-2.09-.1-1.35,0-2.79-.09-4.13-.05-.7-.31-1.31-.41-1.97-.14-.86-.08-1.74-.15-2.59-.22-2.58-1.38-5.09-1.61-7.67s-.02-4.63.71-7.14c.17-.58.51-1.18.6-1.79.34-2.42.7-4.72,1.24-7.12.13-.57.55-1.61.6-2.08.02-.22-.07-.38-.06-.55.06-.82.3-1.6.41-2.4.26-1.94.19-3.26,1.09-5.09,1.55-3.13,3.77-2.85,6.71-3.83.48-.16.98-.4,1.46-.57,1.85-.64,2.64-.32,3.44-2.39.35-.92.48-1.73.37-2.72-.07-.68-.22-1.3-.28-2.04-.18-1.89-.52-3.19.03-5.1.25-.85.59-1.09,1.05-1.76.79-1.14.93-1.61,2.34-2.16,1.95-.76,5.53-1.15,7.5-.44,1.21.43,2.49,1.12,3.54,1.87s1.2,3.57.81,4.74c-.25.76-.77,1.44-1.03,2.13-.31.81-.03,1.63-.13,2.47-.02.17-.13.52-.23.65Zm3.17,50.45s.33-1.15.35-1.3c.14-1.03.31-1.81.49-2.81.31-1.71-.38-3.6-.66-5.34-.47-2.92-.9-6.23-.86-9.18.01-.78.15-1.53.07-2.32-.09-.83-.24-2.22-.44-3-.34-1.35-.71-.64-.93.23-.6,2.39-.75,5.62-.95,8.11-.22,2.78.2,4,1.02,6.57.65,2.02.47,3.48.74,5.51.15,1.15.43,2.47.86,3.53h.32Zm6.5-22.73l-.79,2.9c.4,2.09-.09,4.11-.14,6.18-.01.39-.04.97,0,1.34.03.27.2.34.32.1.04-.09.21-.75.23-.89.48-2.67,1.45-5.39,1.05-8.11-.07-.49-.27-.96-.3-1.46l-.15-.13c-.06-.01-.18.03-.22.07Zm24.35,20.13c.18-.39-.03-.8-.08-1.21-.14-1.4-.33-2.82-.41-4.23-.12-2.25.19-4.53-.5-6.74-.85-1.82-.78-3.76-1.04-5.7-.23-.23-.37-.04-.42.22-.16.85-.25,2.07-.35,2.95-.21,1.96-.37,4.1.14,6.03.16.6.53,1.11.68,1.71.28,1.13.38,2.43.66,3.63.2.87.45,2.12.72,2.94.11.34.2.48.6.4Zm-17.49-12.64c.32-.2-.58-.98-.68-1.23-.09-.24-.1-.52-.13-.77-.02-.16.12-.33-.15-.43-2.49.81-4.34,3.63-4.9,6.1-.82,3.61-.12,8.23,2.32,11.1.35.42,1.91,1.91,2.39,1.89.46-.01-.14-.53-.21-.64-.56-.86-.54-1.34-.76-2.26-.32-1.31-2.65-2.7-3.3-4.15-.77-1.73.51-3.65,1.05-5.23s0-3.34,1.75-4.29c.19-.1.66-.31.85-.35.64-.12,1.15.35,1.76.25Zm7.83,2.02c-.59-1.29-1.81-3.22-3.14-3.85-.71-.34-.54.14-.94.21-.23.04-.46-.13-.68-.12-.28.01-.78.35-1.13.34-.26.16-.15.86-.06,1.13.07.21.76,1.07.95,1.3.83,1.04,2.01,1.92,1.97,3.37-.03,1.04-.76.73-1.2,1.41l.04.17c.09.14,1.67.67,1.91.7.29.03.46-.13.7-.14.19,0,.4.08.63.08.42,0,1.17-.34,1.3.21h-.42c-.12.43.54.3.49.77h-.56c0,.33.38.47.28.84-1.12-.39-.41.18-.81.7-.4-.68-1.1-.91-.81.17l-.17.11c-.18-.38-.67-.6-.88-.88-.22-.3-.26-.75-.7-.92-.52-.2-1.36-.07-1.94-.1-.52-.03-1.18-.15-1.68-.15-.14,0-.42.02-.45.19-.03.19.78.44.98.55.76.42,1.3,1.1,2.04,1.54.57.34,1.44.57,1.91.88.12.08.38.5.51.63.59.55,1.96,1.07,2.45.15.13-.24.33-.96.38-1.24.5-2.76.2-5.56-.95-8.06Zm-6.25,6.67c-.16-.14-.24-.34-.51-.44-.08-.03-.83-.24-.89-.24-.85-.06-1.02,1.16-.94,1.78.13.89.8.21,1.08.25l.65.48c.38-.09.76.02,1.15.04.07.05.23.6.32.73.23.36.81.44,1.18.65,1.28.75,1.37,1.99.85,3.28-.37.91-.97,1.24-1.75,1.76-.17.41.83.09,1.02.03,1.13-.36,2.76-1.71,3.32-2.72.21-.37.34-.53.15-.96-.27-.64-1.86-2.22-2.46-2.6-.33-.2-.79-.3-1.14-.48-.81-.42-1.35-1.03-2.02-1.6Zm4.19,14.29c-.23.15-.12,4.13-.14,4.74-.04,1.31-.21,2.62-.36,3.93-.19,1.6-.38,3.31-.49,4.92s.12,4.75.74,6.22,1.61,2.78,2.29,4.17l.38.26c.14,0,.23-.2.24-.32.02-.42-.18-1.65-.29-2.1-.26-1.09-.97-2.13-1.17-3.19-.63-3.23-.37-6.68-.58-9.96-.16-2.59-.04-5.2-.21-7.73,0-.14-.07-.74-.1-.81-.05-.12-.19-.16-.32-.14Z"/>
  </g>
</svg>