<?xml version="1.0" encoding="UTF-8"?>
<svg id="Layer_2" data-name="Layer 2" xmlns="http://www.w3.org/2000/svg" viewBox="0 0 413.53 374.53">
  <defs>
    <style>
      .cls-1 {
        fill: #fff;
        stroke-width: 0px;
      }
    </style>
  </defs>
  <g id="Layer_1-2" data-name="Layer 1">
    <g>
      <g id="_Radial_Repeat_" data-name="&amp;lt;Radial Repeat&amp;gt;">
        <g>
          <path class="cls-1" d="m109.25,246.1c-.33.86-.53,1.55-.85,2.17-.77,1.5-1.57,2.99-2.4,4.46-.25.44-.6.82-1,1.36.13,1-1.05,3.7-1.69,4.04-.17.59-.21,1-.4,1.34-.82,1.48-1.6,3-2.56,4.4-.73,1.05-1.71,1.92-2.57,2.88-.59.65-1.12,1.36-1.75,1.96-.22.21-.64.19-.94.27-.21.3-.39.81-.75,1.04-1.7,1.08-3.44,2.11-5.2,3.09-.78.44-1.64.75-2.49,1.06-.3.11-.66.04-1.14.05-.39.77-1.26.74-2.13.75-.17,0-.36.09-.51.19-1.05.62-2.65.72-3.29.36-.87.2-1.49.5-2.09.46-1.36-.08-2.7-.34-4.06-.5-.24-.03-.5.13-.81.22-.13-.17-.29-.36-.35-.43-.75-.03-1.39-.06-2.11-.09-.11-.46-.38-.52-.95-.35-.36.11-.86-.29-1.3-.43-.63-.19-1.28-.31-1.9-.54-.6-.23-1.18-.54-1.74-.85-.45-.25-.84-.6-1.3-.81-.51-.24-1.13-.29-1.59-.6-.28-.19-.33-.7-.51-1.13-.17.13-.35.28-.47.37-.45-.21-.97-.32-1.25-.64-.25-.29-.24-.81-.37-1.35-.19.24-.35.43-.56.68-.56-.67-1.1-1.32-1.71-2.05.02-.01-.15.1-.33.22-.52-.62-1.04-1.23-1.7-2-.63.06-.81-.53-.81-1.3-1.21.03-.84-.8-.77-1.45-.9-.11-1.88-1.18-2.02-2.15-.03-.21-.05-.55-.17-.6-.66-.26-.69-.74-.48-1.35-1.05-.31-.93-1.15-.94-1.94,0-.23-.02-.54-.16-.67-.69-.62-.93-1.55-.52-2.42-.74,0-.88-.41-.79-1.05.07-.48.04-.97.05-1.46,0-.05,0-.13-.03-.16-1.09-1.04-.62-2.28-.47-3.49.03-.28-.1-.58-.18-.96-.02.01.13-.1.09-.07-.1-.63-.28-1.12-.24-1.58.26-2.95.82-5.84,1.77-8.64.16-.48.6-.86.82-1.33.26-.53.44-1.1.63-1.66.36-1.03.66-2.07,1.63-2.78.3-.22.23-.95.53-1.17,1.18-.86,1.33-2.58,2.74-3.23.07-.03.13-.12.15-.2.16-.66.57-.89.96-.74.43-.61.68-1.21,1.14-1.56,1.09-.83,2.28-1.54,3.42-2.31.74-.5,1.47-1.02,2.28-1.58.05.29.09.53.16.9.5-.5.22-2.09,1.59-.9-.05-1,.57-1.04,1.24-1.16.68-.13,1.31-.48,1.98-.67.4-.11.84-.1,1.4-.15.16.2.43,1.06.8-.14.04-.12.41-.17.64-.19.74-.06,1.48-.09,2.21-.13.02-.1.04-.2.06-.29.14.21.28.41.39.57.27-.24.54-.47.81-.71.07.06.13.11.2.17-.02.25-.05.5-.07.76.11.02.2.04.21.03.54-1.23,1.56-.58,2.38-.58,1.05,0,2.09.15,2.87.21.77.27,1.3.46,1.97.69.08-.05.28-.18.52-.34.36.28.68.86,1.26.14.24.82.63.9,1.12.29.37.24.54,1.25,1.04.39,1.43.31,2.79.61,4.27.93.03-.03.19-.18.39-.38.33.51.65,1.14,1.27.25.22.28.39.5.57.73.25-.24.45-.44.65-.65.14.24.28.48.37.65.47-.11.93-.26,1.41-.31.55-.06,1.25-.21.84,1.14,1.19-1.48,2.38-.65,3.48-.69.78-.03,1.55.05,2.44.08.05.08.17.3.42.73.1-.44.15-.66.2-.89.93-.43.42.66.85.81.79-1.25,2.04-.4,3.06-.63.43-.1.9,0,1.48.01.24.93.63.29.99-.37.24.4.39.67.71,1.2-.04-1.76,1.05-.93,1.68-1.1.42-.11.89-.11,1.33-.09.2,0,.4.17.55.07.49-.12.99-.23,1.48-.38.93-.27.59.62.86,1.09.29-.52.51-.93.78-1.42.26.26.42.43.59.6,1.12-1.22,2.55-.45,3.97-1,.58-1.03,2.04.16,2.99-.59.09.15.2.33.26.44,1.68-1.22,3.59-1.44,5.58-1.49.11-.12.21-.25.33-.36.09-.08.22-.13.41-.25.02.35.03.61.05.99.67-.28.47-1.93,1.43-1.15.78-.36,1.41-.66,1.87-.87l.99.47c.02-.24.04-.49.07-.91,1.34.25,2.35-1.29,3.9-.85.17-.22.37-.48.71-.92.03.36.02.47.04.56.05.16.12.32.18.48.12-.12.27-.23.35-.37.16-.28.28-.58.48-1,.24.36.4.61.6.9-.84.52-1.66,1.03-2.54,1.57-.04-.25-.07-.43-.13-.85l-.81,1.69c-.27-.28-.43-.45-.71-.73-.1.27-.28.5-.22.61.26.54-.06.73-.45.97-.8.49-1.6.99-2.35,1.56-.65.49-1.21,1.08-1.83,1.6-.2.17-.48.25-.71.39-.17.1-.42.23-.44.38-.1.64-.46.78-1.01.66-.56,1.27-1.65,1.96-2.67,2.73-.35.26-.66.6-.93.95-.27.34-.41.91-.87.51-.43.56-.84,1.13-1.29,1.67-.3.36-.62.72-.98,1.01-.23.19-.56.25-.9.38-.1.25-.16.73-.43.97-1.28,1.15-2.22,2.57-3.33,3.86-.16.19-.56.18-.86.27.1.96-.69,2.04-1.28,2.02-.55.9-1,1.71-1.52,2.48-.87,1.3-1.76,2.58-2.67,3.85-.3.41-.69.76-1.01,1.16-.13.16-.16.39-.24.59-.3.76-.53,1.59-1.32,1.58Z"/>
          <path class="cls-1" d="m113.89,316.18c.05-.66.32-1.09,1.1-.85.05.01.15,0,.16-.03.38-.97,1.47-.62,2.1-1.14.14.12.27.24.42.37.1-.09.16-.14.21-.21.14-.2.28-.58.41-.58,1.15,0,2.05-1.14,3.3-.7.2.07.52-.23.82-.37.12.15.26.34.46.61.64-1.57,2.19-.3,3.09-1.18.19.17.39.35.61.54.27-.16.53-.31.84-.49.1.22.18.4.29.67.82-1.32,1-.55,1.14.52.25-.53.4-.83.61-1.27.32.28.57.5.82.72,0-.07-.01-.14-.02-.21.63,0,1.26-.04,1.88.02.48.05.95.27,1.43.37.97.21,1.97.32,2.92.62.32.1.5.63.71.92.15-.17.33-.37.51-.57.15.29.31.57.49.91.82-.69,1.4.02,2.03.48.09.06.18.22.24.21.88-.18.91.35.85.98,0,.04.12.09.26.19.1-.27.18-.5.34-.96.34.44.57.75.92,1.21.23.06.75.11,1.16.35.37.22.61.66.94,1.04.03-.03.19-.19.32-.32.33.36.66.66.93,1.01.25.33.44.72.69,1.13.14-.08.34-.19.62-.35-.18,1.03,1.7.65,1.07,1.89,1.12.2,2.18,1.67,2.11,2.8,1.09-.01,1.24.2.85,1.26.26-.06.48-.11.82-.19.14.52.28,1.05.44,1.6.7.08.89.42.69,1.43.55.15.95.34.95,1.1,0,.51.55.99.74,1.53.39,1.07.69,2.16,1.03,3.25-.14.21-.28.41-.42.62.62.26,1.04,1.36.9,2.1-.06.31.01.64.03,1.09-.02.02-.2.17-.46.39,1.31.35.72,1.32.73,2.02.02.96-.5,2.01-.26,2.88.46,1.67-.2,3.13-.45,4.67-.06.39-.42.73-.7,1.19.02.02.21.13.48.3-.25.2-.48.39-.71.57.06.04.13.07.19.11-.19.4-.42.79-.57,1.21-.23.65-.43,1.31-.58,1.97-.16.65-.38,1.19-1.19,1.13.3,1.09-.77,2.94-1.85,3.32.37.92-.44,1.42-.8,2.05-.36.64-.82,1.34-1.42,1.72-1.41.91-2.07,2.67-3.77,3.22-.22.07-.39.3-.56.48-.12.12-.17.32-.3.4-.59.35-1.21.66-1.81.99-.87.48-1.73.98-2.6,1.45-.54.29-1.03.86-1.7.28-.75.91-1.53,1.15-2.6.8-.67,1.36-2.14.32-3.14,1.03-.14-.15-.31-.32-.47-.49-.06.02-.14.03-.15.06-.33.65-.98.82-2,.65-.75-.12-1.52-.09-2.42-.14-.03-.05-.17-.28-.32-.54-.29.32-.52.56-.74.8-.18-.18-.35-.36-.53-.54-.71.58-1.57.51-2.45.14-.2-.09-.41-.3-.59-.28-2.25.22-4.28-.83-6.44-1.09-2.42-.29-4.83-.67-7.24-1.03-.56-.08-1.11-.23-1.67-.36-.7-.17-1.39-.27-2.11-.08-.2.05-.5-.21-.78-.35-.85.66-1.87.3-2.86.27-.69-.02-1.38-.06-2.07-.12-.33-.03-.66-.13-.78-.15-1.66.1-3.12.18-4.58.27-.72.05-1.45.17-2.17.18-1.02.01-2.04-.05-3.06-.07-.13,0-.31-.04-.4.03-1.13.89-2.43.66-3.71.63-.25,0-.5.37-.76.39-.86.06-1.72.04-2.58.06-.21,0-.43,0-.62.07-.43.15-.83.41-1.27.52-.62.16-1.26.22-1.95.34,0-.13-.01-.33-.01-.38-.65.33-1.33.67-2.03,1.02-.24-.2-.46-.39-.81-.68.05.92-.27,1.17-1.06,1.02-.33-.06-.73.32-1.12.41-.4.09-.84.05-1.24.13-.28.05-.56.19-.82.33-.24.13-.44.45-.67.47-1.09.08-2.03.55-3.03.94-.59.23-1.33-.03-1.83.68-.18.26-.76.23-1.2.34-.39-.8.14-1.15.7-1.53,1.3-.9,2.58-1.83,3.88-2.73.7-.49,1.43-.92,2.1-1.43.69-.53,1.31-1.14,1.97-1.69.2-.17.46-.27.69-.42.16-.11.31-.25.47-.37.31-.23.63-.45,1.03-.58.27-.8.91-1.29,1.66-1.78.66-.43,1.15-1.1,1.75-1.63.29-.26.64-.46,1.03-.6.74-1.38,4.13-4.92,4.71-4.96.35-.53.59-.98.91-1.36.8-.93,1.65-1.83,2.47-2.75.13-.14.2-.34.27-.52.22-.52.44-1.01,1-.69.13-.33.21-.62.36-.86.64-1.03,1.29-2.05,1.98-3.05.37-.53.83-.99,1.39-1.64.04-.92.85-1.71,1.53-2.58.1-.13.32-.21.35-.35.29-1.18,1.23-1.9,1.92-2.79.07-.09.19-.21.17-.27-.39-1.26.75-1.92,1.12-2.88.27-.7.64-1.36.99-2.03.5-.97,1.08-1.9,1.52-2.89.36-.81.55-1.7.82-2.55.15-.49.3-.97.98-.66,0-1.4.89-2.96,1.63-3.25.47-.79.77-1.48,1.23-2.04.81-1,1.71-1.93,2.58-2.88.09-.1.24-.27.32-.25.88.25.91-.56,1.29-.96.49-.53,1.05-1.02,1.65-1.42.84-.55,1.73-1.03,2.62-1.49.16-.08.44.07.72.13Z"/>
          <path class="cls-1" d="m200.46,248.06c.6.37,1.11,1.74.97,2.36-.04.16.03.35.07.52.17.7.34,1.39.52,2.09.14.56.39,1.11.42,1.67.05.97-.03,1.94-.04,2.91,0,1.01.07,2.03-.01,3.03-.09,1.06-.31,2.1-.51,3.15-.16.83-.33,1.65-.57,2.46-.12.4-.4.76-.68,1.09-.17.64-.26,1.32-.54,1.91-.71,1.52-1.51,3-2.28,4.49-.1.2-.24.42-.42.52-.54.31-.94.64-1.09,1.33-.06.28-.65.44-1.05.69.06.06.2.19.45.44-1.01,1.04-1.98,2.15-3.07,3.1-.4.34-.81.65-1.15,1.06-.17.2-.57.21-.99.35-.09.58-.41,1.1-1.37.69.07,1.19-.91,1.28-1.58,1.63-.8.43-1.65.76-2.5,1.08-.32.12-.71.07-1.16.1-.02.71-.72.63-1.32.79-1.28.33-2.52.8-3.81,1.07-1.01.21-2.07.23-3.11.25-1.47.03-2.95.09-4.4-.06-1.45-.15-2.89-.49-4.32-.82-.79-.18-1.53-.57-2.32-.75-.48-.11-1.03.08-1.53,0-1.86-.31-3.7-.7-5.56-.99-.59-.09-1.22.06-1.81,0-.6-.06-1.18-.25-1.77-.37-.39-.08-.78-.14-1.41-.25-.31.04-.9.22-1.48.18-1.41-.1-2.81-.3-4.21-.44-.4-.04-.8,0-1.21-.12-.47.23-.97.91-1.12-.03-.65.16-1.23.38-1.83.44-.85.08-1.71.07-2.56.02-.23-.01-.45-.29-.67-.44-.74.74-2.81,1-3.74.44-.22.17-.46.34-.75.56-.12-.27-.21-.48-.37-.83-.5,1.32-1.48,1.04-2.41.98-.3-.02-.6.23-.91.26-.96.08-1.93.11-2.89.16-.08,0-.19-.03-.24,0-1.6,1.08-3.51.94-5.28,1.33-.45.1-.94.07-1.41.1-.02.09-.04.17-.06.26-.13-.22-.26-.44-.32-.54-.88.44-1.7.85-2.6,1.3-.02-.25-.04-.46-.06-.71-.63.16-.66,1.47-1.38.96-.83.38-1.49.68-2.23,1.01-.12-.16-.25-.35-.53-.73-.11,1.27-1.09,1.21-1.89,1.47-.16-.15-.37-.34-.75-.69.02.52.03.78.04,1.2-.96-.36-1.6.19-2.31.89-.05-.76.09-1.04.66-1.33.84-.43,1.55-1.12,2.32-1.69.18-.13.4-.2.58-.31.29-.19.57-.4.87-.58.23-.14.47-.25.7-.38.23-.13.63-.26.64-.41.04-.76.59-.7.97-.75.24-.33.38-.65.63-.83,1.27-.95,2.57-1.87,3.84-2.82.19-.14.3-.39.46-.59.12-.15.25-.43.37-.43.72.04.89-.46,1.13-.97.09-.19.52-.22.6-.24.48-.61.83-1.14,1.25-1.6.37-.41.79-.78,1.22-1.13.22-.18.53-.26.99-.48.12-.73.49-1.53,1.55-1.85.22-.06.23-.65.45-.89,1.35-1.49,2.74-2.94,4.09-4.43.27-.3.38-.75.62-1.09.2-.28.49-.5.75-.75.13-.12.35-.24.37-.37.11-.89.66-1.41,1.39-1.81.13-.07.14-.33.24-.48.38-.6.77-1.18,1.17-1.77.28-.43.59-.84.85-1.27.17-.28.23-.62.41-.9.96-1.49,2.02-2.93,2.9-4.47.97-1.71,1.77-3.52,2.68-5.27.22-.43.65-.75.87-1.18.23-.47.3-1.02.47-1.52.26-.74.38-1.65.89-2.17,1.13-1.18,1.11-2.86,2.05-4.09.51-.66.97-1.37,1.48-2.1.42.22.78.5.68-.48-.05-.44.71-.98,1.11-1.46.07-.08.27-.09.28-.15.21-1.18,1.29-1.58,2.05-2.24.74-.65,1.62-1.14,2.43-1.71.53-.37,1.03-.8,1.59-1.12,1.42-.82,2.8-1.83,4.34-2.3.8-.25,1.43-.92,2.33-.88.7.03,1.41-.02,2.15-.03,0-.05-.02-.23-.03-.39.71-.12,1.4-.23,2.2-.36,0,0,.09.18.21.43.89-.88,1.91-.77,2.97-.64.75.09,1.52.03,2.28.03.08,0,.21-.04.25,0,.53.54,1.07.49,1.66-.1.03.34.05.54.08.82.31-.2.53-.34.77-.49.2.27.38.5.62.83.2-.29.35-.5.54-.79.21.29.41.56.66.91.18-.3.32-.53.55-.9.12.47.2.78.29,1.12,1.35-.78,1.83-.67,2.46.47,1.04-.33,3.94.78,4.38,2.03.23-.06.47-.12.76-.2.22.42.5.83.97.38.16.46.31.91.5,1.45.3-.25.48-.4.74-.62,0,.32,0,.59,0,1.24.38-.29.62-.47.91-.7.14.56.25,1,.41,1.67.21-.36.3-.53.41-.72.06.01.18,0,.21.05.8,1.19,2.24,1.68,3.05,2.85.2.29.32.64.52,1.03.58-.13.92.1.85.82-.01.15.15.45.27.46.9.13.7.78.65,1.34,1.04.51,1.06.54,1.22,1.34.2.27.41.53.58.81.22.36.44.73.62,1.11.45.96.89,1.92,1.3,2.9.05.13-.12.35-.21.58Zm-61.53,32.97c0-.15,0-.29,0-.44-.55-.03-1.1-.06-1.65-.08,0,.14-.01.27-.02.41.56.04,1.12.08,1.68.11Z"/>
          <path class="cls-1" d="m10.87,353.37c.08-.25.15-.47.22-.71-1.36-.17-2.21-.83-2.18-1.49-.43-.29-.85-.46-1.1-.78-.61-.77-1.13-1.61-1.72-2.4-.38-.5-.9-.9-1.22-1.43-.86-1.4-1.66-2.83-2.44-4.27-.13-.25-.03-.62-.04-1.02-.65-.61-1.08-1.39-.77-2.42-.69-.16-1.04-1.64-.57-2.58-.79-.26-.61-1-.74-1.58-.13-.64-.12-1.3-.22-1.95-.25-1.59-.04-3.15.26-4.71.11-.54.05-1.1.14-1.64.18-.99.39-1.97.62-2.95.22-.95.39-1.93.75-2.83.53-1.34,1.2-2.62,1.82-3.93.02-.05.11-.07.12-.11.18-1.46,1.29-2.4,2-3.55.36-.59.87-1.09,1.3-1.63.14-.17.25-.36.41-.51.29-.29.6-.57.96-.75.17-.3.27-.68.51-.89.85-.71,1.77-1.35,2.64-2.04.21-.17.31-.47.52-.65.21-.18.5-.26.64-.33.48-.32.83-.59,1.21-.81.6-.35,1.24-.65,1.84-1,.69-.4,1.36-.82,2.07-1.26.14.2.25.36.39.55.11-.1.21-.16.21-.22.04-.54.33-.74.85-.66.13.02.33.06.41-.02,1.06-1.04,2.52-.79,3.77-1.17.6-.18,1.28-.13,1.92-.19.38-.03.75-.06,1.26-.1.07.07.23.25.39.42,0-.09,0-.18,0-.26.45-.11.9-.35,1.34-.32,1.52.14,3.02.37,4.53.56,1.01.13,2.03.21,3.03.38.91.16,1.79.44,2.69.63.63.13,1.27.19,1.9.31.51.09,1.01.23,1.51.32,1.09.18,2.22.25,3.28.55.59.17,1.27-.25,1.81.38.18.2.78.04,1.4.06.4-.54.73-.21.92.58.52-.93.69-.93,1.26-.14.55-.96,1.38-.26,2.08-.33.64-.07,1.3,0,1.95.07.68.07,1.36.2,2.13.31.92-.67,2.06-.3,3.17-.31.72,0,1.4.34,2.21-.12.63-.36,1.58-.14,2.39-.19.4-.02.8-.09,1.2-.08.22,0,.45.14.7.22.72-.56,2.89-.75,3.7-.3.5-.85,1.38-.51,2.1-.66.66-.14,1.36.03,2.01-.4.31-.21.82-.13,1.24-.13.7.01,1.4.07,2.22.11.03-.1.09-.35.15-.6.57-.11,1.15-.21,1.87-.34.01.01.14.17.29.35.08-.06.15-.1.21-.15.23-.19.44-.49.71-.56,1.29-.37,2.6-.67,3.98-1.02.02.04.09.22.13.3.33-.26.61-.58.96-.72.38-.16.82-.16,1.34-.24.04.05.21.23.37.42.1-.21.18-.43.32-.61.12-.16.27-.36.45-.41.5-.14,1.01-.21,1.59-.33.02.09.06.31.13.69.56-.42.45-1.74,1.52-.98.37-.54.67-1.13,1.45-.7-1.01-.06-.54,1.79-1.87,1.36-.2.77-.75,1.04-1.51.91-.29.45-.23,1.33-1.1.83-.69,1.16-1.64,1.87-2.77,2.19-.34.43-.66.83-1.01,1.27-.19-.29-.33-.49-.51-.75-.19.54-.26,1.04-.53,1.39-.25.32-.71.48-1.14.62-.5,1.16-1.53,1.73-2.66,2.26.21.82-.68,1-1.09,1.46-.82.92-1.78,1.71-2.65,2.59-1.3,1.32-2.57,2.66-3.85,4-.17.18-.23.46-.41.62-.24.21-.54.35-.74.47-.56.81-1.08,1.63-1.66,2.4-.83,1.11-1.7,2.21-2.58,3.29-.22.27-.54.44-.8.65-.14.3-.25.63-.45.91-.5.73-1.05,1.42-1.54,2.15-.34.52-.61,1.09-.93,1.63-.55.94-1.08,1.89-1.67,2.81-.23.35-.58.63-.77.96-.14.33-.27.65-.41.98-.12.28-.26.55-.39.82-.28.56-.38,1.28-1.17,1.41.23.74-1.52,4.21-1.97,4.38-.25.77-.39,1.38-.65,1.93-.43.89-.6,1.93-1.55,2.57-.33.22-.3.93-.49,1.39-.19.43-.41.87-.7,1.24-1.01,1.29-2.03,2.58-3.1,3.82-.51.59-1.14,1.07-1.71,1.59-.32.3-.62.64-.98.88-.29.2-.66.29-1.11.48-.09.44-.35.89-1.09.8-.1-.01-.26.11-.33.21-.32.44-.75.64-1.22.9-.49.27-1.05.52-1.53.83-1.16.76-2.34,1.33-3.73,1.55-.8.13-1.56.55-2.35.79-.97.29-1.88.89-2.98.52-.12-.04-.35.23-.56.39-.16-.19-.29-.35-.38-.45-.42.17-.79.43-1.17.46-1.05.07-2.21.32-3.14-.02-.97-.36-1.81.33-2.71-.14-.02-.1-.06-.27-.1-.44-.11,0-.19-.02-.21,0-.63.75-1.25.17-1.79-.08-.3-.14-.44-.41-.85-.17-.15.09-.53-.23-.92-.41-.27.21-.57.37-.98-.2-.25-.34-.91-.45-1.41-.52-1.5-.21-2.81-.77-3.98-1.72-.32-.26-.83-.28-1.18-.52-.46-.32-.84-.75-1.39-1.24-.03,0-.25.08-.39.12-.56-.34-1.07-.65-1.59-.96Z"/>
          <path class="cls-1" d="m63.39,373.5c-.04.34-.05.69-.16,1.01-.02.05-.44-.03-.68-.04l.51-1.08c.11.04.21.07.32.11Z"/>
        </g>
      </g>
      <g id="_Radial_Repeat_-2" data-name="&amp;lt;Radial Repeat&amp;gt;">
        <g>
          <path class="cls-1" d="m250.74,140.65c-.58-.72-1.07-1.23-1.45-1.82-.92-1.41-1.8-2.85-2.66-4.3-.26-.43-.41-.93-.68-1.54-.93-.39-2.68-2.76-2.66-3.48-.43-.44-.76-.69-.96-1.01-.87-1.45-1.8-2.89-2.53-4.42-.55-1.15-.81-2.44-1.21-3.67-.27-.83-.61-1.65-.82-2.5-.07-.29.16-.65.24-.95-.16-.33-.51-.74-.52-1.17-.08-2.01-.11-4.03-.08-6.04.01-.9.17-1.8.33-2.68.05-.31.3-.59.52-1.01-.47-.72,0-1.46.41-2.22.08-.15.1-.36.1-.54-.01-1.22.7-2.65,1.33-3.03.26-.86.32-1.54.65-2.04.75-1.13,1.65-2.17,2.46-3.27.14-.2.14-.5.21-.81.21-.03.45-.07.54-.09.41-.64.75-1.17,1.13-1.78.45.14.64-.07.77-.65.09-.36.68-.59,1.02-.91.48-.45.91-.96,1.41-1.37.5-.41,1.05-.75,1.61-1.08.44-.26.94-.43,1.35-.71.47-.32.82-.83,1.31-1.08.3-.15.77.06,1.24.12-.03-.21-.06-.44-.08-.6.41-.28.76-.68,1.17-.76.37-.07.82.2,1.35.35-.11-.29-.2-.52-.31-.82.85-.15,1.7-.3,2.63-.46,0,.03-.01-.18-.03-.4.79-.15,1.59-.29,2.58-.47.26-.58.86-.44,1.53-.05.57-1.06,1.12-.33,1.64.05.54-.73,1.96-1.04,2.87-.67.2.08.5.23.6.15.56-.44.99-.23,1.4.26.8-.76,1.46-.23,2.16.15.2.11.48.26.66.2.89-.28,1.81-.03,2.35.76.37-.64.8-.56,1.31-.16.38.3.82.52,1.23.78.05.03.11.07.15.06,1.45-.42,2.28.61,3.26,1.34.22.17.55.2.92.33,0-.02.02.16.01.12.6.23,1.11.31,1.49.58,2.42,1.7,4.64,3.63,6.6,5.85.33.38.45.95.74,1.38.33.49.73.93,1.12,1.38.71.83,1.46,1.6,1.59,2.8.04.37.71.67.75,1.04.16,1.46,1.57,2.44,1.42,3.98,0,.07.04.17.1.23.5.47.49.94.17,1.2.31.67.71,1.2.78,1.77.18,1.36.19,2.75.29,4.12.06.89.14,1.78.23,2.76-.28-.1-.5-.18-.86-.31.18.68,1.7,1.23-.01,1.83.89.45.61,1.01.39,1.65-.23.65-.24,1.37-.41,2.05-.1.41-.34.78-.57,1.28-.25.04-1.13-.16-.28.76.08.09-.06.44-.15.64-.32.67-.66,1.32-1,1.98.07.07.15.13.22.2-.25.02-.5.04-.69.05.07.36.14.71.21,1.05-.08.03-.16.06-.24.09-.21-.15-.41-.3-.62-.44-.07.08-.14.15-.13.16.79,1.08-.28,1.64-.69,2.35-.53.91-1.18,1.74-1.62,2.38-.62.53-1.04.9-1.58,1.36,0,.09.02.33.04.62-.42.17-1.09.16-.75,1.02-.83-.2-1.09.1-.81.82-.4.2-1.35-.15-.86.7-.99,1.09-1.92,2.11-2.94,3.23.01.04.06.25.13.53-.61.03-1.32,0-.85.98-.35.05-.63.09-.92.13.09.33.16.61.23.89-.28,0-.56,0-.75,0-.14.46-.24.94-.44,1.38-.22.5-.44,1.19-1.41.16.68,1.76-.63,2.39-1.14,3.36-.36.69-.82,1.32-1.29,2.07-.09,0-.34,0-.84,0,.33.31.5.46.67.62-.09,1.03-.78.03-1.13.33.69,1.31-.67,1.96-.99,2.97-.13.42-.45.78-.75,1.28-.93-.26-.57.4-.18,1.04-.47,0-.77,0-1.4.01,1.54.84.28,1.38.11,2-.12.42-.35.82-.59,1.2-.11.17-.35.26-.34.44-.14.49-.29.97-.41,1.47-.23.94-.83.2-1.37.2.31.51.55.91.84,1.39-.35.09-.58.15-.82.21.49,1.58-.88,2.44-1.12,3.94.6,1.02-1.15,1.68-.99,2.88-.18,0-.39,0-.51,0,.22,2.07-.54,3.83-1.5,5.57.05.15.11.31.15.47.02.12,0,.25.01.48-.31-.16-.54-.28-.88-.45-.09.72,1.44,1.38.28,1.81-.08.86-.14,1.55-.18,2.06l-.9.62c.2.14.4.28.75.52-.89,1.03-.05,2.68-1.21,3.8.1.26.23.56.44,1.08-.33-.16-.41-.22-.51-.24-.16-.04-.33-.06-.5-.09.05.16.07.35.15.49.16.28.36.54.62.92-.43.03-.72.04-1.08.07-.03-.99-.06-1.95-.09-2.99.24.09.41.16.8.31-.41-.59-.7-1.02-1.06-1.54.38-.09.6-.15.99-.25-.18-.23-.29-.49-.42-.5-.6-.05-.6-.42-.61-.88-.03-.94-.06-1.88-.17-2.82-.1-.8-.33-1.59-.47-2.39-.05-.26.03-.54.02-.81,0-.2,0-.48-.11-.57-.5-.4-.45-.79-.06-1.2-.82-1.12-.87-2.41-1.03-3.68-.05-.44-.19-.87-.36-1.28-.16-.41-.58-.81,0-1-.27-.65-.55-1.29-.8-1.95-.16-.44-.31-.89-.38-1.35-.04-.29.07-.61.12-.97-.16-.22-.55-.5-.62-.85-.36-1.68-1.11-3.21-1.68-4.81-.08-.24.12-.57.2-.88-.88-.39-1.42-1.62-1.11-2.12-.5-.92-.98-1.72-1.39-2.55-.69-1.4-1.35-2.82-2-4.24-.21-.46-.31-.98-.5-1.45-.08-.19-.26-.34-.39-.5-.51-.64-1.12-1.26-.71-1.94Z"/>
          <path class="cls-1" d="m187.74,109.63c.54.37.79.82.18,1.38-.04.03-.07.13-.05.15.65.81-.2,1.59-.06,2.38-.17.06-.35.11-.53.18.03.13.04.21.07.28.1.22.36.53.3.65-.58.99-.04,2.34-1.04,3.21-.16.14-.06.57-.09.89-.19.02-.42.05-.76.09,1.04,1.33-.84,2.05-.52,3.27-.25.08-.5.16-.78.26,0,.32,0,.62,0,.98-.24-.03-.43-.05-.72-.08.73,1.37-.02,1.14-1.02.72.33.49.52.76.8,1.16-.4.14-.72.24-1.03.35.06.03.13.06.19.08-.31.54-.59,1.11-.96,1.61-.29.39-.7.69-1.03,1.05-.67.74-1.26,1.55-1.99,2.22-.24.22-.79.12-1.16.16.07.21.15.47.23.73-.32-.01-.65-.02-1.03-.03.19,1.06-.72,1.2-1.43,1.52-.1.04-.28.04-.3.1-.29.85-.76.61-1.27.24-.03-.02-.14.06-.29.13.19.22.34.4.66.78-.55.07-.93.12-1.51.2-.17.17-.47.6-.88.83-.38.21-.87.2-1.37.3,0,.04.07.26.12.43-.48.11-.9.25-1.34.3-.41.05-.84.03-1.33.03,0,.16,0,.39,0,.71-.8-.67-1.41,1.15-2.17-.02-.73.87-2.54,1.05-3.48.43-.53.95-.79.98-1.52.1-.08.26-.14.47-.25.81-.53-.14-1.05-.28-1.61-.42-.42.56-.81.56-1.59-.12-.4.4-.77.65-1.43.27-.44-.26-1.14-.02-1.7-.12-1.12-.2-2.22-.48-3.33-.73-.11-.23-.22-.45-.32-.67-.53.4-1.7.22-2.27-.27-.24-.2-.56-.31-.96-.52,0-.03-.05-.26-.11-.59-.96.96-1.51-.04-2.11-.37-.84-.47-1.49-1.44-2.36-1.67-1.68-.44-2.61-1.74-3.82-2.72-.31-.25-.43-.73-.69-1.2-.03.01-.22.12-.5.26-.05-.32-.09-.61-.14-.9-.06.04-.12.07-.19.11-.25-.37-.48-.76-.77-1.1-.45-.52-.92-1.02-1.42-1.49-.49-.46-.84-.93-.38-1.6-1.09-.29-2.16-2.14-1.95-3.26-.98-.14-1.01-1.09-1.37-1.71-.38-.64-.75-1.38-.78-2.09-.08-1.67-1.28-3.12-.9-4.87.05-.22-.07-.48-.13-.72-.05-.16-.2-.31-.2-.46,0-.69.03-1.37.05-2.06.02-.99.02-1.99.04-2.98.01-.61-.22-1.32.61-1.61-.42-1.11-.23-1.9.61-2.65-.84-1.26.79-2.02.68-3.23.2-.05.43-.11.66-.17,0-.06.04-.13.02-.16-.4-.62-.22-1.26.43-2.05.48-.59.84-1.27,1.33-2.02.05,0,.33,0,.62,0-.13-.41-.22-.73-.32-1.04.24-.06.48-.13.74-.19-.15-.91.34-1.62,1.1-2.19.18-.13.47-.2.54-.37.93-2.06,2.86-3.29,4.16-5.03,1.46-1.95,2.99-3.85,4.51-5.75.35-.44.75-.85,1.14-1.26.49-.52.93-1.06,1.12-1.79.06-.2.43-.32.69-.5-.15-1.07.68-1.77,1.19-2.61.36-.59.74-1.17,1.14-1.74.19-.27.44-.51.52-.6.74-1.48,1.41-2.79,2.05-4.1.32-.65.58-1.34.93-1.97.5-.89,1.06-1.74,1.59-2.61.07-.11.19-.25.17-.36-.2-1.42.64-2.43,1.31-3.53.13-.21-.07-.62.04-.85.37-.77.82-1.51,1.24-2.26.1-.18.22-.37.25-.57.08-.45.06-.92.19-1.36.17-.61.44-1.2.68-1.86.11.06.29.15.34.18.04-.73.08-1.49.13-2.27.29-.1.56-.2.99-.36-.82-.42-.88-.82-.35-1.43.22-.26.09-.79.21-1.18.12-.4.37-.75.51-1.14.1-.27.12-.58.12-.87,0-.27-.18-.61-.07-.82.48-.99.54-2.04.7-3.09.1-.63.69-1.14.32-1.93-.13-.29.18-.78.3-1.21.88.06.93.7.98,1.37.12,1.58.29,3.15.42,4.73.07.85.08,1.7.19,2.54.11.86.33,1.7.48,2.55.05.26,0,.54.02.81.01.2.06.39.08.59.04.39.07.77-.01,1.18.56.64.66,1.44.71,2.33.04.78.38,1.55.54,2.33.08.38.07.79,0,1.19.82,1.33,2.2,6.03,1.94,6.56.28.57.56,1,.72,1.47.41,1.16.76,2.34,1.15,3.51.06.18.19.34.31.5.34.45.66.89.09,1.21.22.28.43.49.57.74.57,1.07,1.14,2.14,1.65,3.24.27.58.44,1.21.73,2.02.78.49,1.06,1.59,1.47,2.61.06.15.03.38.13.48.87.84,1.03,2.02,1.46,3.06.04.1.08.27.15.28,1.28.29,1.29,1.61,1.93,2.4.47.58.86,1.23,1.26,1.87.59.92,1.1,1.89,1.74,2.76.53.72,1.19,1.33,1.8,1.99.35.37.69.74.08,1.18,1.21.71,2.12,2.25,2,3.04.45.8.89,1.41,1.15,2.09.46,1.2.81,2.45,1.21,3.68.04.13.12.35.06.4-.66.64.03,1.07.19,1.6.21.69.36,1.42.4,2.14.06,1,.03,2.01-.02,3.01,0,.18-.28.34-.47.56Z"/>
          <path class="cls-1" d="m203.44,218.66c-.61.33-2.07.09-2.53-.34-.12-.11-.31-.15-.48-.2-.69-.2-1.38-.4-2.07-.6-.55-.16-1.15-.22-1.66-.47-.86-.44-1.66-1-2.5-1.49-.87-.51-1.79-.95-2.62-1.53-.87-.61-1.67-1.32-2.47-2.02-.64-.55-1.27-1.11-1.84-1.72-.29-.31-.46-.73-.61-1.13-.47-.47-1.01-.89-1.39-1.42-.96-1.38-1.84-2.8-2.75-4.22-.12-.19-.24-.41-.24-.62,0-.62-.09-1.13-.61-1.6-.21-.19-.06-.79-.07-1.26-.08.02-.27.07-.61.17-.4-1.4-.87-2.79-1.15-4.21-.1-.52-.16-1.02-.34-1.53-.09-.25.1-.59.19-1.03-.46-.37-.75-.9.09-1.53-1.07-.53-.65-1.43-.63-2.18.03-.91.16-1.81.32-2.71.06-.34.3-.64.49-1.05-.6-.37-.19-.94-.02-1.54.35-1.27.56-2.58.98-3.83.33-.98.84-1.91,1.34-2.82.71-1.29,1.4-2.6,2.25-3.78.85-1.19,1.87-2.26,2.87-3.33.55-.59,1.26-1.04,1.8-1.63.34-.36.44-.93.76-1.32,1.19-1.46,2.45-2.86,3.64-4.32.38-.46.56-1.08.91-1.57.35-.49.8-.9,1.21-1.35.26-.3.51-.61.92-1.1.12-.29.26-.89.58-1.37.79-1.17,1.67-2.28,2.49-3.43.23-.33.39-.7.71-.99.03-.52-.31-1.29.58-.95.18-.64.28-1.26.54-1.81.36-.77.8-1.52,1.26-2.23.13-.19.47-.24.72-.36-.27-1.01.54-2.94,1.49-3.46-.03-.27-.07-.57-.11-.93.29.03.53.06.9.1-.89-1.09-.16-1.8.35-2.58.16-.25.1-.63.23-.92.41-.87.87-1.73,1.3-2.59.04-.07.12-.15.11-.21-.13-1.92.94-3.51,1.49-5.24.14-.44.41-.85.61-1.27-.07-.06-.13-.12-.2-.18.26,0,.52,0,.63,0,.06-.98.11-1.9.17-2.91.23.11.41.19.65.3.17-.62-.95-1.3-.14-1.67.09-.91.16-1.63.24-2.44.2-.02.42-.04.89-.09-1.04-.73-.51-1.55-.32-2.37.21-.07.48-.15.97-.31-.46-.24-.69-.36-1.06-.56.79-.65.64-1.48.39-2.45.68.34.86.6.82,1.24-.05.94.2,1.9.3,2.86.02.22-.03.44-.02.66.01.35.06.69.07,1.04,0,.27-.02.53-.02.8,0,.26-.09.67.04.76.64.42.31.86.16,1.21.16.38.37.66.4.96.19,1.57.34,3.16.52,4.73.03.24.19.46.28.69.07.18.25.43.19.53-.4.61-.05,1,.28,1.47.12.17-.07.56-.09.64.29.72.57,1.29.76,1.89.17.52.28,1.07.37,1.62.04.28-.03.59-.07,1.1.58.47,1.08,1.18.82,2.27-.05.22.45.52.55.83.62,1.91,1.17,3.84,1.79,5.75.13.39.46.71.64,1.09.14.32.19.68.27,1.02.04.17.03.42.14.51.72.54.89,1.27.87,2.11,0,.14.21.28.3.44.32.63.64,1.26.95,1.9.23.46.43.93.68,1.38.16.29.42.51.57.8.81,1.58,1.53,3.21,2.42,4.74,1,1.7,2.17,3.3,3.23,4.96.26.41.32.94.59,1.34.29.44.74.77,1.08,1.17.51.6,1.23,1.15,1.43,1.85.45,1.57,1.92,2.39,2.52,3.82.32.77.7,1.52,1.08,2.33-.4.25-.82.43.08.83.41.18.49,1.1.71,1.69.03.1-.06.28,0,.32.92.77.72,1.91.91,2.9.19.97.18,1.97.27,2.96.06.65.17,1.29.17,1.94,0,1.64.18,3.34-.18,4.91-.19.82.08,1.7-.4,2.46-.38.59-.69,1.23-1.05,1.88.05.02.21.1.35.17-.26.67-.5,1.33-.79,2.09,0,0-.2-.01-.48-.03.32,1.21-.29,2.04-.93,2.89-.45.61-.78,1.3-1.17,1.96-.04.07-.07.2-.13.21-.73.19-.96.68-.74,1.49-.32-.14-.49-.22-.76-.34.02.36.03.63.04.92-.34.04-.62.07-1.02.12.15.32.26.56.41.86-.36.04-.69.07-1.12.12.17.31.3.54.5.93-.46-.13-.78-.21-1.12-.31,0,1.56-.33,1.92-1.64,1.9-.23,1.07-2.64,3.02-3.94,2.78-.06.23-.13.46-.21.76-.47-.02-.97.01-.82.65-.48-.09-.95-.18-1.51-.29.06.38.1.62.16.95-.28-.16-.51-.3-1.07-.62.06.48.1.77.15,1.14-.55-.16-.99-.29-1.65-.47.21.36.31.53.42.71-.04.05-.09.16-.15.16-1.43.1-2.58,1.1-3.99,1.22-.35.03-.71-.04-1.15-.07-.18.56-.54.74-1.13.33-.12-.09-.46-.09-.53,0-.57.71-1.02.22-1.48-.11-.96.64-.99.64-1.77.39-.33.03-.66.09-.99.1-.42.01-.85.02-1.27-.02-1.06-.09-2.11-.19-3.16-.32-.14-.02-.24-.28-.39-.47Zm2.22-69.77c.13.07.26.14.38.21.3-.46.6-.92.9-1.38-.11-.07-.23-.15-.34-.22-.31.47-.62.93-.94,1.4Z"/>
          <path class="cls-1" d="m207.03,1.82c.18.19.33.37.5.55.83-1.09,1.82-1.49,2.38-1.14.47-.22.83-.5,1.22-.56.97-.15,1.96-.17,2.93-.29.62-.08,1.23-.33,1.85-.34,1.64-.04,3.28-.02,4.92.03.28,0,.56.28.9.47.85-.25,1.74-.24,2.48.55.48-.52,1.94-.08,2.52.8.62-.56,1.17-.03,1.73.15.62.2,1.19.55,1.8.79,1.5.58,2.75,1.54,3.95,2.58.41.36.93.59,1.35.95.77.65,1.51,1.33,2.25,2.01.71.67,1.47,1.3,2.07,2.06.9,1.13,1.67,2.35,2.49,3.54.03.04,0,.13.04.16,1.17.89,1.43,2.31,2.07,3.51.33.61.51,1.29.76,1.94.08.2.18.4.24.61.11.4.19.8.17,1.21.18.3.46.57.51.89.19,1.09.28,2.21.45,3.3.04.27.26.5.3.77.05.27-.02.56-.03.72.04.57.09,1.01.09,1.45,0,.7-.05,1.39-.06,2.09,0,.8.03,1.59.05,2.43-.24.02-.44.04-.67.06.04.14.03.26.08.29.45.3.48.65.15,1.06-.09.11-.22.26-.19.36.38,1.44-.57,2.57-.87,3.85-.14.61-.52,1.17-.8,1.76-.16.34-.33.68-.54,1.14-.1.02-.33.07-.56.12.08.04.15.09.23.13-.13.44-.14.96-.39,1.32-.88,1.25-1.83,2.43-2.75,3.65-.62.81-1.19,1.65-1.85,2.43-.59.71-1.27,1.33-1.89,2.02-.43.48-.8,1-1.22,1.49-.33.39-.7.76-1.03,1.15-.71.86-1.32,1.8-2.12,2.56-.44.43-.41,1.22-1.23,1.38-.27.05-.43.65-.75,1.19.27.62-.19.74-.97.51.54.91.46,1.06-.51,1.16.56.96-.47,1.33-.75,1.97-.26.59-.66,1.12-1.03,1.65-.4.56-.85,1.08-1.34,1.69.12,1.13-.78,1.93-1.32,2.9-.35.63-.99,1.04-1,1.98,0,.72-.67,1.44-1.03,2.17-.18.36-.32.74-.53,1.08-.12.19-.34.32-.54.5.12.9-.79,2.88-1.59,3.35.48.86-.24,1.45-.48,2.15-.21.64-.71,1.17-.65,1.94.03.37-.29.78-.51,1.14-.36.6-.76,1.18-1.21,1.86.07.07.26.25.44.43-.2.55-.39,1.1-.63,1.79-.02,0-.22.04-.45.08,0,.1,0,.18.02.26.05.3.2.62.13.89-.33,1.3-.71,2.59-1.1,3.96-.04,0-.24-.03-.33-.04.06.42.19.82.14,1.2-.05.4-.27.79-.46,1.28-.06.01-.31.06-.55.11.13.19.28.37.37.58.08.18.18.42.13.59-.13.5-.32.98-.51,1.54-.09-.03-.3-.11-.66-.24.08.69,1.28,1.26.09,1.81.28.59.64,1.14-.12,1.61.56-.85-1.28-1.36-.25-2.3-.57-.56-.53-1.17-.03-1.77-.24-.47-1.04-.86-.17-1.37-.66-1.18-.8-2.35-.52-3.49-.2-.51-.39-.99-.6-1.51.35-.02.59-.04.91-.06-.37-.44-.77-.74-.94-1.15-.15-.38-.05-.86.04-1.3-.75-1.01-.74-2.19-.63-3.43-.81-.23-.53-1.09-.72-1.67-.39-1.17-.6-2.4-.92-3.59-.49-1.78-1.02-3.56-1.54-5.34-.07-.24-.28-.43-.33-.67-.06-.31-.03-.65-.04-.88-.43-.89-.87-1.75-1.25-2.64-.55-1.28-1.06-2.58-1.56-3.88-.12-.32-.12-.69-.17-1.02-.19-.27-.42-.54-.57-.84-.38-.79-.7-1.62-1.1-2.41-.28-.56-.64-1.08-.95-1.62-.54-.95-1.1-1.88-1.6-2.85-.19-.37-.25-.81-.45-1.15-.21-.28-.43-.56-.64-.85-.18-.25-.35-.5-.51-.75-.35-.52-.91-.97-.64-1.72-.76-.17-2.89-3.42-2.81-3.89-.54-.61-1-1.03-1.34-1.53-.56-.82-1.37-1.48-1.45-2.63-.03-.39-.66-.72-.96-1.12-.28-.38-.54-.79-.72-1.23-.61-1.52-1.22-3.05-1.76-4.59-.26-.73-.35-1.52-.52-2.28-.1-.43-.24-.86-.27-1.29-.03-.35.08-.71.14-1.2-.34-.3-.6-.75-.14-1.34.06-.08.03-.28-.02-.39-.22-.5-.18-.97-.17-1.51.01-.56.08-1.16.05-1.73-.08-1.38.02-2.69.53-4.01.29-.76.3-1.63.49-2.43.23-.98.17-2.07,1.04-2.84.1-.09-.03-.42-.06-.68.24-.04.44-.08.58-.1.06-.45.02-.9.19-1.24.46-.95.83-2.08,1.58-2.71.8-.66.62-1.73,1.48-2.28.1.03.27.08.43.13.05-.09.11-.15.1-.19-.34-.92.47-1.17.97-1.51.27-.19.57-.17.57-.65,0-.17.46-.35.81-.59-.05-.34-.04-.68.67-.75.42-.04.85-.57,1.15-.96.93-1.19,2.07-2.04,3.48-2.58.39-.15.66-.58,1.04-.76.51-.24,1.07-.36,1.77-.58,0-.03.06-.26.1-.4.58-.32,1.1-.6,1.63-.9Z"/>
          <path class="cls-1" d="m163.34,37.23c-.27-.21-.57-.39-.8-.64-.04-.04.24-.37.38-.56l.68.99c-.09.07-.17.15-.26.22Z"/>
        </g>
      </g>
      <g id="_Radial_Repeat_-3" data-name="&amp;lt;Radial Repeat&amp;gt;">
        <g>
          <path class="cls-1" d="m271.32,315.91c.91-.14,1.61-.31,2.3-.35,1.68-.09,3.37-.13,5.06-.15.5,0,1.01.11,1.68.19.8-.61,3.73-.94,4.34-.56.6-.15.98-.32,1.35-.32,1.7-.03,3.4-.12,5.09.02,1.27.1,2.52.52,3.78.79.86.18,1.74.3,2.58.54.29.08.49.46.7.68.36.03.9-.07,1.28.13,1.78.94,3.54,1.92,5.27,2.95.77.46,1.47,1.05,2.16,1.63.24.2.36.55.61.96.86-.05,1.27.72,1.71,1.47.09.15.26.26.42.35,1.07.6,1.94,1.93,1.96,2.67.61.65,1.18,1.04,1.45,1.58.61,1.22,1.05,2.51,1.6,3.76.1.22.37.37.59.59-.08.2-.16.43-.2.51.35.67.64,1.23.97,1.87-.35.32-.26.58.17.99.27.26.17.89.28,1.34.15.64.38,1.27.48,1.91.1.64.12,1.29.14,1.94.01.51-.1,1.02-.06,1.53.05.56.31,1.13.27,1.68-.02.33-.44.64-.72,1.01.2.08.42.17.56.23.04.49.21,1,.07,1.4-.12.36-.58.61-.98.99.3.05.55.09.87.14-.3.81-.59,1.62-.92,2.51-.02-.01.16.08.36.17-.27.76-.54,1.52-.88,2.47.37.51-.05.96-.72,1.35.63,1.03-.28,1.13-.86,1.39.36.84-.08,2.22-.85,2.82-.17.13-.45.32-.43.44.1.71-.3.97-.93,1.09.25,1.07-.54,1.38-1.21,1.79-.2.12-.46.28-.5.47-.2.91-.88,1.58-1.83,1.66.37.64.08.97-.51,1.21-.45.18-.86.45-1.29.68-.05.03-.12.06-.13.1-.36,1.46-1.67,1.68-2.79,2.15-.26.11-.45.38-.74.63.02,0-.15-.07-.11-.05-.49.4-.83.8-1.25,1-2.68,1.25-5.47,2.2-8.37,2.79-.5.1-1.04-.09-1.56-.05-.59.04-1.17.17-1.75.28-1.07.21-2.12.47-3.22-.02-.34-.15-.94.28-1.28.13-1.34-.59-2.9.14-4.16-.76-.06-.04-.17-.05-.25-.03-.66.19-1.06-.05-1.12-.46-.74-.07-1.39.02-1.92-.2-1.27-.53-2.47-1.21-3.71-1.81-.8-.39-1.62-.77-2.51-1.19.23-.19.41-.34.7-.58-.68-.18-1.92.86-1.58-.92-.84.54-1.18.03-1.62-.49-.45-.52-1.07-.89-1.57-1.38-.3-.29-.51-.68-.83-1.13.09-.24.71-.9-.52-.62-.12.03-.35-.27-.48-.46-.42-.61-.81-1.23-1.22-1.85-.09.03-.19.06-.28.1.11-.23.22-.45.3-.62-.35-.12-.68-.23-1.02-.34.01-.09.03-.17.04-.26.23-.1.46-.21.69-.31-.04-.1-.06-.2-.08-.2-1.33.15-1.28-1.06-1.69-1.77-.52-.91-.92-1.89-1.25-2.59-.15-.81-.26-1.35-.39-2.05-.08-.04-.3-.15-.55-.28.06-.45.41-1.02-.51-1.16.59-.62.46-1-.31-1.11.02-.45.81-1.1-.18-1.09-.45-1.4-.87-2.72-1.33-4.16-.04-.01-.25-.07-.52-.15.28-.54.66-1.14-.42-1.22.13-.33.24-.59.35-.86-.33-.09-.61-.17-.89-.24.14-.24.28-.48.37-.65-.33-.35-.69-.68-.97-1.07-.32-.45-.81-.97.56-1.3-1.87-.29-1.75-1.74-2.34-2.67-.41-.66-.73-1.37-1.14-2.15.05-.08.17-.3.42-.72-.43.13-.65.2-.87.27-.84-.59.37-.69.28-1.14-1.48-.06-1.36-1.56-2.07-2.34-.3-.32-.45-.78-.73-1.29.69-.67-.06-.69-.81-.67.23-.41.38-.67.69-1.21-1.5.91-1.33-.44-1.79-.9-.31-.31-.54-.71-.74-1.11-.09-.18-.05-.43-.21-.51-.35-.36-.7-.74-1.07-1.09-.7-.67.24-.82.51-1.28-.6.01-1.06.02-1.62.03.1-.35.16-.58.23-.81-1.61-.36-1.67-1.98-2.85-2.94-1.18.01-.88-1.84-2-2.3.09-.16.19-.34.25-.45-1.9-.84-3.05-2.39-4.08-4.08-.16-.03-.32-.05-.48-.11-.12-.04-.22-.12-.43-.23.3-.19.51-.33.83-.54-.58-.44-1.91.56-1.71-.66-.71-.5-1.27-.89-1.69-1.19l-.09-1.09c-.22.11-.44.21-.83.39-.45-1.28-2.29-1.39-2.69-2.95-.27-.04-.6-.08-1.15-.16.3-.2.4-.25.46-.32.12-.12.22-.26.32-.39-.17-.04-.33-.12-.5-.12-.32,0-.64.04-1.1.08.19-.39.32-.65.48-.97.87.47,1.72.92,2.63,1.42-.2.16-.34.27-.67.54l1.87-.15c-.11.38-.17.6-.28.98.29-.04.57,0,.64-.11.34-.49.67-.31,1.07-.09.83.45,1.66.89,2.53,1.26.74.32,1.54.51,2.3.79.25.09.45.29.69.42.17.09.41.24.55.19.6-.23.91,0,1.07.55,1.38-.15,2.52.45,3.7.95.4.17.85.27,1.29.33.43.06,1-.1.87.5.7.09,1.4.17,2.09.28.46.08.93.17,1.36.34.28.11.5.36.78.59.27-.03.71-.22,1.05-.11,1.63.53,3.34.64,5.01.95.25.05.44.39.66.61.78-.57,2.11-.43,2.39.1,1.05.03,1.98.02,2.91.08,1.56.1,3.12.24,4.67.39.51.05,1,.22,1.51.29.2.03.42-.06.63-.09.81-.12,1.65-.34,2.03.35Z"/>
          <path class="cls-1" d="m329.69,276.86c-.59.29-1.11.27-1.28-.53-.01-.05-.08-.13-.11-.12-1.03.16-1.27-.97-2.03-1.25.04-.18.07-.36.11-.55-.13-.04-.2-.07-.28-.08-.24-.02-.64.05-.71-.07-.57-1-2.01-1.2-2.25-2.51-.04-.21-.46-.34-.73-.52.08-.18.17-.39.3-.7-1.68.23-1.35-1.75-2.57-2.09.05-.25.11-.51.17-.8-.27-.16-.53-.31-.85-.49.14-.19.26-.35.43-.59-1.55-.05-.98-.59-.11-1.25-.59.05-.92.07-1.41.11.08-.42.15-.74.22-1.07-.06.04-.11.08-.17.12-.31-.54-.67-1.07-.92-1.64-.2-.45-.24-.95-.4-1.42-.31-.95-.71-1.87-.92-2.83-.07-.32.29-.74.44-1.08-.22-.05-.48-.1-.75-.16.17-.28.34-.55.55-.88-1.01-.37-.68-1.22-.6-2,.01-.11.1-.26.06-.31-.59-.68-.15-.96.43-1.22.04-.02.02-.15.03-.32-.28.05-.52.09-1.01.18.21-.51.36-.87.58-1.4-.06-.23-.28-.71-.28-1.18,0-.43.26-.85.43-1.34-.04,0-.26-.07-.44-.11.14-.47.24-.9.41-1.31.16-.39.4-.74.63-1.17-.14-.08-.34-.2-.61-.36.98-.36-.29-1.8,1.1-1.87-.39-1.06.36-2.72,1.37-3.23-.55-.94-.45-1.17.67-1.37-.18-.2-.34-.36-.58-.62.38-.39.76-.77,1.17-1.18-.28-.65-.08-.98.89-1.32-.14-.55-.18-.99.48-1.37.44-.25.59-.97.95-1.41.73-.87,1.53-1.68,2.29-2.52.26.02.49.04.74.05-.09-.66.66-1.58,1.37-1.83.29-.1.55-.33.93-.57.03.01.25.09.57.2-.36-1.31.79-1.29,1.38-1.64.82-.5,1.99-.57,2.62-1.21,1.22-1.23,2.81-1.39,4.27-1.94.37-.14.84,0,1.38,0,0-.03.01-.25.02-.57.3.12.58.22.85.33,0-.07,0-.14,0-.22.45-.04.9-.03,1.34-.11.67-.13,1.35-.29,2-.48.64-.19,1.22-.26,1.58.47.79-.8,2.93-.8,3.8-.05.61-.78,1.45-.33,2.17-.33.74,0,1.57.04,2.2.37,1.49.77,3.34.46,4.67,1.65.17.15.45.18.69.24.16.04.36-.02.5.06.6.34,1.17.72,1.76,1.07.85.51,1.71,1.01,2.56,1.53.52.32,1.26.47,1.09,1.33,1.16.19,1.76.75,1.99,1.85,1.51-.1,1.35,1.7,2.46,2.2-.06.2-.12.43-.18.65.05.04.09.1.13.1.73-.04,1.2.44,1.56,1.4.27.71.68,1.36,1.09,2.16-.03.05-.16.29-.31.54.42.1.74.17,1.06.24-.07.24-.13.48-.2.73.86.33,1.23,1.1,1.34,2.05.03.22-.06.5.05.66,1.31,1.84,1.42,4.12,2.28,6.12.96,2.24,1.83,4.52,2.73,6.78.21.53.36,1.08.52,1.62.2.69.46,1.33.99,1.87.15.15.06.54.09.85,1,.4,1.2,1.47,1.66,2.34.33.61.64,1.23.94,1.85.14.3.22.64.26.75.91,1.39,1.71,2.61,2.52,3.83.4.6.87,1.17,1.24,1.79.52.88.98,1.79,1.47,2.68.06.12.12.29.23.33,1.33.54,1.78,1.77,2.4,2.9.12.22.57.24.72.46.48.71.9,1.47,1.34,2.2.11.18.21.37.37.5.35.3.77.52,1.09.84.45.46.82.98,1.27,1.52-.11.07-.28.17-.33.2.61.4,1.25.82,1.9,1.24-.05.3-.11.59-.19,1.04.77-.5,1.15-.35,1.41.41.11.32.64.48.92.77.28.3.46.7.73,1.01.19.22.44.39.69.54.24.14.61.15.74.34.62.91,1.5,1.49,2.33,2.16.49.4.64,1.16,1.51,1.25.31.03.58.55.9.87-.5.73-1.07.45-1.68.16-1.43-.68-2.87-1.33-4.31-2-.77-.36-1.51-.78-2.29-1.11-.8-.33-1.64-.57-2.45-.86-.25-.09-.47-.26-.71-.38-.18-.09-.37-.14-.55-.22-.36-.16-.71-.32-1.01-.6-.83.17-1.58-.14-2.37-.54-.7-.35-1.53-.45-2.29-.7-.37-.12-.72-.33-1.04-.59-1.56.05-6.33-1.11-6.65-1.6-.63-.04-1.14-.02-1.63-.11-1.21-.23-2.41-.51-3.61-.76-.19-.04-.39,0-.59.02-.56.07-1.1.13-1.1-.52-.35.05-.64.13-.93.12-1.21-.04-2.42-.09-3.63-.19-.64-.05-1.27-.23-2.12-.38-.82.43-1.91.12-3-.03-.16-.02-.34-.17-.48-.13-1.17.34-2.26-.12-3.38-.27-.11-.01-.27-.06-.32,0-.89.97-2.04.31-3.05.47-.74.12-1.5.13-2.25.16-1.09.05-2.18,0-3.26.13-.88.1-1.75.37-2.62.57-.5.11-.99.22-1.07-.52-1.22.69-3,.71-3.63.21-.92,0-1.67.07-2.38-.04-1.27-.2-2.53-.52-3.79-.79-.14-.03-.36-.07-.38-.15-.22-.89-.94-.51-1.48-.63-.7-.16-1.41-.4-2.05-.72-.9-.45-1.76-.98-2.6-1.52-.15-.1-.16-.42-.25-.69Z"/>
          <path class="cls-1" d="m227.41,235.94c.02-.7.95-1.84,1.56-2.02.16-.05.29-.2.42-.32.52-.49,1.04-.99,1.55-1.5.41-.4.77-.89,1.24-1.2.81-.53,1.7-.94,2.54-1.42.88-.5,1.72-1.08,2.63-1.5.96-.45,1.98-.78,2.98-1.13.79-.28,1.59-.54,2.41-.74.41-.1.86-.03,1.28.04.64-.17,1.27-.44,1.92-.49,1.67-.14,3.35-.19,5.02-.27.22,0,.48,0,.66.1.54.32,1.03.49,1.69.28.27-.09.71.35,1.12.57.02-.08.07-.27.16-.61,1.41.36,2.85.64,4.22,1.11.5.17.97.37,1.5.47.26.05.46.38.8.68.55-.21,1.16-.2,1.28.84,1-.66,1.56.15,2.2.55.77.48,1.49,1.05,2.18,1.63.26.22.41.58.66.95.62-.34.91.31,1.34.75.92.94,1.96,1.78,2.83,2.76.68.77,1.23,1.68,1.77,2.57.76,1.26,1.55,2.51,2.15,3.84.6,1.33,1.02,2.75,1.45,4.16.24.77.27,1.61.51,2.38.15.47.59.85.77,1.32.66,1.76,1.25,3.55,1.92,5.31.21.56.66,1.02.9,1.57.25.55.37,1.14.56,1.72.13.38.27.75.49,1.35.19.25.64.67.9,1.19.62,1.27,1.14,2.58,1.72,3.87.17.36.41.69.5,1.11.44.29,1.27.38.53.98.46.48.95.88,1.3,1.37.49.7.92,1.45,1.3,2.21.1.21-.03.53-.05.8,1.01.27,2.27,1.94,2.25,3.02.25.11.52.22.86.37-.17.24-.31.43-.53.74,1.39-.23,1.64.76,2.05,1.59.13.27.5.41.68.66.55.79,1.06,1.61,1.59,2.42.04.07.07.18.13.21,1.73.85,2.57,2.57,3.79,3.91.31.34.53.77.79,1.17.08-.03.17-.05.25-.08-.13.22-.25.45-.31.55.82.54,1.59,1.05,2.43,1.6-.21.14-.38.26-.59.41.45.46,1.6-.17,1.52.71.74.53,1.33.95,1.99,1.43-.08.18-.17.39-.37.82,1.15-.54,1.6.34,2.21.9-.05.21-.11.49-.22.99.44-.27.66-.41,1.01-.64.17,1.01.96,1.29,1.93,1.56-.63.42-.95.44-1.49.09-.79-.52-1.75-.78-2.62-1.17-.2-.09-.37-.25-.56-.35-.31-.16-.63-.3-.94-.46-.24-.13-.45-.28-.68-.42-.23-.13-.54-.41-.67-.35-.68.34-.91-.16-1.13-.46-.41-.05-.75,0-1.03-.13-1.46-.62-2.9-1.29-4.36-1.92-.22-.09-.49-.07-.74-.1-.19-.03-.5,0-.55-.1-.33-.65-.84-.54-1.41-.5-.21.02-.45-.35-.51-.4-.77-.1-1.4-.16-2.01-.29-.54-.11-1.07-.29-1.58-.49-.27-.1-.49-.32-.91-.61-.69.26-1.57.34-2.37-.42-.16-.15-.68.13-1,.06-1.96-.42-3.91-.9-5.88-1.32-.4-.09-.84.05-1.26,0-.35-.03-.68-.18-1.02-.27-.17-.05-.38-.19-.51-.13-.83.35-1.55.14-2.27-.3-.12-.08-.35.04-.53.03-.71-.03-1.41-.08-2.12-.12-.51-.03-1.02-.09-1.53-.1-.33,0-.66.11-.98.09-1.77-.09-3.55-.28-5.32-.27-1.97.01-3.94.23-5.91.31-.48.02-.98-.19-1.46-.16-.52.04-1.03.25-1.55.35-.77.14-1.62.49-2.32.32-1.59-.39-3.03.47-4.57.27-.83-.11-1.67-.15-2.56-.23-.02-.48.04-.93-.75-.35-.36.26-1.2-.12-1.82-.23-.1-.02-.21-.19-.27-.17-1.13.41-2.02-.33-2.97-.66-.93-.32-1.8-.83-2.7-1.25-.59-.28-1.21-.5-1.76-.82-1.42-.82-2.98-1.51-4.16-2.61-.62-.57-1.51-.78-1.93-1.58-.33-.62-.72-1.21-1.11-1.85-.04.03-.19.13-.33.22-.46-.56-.9-1.1-1.41-1.73,0,0,.11-.17.27-.4-1.21-.33-1.62-1.27-2.04-2.25-.3-.7-.74-1.33-1.11-1.99-.04-.07-.13-.16-.12-.22.21-.73-.11-1.17-.92-1.39.28-.2.44-.32.67-.48-.32-.17-.56-.29-.81-.42.13-.31.25-.58.41-.95-.36-.03-.61-.05-.95-.08.15-.33.28-.64.45-1.03-.35,0-.62-.02-1.06-.03.34-.34.57-.57.83-.81-1.35-.78-1.5-1.25-.82-2.37-.81-.73-1.3-3.8-.44-4.81-.17-.17-.34-.34-.55-.56.25-.4.47-.85-.15-1.03.32-.37.63-.73,1.01-1.16-.36-.13-.59-.22-.9-.34.28-.16.51-.3,1.07-.62-.44-.18-.72-.3-1.06-.44.42-.4.74-.72,1.24-1.19-.42,0-.61,0-.82,0-.02-.06-.09-.16-.06-.21.63-1.28.33-2.78.94-4.07.15-.32.39-.6.64-.97-.4-.43-.37-.84.28-1.15.14-.06.31-.36.27-.46-.33-.85.32-1,.83-1.23-.08-1.15-.06-1.18.55-1.73.14-.3.25-.62.41-.91.2-.37.41-.75.65-1.1.6-.87,1.22-1.74,1.86-2.58.08-.11.37-.07.6-.11Zm59.32,36.81c-.12.08-.25.15-.37.23.25.49.5.98.75,1.47.12-.06.24-.12.36-.19-.25-.5-.49-1.01-.74-1.51Z"/>
          <path class="cls-1" d="m413.41,347.47c-.25.06-.48.11-.72.16.53,1.26.38,2.32-.2,2.63-.04.51.02.97-.12,1.34-.36.91-.83,1.78-1.22,2.69-.24.58-.33,1.23-.63,1.77-.78,1.44-1.62,2.85-2.48,4.25-.15.24-.52.34-.86.55-.21.86-.66,1.63-1.71,1.88.21.67-.9,1.72-1.95,1.78.17.82-.56,1.03-1,1.43-.48.43-1.07.75-1.58,1.16-1.26,1.01-2.71,1.61-4.21,2.13-.52.18-.98.51-1.49.69-.95.34-1.91.65-2.87.94-.93.28-1.86.63-2.82.77-1.42.21-2.87.27-4.31.39-.05,0-.12-.06-.16-.05-1.35.57-2.72.08-4.07.04-.69-.02-1.37-.21-2.06-.32-.22-.03-.44-.04-.65-.1-.4-.11-.79-.24-1.13-.46-.34,0-.73.11-1.03,0-1.04-.38-2.05-.86-3.09-1.26-.25-.1-.56-.03-.82-.12-.26-.1-.48-.3-.61-.39-.52-.25-.92-.42-1.3-.64-.6-.35-1.18-.74-1.78-1.09-.69-.4-1.39-.77-2.13-1.17.1-.22.19-.4.29-.61-.14-.04-.24-.1-.29-.08-.49.24-.8.09-1-.4-.05-.13-.12-.32-.22-.34-1.43-.39-1.94-1.78-2.9-2.68-.46-.43-.75-1.04-1.12-1.57-.22-.31-.43-.62-.71-1.04.03-.09.1-.32.17-.55-.08.05-.15.09-.23.14-.32-.33-.76-.61-.94-1-.64-1.38-1.19-2.8-1.78-4.21-.39-.94-.83-1.86-1.18-2.82-.32-.86-.52-1.77-.8-2.65-.2-.61-.47-1.2-.68-1.8-.17-.48-.3-.99-.48-1.47-.39-1.04-.89-2.05-1.16-3.11-.15-.59-.85-.97-.58-1.76.09-.25-.35-.69-.65-1.24-.67-.07-.54-.53.04-1.09-1.06.02-1.15-.13-.75-1.02-1.11,0-.92-1.07-1.33-1.63-.38-.52-.64-1.13-.91-1.72-.28-.63-.51-1.28-.79-2-1.04-.46-1.29-1.64-1.85-2.59-.37-.62-.4-1.38-1.21-1.85-.63-.36-.92-1.3-1.36-1.97-.22-.33-.48-.65-.67-1-.11-.2-.1-.45-.16-.72-.84-.34-2.1-2.12-2.11-3.05-.98-.01-1.13-.94-1.63-1.49-.45-.51-.66-1.2-1.35-1.54-.33-.16-.53-.64-.73-1.01-.34-.61-.64-1.25-1.01-1.98-.1.03-.35.1-.59.17-.38-.44-.76-.89-1.23-1.44,0-.02.08-.21.16-.43-.09-.04-.16-.08-.23-.11-.28-.11-.64-.14-.84-.33-.96-.93-1.88-1.91-2.88-2.94.02-.03.14-.19.2-.26-.39-.16-.81-.24-1.11-.47-.33-.25-.55-.63-.88-1.04.02-.06.1-.3.18-.53-.23.01-.46.05-.69.03-.2-.02-.45-.05-.58-.18-.37-.36-.69-.77-1.08-1.21.07-.06.24-.21.54-.45-.64-.28-1.73.48-1.61-.83-.65-.05-1.31-.01-1.34-.9.46.91,1.82-.43,2.11.94.77-.21,1.28.13,1.55.85.53.03,1.27-.47,1.27.54,1.35.02,2.44.48,3.28,1.3.54.08,1.05.16,1.61.24-.15.31-.26.53-.4.82.56-.1,1.03-.3,1.46-.24.4.06.77.38,1.11.68,1.25-.14,2.26.46,3.29,1.17.6-.59,1.2.09,1.8.21,1.21.25,2.37.68,3.57.99,1.79.47,3.59.9,5.39,1.33.24.06.52-.03.75.05.3.1.58.3.78.41.98.08,1.95.12,2.91.23,1.38.17,2.76.37,4.14.59.34.05.65.24.97.37.33-.03.68-.1,1.01-.07.88.07,1.75.2,2.63.25.62.04,1.25-.02,1.88-.01,1.09,0,2.18-.01,3.27.04.42.02.83.19,1.22.19.35-.04.7-.09,1.05-.13.3-.03.6-.05.91-.07.63-.04,1.3-.31,1.81.31.53-.57,4.41-.79,4.78-.49.8-.17,1.39-.36,2-.4.99-.07,1.97-.45,3,.06.35.17.96-.21,1.45-.27.47-.06.96-.08,1.42-.01,1.62.23,3.25.47,4.86.77.76.14,1.49.45,2.24.69.42.13.86.22,1.25.41.32.15.58.42.97.72.43-.14.95-.14,1.23.55.04.1.22.17.35.18.54.06.93.33,1.39.61.48.29.97.65,1.48.91,1.24.63,2.32,1.37,3.21,2.46.51.63,1.26,1.07,1.86,1.64.74.69,1.71,1.19,1.95,2.32.03.13.38.18.62.29-.08.23-.16.42-.2.55.36.28.77.47.98.78.59.88,1.39,1.76,1.56,2.73.18,1.02,1.19,1.41,1.24,2.42-.07.07-.21.19-.33.31.06.09.08.17.11.18.97.17.77.99.83,1.6.03.33-.13.58.27.82.15.09.07.57.1,1,.32.12.61.31.32.95-.17.38.07,1.02.26,1.48.57,1.4.73,2.82.5,4.31-.06.41.18.86.14,1.28-.05.56-.22,1.1-.38,1.82.02.02.19.18.3.28-.01.66-.03,1.25-.04,1.86Z"/>
          <path class="cls-1" d="m404.58,291.93c.32-.13.63-.3.96-.37.05-.01.2.39.3.61l-1.19.09c-.02-.11-.04-.22-.06-.33Z"/>
        </g>
      </g>
    </g>
  </g>
</svg>