<?xml version="1.0" encoding="UTF-8"?>
<svg id="Layer_2" data-name="Layer 2" xmlns="http://www.w3.org/2000/svg" viewBox="0 0 195.07 195.07">
  <defs>
    <style>
      .cls-1 {
        fill: #fff;
        stroke-width: 0px;
      }
    </style>
  </defs>
  <g id="Layer_1-2" data-name="Layer 1">
    <g>
      <path class="cls-1" d="m7.86,137.95l2.84-.05c12.23-.16,24.44-.14,36.65-.12,1.58,0,3.16-.02,4.74,0,1.22,0,2.47,0,3.69,0,11.09-.02,22.17.02,33.28,0-.51.27-1.02.55-1.53.82-1.96,1.08-3.93,2.18-5.71,3.54-2.11,1.62-3.91,3.65-6.03,5.26-2.73,2.08-5.84,3.68-8.39,5.94-1.95,1.69-3.51,3.97-4.77,6.25-1.74,3.13-2.44,7.04-4.69,9.67-2.23,2.59-2.63,5.6-3.64,8.42-.13.36-.24.7-.34,1.07-.35,1.25-.53,2.56-.66,3.88-.23.48-.46.98-.31,1.31.06.16.1.29.15.43-.05.51-.1,1.05-.15,1.56v.02c-.48.82-1.56,1.23-2.3,1.7-.02.02-.06.04-.08.04s-.06-.02-.08-.04c-.76-.44-1.85-.82-2.36-1.62v-.02c-.07-.51-.14-1.04-.21-1.56.04-.14.07-.28.13-.44.13-.34-.11-.83-.36-1.3-.18-1.34-.4-2.66-.8-3.92-.1-.33-.23-.67-.35-1-1.12-2.79-1.64-5.78-3.96-8.29-2.34-2.55-3.18-6.43-5.03-9.5-1.34-2.23-2.98-4.45-4.97-6.08-2.65-2.17-5.82-3.65-8.62-5.64-2.18-1.54-4.05-3.5-6.22-5.05-1.82-1.29-3.84-2.32-5.83-3.34-1.36-.67-2.73-1.32-4.11-1.98Z"/>
      <path class="cls-1" d="m5.55,62.7l2.05,1.98c8.76,8.54,17.38,17.19,26,25.84,1.12,1.11,2.25,2.22,3.36,3.35.87.86,1.75,1.74,2.62,2.61,7.85,7.83,15.66,15.69,23.53,23.53-.55-.17-1.11-.33-1.66-.5-2.15-.62-4.33-1.24-6.54-1.53-2.63-.34-5.34-.18-7.99-.54-3.4-.46-6.73-1.53-10.13-1.73-2.57-.18-5.29.33-7.79,1.05-3.45.98-6.71,3.25-10.15,3.52-3.4.26-5.82,2.1-8.53,3.38-.35.16-.67.32-1,.52-1.13.63-2.18,1.44-3.22,2.28-.5.18-1.01.37-1.15.71-.07.15-.13.28-.2.41-.4.33-.81.67-1.21,1h-.01c-.92.25-1.97-.22-2.83-.41-.03,0-.07-.01-.08-.03s-.03-.06-.03-.08c-.22-.85-.73-1.89-.52-2.81h.01c.31-.42.64-.85.96-1.26.12-.07.25-.14.4-.22.33-.15.51-.67.66-1.17.82-1.08,1.6-2.17,2.2-3.34.16-.31.31-.63.46-.96,1.18-2.76,2.93-5.25,3.06-8.66.15-3.45,2.3-6.79,3.16-10.27.63-2.53,1.04-5.26.78-7.81-.34-3.4-1.53-6.69-2.11-10.08-.45-2.63-.39-5.34-.83-7.96-.37-2.2-1.07-4.35-1.76-6.48-.49-1.43-1-2.86-1.5-4.3Z"/>
      <path class="cls-1" d="m57.12,7.86l.05,2.84c.16,12.23.14,24.44.12,36.65,0,1.58.02,3.16,0,4.74,0,1.22,0,2.47,0,3.69.02,11.09-.02,22.17,0,33.28-.27-.51-.55-1.02-.82-1.53-1.08-1.96-2.18-3.93-3.54-5.71-1.62-2.11-3.65-3.91-5.26-6.03-2.08-2.73-3.68-5.84-5.94-8.39-1.69-1.95-3.97-3.51-6.25-4.77-3.13-1.74-7.04-2.44-9.67-4.69-2.59-2.23-5.6-2.63-8.42-3.64-.36-.13-.7-.24-1.07-.34-1.25-.35-2.56-.53-3.88-.66-.48-.23-.98-.46-1.31-.31-.16.06-.29.1-.43.15-.51-.05-1.05-.1-1.56-.15h-.02c-.82-.48-1.23-1.56-1.7-2.3-.02-.02-.04-.06-.04-.08s.02-.06.04-.08c.44-.76.82-1.85,1.62-2.36h.02c.51-.07,1.04-.14,1.56-.21.14.04.28.07.44.13.34.13.83-.11,1.3-.36,1.34-.18,2.66-.4,3.92-.8.33-.1.67-.23,1-.35,2.79-1.12,5.78-1.64,8.29-3.96,2.55-2.34,6.43-3.18,9.5-5.03,2.23-1.34,4.45-2.98,6.08-4.97,2.17-2.65,3.65-5.82,5.64-8.62,1.54-2.18,3.5-4.05,5.05-6.22,1.29-1.82,2.32-3.84,3.34-5.83.67-1.36,1.32-2.73,1.98-4.11Z"/>
      <path class="cls-1" d="m132.36,5.55l-1.98,2.05c-8.54,8.76-17.19,17.38-25.84,26-1.11,1.12-2.22,2.25-3.35,3.36-.86.87-1.74,1.75-2.61,2.62-7.83,7.85-15.69,15.66-23.53,23.53.17-.55.33-1.11.5-1.66.62-2.15,1.24-4.33,1.53-6.54.34-2.63.18-5.34.54-7.99.46-3.4,1.53-6.73,1.73-10.13.18-2.57-.33-5.29-1.05-7.79-.98-3.45-3.25-6.71-3.52-10.15-.26-3.4-2.1-5.82-3.38-8.53-.16-.35-.32-.67-.52-1-.63-1.13-1.44-2.18-2.28-3.22-.18-.5-.37-1.01-.71-1.15-.15-.07-.28-.13-.41-.2-.33-.4-.67-.81-1-1.21h-.01c-.24-.93.23-1.99.43-2.84,0-.03.01-.07.03-.08s.06-.03.08-.03c.85-.22,1.89-.73,2.81-.52h.01c.41.33.84.66,1.25.97.07.12.14.25.22.4.15.33.67.51,1.17.66,1.08.82,2.17,1.6,3.34,2.2.31.16.63.31.96.46,2.76,1.18,5.25,2.93,8.66,3.06,3.45.15,6.79,2.3,10.27,3.16,2.53.63,5.26,1.04,7.81.78,3.4-.34,6.69-1.53,10.08-2.11,2.63-.45,5.34-.39,7.96-.83,2.2-.37,4.35-1.07,6.48-1.76,1.43-.49,2.86-1,4.3-1.5Z"/>
      <path class="cls-1" d="m187.2,57.12l-2.84.05c-12.23.16-24.44.14-36.65.12-1.58,0-3.16.02-4.74,0-1.22,0-2.47,0-3.69,0-11.09.02-22.17-.02-33.28,0,.51-.27,1.02-.55,1.53-.82,1.96-1.08,3.93-2.18,5.71-3.54,2.11-1.62,3.91-3.65,6.03-5.26,2.73-2.08,5.84-3.68,8.39-5.94,1.95-1.69,3.51-3.97,4.77-6.25,1.74-3.13,2.44-7.04,4.69-9.67,2.23-2.59,2.63-5.6,3.64-8.42.13-.36.24-.7.34-1.07.35-1.25.53-2.56.66-3.88.23-.48.46-.98.31-1.31-.06-.16-.1-.29-.15-.43.05-.51.1-1.05.15-1.56v-.02c.48-.82,1.56-1.23,2.3-1.7.02-.02.06-.04.08-.04s.06.02.08.04c.76.44,1.85.82,2.36,1.62v.02c.07.51.14,1.04.21,1.56-.04.14-.07.28-.13.44-.13.34.11.83.36,1.3.18,1.34.4,2.66.8,3.92.1.33.23.67.35,1,1.12,2.79,1.64,5.78,3.96,8.29,2.34,2.55,3.18,6.43,5.03,9.5,1.34,2.23,2.98,4.45,4.97,6.08,2.65,2.17,5.82,3.65,8.62,5.64,2.18,1.54,4.05,3.5,6.22,5.05,1.82,1.29,3.84,2.32,5.83,3.34,1.36.67,2.73,1.32,4.11,1.98Z"/>
      <path class="cls-1" d="m189.52,132.36l-2.05-1.98c-8.76-8.54-17.38-17.19-26-25.84-1.12-1.11-2.25-2.22-3.36-3.35-.87-.86-1.75-1.74-2.62-2.61-7.85-7.83-15.66-15.69-23.53-23.53.55.17,1.11.33,1.66.5,2.15.62,4.33,1.24,6.54,1.53,2.63.34,5.34.18,7.99.54,3.4.46,6.73,1.53,10.13,1.73,2.57.18,5.29-.33,7.79-1.05,3.45-.98,6.71-3.25,10.15-3.52,3.4-.26,5.82-2.1,8.53-3.38.35-.16.67-.32,1-.52,1.13-.63,2.18-1.44,3.22-2.28.5-.18,1.01-.37,1.15-.71.07-.15.13-.28.2-.41.4-.33.81-.67,1.21-1h.01c.92-.25,1.97.22,2.83.41.03,0,.07.01.08.03s.03.06.03.08c.22.85.73,1.89.52,2.81h-.01c-.31.42-.64.85-.96,1.26-.12.07-.25.14-.4.22-.33.15-.51.67-.66,1.17-.82,1.08-1.6,2.17-2.2,3.34-.16.31-.31.63-.46.96-1.18,2.76-2.93,5.25-3.06,8.66-.15,3.45-2.3,6.79-3.16,10.27-.63,2.53-1.04,5.26-.78,7.81.34,3.4,1.53,6.69,2.11,10.08.45,2.63.39,5.34.83,7.96.37,2.2,1.07,4.35,1.76,6.48.49,1.43,1,2.86,1.5,4.3Z"/>
      <path class="cls-1" d="m137.95,187.2l-.05-2.84c-.16-12.23-.14-24.44-.12-36.65,0-1.58-.02-3.16,0-4.74,0-1.22,0-2.47,0-3.69-.02-11.09.02-22.17,0-33.28.27.51.55,1.02.82,1.53,1.08,1.96,2.18,3.93,3.54,5.71,1.62,2.11,3.65,3.91,5.26,6.03,2.08,2.73,3.68,5.84,5.94,8.39,1.69,1.95,3.97,3.51,6.25,4.77,3.13,1.74,7.04,2.44,9.67,4.69,2.59,2.23,5.6,2.63,8.42,3.64.36.13.7.24,1.07.34,1.25.35,2.56.53,3.88.66.48.23.98.46,1.31.31.16-.06.29-.1.43-.15.51.05,1.05.1,1.56.15h.02c.82.48,1.23,1.56,1.7,2.3.02.02.04.06.04.08s-.02.06-.04.08c-.44.76-.82,1.85-1.62,2.36h-.02c-.51.07-1.04.14-1.56.21-.14-.04-.28-.07-.44-.13-.34-.13-.83.11-1.3.36-1.34.18-2.66.4-3.92.8-.33.1-.67.23-1,.35-2.79,1.12-5.78,1.64-8.29,3.96-2.55,2.34-6.43,3.18-9.5,5.03-2.23,1.34-4.45,2.98-6.08,4.97-2.17,2.65-3.65,5.82-5.64,8.62-1.54,2.18-3.5,4.05-5.05,6.22-1.29,1.82-2.32,3.84-3.34,5.83-.67,1.36-1.32,2.73-1.98,4.11Z"/>
      <path class="cls-1" d="m62.7,189.52l1.98-2.05c8.54-8.76,17.19-17.38,25.84-26,1.11-1.12,2.22-2.25,3.35-3.36.86-.87,1.74-1.75,2.61-2.62,7.83-7.85,15.69-15.66,23.53-23.53-.17.55-.33,1.11-.5,1.66-.62,2.15-1.24,4.33-1.53,6.54-.34,2.63-.18,5.34-.54,7.99-.46,3.4-1.53,6.73-1.73,10.13-.18,2.57.33,5.29,1.05,7.79.98,3.45,3.25,6.71,3.52,10.15.26,3.4,2.1,5.82,3.38,8.53.16.35.32.67.52,1,.63,1.13,1.44,2.18,2.28,3.22.18.5.37,1.01.71,1.15.15.07.28.13.41.2.33.4.67.81,1,1.21h.01c.24.93-.23,1.99-.43,2.84,0,.03-.01.07-.03.08s-.06.03-.08.03c-.85.22-1.89.73-2.81.52h-.01c-.41-.33-.84-.66-1.25-.97-.07-.12-.14-.25-.22-.4-.15-.33-.67-.51-1.17-.66-1.08-.82-2.17-1.6-3.34-2.2-.31-.16-.63-.31-.96-.46-2.76-1.18-5.25-2.93-8.66-3.06-3.45-.15-6.79-2.3-10.27-3.16-2.53-.63-5.26-1.04-7.81-.78-3.4.34-6.69,1.53-10.08,2.11-2.63.45-5.34.39-7.96.83-2.2.37-4.35,1.07-6.48,1.76-1.43.49-2.86,1-4.3,1.5Z"/>
    </g>
  </g>
</svg>