<?xml version="1.0" encoding="UTF-8"?>
<svg id="Layer_2" data-name="Layer 2" xmlns="http://www.w3.org/2000/svg" viewBox="0 0 87.66 87.66">
  <defs>
    <style>
      .cls-1 {
        fill: #fff;
        stroke-width: 0px;
      }
    </style>
  </defs>
  <g id="Layer_1-2" data-name="Layer 1">
    <g>
      <g id="_Radial_Repeat_" data-name="&amp;lt;Radial Repeat&amp;gt;">
        <g id="WNsNV2">
          <path class="cls-1" d="m70.07,21.7l.07-3.41-3.46-.07c-.08.62-.15,1.11-.23,1.8l-3.79-.08c-.1.75-.17,1.3-.25,1.92-1.28.04-2.48.09-3.71.13-.11.65-.2,1.15-.32,1.86l-2.06-.04c-.54.32-1.1.58-1.68.79-.3,1.3-.55,1.24-2.14.8-.01-.09-.02-.18-.03-.26-.98.14-1.99.15-3.04.05-.53-.05-1.06-.12-1.59-.2-1.78.18-3.48.19-5.25-.01v.36s-5.86-.12-5.86-.12c-.1-.65-.19-1.2-.29-1.88l-7.63-.16c-.09-.67-.15-1.21-.21-1.62-1.32-1-4.17,1.09-3.93-2.33-.62-.08-1.16-.15-1.7-.21-.08-.64-.14-1.19-.21-1.74l-1.53-.03-.11,5.46c.59.12,1.12.23,1.8.37l-.07,3.63c.55-.04.99,0,1.32.16h0s1.53.02,1.53.02c.06.55.13,1.09.2,1.74.54.07,1.08.14,1.7.21-.24,3.42,2.61,1.33,3.93,2.33.05.41.12.95.2,1.62l7.63.16c.1.68.19,1.23.29,1.87l5.85.12v-.36c1.78.19,3.48.19,5.26,0,.53.08,1.06.15,1.59.2,1.05.1,2.06.09,3.04-.05.01.09.02.18.03.26.23.07.44.12.62.16.1-.59.18-1.07.26-1.55.62-.09,1.16-.17,1.72-.25.09-.61.18-1.15.27-1.76.6-.09,1.14-.17,1.67-.24.14-.61.27-1.14.4-1.69.63-.04,1.18-.07,1.76-.11.08-.64.15-1.19.22-1.79.57-.1,1.12-.2,1.67-.3.13-.59.24-1.13.36-1.69.62-.06,1.16-.12,1.76-.18.1-.6.18-1.14.27-1.69.63-.09,1.18-.17,1.8-.25-.26-1.53.55-2.05,1.87-1.98Z"/>
        </g>
        <g id="WNsNV2-2" data-name="WNsNV2">
          <path class="cls-1" d="m44.12,33.91l-1.86-2.85-2.9,1.9c.28.55.51,1,.82,1.62l-3.17,2.08c.34.67.59,1.16.88,1.73-1.03.76-2,1.48-2.99,2.2.28.6.49,1.06.79,1.71l-1.72,1.13c-.27.57-.58,1.1-.94,1.59.49,1.24.25,1.34-1.32,1.87-.06-.07-.12-.13-.18-.2-.73.67-1.56,1.25-2.48,1.76-.47.26-.94.5-1.43.73-1.37,1.15-2.77,2.12-4.34,2.96l.2.3-4.9,3.21c-.45-.48-.83-.88-1.3-1.38l-6.38,4.18c-.45-.51-.81-.91-1.09-1.22-1.66-.08-2.83,3.26-4.56.29-.56.29-1.04.53-1.52.78-.43-.49-.79-.9-1.15-1.32l-1.28.84,2.99,4.57c.55-.23,1.06-.44,1.69-.71l1.99,3.04c.43-.35.82-.55,1.18-.61h0s1.28-.84,1.28-.84c.36.42.72.83,1.15,1.32.48-.25.97-.5,1.53-.78,1.73,2.96,2.91-.37,4.56-.29.28.31.63.71,1.08,1.22l6.39-4.18c.47.5.85.91,1.3,1.38l4.9-3.21-.2-.3c1.57-.84,2.97-1.81,4.34-2.96.48-.23.96-.47,1.43-.73.92-.51,1.75-1.09,2.48-1.76.06.07.12.13.17.2.23-.08.43-.15.61-.22-.25-.54-.46-.98-.66-1.43.46-.42.87-.8,1.28-1.18-.27-.55-.5-1.05-.77-1.61.44-.41.84-.78,1.24-1.14-.23-.58-.42-1.09-.63-1.62.5-.39.93-.73,1.39-1.09-.3-.57-.55-1.07-.83-1.6.42-.41.81-.79,1.21-1.19-.23-.56-.44-1.07-.65-1.6.48-.4.89-.76,1.35-1.14-.26-.55-.5-1.05-.73-1.54.47-.43.88-.8,1.34-1.22-1.07-1.12-.7-2,.43-2.7Z"/>
        </g>
      </g>
      <g id="_Radial_Repeat_-2" data-name="&amp;lt;Radial Repeat&amp;gt;">
        <g id="WNsNV2-3" data-name="WNsNV2">
          <path class="cls-1" d="m49.88,77.62l2.91,1.76,1.79-2.97c-.49-.38-.89-.68-1.44-1.1l1.96-3.25c-.6-.46-1.04-.79-1.54-1.18.6-1.13,1.17-2.2,1.74-3.28-.51-.42-.9-.74-1.45-1.2l1.06-1.76c0-.62.05-1.24.16-1.84-.97-.9-.8-1.1.38-2.26.08.03.17.07.25.1.37-.92.87-1.8,1.48-2.66.31-.43.64-.85.97-1.27.74-1.63,1.58-3.11,2.64-4.54l-.31-.19,3.03-5.01c.62.24,1.13.44,1.77.68l3.95-6.53c.63.26,1.13.47,1.51.63,1.53-.64,1.14-4.16,3.99-2.24.38-.5.71-.93,1.03-1.36.6.26,1.1.47,1.61.69l.79-1.31-4.67-2.83c-.4.45-.76.86-1.22,1.37l-3.11-1.88c-.24.5-.5.85-.8,1.06h0s-.79,1.31-.79,1.31c-.51-.22-1.01-.44-1.6-.69-.33.43-.66.87-1.04,1.37-2.84-1.92-2.46,1.59-3.99,2.24-.38-.16-.88-.37-1.51-.63l-3.95,6.53c-.64-.25-1.16-.45-1.77-.68l-3.03,5.01.31.19c-1.05,1.44-1.9,2.91-2.63,4.55-.33.42-.66.84-.97,1.27-.61.86-1.11,1.74-1.48,2.66-.08-.04-.16-.07-.24-.1-.17.17-.33.32-.45.46.46.38.84.69,1.21,1-.23.58-.44,1.09-.64,1.61.48.38.91.73,1.39,1.11-.22.56-.42,1.07-.62,1.56.46.43.85.8,1.27,1.19-.28.57-.53,1.06-.78,1.58.52.39.96.72,1.44,1.08-.2.55-.39,1.07-.58,1.59.45.41.85.77,1.28,1.16-.26.57-.48,1.07-.72,1.61.47.38.9.73,1.33,1.08-.24.59-.44,1.1-.68,1.68,1.45.54,1.5,1.5.78,2.61Z"/>
        </g>
        <g id="WNsNV2-4" data-name="WNsNV2">
          <path class="cls-1" d="m52.27,49.04l3.4-.19-.19-3.46c-.62-.03-1.12-.06-1.81-.1l-.21-3.79c-.75-.04-1.3-.07-1.94-.11-.14-1.27-.28-2.47-.42-3.69-.66-.06-1.16-.11-1.88-.17l-.11-2.05c-.36-.51-.66-1.05-.91-1.61-1.31-.2-1.28-.45-.96-2.08.09-.02.17-.04.26-.05-.21-.97-.3-1.98-.28-3.03.01-.53.04-1.06.08-1.6-.31-1.76-.45-3.46-.39-5.24l-.36.02-.33-5.85c.64-.15,1.18-.28,1.85-.43l-.42-7.62c.66-.14,1.2-.25,1.6-.33.9-1.39-1.4-4.08,2.03-4.1.03-.63.06-1.17.08-1.71.64-.13,1.17-.23,1.72-.34L52.99,0l-5.45.3c-.08.59-.14,1.14-.23,1.82l-3.63.2c.09.54.07.98-.06,1.33h0s.08,1.52.08,1.52c-.54.1-1.08.21-1.72.33-.03.54-.05,1.09-.08,1.71-3.43.02-1.13,2.7-2.03,4.1-.4.08-.93.19-1.6.33l.42,7.62c-.67.15-1.21.28-1.85.43l.33,5.85.36-.02c-.06,1.78.08,3.48.39,5.24-.04.53-.07,1.07-.08,1.6-.02,1.05.07,2.06.28,3.03-.09.02-.17.03-.26.05-.05.24-.09.45-.12.63.6.05,1.08.1,1.57.14.14.61.26,1.15.38,1.69.61.05,1.16.09,1.78.14.13.59.25,1.12.37,1.64.62.1,1.16.18,1.72.27.09.63.16,1.17.25,1.75.65.03,1.2.06,1.8.08.15.56.28,1.1.42,1.64.6.08,1.14.16,1.71.23.11.61.21,1.15.31,1.74.61.05,1.15.09,1.7.14.14.62.26,1.16.39,1.77,1.51-.37,2.09.39,2.12,1.72Z"/>
        </g>
      </g>
      <g id="_Radial_Repeat_-3" data-name="&amp;lt;Radial Repeat&amp;gt;">
        <g id="WNsNV2-5" data-name="WNsNV2">
          <path class="cls-1" d="m11.54,32.17l-2.98,1.64,1.67,3.04c.57-.24,1.04-.43,1.68-.7l1.83,3.32c.7-.29,1.21-.5,1.79-.74.68,1.09,1.32,2.11,1.97,3.15.62-.23,1.09-.4,1.77-.66l.99,1.8c.54.31,1.05.66,1.52,1.06,1.27-.39,1.35-.14,1.76,1.46-.07.06-.14.11-.21.16.61.78,1.13,1.65,1.56,2.61.22.49.42.98.62,1.48,1.04,1.45,1.9,2.92,2.62,4.55l.32-.17,2.82,5.13c-.51.42-.94.76-1.48,1.19l3.68,6.68c-.54.41-.97.74-1.3.99-.21,1.65,3.03,3.07-.06,4.57.24.58.45,1.08.66,1.58-.52.39-.96.72-1.4,1.05l.74,1.34,4.79-2.63c-.19-.57-.36-1.09-.58-1.74l3.18-1.75c-.31-.45-.49-.86-.52-1.22h0s-.74-1.33-.74-1.33c.44-.33.88-.66,1.4-1.04-.21-.5-.42-1-.67-1.58,3.09-1.5-.15-2.93.06-4.57.33-.25.76-.58,1.3-.99l-3.68-6.69c.53-.43.97-.78,1.48-1.19l-2.82-5.13-.31.17c-.72-1.63-1.58-3.1-2.62-4.55-.2-.5-.4-.99-.62-1.48-.44-.96-.95-1.83-1.56-2.61.07-.05.14-.11.21-.16-.06-.24-.11-.44-.17-.62-.56.21-1.02.38-1.48.55-.39-.49-.73-.92-1.08-1.36-.57.22-1.09.42-1.66.65-.37-.47-.71-.9-1.04-1.32-.6.18-1.12.34-1.67.5-.35-.53-.66-.99-.98-1.47-.59.25-1.11.47-1.66.7-.38-.45-.73-.87-1.09-1.3-.58.19-1.1.35-1.64.53-.36-.51-.69-.95-1.04-1.43-.57.22-1.08.41-1.59.61-.39-.5-.73-.93-1.12-1.43-1.2.99-2.05.55-2.65-.63Z"/>
        </g>
        <g id="WNsNV2-6" data-name="WNsNV2">
          <path class="cls-1" d="m35.1,48.54l-1.54,3.04,3.09,1.56c.34-.52.61-.94.99-1.52l3.39,1.71c.41-.63.71-1.09,1.06-1.63,1.17.51,2.28,1,3.4,1.48.38-.54.67-.95,1.09-1.54l1.83.93c.62-.05,1.24-.04,1.85.02.83-1.04,1.04-.88,2.28.21-.03.09-.05.17-.08.25.94.3,1.86.73,2.76,1.27.46.28.9.57,1.34.87,1.68.61,3.22,1.34,4.73,2.28l.16-.32,5.23,2.64c-.19.63-.35,1.16-.55,1.82l6.81,3.44c-.21.64-.39,1.16-.51,1.55.76,1.48,4.24.82,2.53,3.81.53.34.98.64,1.44.93-.21.61-.39,1.13-.57,1.65l1.36.69,2.46-4.88c-.48-.36-.91-.69-1.46-1.11l1.64-3.24c-.51-.2-.89-.43-1.12-.72h0s-1.36-.68-1.36-.68c.18-.52.36-1.04.57-1.65-.46-.3-.91-.59-1.44-.93,1.7-2.98-1.78-2.33-2.53-3.81.13-.39.3-.9.52-1.55l-6.81-3.44c.2-.65.36-1.19.55-1.82l-5.23-2.64-.16.32c-1.51-.94-3.05-1.67-4.73-2.28-.44-.3-.89-.59-1.34-.87-.9-.54-1.82-.97-2.76-1.27.03-.09.06-.17.09-.25-.18-.16-.34-.3-.49-.42-.34.49-.62.89-.91,1.29-.6-.19-1.12-.35-1.66-.52-.35.51-.66.96-1.01,1.47-.57-.18-1.09-.34-1.61-.5-.39.49-.74.91-1.09,1.35-.59-.24-1.1-.44-1.64-.66-.35.54-.65,1.01-.97,1.52-.56-.16-1.09-.31-1.63-.45-.37.48-.71.91-1.06,1.36-.59-.21-1.1-.4-1.66-.6-.35.5-.66.95-.97,1.4-.61-.19-1.13-.36-1.73-.55-.43,1.49-1.39,1.61-2.55.98Z"/>
        </g>
      </g>
    </g>
  </g>
</svg>