<?xml version="1.0" encoding="UTF-8"?>
<svg id="Layer_2" data-name="Layer 2" xmlns="http://www.w3.org/2000/svg" viewBox="0 0 162.06 177.95">
  <defs>
    <style>
      .cls-1 {
        fill: #fff;
        stroke-width: 0px;
      }
    </style>
  </defs>
  <g id="Layer_1-2" data-name="Layer 1">
    <g>
      <g id="_Radial_Repeat_" data-name="&amp;lt;Radial Repeat&amp;gt;">
        <path class="cls-1" d="m54.14,76.38c3.35-.04,6.7-.1,10.05-.12,3.26-.02,6.52,0,9.78-.01,1.95-.01,3.89-.09,5.84-.11,2.17-.02,4.35-.02,6.52-.02.24,0,.49.03.74.07.63-.08,1.26-.13,1.9-.12.83,0,1.67.08,2.5.07.85-.02,1.69-.13,2.54-.18.62-.04,1.23-.01,1.86.02.38.02.76.03,1.13.09.14-.03.28-.04.43-.04.14,0,.27,0,.41,0,.8-.19,1.57-.22,2.33-.07.17,0,.35,0,.52-.01,3.03-.03,6.07-.04,9.1-.08,6.02-.07,12.04-.17,18.07-.22,3.94-.04,7.88-.01,11.82-.04,2.58-.02,5.16-.09,7.74-.11,2.81-.02,5.61-.01,8.42,0,1.9,0,3.8.02,5.71.02.17,0,.34-.05.51-.08.03-.38-.25-.39-.43-.42-1.25-.21-2.51-.39-3.76-.6-2.1-.36-4.19-.74-6.29-1.12-1.07-.19-2.14-.38-3.2-.6-2.66-.55-5.32-1.1-7.97-1.67-2.39-.51-4.77-1.06-7.17-1.58-.53-.11-1.07-.2-1.61-.21-.56-.02-1.07-.16-1.56-.41-1.1-.55-2.26-.88-3.49-1.07-.93-.15-1.83-.5-2.75-.75-1.92-.53-3.85-1.04-5.76-1.59-1.13-.33-2.24-.71-3.35-1.12-1.4-.52-2.89-.77-4.25-1.42-.35-.17-.79-.18-1.19-.24-.04,0-.08-.02-.12-.02-.61-.06-1.21-.22-1.75-.48-.98-.49-1.93-1.05-2.96-1.44-1.35-.45-2.68-.94-4.01-1.43-.06-.01-.13-.03-.19-.04-.58-.1-1.12-.32-1.61-.62-1.97-.8-3.95-1.59-5.91-2.44-2.45-1.07-4.89-2.16-7.3-3.32-2.81-1.36-5.61-2.78-8.37-4.24-1.56-.82-3.05-1.78-4.56-2.69-1.67-1.01-3.37-1.97-4.97-3.06-2.54-1.74-5.1-3.48-7.51-5.39-2.58-2.05-5.15-4.14-7.46-6.51-1.96-2.01-3.96-3.99-5.59-6.29-.39-.55-.71-1.16-1.08-1.73-.16-.25-.38-.47-.55-.68-.38.13-.33.38-.33.59,0,2.58.01,5.16.02,7.75.01,3.76.02,7.52.04,11.28,0,2.4.03,4.8.04,7.2,0,3.31-.02,6.61-.02,9.92,0,2.4.02,4.8.02,7.2,0,3.17-.01,6.34-.02,9.5,0,.22.04.44.07.74.71.03,1.38.08,2.05.07,2.31-.02,4.62-.07,6.93-.1Zm72.32-6.81c-.07.25-.28.34-.52.32-.24-.02-.44-.11-.51-.37-.01-.04,0-.09,0-.13.05-.07.1-.2.15-.2.26,0,.52,0,.77.04.06.01.14.24.11.34Zm-8.91-2.65c.53-.25,1-.32,1.65-.35.03.39.04.64.07.99-.65-.07-1.21-.07-1.72-.64Zm3.66.39c.17-.22.49-.16.75-.03.21.1.28.42.11.57-.2.17-.42.3-.8.57.73.46,1.31.56,1.96.46.35-.05.71-.08,1.06-.05.24.02.39.22.37.48-.02.27-.21.44-.44.4-.95-.16-1.88-.06-2.81.1-.17.03-.36-.02-.53-.06-.34-.07-.55-.33-.55-.67.01-.72.47-1.24.87-1.77Zm-4.94.82c-.07-.35-.16-.72.4-.93.4.45.94.72,1.55.9.47.14.83.48,1.06,1.14-.93-.17-1.68-.29-2.41-.45-.33-.07-.53-.33-.6-.67Zm-52.91-10.07c-1.36-.05-2.54-.97-2.83-2.32-.33-1.53-.26-3.07.37-4.53.63-1.47,2.65-2.27,4.13-1.67.43.17.8.42,1,.87.16.36.09.75-.19.99-.28.25-.59.2-.88.04-.24-.13-.45-.31-.68-.44-.67-.37-1.19-.28-1.66.34-.22.28-.39.61-.52.94-.05.13.04.32.1.65.52-.2.85-.36,1.19-.45,1.91-.52,3.43,1.22,3.07,2.84-.05.22-.1.44-.17.66-.48,1.5-1.38,2.14-2.92,2.08Zm9.24-8.26c.46.3.62.67.49,1.15-.15.53-.55.71-1.03.45-.28-.15-.53-.35-.81-.49-.61-.3-1.16-.19-1.59.3-.33.38-.39.62-.35,1.64.42-.16.7-.31,1-.37,1.99-.4,3.07.77,3.22,2.53.17,1.89-1.61,3.27-3.5,2.95-1.27-.22-2.01-.89-2.34-2.12-.41-1.53-.45-3.05.14-4.52.73-1.83,3.13-2.57,4.75-1.51Zm-8.71-4.25c-.17.23-.48.3-.69.16-.26-.17-.34-.55-.11-.91.17,0,.43-.07.64,0,.32.1.37.48.16.76Zm-2.67-1.47c.23-.16.47-.34.69-.51.1.08.22.13.23.19.06.35.13.7.14,1.06.01.4.07.86-.39,1.05-.56.23-1.15.19-1.67-.15-.13-.09-.25-.3-.25-.45.02-.66.08-1.31.13-2.02.6.03.55.66,1.11.82Zm-2.45-.55s.02-.1.06-.12c.11-.06.23-.17.33-.15.1.02.25.16.25.26.04.49.07.98.05,1.48,0,.2-.08.48-.23.58-.15.11-.42.04-.64.05l.05-.02c-.26.05-.53.17-.78.13-.18-.02-.46-.21-.49-.37-.15-.68-.17-1.38.04-2.24.22.26.33.38.43.51.48.62.55.61.94-.12Zm-4.34,1.8c-.09-.34,0-.63.27-.85.17-.14.38-.31.57-.32.5-.01.72-.27.81-.72.02-.09.19-.15.41-.31.31.86.22,1.57.13,2.28-.05.36-.28.57-.63.59-.31.02-.63,0-.93-.05-.33-.06-.54-.3-.63-.63Zm-.34,6.5c.05-.26.16-.52.26-.77.61-1.5,1.28-1.84,2.85-1.48.17.04.34.06.58.1.03-.33.06-.59.07-.85.02-.22,0-.45.03-.68.06-.45.31-.7.67-.72.37-.02.68.2.75.63.06.35.1.72.08,1.08-.07,1.67-.12,3.33-.04,5,0,.18-.03.36-.08.53-.11.37-.5.6-.84.4-.35-.19-.62-.22-1.01-.11-2.14.62-3.76-.92-3.33-3.15Z"/>
      </g>
      <g id="_Radial_Repeat_-2" data-name="&amp;lt;Radial Repeat&amp;gt;">
        <path class="cls-1" d="m68.96,83.92c-1.64,2.92-3.27,5.85-4.92,8.77-1.61,2.83-3.27,5.64-4.88,8.48-.96,1.69-1.87,3.42-2.82,5.11-1.07,1.89-2.15,3.78-3.24,5.66-.12.21-.27.41-.43.6-.24.59-.52,1.16-.84,1.71-.42.72-.91,1.4-1.31,2.13-.41.74-.73,1.53-1.11,2.29-.28.56-.61,1.07-.95,1.6-.21.32-.41.64-.64.94-.05.13-.11.26-.18.39-.07.12-.13.24-.2.36-.24.79-.6,1.47-1.1,2.06-.08.15-.16.3-.25.46-1.49,2.64-3,5.28-4.49,7.92-2.95,5.25-5.88,10.51-8.84,15.76-1.94,3.43-3.93,6.83-5.88,10.26-1.28,2.24-2.5,4.51-3.78,6.76-1.39,2.44-2.8,4.87-4.2,7.3-.95,1.65-1.92,3.29-2.87,4.93-.09.15-.12.32-.18.48.31.21.46-.02.58-.17.81-.98,1.59-1.98,2.4-2.95,1.36-1.64,2.74-3.26,4.11-4.89.7-.83,1.4-1.66,2.12-2.48,1.8-2.03,3.61-4.05,5.44-6.07,1.64-1.81,3.31-3.6,4.95-5.42.36-.4.71-.83.99-1.29.29-.48.67-.85,1.13-1.15,1.03-.68,1.89-1.52,2.67-2.49.59-.74,1.35-1.34,2.03-2,1.42-1.4,2.82-2.82,4.26-4.19.85-.81,1.74-1.59,2.64-2.34,1.15-.96,2.11-2.11,3.36-2.97.32-.22.55-.6.8-.91.03-.03.05-.06.08-.09.35-.5.79-.94,1.29-1.27.92-.61,1.87-1.15,2.72-1.85,1.07-.94,2.15-1.85,3.24-2.76.04-.05.09-.1.13-.15.38-.46.84-.81,1.34-1.09,1.68-1.31,3.35-2.63,5.07-3.9,2.15-1.59,4.32-3.16,6.53-4.66,2.59-1.76,5.21-3.47,7.85-5.13,1.49-.94,3.07-1.75,4.61-2.61,1.7-.94,3.38-1.93,5.14-2.78,2.78-1.33,5.56-2.68,8.42-3.81,3.07-1.21,6.16-2.39,9.37-3.21,2.72-.69,5.43-1.43,8.24-1.7.67-.06,1.36-.03,2.03-.07.3-.02.6-.09.86-.14.08-.39-.17-.48-.35-.58-2.24-1.29-4.48-2.57-6.72-3.86-3.26-1.87-6.52-3.74-9.79-5.61-2.08-1.19-4.17-2.37-6.25-3.57-2.86-1.65-5.72-3.32-8.58-4.97-2.08-1.2-4.17-2.38-6.24-3.58-2.74-1.58-5.48-3.18-8.22-4.77-.19-.11-.4-.18-.67-.3-.38.6-.76,1.16-1.08,1.74-1.13,2.01-2.25,4.04-3.38,6.05Zm-30.27,66.04c-.18-.18-.15-.41-.02-.61.13-.2.31-.32.57-.25.04.01.08.04.11.07.04.08.12.18.1.23-.12.23-.25.45-.42.64-.04.05-.27,0-.35-.07Zm6.75-6.39c-.05.58-.22,1.02-.52,1.61-.35-.17-.58-.28-.89-.44.39-.53.66-1.02,1.41-1.17Zm-2.17,2.98c.11.26-.11.51-.35.67-.19.13-.5.03-.54-.19-.05-.25-.05-.52-.09-.97-.76.4-1.15.86-1.38,1.47-.13.33-.29.65-.49.94-.13.19-.38.23-.6.08-.23-.15-.27-.4-.12-.59.61-.74.99-1.59,1.32-2.49.06-.16.2-.3.32-.43.24-.26.56-.31.85-.14.62.37.84,1.03,1.09,1.64Zm1.76-4.69c.34.12.71.23.61.81-.59.12-1.09.45-1.56.89-.36.34-.83.48-1.52.35.62-.72,1.09-1.31,1.59-1.86.23-.25.55-.29.88-.18Zm35.18-40.78c.73-1.15,2.11-1.71,3.42-1.29,1.49.48,2.78,1.31,3.74,2.58.96,1.28.64,3.43-.62,4.41-.36.28-.76.49-1.25.43-.39-.04-.69-.3-.77-.66-.08-.37.13-.61.41-.78.23-.14.49-.23.72-.37.65-.39.83-.89.54-1.61-.13-.33-.33-.64-.55-.92-.09-.11-.3-.12-.61-.24-.09.55-.11.91-.21,1.26-.51,1.92-2.77,2.36-3.99,1.24-.17-.15-.33-.31-.49-.47-1.06-1.17-1.16-2.27-.34-3.57Zm2.53,12.14c-.49.25-.89.2-1.24-.15-.39-.39-.34-.83.12-1.12.27-.17.57-.29.83-.46.57-.38.74-.91.53-1.53-.16-.48-.34-.64-1.25-1.12-.07.44-.08.76-.18,1.06-.65,1.92-2.2,2.27-3.8,1.53-1.72-.8-2.03-3.03-.8-4.5.82-.99,1.78-1.29,3.01-.96,1.53.41,2.86,1.14,3.84,2.39,1.22,1.55.66,4-1.06,4.87Zm8.04-5.42c-.11-.26-.02-.57.21-.68.28-.14.65-.02.84.36-.08.15-.15.41-.31.56-.25.23-.6.08-.74-.24Zm2.61-1.57c.03.28.06.57.09.85-.12.05-.22.12-.28.1-.33-.12-.67-.24-.99-.41-.35-.19-.78-.37-.72-.87.08-.61.41-1.09.97-1.37.14-.07.38-.07.51,0,.56.34,1.09.73,1.68,1.12-.33.5-.85.15-1.27.55Zm1.7-1.85s.08.07.08.11c0,.12.03.29-.04.36-.07.08-.26.13-.35.09-.45-.21-.89-.43-1.3-.7-.17-.11-.38-.31-.39-.49-.02-.18.17-.39.27-.58v.05c.08-.25.11-.54.26-.74.11-.15.41-.29.57-.24.67.21,1.28.55,1.92,1.15-.33.06-.49.09-.65.12-.78.1-.8.17-.37.87Zm.61-4.66c.34.09.54.32.6.65.04.21.08.48,0,.65-.24.44-.12.75.21,1.06.07.06.03.24.06.51-.9-.16-1.47-.59-2.04-1.03-.29-.22-.35-.53-.2-.84.14-.28.31-.55.51-.78.22-.26.53-.32.86-.23Zm-5.46-3.55c.2.18.37.4.53.61.99,1.28.96,2.02-.14,3.21-.12.13-.22.26-.38.45.27.19.48.34.7.49.19.13.39.23.57.37.36.28.45.62.29.94-.17.34-.52.48-.92.33-.34-.12-.67-.28-.97-.47-1.41-.9-2.83-1.77-4.31-2.54-.16-.08-.3-.2-.42-.33-.27-.28-.27-.73.07-.93.34-.2.5-.43.6-.82.54-2.16,2.68-2.79,4.39-1.31Z"/>
      </g>
      <g id="_Radial_Repeat_-3" data-name="&amp;lt;Radial Repeat&amp;gt;">
        <path class="cls-1" d="m55.02,92.98c-1.71-2.88-3.44-5.76-5.13-8.65-1.65-2.81-3.25-5.65-4.9-8.46-.98-1.68-2.02-3.32-3.02-5-1.11-1.87-2.19-3.75-3.28-5.64-.12-.21-.22-.44-.31-.67-.39-.5-.74-1.03-1.06-1.59-.41-.72-.76-1.49-1.19-2.2-.44-.73-.96-1.4-1.43-2.11-.34-.52-.63-1.06-.91-1.62-.17-.34-.35-.68-.49-1.03-.09-.1-.17-.22-.25-.35-.07-.12-.14-.23-.21-.35-.56-.6-.97-1.25-1.23-1.98-.09-.15-.18-.3-.27-.44-1.55-2.61-3.07-5.24-4.62-7.85-3.07-5.18-6.17-10.35-9.23-15.54-2-3.39-3.95-6.82-5.94-10.22-1.3-2.23-2.66-4.43-3.96-6.65-1.42-2.42-2.82-4.85-4.22-7.29C2.44,3.7,1.5,2.05.55.4c-.09-.15-.22-.27-.33-.4C-.11.17.01.41.08.59c.44,1.19.92,2.37,1.36,3.56.74,2,1.46,4,2.18,6,.37,1.02.74,2.04,1.09,3.07.86,2.58,1.7,5.16,2.54,7.74.75,2.33,1.47,4.67,2.22,6.99.17.52.36,1.03.62,1.5.27.5.4,1.01.43,1.56.07,1.23.37,2.4.82,3.56.34.88.48,1.84.72,2.76.5,1.93,1.03,3.85,1.5,5.79.28,1.14.5,2.3.7,3.46.25,1.47.77,2.89.89,4.39.03.39.24.77.39,1.15.01.04.03.08.04.12.26.56.42,1.16.46,1.75.07,1.1.06,2.2.24,3.28.28,1.39.52,2.79.77,4.19.02.06.04.12.06.19.21.56.29,1.13.27,1.7.29,2.11.6,4.22.84,6.34.3,2.66.58,5.32.77,7.98.23,3.12.4,6.24.52,9.37.07,1.76-.02,3.53-.05,5.3-.04,1.95-.02,3.9-.17,5.84-.23,3.07-.46,6.15-.91,9.19-.48,3.26-1.01,6.53-1.91,9.72-.76,2.7-1.47,5.42-2.65,7.99-.28.62-.65,1.19-.96,1.8-.14.27-.22.56-.31.82.3.26.5.09.68-.01,2.24-1.29,4.47-2.59,6.7-3.89,3.25-1.89,6.5-3.78,9.75-5.67,2.07-1.21,4.14-2.43,6.22-3.63,2.86-1.65,5.73-3.29,8.6-4.94,2.08-1.2,4.14-2.42,6.22-3.62,2.74-1.58,5.49-3.16,8.24-4.74.19-.11.36-.26.6-.43-.33-.63-.62-1.23-.96-1.81-1.18-1.99-2.37-3.96-3.55-5.95ZM12.96,33.75c.25-.07.43.07.54.29.1.21.12.43-.07.62-.03.03-.08.04-.12.07-.09,0-.22.02-.25-.03-.14-.22-.26-.44-.35-.69-.02-.06.13-.24.23-.27Zm2.16,9.04c-.48-.33-.77-.71-1.13-1.25.32-.22.53-.36.82-.55.26.6.55,1.08.31,1.81Zm-1.5-3.37c-.28-.04-.39-.35-.4-.64-.01-.23.22-.45.44-.38.24.08.47.21.89.41.03-.86-.17-1.42-.58-1.93-.22-.28-.42-.58-.57-.9-.1-.21,0-.45.23-.56.24-.12.49-.04.57.18.34.9.88,1.66,1.49,2.38.11.13.16.32.21.49.11.34,0,.64-.31.81-.63.35-1.31.22-1.97.13Zm3.18,3.87c-.27.24-.55.5-1,.12.19-.57.15-1.17,0-1.79-.11-.48,0-.96.46-1.49.32.89.59,1.6.82,2.31.1.32-.02.63-.28.85Zm17.73,50.85c.64,1.21.43,2.68-.6,3.61-1.17,1.05-2.53,1.76-4.1,1.94-1.59.19-3.29-1.16-3.51-2.74-.06-.46-.04-.9.25-1.3.23-.31.61-.45.95-.33.36.12.46.41.47.75,0,.27-.04.54-.04.81.01.76.36,1.17,1.12,1.27.35.05.72.03,1.07-.02.14-.02.26-.2.52-.41-.43-.35-.73-.55-.98-.81-1.41-1.4-.66-3.58.93-4.08.22-.07.43-.14.65-.19,1.54-.33,2.55.13,3.26,1.49Zm-11.78-3.88c.03-.55.27-.87.75-1,.53-.14.89.12.91.66,0,.32-.04.63-.01.95.05.68.42,1.09,1.06,1.22.49.1.73.03,1.6-.52-.35-.28-.62-.45-.83-.68-1.34-1.52-.87-3.04.58-4.06,1.56-1.09,3.64-.24,4.3,1.55.45,1.21.23,2.19-.67,3.08-1.12,1.12-2.42,1.91-3.99,2.14-1.95.28-3.79-1.43-3.69-3.35Zm.67,9.67c.28.04.5.27.48.52-.02.31-.31.57-.74.55-.09-.14-.28-.33-.33-.55-.07-.33.23-.56.58-.52Zm.06,3.05c-.26-.11-.53-.23-.79-.35.02-.13,0-.25.05-.29.27-.23.54-.46.84-.65.34-.21.71-.49,1.11-.19.48.37.74.9.7,1.52,0,.15-.13.37-.26.44-.58.31-1.17.58-1.81.9-.27-.53.29-.81.16-1.37Zm.75,2.4s-.1.03-.13.01c-.11-.06-.26-.12-.3-.21-.03-.1.02-.29.1-.35.4-.28.82-.55,1.25-.78.18-.1.46-.17.62-.1.17.08.25.35.37.53l-.04-.03c.18.2.41.38.51.61.07.17.04.5-.08.61-.52.47-1.11.83-1.96,1.09.11-.32.16-.47.23-.62.3-.72.26-.78-.57-.76Zm3.73,2.86c-.25.25-.55.31-.87.19-.2-.08-.46-.17-.56-.33-.26-.43-.59-.49-1.03-.35-.09.03-.22-.09-.48-.2.59-.7,1.25-.98,1.91-1.25.33-.14.63-.04.83.25.17.26.32.54.42.83.12.32.01.62-.23.86Zm5.8-2.95c-.25.09-.53.12-.79.16-1.61.22-2.23-.18-2.71-1.73-.05-.16-.12-.32-.2-.55-.3.14-.54.25-.77.36-.2.1-.39.22-.6.31-.42.17-.76.08-.96-.22-.21-.31-.16-.69.17-.97.28-.23.57-.44.89-.61,1.48-.77,2.95-1.56,4.36-2.46.15-.09.33-.16.5-.2.38-.09.77.14.77.53,0,.4.12.65.41.93,1.6,1.55,1.08,3.72-1.06,4.45Z"/>
      </g>
    </g>
  </g>
</svg>