<?xml version="1.0" encoding="UTF-8"?>
<svg id="Layer_2" data-name="Layer 2" xmlns="http://www.w3.org/2000/svg" viewBox="0 0 58.48 59.94">
  <defs>
    <style>
      .cls-1 {
        fill: #fff;
        stroke-width: 0px;
      }
    </style>
  </defs>
  <g id="Layer_1-2" data-name="Layer 1">
    <path class="cls-1" d="m44.79,44.64c-.27-.11-.45-.19-.63-.27v.63c-.52.09-.48.47-.36.9-.14-.12-.28-.24-.54-.46.03.35.05.54.07.77-.56.08-.55.45-.35.97-.25-.13-.38-.2-.44-.23-.19.3-.37.59-.6.97,0,.02.07.18.12.33-.84.51-1.25,1.25-1.3,2.26-.13-.09-.26-.19-.3-.21-.43.51-.55.75-.68,1.41-.26.23-1.18.2-.77,1.08-.27.44-1.3.3-.84,1.25-.16.08-.32.16-.53.27.48.78-.9.97-.81,1.85-.33.36-1.2.31-.89,1.16-.34.38-1.24.36-.86,1.19-.31-.13-.63-.27-1.01-.44,0,.02.04-.11.08-.23-.68-.46-1.32-.91-1.96-1.37-.12-.08-1.63-.92-1.61-.94-.51-.26-1.72-1.43-2.28-1.25-.44-.83-1.16-1.2-2.13-1.32q-.62-1-1.17-.89c-.36-.45-1.55-1.56-2.06-1.03-.18-.18-.35-.35-.52-.52-.04.04-.09.08-.13.12.04.2.08.39.15.74-.23-.21-.35-.32-.61-.55.04.34.06.52.08.71-.3.42-1.36.24-.91,1.34-.25-.15-.39-.23-.42-.25-.49.53-1.44.95-1.1,1.76-.27-.21-.42-.33-.7-.56.05.36.08.53.1.69-.36.24-.71.47-1.09.73.04.16.09.35.14.54-.03.02-.07.04-.1.06-.11-.15-.21-.29-.32-.44-.05,0-.09,0-.14,0v.79c-.2-.07-.34-.13-.38-.14-.45.38-.85.72-1.29,1.09.02.1.04.26.08.49-.2-.12-.33-.19-.52-.31v.54c-.38.37-1.24.34-.91,1.28-.21-.1-.35-.18-.54-.27-.04.19-.08.36-.12.53-.22.09-.44.18-.72.29-.11-.08-.26-.19-.49-.36-.02.25-.04.4-.06.63-.28-.35-.56-.64-.93-.18-.26-.33-.38-.85-.96-.18-.52-1.16-.99-2.22-1.47-3.31,1.01-.56-.73-1.81.1-2.71-.31.02-.48.03-.77.04.81-.42.12-1.38-.15-1.94.29-.7.53-1.28.77-1.87,0,0,.14.03.28.07.34-.64.6-1.14.92-1.7.42-.75,1.24-1.37,1.3-2.2.47-.11.73-.33.33-.86.14.07.27.14.42.21.74-.87.62-2.18-.75-2.34-.3-.27-.34-1.02-1.1-.81-.25-.3-.5-.6-.76-.9-.02.04-.05.07-.07.11-.51-.31-.83-.45-1.41-.53-.34-.21-.27-1.1-1.13-.83-.46-.78-1.21-1.14-2.09-1.4.04-.05.11-.15.1-.14-.52-.43-.78-.6-1.43-.74-.49-.45-.85-.77-1.37-1.14-.73-.51-1.66-.86-2.24-1.49.45-1.11,1.49-1.81,1.69-3.08.63-.62,1.49-1.54,1.77-2.41,1.54-1.85,2.73-3.94,3.99-5.99.69-1.13,1.44-2.24,2.16-3.34.58-.89,2-2.1,2-3.15,1.08-.88,1.72-2.32,2.51-3.5.98-1.46,1.94-2.99,2.96-4.43,2.12-3,3.89-6.34,6.14-9.17,1.39.7,2.64,1.63,3.89,2.36,1.68.99,3.15,2.47,5.02,3.05.73.8,3.11,3.01,3.77,1.26.11.15.26.21.43.19.3-.3.29-.59.7-.96.39-.36.88-.59,1.28-.96.61-.56,1.55-1.13,1.8-1.89.11.04.24.09.24.09.63-.59,1.72-1.07,1.9-1.9.11.05.25.11.45.19v-.6c.2.11.36.2.59.33.06-.2.1-.36.15-.53.63.31,1.39-.35,1.85.31.97-.34,2.41,3.03,1.84,3.34.64.11.66.15.26.7.17.09.36.12.55.08-.6.24-.38.62-.2,1-.14.11-.27.22-.49.39.32.03.54.05.75.07.03.04.05.09.08.13-.66.11-.77.44-.38.92-.41.23-.79.45-.28.9-.66.4-.81.54-1.09,1.26-.48.06-.37.46-.24.94-.13-.1-.27-.21-.34-.27-.45.58-.59.73-.53,1.45-.64.07-.57.46-.42.95-.12-.14-.24-.27-.46-.53-.06.52-.1.79-.4,1.2.23.1.44.1.65,0,.26.49.35,1.15,1.12.96.31.34,1.87,1.96,2.38,1.82.23.35,1.14.76,1.5.99.36.23.55.39.94.61.96.55,1.92,2.02,3.1,1.84.97,1.42,2.87,2.27,4.4,3.15l.11-.15c.12.21.24.42.36.62-.24.47-1.28.37-.81,1.3-.58.08-.58.45-.32,1.04-.29-.21-.43-.31-.48-.34-.38.56-.58.77-.5,1.43-.54.07-.64.37-.26.96-.3-.19-.45-.28-.67-.41v.5c-.72.75-1.09,1.34-1.34,2.36-.1-.06-.24-.14-.27-.16-.47.51-.54.66-.58,1.34-.21.11-.69.22-.26.78-.24-.11-.4-.19-.64-.3-.01.45.23.92-.39.95.05.25.09.43.15.75-.23-.21-.35-.33-.59-.55,0,.62-.31,1-.45,1.58-.67.4-.91.72-.81,1.25-.29.41-1.22.37-.87,1.26-.14.1-.29.21-.45.31.04.22.07.43.11.64-.08.06-.15.11-.23.17-.06-.22-.12-.44-.18-.67-.08.05-.16.1-.24.14.19.65-.36.92-.28,1.59-.36.33-1.28.22-.86,1.16-.19.09-.35.16-.54.25.05.19.1.37.17.62-.21-.1-.37-.17-.63-.29.06.28.09.45.13.66-.48.12-.71.38-.38.85-.65.08-1.09.63-.99,1.23-.69.07-.43.5-.25.9Zm-1.87-41.13s.02.03.04.05c-.64.55-1.28,1.1-1.99,1.7.02,0-.1-.02-.21-.04-.32.84-1.25,1.19-1.87,1.84-1.02.21-2.39,2.12-3.18,2.84-.5.45-.96.98-1.49,1.39-.32.25-1.76.65-1.52,1.25-1.41,1.16-2.75,2.26-4.1,3.36-.55,1.27-2.44,2.02-3.39,2.94-.37.36-.55.72-.92,1.09-.7.71-1.53,1.33-2.25,2.05-1.27,1.26-2.74,2.52-4.18,3.53-1.06.74-3.19,2.25-3.51,3.54.14.08.26.16.5.3-.81.08,0,2.65.14,3.34.1.48.2,1.73.37,2.11.34.76.56.55,1.35.21.95.43,1.86-.14,2.83-.45.74.46,1.37-.31,2.13-.37-1.1,1.86-2.26,3.47-3.32,5.24-.68,1.13-1.38,2.17-2.15,3.24-.62.87-1.21,2.43-2.05,3.03-.58.98-1.08,1.81-1.6,2.7.03,0-.08,0-.11-.01-.76,1.24-1.84,2.57-2.09,3.88.14.07.29.15.43.22-.05.02-.09.04-.14.06.12.54.8,1.78.37,2.28.18,1,.9,1.82.49,2.98,1.85-.66,3.3-2.58,4.71-3.98.66-.29,1.01-.97,1.55-1.45-.03-.03-.05-.06-.08-.1h.38c-.03-.05-.06-.1-.09-.16,1.33-1.32,2.73-2.6,4-3.96.62-.66,1.32-1.2,1.98-1.85.41-.4,1.63-1.28,1.78-1.79.74-.56,1.12-1.15,1.53-1.79.12.07.24.14.26.15.66-.69,1.32-1.33,1.95-2.01.38-.41,1.65-.7,1.3-1.43.89-.43,1.57-1.11,1.59-1.58.8-.22,1.52-.98,1.47-1.44.67-.43,1.22-.87,1.79-1.42-.02,0,.09.03.21.06-.03-.05-.06-.1-.09-.15.44-.44.89-.88,1.33-1.33.17-.6,1.43-1.18,1.86-1.61.52-.53,1.03-1.2,1.58-1.76.89-.91,1.61-1.63,2.45-2.58-.14-.07-.26-.13-.23-.12-.28-.99-.53-1.88-.74-2.62.11-.79-.25-1.11-.4-1.86-.08-.43.08-.98-.15-1.31-.3-.42-1.43-.4-1.85-.45-.91-.11-1.75-.32-2.62-.6-.03.07-.07.19-.13.33-.59-.52.76-1.97,1.15-2.56-.04-.03-.08-.05-.12-.08.79-.68,1.37-1.82,1.96-2.69.54-.8,1.05-1.68,1.59-2.51.72-1.09,1.59-2.12,2.26-3.23.63-1.05,1.48-2.04,1.7-3.27-.08-.03-.24-.08-.39-.13.05-.01.11-.02.16-.03-.1-.49-.38-1.09-.43-1.57-.04-.41.18-.64.12-1.03-.02-.17-.45-1.26-.68-1.32-.27-.07-1.1.78-1.25.9Zm-18.04,44.59c-.08.01-.16.02-.24.03.85,1.24,2.78,2.43,4.1,3.12,1.1.58,2.02,1.3,3.07,1.99.56.37,1.82,1.56,2.44,1.61-.32-.02.71-1.14.7-1.12.34-.5.61-1.04.96-1.54.35-.5,1.7-1.84,1.57-2.48,1.31-.52,2.28-3.45,3.03-4.51.95-1.35,1.82-2.95,2.88-4.23,1.69-2.05,3.26-4.87,4.65-7.22,1.46-2.48,3.39-4.61,4.86-6.97.3-.48,1.73-2.09,1.76-2.57.05-.84-.93-1-1.49-1.36-1.17-.74-2.38-1.51-3.37-2.45-2.64-.79-4.41-3.26-6.75-4.4-1.07-.52-.89-.18-1.35.58-.32.52-.68.87-.99,1.42-.56.99-1.02,1-.03,1.42.9.38,1.6.36,2.44,1.03q-.17.37.18.45c.08.6.29,2.46.57,2.72.26,2.17,1.7,4.76-.31,6.47-1.87,1.59-4.03,3.57-5.67,5.52.03.05.07.1.1.15-.12-.04-.24-.07-.35-.11-.36.79-1.16,1.35-1.82,1.91-.71.6-1.26,1.31-1.95,1.91-.89.77-1.69,1.46-2.5,2.29-2.1,2.16-4.43,4.1-6.47,6.33Zm8.19-38.78c-2.51-1.59-4.89-3.11-7.42-4.82-.62-.42-1.32-1.34-2.17-.78-.18.12-.37.76-.49.95-.15.26-.5.78-.67,1.03-1.24,1.85-2.61,3.66-3.78,5.56-2.32,3.76-4.75,7.52-7.35,11.17-.91,1.28-1.93,2.67-2.7,3.99-.36.61-.75,1.15-1.17,1.79-.29.45-1.35,1.76-1.29,2.27-.72.38-1.43,1.82-1.83,2.53-.63,1.09-.75,1.21.22,1.89,1.81,1.28,3.84,2.41,5.6,3.62,1.04.72,2.01,1.54,3.11,2.24,1.41.89,1.56.51,2.49-.93.33-.52,1.75-2.08,1.16-2.49-.4-.29-1.31.19-1.79.03-.44-.15-.84-.69-1.17-.99.02-.03.09-.15.18-.3-.19-.04-.32-.08-.49-.11.37-.66-.34-2.09-.46-2.77-.17-.94-.41-1.88-.65-2.84.49-.29-.31-1.32-.26-1.79.05-.49.55-1.22.94-1.56.89-.78,1.81-1.46,2.74-2.28,1.98-1.73,3.83-3.42,5.83-5.16,2.15-1.86,4.31-3.77,6.43-5.64,1.7-1.5,3.18-3.27,4.98-4.6Z"/>
  </g>
</svg>