<?xml version="1.0" encoding="UTF-8"?>
<svg id="Layer_2" data-name="Layer 2" xmlns="http://www.w3.org/2000/svg" viewBox="0 0 83.7 83.7">
  <defs>
    <style>
      .cls-1 {
        fill: #fff;
        stroke-width: 0px;
      }
    </style>
  </defs>
  <g id="Layer_1-2" data-name="Layer 1">
    <g>
      <g id="_Radial_Repeat_" data-name="&amp;lt;Radial Repeat&amp;gt;">
        <path class="cls-1" d="m9.97,42.69c.33-.29.59-.52.95-.84l1.95,1.79c.4-.35.69-.6,1.02-.89.69.56,1.34,1.1,2,1.64.36-.29.63-.51,1.02-.83l1.06.97c.43.08.84.21,1.24.36.75-.54.86-.4,1.49.57-.03.05-.07.1-.1.15.58.38,1.11.84,1.61,1.37.25.27.5.55.74.84,1.02.73,1.91,1.51,2.75,2.42l.17-.19,3.01,2.76c-.25.39-.45.71-.71,1.12l3.92,3.59c-.26.39-.48.71-.64.94.23,1.13,2.69,1.35.98,3.03.29.33.54.61.79.9-.26.37-.47.69-.69,1l.79.72,2.57-2.81c-.25-.33-.48-.64-.77-1.02l1.71-1.87c-.9-.67-.92-1.36-.15-2.06-.29-.35-.54-.64-.78-.93.25-.37.46-.69.66-.99-.27-.33-.49-.6-.77-.93,1.12-.89.47-1.49-.3-2.1-.29-.23-.53-.53-.79-.79.29-.39.5-.68.78-1.06l-2.91-2.66c.27-.44.47-.76.68-1.11-.52-.53-1.02-1.01-.23-1.7.71-.62,1.18-1.87,2.34-.56.36-.28.66-.52.97-.76.36.25.68.46.98.66.35-.28.65-.51,1.04-.81l1.9,1.74c.39-.33.68-.58.98-.85.36.23.68.44,1.07.68.24-.3.44-.57.69-.87l-2.9-2.66c.29-.43.5-.75.74-1.12-.31-.24-.57-.45-.82-.64-.35.3-.62.53-.89.76-.36-.25-.67-.46-1.02-.69-.64.63-1.25,1.22-1.95,1.91l-1.91-1.75c-.39.31-.66.54-.99.81-.69-.88-1.37-.68-1.98.06-.39-.25-.71-.45-1.03-.65-.31.27-.57.5-.86.76-.35-.25-.66-.47-1.03-.73-.62.99-1.33.75-2.01.12-.32.28-.59.52-.94.83l-1.9-1.74c-.39.32-.69.56-.99.8-.36-.24-.69-.45-1.01-.66-.33.28-.62.52-.95.8-.35-.23-.67-.44-.98-.64-.36.25-.67.47-.99.7-.35-.27-.65-.51-.97-.75-.34.3-.63.56-.94.84-.35-.21-.68-.41-1.01-.61-.34.25-.65.48-.97.72-.35-.25-.66-.47-1-.72-.33.27-.62.52-.92.76-.37-.24-.69-.45-1.06-.69-.57.92-1.23.82-1.89.18l-1.6,1.75,1.78,1.63Z"/>
        <g id="WNsNV2">
          <path class="cls-1" d="m6.72,21.21c-.26.35-.46.63-.75,1.02l1.95,1.79c-.31.43-.54.74-.8,1.09.62.64,1.21,1.24,1.81,1.85-.26.38-.45.67-.74,1.09l1.06.97c.12.42.28.82.47,1.2-.47.8-.32.89.7,1.44.05-.04.1-.08.14-.12.43.54.93,1.04,1.51,1.49.29.23.59.45.9.66.81.95,1.67,1.77,2.65,2.52l-.17.19,3.01,2.76c.36-.28.67-.51,1.05-.81l3.92,3.59c.37-.3.66-.54.88-.72,1.15.13,1.58,2.56,3.11.72.35.26.66.49.96.71.35-.29.64-.53.94-.78l.79.72-2.57,2.81c-.35-.22-.68-.42-1.09-.68l-1.71,1.87c-.75-.84-1.44-.8-2.06.03-.37-.26-.68-.48-.99-.69-.35.28-.65.51-.93.74-.35-.24-.64-.44-1-.68-.79,1.19-1.44.6-2.11-.12-.26-.27-.57-.49-.85-.71-.37.32-.63.56-.99.87l-2.91-2.66c-.41.31-.72.53-1.05.78-.58-.47-1.09-.93-1.71-.08-.55.76-1.76,1.34-.35,2.38-.25.38-.46.7-.67,1.03.28.34.52.63.74.91-.24.38-.45.69-.72,1.11l1.9,1.74c-.3.41-.52.73-.76,1.06.26.34.5.64.77,1-.28.26-.52.49-.81.76l-2.9-2.66c-.41.32-.7.56-1.05.84-.27-.28-.49-.53-.71-.76.27-.38.47-.66.68-.96-.28-.34-.52-.63-.78-.95.57-.7,1.11-1.35,1.73-2.11l-1.91-1.75c.28-.41.48-.71.72-1.06-.94-.61-.79-1.31-.12-1.97-.28-.37-.51-.67-.74-.97.24-.33.45-.62.68-.93-.28-.33-.52-.62-.81-.96.94-.71.63-1.39-.06-2.02.25-.35.46-.63.74-1.01l-1.9-1.74c.28-.42.5-.73.72-1.06-.27-.34-.51-.65-.75-.95.25-.35.47-.67.71-1.02-.26-.33-.49-.63-.72-.92.22-.38.41-.71.61-1.05-.3-.33-.56-.61-.84-.91.27-.36.5-.67.75-1.01-.24-.33-.47-.64-.7-.95.22-.36.42-.69.63-1.03-.28-.33-.53-.62-.8-.94.24-.35.46-.66.68-.98-.28-.35-.51-.65-.78-.99.87-.65.71-1.3,0-1.9l1.6-1.75,1.78,1.63Z"/>
        </g>
      </g>
      <g id="_Radial_Repeat_-2" data-name="&amp;lt;Radial Repeat&amp;gt;">
        <path class="cls-1" d="m18.71,19.9c.43.03.78.05,1.26.08l.12,2.64c.53.04.91.06,1.35.09.09.89.17,1.73.26,2.57.46.05.81.08,1.31.14l.06,1.43c.25.36.45.74.62,1.13.92.15.89.33.65,1.46-.06.01-.12.02-.18.03.14.68.19,1.38.17,2.11-.01.37-.04.74-.07,1.11.2,1.23.28,2.42.23,3.66h.25s.18,4.07.18,4.07c-.45.1-.82.18-1.29.29l.23,5.31c-.46.09-.84.16-1.12.22-.64.96.94,2.86-1.45,2.84-.03.44-.05.81-.07,1.19-.44.08-.82.15-1.2.22l.05,1.06,3.8-.17c.06-.41.11-.79.18-1.27l2.53-.11c-.16-1.11.31-1.62,1.35-1.56.04-.45.07-.83.11-1.21.44-.09.81-.17,1.17-.24.04-.42.08-.77.12-1.2,1.42.16,1.39-.72,1.27-1.69-.05-.37,0-.75,0-1.11.48-.07.83-.13,1.3-.2l-.17-3.94c.5-.12.87-.21,1.27-.3,0-.75-.01-1.44,1.04-1.36.94.07,2.16-.49,2.05,1.26.46.05.84.1,1.22.14.08.43.15.8.22,1.16.44.06.82.1,1.31.16l.11,2.58c.51.04.89.07,1.3.1.09.42.17.79.27,1.24.38-.05.71-.09,1.1-.13l-.17-3.93c.51-.1.88-.18,1.32-.27-.05-.39-.09-.72-.13-1.03-.46-.04-.81-.07-1.17-.09-.08-.43-.15-.8-.23-1.21-.9,0-1.75-.02-2.73-.03l-.11-2.58c-.5-.05-.85-.09-1.27-.13.13-1.11-.49-1.45-1.44-1.36-.1-.45-.19-.82-.27-1.19-.41-.03-.76-.05-1.15-.08-.07-.43-.14-.8-.22-1.24-1.14.26-1.47-.41-1.51-1.34-.43-.03-.78-.05-1.25-.08l-.11-2.58c-.5-.05-.88-.09-1.27-.13-.09-.43-.17-.8-.25-1.18-.43-.04-.81-.07-1.24-.11-.09-.41-.17-.78-.24-1.15-.43-.07-.81-.14-1.19-.2-.06-.44-.11-.82-.16-1.22-.45-.03-.84-.05-1.25-.07-.1-.39-.19-.77-.28-1.15-.42-.06-.79-.12-1.19-.18-.07-.43-.13-.8-.2-1.22-.42-.04-.8-.08-1.19-.11-.09-.44-.17-.81-.26-1.24-1.05.25-1.45-.29-1.46-1.22l-2.37.1.11,2.41Z"/>
        <g id="WNsNV2-2" data-name="WNsNV2">
          <path class="cls-1" d="m31.6,2.41c-.43.07-.77.12-1.25.19l.12,2.64c-.52.08-.9.14-1.34.21-.01.89-.02,1.73-.03,2.59-.45.09-.8.16-1.29.25l.06,1.43c-.21.38-.38.78-.52,1.18-.9.23-.86.41-.52,1.51.06,0,.12.01.18.02-.08.69-.07,1.39.02,2.12.04.37.1.74.17,1.1-.1,1.25-.07,2.43.09,3.66h-.25s.18,4.09.18,4.09c.45.06.84.11,1.31.17l.23,5.31c.47.05.85.09,1.13.12.72.9-.69,2.93,1.69,2.7.06.43.12.81.18,1.18.45.04.83.08,1.21.11l.05,1.06-3.8.17c-.09-.41-.18-.78-.29-1.25l-2.53.11c.07-1.12-.45-1.59-1.48-1.44-.08-.45-.15-.82-.21-1.19-.44-.05-.82-.1-1.18-.14-.08-.41-.14-.76-.22-1.19-1.4.28-1.45-.6-1.41-1.58.01-.37-.06-.75-.1-1.11-.49-.03-.84-.05-1.31-.08l-.17-3.94c-.51-.08-.88-.13-1.29-.19-.07-.74-.12-1.43-1.16-1.27-.93.15-2.2-.3-1.93,1.43-.45.09-.82.17-1.2.25-.04.44-.08.81-.12,1.17-.44.09-.81.17-1.29.28l.11,2.58c-.5.08-.88.14-1.28.21-.05.43-.1.81-.16,1.26-.38-.01-.72-.02-1.11-.03l-.17-3.93c-.51-.06-.89-.1-1.34-.15.01-.39.03-.73.04-1.04.46-.08.8-.14,1.16-.2.04-.43.08-.81.12-1.23.9-.09,1.74-.17,2.72-.27l-.11-2.58c.49-.1.83-.16,1.26-.24-.23-1.1.36-1.49,1.31-1.48.06-.46.11-.84.16-1.21.41-.06.75-.12,1.13-.18.04-.43.07-.81.11-1.26,1.16.16,1.43-.54,1.38-1.47.43-.07.77-.12,1.24-.19l-.11-2.58c.49-.09.87-.17,1.25-.24.05-.43.1-.81.15-1.2.42-.08.8-.14,1.22-.22.05-.42.1-.79.14-1.16.42-.11.79-.21,1.17-.31.02-.44.03-.83.05-1.23.45-.07.83-.12,1.24-.18.06-.4.12-.78.18-1.17.41-.1.78-.19,1.17-.28.03-.43.06-.81.1-1.23.42-.08.79-.15,1.17-.21.05-.44.1-.82.15-1.26,1.07.15,1.42-.42,1.35-1.34L31.49,0l.11,2.41Z"/>
        </g>
      </g>
      <g id="_Radial_Repeat_-3" data-name="&amp;lt;Radial Repeat&amp;gt;">
        <path class="cls-1" d="m41.01,9.97c.29.33.52.59.84.95l-1.79,1.95c.35.4.6.69.89,1.02-.56.69-1.1,1.34-1.64,2,.29.36.51.63.83,1.02l-.97,1.06c-.08.43-.21.84-.36,1.24.54.75.4.86-.57,1.49-.05-.03-.1-.07-.15-.1-.38.58-.84,1.11-1.37,1.61-.27.25-.55.5-.84.74-.73,1.02-1.51,1.91-2.42,2.75l.19.17-2.76,3.01c-.39-.25-.71-.45-1.12-.71l-3.59,3.92c-.39-.26-.71-.48-.94-.64-1.13.23-1.35,2.69-3.03.98-.33.29-.61.54-.9.79-.37-.26-.69-.47-1-.69l-.72.79,2.81,2.57c.33-.25.64-.48,1.02-.77l1.87,1.71c.67-.9,1.36-.92,2.06-.15.35-.29.64-.54.93-.78.37.25.69.46.99.66.33-.27.6-.49.93-.77.89,1.12,1.49.47,2.1-.3.23-.29.53-.53.79-.79.39.29.68.5,1.06.78l2.66-2.91c.44.27.76.47,1.11.68.53-.52,1.01-1.02,1.7-.23.62.71,1.87,1.18.56,2.34.28.36.52.66.76.97-.25.36-.46.68-.66.98.28.35.51.65.81,1.04l-1.74,1.9c.33.39.58.68.85.98-.23.36-.44.68-.68,1.07.3.24.57.44.87.69l2.66-2.9c.43.29.75.5,1.12.74.24-.31.45-.57.64-.82-.3-.35-.53-.62-.76-.89.25-.36.46-.67.69-1.02-.63-.64-1.22-1.25-1.91-1.95l1.75-1.91c-.31-.39-.54-.66-.81-.99.88-.69.68-1.37-.06-1.98.25-.39.45-.71.65-1.03-.27-.31-.5-.57-.76-.86.25-.35.47-.66.73-1.03-.99-.62-.75-1.33-.12-2.01-.28-.32-.52-.59-.83-.94l1.74-1.9c-.32-.39-.56-.69-.8-.99.24-.36.45-.69.66-1.01-.28-.33-.52-.62-.8-.95.23-.35.44-.67.64-.98-.25-.36-.47-.67-.7-.99.27-.35.51-.65.75-.97-.3-.34-.56-.63-.84-.94.21-.35.41-.68.61-1.01-.25-.34-.48-.65-.72-.97.25-.35.47-.66.72-1-.27-.33-.52-.62-.76-.92.24-.37.45-.69.69-1.06-.92-.57-.82-1.23-.18-1.89l-1.75-1.6-1.63,1.78Z"/>
        <g id="WNsNV2-3" data-name="WNsNV2">
          <path class="cls-1" d="m62.49,6.72c-.35-.26-.63-.46-1.02-.75l-1.79,1.95c-.43-.31-.74-.54-1.09-.8-.64.62-1.24,1.21-1.85,1.81-.38-.26-.67-.45-1.09-.74l-.97,1.06c-.42.12-.82.28-1.2.47-.8-.47-.89-.32-1.44.7.04.05.08.1.12.14-.54.43-1.04.93-1.49,1.51-.23.29-.45.59-.66.9-.95.81-1.77,1.67-2.52,2.65l-.19-.17-2.76,3.01c.28.36.51.67.81,1.05l-3.59,3.92c.3.37.54.66.72.88-.13,1.15-2.56,1.58-.72,3.11-.26.35-.49.66-.71.96.29.35.53.64.78.94l-.72.79-2.81-2.57c.22-.35.42-.68.68-1.09l-1.87-1.71c.84-.75.8-1.44-.03-2.06.26-.37.48-.68.69-.99-.28-.35-.51-.65-.74-.93.24-.35.44-.64.68-1-1.19-.79-.6-1.44.12-2.11.27-.26.49-.57.71-.85-.32-.37-.56-.63-.87-.99l2.66-2.91c-.31-.41-.53-.72-.78-1.05.47-.58.93-1.09.08-1.71-.76-.55-1.34-1.76-2.38-.35-.38-.25-.7-.46-1.03-.67-.34.28-.63.52-.91.74-.38-.24-.69-.45-1.11-.72l-1.74,1.9c-.41-.3-.73-.52-1.06-.76-.34.26-.64.5-1,.77-.26-.28-.49-.52-.76-.81l2.66-2.9c-.32-.41-.56-.7-.84-1.05.28-.27.53-.49.76-.71.38.27.66.47.96.68.34-.28.63-.52.95-.78.7.57,1.35,1.11,2.11,1.73l1.75-1.91c.41.28.71.48,1.06.72.61-.94,1.31-.79,1.97-.12.37-.28.67-.51.97-.74.33.24.62.45.93.68.33-.28.62-.52.96-.81.71.94,1.39.63,2.02-.06.35.25.63.46,1.01.74l1.74-1.9c.42.28.73.5,1.06.72.34-.27.65-.51.95-.75.35.25.67.47,1.02.71.33-.26.63-.49.92-.72.38.22.71.41,1.05.61.33-.3.61-.56.91-.84.36.27.67.5,1.01.75.33-.24.64-.47.95-.7.36.22.69.42,1.03.63.33-.28.62-.53.94-.8.35.24.66.46.98.68.35-.28.65-.51.99-.78.65.87,1.3.71,1.9,0l1.75,1.6-1.63,1.78Z"/>
        </g>
      </g>
      <g id="_Radial_Repeat_-4" data-name="&amp;lt;Radial Repeat&amp;gt;">
        <path class="cls-1" d="m63.8,18.71c-.03.43-.05.78-.08,1.26l-2.64.12c-.04.53-.06.91-.09,1.35-.89.09-1.73.17-2.57.26-.05.46-.08.81-.14,1.31l-1.43.06c-.36.25-.74.45-1.13.62-.15.92-.33.89-1.46.65-.01-.06-.02-.12-.03-.18-.68.14-1.38.19-2.11.17-.37-.01-.74-.04-1.11-.07-1.23.2-2.42.28-3.66.23v.25s-4.07.18-4.07.18c-.1-.45-.18-.82-.29-1.29l-5.31.23c-.09-.46-.16-.84-.22-1.12-.96-.64-2.86.94-2.84-1.45-.44-.03-.81-.05-1.19-.07-.08-.44-.15-.82-.22-1.2l-1.06.05.17,3.8c.41.06.79.11,1.27.18l.11,2.53c1.11-.16,1.62.31,1.56,1.35.45.04.83.07,1.21.11.09.44.17.81.24,1.17.42.04.77.08,1.2.12-.16,1.42.72,1.39,1.69,1.27.37-.05.75,0,1.11,0,.07.48.13.83.2,1.3l3.94-.17c.12.5.21.87.3,1.27.75,0,1.44-.01,1.36,1.04-.07.94.49,2.16-1.26,2.05-.05.46-.1.84-.14,1.22-.43.08-.8.15-1.16.22-.06.44-.1.82-.16,1.31l-2.58.11c-.04.51-.07.89-.1,1.3-.42.09-.79.17-1.24.27.05.38.09.71.13,1.1l3.93-.17c.1.51.18.88.27,1.32.39-.05.72-.09,1.03-.13.04-.46.07-.81.09-1.17.43-.08.8-.15,1.21-.23,0-.9.02-1.75.03-2.73l2.58-.11c.05-.5.09-.85.13-1.27,1.11.13,1.45-.49,1.36-1.44.45-.1.82-.19,1.19-.27.03-.41.05-.76.08-1.15.43-.07.8-.14,1.24-.22-.26-1.14.41-1.47,1.34-1.51.03-.43.05-.78.08-1.25l2.58-.11c.05-.5.09-.88.13-1.27.43-.09.8-.17,1.18-.25.04-.43.07-.81.11-1.24.41-.09.78-.17,1.15-.24.07-.43.14-.81.2-1.19.44-.06.82-.11,1.22-.16.03-.45.05-.84.07-1.25.39-.1.77-.19,1.15-.28.06-.42.12-.79.18-1.19.43-.07.8-.13,1.22-.2.04-.42.08-.8.11-1.19.44-.09.81-.17,1.24-.26-.25-1.05.29-1.45,1.22-1.46l-.1-2.37-2.41.11Z"/>
        <g id="WNsNV2-4" data-name="WNsNV2">
          <path class="cls-1" d="m81.28,31.6c-.07-.43-.12-.77-.19-1.25l-2.64.12c-.08-.52-.14-.9-.21-1.34-.89-.01-1.73-.02-2.59-.03-.09-.45-.16-.8-.25-1.29l-1.43.06c-.38-.21-.78-.38-1.18-.52-.23-.9-.41-.86-1.51-.52,0,.06-.01.12-.02.18-.69-.08-1.39-.07-2.12.02-.37.04-.74.1-1.1.17-1.25-.1-2.43-.07-3.66.09v-.25s-4.09.18-4.09.18c-.06.45-.11.84-.17,1.31l-5.31.23c-.05.47-.09.85-.12,1.13-.9.72-2.93-.69-2.7,1.69-.43.06-.81.12-1.18.18-.04.45-.08.83-.11,1.21l-1.06.05-.17-3.8c.41-.09.78-.18,1.25-.29l-.11-2.53c1.12.07,1.59-.45,1.44-1.48.45-.08.82-.15,1.19-.21.05-.44.1-.82.14-1.18.41-.08.76-.14,1.19-.22-.28-1.4.6-1.45,1.58-1.41.37.01.75-.06,1.11-.1.03-.49.05-.84.08-1.31l3.94-.17c.08-.51.13-.88.19-1.29.74-.07,1.43-.12,1.27-1.16-.15-.93.3-2.2-1.43-1.93-.09-.45-.17-.82-.25-1.2-.44-.04-.81-.08-1.17-.12-.09-.44-.17-.81-.28-1.29l-2.58.11c-.08-.5-.14-.88-.21-1.28-.43-.05-.81-.1-1.26-.16.01-.38.02-.72.03-1.11l3.93-.17c.06-.51.1-.89.15-1.34.39.01.73.03,1.04.04.08.46.14.8.2,1.16.43.04.81.08,1.23.12.09.9.17,1.74.27,2.72l2.58-.11c.1.49.16.83.24,1.26,1.1-.23,1.49.36,1.48,1.31.46.06.84.11,1.21.16.06.41.12.75.18,1.13.43.04.81.07,1.26.11-.16,1.16.54,1.43,1.47,1.38.07.43.12.77.19,1.24l2.58-.11c.09.49.17.87.24,1.25.43.05.81.1,1.2.15.08.42.14.8.22,1.22.42.05.79.1,1.16.14.11.42.21.79.31,1.17.44.02.83.03,1.23.05.07.45.12.83.18,1.24.4.06.78.12,1.17.18.1.41.19.78.28,1.17.43.03.81.06,1.23.1.08.42.15.79.21,1.17.44.05.82.1,1.26.15-.15,1.07.42,1.42,1.34,1.35l.1,2.37-2.41.11Z"/>
        </g>
      </g>
      <g id="_Radial_Repeat_-5" data-name="&amp;lt;Radial Repeat&amp;gt;">
        <path class="cls-1" d="m73.73,41.01c-.33.29-.59.52-.95.84l-1.95-1.79c-.4.35-.69.6-1.02.89-.69-.56-1.34-1.1-2-1.64-.36.29-.63.51-1.02.83l-1.06-.97c-.43-.08-.84-.21-1.24-.36-.75.54-.86.4-1.49-.57.03-.05.07-.1.1-.15-.58-.38-1.11-.84-1.61-1.37-.25-.27-.5-.55-.74-.84-1.02-.73-1.91-1.51-2.75-2.42l-.17.19-3.01-2.76c.25-.39.45-.71.71-1.12l-3.92-3.59c.26-.39.48-.71.64-.94-.23-1.13-2.69-1.35-.98-3.03-.29-.33-.54-.61-.79-.9.26-.37.47-.69.69-1l-.79-.72-2.57,2.81c.25.33.48.64.77,1.02l-1.71,1.87c.9.67.92,1.36.15,2.06.29.35.54.64.78.93-.25.37-.46.69-.66.99.27.33.49.6.77.93-1.12.89-.47,1.49.3,2.1.29.23.53.53.79.79-.29.39-.5.68-.78,1.06l2.91,2.66c-.27.44-.47.76-.68,1.11.52.53,1.02,1.01.23,1.7-.71.62-1.18,1.87-2.34.56-.36.28-.66.52-.97.76-.36-.25-.68-.46-.98-.66-.35.28-.65.51-1.04.81l-1.9-1.74c-.39.33-.68.58-.98.85-.36-.23-.68-.44-1.07-.68-.24.3-.44.57-.69.87l2.9,2.66c-.29.43-.5.75-.74,1.12.31.24.57.45.82.64.35-.3.62-.53.89-.76.36.25.67.46,1.02.69.64-.63,1.25-1.22,1.95-1.91l1.91,1.75c.39-.31.66-.54.99-.81.69.88,1.37.68,1.98-.06.39.25.71.45,1.03.65.31-.27.57-.5.86-.76.35.25.66.47,1.03.73.62-.99,1.33-.75,2.01-.12.32-.28.59-.52.94-.83l1.9,1.74c.39-.32.69-.56.99-.8.36.24.69.45,1.01.66.33-.28.62-.52.95-.8.35.23.67.44.98.64.36-.25.67-.47.99-.7.35.27.65.51.97.75.34-.3.63-.56.94-.84.35.21.68.41,1.01.61.34-.25.65-.48.97-.72.35.25.66.47,1,.72.33-.27.62-.52.92-.76.37.24.69.45,1.06.69.57-.92,1.23-.82,1.89-.18l1.6-1.75-1.78-1.63Z"/>
        <g id="WNsNV2-5" data-name="WNsNV2">
          <path class="cls-1" d="m76.98,62.49c.26-.35.46-.63.75-1.02l-1.95-1.79c.31-.43.54-.74.8-1.09-.62-.64-1.21-1.24-1.81-1.85.26-.38.45-.67.74-1.09l-1.06-.97c-.12-.42-.28-.82-.47-1.2.47-.8.32-.89-.7-1.44-.05.04-.1.08-.14.12-.43-.54-.93-1.04-1.51-1.49-.29-.23-.59-.45-.9-.66-.81-.95-1.67-1.77-2.65-2.52l.17-.19-3.01-2.76c-.36.28-.67.51-1.05.81l-3.92-3.59c-.37.3-.66.54-.88.72-1.15-.13-1.58-2.56-3.11-.72-.35-.26-.66-.49-.96-.71-.35.29-.64.53-.94.78l-.79-.72,2.57-2.81c.35.22.68.42,1.09.68l1.71-1.87c.75.84,1.44.8,2.06-.03.37.26.68.48.99.69.35-.28.65-.51.93-.74.35.24.64.44,1,.68.79-1.19,1.44-.6,2.11.12.26.27.57.49.85.71.37-.32.63-.56.99-.87l2.91,2.66c.41-.31.72-.53,1.05-.78.58.47,1.09.93,1.71.08.55-.76,1.76-1.34.35-2.38.25-.38.46-.7.67-1.03-.28-.34-.52-.63-.74-.91.24-.38.45-.69.72-1.11l-1.9-1.74c.3-.41.52-.73.76-1.06-.26-.34-.5-.64-.77-1,.28-.26.52-.49.81-.76l2.9,2.66c.41-.32.7-.56,1.05-.84.27.28.49.53.71.76-.27.38-.47.66-.68.96.28.34.52.63.78.95-.57.7-1.11,1.35-1.73,2.11l1.91,1.75c-.28.41-.48.71-.72,1.06.94.61.79,1.31.12,1.97.28.37.51.67.74.97-.24.33-.45.62-.68.93.28.33.52.62.81.96-.94.71-.63,1.39.06,2.02-.25.35-.46.63-.74,1.01l1.9,1.74c-.28.42-.5.73-.72,1.06.27.34.51.65.75.95-.25.35-.47.67-.71,1.02.26.33.49.63.72.92-.22.38-.41.71-.61,1.05.3.33.56.61.84.91-.27.36-.5.67-.75,1.01.24.33.47.64.7.95-.22.36-.42.69-.63,1.03.28.33.53.62.8.94-.24.35-.46.66-.68.98.28.35.51.65.78.99-.87.65-.71,1.3,0,1.9l-1.6,1.75-1.78-1.63Z"/>
        </g>
      </g>
      <g id="_Radial_Repeat_-6" data-name="&amp;lt;Radial Repeat&amp;gt;">
        <path class="cls-1" d="m64.98,63.8c-.43-.03-.78-.05-1.26-.08l-.12-2.64c-.53-.04-.91-.06-1.35-.09-.09-.89-.17-1.73-.26-2.57-.46-.05-.81-.08-1.31-.14l-.06-1.43c-.25-.36-.45-.74-.62-1.13-.92-.15-.89-.33-.65-1.46.06-.01.12-.02.18-.03-.14-.68-.19-1.38-.17-2.11.01-.37.04-.74.07-1.11-.2-1.23-.28-2.42-.23-3.66h-.25s-.18-4.07-.18-4.07c.45-.1.82-.18,1.29-.29l-.23-5.31c.46-.09.84-.16,1.12-.22.64-.96-.94-2.86,1.45-2.84.03-.44.05-.81.07-1.19.44-.08.82-.15,1.2-.22l-.05-1.06-3.8.17c-.06.41-.11.79-.18,1.27l-2.53.11c.16,1.11-.31,1.62-1.35,1.56-.04.45-.07.83-.11,1.21-.44.09-.81.17-1.17.24-.04.42-.08.77-.12,1.2-1.42-.16-1.39.72-1.27,1.69.05.37,0,.75,0,1.11-.48.07-.83.13-1.3.2l.17,3.94c-.5.12-.87.21-1.27.3,0,.75.01,1.44-1.04,1.36-.94-.07-2.16.49-2.05-1.26-.46-.05-.84-.1-1.22-.14-.08-.43-.15-.8-.22-1.16-.44-.06-.82-.1-1.31-.16l-.11-2.58c-.51-.04-.89-.07-1.3-.1-.09-.42-.17-.79-.27-1.24-.38.05-.71.09-1.1.13l.17,3.93c-.51.1-.88.18-1.32.27.05.39.09.72.13,1.03.46.04.81.07,1.17.09.08.43.15.8.23,1.21.9,0,1.75.02,2.73.03l.11,2.58c.5.05.85.09,1.27.13-.13,1.11.49,1.45,1.44,1.36.1.45.19.82.27,1.19.41.03.76.05,1.15.08.07.43.14.8.22,1.24,1.14-.26,1.47.41,1.51,1.34.43.03.78.05,1.25.08l.11,2.58c.5.05.88.09,1.27.13.09.43.17.8.25,1.18.43.04.81.07,1.24.11.09.41.17.78.24,1.15.43.07.81.14,1.19.2.06.44.11.82.16,1.22.45.03.84.05,1.25.07.1.39.19.77.28,1.15.42.06.79.12,1.19.18.07.43.13.8.2,1.22.42.04.8.08,1.19.11.09.44.17.81.26,1.24,1.05-.25,1.45.29,1.46,1.22l2.37-.1-.11-2.41Z"/>
        <g id="WNsNV2-6" data-name="WNsNV2">
          <path class="cls-1" d="m52.1,81.28c.43-.07.77-.12,1.25-.19l-.12-2.64c.52-.08.9-.14,1.34-.21.01-.89.02-1.73.03-2.59.45-.09.8-.16,1.29-.25l-.06-1.43c.21-.38.38-.78.52-1.18.9-.23.86-.41.52-1.51-.06,0-.12-.01-.18-.02.08-.69.07-1.39-.02-2.12-.04-.37-.1-.74-.17-1.1.1-1.25.07-2.43-.09-3.66h.25s-.18-4.09-.18-4.09c-.45-.06-.84-.11-1.31-.17l-.23-5.31c-.47-.05-.85-.09-1.13-.12-.72-.9.69-2.93-1.69-2.7-.06-.43-.12-.81-.18-1.18-.45-.04-.83-.08-1.21-.11l-.05-1.06,3.8-.17c.09.41.18.78.29,1.25l2.53-.11c-.07,1.12.45,1.59,1.48,1.44.08.45.15.82.21,1.19.44.05.82.1,1.18.14.08.41.14.76.22,1.19,1.4-.28,1.45.6,1.41,1.58-.01.37.06.75.1,1.11.49.03.84.05,1.31.08l.17,3.94c.51.08.88.13,1.29.19.07.74.12,1.43,1.16,1.27.93-.15,2.2.3,1.93-1.43.45-.09.82-.17,1.2-.25.04-.44.08-.81.12-1.17.44-.09.81-.17,1.29-.28l-.11-2.58c.5-.08.88-.14,1.28-.21.05-.43.1-.81.16-1.26.38.01.72.02,1.11.03l.17,3.93c.51.06.89.1,1.34.15-.01.39-.03.73-.04,1.04-.46.08-.8.14-1.16.2-.04.43-.08.81-.12,1.23-.9.09-1.74.17-2.72.27l.11,2.58c-.49.1-.83.16-1.26.24.23,1.1-.36,1.49-1.31,1.48-.06.46-.11.84-.16,1.21-.41.06-.75.12-1.13.18-.04.43-.07.81-.11,1.26-1.16-.16-1.43.54-1.38,1.47-.43.07-.77.12-1.24.19l.11,2.58c-.49.09-.87.17-1.25.24-.05.43-.1.81-.15,1.2-.42.08-.8.14-1.22.22-.05.42-.1.79-.14,1.16-.42.11-.79.21-1.17.31-.02.44-.03.83-.05,1.23-.45.07-.83.12-1.24.18-.06.4-.12.78-.18,1.17-.41.1-.78.19-1.17.28-.03.43-.06.81-.1,1.23-.42.08-.79.15-1.17.21-.05.44-.1.82-.15,1.26-1.07-.15-1.42.42-1.35,1.34l-2.37.1-.11-2.41Z"/>
        </g>
      </g>
      <g id="_Radial_Repeat_-7" data-name="&amp;lt;Radial Repeat&amp;gt;">
        <path class="cls-1" d="m42.69,73.73c-.29-.33-.52-.59-.84-.95l1.79-1.95c-.35-.4-.6-.69-.89-1.02.56-.69,1.1-1.34,1.64-2-.29-.36-.51-.63-.83-1.02l.97-1.06c.08-.43.21-.84.36-1.24-.54-.75-.4-.86.57-1.49.05.03.1.07.15.1.38-.58.84-1.11,1.37-1.61.27-.25.55-.5.84-.74.73-1.02,1.51-1.91,2.42-2.75l-.19-.17,2.76-3.01c.39.25.71.45,1.12.71l3.59-3.92c.39.26.71.48.94.64,1.13-.23,1.35-2.69,3.03-.98.33-.29.61-.54.9-.79.37.26.69.47,1,.69l.72-.79-2.81-2.57c-.33.25-.64.48-1.02.77l-1.87-1.71c-.67.9-1.36.92-2.06.15-.35.29-.64.54-.93.78-.37-.25-.69-.46-.99-.66-.33.27-.6.49-.93.77-.89-1.12-1.49-.47-2.1.3-.23.29-.53.53-.79.79-.39-.29-.68-.5-1.06-.78l-2.66,2.91c-.44-.27-.76-.47-1.11-.68-.53.52-1.01,1.02-1.7.23-.62-.71-1.87-1.18-.56-2.34-.28-.36-.52-.66-.76-.97.25-.36.46-.68.66-.98-.28-.35-.51-.65-.81-1.04l1.74-1.9c-.33-.39-.58-.68-.85-.98.23-.36.44-.68.68-1.07-.3-.24-.57-.44-.87-.69l-2.66,2.9c-.43-.29-.75-.5-1.12-.74-.24.31-.45.57-.64.82.3.35.53.62.76.89-.25.36-.46.67-.69,1.02.63.64,1.22,1.25,1.91,1.95l-1.75,1.91c.31.39.54.66.81.99-.88.69-.68,1.37.06,1.98-.25.39-.45.71-.65,1.03.27.31.5.57.76.86-.25.35-.47.66-.73,1.03.99.62.75,1.33.12,2.01.28.32.52.59.83.94l-1.74,1.9c.32.39.56.69.8.99-.24.36-.45.69-.66,1.01.28.33.52.62.8.95-.23.35-.44.67-.64.98.25.36.47.67.7.99-.27.35-.51.65-.75.97.3.34.56.63.84.94-.21.35-.41.68-.61,1.01.25.34.48.65.72.97-.25.35-.47.66-.72,1,.27.33.52.62.76.92-.24.37-.45.69-.69,1.06.92.57.82,1.23.18,1.89l1.75,1.6,1.63-1.78Z"/>
        <g id="WNsNV2-7" data-name="WNsNV2">
          <path class="cls-1" d="m21.21,76.98c.35.26.63.46,1.02.75l1.79-1.95c.43.31.74.54,1.09.8.64-.62,1.24-1.21,1.85-1.81.38.26.67.45,1.09.74l.97-1.06c.42-.12.82-.28,1.2-.47.8.47.89.32,1.44-.7-.04-.05-.08-.1-.12-.14.54-.43,1.04-.93,1.49-1.51.23-.29.45-.59.66-.9.95-.81,1.77-1.67,2.52-2.65l.19.17,2.76-3.01c-.28-.36-.51-.67-.81-1.05l3.59-3.92c-.3-.37-.54-.66-.72-.88.13-1.15,2.56-1.58.72-3.11.26-.35.49-.66.71-.96-.29-.35-.53-.64-.78-.94l.72-.79,2.81,2.57c-.22.35-.42.68-.68,1.09l1.87,1.71c-.84.75-.8,1.44.03,2.06-.26.37-.48.68-.69.99.28.35.51.65.74.93-.24.35-.44.64-.68,1,1.19.79.6,1.44-.12,2.11-.27.26-.49.57-.71.85.32.37.56.63.87.99l-2.66,2.91c.31.41.53.72.78,1.05-.47.58-.93,1.09-.08,1.71.76.55,1.34,1.76,2.38.35.38.25.7.46,1.03.67.34-.28.63-.52.91-.74.38.24.69.45,1.11.72l1.74-1.9c.41.3.73.52,1.06.76.34-.26.64-.5,1-.77.26.28.49.52.76.81l-2.66,2.9c.32.41.56.7.84,1.05-.28.27-.53.49-.76.71-.38-.27-.66-.47-.96-.68-.34.28-.63.52-.95.78-.7-.57-1.35-1.11-2.11-1.73l-1.75,1.91c-.41-.28-.71-.48-1.06-.72-.61.94-1.31.79-1.97.12-.37.28-.67.51-.97.74-.33-.24-.62-.45-.93-.68-.33.28-.62.52-.96.81-.71-.94-1.39-.63-2.02.06-.35-.25-.63-.46-1.01-.74l-1.74,1.9c-.42-.28-.73-.5-1.06-.72-.34.27-.65.51-.95.75-.35-.25-.67-.47-1.02-.71-.33.26-.63.49-.92.72-.38-.22-.71-.41-1.05-.61-.33.3-.61.56-.91.84-.36-.27-.67-.5-1.01-.75-.33.24-.64.47-.95.7-.36-.22-.69-.42-1.03-.63-.33.28-.62.53-.94.8-.35-.24-.66-.46-.98-.68-.35.28-.65.51-.99.78-.65-.87-1.3-.71-1.9,0l-1.75-1.6,1.63-1.78Z"/>
        </g>
      </g>
      <g id="_Radial_Repeat_-8" data-name="&amp;lt;Radial Repeat&amp;gt;">
        <path class="cls-1" d="m19.9,64.98c.03-.43.05-.78.08-1.26l2.64-.12c.04-.53.06-.91.09-1.35.89-.09,1.73-.17,2.57-.26.05-.46.08-.81.14-1.31l1.43-.06c.36-.25.74-.45,1.13-.62.15-.92.33-.89,1.46-.65.01.06.02.12.03.18.68-.14,1.38-.19,2.11-.17.37.01.74.04,1.11.07,1.23-.2,2.42-.28,3.66-.23v-.25s4.07-.18,4.07-.18c.1.45.18.82.29,1.29l5.31-.23c.09.46.16.84.22,1.12.96.64,2.86-.94,2.84,1.45.44.03.81.05,1.19.07.08.44.15.82.22,1.2l1.06-.05-.17-3.8c-.41-.06-.79-.11-1.27-.18l-.11-2.53c-1.11.16-1.62-.31-1.56-1.35-.45-.04-.83-.07-1.21-.11-.09-.44-.17-.81-.24-1.17-.42-.04-.77-.08-1.2-.12.16-1.42-.72-1.39-1.69-1.27-.37.05-.75,0-1.11,0-.07-.48-.13-.83-.2-1.3l-3.94.17c-.12-.5-.21-.87-.3-1.27-.75,0-1.44.01-1.36-1.04.07-.94-.49-2.16,1.26-2.05.05-.46.1-.84.14-1.22.43-.08.8-.15,1.16-.22.06-.44.1-.82.16-1.31l2.58-.11c.04-.51.07-.89.1-1.3.42-.09.79-.17,1.24-.27-.05-.38-.09-.71-.13-1.1l-3.93.17c-.1-.51-.18-.88-.27-1.32-.39.05-.72.09-1.03.13-.04.46-.07.81-.09,1.17-.43.08-.8.15-1.21.23,0,.9-.02,1.75-.03,2.73l-2.58.11c-.05.5-.09.85-.13,1.27-1.11-.13-1.45.49-1.36,1.44-.45.1-.82.19-1.19.27-.03.41-.05.76-.08,1.15-.43.07-.8.14-1.24.22.26,1.14-.41,1.47-1.34,1.51-.03.43-.05.78-.08,1.25l-2.58.11c-.05.5-.09.88-.13,1.27-.43.09-.8.17-1.18.25-.04.43-.07.81-.11,1.24-.41.09-.78.17-1.15.24-.07.43-.14.81-.2,1.19-.44.06-.82.11-1.22.16-.03.45-.05.84-.07,1.25-.39.1-.77.19-1.15.28-.06.42-.12.79-.18,1.19-.43.07-.8.13-1.22.2-.04.42-.08.8-.11,1.19-.44.09-.81.17-1.24.26.25,1.05-.29,1.45-1.22,1.46l.1,2.37,2.41-.11Z"/>
        <g id="WNsNV2-8" data-name="WNsNV2">
          <path class="cls-1" d="m2.41,52.1c.07.43.12.77.19,1.25l2.64-.12c.08.52.14.9.21,1.34.89.01,1.73.02,2.59.03.09.45.16.8.25,1.29l1.43-.06c.38.21.78.38,1.18.52.23.9.41.86,1.51.52,0-.06.01-.12.02-.18.69.08,1.39.07,2.12-.02.37-.04.74-.1,1.1-.17,1.25.1,2.43.07,3.66-.09v.25s4.09-.18,4.09-.18c.06-.45.11-.84.17-1.31l5.31-.23c.05-.47.09-.85.12-1.13.9-.72,2.93.69,2.7-1.69.43-.06.81-.12,1.18-.18.04-.45.08-.83.11-1.21l1.06-.05.17,3.8c-.41.09-.78.18-1.25.29l.11,2.53c-1.12-.07-1.59.45-1.44,1.48-.45.08-.82.15-1.19.21-.05.44-.1.82-.14,1.18-.41.08-.76.14-1.19.22.28,1.4-.6,1.45-1.58,1.41-.37-.01-.75.06-1.11.1-.03.49-.05.84-.08,1.31l-3.94.17c-.08.51-.13.88-.19,1.29-.74.07-1.43.12-1.27,1.16.15.93-.3,2.2,1.43,1.93.09.45.17.82.25,1.2.44.04.81.08,1.17.12.09.44.17.81.28,1.29l2.58-.11c.08.5.14.88.21,1.28.43.05.81.1,1.26.16-.01.38-.02.72-.03,1.11l-3.93.17c-.06.51-.1.89-.15,1.34-.39-.01-.73-.03-1.04-.04-.08-.46-.14-.8-.2-1.16-.43-.04-.81-.08-1.23-.12-.09-.9-.17-1.74-.27-2.72l-2.58.11c-.1-.49-.16-.83-.24-1.26-1.1.23-1.49-.36-1.48-1.31-.46-.06-.84-.11-1.21-.16-.06-.41-.12-.75-.18-1.13-.43-.04-.81-.07-1.26-.11.16-1.16-.54-1.43-1.47-1.38-.07-.43-.12-.77-.19-1.24l-2.58.11c-.09-.49-.17-.87-.24-1.25-.43-.05-.81-.1-1.2-.15-.08-.42-.14-.8-.22-1.22-.42-.05-.79-.1-1.16-.14-.11-.42-.21-.79-.31-1.17-.44-.02-.83-.03-1.23-.05-.07-.45-.12-.83-.18-1.24-.4-.06-.78-.12-1.17-.18-.1-.41-.19-.78-.28-1.17-.43-.03-.81-.06-1.23-.1-.08-.42-.15-.79-.21-1.17-.44-.05-.82-.1-1.26-.15.15-1.07-.42-1.42-1.34-1.35L0,52.2l2.41-.11Z"/>
        </g>
      </g>
    </g>
  </g>
</svg>