<?xml version="1.0" encoding="UTF-8"?>
<svg id="Layer_2" data-name="Layer 2" xmlns="http://www.w3.org/2000/svg" viewBox="0 0 95.45 95.45">
  <defs>
    <style>
      .cls-1 {
        fill: #fff;
        stroke-width: 0px;
      }
    </style>
  </defs>
  <g id="Layer_1-2" data-name="Layer 1">
    <g>
      <g id="_Radial_Repeat_" data-name="&amp;lt;Radial Repeat&amp;gt;">
        <path class="cls-1" d="m56.23,46.4c.48-.32.87-.57,1.41-.92l-1.59-3.14c.59-.38,1.01-.66,1.5-.99-.48-1.09-.92-2.11-1.38-3.15.5-.36.88-.63,1.43-1.01l-.86-1.7c.05-.58.04-1.15-.02-1.72.96-.77.82-.96-.2-2.11-.08.03-.15.05-.23.08-.28-.87-.68-1.73-1.18-2.56-.26-.42-.53-.84-.81-1.25-.57-1.56-1.25-2.99-2.12-4.39l.3-.15-2.45-4.84c-.58.18-1.07.33-1.68.51l-3.2-6.31c-.6.2-1.07.36-1.44.48-1.37-.7-.77-3.93-3.53-2.35-.32-.49-.59-.91-.86-1.33-.57.2-1.05.36-1.53.53l-.64-1.26,4.52-2.29c.34.44.64.84,1.03,1.36l3-1.52c.53,1.4,1.42,1.67,2.58.93.34.5.63.92.91,1.33.57-.18,1.05-.34,1.51-.48.32.46.59.84.92,1.32,1.54-1.11,2.08-.07,2.58,1.13.19.46.49.87.72,1.29.61-.23,1.04-.4,1.64-.62l2.37,4.68c.66-.19,1.14-.33,1.67-.48.5.86.93,1.67,2.1.9,1.05-.69,2.82-.85,1.55-2.79.49-.36.9-.66,1.32-.96-.18-.55-.34-1.03-.5-1.49.48-.35.88-.65,1.41-1.04l-1.55-3.06c.56-.38.99-.66,1.44-.96-.17-.55-.32-1.03-.49-1.61.47-.2.88-.37,1.36-.57l2.36,4.66c.66-.21,1.14-.37,1.71-.55.2.48.37.89.53,1.28-.51.34-.9.6-1.29.87.19.55.35,1.03.52,1.55-1.04.6-2.01,1.16-3.15,1.82l1.55,3.07c-.54.38-.92.65-1.39.99.88,1.2.38,2-.78,2.51.18.59.32,1.08.46,1.56-.46.3-.85.56-1.28.83.19.54.36,1.02.56,1.58-1.5.44-1.43,1.44-.87,2.54-.48.31-.87.57-1.4.91l1.55,3.06c-.55.39-.96.68-1.38.98.17.55.33,1.04.48,1.53-.47.32-.89.61-1.36.94.17.53.32,1.01.47,1.49-.45.37-.85.68-1.25,1.01.22.55.41,1.02.62,1.52-.51.32-.94.6-1.41.9.15.52.28,1.01.42,1.51-.44.34-.84.66-1.26.98.2.54.37,1.02.56,1.54-.47.32-.88.61-1.3.9.18.56.33,1.05.51,1.6-1.38.4-1.49,1.29-.9,2.36l-2.82,1.43-1.45-2.87Z"/>
        <g id="WNsNV2">
          <path class="cls-1" d="m82.58,58.26c-.54.2-.97.37-1.58.59l-1.59-3.14c-.66.25-1.14.43-1.68.63-.6-1.03-1.16-2-1.73-2.98-.58.19-1.03.34-1.66.55l-.86-1.7c-.5-.3-.95-.65-1.37-1.03-1.19.32-1.26.09-1.59-1.41.07-.05.13-.09.2-.14-.54-.74-.99-1.57-1.37-2.47-.19-.46-.36-.92-.53-1.39-.92-1.38-1.67-2.77-2.28-4.3l-.3.15-2.45-4.84c.49-.37.9-.67,1.41-1.06l-3.2-6.31c.51-.36.92-.65,1.23-.87.25-1.52-2.71-2.94.2-4.24-.21-.54-.39-1.01-.57-1.49.49-.34.91-.63,1.33-.92l-.64-1.26-4.52,2.29c.16.53.3,1.02.48,1.63l-3,1.52c.81,1.26.51,2.13-.77,2.63.2.57.37,1.05.53,1.52-.48.35-.89.65-1.28.93.18.53.33.97.52,1.52-1.81.59-1.29,1.64-.61,2.75.26.42.42.91.61,1.35-.55.35-.94.61-1.47.95l2.37,4.68c-.54.42-.94.73-1.37,1.06.4.91.8,1.74-.51,2.22-1.18.44-2.35,1.78-3.17-.4-.58.18-1.07.34-1.56.5-.34-.48-.63-.89-.91-1.28-.57.18-1.05.33-1.68.52l-1.55-3.06c-.64.23-1.12.41-1.62.6-.34-.46-.65-.87-1.01-1.35-.44.27-.82.5-1.26.76l2.36,4.66c-.56.4-.97.7-1.45,1.05.27.44.5.82.72,1.18.58-.21,1.02-.36,1.47-.53.33.47.63.89.94,1.34,1.1-.48,2.13-.94,3.33-1.46l1.55,3.07c.63-.21,1.07-.36,1.62-.54.45,1.42,1.39,1.49,2.49.86.37.49.68.9.98,1.3.52-.19.95-.36,1.43-.54.32.47.61.89.94,1.39,1.24-.94,2.01-.3,2.56.8.54-.2.97-.37,1.56-.59l1.55,3.06c.63-.21,1.12-.37,1.61-.54.34.47.65.88.95,1.3.54-.19,1.02-.36,1.56-.55.33.45.63.86.92,1.26.56-.15,1.05-.28,1.56-.41.31.5.58.94.86,1.39.56-.22,1.04-.4,1.56-.6.33.43.65.83.97,1.23.54-.15,1.03-.29,1.54-.44.32.48.61.9.91,1.36.54-.18,1.02-.35,1.5-.52.35.48.65.89.99,1.36,1.14-.88,1.92-.44,2.44.67l2.82-1.43-1.45-2.87Z"/>
        </g>
      </g>
      <g id="_Radial_Repeat_-2" data-name="&amp;lt;Radial Repeat&amp;gt;">
        <path class="cls-1" d="m42.33,41.02c-.51-.26-.93-.47-1.5-.76l-1.92,2.94c-.63-.32-1.08-.55-1.61-.81-.7.96-1.37,1.86-2.04,2.77-.56-.26-.98-.45-1.59-.73l-1.04,1.6c-.53.25-1.02.54-1.48.87-1.15-.45-1.24-.23-1.73,1.23.06.05.12.11.18.16-.62.68-1.16,1.45-1.63,2.3-.24.43-.46.88-.67,1.32-1.07,1.27-1.96,2.57-2.74,4.03l-.28-.18-2.97,4.55c.45.42.82.77,1.28,1.2l-3.87,5.93c.47.42.85.75,1.13,1,.08,1.54-3.02,2.63-.27,4.23-.26.52-.49.97-.72,1.41.45.39.84.73,1.22,1.06l-.77,1.19-4.24-2.77c.21-.51.41-.98.66-1.57l-2.82-1.84c.94-1.16.74-2.06-.48-2.7.26-.55.48-1,.7-1.45-.44-.4-.81-.74-1.17-1.07.24-.51.44-.93.68-1.46-1.73-.78-1.1-1.77-.31-2.8.3-.39.51-.86.75-1.27-.5-.41-.87-.71-1.36-1.11l2.87-4.39c-.49-.47-.85-.83-1.25-1.21.5-.86.99-1.64-.27-2.27-1.12-.56-2.14-2.02-3.19.05-.56-.25-1.02-.45-1.5-.66-.39.44-.72.81-1.04,1.17-.55-.24-1.01-.44-1.61-.7l-1.88,2.87c-.61-.3-1.07-.53-1.55-.77-.39.42-.74.79-1.15,1.23-.41-.31-.76-.58-1.17-.9l2.86-4.38c-.51-.46-.89-.8-1.33-1.2.32-.41.59-.76.85-1.1.55.27.97.47,1.4.68.38-.44.72-.81,1.08-1.23,1.04.6,2.01,1.16,3.15,1.82l1.88-2.88c.6.28,1.03.47,1.55.71.6-1.37,1.55-1.33,2.56-.58.42-.45.77-.82,1.12-1.18.49.25.91.46,1.36.69.37-.44.7-.82,1.09-1.28,1.13,1.07,1.96.52,2.63-.52.51.26.93.47,1.49.76l1.87-2.87c.61.28,1.07.49,1.54.71.39-.43.74-.8,1.09-1.19.51.25.98.47,1.49.71.38-.41.72-.78,1.06-1.15.54.21,1.02.39,1.5.58.36-.46.68-.87,1.01-1.29.53.28.99.51,1.49.77.38-.39.74-.75,1.1-1.12.52.21.99.4,1.48.6.37-.44.7-.83,1.06-1.25.51.24.97.46,1.43.68.4-.44.74-.81,1.13-1.24,1.04,1,1.86.65,2.5-.4l2.65,1.73-1.76,2.69Z"/>
        <g id="WNsNV2-2" data-name="WNsNV2">
          <path class="cls-1" d="m39.42,12.28c.45.37.8.66,1.3,1.07l-1.92,2.94c.54.45.94.77,1.39,1.14-.59,1.03-1.15,2-1.71,2.98.46.41.81.72,1.31,1.16l-1.04,1.6c-.02.58-.09,1.15-.2,1.71.87.87.71,1.05-.43,2.08-.07-.03-.15-.07-.22-.1-.37.84-.86,1.64-1.45,2.42-.3.39-.62.77-.94,1.15-.74,1.49-1.56,2.83-2.59,4.13l.28.18-2.97,4.55c-.56-.24-1.03-.44-1.62-.69l-3.87,5.93c-.57-.26-1.03-.47-1.37-.63-1.44.55-1.19,3.82-3.77,1.95-.37.45-.69.84-1,1.23-.54-.26-1-.47-1.47-.69l-.77,1.19,4.24,2.77c.38-.4.73-.77,1.17-1.23l2.82,1.84c.68-1.33,1.59-1.51,2.66-.65.39-.46.72-.84,1.05-1.22.54.24,1.01.45,1.45.64.37-.42.68-.77,1.06-1.21,1.41,1.27,2.06.29,2.68-.85.24-.44.58-.82.86-1.2.58.3,1,.51,1.56.8l2.87-4.39c.63.26,1.1.45,1.61.66.59-.8,1.1-1.56,2.18-.67.97.8,2.71,1.15,1.24,2.94.45.41.83.75,1.21,1.1-.24.53-.46.99-.66,1.42.44.4.81.75,1.29,1.19l-1.88,2.87c.52.43.91.76,1.33,1.11-.23.53-.43.99-.67,1.55.45.25.84.46,1.29.71l2.86-4.38c.63.28,1.09.49,1.64.73.25-.45.46-.85.66-1.22-.47-.4-.82-.7-1.19-1.01.24-.53.46-.99.69-1.49-.97-.71-1.88-1.38-2.93-2.15l1.88-2.88c-.5-.44-.85-.75-1.27-1.13,1.01-1.1.59-1.95-.5-2.58.24-.57.44-1.03.63-1.5-.43-.35-.78-.64-1.18-.97.25-.52.47-.97.73-1.51-1.44-.6-1.27-1.59-.59-2.62-.44-.36-.8-.66-1.29-1.06l1.87-2.87c-.5-.44-.88-.78-1.27-1.12.23-.53.44-1,.65-1.47-.43-.37-.82-.71-1.25-1.08.22-.51.43-.97.63-1.43-.41-.41-.77-.77-1.14-1.14.28-.52.52-.97.78-1.44-.47-.38-.87-.7-1.3-1.05.2-.5.39-.98.58-1.46-.4-.39-.77-.74-1.15-1.11.25-.52.48-.97.72-1.47-.43-.37-.81-.7-1.2-1.04.24-.54.45-1.01.68-1.54-1.33-.55-1.34-1.44-.64-2.45l-2.65-1.73-1.76,2.69Z"/>
        </g>
      </g>
      <g id="_Radial_Repeat_-3" data-name="&amp;lt;Radial Repeat&amp;gt;">
        <path class="cls-1" d="m44.62,55.75c.03.58.06,1.04.09,1.68l3.51.19c.04.7.07,1.21.1,1.8,1.18.13,2.29.26,3.42.38.06.61.1,1.08.16,1.74l1.9.1c.48.33.98.61,1.5.84.18,1.22.42,1.19,1.93.89.02-.08.03-.16.05-.24.9.19,1.84.28,2.81.26.49-.01.99-.04,1.48-.08,1.64.29,3.21.41,4.86.36l-.02.33,5.42.3c.14-.59.26-1.09.4-1.71l7.07.39c.13-.62.23-1.11.3-1.48,1.29-.84,3.79,1.3,3.8-1.89.58-.03,1.08-.05,1.59-.08.11-.59.21-1.09.31-1.59l1.41.08-.28,5.06c-.55.07-1.05.14-1.69.22l-.18,3.36c-1.48-.23-2.16.39-2.1,1.77-.6.05-1.11.09-1.61.12-.13.58-.23,1.08-.34,1.55-.56.05-1.03.09-1.6.14.19,1.89-.98,1.84-2.27,1.66-.49-.07-1-.01-1.48-.02-.1.64-.18,1.1-.28,1.73l-5.24-.29c-.17.66-.29,1.15-.42,1.68-.99,0-1.91-.03-1.83,1.36.07,1.25-.68,2.87,1.64,2.74.07.61.12,1.11.17,1.63.57.12,1.07.22,1.54.31.07.59.12,1.09.2,1.74l3.43.19c.04.68.07,1.19.11,1.73.56.13,1.05.24,1.64.38-.07.51-.12.95-.19,1.46l-5.22-.29c-.14.67-.25,1.17-.38,1.75-.51-.07-.96-.13-1.37-.18-.04-.61-.08-1.08-.11-1.56-.57-.11-1.06-.21-1.61-.32,0-1.2,0-2.33,0-3.63l-3.43-.19c-.06-.66-.11-1.13-.16-1.69-1.48.16-1.92-.68-1.78-1.93-.6-.14-1.09-.26-1.58-.38-.03-.55-.06-1.01-.08-1.52-.56-.1-1.06-.2-1.65-.3.36-1.52-.53-1.96-1.76-2.02-.03-.57-.06-1.04-.09-1.67l-3.42-.19c-.06-.67-.11-1.17-.16-1.69-.57-.13-1.06-.24-1.57-.35-.04-.57-.08-1.08-.13-1.65-.54-.12-1.04-.23-1.52-.34-.09-.57-.17-1.07-.25-1.59-.58-.08-1.09-.15-1.62-.23-.03-.6-.05-1.11-.08-1.67-.52-.13-1.02-.26-1.52-.39-.08-.56-.15-1.06-.22-1.58-.57-.1-1.07-.19-1.61-.29-.05-.56-.09-1.07-.13-1.58-.58-.13-1.08-.24-1.64-.36.34-1.4-.37-1.93-1.6-1.96l.17-3.15,3.21.18Z"/>
        <g id="WNsNV2-3" data-name="WNsNV2">
          <path class="cls-1" d="m21.18,72.64c.09-.57.17-1.03.27-1.66l3.51.19c.12-.69.2-1.2.3-1.77,1.19,0,2.31,0,3.44,0,.12-.6.22-1.06.35-1.71l1.9.1c.51-.28,1.04-.5,1.58-.68.32-1.19.55-1.14,2.01-.67,0,.08.01.16.02.24.91-.1,1.85-.08,2.82.05.49.06.98.15,1.47.24,1.66-.11,3.24-.06,4.87.18l.02-.33,5.42.3c.07.61.13,1.11.21,1.75l7.07.39c.06.63.1,1.13.14,1.51,1.19.97,3.9-.88,3.57,2.29.57.09,1.07.17,1.57.25.05.6.09,1.1.14,1.61l1.41.08.28-5.06c-.54-.13-1.03-.25-1.66-.4l.18-3.36c-1.49.07-2.1-.62-1.89-1.98-.59-.11-1.09-.21-1.59-.3-.06-.59-.11-1.09-.17-1.58-.55-.11-1.01-.2-1.58-.31.4-1.86-.77-1.93-2.08-1.9-.5.01-1-.09-1.47-.14-.03-.65-.06-1.12-.09-1.75l-5.24-.29c-.09-.68-.16-1.18-.24-1.72-.99-.11-1.9-.17-1.67-1.55.21-1.24-.36-2.92,1.93-2.54.13-.6.24-1.09.35-1.6.58-.05,1.08-.1,1.56-.14.13-.58.24-1.07.39-1.71l3.43.19c.12-.67.2-1.17.3-1.7.57-.07,1.07-.13,1.67-.2-.01-.51-.02-.96-.03-1.48l-5.22-.29c-.07-.69-.12-1.19-.18-1.78-.52.01-.97.02-1.38.03-.11.61-.19,1.06-.28,1.54-.58.05-1.08.1-1.63.15-.13,1.19-.25,2.31-.4,3.61l-3.43-.19c-.13.65-.23,1.11-.34,1.67-1.46-.32-1.98.46-1.98,1.73-.61.08-1.11.14-1.61.2-.09.54-.17,1-.25,1.51-.57.04-1.08.08-1.68.12.2,1.55-.74,1.89-1.97,1.82-.09.57-.17,1.03-.27,1.65l-3.42-.19c-.13.66-.23,1.15-.34,1.66-.58.06-1.08.12-1.6.18-.11.56-.2,1.06-.31,1.62-.55.06-1.06.12-1.55.17-.15.56-.29,1.05-.42,1.56-.59.02-1.1.03-1.64.05-.09.59-.17,1.1-.26,1.65-.54.08-1.04.15-1.55.22-.14.54-.26,1.04-.39,1.55-.58.04-1.08.07-1.64.11-.11.56-.2,1.05-.3,1.56-.59.06-1.1.12-1.67.18.19,1.42-.58,1.88-1.8,1.78l-.17,3.15,3.21.18Z"/>
        </g>
      </g>
    </g>
  </g>
</svg>