<?xml version="1.0" encoding="UTF-8"?>
<svg id="Layer_2" data-name="Layer 2" xmlns="http://www.w3.org/2000/svg" viewBox="0 0 369.51 377.37">
  <defs>
    <style>
      .cls-1 {
        fill: #fff;
        stroke-width: 0px;
      }
    </style>
  </defs>
  <g id="Layer_1-2" data-name="Layer 1">
    <path class="cls-1" d="m340.02,86.17c2.66-.88,4.74-1.63,6.86-2.26,2.58-.76,5,1.08,4.8,3.78-.12,1.59-.59,3.17-1.06,4.71-.35,1.16-.89,2.27-1.45,3.34-.46.89-1.07,1.69-1.69,2.65,1.02,3.55,2.96,6.63,4.59,9.85,1,1.97,1.82,4.04,2.68,6.08.31.74.37,1.61.75,2.31,3.51,6.47,5.17,13.53,7.23,20.53,2.25,7.64,3.36,15.44,4.88,23.18,2.08,10.61,1.91,21.4,1.71,32.16-.02,1.01-.13,2.03-.07,3.04.18,3.02.68,6.06-.73,8.94-.02,6.34-1.95,12.39-2.79,18.61-.6,4.43-1.35,8.81-3.07,12.98-.31.75-.53,1.54-.69,2.33-2.38,11.84-7.94,22.44-12.66,33.41-2.99,6.96-7.9,12.66-10.95,19.51-1.21,2.7-3.52,4.91-5.32,7.35-.6.81-1.31,1.58-1.74,2.47-1.31,2.76-2.45,5.57-5.71,6.72-.66.23-1.09,1.16-1.58,1.8-4.59,5.94-9.87,11.23-15.34,16.36-6.23,5.84-12.78,11.32-19.97,15.86-11.12,7.02-22.14,14.25-34.56,19.02-9.25,3.55-18.61,6.68-28.2,9.06-5.89,1.46-11.84,2.73-17.82,3.76-4.17.72-8.42,1.16-12.65,1.25-6.69.14-13.38-.02-20.07-.25-4.16-.15-4.16-.31-7.38,2.66-2.58-1.78-5.19-3.59-7.89-5.46-6.67,1.93-12.85-.68-19.15-1.95-11.99-2.41-23.19-7.1-34.2-12.27-4.57-2.14-8.98-4.65-13.48-6.95-1.07-.55-2.25-.88-3.36-1.37-1.29-.57-2.86-.92-3.79-1.87-4.85-4.94-10.82-8.43-16.28-12.54-7.16-5.39-13.33-11.75-19.9-17.72-2.17-1.97-3.35-4.56-5.34-6.56-4.3-4.33-7.89-9.23-11.52-14.11-2.98-4.01-5.59-8.23-7.72-12.76-1.2-2.55-2.82-4.91-4.09-7.43-1.27-2.51-2.9-4.82-3.52-7.7-.42-1.92-1.75-3.62-2.58-5.47-1.08-2.39-2.43-4.73-3.01-7.25-.92-3.99-2.43-7.68-4.2-11.34-.96-1.98-1.39-4.12-1.71-6.38-.73-5.2-1.52-10.52-3.32-15.41-2.3-6.26-2.32-12.71-2.64-19.08-.5-9.9-.32-19.84-.14-29.76.15-8.53,1.43-16.95,3.61-25.22.57-2.15,1.25-4.33,1.42-6.52.38-5.14,2.87-9.65,4-14.56.22-.94,1.05-1.71,1.49-2.62.61-1.27,1.61-2.61,1.57-3.89-.12-3.72,1.9-6.48,3.54-9.46,1.07-1.94,1.98-3.97,2.98-5.96,1.09-2.17,2.2-4.33,3.29-6.5.82-1.62,1.6-3.26,2.42-4.88.73-1.44,1.31-3.02,2.29-4.27,2.62-3.35,5.2-6.68,6.85-10.69.51-1.23,1.71-2.29,2.8-3.15,1.81-1.42,3.31-2.93,3.82-5.28.16-.74.64-1.56,1.22-2.05,4.2-3.54,7.36-8.01,10.89-12.14,1.55-1.82,3.57-3.19,5.3-4.84,10.56-10.06,21.66-19.39,34.61-26.46,7.65-4.18,15.55-7.81,23.3-11.75,3.21-1.64,6.94-2.23,10.31-3.59,6.04-2.44,12.37-3.6,18.66-5.1,4.73-1.13,9.35-2.45,14.25-2.58.98-.03,2-.43,2.89-.88,1.89-.96,3.77-1.38,5.85-.72.56.18,1.23.24,1.8.11,6.82-1.5,13.76-.89,20.61-.75,7.87.16,15.75,1.13,23.57,2.16,9.04,1.19,17.74,4.05,26.58,6.21,2.73.67,5.26,2.11,7.93,3.05,12.3,4.33,23.66,10.54,34.76,17.3,6.73,4.1,12.91,8.96,19.04,13.89,1.57,1.26,2.92,2.8,4.38,4.2,1.02.98,1.94,2.12,3.11,2.87,4.15,2.65,7.28,6.33,10.38,10.02,5.2,6.19,10.31,12.47,15.34,18.8,1.75,2.2,3.14,4.68,4.97,7.45ZM52.14,67.93c-.01-.08-.24.37-.09-.03,1.15,0,2.3-.02,3.45-.03-1.68,2.28-3.11,4.81-5.08,6.8-5.03,5.07-8.51,11.24-12.57,17-2.21,3.14-4.17,6.45-6.25,9.68-.54.84-1.51,1.62-1.6,2.5-.4,3.87-3.3,6.46-4.67,9.78-1.48,3.57-3.06,6.99-5.79,9.24.19,1.48.62,2.54.37,3.41-1.23,4.27-2.73,8.47-3.98,12.74-1.31,4.47-2.77,8.93-3.59,13.49-2.16,12-2.87,24.13-2.3,36.31.34,7.28.76,14.56,1.23,21.84.36,5.67.77,11.31,2.98,16.68,1.07,2.61,1.95,5.41,2.23,8.2.95,9.52,6.73,17.35,8.94,26.41.23.94,1.01,1.74,1.52,2.61.93,1.57,1.88,3.13,2.76,4.72,2.92,5.32,5.79,10.67,8.74,15.97.59,1.05,1.5,1.91,2.2,2.9,2.57,3.63,5.76,6.86,8.15,10.51,4.61,7.03,10.23,13.19,16.43,18.55,6.99,6.04,13.99,12.29,22.29,16.7,1.42.75,2.63,1.88,3.96,2.81,1.16.81,2.26,1.77,3.53,2.33,4.62,2.04,8.55,5.36,13.36,7.09,2.26.81,4.29,2.24,6.44,3.36,5.76,3.02,12.16,4.26,18.28,6.2,11.38,3.61,22.93,6.72,35.06,6.43.59-.01,1.18.27,1.77.4,4.57,1,9.17,1.66,13.87,1.3,3.23-.25,6.45-.46,9.68-.72,14.12-1.16,28.16-2.87,41.69-7.35,2.48-.82,4.9-1.85,7.31-2.86,4.84-2.04,9.74-3.97,14.47-6.26,7.27-3.51,14.34-7.41,21.41-11.34,6.99-3.88,12.4-9.69,19.18-13.7,4.5-5.41,10.45-9.44,14.52-15.27.68-.98,1.77-1.66,2.62-2.53.98-1.01,2.09-1.96,2.81-3.14,2.3-3.81,6.02-6.56,7.81-10.75.38-.88,1.38-1.47,2.01-2.26,1.02-1.26,2.15-2.47,2.93-3.86,4.92-8.82,10.13-17.44,14.22-26.77,3.85-8.79,5.4-18.24,9.23-26.95.93-7.19,2.86-14.27,2.34-21.63-.08-1.18.21-2.42.52-3.59,1.68-6.33,1.81-12.81,1.76-19.29-.02-2.4-.41-4.8-.57-7.2-.3-4.43-.29-8.91-.88-13.3-1.38-10.24-2.82-20.5-6.48-30.26-.5-1.32-1.05-2.66-1.27-4.04-.68-4.27-2.35-8.13-4.28-11.95-1.91-3.79-3.98-7.52-4.91-11.76-.34-1.54-1.01-3.2-2.03-4.36-5.09-5.81-8.07-13-12.9-19.06-6.7-8.41-14.11-16.12-21.35-24.02-4.67-5.09-11.01-8.37-15.11-14.06-.34-.47-.87-.86-1.38-1.16-5.59-3.24-10.89-6.95-16.75-9.75-4.57-2.18-8.85-4.95-13.46-7.02-6.1-2.74-12.35-5.16-18.62-7.49-4.17-1.55-8.41-3.15-12.76-3.98-9.75-1.86-19.58-3.26-29.39-4.84-.4-.06-.85-.18-1.2-.05-3.41,1.23-6.82.16-10.24.08-3.65-.09-7.33-.25-10.94.14-8.63.95-17.22,2.21-25.94,3.36-.72-.54-1.54-1.15-2.38-1.73-.32,0-.65,0-.56,0-.04,0,.33-.03.7-.07-.34.73-.68,1.45-1.12,2.38-.84-.28-1.58-.52-2.32-.78-.9-.33-1.79-.69-2.66-1.03-1.99,4.2-2.01,4.14-5.52,5.32-7.09,2.39-14.17,4.8-21.2,7.33-2.25.81-4.48,1.7-6.33,3.48-1.72,1.65-3.73,3.22-5.9,4.14-7.75,3.26-14.4,8.25-21.12,13.12-3.6,2.61-6.85,5.71-10.42,8.38-3.93,2.93-7.51,6.16-10.33,10.18-.84,1.19-1.75,2.24-3.37,2.4-1.06,0-2.12,0-3.18-.01ZM5.65,187.01c-.35-.43-.65-.95-1.1-1.3-.24-.19-.81-.24-1.04-.08-.23.16-.41.85-.27.99.49.52,1.12.91,1.7,1.35.21-.29.43-.58.71-.97Zm10.12-55.15c-.67-.54-1.03-.97-1.49-1.15-.17-.07-.83.48-.8.68.07.49.41.94.65,1.4.44-.25.89-.51,1.64-.93Zm-.29-3.53c-.34-.06-.67-.13-1.01-.19-.03.26-.05.52-.08.78.35-.04.7-.06,1.03-.14.05-.01.04-.29.06-.45ZM130.91,14.03c-.14-.06-.31-.18-.43-.15-.18.05-.32.21-.48.32.16,0,.33.05.48.02.15-.03.29-.12.43-.19ZM22.08,113.04c-.17-.07-.39-.24-.48-.19-.13.07-.17.32-.24.49.16.07.38.23.47.18.13-.08.17-.31.25-.48Zm-2.72,5.7c-.14-.08-.28-.16-.42-.23-.08.2-.16.4-.25.59.16,0,.35.05.48,0,.09-.04.13-.23.18-.35Zm-11.68,39.18c-.17-.06-.39-.2-.51-.15-.14.06-.19.31-.28.47.17.06.38.2.5.14.14-.07.2-.3.29-.47Z"/>
  </g>
</svg>