<?xml version="1.0" encoding="UTF-8"?>
<svg id="Layer_2" data-name="Layer 2" xmlns="http://www.w3.org/2000/svg" viewBox="0 0 141.85 136.61">
  <defs>
    <style>
      .cls-1 {
        fill: #fff;
        stroke-width: 0px;
      }
    </style>
  </defs>
  <g id="Layer_1-2" data-name="Layer 1">
    <g>
      <path class="cls-1" d="m16.88,136.61c.01-.2.02-.41.03-.67.38.14.33.42.34.67h-.38Z"/>
      <path class="cls-1" d="m14.74,136.61c.04-.17.07-.35.12-.56.32.14.28.35.26.56h-.38Z"/>
      <path class="cls-1" d="m96.02,119.47c-.17.35-.38.47-.64.28-.29-.21-.57-.2-.91-.14-.15-.35-.3-.69-.44-1.02-.4-.14-.59.11-.78.49-.11-.53-.2-.95-.29-1.38.09-.08.18-.16.32-.27-.23-.03-.41-.05-.65-.08.04.27.1.49.11.71,0,.11-.05.3-.11.31-.12.03-.29,0-.39-.07-.23-.18-.45-.38-.62-.61-.09-.12-.1-.31-.09-.47,0-.25.02-.51.09-.75.17-.53,0-1.06.01-1.59,0-.54-.01-1.08,0-1.63.01-.73.05-1.46.07-2.2,0-.17-.03-.34,0-.5.03-.17.1-.32.18-.53-.3-.5-.3-1.45.04-1.9-.35-.67-.41-1.38-.34-2.12.02-.23-.02-.46-.03-.69-.01-.17-.12-.39-.05-.49.3-.41.05-.75-.04-1.13-.09-.41-.12-.83-.16-1.25-.03-.37-.02-.75-.05-1.12-.09-1.27-.16-2.54-.27-3.81-.1-1.15-.24-2.29-.36-3.43-.18-1.73-.37-3.45-.53-5.18-.19-2-.5-3.99-.79-5.97-.2-1.37-.33-2.74-.52-4.11-.07-.54-.21-1.07-.29-1.61-.19-1.2-.36-2.4-.56-3.6-.28-1.7-.58-3.39-.87-5.08-.16-.91-.31-1.82-.47-2.73-.01-.08-.02-.17-.04-.25-.15-.73-.21-.78-.91-.56-.94.29-1.87.62-2.8.92-.25.08-.53.08-.79.16-.64.21-1.32.36-1.91.69-.73.41-1.48.68-2.31.81-.33.05-.63.27-.96.39-.98.38-1.96.76-2.94,1.11-.71.26-1.42.48-2.14.72-.69.22-.71.22-.6.91.21,1.32.47,2.64.67,3.97.26,1.64.48,3.28.72,4.92.09.6.21,1.2.31,1.8.1.64.19,1.28.28,1.92.07.46.13.91.19,1.37.16,1.12.34,2.24.48,3.36.18,1.43.33,2.87.51,4.31.08.62.21,1.24.26,1.87.06.75.12,1.49.28,2.23.1.44.02.91.07,1.36.14,1.23.33,2.45.44,3.67.1,1.02.11,2.04.19,3.06.09,1.19.24,2.38.3,3.57.04.77.17,1.53.04,2.31-.07.42.19.86-.02,1.29.32.47.06,1.03.24,1.53.05.15,0,.33-.01.5,0,.24-.06.5,0,.73.15.52-.14.9-.35,1.32-.07.13-.15.26-.22.4q-.29-.13-.68-.07c.48.31.91.59,1.28.83.03.44.05.81.08,1.19,0,.04.03.11.01.12-.41.36-.12.74-.07,1.13.05.36-.05.46-.44.52-.08.01-.15.01-.26.02.05.37.08.65.51.79.17.05.23.47.3.64-.34.63-.73-.04-1.13.25.4.04.41.49.81.54.2.03.2.35,0,.5-.1.07-.22.11-.39.19.11.08.19.15.21.16-.04.42-.07.79-.12,1.31-.14-.3-.22-.46-.31-.63-.04,0-.08.02-.12.02.05.26.1.52.15.79-.25-.03-.46-.08-.67-.07-.5.02-.52.02-.67-.44-.03-.08-.05-.16-.07-.24-.38.07-.74.21-1.09.18-.36-.03-.7-.22-1.12-.36-.06-.12-.15-.3-.26-.52-.24.02-.48.04-.74.07-.08-.14-.13-.29-.24-.38-.11-.1-.29-.22-.41-.19-.41.11-.74-.06-1.09-.23-.1-.39-.21-.79-.31-1.19-.02-.06-.04-.13-.04-.18.03-.3.11-.6.1-.9,0-.3-.1-.6-.04-.93.08.23.16.46.26.74.14-.1.26-.19.33-.25-.15-.22-.3-.39-.39-.59-.32-.7-.33-1.45-.34-2.21,0-.68.12-1.36-.06-2.04-.08-.3-.16-.65.05-.98.06-.1.01-.29-.03-.42-.2-.58-.26-1.16-.18-1.79.05-.4-.11-.82-.16-1.24-.04-.33-.06-.67-.09-1-.04-.42-.08-.83-.12-1.25-.05-.65-.07-1.29-.14-1.94-.1-1-.25-2-.35-3-.1-1-.15-2-.23-3-.04-.42-.12-.83-.17-1.25-.21-1.75-.41-3.49-.63-5.24-.21-1.71-.42-3.41-.66-5.11-.12-.89-.3-1.78-.44-2.66-.16-.95-.3-1.9-.46-2.85-.19-1.18-.5-2.35-.56-3.54-.07-1.4-.5-2.71-.71-4.08-.1-.68-.19-1.36-.3-2.04-.03-.16-.09-.31-.16-.54-.64.22-1.25.43-1.86.64-1.78.61-3.57,1.21-5.34,1.84-.77.27-1.52.6-2.28.9-.12.05-.23.13-.35.13-.88.05-1.62.52-2.44.77-.53.16-.59.3-.49.84.39,2.12.79,4.25,1.16,6.37.19,1.09.33,2.19.5,3.29.2,1.3.53,2.6.57,3.91.04,1.29.59,2.5.42,3.8-.03.2.07.41.11.62.09.49.21.98.09,1.5-.04.19.06.4.08.61.08.6.15,1.2.22,1.8.06.52.12,1.03.19,1.55.01.1.05.21.06.31.09,1.13.14,2.26.28,3.38.12.95-.07,1.93.21,2.87.01.04.02.09,0,.12-.2.52-.09,1.03.03,1.54,0,.04.03.1.01.12-.4.48-.06.95,0,1.43.03.21.02.42.02.62,0,.33-.02.66.02.99.03.26.04.47-.08.73-.09.2-.02.47-.02.76-.11-.09-.21-.18-.42-.35.04.23.02.39.08.44.59.42.42,1.02.32,1.54-.06.34,0,.68-.07.97-.13.56,0,1.1-.05,1.65-.03.31-.1.61-.15.98-.09-.07-.17-.13-.29-.22-.03.59-.55.5-.92.72-.16-.31-.31-.58-.47-.9-.51.22-.53.79-.8,1.11-.2-.05-.39-.1-.57-.15-.24-.07-.5-.09-.65-.34-.05-.08-.16-.2-.23-.2-.65.04-1.04-.43-1.51-.75-.03-.02-.07-.06-.11-.06-.43,0-.78-.18-1.07-.49-.27-.29-.64-.3-1.07-.31.27-.83-.02-1.72.55-2.55.16.25.26.41.42.66.07-.3-.05-.48-.12-.68-.07-.22-.13-.44-.2-.66-.13-.03-.24-.06-.34-.08-.16-.42.19-.52.38-.67-.14-.17-.31-.32-.38-.5-.04-.1.12-.27.16-.36-.08-.23-.21-.44-.23-.66-.03-.63-.02-1.26-.02-1.89,0-.13.02-.26-.02-.38-.26-.92-.19-1.88-.21-2.81-.02-.77-.15-1.52-.25-2.28-.09-.75-.17-1.5-.25-2.25-.11-1.19-.19-2.38-.32-3.56-.1-.92-.26-1.83-.4-2.74-.1-.64-.29-1.28-.3-1.92-.04-1.71-.66-3.33-.69-5.04,0-.31-.13-.61-.19-.92-.33-1.84-.65-3.68-.98-5.51-.14-.78-.28-1.57-.43-2.35-.04-.2-.13-.39-.21-.63-.31.09-.58.13-.82.24-1.35.65-2.79,1.03-4.2,1.51-1.15.39-2.28.85-3.43,1.25-1.62.56-3.26,1.07-4.89,1.63-.81.28-1.59.65-2.4.93-1.15.38-2.32.71-3.48,1.07-.5.16-.99.35-1.47.53-.56.21-1.1.53-1.68.63-.48.08-.94.35-1.45.28-.04,0-.11.05-.12.09-.11.34-.43.39-.69.48-.53.17-1.09.28-1.63.44-.83.25-1.64.53-2.46.78-.2.06-.4.09-.64.14-.02.08-.05.19-.07.26-.33.12-.64.24-.94.35-.12.04-.27.1-.36.06-.37-.19-.64-.09-.85.33-.14-.31-.24-.53-.39-.85-.2.25-.35.44-.54.67-.14-.07-.34-.16-.58-.27.09-.11.18-.21.29-.33-.31-.47-.27-.95-.14-1.49.13-.56.08-1.16.13-1.74.04-.5.1-1,.15-1.5.11.03.19.06.37.11-.45-.9-.15-1.76-.09-2.6.15-1.86.39-3.71.6-5.56.07-.62.09-1.27.27-1.86.11-.38.05-.72.09-1.08.04-.4.09-.79.13-1.19.13-1.27.25-2.54.4-3.81.06-.51.29-.98.21-1.55-.07-.54.09-1.12.17-1.68.11-.85.24-1.69.36-2.54.17-1.33.29-2.67.53-3.98.15-.82.18-1.64.33-2.45.16-.88.35-1.75.49-2.63.13-.79.18-1.58.3-2.37.19-1.16.4-2.31.63-3.46.21-1.09.44-2.17.67-3.26.03-.12.06-.24.09-.37.17-.79.33-1.59.51-2.38.17-.73.38-1.46.57-2.19.17-.66.34-1.33.52-1.99.21-.73.58-1.44.63-2.18.07-1.02.66-1.84.83-2.81.14-.78.59-1.5.89-2.25.1-.25.13-.52.21-.78.44-1.39,1.19-2.63,1.9-3.89.68-1.22,1.51-2.35,2.58-3.27.75-.64,1.57-1.19,2.6-1.31,1.55-.18,2.88.41,4.09,1.28.85.62,1.55,1.4,2.2,2.23.13.17.32.29.56.51.12-.39.22-.66.29-.94.39-1.48.73-2.98,1.18-4.44.64-2.1,1.22-4.23,2.14-6.24.59-1.29,1.09-2.63,1.71-3.91.47-.96,1.02-1.88,1.63-2.76.82-1.2,1.79-2.28,3.12-2.95,1.38-.7,2.75-.77,4.11.07.21.13.53.12.72.28,1.39,1.12,2.75,2.27,3.73,3.79.76,1.16,1.53,2.31,2.23,3.5.46.77.82,1.6,1.22,2.41.31.62.64,1.23.95,1.85.04.08.06.16.09.25l.18-.05c.09-.15.22-.28.26-.44.62-2.4,1.47-4.73,2.41-7.02.69-1.68,1.4-3.36,2.43-4.89.67-1,1.3-2.01,2.18-2.83.98-.91,2.03-1.69,3.42-1.87.59-.08,1.15-.04,1.73.12.76.21,1.47.48,2.11.95.17.12.32.27.47.41.11.1.19.24.31.31.85.48,1.42,1.21,1.96,1.99.26.37.6.69.88,1.05.3.38.59.76.85,1.17.35.54.69,1.1,1.01,1.67.11.19.13.42.21.67.13.13.36.27.47.48.8,1.57,1.63,3.12,2.36,4.73.78,1.74,1.46,3.52,2.19,5.28.26.64.53,1.28.81,1.91.03.07.1.13.14.18.33,0,.4-.23.49-.44.35-.79.7-1.57,1.04-2.36.63-1.42,1.35-2.79,2.37-3.98.35-.41.59-.89,1.13-1.15.23-.11.42-.42.66-.63.66-.58,1.47-.78,2.28-1.01.1-.03.21-.05.31-.03.59.09,1.19.17,1.77.31.66.16,1.24.48,1.74.96.33.31.74.53,1.09.82.23.18.44.39.62.62.66.8,1.38,1.56,1.95,2.42.75,1.13,1.59,2.2,2.18,3.45.45.96,1.02,1.87,1.52,2.82.22.43.41.87.6,1.32.34.83.67,1.66,1.01,2.49.17.41.34.81.51,1.21.34.81.7,1.61,1.02,2.43.46,1.17.9,2.34,1.33,3.52.24.65.45,1.31.65,1.97.44,1.4.88,2.8,1.29,4.21.27.94.47,1.9.74,2.85.19.66.45,1.31.64,1.97.14.48.2.98.32,1.47.08.32.22.63.31.95.28.99.57,1.97.83,2.96.19.71.35.85,1.06.67,1.32-.34,2.64-.7,3.96-1.03.97-.25,1.95-.47,2.93-.71.73-.18,1.47-.34,2.2-.54.66-.19,1.35-.21,2.02-.42,1.38-.43,2.78-.77,4.19-1.12,1.22-.3,2.45-.57,3.67-.86.43-.1.84-.26,1.27-.36,1.17-.27,2.34-.5,3.5-.77.92-.22,1.82-.48,2.74-.71.57-.15,1.13-.31,1.7-.42.26-.05.55-.04.8.05.65.22.75.88.22,1.33-.05.04-.1.08-.15.11-.61.27-1.21.57-1.84.78-1.5.5-3.03.94-4.52,1.45-1.64.56-3.26,1.2-4.89,1.78-1.1.39-2.22.75-3.32,1.14-1.22.42-2.44.84-3.66,1.27-1.81.64-3.63,1.29-5.44,1.93-.95.33-1.91.62-2.86.96-.65.23-1.28.53-1.91.79-.3.13-.39.36-.34.66.04.23.08.46.14.68.5,1.8.86,3.63,1.11,5.48.07.54.26,1.06.35,1.6.05.3.03.62.03.93,0,.04-.03.1,0,.12.32.49.16,1.07.33,1.58.36,1.11.48,2.25.64,3.4.04.29.09.58.13.87.2,1.41.43,2.82.6,4.23.13,1.02.17,2.04.27,3.06.05.5.19.99.24,1.49.11,1.15.19,2.3.27,3.45.08,1.09.17,2.17.22,3.26.05,1,.06,2,.08,3,.02.67.05,1.33.05,2,0,.94-.02,1.87-.04,2.81-.01.54-.04,1.08-.06,1.62-.02.56-.03,1.13-.05,1.69-.02.46-.18.54-.59.32-.09-.05-.18-.12-.28-.14-1.06-.21-1.97-.79-2.95-1.21-.11-.05-.26-.09-.33-.18-.15-.22-.33-.28-.59-.24-.13.02-.28-.05-.42-.11-.35-.14-.68-.3-1.03-.42-.48-.17-.61-.29-.61-.81,0-.69.01-1.38.01-2.06,0-.21-.02-.42-.03-.63-.03-.5-.05-1-.08-1.5,0-.13,0-.25,0-.38-.12-1.44-.23-2.88-.38-4.32-.13-1.25-.36-2.5-.41-3.75-.06-1.36-.31-2.7-.46-4.05-.24-2.15-.57-4.28-.89-6.42-.13-.87-.32-1.73-.49-2.6-.26-1.36-.61-2.71-.76-4.08-.22-2.05-.84-4.02-1.11-6.06-.09-.65-.19-.7-.83-.54-.32.09-.64.19-.96.3-.81.28-1.62.56-2.43.85-.33.12-.65.27-.97.41-.04.02-.07.05-.11.06-1.36.31-2.61.95-3.96,1.28-.77.19-1.5.53-2.24.82-.3.12-.36.37-.32.67.21,1.45.35,2.91.74,4.34.08.3.15.62.15.93-.01,1.13.46,2.16.57,3.26.03.31.06.62.1.93.05.33.11.65.16.98.21,1.35.41,2.69.62,4.04.1.62.28,1.23.32,1.85.04.65.17,1.28.27,1.92.22,1.41.37,2.82.55,4.24.05.42.11.83.16,1.25.09.75.34,1.48.18,2.24,0,.04,0,.08,0,.13.2,1.36.43,2.73.58,4.1.12,1.08.15,2.17.22,3.25.01.19.05.37.06.56.02.3.23.61-.05.9-.03.03-.02.12.01.17.36.62.26,1.33.37,2,.11.64.09,1.29.12,1.94,0,.14-.03.29-.02.43,0,.22-.01.45.03.66.08.35.17.7-.07.99.07.19.18.36.2.54.04.33,0,.67.06,1,.05.33.16.64-.09.96-.08.1,0,.35.05.52.13.4.3.78.13,1.22-.04.11-.02.25-.02.37.03.65.06,1.29.09,1.94,0,.06.03.15,0,.18-.43.5-.11,1,0,1.49.14.59.2,1.17-.33,1.69.15.03.25.04.41.07-.04.13-.03.3-.11.38-.56.51-.57.51-.34,1.19.08.24.23.48-.09.6.15.18.28.34.44.52-.26.16-.44.28-.69.43.26.07.45.12.69.18-.07.18-.12.32-.19.5-.14-.09-.24-.15-.3-.19-.37.63-.75,1.26-1.16,1.96-.09-.27-.15-.48-.22-.69-.24-.08-.46-.18-.7-.24-.29-.07-.41.06-.4.41.13-.06.25-.11.4-.17.07.18.13.33.18.49.04.15.07.26.28.28.1,0,.21.16.26.27.02.05-.08.22-.14.23-.12.01-.27-.02-.38-.08-.1-.06-.15-.18-.31-.38v.62c-.19-.21-.33-.37-.46-.52.07-.34.05-.65-.25-.88.04-.16.11-.31.1-.47,0-.22-.14-.2-.34-.08.08.19.16.37.24.55-.03.09-.06.17-.1.3-.14-.15-.23-.25-.33-.35.03.32-.05.7.44.67.07,0,.16.17.24.26Zm-26.34-58.19c.23-.03.33-.03.44-.06.67-.17,1.34-.34,2.01-.52.69-.18,1.37-.39,2.06-.56,1.06-.26,2.12-.48,3.18-.74,1.49-.35,2.97-.71,4.46-1.09.87-.22,1.74-.46,2.61-.71.47-.13.53-.26.42-.74-.17-.74-.35-1.47-.51-2.21-.29-1.27-.55-2.54-.85-3.8-.5-2.14-.99-4.29-1.54-6.43-.54-2.11-1.12-4.21-1.74-6.3-1.16-3.92-2.25-7.86-3.76-11.67-.84-2.12-1.69-4.24-2.72-6.28-.61-1.2-1.28-2.36-2.03-3.47-.57-.84-1.25-1.57-2.06-2.17-.48-.36-1.03-.67-1.67-.63-1.06.07-1.82.65-2.41,1.5-.62.9-1.12,1.85-1.54,2.86-.64,1.5-.98,3.08-1.35,4.64-.42,1.77-.67,3.57-.99,5.36-.31,1.73-.3,1.73.22,3.43.58,1.93,1.15,3.86,1.71,5.8.4,1.41.77,2.83,1.15,4.25.39,1.48.79,2.96,1.17,4.44.35,1.38.68,2.76,1.02,4.15.29,1.18.58,2.36.86,3.55.18.75.34,1.51.5,2.27.34,1.58.69,3.16,1.03,4.73.06.26.21.41.37.38Zm-8.25,2.01c-.02-.26-.02-.47-.06-.68-.19-1.03-.39-2.06-.59-3.09-.46-2.41-1.16-4.76-1.6-7.18-.33-1.83-.87-3.63-1.34-5.44-.38-1.46-.8-2.9-1.19-4.36-.33-1.21-.64-2.43-.99-3.63-.4-1.36-.84-2.71-1.25-4.07-.7-2.26-1.38-4.52-2.31-6.72-.6-1.43-1.2-2.86-1.84-4.27-.4-.89-1-1.69-1.49-2.54-.56-.95-1.26-1.77-2.16-2.43-.8-.58-2-.58-2.73.08-.78.7-1.34,1.56-1.71,2.53-.39,1.03-.88,2.03-1.11,3.12-.1.49-.25.97-.36,1.46-.05.22-.05.46-.1.68-.17.75-.38,1.49-.51,2.25-.26,1.61-.47,3.22-.73,4.83-.12.74-.04,1.51-.41,2.2-.03.06,0,.16.03.24.32,1.06.54,2.16.99,3.17.38.84.74,1.68,1.04,2.55.39,1.11.78,2.21,1.17,3.32.49,1.43,1.02,2.84,1.47,4.28.44,1.4.8,2.82,1.19,4.23.73,2.65,1.47,5.29,2.18,7.95.36,1.36.64,2.74.97,4.1.15.64.23.69.87.55,1.09-.23,2.17-.48,3.25-.72.63-.14,1.26-.3,1.89-.46.75-.2,1.49-.42,2.24-.61,1.26-.32,2.53-.61,3.79-.93.44-.11.88-.27,1.38-.44Zm-26.36-14.17c-.1-.28-.21-.57-.31-.87-.27-.82-.5-1.65-.79-2.46-.36-1.02-.73-2.05-1.17-3.04-.38-.86-.61-1.77-1.09-2.6-.43-.75-.72-1.59-1.18-2.35-.54-.9-1.1-1.77-1.78-2.58-.38-.45-.81-.81-1.35-1-.52-.18-1.05-.27-1.61.1-.53.35-.92.77-1.24,1.3-.37.62-.78,1.21-.91,1.95-.05.3-.26.56-.39.85-.05.11-.09.22-.12.34-.13.65-.24,1.31-.4,1.95-.09.37-.24.73-.37,1.09-.04-.01-.12-.04-.2-.06.06.34.19.67.16.99-.04.54-.19,1.07-.28,1.6-.18,1.09-.37,2.18-.52,3.28-.11.83-.18,1.66-.25,2.5-.14,1.71-.27,3.42-.41,5.12-.03.33-.13.66-.15.99-.05,1.21-.07,2.43-.13,3.64-.01.31-.08.63-.21.91-.12.26-.1.47-.04.72.07.26.22.6.12.78-.23.43-.06.81-.02,1.22.01.13,0,.25,0,.38-.03.89-.32,1.77-.09,2.67.01.04,0,.08,0,.13-.03.84-.07,1.67-.1,2.51-.03,1.26-.05,2.51-.09,3.77-.01.44.2.63.62.52.43-.11.85-.23,1.28-.33,1.47-.35,2.93-.7,4.4-1.04.57-.13,1.15-.23,1.72-.37,1.26-.32,2.51-.67,3.77-1,1.22-.32,2.43-.63,3.65-.94,1.24-.31,2.49-.6,3.73-.91.67-.17.76-.33.62-.98-.19-.88-.38-1.76-.59-2.64-.29-1.25-.57-2.5-.88-3.74-.4-1.59-.83-3.16-1.24-4.75-.55-2.14-1.35-4.22-1.74-6.43.22-.07.41-.13.59-.18-.13-.9-.25-1.02-1.06-1.04Zm56.06-27.21c-.31-.14-.55.08-.85.26-.55.33-.93.79-1.21,1.33-.3.57-.54,1.18-.76,1.79-.31.85-.64,1.69-.84,2.56-.35,1.57-.6,3.16-.88,4.75-.03.18-.01.38.04.56.2.73.44,1.44.64,2.17.51,1.84,1.02,3.68,1.52,5.52.23.83.43,1.67.66,2.49.23.82.13,1.71.52,2.5.07.15.07.33.11.49.14.65.27,1.31.43,1.96.37,1.55.76,3.09,1.13,4.64.17.69.29,1.4.46,2.09.12.52.27.62.8.54.25-.04.49-.11.74-.17.55-.13,1.1-.26,1.66-.37.18-.04.38,0,.56-.05.72-.2,1.42-.44,2.14-.63,1.74-.47,3.49-.92,5.23-1.38.86-.23.86-.23.73-1.12-.02-.1-.03-.21-.06-.31-.34-1.43-.66-2.86-1.04-4.28-.7-2.57-1.41-5.14-2.16-7.69-.46-1.57-.97-3.12-1.49-4.67-.24-.72-.52-1.41-.79-2.12-.29-.76-.49-1.57-.88-2.28-.67-1.21-.93-2.62-1.79-3.73-.22-.88-.82-1.55-1.28-2.29-.5-.82-1.1-1.58-1.91-2.13-.4-.27-.82-.51-1.4-.42Zm-47.22-10.43c.06-.36.09-.59.14-.84-.1-.06-.21-.12-.42-.24.15.38-.11.72.28,1.08Zm54.51,100.65c0,.06-.02.12-.02.18.2.01.4.02.65.03-.16-.54-.42-.21-.62-.21ZM43.44,11.3c-.01-.16-.02-.33-.04-.61-.31.31-.22.47.04.61Zm54.12,104.14c.12-.08.25-.15.48-.3-.33-.02-.54-.11-.48.3Zm-.5-1.85c.06-.22.05-.39-.23-.4.08.13.15.27.23.4Zm1.33-.04s.07-.03.1-.04c-.04-.12-.07-.25-.12-.36-.01-.03-.09-.02-.21-.05.1.19.16.32.23.45Zm-1.24,3.68s-.05-.06-.07-.1c-.11.08-.21.16-.32.23.03.04.06.07.08.11.1-.08.2-.16.31-.25Zm-24.07,1.94c-.08.09-.15.15-.16.2,0,.04.08.13.13.13.06,0,.15-.07.16-.12,0-.06-.07-.12-.13-.22Zm21.62-.83s.07-.03.1-.04c0-.04.03-.1.02-.11-.05-.04-.11-.07-.17-.1.02.08.04.17.05.25Zm2.8-.32c-.05.04-.08.06-.11.08.03.05.06.09.1.14.03-.02.09-.05.09-.07-.01-.05-.04-.1-.07-.15Zm-47.73.99s.02.06.02.1c.11-.03.23-.05.34-.08,0-.03-.02-.07-.02-.1l-.34.09Zm19.31,1.88s-.1.04-.14.06c.04.08.08.16.12.24l.09-.04c-.02-.09-.04-.17-.07-.26Zm.02-6.08s-.1.04-.15.05c.04.09.08.19.12.28l.1-.03c-.02-.1-.05-.2-.07-.3Zm29.48.57s-.09-.06-.14-.06c-.02,0-.04.05-.07.08.04.03.08.06.13.08,0,0,.04-.05.08-.1Zm-27.88,6.7s.08-.09.07-.1c-.02-.04-.06-.08-.1-.12-.02.03-.07.06-.06.08.01.05.05.09.08.14Zm27-4.66s.03.07.05.1c.03-.03.07-.06.1-.08-.02-.03-.04-.07-.07-.08-.02,0-.05.04-.08.06Zm-22.59,5.41s-.05.07-.05.09c0,.03.05.05.08.08.02-.04.05-.08.07-.13-.03-.01-.07-.03-.1-.04Zm23.37-13.84s-.05-.06-.07-.08c-.02.04-.05.08-.06.13,0,.01.06.04.09.06.01-.03.03-.07.04-.1Z"/>
      <path class="cls-1" d="m5.67,135.08c0,.24.02.45,0,.65-.05.36-.35.6-.66.46-.34-.16-.64-.08-.97-.04-.77.11-1.04-.1-1.1-.88-.02-.29-.04-.59-.01-.88.04-.48.23-.61.7-.58.22.01.44-.03.66-.05.17-.02.33-.06.5-.06.58,0,.8.19.86.76.02.21.02.42.03.6Zm-.82-.44c-.06,0-.11.01-.17.02.06.24-.1.51.17.79v-.81Zm-1.11.65s.06,0,.09,0v-.65s-.06,0-.09,0v.65Z"/>
      <path class="cls-1" d="m16.74,131.89c-.02-.24-.01-.42-.05-.59-.03-.16-.07-.33-.15-.47-.12-.2-.33-.21-.45-.02-.11.18-.16.38-.24.58-.15.38-.38.57-.68.56-.3,0-.51-.21-.62-.62-.08-.28-.14-.57.11-.83.29.15.15.42.22.61.06.14.17.26.26.38.11-.11.25-.2.32-.33.11-.2.15-.44.27-.63.18-.3.45-.38.76-.27.55.2.73,1.07.25,1.63Z"/>
      <path class="cls-1" d="m14.97,134.76c-.31-.22-.54-.38-.77-.54.21-.31.41-.62.62-.93.03,0,.08.01.1.04.14.2.24.52.41.57.35.09.75.06,1.12.01.11-.01.23-.21.29-.35.05-.12.03-.28.05-.49.37.18.37.47.34.74-.03.28-.21.47-.48.5-.29.04-.59.04-.88.03-.33,0-.64.01-.79.41Z"/>
      <path class="cls-1" d="m17.45,129.03c-1.28-.88-2.49-1.04-3.71.09.1-.65.72-1.11,1.44-1.21.97-.13,1.9.29,2.27,1.12Z"/>
      <path class="cls-1" d="m98.52,118.88c.1.35.18.62.26.89-.48.17-.91.32-1.45.51.15-.27.24-.44.34-.62.11-.2.44-.26.38-.59,0-.03.24-.1.47-.19Z"/>
      <path class="cls-1" d="m54,120.35c-.4.23-.69.19-.98-.12.31-.1.59-.19.92-.3.02.15.03.28.05.43Z"/>
      <path class="cls-1" d="m93.93,118.8c.05.17.1.34.18.62-.36-.16-.38-.35-.35-.56.06-.02.11-.04.17-.06Z"/>
      <path class="cls-1" d="m76.12,116l.09.38s-.08.03-.12.04c-.05-.12-.1-.24-.15-.36.06-.02.12-.04.18-.06Z"/>
      <path class="cls-1" d="m99,115.02c-.04-.11-.08-.23-.12-.34.03-.02.05-.04.08-.06.06.05.14.09.17.16.03.06,0,.14,0,.22-.05,0-.09.02-.14.02Z"/>
      <path class="cls-1" d="m10.37,90.72c.04.12.09.24.13.37-.04.01-.08.03-.12.04-.05-.12-.09-.24-.14-.36.04-.02.08-.03.13-.05Z"/>
      <path class="cls-1" d="m.33,78.71c-.08.07-.13.14-.16.13-.07-.02-.12-.08-.18-.13.04-.04.08-.12.11-.12.07,0,.13.06.23.11Z"/>
      <path class="cls-1" d="m119.77,82s.03-.07.05-.1c.03.02.08.03.09.06,0,.03-.03.06-.04.1-.03-.02-.06-.04-.09-.06Z"/>
      <path class="cls-1" d="m35.65,49.5c-.11.06-.22.12-.4.22.05-.3.15-.39.4-.22Z"/>
    </g>
  </g>
</svg>