<?xml version="1.0" encoding="UTF-8"?>
<svg id="Layer_2" data-name="Layer 2" xmlns="http://www.w3.org/2000/svg" viewBox="0 0 113.55 92.48">
  <defs>
    <style>
      .cls-1 {
        fill: #fff;
        stroke-width: 0px;
      }
    </style>
  </defs>
  <g id="Layer_1-2" data-name="Layer 1">
    <g id="hqdzAL">
      <g>
        <path class="cls-1" d="m103.8,52.98c7.68.15,10.25-2.78,9.67-9.36-.42-4.65-4.28-7.37-9.44-6.55-1.47.23-2.88.96-4.36,1.09-1.9.17-3.83-.03-5.74-.07.25-2.05-.1-4.44.85-6.08,2.98-5.13,3.38-8.2.62-11-3.64-3.68-7.03-3.87-12.15-1.14-1.18.63-3.5.77-4.31.05-.89-.79-.84-2.86-.82-4.36.01-.77.98-1.49,1.3-2.31,1.61-4.15-.01-7.88-2.6-10.75-2.41-2.68-5.85-3.04-9.57-1.61-1.9.73-4.57.7-6.47-.06-4.66-1.85-9.03-.67-11.07,3.62-2.09,4.38-.28,8.97,3.99,11.29,3.21,1.75,5.63.71,8.34-.99,1.09-.68,2.74-.48,4.14-.69.18,1.5.61,3.01.48,4.48-.13,1.61-.72,3.2-1.2,4.78-1.35,4.41.47,7.58,3.94,10.09,3.2,2.31,6,1.28,9.14-.58,1.36-.81,3.74.1,5.66.22-.15,1.72.25,3.76-.54,5.1-2.69,4.56-2.67,9.46.2,13.72.8,1.18,1.5,3.49.9,4.3-.86,1.18-2.9,1.85-4.51,2.02-1.38.14-2.84-.81-4.29-1.18-7.18-1.82-11.3,1.85-9.94,9.03.35,1.85,1.74,3.49,2.14,5.34.34,1.55.52,3.75-.32,4.76-.9,1.08-3.06,1.4-4.7,1.49-1.05.05-2.15-.93-3.23-1.45-3.25-1.56-6.6-2.8-9.38.63-2.22,2.75-1.32,10.06,1.61,11.92,1.98,1.26,5.76,2.98,6.59,2.21,4.46-4.16,8.56-1.87,12.92-.4,4.33,1.47,8.74-1.71,8.41-6.24-.19-2.64-1.46-5.19-1.76-7.84-.2-1.74-.15-4.28.9-5.17,1.13-.96,3.55-.52,5.4-.48.67.02,1.3.7,1.99,1.01,4.64,2.08,8.41.54,8.96-4.5.41-3.71-.69-7.62-1.32-11.4-.62-3.7.74-5.18,4.39-4.33,2.17.5,4.32,1.13,5.17,1.35ZM15.12,26.86c1.6,2.67,2.72,6.49,5.27,8.28,2.74,1.91,6.58,1.42,9.15-2.04,1.53-2.06,3.5-1.24,4.19.73.58,1.64.12,3.65.13,5.5.01,3.94-.05,7.88.06,11.82.07,2.27.41,4.54.64,6.8-2.22-.03-4.43-.04-6.65-.09-.29,0-.59-.11-.88-.2-3.98-1.39-7.62-.81-10,2.75-2.22,3.32-.59,6.48,1.24,9.62.89,1.53,1.65,4.44.87,5.32-1.21,1.37-3.75,1.88-5.8,2.11-1.35.15-2.83-.81-4.25-1.29-5.13-1.74-9.57,1.69-9.01,7.1.18,1.77.75,3.52,1.32,5.22,1.27,3.78,4.02,5.16,7.33,2.96,4.75-3.16,9.36-2.13,14.25-.85,1.32.34,3.27,0,4.35-.8,3.68-2.75,3.88-6.27,1.93-11.31-.73-1.9-.75-4.7.14-6.46,1.38-2.69,3.75-1.08,5.86-.13,6.16,2.77,10.91-.06,11.3-6.82.12-2.02-.7-4.08-.93-6.13-.23-2.06-.26-4.14-.37-6.21,1.91.16,3.88.12,5.73.54,3.62.81,7.63,1.82,9.93-1.67,1.42-2.15,2-5.79,1.24-8.23-1.87-5.99-6.11-6.86-12.8-3.82-1.31.6-4.19.57-4.54-.11-.83-1.57-.67-3.72-.65-5.63,0-.59,1.25-1.16,1.27-1.76.11-3.11,1.04-6.79-.29-9.2-1.81-3.3-5.84-3.93-9.65-2.57-.83.3-1.52,1.25-2.32,1.31-1.68.13-3.94.48-4.93-.4-.9-.8-.78-3.2-.46-4.77.49-2.46,1.92-4.75,2.26-7.2.72-5.28-5.24-10.35-9.87-8.3-4.18,1.84-7.89,1.96-12.07,0C4.16-.96.85.42.17,4.56c-.48,2.91.08,6.84,1.81,9.01,1.39,1.74,5.22,1.75,8.01,2.06,1.37.15,2.87-1.17,4.29-1.11,1.5.05,3.39.58,4.28,1.61.56.64-.29,2.65-.73,3.96-.65,1.92-1.5,3.78-2.71,6.78Z"/>
        <path class="cls-1" d="m103.8,52.98c-.85-.22-3-.85-5.17-1.35-3.64-.84-5,.64-4.39,4.33.63,3.78,1.72,7.69,1.32,11.4-.55,5.04-4.32,6.58-8.96,4.5-.68-.31-1.32-.99-1.99-1.01-1.85-.04-4.27-.49-5.4.48-1.05.89-1.1,3.43-.9,5.17.3,2.65,1.57,5.2,1.76,7.84.33,4.53-4.08,7.71-8.41,6.24-4.36-1.47-8.45-3.76-12.92.4-.83.77-4.61-.95-6.59-2.21-2.93-1.86-3.83-9.18-1.61-11.92,2.78-3.44,6.13-2.2,9.38-.63,1.08.52,2.18,1.51,3.23,1.45,1.64-.08,3.8-.4,4.7-1.49.84-1.01.66-3.22.32-4.76-.4-1.85-1.8-3.49-2.14-5.34-1.36-7.18,2.76-10.86,9.94-9.03,1.45.37,2.92,1.32,4.29,1.18,1.61-.16,3.66-.84,4.51-2.02.6-.82-.1-3.12-.9-4.3-2.88-4.26-2.89-9.16-.2-13.72.79-1.34.39-3.38.54-5.1-1.92-.13-4.3-1.03-5.66-.22-3.14,1.86-5.94,2.9-9.14.58-3.47-2.51-5.29-5.68-3.94-10.09.48-1.57,1.06-3.16,1.2-4.78.12-1.47-.3-2.99-.48-4.48-1.4.2-3.05,0-4.14.69-2.71,1.69-5.14,2.73-8.34.99-4.27-2.33-6.08-6.91-3.99-11.29,2.05-4.3,6.41-5.47,11.07-3.62,1.9.75,4.57.79,6.47.06,3.72-1.43,7.16-1.06,9.57,1.61,2.58,2.87,4.21,6.6,2.6,10.75-.32.82-1.29,1.54-1.3,2.31-.02,1.5-.07,3.57.82,4.36.81.73,3.13.58,4.31-.05,5.12-2.73,8.51-2.55,12.15,1.14,2.76,2.8,2.36,5.87-.62,11-.95,1.64-.61,4.03-.85,6.08,1.92.04,3.85.24,5.74.07,1.47-.13,2.88-.86,4.36-1.09,5.16-.82,9.02,1.9,9.44,6.55.59,6.58-1.99,9.5-9.67,9.36Z"/>
        <path class="cls-1" d="m15.12,26.86c1.21-3,2.06-4.85,2.71-6.78.44-1.32,1.29-3.32.73-3.96-.89-1.03-2.79-1.55-4.28-1.61-1.42-.05-2.92,1.26-4.29,1.11-2.8-.31-6.63-.32-8.01-2.06C.24,11.39-.32,7.47.17,4.56.85.42,4.16-.96,8.12.9c4.18,1.96,7.89,1.84,12.07,0,4.64-2.04,10.59,3.02,9.87,8.3-.34,2.46-1.76,4.75-2.26,7.2-.32,1.57-.43,3.97.46,4.77.99.89,3.25.54,4.93.4.8-.06,1.49-1.01,2.32-1.31,3.81-1.36,7.83-.74,9.65,2.57,1.32,2.41.39,6.09.29,9.2-.02.6-1.27,1.17-1.27,1.76-.02,1.91-.17,4.06.65,5.63.36.68,3.23.71,4.54.11,6.69-3.04,10.93-2.17,12.8,3.82.76,2.44.18,6.08-1.24,8.23-2.3,3.49-6.31,2.48-9.93,1.67-1.86-.42-3.82-.37-5.73-.54.12,2.07.14,4.15.37,6.21.23,2.06,1.05,4.11.93,6.13-.39,6.76-5.14,9.58-11.3,6.82-2.11-.95-4.48-2.56-5.86.13-.9,1.76-.88,4.56-.14,6.46,1.95,5.04,1.75,8.56-1.93,11.31-1.08.8-3.03,1.15-4.35.8-4.89-1.27-9.49-2.31-14.25.85-3.31,2.2-6.06.82-7.33-2.96-.57-1.7-1.14-3.45-1.32-5.22-.56-5.4,3.88-8.84,9.01-7.1,1.42.48,2.9,1.44,4.25,1.29,2.05-.23,4.58-.74,5.8-2.11.78-.88.02-3.79-.87-5.32-1.83-3.15-3.46-6.3-1.24-9.62,2.38-3.56,6.02-4.14,10-2.75.28.1.58.2.88.2,2.22.04,4.43.06,6.65.09-.22-2.27-.57-4.53-.64-6.8-.11-3.94-.05-7.88-.06-11.82,0-1.85.45-3.85-.13-5.5-.69-1.97-2.67-2.78-4.19-.73-2.57,3.46-6.41,3.95-9.15,2.04-2.55-1.78-3.67-5.6-5.27-8.28Z"/>
      </g>
    </g>
  </g>
</svg>